<svg width="195" height="37" viewBox="0 0 195 37" fill="none" xmlns="http://www.w3.org/2000/svg">
<rect width="194.191" height="37" rx="4" fill="#C8AC48"/>
<mask id="mask0" mask-type="alpha" maskUnits="userSpaceOnUse" x="0" y="0" width="195" height="37">
<rect width="194.191" height="37" rx="4" fill="#A68C2F"/>
</mask>
<g mask="url(#mask0)">
<path d="M138.924 0L55.8394 37H194.191V0H138.924Z" fill="#B89D3B"/>
</g>
<path d="M66.4991 21.3488H63.1071L62.5439 23H60.2399L63.5551 14.0144H66.0767L69.3919 23H67.0623L66.4991 21.3488ZM65.9359 19.6848L64.8095 16.3568L63.6703 19.6848H65.9359ZM73.4683 15.768C74.3899 15.768 75.1622 16.024 75.7851 16.536C76.408 17.0395 76.8006 17.7349 76.9627 18.6224H74.6459C74.5776 18.3152 74.4368 18.0763 74.2235 17.9056C74.0102 17.7349 73.7414 17.6496 73.4171 17.6496C73.0331 17.6496 72.7174 17.8032 72.4699 18.1104C72.2224 18.4091 72.0987 18.8485 72.0987 19.4288C72.0987 20.0091 72.2224 20.4528 72.4699 20.76C72.7174 21.0587 73.0331 21.208 73.4171 21.208C73.7414 21.208 74.0102 21.1227 74.2235 20.952C74.4368 20.7813 74.5776 20.5424 74.6459 20.2352H76.9627C76.8006 21.1227 76.408 21.8224 75.7851 22.3344C75.1622 22.8379 74.3899 23.0896 73.4683 23.0896C72.7686 23.0896 72.1456 22.9445 71.5995 22.6544C71.0619 22.3557 70.6395 21.9291 70.3323 21.3744C70.0251 20.8197 69.8715 20.1712 69.8715 19.4288C69.8715 18.6779 70.0208 18.0293 70.3195 17.4832C70.6267 16.9285 71.0534 16.5061 71.5995 16.216C72.1456 15.9173 72.7686 15.768 73.4683 15.768ZM82.15 21.1184V23H81.1644C80.3281 23 79.6753 22.7952 79.206 22.3856C78.7452 21.9675 78.5148 21.2805 78.5148 20.3248V17.7008H77.5548V15.8576H78.5148V14.104H80.7036V15.8576H82.1372V17.7008H80.7036V20.3632C80.7036 20.6448 80.7591 20.8411 80.87 20.952C80.9895 21.0629 81.1857 21.1184 81.4588 21.1184H82.15ZM83.1754 13.848C83.1754 13.5152 83.2949 13.2421 83.5338 13.0288C83.7727 12.8069 84.0885 12.696 84.481 12.696C84.8735 12.696 85.1893 12.8069 85.4282 13.0288C85.6671 13.2421 85.7866 13.5152 85.7866 13.848C85.7866 14.1723 85.6671 14.4453 85.4282 14.6672C85.1893 14.8805 84.8735 14.9872 84.481 14.9872C84.0885 14.9872 83.7727 14.8805 83.5338 14.6672C83.2949 14.4453 83.1754 14.1723 83.1754 13.848ZM85.569 15.8576V23H83.3802V15.8576H85.569ZM90.3826 20.8624L91.9314 15.8576H94.261L91.7266 23H89.013L86.4786 15.8576H88.8082L90.3826 20.8624ZM101.952 19.2368C101.952 19.416 101.93 19.6123 101.888 19.8256H96.9341C96.9597 20.3632 97.0962 20.7515 97.3437 20.9904C97.5912 21.2208 97.9069 21.336 98.2909 21.336C98.6152 21.336 98.884 21.2549 99.0973 21.0928C99.3106 20.9307 99.4514 20.7216 99.5197 20.4656H101.837C101.743 20.9691 101.538 21.4213 101.222 21.8224C100.906 22.2149 100.505 22.5264 100.019 22.7568C99.5325 22.9787 98.9906 23.0896 98.3933 23.0896C97.6936 23.0896 97.0706 22.9445 96.5245 22.6544C95.9869 22.3557 95.5645 21.9291 95.2573 21.3744C94.9501 20.8197 94.7965 20.1712 94.7965 19.4288C94.7965 18.6779 94.9458 18.0293 95.2445 17.4832C95.5517 16.9285 95.9784 16.5061 96.5245 16.216C97.0706 15.9173 97.6936 15.768 98.3933 15.768C99.1016 15.768 99.7245 15.9131 100.262 16.2032C100.8 16.4933 101.214 16.9029 101.504 17.432C101.802 17.9525 101.952 18.5541 101.952 19.2368ZM99.7373 18.904C99.7458 18.4347 99.6178 18.0848 99.3533 17.8544C99.0973 17.6155 98.7773 17.496 98.3933 17.496C97.9922 17.496 97.6594 17.6155 97.3949 17.8544C97.1304 18.0933 96.981 18.4432 96.9469 18.904H99.7373ZM113.694 23H111.505L107.844 17.4448V23H105.655V13.9504H107.844L111.505 19.5568V13.9504H113.694V23ZM118.546 15.768C119.254 15.768 119.886 15.9173 120.44 16.216C121.004 16.5061 121.443 16.9285 121.759 17.4832C122.083 18.0379 122.245 18.6864 122.245 19.4288C122.245 20.1712 122.083 20.8197 121.759 21.3744C121.443 21.9291 121.004 22.3557 120.44 22.6544C119.886 22.9445 119.254 23.0896 118.546 23.0896C117.838 23.0896 117.202 22.9445 116.639 22.6544C116.076 22.3557 115.632 21.9291 115.308 21.3744C114.992 20.8197 114.834 20.1712 114.834 19.4288C114.834 18.6864 114.992 18.0379 115.308 17.4832C115.632 16.9285 116.076 16.5061 116.639 16.216C117.202 15.9173 117.838 15.768 118.546 15.768ZM118.546 17.6624C118.128 17.6624 117.774 17.816 117.484 18.1232C117.202 18.4219 117.061 18.8571 117.061 19.4288C117.061 20.0005 117.202 20.4357 117.484 20.7344C117.774 21.0331 118.128 21.1824 118.546 21.1824C118.964 21.1824 119.314 21.0331 119.596 20.7344C119.877 20.4357 120.018 20.0005 120.018 19.4288C120.018 18.8571 119.877 18.4219 119.596 18.1232C119.314 17.816 118.964 17.6624 118.546 17.6624ZM133.825 15.8576L131.995 23H129.55L128.257 18.2128L126.951 23H124.507L122.676 15.8576H124.865L125.812 21.0032L127.143 15.8576H129.473L130.843 21.016L131.79 15.8576H133.825Z" fill="#F2F2F2"/>
</svg>
