<svg width="195" height="37" viewBox="0 0 195 37" fill="none" xmlns="http://www.w3.org/2000/svg">
<rect width="194.191" height="37" rx="4" fill="#C8AC48"/>
<mask id="mask0" mask-type="alpha" maskUnits="userSpaceOnUse" x="0" y="0" width="195" height="37">
<rect width="194.191" height="37" rx="4" fill="#A68C2F"/>
</mask>
<g mask="url(#mask0)">
<path d="M138.924 0L55.8394 37H194.191V0H138.924Z" fill="#B89D3B"/>
</g>
<path d="M24.3872 21.4128H21.0336L20.496 23H18.2048L21.456 14.0144H23.9904L27.2416 23H24.9248L24.3872 21.4128ZM23.824 19.7232L22.7104 16.4336L21.6096 19.7232H23.824ZM27.7959 19.416C27.7959 18.6821 27.9324 18.0379 28.2055 17.4832C28.4871 16.9285 28.8668 16.5019 29.3447 16.2032C29.8226 15.9045 30.3559 15.7552 30.9447 15.7552C31.414 15.7552 31.8407 15.8533 32.2247 16.0496C32.6172 16.2459 32.9244 16.5104 33.1463 16.8432V13.528H35.3351V23H33.1463V21.976C32.9415 22.3173 32.6471 22.5904 32.2631 22.7952C31.8876 23 31.4482 23.1024 30.9447 23.1024C30.3559 23.1024 29.8226 22.9531 29.3447 22.6544C28.8668 22.3472 28.4871 21.9163 28.2055 21.3616C27.9324 20.7984 27.7959 20.1499 27.7959 19.416ZM33.1463 19.4288C33.1463 18.8827 32.9927 18.4517 32.6855 18.136C32.3868 17.8203 32.0199 17.6624 31.5847 17.6624C31.1495 17.6624 30.7783 17.8203 30.4711 18.136C30.1724 18.4432 30.0231 18.8699 30.0231 19.416C30.0231 19.9621 30.1724 20.3973 30.4711 20.7216C30.7783 21.0373 31.1495 21.1952 31.5847 21.1952C32.0199 21.1952 32.3868 21.0373 32.6855 20.7216C32.9927 20.4059 33.1463 19.9749 33.1463 19.4288ZM36.4834 19.416C36.4834 18.6821 36.6199 18.0379 36.893 17.4832C37.1746 16.9285 37.5543 16.5019 38.0322 16.2032C38.5101 15.9045 39.0434 15.7552 39.6322 15.7552C40.1015 15.7552 40.5282 15.8533 40.9122 16.0496C41.3047 16.2459 41.6119 16.5104 41.8338 16.8432V13.528H44.0226V23H41.8338V21.976C41.629 22.3173 41.3346 22.5904 40.9506 22.7952C40.5751 23 40.1357 23.1024 39.6322 23.1024C39.0434 23.1024 38.5101 22.9531 38.0322 22.6544C37.5543 22.3472 37.1746 21.9163 36.893 21.3616C36.6199 20.7984 36.4834 20.1499 36.4834 19.416ZM41.8338 19.4288C41.8338 18.8827 41.6802 18.4517 41.373 18.136C41.0743 17.8203 40.7074 17.6624 40.2722 17.6624C39.837 17.6624 39.4658 17.8203 39.1586 18.136C38.8599 18.4432 38.7106 18.8699 38.7106 19.416C38.7106 19.9621 38.8599 20.3973 39.1586 20.7216C39.4658 21.0373 39.837 21.1952 40.2722 21.1952C40.7074 21.1952 41.0743 21.0373 41.373 20.7216C41.6802 20.4059 41.8338 19.9749 41.8338 19.4288ZM53.9506 14.0144V20.1328C53.9506 21.08 53.6818 21.8096 53.1442 22.3216C52.6151 22.8336 51.8983 23.0896 50.9938 23.0896C50.0466 23.0896 49.2871 22.8208 48.7154 22.2832C48.1437 21.7456 47.8578 20.9819 47.8578 19.992H50.0338C50.0338 20.3675 50.1106 20.6533 50.2642 20.8496C50.4178 21.0373 50.6397 21.1312 50.9298 21.1312C51.1943 21.1312 51.3991 21.0459 51.5442 20.8752C51.6893 20.7045 51.7618 20.4571 51.7618 20.1328V14.0144H53.9506ZM62.7714 15.8576V23H60.5826V22.0272C60.3607 22.3429 60.0578 22.5989 59.6738 22.7952C59.2983 22.9829 58.8802 23.0768 58.4194 23.0768C57.8733 23.0768 57.3911 22.9573 56.973 22.7184C56.5549 22.4709 56.2306 22.1168 56.0002 21.656C55.7698 21.1952 55.6546 20.6533 55.6546 20.0304V15.8576H57.8306V19.736C57.8306 20.2139 57.9543 20.5851 58.2018 20.8496C58.4493 21.1141 58.7821 21.2464 59.2002 21.2464C59.6269 21.2464 59.9639 21.1141 60.2114 20.8496C60.4589 20.5851 60.5826 20.2139 60.5826 19.736V15.8576H62.7714ZM63.9084 19.416C63.9084 18.6821 64.0449 18.0379 64.318 17.4832C64.5996 16.9285 64.9793 16.5019 65.4572 16.2032C65.9351 15.9045 66.4684 15.7552 67.0572 15.7552C67.5265 15.7552 67.9532 15.8533 68.3372 16.0496C68.7297 16.2459 69.0369 16.5104 69.2588 16.8432V13.528H71.4476V23H69.2588V21.976C69.054 22.3173 68.7596 22.5904 68.3756 22.7952C68.0001 23 67.5607 23.1024 67.0572 23.1024C66.4684 23.1024 65.9351 22.9531 65.4572 22.6544C64.9793 22.3472 64.5996 21.9163 64.318 21.3616C64.0449 20.7984 63.9084 20.1499 63.9084 19.416ZM69.2588 19.4288C69.2588 18.8827 69.1052 18.4517 68.798 18.136C68.4993 17.8203 68.1324 17.6624 67.6972 17.6624C67.262 17.6624 66.8908 17.8203 66.5836 18.136C66.2849 18.4432 66.1356 18.8699 66.1356 19.416C66.1356 19.9621 66.2849 20.3973 66.5836 20.7216C66.8908 21.0373 67.262 21.1952 67.6972 21.1952C68.1324 21.1952 68.4993 21.0373 68.798 20.7216C69.1052 20.4059 69.2588 19.9749 69.2588 19.4288ZM75.7447 15.7552C76.2482 15.7552 76.6876 15.8576 77.0631 16.0624C77.4471 16.2672 77.7415 16.536 77.9463 16.8688V15.8576H80.1351V22.9872C80.1351 23.6443 80.0028 24.2373 79.7383 24.7664C79.4823 25.304 79.0855 25.7307 78.5479 26.0464C78.0188 26.3621 77.3575 26.52 76.5639 26.52C75.5058 26.52 74.6482 26.2683 73.9911 25.7648C73.334 25.2699 72.9586 24.5957 72.8647 23.7424H75.0279C75.0962 24.0155 75.2583 24.2288 75.5143 24.3824C75.7703 24.5445 76.086 24.6256 76.4615 24.6256C76.9138 24.6256 77.2722 24.4933 77.5367 24.2288C77.8098 23.9728 77.9463 23.5589 77.9463 22.9872V21.976C77.733 22.3088 77.4386 22.5819 77.0631 22.7952C76.6876 23 76.2482 23.1024 75.7447 23.1024C75.1559 23.1024 74.6226 22.9531 74.1447 22.6544C73.6668 22.3472 73.2871 21.9163 73.0055 21.3616C72.7324 20.7984 72.5959 20.1499 72.5959 19.416C72.5959 18.6821 72.7324 18.0379 73.0055 17.4832C73.2871 16.9285 73.6668 16.5019 74.1447 16.2032C74.6226 15.9045 75.1559 15.7552 75.7447 15.7552ZM77.9463 19.4288C77.9463 18.8827 77.7927 18.4517 77.4855 18.136C77.1868 17.8203 76.8199 17.6624 76.3847 17.6624C75.9495 17.6624 75.5783 17.8203 75.2711 18.136C74.9724 18.4432 74.8231 18.8699 74.8231 19.416C74.8231 19.9621 74.9724 20.3973 75.2711 20.7216C75.5783 21.0373 75.9495 21.1952 76.3847 21.1952C76.8199 21.1952 77.1868 21.0373 77.4855 20.7216C77.7927 20.4059 77.9463 19.9749 77.9463 19.4288ZM88.4514 19.3136C88.4514 19.5184 88.4386 19.7317 88.413 19.9536H83.4594C83.4935 20.3973 83.6343 20.7387 83.8818 20.9776C84.1378 21.208 84.4493 21.3232 84.8162 21.3232C85.3623 21.3232 85.7421 21.0928 85.9554 20.632H88.285C88.1655 21.1013 87.9479 21.5237 87.6322 21.8992C87.325 22.2747 86.9367 22.5691 86.4674 22.7824C85.9981 22.9957 85.4733 23.1024 84.893 23.1024C84.1933 23.1024 83.5703 22.9531 83.0242 22.6544C82.4781 22.3557 82.0514 21.9291 81.7442 21.3744C81.437 20.8197 81.2834 20.1712 81.2834 19.4288C81.2834 18.6864 81.4327 18.0379 81.7314 17.4832C82.0386 16.9285 82.4653 16.5019 83.0114 16.2032C83.5575 15.9045 84.1847 15.7552 84.893 15.7552C85.5842 15.7552 86.1986 15.9003 86.7362 16.1904C87.2738 16.4805 87.6919 16.8944 87.9906 17.432C88.2978 17.9696 88.4514 18.5968 88.4514 19.3136ZM86.2114 18.7376C86.2114 18.3621 86.0834 18.0635 85.8274 17.8416C85.5714 17.6197 85.2514 17.5088 84.8674 17.5088C84.5005 17.5088 84.189 17.6155 83.933 17.8288C83.6855 18.0421 83.5319 18.3451 83.4722 18.7376H86.2114ZM98.7197 15.7808C99.6072 15.7808 100.311 16.0496 100.832 16.5872C101.361 17.1248 101.625 17.8715 101.625 18.8272V23H99.4493V19.1216C99.4493 18.6608 99.3256 18.3067 99.0781 18.0592C98.8392 17.8032 98.5064 17.6752 98.0797 17.6752C97.653 17.6752 97.316 17.8032 97.0685 18.0592C96.8296 18.3067 96.7101 18.6608 96.7101 19.1216V23H94.5341V19.1216C94.5341 18.6608 94.4104 18.3067 94.1629 18.0592C93.924 17.8032 93.5912 17.6752 93.1645 17.6752C92.7378 17.6752 92.4008 17.8032 92.1533 18.0592C91.9144 18.3067 91.7949 18.6608 91.7949 19.1216V23H89.6061V15.8576H91.7949V16.7536C92.0168 16.4549 92.3069 16.2203 92.6653 16.0496C93.0237 15.8704 93.429 15.7808 93.8813 15.7808C94.4189 15.7808 94.8968 15.896 95.3149 16.1264C95.7416 16.3568 96.0744 16.6853 96.3133 17.112C96.5608 16.7195 96.8978 16.3995 97.3245 16.152C97.7512 15.9045 98.2162 15.7808 98.7197 15.7808ZM109.889 19.3136C109.889 19.5184 109.876 19.7317 109.851 19.9536H104.897C104.931 20.3973 105.072 20.7387 105.319 20.9776C105.575 21.208 105.887 21.3232 106.254 21.3232C106.8 21.3232 107.18 21.0928 107.393 20.632H109.723C109.603 21.1013 109.385 21.5237 109.07 21.8992C108.763 22.2747 108.374 22.5691 107.905 22.7824C107.436 22.9957 106.911 23.1024 106.331 23.1024C105.631 23.1024 105.008 22.9531 104.462 22.6544C103.916 22.3557 103.489 21.9291 103.182 21.3744C102.875 20.8197 102.721 20.1712 102.721 19.4288C102.721 18.6864 102.87 18.0379 103.169 17.4832C103.476 16.9285 103.903 16.5019 104.449 16.2032C104.995 15.9045 105.622 15.7552 106.331 15.7552C107.022 15.7552 107.636 15.9003 108.174 16.1904C108.711 16.4805 109.129 16.8944 109.428 17.432C109.735 17.9696 109.889 18.5968 109.889 19.3136ZM107.649 18.7376C107.649 18.3621 107.521 18.0635 107.265 17.8416C107.009 17.6197 106.689 17.5088 106.305 17.5088C105.938 17.5088 105.627 17.6155 105.371 17.8288C105.123 18.0421 104.969 18.3451 104.91 18.7376H107.649ZM115.396 15.7808C116.232 15.7808 116.897 16.0539 117.392 16.6C117.896 17.1376 118.148 17.88 118.148 18.8272V23H115.972V19.1216C115.972 18.6437 115.848 18.2725 115.6 18.008C115.353 17.7435 115.02 17.6112 114.602 17.6112C114.184 17.6112 113.851 17.7435 113.604 18.008C113.356 18.2725 113.232 18.6437 113.232 19.1216V23H111.044V15.8576H113.232V16.8048C113.454 16.4891 113.753 16.2416 114.128 16.0624C114.504 15.8747 114.926 15.7808 115.396 15.7808ZM123.649 21.144V23H122.536C121.742 23 121.124 22.808 120.68 22.424C120.236 22.0315 120.014 21.3957 120.014 20.5168V17.6752H119.144V15.8576H120.014V14.1168H122.203V15.8576H123.637V17.6752H122.203V20.5424C122.203 20.7557 122.254 20.9093 122.357 21.0032C122.459 21.0971 122.63 21.144 122.869 21.144H123.649ZM132.163 23L130.295 19.608H129.77V23H127.581V14.0144H131.255C131.963 14.0144 132.565 14.1381 133.059 14.3856C133.563 14.6331 133.938 14.9744 134.186 15.4096C134.433 15.8363 134.557 16.3141 134.557 16.8432C134.557 17.4405 134.386 17.9739 134.045 18.4432C133.712 18.9125 133.217 19.2453 132.56 19.4416L134.634 23H132.163ZM129.77 18.0592H131.127C131.528 18.0592 131.826 17.9611 132.023 17.7648C132.227 17.5685 132.33 17.2912 132.33 16.9328C132.33 16.5915 132.227 16.3227 132.023 16.1264C131.826 15.9301 131.528 15.832 131.127 15.832H129.77V18.0592ZM142.664 19.3136C142.664 19.5184 142.651 19.7317 142.626 19.9536H137.672C137.706 20.3973 137.847 20.7387 138.094 20.9776C138.35 21.208 138.662 21.3232 139.029 21.3232C139.575 21.3232 139.955 21.0928 140.168 20.632H142.498C142.378 21.1013 142.16 21.5237 141.845 21.8992C141.538 22.2747 141.149 22.5691 140.68 22.7824C140.211 22.9957 139.686 23.1024 139.106 23.1024C138.406 23.1024 137.783 22.9531 137.237 22.6544C136.691 22.3557 136.264 21.9291 135.957 21.3744C135.65 20.8197 135.496 20.1712 135.496 19.4288C135.496 18.6864 135.645 18.0379 135.944 17.4832C136.251 16.9285 136.678 16.5019 137.224 16.2032C137.77 15.9045 138.397 15.7552 139.106 15.7552C139.797 15.7552 140.411 15.9003 140.949 16.1904C141.486 16.4805 141.904 16.8944 142.203 17.432C142.51 17.9696 142.664 18.5968 142.664 19.3136ZM140.424 18.7376C140.424 18.3621 140.296 18.0635 140.04 17.8416C139.784 17.6197 139.464 17.5088 139.08 17.5088C138.713 17.5088 138.402 17.6155 138.146 17.8288C137.898 18.0421 137.744 18.3451 137.685 18.7376H140.424ZM146.724 23.1024C146.101 23.1024 145.547 22.9957 145.06 22.7824C144.574 22.5691 144.19 22.2789 143.908 21.912C143.627 21.5365 143.469 21.1184 143.435 20.6576H145.598C145.623 20.9051 145.739 21.1056 145.943 21.2592C146.148 21.4128 146.4 21.4896 146.699 21.4896C146.972 21.4896 147.181 21.4384 147.326 21.336C147.479 21.2251 147.556 21.0843 147.556 20.9136C147.556 20.7088 147.45 20.5595 147.236 20.4656C147.023 20.3632 146.677 20.2523 146.199 20.1328C145.687 20.0133 145.261 19.8896 144.919 19.7616C144.578 19.6251 144.284 19.416 144.036 19.1344C143.789 18.8443 143.665 18.456 143.665 17.9696C143.665 17.56 143.776 17.1888 143.998 16.856C144.228 16.5147 144.561 16.2459 144.996 16.0496C145.44 15.8533 145.965 15.7552 146.571 15.7552C147.467 15.7552 148.171 15.9771 148.683 16.4208C149.203 16.8645 149.502 17.4533 149.579 18.1872H147.556C147.522 17.9397 147.411 17.7435 147.223 17.5984C147.044 17.4533 146.805 17.3808 146.507 17.3808C146.251 17.3808 146.054 17.432 145.918 17.5344C145.781 17.6283 145.713 17.7605 145.713 17.9312C145.713 18.136 145.82 18.2896 146.033 18.392C146.255 18.4944 146.596 18.5968 147.057 18.6992C147.586 18.8357 148.017 18.9723 148.35 19.1088C148.683 19.2368 148.973 19.4501 149.22 19.7488C149.476 20.0389 149.608 20.4315 149.617 20.9264C149.617 21.3445 149.498 21.72 149.259 22.0528C149.028 22.3771 148.691 22.6331 148.247 22.8208C147.812 23.0085 147.304 23.1024 146.724 23.1024ZM158.009 15.8576V23H155.82V22.0272C155.598 22.3429 155.295 22.5989 154.911 22.7952C154.536 22.9829 154.118 23.0768 153.657 23.0768C153.111 23.0768 152.629 22.9573 152.211 22.7184C151.792 22.4709 151.468 22.1168 151.238 21.656C151.007 21.1952 150.892 20.6533 150.892 20.0304V15.8576H153.068V19.736C153.068 20.2139 153.192 20.5851 153.439 20.8496C153.687 21.1141 154.02 21.2464 154.438 21.2464C154.864 21.2464 155.201 21.1141 155.449 20.8496C155.696 20.5851 155.82 20.2139 155.82 19.736V15.8576H158.009ZM161.77 13.528V23H159.581V13.528H161.77ZM167.337 21.144V23H166.223C165.43 23 164.811 22.808 164.367 22.424C163.924 22.0315 163.702 21.3957 163.702 20.5168V17.6752H162.831V15.8576H163.702V14.1168H165.891V15.8576H167.324V17.6752H165.891V20.5424C165.891 20.7557 165.942 20.9093 166.044 21.0032C166.147 21.0971 166.317 21.144 166.556 21.144H167.337Z" fill="#F2F2F2"/>
</svg>
