<svg width="195" height="37" viewBox="0 0 195 37" fill="none" xmlns="http://www.w3.org/2000/svg">
<rect width="194.191" height="37" rx="4" fill="#C8AC48"/>
<mask id="mask0" mask-type="alpha" maskUnits="userSpaceOnUse" x="0" y="0" width="195" height="37">
<rect width="194.191" height="37" rx="4" fill="#A68C2F"/>
</mask>
<g mask="url(#mask0)">
<path d="M138.924 0L55.8394 37H194.191V0H138.924Z" fill="#B89D3B"/>
</g>
<path d="M48.3872 21.4128H45.0336L44.496 23H42.2048L45.456 14.0144H47.9904L51.2416 23H48.9248L48.3872 21.4128ZM47.824 19.7232L46.7104 16.4336L45.6096 19.7232H47.824ZM51.7959 19.416C51.7959 18.6821 51.9324 18.0379 52.2055 17.4832C52.4871 16.9285 52.8668 16.5019 53.3447 16.2032C53.8226 15.9045 54.3559 15.7552 54.9447 15.7552C55.414 15.7552 55.8407 15.8533 56.2247 16.0496C56.6172 16.2459 56.9244 16.5104 57.1463 16.8432V13.528H59.3351V23H57.1463V21.976C56.9415 22.3173 56.6471 22.5904 56.2631 22.7952C55.8876 23 55.4482 23.1024 54.9447 23.1024C54.3559 23.1024 53.8226 22.9531 53.3447 22.6544C52.8668 22.3472 52.4871 21.9163 52.2055 21.3616C51.9324 20.7984 51.7959 20.1499 51.7959 19.416ZM57.1463 19.4288C57.1463 18.8827 56.9927 18.4517 56.6855 18.136C56.3868 17.8203 56.0199 17.6624 55.5847 17.6624C55.1495 17.6624 54.7783 17.8203 54.4711 18.136C54.1724 18.4432 54.0231 18.8699 54.0231 19.416C54.0231 19.9621 54.1724 20.3973 54.4711 20.7216C54.7783 21.0373 55.1495 21.1952 55.5847 21.1952C56.0199 21.1952 56.3868 21.0373 56.6855 20.7216C56.9927 20.4059 57.1463 19.9749 57.1463 19.4288ZM60.4834 19.416C60.4834 18.6821 60.6199 18.0379 60.893 17.4832C61.1746 16.9285 61.5543 16.5019 62.0322 16.2032C62.5101 15.9045 63.0434 15.7552 63.6322 15.7552C64.1015 15.7552 64.5282 15.8533 64.9122 16.0496C65.3047 16.2459 65.6119 16.5104 65.8338 16.8432V13.528H68.0226V23H65.8338V21.976C65.629 22.3173 65.3346 22.5904 64.9506 22.7952C64.5751 23 64.1357 23.1024 63.6322 23.1024C63.0434 23.1024 62.5101 22.9531 62.0322 22.6544C61.5543 22.3472 61.1746 21.9163 60.893 21.3616C60.6199 20.7984 60.4834 20.1499 60.4834 19.416ZM65.8338 19.4288C65.8338 18.8827 65.6802 18.4517 65.373 18.136C65.0743 17.8203 64.7074 17.6624 64.2722 17.6624C63.837 17.6624 63.4658 17.8203 63.1586 18.136C62.8599 18.4432 62.7106 18.8699 62.7106 19.416C62.7106 19.9621 62.8599 20.3973 63.1586 20.7216C63.4658 21.0373 63.837 21.1952 64.2722 21.1952C64.7074 21.1952 65.0743 21.0373 65.373 20.7216C65.6802 20.4059 65.8338 19.9749 65.8338 19.4288ZM71.9474 18.4944C71.9474 17.6069 72.1394 16.8176 72.5234 16.1264C72.9074 15.4267 73.4407 14.8848 74.1234 14.5008C74.8146 14.1083 75.5954 13.912 76.4658 13.912C77.5325 13.912 78.4455 14.1936 79.205 14.7568C79.9645 15.32 80.4722 16.088 80.7282 17.0608H78.3218C78.1426 16.6853 77.8866 16.3995 77.5538 16.2032C77.2295 16.0069 76.8583 15.9088 76.4402 15.9088C75.7661 15.9088 75.2199 16.1435 74.8018 16.6128C74.3837 17.0821 74.1746 17.7093 74.1746 18.4944C74.1746 19.2795 74.3837 19.9067 74.8018 20.376C75.2199 20.8453 75.7661 21.08 76.4402 21.08C76.8583 21.08 77.2295 20.9819 77.5538 20.7856C77.8866 20.5893 78.1426 20.3035 78.3218 19.928H80.7282C80.4722 20.9008 79.9645 21.6688 79.205 22.232C78.4455 22.7867 77.5325 23.064 76.4658 23.064C75.5954 23.064 74.8146 22.872 74.1234 22.488C73.4407 22.0955 72.9074 21.5536 72.5234 20.8624C72.1394 20.1712 71.9474 19.3819 71.9474 18.4944ZM85.3198 23.1024C84.6201 23.1024 83.9886 22.9531 83.4254 22.6544C82.8707 22.3557 82.4313 21.9291 82.107 21.3744C81.7913 20.8197 81.6334 20.1712 81.6334 19.4288C81.6334 18.6949 81.7955 18.0507 82.1198 17.496C82.4441 16.9328 82.8878 16.5019 83.451 16.2032C84.0142 15.9045 84.6457 15.7552 85.3454 15.7552C86.0451 15.7552 86.6766 15.9045 87.2398 16.2032C87.803 16.5019 88.2467 16.9328 88.571 17.496C88.8953 18.0507 89.0574 18.6949 89.0574 19.4288C89.0574 20.1627 88.891 20.8112 88.5582 21.3744C88.2339 21.9291 87.7859 22.3557 87.2142 22.6544C86.651 22.9531 86.0195 23.1024 85.3198 23.1024ZM85.3198 21.208C85.7379 21.208 86.0921 21.0544 86.3822 20.7472C86.6809 20.44 86.8302 20.0005 86.8302 19.4288C86.8302 18.8571 86.6851 18.4176 86.395 18.1104C86.1134 17.8032 85.7635 17.6496 85.3454 17.6496C84.9187 17.6496 84.5646 17.8032 84.283 18.1104C84.0014 18.4091 83.8606 18.8485 83.8606 19.4288C83.8606 20.0005 83.9971 20.44 84.2702 20.7472C84.5518 21.0544 84.9017 21.208 85.3198 21.208ZM97.2714 15.8576V23H95.0826V22.0272C94.8607 22.3429 94.5578 22.5989 94.1738 22.7952C93.7983 22.9829 93.3802 23.0768 92.9194 23.0768C92.3733 23.0768 91.8911 22.9573 91.473 22.7184C91.0549 22.4709 90.7306 22.1168 90.5002 21.656C90.2698 21.1952 90.1546 20.6533 90.1546 20.0304V15.8576H92.3306V19.736C92.3306 20.2139 92.4543 20.5851 92.7018 20.8496C92.9493 21.1141 93.2821 21.2464 93.7002 21.2464C94.1269 21.2464 94.4639 21.1141 94.7114 20.8496C94.9589 20.5851 95.0826 20.2139 95.0826 19.736V15.8576H97.2714ZM101.032 17.048C101.288 16.6555 101.608 16.3483 101.992 16.1264C102.376 15.896 102.803 15.7808 103.272 15.7808V18.0976H102.671C102.125 18.0976 101.715 18.2171 101.442 18.456C101.169 18.6864 101.032 19.096 101.032 19.6848V23H98.8436V15.8576H101.032V17.048ZM108.299 21.144V23H107.186C106.392 23 105.774 22.808 105.33 22.424C104.886 22.0315 104.664 21.3957 104.664 20.5168V17.6752H103.794V15.8576H104.664V14.1168H106.853V15.8576H108.287V17.6752H106.853V20.5424C106.853 20.7557 106.904 20.9093 107.007 21.0032C107.109 21.0971 107.28 21.144 107.519 21.144H108.299ZM120.27 23H118.081L114.42 17.4576V23H112.231V14.0144H114.42L118.081 19.5824V14.0144H120.27V23ZM121.421 19.416C121.421 18.6821 121.557 18.0379 121.831 17.4832C122.112 16.9285 122.492 16.5019 122.97 16.2032C123.448 15.9045 123.981 15.7552 124.57 15.7552C125.073 15.7552 125.513 15.8576 125.888 16.0624C126.272 16.2672 126.567 16.536 126.771 16.8688V15.8576H128.96V23H126.771V21.9888C126.558 22.3216 126.259 22.5904 125.875 22.7952C125.5 23 125.06 23.1024 124.557 23.1024C123.977 23.1024 123.448 22.9531 122.97 22.6544C122.492 22.3472 122.112 21.9163 121.831 21.3616C121.557 20.7984 121.421 20.1499 121.421 19.416ZM126.771 19.4288C126.771 18.8827 126.618 18.4517 126.311 18.136C126.012 17.8203 125.645 17.6624 125.21 17.6624C124.775 17.6624 124.403 17.8203 124.096 18.136C123.797 18.4432 123.648 18.8699 123.648 19.416C123.648 19.9621 123.797 20.3973 124.096 20.7216C124.403 21.0373 124.775 21.1952 125.21 21.1952C125.645 21.1952 126.012 21.0373 126.311 20.7216C126.618 20.4059 126.771 19.9749 126.771 19.4288ZM139.657 15.7808C140.545 15.7808 141.249 16.0496 141.769 16.5872C142.298 17.1248 142.563 17.8715 142.563 18.8272V23H140.387V19.1216C140.387 18.6608 140.263 18.3067 140.016 18.0592C139.777 17.8032 139.444 17.6752 139.017 17.6752C138.591 17.6752 138.253 17.8032 138.006 18.0592C137.767 18.3067 137.648 18.6608 137.648 19.1216V23H135.472V19.1216C135.472 18.6608 135.348 18.3067 135.1 18.0592C134.861 17.8032 134.529 17.6752 134.102 17.6752C133.675 17.6752 133.338 17.8032 133.091 18.0592C132.852 18.3067 132.732 18.6608 132.732 19.1216V23H130.544V15.8576H132.732V16.7536C132.954 16.4549 133.244 16.2203 133.603 16.0496C133.961 15.8704 134.367 15.7808 134.819 15.7808C135.356 15.7808 135.834 15.896 136.252 16.1264C136.679 16.3568 137.012 16.6853 137.251 17.112C137.498 16.7195 137.835 16.3995 138.262 16.152C138.689 15.9045 139.154 15.7808 139.657 15.7808ZM150.826 19.3136C150.826 19.5184 150.814 19.7317 150.788 19.9536H145.834C145.869 20.3973 146.009 20.7387 146.257 20.9776C146.513 21.208 146.824 21.3232 147.191 21.3232C147.737 21.3232 148.117 21.0928 148.33 20.632H150.66C150.541 21.1013 150.323 21.5237 150.007 21.8992C149.7 22.2747 149.312 22.5691 148.842 22.7824C148.373 22.9957 147.848 23.1024 147.268 23.1024C146.568 23.1024 145.945 22.9531 145.399 22.6544C144.853 22.3557 144.426 21.9291 144.119 21.3744C143.812 20.8197 143.658 20.1712 143.658 19.4288C143.658 18.6864 143.808 18.0379 144.106 17.4832C144.414 16.9285 144.84 16.5019 145.386 16.2032C145.933 15.9045 146.56 15.7552 147.268 15.7552C147.959 15.7552 148.574 15.9003 149.111 16.1904C149.649 16.4805 150.067 16.8944 150.366 17.432C150.673 17.9696 150.826 18.5968 150.826 19.3136ZM148.586 18.7376C148.586 18.3621 148.458 18.0635 148.202 17.8416C147.946 17.6197 147.626 17.5088 147.242 17.5088C146.875 17.5088 146.564 17.6155 146.308 17.8288C146.061 18.0421 145.907 18.3451 145.847 18.7376H148.586Z" fill="#F2F2F2"/>
</svg>
