<svg width="195" height="37" viewBox="0 0 195 37" fill="none" xmlns="http://www.w3.org/2000/svg">
<rect width="194.191" height="37" rx="4" fill="#C8AC48"/>
<mask id="mask0" mask-type="alpha" maskUnits="userSpaceOnUse" x="0" y="0" width="195" height="37">
<rect width="194.191" height="37" rx="4" fill="#A68C2F"/>
</mask>
<g mask="url(#mask0)">
<path d="M138.924 0L55.8394 37H194.191V0H138.924Z" fill="#B89D3B"/>
</g>
<path d="M62.3872 21.4128H59.0336L58.496 23H56.2048L59.456 14.0144H61.9904L65.2416 23H62.9248L62.3872 21.4128ZM61.824 19.7232L60.7104 16.4336L59.6096 19.7232H61.824ZM65.7959 19.416C65.7959 18.6821 65.9324 18.0379 66.2055 17.4832C66.4871 16.9285 66.8668 16.5019 67.3447 16.2032C67.8226 15.9045 68.3559 15.7552 68.9447 15.7552C69.414 15.7552 69.8407 15.8533 70.2247 16.0496C70.6172 16.2459 70.9244 16.5104 71.1463 16.8432V13.528H73.3351V23H71.1463V21.976C70.9415 22.3173 70.6471 22.5904 70.2631 22.7952C69.8876 23 69.4482 23.1024 68.9447 23.1024C68.3559 23.1024 67.8226 22.9531 67.3447 22.6544C66.8668 22.3472 66.4871 21.9163 66.2055 21.3616C65.9324 20.7984 65.7959 20.1499 65.7959 19.416ZM71.1463 19.4288C71.1463 18.8827 70.9927 18.4517 70.6855 18.136C70.3868 17.8203 70.0199 17.6624 69.5847 17.6624C69.1495 17.6624 68.7783 17.8203 68.4711 18.136C68.1724 18.4432 68.0231 18.8699 68.0231 19.416C68.0231 19.9621 68.1724 20.3973 68.4711 20.7216C68.7783 21.0373 69.1495 21.1952 69.5847 21.1952C70.0199 21.1952 70.3868 21.0373 70.6855 20.7216C70.9927 20.4059 71.1463 19.9749 71.1463 19.4288ZM74.4834 19.416C74.4834 18.6821 74.6199 18.0379 74.893 17.4832C75.1746 16.9285 75.5543 16.5019 76.0322 16.2032C76.5101 15.9045 77.0434 15.7552 77.6322 15.7552C78.1015 15.7552 78.5282 15.8533 78.9122 16.0496C79.3047 16.2459 79.6119 16.5104 79.8338 16.8432V13.528H82.0226V23H79.8338V21.976C79.629 22.3173 79.3346 22.5904 78.9506 22.7952C78.5751 23 78.1357 23.1024 77.6322 23.1024C77.0434 23.1024 76.5101 22.9531 76.0322 22.6544C75.5543 22.3472 75.1746 21.9163 74.893 21.3616C74.6199 20.7984 74.4834 20.1499 74.4834 19.416ZM79.8338 19.4288C79.8338 18.8827 79.6802 18.4517 79.373 18.136C79.0743 17.8203 78.7074 17.6624 78.2722 17.6624C77.837 17.6624 77.4658 17.8203 77.1586 18.136C76.8599 18.4432 76.7106 18.8699 76.7106 19.416C76.7106 19.9621 76.8599 20.3973 77.1586 20.7216C77.4658 21.0373 77.837 21.1952 78.2722 21.1952C78.7074 21.1952 79.0743 21.0373 79.373 20.7216C79.6802 20.4059 79.8338 19.9749 79.8338 19.4288ZM89.685 14.0144C90.6322 14.0144 91.4599 14.2021 92.1682 14.5776C92.8765 14.9531 93.4226 15.4821 93.8066 16.1648C94.1991 16.8389 94.3954 17.6197 94.3954 18.5072C94.3954 19.3861 94.1991 20.1669 93.8066 20.8496C93.4226 21.5323 92.8722 22.0613 92.1554 22.4368C91.4471 22.8123 90.6237 23 89.685 23H86.3186V14.0144H89.685ZM89.5442 21.1056C90.3719 21.1056 91.0162 20.8795 91.477 20.4272C91.9378 19.9749 92.1682 19.3349 92.1682 18.5072C92.1682 17.6795 91.9378 17.0352 91.477 16.5744C91.0162 16.1136 90.3719 15.8832 89.5442 15.8832H88.5074V21.1056H89.5442ZM96.7194 15.1152C96.3354 15.1152 96.0197 15.0043 95.7722 14.7824C95.5333 14.552 95.4138 14.2704 95.4138 13.9376C95.4138 13.5963 95.5333 13.3147 95.7722 13.0928C96.0197 12.8624 96.3354 12.7472 96.7194 12.7472C97.0949 12.7472 97.4021 12.8624 97.641 13.0928C97.8885 13.3147 98.0122 13.5963 98.0122 13.9376C98.0122 14.2704 97.8885 14.552 97.641 14.7824C97.4021 15.0043 97.0949 15.1152 96.7194 15.1152ZM97.8074 15.8576V23H95.6186V15.8576H97.8074ZM102.606 20.952L104.155 15.8576H106.485L103.95 23H101.25L98.7152 15.8576H101.058L102.606 20.952ZM108.507 15.1152C108.123 15.1152 107.807 15.0043 107.56 14.7824C107.321 14.552 107.201 14.2704 107.201 13.9376C107.201 13.5963 107.321 13.3147 107.56 13.0928C107.807 12.8624 108.123 12.7472 108.507 12.7472C108.882 12.7472 109.19 12.8624 109.428 13.0928C109.676 13.3147 109.8 13.5963 109.8 13.9376C109.8 14.2704 109.676 14.552 109.428 14.7824C109.19 15.0043 108.882 15.1152 108.507 15.1152ZM109.595 15.8576V23H107.406V15.8576H109.595ZM114.087 23.1024C113.464 23.1024 112.909 22.9957 112.423 22.7824C111.936 22.5691 111.552 22.2789 111.271 21.912C110.989 21.5365 110.831 21.1184 110.797 20.6576H112.96C112.986 20.9051 113.101 21.1056 113.306 21.2592C113.511 21.4128 113.762 21.4896 114.061 21.4896C114.334 21.4896 114.543 21.4384 114.688 21.336C114.842 21.2251 114.919 21.0843 114.919 20.9136C114.919 20.7088 114.812 20.5595 114.599 20.4656C114.385 20.3632 114.04 20.2523 113.562 20.1328C113.05 20.0133 112.623 19.8896 112.282 19.7616C111.941 19.6251 111.646 19.416 111.399 19.1344C111.151 18.8443 111.028 18.456 111.028 17.9696C111.028 17.56 111.138 17.1888 111.36 16.856C111.591 16.5147 111.924 16.2459 112.359 16.0496C112.802 15.8533 113.327 15.7552 113.933 15.7552C114.829 15.7552 115.533 15.9771 116.045 16.4208C116.566 16.8645 116.864 17.4533 116.941 18.1872H114.919C114.885 17.9397 114.774 17.7435 114.586 17.5984C114.407 17.4533 114.168 17.3808 113.869 17.3808C113.613 17.3808 113.417 17.432 113.28 17.5344C113.144 17.6283 113.076 17.7605 113.076 17.9312C113.076 18.136 113.182 18.2896 113.396 18.392C113.617 18.4944 113.959 18.5968 114.42 18.6992C114.949 18.8357 115.38 18.9723 115.712 19.1088C116.045 19.2368 116.335 19.4501 116.583 19.7488C116.839 20.0389 116.971 20.4315 116.98 20.9264C116.98 21.3445 116.86 21.72 116.621 22.0528C116.391 22.3771 116.054 22.6331 115.61 22.8208C115.175 23.0085 114.667 23.1024 114.087 23.1024ZM119.419 15.1152C119.035 15.1152 118.72 15.0043 118.472 14.7824C118.233 14.552 118.114 14.2704 118.114 13.9376C118.114 13.5963 118.233 13.3147 118.472 13.0928C118.72 12.8624 119.035 12.7472 119.419 12.7472C119.795 12.7472 120.102 12.8624 120.341 13.0928C120.588 13.3147 120.712 13.5963 120.712 13.9376C120.712 14.2704 120.588 14.552 120.341 14.7824C120.102 15.0043 119.795 15.1152 119.419 15.1152ZM120.507 15.8576V23H118.319V15.8576H120.507ZM125.345 23.1024C124.645 23.1024 124.014 22.9531 123.45 22.6544C122.896 22.3557 122.456 21.9291 122.132 21.3744C121.816 20.8197 121.658 20.1712 121.658 19.4288C121.658 18.6949 121.821 18.0507 122.145 17.496C122.469 16.9328 122.913 16.5019 123.476 16.2032C124.039 15.9045 124.671 15.7552 125.37 15.7552C126.07 15.7552 126.702 15.9045 127.265 16.2032C127.828 16.5019 128.272 16.9328 128.596 17.496C128.92 18.0507 129.082 18.6949 129.082 19.4288C129.082 20.1627 128.916 20.8112 128.583 21.3744C128.259 21.9291 127.811 22.3557 127.239 22.6544C126.676 22.9531 126.045 23.1024 125.345 23.1024ZM125.345 21.208C125.763 21.208 126.117 21.0544 126.407 20.7472C126.706 20.44 126.855 20.0005 126.855 19.4288C126.855 18.8571 126.71 18.4176 126.42 18.1104C126.138 17.8032 125.789 17.6496 125.37 17.6496C124.944 17.6496 124.59 17.8032 124.308 18.1104C124.026 18.4091 123.886 18.8485 123.886 19.4288C123.886 20.0005 124.022 20.44 124.295 20.7472C124.577 21.0544 124.927 21.208 125.345 21.208ZM134.596 15.7808C135.432 15.7808 136.097 16.0539 136.592 16.6C137.096 17.1376 137.348 17.88 137.348 18.8272V23H135.172V19.1216C135.172 18.6437 135.048 18.2725 134.8 18.008C134.553 17.7435 134.22 17.6112 133.802 17.6112C133.384 17.6112 133.051 17.7435 132.804 18.008C132.556 18.2725 132.432 18.6437 132.432 19.1216V23H130.244V15.8576H132.432V16.8048C132.654 16.4891 132.953 16.2416 133.328 16.0624C133.704 15.8747 134.126 15.7808 134.596 15.7808Z" fill="#F2F2F2"/>
</svg>
