<svg width="195" height="37" viewBox="0 0 195 37" fill="none" xmlns="http://www.w3.org/2000/svg">
<rect width="194.191" height="37" rx="4" fill="#C8AC48"/>
<mask id="mask0" mask-type="alpha" maskUnits="userSpaceOnUse" x="0" y="0" width="195" height="37">
<rect width="194.191" height="37" rx="4" fill="#A68C2F"/>
</mask>
<g mask="url(#mask0)">
<path d="M138.924 0L55.8394 37H194.191V0H138.924Z" fill="#B89D3B"/>
</g>
<path d="M47.3616 21.3488H43.9696L43.4064 23H41.1024L44.4176 14.0144H46.9392L50.2544 23H47.9248L47.3616 21.3488ZM46.7984 19.6848L45.672 16.3568L44.5328 19.6848H46.7984ZM53.8188 15.768C54.3649 15.768 54.8343 15.8917 55.2268 16.1392C55.6193 16.3867 55.9052 16.7237 56.0844 17.1504V13.528H58.2732V23H56.0844V21.7072C55.9052 22.1339 55.6193 22.4709 55.2268 22.7184C54.8343 22.9659 54.3649 23.0896 53.8188 23.0896C53.23 23.0896 52.7009 22.9445 52.2316 22.6544C51.7708 22.3557 51.4039 21.9291 51.1308 21.3744C50.8663 20.8197 50.734 20.1712 50.734 19.4288C50.734 18.6779 50.8663 18.0293 51.1308 17.4832C51.4039 16.9285 51.7708 16.5061 52.2316 16.216C52.7009 15.9173 53.23 15.768 53.8188 15.768ZM54.5228 17.688C54.0535 17.688 53.6737 17.8416 53.3836 18.1488C53.102 18.456 52.9612 18.8827 52.9612 19.4288C52.9612 19.9749 53.102 20.4016 53.3836 20.7088C53.6737 21.016 54.0535 21.1696 54.5228 21.1696C54.9836 21.1696 55.3591 21.0117 55.6492 20.696C55.9479 20.3803 56.0972 19.9579 56.0972 19.4288C56.0972 18.8912 55.9479 18.4688 55.6492 18.1616C55.3591 17.8459 54.9836 17.688 54.5228 17.688ZM62.4938 15.768C63.0399 15.768 63.5093 15.8917 63.9018 16.1392C64.2943 16.3867 64.5802 16.7237 64.7594 17.1504V13.528H66.9482V23H64.7594V21.7072C64.5802 22.1339 64.2943 22.4709 63.9018 22.7184C63.5093 22.9659 63.0399 23.0896 62.4938 23.0896C61.905 23.0896 61.3759 22.9445 60.9066 22.6544C60.4458 22.3557 60.0789 21.9291 59.8058 21.3744C59.5413 20.8197 59.409 20.1712 59.409 19.4288C59.409 18.6779 59.5413 18.0293 59.8058 17.4832C60.0789 16.9285 60.4458 16.5061 60.9066 16.216C61.3759 15.9173 61.905 15.768 62.4938 15.768ZM63.1978 17.688C62.7285 17.688 62.3487 17.8416 62.0586 18.1488C61.777 18.456 61.6362 18.8827 61.6362 19.4288C61.6362 19.9749 61.777 20.4016 62.0586 20.7088C62.3487 21.016 62.7285 21.1696 63.1978 21.1696C63.6586 21.1696 64.0341 21.0117 64.3242 20.696C64.6229 20.3803 64.7722 19.9579 64.7722 19.4288C64.7722 18.8912 64.6229 18.4688 64.3242 18.1616C64.0341 17.8459 63.6586 17.688 63.1978 17.688ZM77.5201 20.4528C77.5201 20.9307 77.3964 21.3701 77.1489 21.7712C76.91 22.1723 76.5516 22.4923 76.0737 22.7312C75.6044 22.9701 75.0326 23.0896 74.3585 23.0896C73.343 23.0896 72.5068 22.8421 71.8497 22.3472C71.1926 21.8523 70.8342 21.1611 70.7745 20.2736H73.1041C73.1382 20.6149 73.2577 20.8837 73.4625 21.08C73.6758 21.2763 73.9446 21.3744 74.2689 21.3744C74.5505 21.3744 74.7724 21.2976 74.9345 21.144C75.0966 20.9904 75.1777 20.7856 75.1777 20.5296C75.1777 20.2992 75.1009 20.1072 74.9473 19.9536C74.8022 19.8 74.6188 19.6763 74.3969 19.5824C74.175 19.48 73.8678 19.3605 73.4753 19.224C72.9036 19.0277 72.4342 18.84 72.0673 18.6608C71.7089 18.4731 71.3974 18.2 71.1329 17.8416C70.8769 17.4747 70.7489 17.0011 70.7489 16.4208C70.7489 15.8832 70.8854 15.4181 71.1585 15.0256C71.4316 14.6331 71.807 14.3344 72.2849 14.1296C72.7713 13.9163 73.326 13.8096 73.9489 13.8096C74.9558 13.8096 75.7537 14.0485 76.3425 14.5264C76.9398 15.0043 77.2769 15.6613 77.3537 16.4976H74.9857C74.943 16.1989 74.8321 15.9643 74.6529 15.7936C74.4822 15.6144 74.2476 15.5248 73.9489 15.5248C73.6929 15.5248 73.4838 15.5931 73.3217 15.7296C73.1681 15.8661 73.0913 16.0667 73.0913 16.3312C73.0913 16.5445 73.1596 16.728 73.2961 16.8816C73.4412 17.0267 73.6204 17.1461 73.8337 17.24C74.047 17.3339 74.3542 17.4533 74.7553 17.5984C75.3356 17.7947 75.8092 17.9909 76.1761 18.1872C76.543 18.3749 76.8588 18.6523 77.1233 19.0192C77.3878 19.3861 77.5201 19.864 77.5201 20.4528ZM85.5142 19.2368C85.5142 19.416 85.4929 19.6123 85.4502 19.8256H80.4966C80.5222 20.3632 80.6587 20.7515 80.9062 20.9904C81.1537 21.2208 81.4694 21.336 81.8534 21.336C82.1777 21.336 82.4465 21.2549 82.6598 21.0928C82.8731 20.9307 83.0139 20.7216 83.0822 20.4656H85.399C85.3051 20.9691 85.1003 21.4213 84.7846 21.8224C84.4689 22.2149 84.0678 22.5264 83.5814 22.7568C83.095 22.9787 82.5531 23.0896 81.9558 23.0896C81.2561 23.0896 80.6331 22.9445 80.087 22.6544C79.5494 22.3557 79.127 21.9291 78.8198 21.3744C78.5126 20.8197 78.359 20.1712 78.359 19.4288C78.359 18.6779 78.5083 18.0293 78.807 17.4832C79.1142 16.9285 79.5409 16.5061 80.087 16.216C80.6331 15.9173 81.2561 15.768 81.9558 15.768C82.6641 15.768 83.287 15.9131 83.8246 16.2032C84.3622 16.4933 84.7761 16.9029 85.0662 17.432C85.3649 17.9525 85.5142 18.5541 85.5142 19.2368ZM83.2998 18.904C83.3083 18.4347 83.1803 18.0848 82.9158 17.8544C82.6598 17.6155 82.3398 17.496 81.9558 17.496C81.5547 17.496 81.2219 17.6155 80.9574 17.8544C80.6929 18.0933 80.5435 18.4432 80.5094 18.904H83.2998ZM88.844 17.2016C89.1171 16.7664 89.4669 16.4208 89.8936 16.1648C90.3288 15.9088 90.7981 15.7808 91.3016 15.7808V18.1232H90.6744C90.0941 18.1232 89.6419 18.2469 89.3176 18.4944C89.0019 18.7419 88.844 19.16 88.844 19.7488V23H86.6552V15.8576H88.844V17.2016ZM95.5201 20.8624L97.0689 15.8576H99.3985L96.8641 23H94.1505L91.6161 15.8576H93.9457L95.5201 20.8624ZM100.1 13.848C100.1 13.5152 100.22 13.2421 100.459 13.0288C100.698 12.8069 101.013 12.696 101.406 12.696C101.799 12.696 102.114 12.8069 102.353 13.0288C102.592 13.2421 102.712 13.5152 102.712 13.848C102.712 14.1723 102.592 14.4453 102.353 14.6672C102.114 14.8805 101.799 14.9872 101.406 14.9872C101.013 14.9872 100.698 14.8805 100.459 14.6672C100.22 14.4453 100.1 14.1723 100.1 13.848ZM102.494 15.8576V23H100.305V15.8576H102.494ZM107.231 15.768C108.152 15.768 108.925 16.024 109.548 16.536C110.171 17.0395 110.563 17.7349 110.725 18.6224H108.408C108.34 18.3152 108.199 18.0763 107.986 17.9056C107.773 17.7349 107.504 17.6496 107.18 17.6496C106.796 17.6496 106.48 17.8032 106.232 18.1104C105.985 18.4091 105.861 18.8485 105.861 19.4288C105.861 20.0091 105.985 20.4528 106.232 20.76C106.48 21.0587 106.796 21.208 107.18 21.208C107.504 21.208 107.773 21.1227 107.986 20.952C108.199 20.7813 108.34 20.5424 108.408 20.2352H110.725C110.563 21.1227 110.171 21.8224 109.548 22.3344C108.925 22.8379 108.152 23.0896 107.231 23.0896C106.531 23.0896 105.908 22.9445 105.362 22.6544C104.824 22.3557 104.402 21.9291 104.095 21.3744C103.788 20.8197 103.634 20.1712 103.634 19.4288C103.634 18.6779 103.783 18.0293 104.082 17.4832C104.389 16.9285 104.816 16.5061 105.362 16.216C105.908 15.9173 106.531 15.768 107.231 15.768ZM118.652 19.2368C118.652 19.416 118.63 19.6123 118.588 19.8256H113.634C113.66 20.3632 113.796 20.7515 114.044 20.9904C114.291 21.2208 114.607 21.336 114.991 21.336C115.315 21.336 115.584 21.2549 115.797 21.0928C116.011 20.9307 116.151 20.7216 116.22 20.4656H118.537C118.443 20.9691 118.238 21.4213 117.922 21.8224C117.606 22.2149 117.205 22.5264 116.719 22.7568C116.233 22.9787 115.691 23.0896 115.093 23.0896C114.394 23.0896 113.771 22.9445 113.225 22.6544C112.687 22.3557 112.265 21.9291 111.957 21.3744C111.65 20.8197 111.497 20.1712 111.497 19.4288C111.497 18.6779 111.646 18.0293 111.945 17.4832C112.252 16.9285 112.678 16.5061 113.225 16.216C113.771 15.9173 114.394 15.768 115.093 15.768C115.802 15.768 116.425 15.9131 116.962 16.2032C117.5 16.4933 117.914 16.9029 118.204 17.432C118.502 17.9525 118.652 18.5541 118.652 19.2368ZM116.437 18.904C116.446 18.4347 116.318 18.0848 116.053 17.8544C115.797 17.6155 115.477 17.496 115.093 17.496C114.692 17.496 114.359 17.6155 114.095 17.8544C113.83 18.0933 113.681 18.4432 113.647 18.904H116.437ZM127.962 21.3488H124.57L124.006 23H121.702L125.018 14.0144H127.539L130.854 23H128.525L127.962 21.3488ZM127.398 19.6848L126.272 16.3568L125.133 19.6848H127.398ZM133.894 17.2016C134.167 16.7664 134.517 16.4208 134.944 16.1648C135.379 15.9088 135.848 15.7808 136.352 15.7808V18.1232H135.724C135.144 18.1232 134.692 18.2469 134.368 18.4944C134.052 18.7419 133.894 19.16 133.894 19.7488V23H131.705V15.8576H133.894V17.2016ZM144.052 19.2368C144.052 19.416 144.03 19.6123 143.988 19.8256H139.034C139.06 20.3632 139.196 20.7515 139.444 20.9904C139.691 21.2208 140.007 21.336 140.391 21.336C140.715 21.336 140.984 21.2549 141.197 21.0928C141.411 20.9307 141.551 20.7216 141.62 20.4656H143.937C143.843 20.9691 143.638 21.4213 143.322 21.8224C143.006 22.2149 142.605 22.5264 142.119 22.7568C141.633 22.9787 141.091 23.0896 140.493 23.0896C139.794 23.0896 139.171 22.9445 138.625 22.6544C138.087 22.3557 137.665 21.9291 137.357 21.3744C137.05 20.8197 136.897 20.1712 136.897 19.4288C136.897 18.6779 137.046 18.0293 137.345 17.4832C137.652 16.9285 138.078 16.5061 138.625 16.216C139.171 15.9173 139.794 15.768 140.493 15.768C141.202 15.768 141.825 15.9131 142.362 16.2032C142.9 16.4933 143.314 16.9029 143.604 17.432C143.902 17.9525 144.052 18.5541 144.052 19.2368ZM141.837 18.904C141.846 18.4347 141.718 18.0848 141.453 17.8544C141.197 17.6155 140.877 17.496 140.493 17.496C140.092 17.496 139.759 17.6155 139.495 17.8544C139.23 18.0933 139.081 18.4432 139.047 18.904H141.837ZM147.906 15.768C148.452 15.768 148.922 15.8917 149.314 16.1392C149.707 16.3867 149.997 16.7237 150.185 17.1504V15.8576H152.361V23H150.185V21.7072C149.997 22.1339 149.707 22.4709 149.314 22.7184C148.922 22.9659 148.452 23.0896 147.906 23.0896C147.318 23.0896 146.788 22.9445 146.319 22.6544C145.858 22.3557 145.491 21.9291 145.218 21.3744C144.954 20.8197 144.822 20.1712 144.822 19.4288C144.822 18.6779 144.954 18.0293 145.218 17.4832C145.491 16.9285 145.858 16.5061 146.319 16.216C146.788 15.9173 147.318 15.768 147.906 15.768ZM148.61 17.688C148.141 17.688 147.761 17.8416 147.471 18.1488C147.19 18.456 147.049 18.8827 147.049 19.4288C147.049 19.9749 147.19 20.4016 147.471 20.7088C147.761 21.016 148.141 21.1696 148.61 21.1696C149.071 21.1696 149.447 21.0117 149.737 20.696C150.035 20.3803 150.185 19.9579 150.185 19.4288C150.185 18.8912 150.035 18.4688 149.737 18.1616C149.447 17.8459 149.071 17.688 148.61 17.688Z" fill="#F2F2F2"/>
</svg>
