<svg width="195" height="37" viewBox="0 0 195 37" fill="none" xmlns="http://www.w3.org/2000/svg">
<rect width="194.191" height="37" rx="4" fill="#C8AC48"/>
<mask id="mask0" mask-type="alpha" maskUnits="userSpaceOnUse" x="0" y="0" width="195" height="37">
<rect width="194.191" height="37" rx="4" fill="#A68C2F"/>
</mask>
<g mask="url(#mask0)">
<path d="M138.924 0L55.8394 37H194.191V0H138.924Z" fill="#B89D3B"/>
</g>
<path d="M28.3872 21.4128H25.0336L24.496 23H22.2048L25.456 14.0144H27.9904L31.2416 23H28.9248L28.3872 21.4128ZM27.824 19.7232L26.7104 16.4336L25.6096 19.7232H27.824ZM31.7959 19.416C31.7959 18.6821 31.9324 18.0379 32.2055 17.4832C32.4871 16.9285 32.8668 16.5019 33.3447 16.2032C33.8226 15.9045 34.3559 15.7552 34.9447 15.7552C35.414 15.7552 35.8407 15.8533 36.2247 16.0496C36.6172 16.2459 36.9244 16.5104 37.1463 16.8432V13.528H39.3351V23H37.1463V21.976C36.9415 22.3173 36.6471 22.5904 36.2631 22.7952C35.8876 23 35.4482 23.1024 34.9447 23.1024C34.3559 23.1024 33.8226 22.9531 33.3447 22.6544C32.8668 22.3472 32.4871 21.9163 32.2055 21.3616C31.9324 20.7984 31.7959 20.1499 31.7959 19.416ZM37.1463 19.4288C37.1463 18.8827 36.9927 18.4517 36.6855 18.136C36.3868 17.8203 36.0199 17.6624 35.5847 17.6624C35.1495 17.6624 34.7783 17.8203 34.4711 18.136C34.1724 18.4432 34.0231 18.8699 34.0231 19.416C34.0231 19.9621 34.1724 20.3973 34.4711 20.7216C34.7783 21.0373 35.1495 21.1952 35.5847 21.1952C36.0199 21.1952 36.3868 21.0373 36.6855 20.7216C36.9927 20.4059 37.1463 19.9749 37.1463 19.4288ZM40.4834 19.416C40.4834 18.6821 40.6199 18.0379 40.893 17.4832C41.1746 16.9285 41.5543 16.5019 42.0322 16.2032C42.5101 15.9045 43.0434 15.7552 43.6322 15.7552C44.1015 15.7552 44.5282 15.8533 44.9122 16.0496C45.3047 16.2459 45.6119 16.5104 45.8338 16.8432V13.528H48.0226V23H45.8338V21.976C45.629 22.3173 45.3346 22.5904 44.9506 22.7952C44.5751 23 44.1357 23.1024 43.6322 23.1024C43.0434 23.1024 42.5101 22.9531 42.0322 22.6544C41.5543 22.3472 41.1746 21.9163 40.893 21.3616C40.6199 20.7984 40.4834 20.1499 40.4834 19.416ZM45.8338 19.4288C45.8338 18.8827 45.6802 18.4517 45.373 18.136C45.0743 17.8203 44.7074 17.6624 44.2722 17.6624C43.837 17.6624 43.4658 17.8203 43.1586 18.136C42.8599 18.4432 42.7106 18.8699 42.7106 19.416C42.7106 19.9621 42.8599 20.3973 43.1586 20.7216C43.4658 21.0373 43.837 21.1952 44.2722 21.1952C44.7074 21.1952 45.0743 21.0373 45.373 20.7216C45.6802 20.4059 45.8338 19.9749 45.8338 19.4288ZM57.9506 14.0144V20.1328C57.9506 21.08 57.6818 21.8096 57.1442 22.3216C56.6151 22.8336 55.8983 23.0896 54.9938 23.0896C54.0466 23.0896 53.2871 22.8208 52.7154 22.2832C52.1437 21.7456 51.8578 20.9819 51.8578 19.992H54.0338C54.0338 20.3675 54.1106 20.6533 54.2642 20.8496C54.4178 21.0373 54.6397 21.1312 54.9298 21.1312C55.1943 21.1312 55.3991 21.0459 55.5442 20.8752C55.6893 20.7045 55.7618 20.4571 55.7618 20.1328V14.0144H57.9506ZM66.7714 15.8576V23H64.5826V22.0272C64.3607 22.3429 64.0578 22.5989 63.6738 22.7952C63.2983 22.9829 62.8802 23.0768 62.4194 23.0768C61.8733 23.0768 61.3911 22.9573 60.973 22.7184C60.5549 22.4709 60.2306 22.1168 60.0002 21.656C59.7698 21.1952 59.6546 20.6533 59.6546 20.0304V15.8576H61.8306V19.736C61.8306 20.2139 61.9543 20.5851 62.2018 20.8496C62.4493 21.1141 62.7821 21.2464 63.2002 21.2464C63.6269 21.2464 63.9639 21.1141 64.2114 20.8496C64.4589 20.5851 64.5826 20.2139 64.5826 19.736V15.8576H66.7714ZM67.9084 19.416C67.9084 18.6821 68.0449 18.0379 68.318 17.4832C68.5996 16.9285 68.9793 16.5019 69.4572 16.2032C69.9351 15.9045 70.4684 15.7552 71.0572 15.7552C71.5265 15.7552 71.9532 15.8533 72.3372 16.0496C72.7297 16.2459 73.0369 16.5104 73.2588 16.8432V13.528H75.4476V23H73.2588V21.976C73.054 22.3173 72.7596 22.5904 72.3756 22.7952C72.0001 23 71.5607 23.1024 71.0572 23.1024C70.4684 23.1024 69.9351 22.9531 69.4572 22.6544C68.9793 22.3472 68.5996 21.9163 68.318 21.3616C68.0449 20.7984 67.9084 20.1499 67.9084 19.416ZM73.2588 19.4288C73.2588 18.8827 73.1052 18.4517 72.798 18.136C72.4993 17.8203 72.1324 17.6624 71.6972 17.6624C71.262 17.6624 70.8908 17.8203 70.5836 18.136C70.2849 18.4432 70.1356 18.8699 70.1356 19.416C70.1356 19.9621 70.2849 20.3973 70.5836 20.7216C70.8908 21.0373 71.262 21.1952 71.6972 21.1952C72.1324 21.1952 72.4993 21.0373 72.798 20.7216C73.1052 20.4059 73.2588 19.9749 73.2588 19.4288ZM79.7447 15.7552C80.2482 15.7552 80.6876 15.8576 81.0631 16.0624C81.4471 16.2672 81.7415 16.536 81.9463 16.8688V15.8576H84.1351V22.9872C84.1351 23.6443 84.0028 24.2373 83.7383 24.7664C83.4823 25.304 83.0855 25.7307 82.5479 26.0464C82.0188 26.3621 81.3575 26.52 80.5639 26.52C79.5058 26.52 78.6482 26.2683 77.9911 25.7648C77.334 25.2699 76.9586 24.5957 76.8647 23.7424H79.0279C79.0962 24.0155 79.2583 24.2288 79.5143 24.3824C79.7703 24.5445 80.086 24.6256 80.4615 24.6256C80.9138 24.6256 81.2722 24.4933 81.5367 24.2288C81.8098 23.9728 81.9463 23.5589 81.9463 22.9872V21.976C81.733 22.3088 81.4386 22.5819 81.0631 22.7952C80.6876 23 80.2482 23.1024 79.7447 23.1024C79.1559 23.1024 78.6226 22.9531 78.1447 22.6544C77.6668 22.3472 77.2871 21.9163 77.0055 21.3616C76.7324 20.7984 76.5959 20.1499 76.5959 19.416C76.5959 18.6821 76.7324 18.0379 77.0055 17.4832C77.2871 16.9285 77.6668 16.5019 78.1447 16.2032C78.6226 15.9045 79.1559 15.7552 79.7447 15.7552ZM81.9463 19.4288C81.9463 18.8827 81.7927 18.4517 81.4855 18.136C81.1868 17.8203 80.8199 17.6624 80.3847 17.6624C79.9495 17.6624 79.5783 17.8203 79.2711 18.136C78.9724 18.4432 78.8231 18.8699 78.8231 19.416C78.8231 19.9621 78.9724 20.3973 79.2711 20.7216C79.5783 21.0373 79.9495 21.1952 80.3847 21.1952C80.8199 21.1952 81.1868 21.0373 81.4855 20.7216C81.7927 20.4059 81.9463 19.9749 81.9463 19.4288ZM92.4514 19.3136C92.4514 19.5184 92.4386 19.7317 92.413 19.9536H87.4594C87.4935 20.3973 87.6343 20.7387 87.8818 20.9776C88.1378 21.208 88.4493 21.3232 88.8162 21.3232C89.3623 21.3232 89.7421 21.0928 89.9554 20.632H92.285C92.1655 21.1013 91.9479 21.5237 91.6322 21.8992C91.325 22.2747 90.9367 22.5691 90.4674 22.7824C89.9981 22.9957 89.4733 23.1024 88.893 23.1024C88.1933 23.1024 87.5703 22.9531 87.0242 22.6544C86.4781 22.3557 86.0514 21.9291 85.7442 21.3744C85.437 20.8197 85.2834 20.1712 85.2834 19.4288C85.2834 18.6864 85.4327 18.0379 85.7314 17.4832C86.0386 16.9285 86.4653 16.5019 87.0114 16.2032C87.5575 15.9045 88.1847 15.7552 88.893 15.7552C89.5842 15.7552 90.1986 15.9003 90.7362 16.1904C91.2738 16.4805 91.6919 16.8944 91.9906 17.432C92.2978 17.9696 92.4514 18.5968 92.4514 19.3136ZM90.2114 18.7376C90.2114 18.3621 90.0834 18.0635 89.8274 17.8416C89.5714 17.6197 89.2514 17.5088 88.8674 17.5088C88.5005 17.5088 88.189 17.6155 87.933 17.8288C87.6855 18.0421 87.5319 18.3451 87.4722 18.7376H90.2114ZM102.72 15.7808C103.607 15.7808 104.311 16.0496 104.832 16.5872C105.361 17.1248 105.625 17.8715 105.625 18.8272V23H103.449V19.1216C103.449 18.6608 103.326 18.3067 103.078 18.0592C102.839 17.8032 102.506 17.6752 102.08 17.6752C101.653 17.6752 101.316 17.8032 101.069 18.0592C100.83 18.3067 100.71 18.6608 100.71 19.1216V23H98.5341V19.1216C98.5341 18.6608 98.4104 18.3067 98.1629 18.0592C97.924 17.8032 97.5912 17.6752 97.1645 17.6752C96.7378 17.6752 96.4008 17.8032 96.1533 18.0592C95.9144 18.3067 95.7949 18.6608 95.7949 19.1216V23H93.6061V15.8576H95.7949V16.7536C96.0168 16.4549 96.3069 16.2203 96.6653 16.0496C97.0237 15.8704 97.429 15.7808 97.8813 15.7808C98.4189 15.7808 98.8968 15.896 99.3149 16.1264C99.7416 16.3568 100.074 16.6853 100.313 17.112C100.561 16.7195 100.898 16.3995 101.325 16.152C101.751 15.9045 102.216 15.7808 102.72 15.7808ZM113.889 19.3136C113.889 19.5184 113.876 19.7317 113.851 19.9536H108.897C108.931 20.3973 109.072 20.7387 109.319 20.9776C109.575 21.208 109.887 21.3232 110.254 21.3232C110.8 21.3232 111.18 21.0928 111.393 20.632H113.723C113.603 21.1013 113.385 21.5237 113.07 21.8992C112.763 22.2747 112.374 22.5691 111.905 22.7824C111.436 22.9957 110.911 23.1024 110.331 23.1024C109.631 23.1024 109.008 22.9531 108.462 22.6544C107.916 22.3557 107.489 21.9291 107.182 21.3744C106.875 20.8197 106.721 20.1712 106.721 19.4288C106.721 18.6864 106.87 18.0379 107.169 17.4832C107.476 16.9285 107.903 16.5019 108.449 16.2032C108.995 15.9045 109.622 15.7552 110.331 15.7552C111.022 15.7552 111.636 15.9003 112.174 16.1904C112.711 16.4805 113.129 16.8944 113.428 17.432C113.735 17.9696 113.889 18.5968 113.889 19.3136ZM111.649 18.7376C111.649 18.3621 111.521 18.0635 111.265 17.8416C111.009 17.6197 110.689 17.5088 110.305 17.5088C109.938 17.5088 109.627 17.6155 109.371 17.8288C109.123 18.0421 108.969 18.3451 108.91 18.7376H111.649ZM119.396 15.7808C120.232 15.7808 120.897 16.0539 121.392 16.6C121.896 17.1376 122.148 17.88 122.148 18.8272V23H119.972V19.1216C119.972 18.6437 119.848 18.2725 119.6 18.008C119.353 17.7435 119.02 17.6112 118.602 17.6112C118.184 17.6112 117.851 17.7435 117.604 18.008C117.356 18.2725 117.232 18.6437 117.232 19.1216V23H115.044V15.8576H117.232V16.8048C117.454 16.4891 117.753 16.2416 118.128 16.0624C118.504 15.8747 118.926 15.7808 119.396 15.7808ZM127.649 21.144V23H126.536C125.742 23 125.124 22.808 124.68 22.424C124.236 22.0315 124.014 21.3957 124.014 20.5168V17.6752H123.144V15.8576H124.014V14.1168H126.203V15.8576H127.637V17.6752H126.203V20.5424C126.203 20.7557 126.254 20.9093 126.357 21.0032C126.459 21.0971 126.63 21.144 126.869 21.144H127.649ZM136.163 23L134.295 19.608H133.77V23H131.581V14.0144H135.255C135.963 14.0144 136.565 14.1381 137.059 14.3856C137.563 14.6331 137.938 14.9744 138.186 15.4096C138.433 15.8363 138.557 16.3141 138.557 16.8432C138.557 17.4405 138.386 17.9739 138.045 18.4432C137.712 18.9125 137.217 19.2453 136.56 19.4416L138.634 23H136.163ZM133.77 18.0592H135.127C135.528 18.0592 135.826 17.9611 136.023 17.7648C136.227 17.5685 136.33 17.2912 136.33 16.9328C136.33 16.5915 136.227 16.3227 136.023 16.1264C135.826 15.9301 135.528 15.832 135.127 15.832H133.77V18.0592ZM146.664 19.3136C146.664 19.5184 146.651 19.7317 146.626 19.9536H141.672C141.706 20.3973 141.847 20.7387 142.094 20.9776C142.35 21.208 142.662 21.3232 143.029 21.3232C143.575 21.3232 143.955 21.0928 144.168 20.632H146.498C146.378 21.1013 146.16 21.5237 145.845 21.8992C145.538 22.2747 145.149 22.5691 144.68 22.7824C144.211 22.9957 143.686 23.1024 143.106 23.1024C142.406 23.1024 141.783 22.9531 141.237 22.6544C140.691 22.3557 140.264 21.9291 139.957 21.3744C139.65 20.8197 139.496 20.1712 139.496 19.4288C139.496 18.6864 139.645 18.0379 139.944 17.4832C140.251 16.9285 140.678 16.5019 141.224 16.2032C141.77 15.9045 142.397 15.7552 143.106 15.7552C143.797 15.7552 144.411 15.9003 144.949 16.1904C145.486 16.4805 145.904 16.8944 146.203 17.432C146.51 17.9696 146.664 18.5968 146.664 19.3136ZM144.424 18.7376C144.424 18.3621 144.296 18.0635 144.04 17.8416C143.784 17.6197 143.464 17.5088 143.08 17.5088C142.713 17.5088 142.402 17.6155 142.146 17.8288C141.898 18.0421 141.744 18.3451 141.685 18.7376H144.424ZM150.724 23.1024C150.101 23.1024 149.547 22.9957 149.06 22.7824C148.574 22.5691 148.19 22.2789 147.908 21.912C147.627 21.5365 147.469 21.1184 147.435 20.6576H149.598C149.623 20.9051 149.739 21.1056 149.943 21.2592C150.148 21.4128 150.4 21.4896 150.699 21.4896C150.972 21.4896 151.181 21.4384 151.326 21.336C151.479 21.2251 151.556 21.0843 151.556 20.9136C151.556 20.7088 151.45 20.5595 151.236 20.4656C151.023 20.3632 150.677 20.2523 150.199 20.1328C149.687 20.0133 149.261 19.8896 148.919 19.7616C148.578 19.6251 148.284 19.416 148.036 19.1344C147.789 18.8443 147.665 18.456 147.665 17.9696C147.665 17.56 147.776 17.1888 147.998 16.856C148.228 16.5147 148.561 16.2459 148.996 16.0496C149.44 15.8533 149.965 15.7552 150.571 15.7552C151.467 15.7552 152.171 15.9771 152.683 16.4208C153.203 16.8645 153.502 17.4533 153.579 18.1872H151.556C151.522 17.9397 151.411 17.7435 151.223 17.5984C151.044 17.4533 150.805 17.3808 150.507 17.3808C150.251 17.3808 150.054 17.432 149.918 17.5344C149.781 17.6283 149.713 17.7605 149.713 17.9312C149.713 18.136 149.82 18.2896 150.033 18.392C150.255 18.4944 150.596 18.5968 151.057 18.6992C151.586 18.8357 152.017 18.9723 152.35 19.1088C152.683 19.2368 152.973 19.4501 153.22 19.7488C153.476 20.0389 153.608 20.4315 153.617 20.9264C153.617 21.3445 153.498 21.72 153.259 22.0528C153.028 22.3771 152.691 22.6331 152.247 22.8208C151.812 23.0085 151.304 23.1024 150.724 23.1024ZM162.009 15.8576V23H159.82V22.0272C159.598 22.3429 159.295 22.5989 158.911 22.7952C158.536 22.9829 158.118 23.0768 157.657 23.0768C157.111 23.0768 156.629 22.9573 156.211 22.7184C155.792 22.4709 155.468 22.1168 155.238 21.656C155.007 21.1952 154.892 20.6533 154.892 20.0304V15.8576H157.068V19.736C157.068 20.2139 157.192 20.5851 157.439 20.8496C157.687 21.1141 158.02 21.2464 158.438 21.2464C158.864 21.2464 159.201 21.1141 159.449 20.8496C159.696 20.5851 159.82 20.2139 159.82 19.736V15.8576H162.009ZM165.77 13.528V23H163.581V13.528H165.77ZM171.337 21.144V23H170.223C169.43 23 168.811 22.808 168.367 22.424C167.924 22.0315 167.702 21.3957 167.702 20.5168V17.6752H166.831V15.8576H167.702V14.1168H169.891V15.8576H171.324V17.6752H169.891V20.5424C169.891 20.7557 169.942 20.9093 170.044 21.0032C170.147 21.0971 170.317 21.144 170.556 21.144H171.337Z" fill="#F2F2F2"/>
</svg>
