<svg width="195" height="37" viewBox="0 0 195 37" fill="none" xmlns="http://www.w3.org/2000/svg">
<rect width="194.191" height="37" rx="4" fill="#C8AC48"/>
<mask id="mask0" mask-type="alpha" maskUnits="userSpaceOnUse" x="0" y="0" width="195" height="37">
<rect width="194.191" height="37" rx="4" fill="#A68C2F"/>
</mask>
<g mask="url(#mask0)">
<path d="M138.924 0L55.8394 37H194.191V0H138.924Z" fill="#B89D3B"/>
</g>
<path d="M72.3616 21.3488H68.9696L68.4064 23H66.1024L69.4176 14.0144H71.9392L75.2544 23H72.9248L72.3616 21.3488ZM71.7984 19.6848L70.672 16.3568L69.5328 19.6848H71.7984ZM78.8188 15.768C79.3649 15.768 79.8343 15.8917 80.2268 16.1392C80.6193 16.3867 80.9052 16.7237 81.0844 17.1504V13.528H83.2732V23H81.0844V21.7072C80.9052 22.1339 80.6193 22.4709 80.2268 22.7184C79.8343 22.9659 79.3649 23.0896 78.8188 23.0896C78.23 23.0896 77.7009 22.9445 77.2316 22.6544C76.7708 22.3557 76.4039 21.9291 76.1308 21.3744C75.8663 20.8197 75.734 20.1712 75.734 19.4288C75.734 18.6779 75.8663 18.0293 76.1308 17.4832C76.4039 16.9285 76.7708 16.5061 77.2316 16.216C77.7009 15.9173 78.23 15.768 78.8188 15.768ZM79.5228 17.688C79.0535 17.688 78.6737 17.8416 78.3836 18.1488C78.102 18.456 77.9612 18.8827 77.9612 19.4288C77.9612 19.9749 78.102 20.4016 78.3836 20.7088C78.6737 21.016 79.0535 21.1696 79.5228 21.1696C79.9836 21.1696 80.3591 21.0117 80.6492 20.696C80.9479 20.3803 81.0972 19.9579 81.0972 19.4288C81.0972 18.8912 80.9479 18.4688 80.6492 18.1616C80.3591 17.8459 79.9836 17.688 79.5228 17.688ZM87.4938 15.768C88.0399 15.768 88.5093 15.8917 88.9018 16.1392C89.2943 16.3867 89.5802 16.7237 89.7594 17.1504V13.528H91.9482V23H89.7594V21.7072C89.5802 22.1339 89.2943 22.4709 88.9018 22.7184C88.5093 22.9659 88.0399 23.0896 87.4938 23.0896C86.905 23.0896 86.3759 22.9445 85.9066 22.6544C85.4458 22.3557 85.0789 21.9291 84.8058 21.3744C84.5413 20.8197 84.409 20.1712 84.409 19.4288C84.409 18.6779 84.5413 18.0293 84.8058 17.4832C85.0789 16.9285 85.4458 16.5061 85.9066 16.216C86.3759 15.9173 86.905 15.768 87.4938 15.768ZM88.1978 17.688C87.7285 17.688 87.3487 17.8416 87.0586 18.1488C86.777 18.456 86.6362 18.8827 86.6362 19.4288C86.6362 19.9749 86.777 20.4016 87.0586 20.7088C87.3487 21.016 87.7285 21.1696 88.1978 21.1696C88.6586 21.1696 89.0341 21.0117 89.3242 20.696C89.6229 20.3803 89.7722 19.9579 89.7722 19.4288C89.7722 18.8912 89.6229 18.4688 89.3242 18.1616C89.0341 17.8459 88.6586 17.688 88.1978 17.688ZM100.152 13.8608C101.304 13.8608 102.256 14.1637 103.007 14.7696C103.766 15.3755 104.257 16.1947 104.479 17.2272H102.162C101.991 16.8091 101.727 16.4805 101.368 16.2416C101.018 16.0027 100.6 15.8832 100.114 15.8832C99.4737 15.8832 98.9574 16.1179 98.5649 16.5872C98.1724 17.0565 97.9761 17.6837 97.9761 18.4688C97.9761 19.2539 98.1724 19.8811 98.5649 20.3504C98.9574 20.8112 99.4737 21.0416 100.114 21.0416C100.6 21.0416 101.018 20.9221 101.368 20.6832C101.727 20.4443 101.991 20.12 102.162 19.7104H104.479C104.257 20.7344 103.766 21.5536 103.007 22.168C102.256 22.7739 101.304 23.0768 100.152 23.0768C99.2732 23.0768 98.5009 22.8848 97.8353 22.5008C97.1697 22.1083 96.6534 21.5621 96.2865 20.8624C95.9281 20.1627 95.7489 19.3648 95.7489 18.4688C95.7489 17.5728 95.9281 16.7749 96.2865 16.0752C96.6534 15.3755 97.1697 14.8336 97.8353 14.4496C98.5009 14.0571 99.2732 13.8608 100.152 13.8608ZM108.419 15.768C108.965 15.768 109.434 15.8917 109.827 16.1392C110.219 16.3867 110.509 16.7237 110.697 17.1504V15.8576H112.873V23H110.697V21.7072C110.509 22.1339 110.219 22.4709 109.827 22.7184C109.434 22.9659 108.965 23.0896 108.419 23.0896C107.83 23.0896 107.301 22.9445 106.832 22.6544C106.371 22.3557 106.004 21.9291 105.731 21.3744C105.466 20.8197 105.334 20.1712 105.334 19.4288C105.334 18.6779 105.466 18.0293 105.731 17.4832C106.004 16.9285 106.371 16.5061 106.832 16.216C107.301 15.9173 107.83 15.768 108.419 15.768ZM109.123 17.688C108.653 17.688 108.274 17.8416 107.984 18.1488C107.702 18.456 107.561 18.8827 107.561 19.4288C107.561 19.9749 107.702 20.4016 107.984 20.7088C108.274 21.016 108.653 21.1696 109.123 21.1696C109.584 21.1696 109.959 21.0117 110.249 20.696C110.548 20.3803 110.697 19.9579 110.697 19.4288C110.697 18.8912 110.548 18.4688 110.249 18.1616C109.959 17.8459 109.584 17.688 109.123 17.688ZM116.979 15.768C117.883 15.768 118.604 15.9941 119.142 16.4464C119.688 16.8987 120.029 17.496 120.166 18.2384H118.118C118.058 17.9483 117.922 17.7221 117.708 17.56C117.503 17.3893 117.243 17.304 116.927 17.304C116.68 17.304 116.492 17.3595 116.364 17.4704C116.236 17.5728 116.172 17.7221 116.172 17.9184C116.172 18.1403 116.287 18.3067 116.518 18.4176C116.757 18.5285 117.128 18.6395 117.631 18.7504C118.178 18.8784 118.626 19.0107 118.975 19.1472C119.325 19.2752 119.628 19.4885 119.884 19.7872C120.14 20.0859 120.268 20.4869 120.268 20.9904C120.268 21.4 120.157 21.7627 119.935 22.0784C119.714 22.3941 119.394 22.6416 118.975 22.8208C118.557 23 118.062 23.0896 117.491 23.0896C116.526 23.0896 115.754 22.8763 115.174 22.4496C114.594 22.0229 114.239 21.4128 114.111 20.6192H116.223C116.258 20.9264 116.386 21.1611 116.607 21.3232C116.838 21.4853 117.132 21.5664 117.491 21.5664C117.738 21.5664 117.926 21.5109 118.054 21.4C118.182 21.2805 118.246 21.1269 118.246 20.9392C118.246 20.6917 118.126 20.5168 117.887 20.4144C117.657 20.3035 117.277 20.1883 116.748 20.0688C116.219 19.9579 115.784 19.8384 115.443 19.7104C115.101 19.5824 114.807 19.3776 114.559 19.096C114.312 18.8059 114.188 18.4133 114.188 17.9184C114.188 17.2784 114.431 16.7621 114.918 16.3696C115.404 15.9685 116.091 15.768 116.979 15.768ZM128.264 19.2368C128.264 19.416 128.243 19.6123 128.2 19.8256H123.247C123.272 20.3632 123.409 20.7515 123.656 20.9904C123.904 21.2208 124.219 21.336 124.603 21.336C124.928 21.336 125.196 21.2549 125.41 21.0928C125.623 20.9307 125.764 20.7216 125.832 20.4656H128.149C128.055 20.9691 127.85 21.4213 127.535 21.8224C127.219 22.2149 126.818 22.5264 126.331 22.7568C125.845 22.9787 125.303 23.0896 124.706 23.0896C124.006 23.0896 123.383 22.9445 122.837 22.6544C122.299 22.3557 121.877 21.9291 121.57 21.3744C121.263 20.8197 121.109 20.1712 121.109 19.4288C121.109 18.6779 121.258 18.0293 121.557 17.4832C121.864 16.9285 122.291 16.5061 122.837 16.216C123.383 15.9173 124.006 15.768 124.706 15.768C125.414 15.768 126.037 15.9131 126.575 16.2032C127.112 16.4933 127.526 16.9029 127.816 17.432C128.115 17.9525 128.264 18.5541 128.264 19.2368ZM126.05 18.904C126.058 18.4347 125.93 18.0848 125.666 17.8544C125.41 17.6155 125.09 17.496 124.706 17.496C124.305 17.496 123.972 17.6155 123.707 17.8544C123.443 18.0933 123.294 18.4432 123.259 18.904H126.05Z" fill="#F2F2F2"/>
</svg>
