<svg width="195" height="37" viewBox="0 0 195 37" fill="none" xmlns="http://www.w3.org/2000/svg">
<rect width="194.191" height="37" rx="4" fill="#C8AC48"/>
<mask id="mask0" mask-type="alpha" maskUnits="userSpaceOnUse" x="0" y="0" width="195" height="37">
<rect width="194.191" height="37" rx="4" fill="#A68C2F"/>
</mask>
<g mask="url(#mask0)">
<path d="M138.924 0L55.8394 37H194.191V0H138.924Z" fill="#B89D3B"/>
</g>
<path d="M40.3872 21.4128H37.0336L36.496 23H34.2048L37.456 14.0144H39.9904L43.2416 23H40.9248L40.3872 21.4128ZM39.824 19.7232L38.7104 16.4336L37.6096 19.7232H39.824ZM43.7959 19.416C43.7959 18.6821 43.9324 18.0379 44.2055 17.4832C44.4871 16.9285 44.8668 16.5019 45.3447 16.2032C45.8226 15.9045 46.3559 15.7552 46.9447 15.7552C47.414 15.7552 47.8407 15.8533 48.2247 16.0496C48.6172 16.2459 48.9244 16.5104 49.1463 16.8432V13.528H51.3351V23H49.1463V21.976C48.9415 22.3173 48.6471 22.5904 48.2631 22.7952C47.8876 23 47.4482 23.1024 46.9447 23.1024C46.3559 23.1024 45.8226 22.9531 45.3447 22.6544C44.8668 22.3472 44.4871 21.9163 44.2055 21.3616C43.9324 20.7984 43.7959 20.1499 43.7959 19.416ZM49.1463 19.4288C49.1463 18.8827 48.9927 18.4517 48.6855 18.136C48.3868 17.8203 48.0199 17.6624 47.5847 17.6624C47.1495 17.6624 46.7783 17.8203 46.4711 18.136C46.1724 18.4432 46.0231 18.8699 46.0231 19.416C46.0231 19.9621 46.1724 20.3973 46.4711 20.7216C46.7783 21.0373 47.1495 21.1952 47.5847 21.1952C48.0199 21.1952 48.3868 21.0373 48.6855 20.7216C48.9927 20.4059 49.1463 19.9749 49.1463 19.4288ZM52.4834 19.416C52.4834 18.6821 52.6199 18.0379 52.893 17.4832C53.1746 16.9285 53.5543 16.5019 54.0322 16.2032C54.5101 15.9045 55.0434 15.7552 55.6322 15.7552C56.1015 15.7552 56.5282 15.8533 56.9122 16.0496C57.3047 16.2459 57.6119 16.5104 57.8338 16.8432V13.528H60.0226V23H57.8338V21.976C57.629 22.3173 57.3346 22.5904 56.9506 22.7952C56.5751 23 56.1357 23.1024 55.6322 23.1024C55.0434 23.1024 54.5101 22.9531 54.0322 22.6544C53.5543 22.3472 53.1746 21.9163 52.893 21.3616C52.6199 20.7984 52.4834 20.1499 52.4834 19.416ZM57.8338 19.4288C57.8338 18.8827 57.6802 18.4517 57.373 18.136C57.0743 17.8203 56.7074 17.6624 56.2722 17.6624C55.837 17.6624 55.4658 17.8203 55.1586 18.136C54.8599 18.4432 54.7106 18.8699 54.7106 19.416C54.7106 19.9621 54.8599 20.3973 55.1586 20.7216C55.4658 21.0373 55.837 21.1952 56.2722 21.1952C56.7074 21.1952 57.0743 21.0373 57.373 20.7216C57.6802 20.4059 57.8338 19.9749 57.8338 19.4288ZM71.1666 16.9072C71.1666 17.4277 71.0471 17.9056 70.8082 18.3408C70.5693 18.7675 70.2023 19.1131 69.7074 19.3776C69.2125 19.6421 68.5981 19.7744 67.8642 19.7744H66.5074V23H64.3186V14.0144H67.8642C68.581 14.0144 69.1869 14.1381 69.6818 14.3856C70.1767 14.6331 70.5479 14.9744 70.7954 15.4096C71.0429 15.8448 71.1666 16.344 71.1666 16.9072ZM67.6978 18.0336C68.1159 18.0336 68.4274 17.9355 68.6322 17.7392C68.837 17.5429 68.9394 17.2656 68.9394 16.9072C68.9394 16.5488 68.837 16.2715 68.6322 16.0752C68.4274 15.8789 68.1159 15.7808 67.6978 15.7808H66.5074V18.0336H67.6978ZM74.4949 17.048C74.7509 16.6555 75.0709 16.3483 75.4549 16.1264C75.8389 15.896 76.2656 15.7808 76.7349 15.7808V18.0976H76.1333C75.5872 18.0976 75.1776 18.2171 74.9045 18.456C74.6314 18.6864 74.4949 19.096 74.4949 19.6848V23H72.3061V15.8576H74.4949V17.048ZM78.8819 15.1152C78.4979 15.1152 78.1822 15.0043 77.9347 14.7824C77.6958 14.552 77.5763 14.2704 77.5763 13.9376C77.5763 13.5963 77.6958 13.3147 77.9347 13.0928C78.1822 12.8624 78.4979 12.7472 78.8819 12.7472C79.2574 12.7472 79.5646 12.8624 79.8035 13.0928C80.051 13.3147 80.1747 13.5963 80.1747 13.9376C80.1747 14.2704 80.051 14.552 79.8035 14.7824C79.5646 15.0043 79.2574 15.1152 78.8819 15.1152ZM79.9699 15.8576V23H77.7811V15.8576H79.9699ZM90.6697 15.7808C91.5572 15.7808 92.2612 16.0496 92.7817 16.5872C93.3108 17.1248 93.5753 17.8715 93.5753 18.8272V23H91.3993V19.1216C91.3993 18.6608 91.2756 18.3067 91.0281 18.0592C90.7892 17.8032 90.4564 17.6752 90.0297 17.6752C89.603 17.6752 89.266 17.8032 89.0185 18.0592C88.7796 18.3067 88.6601 18.6608 88.6601 19.1216V23H86.4841V19.1216C86.4841 18.6608 86.3604 18.3067 86.1129 18.0592C85.874 17.8032 85.5412 17.6752 85.1145 17.6752C84.6878 17.6752 84.3508 17.8032 84.1033 18.0592C83.8644 18.3067 83.7449 18.6608 83.7449 19.1216V23H81.5561V15.8576H83.7449V16.7536C83.9668 16.4549 84.2569 16.2203 84.6153 16.0496C84.9737 15.8704 85.379 15.7808 85.8313 15.7808C86.3689 15.7808 86.8468 15.896 87.2649 16.1264C87.6916 16.3568 88.0244 16.6853 88.2633 17.112C88.5108 16.7195 88.8478 16.3995 89.2745 16.152C89.7012 15.9045 90.1662 15.7808 90.6697 15.7808ZM94.6709 19.416C94.6709 18.6821 94.8074 18.0379 95.0805 17.4832C95.3621 16.9285 95.7418 16.5019 96.2197 16.2032C96.6976 15.9045 97.2309 15.7552 97.8197 15.7552C98.3232 15.7552 98.7626 15.8576 99.1381 16.0624C99.5221 16.2672 99.8165 16.536 100.021 16.8688V15.8576H102.21V23H100.021V21.9888C99.808 22.3216 99.5093 22.5904 99.1253 22.7952C98.7498 23 98.3104 23.1024 97.8069 23.1024C97.2266 23.1024 96.6976 22.9531 96.2197 22.6544C95.7418 22.3472 95.3621 21.9163 95.0805 21.3616C94.8074 20.7984 94.6709 20.1499 94.6709 19.416ZM100.021 19.4288C100.021 18.8827 99.8677 18.4517 99.5605 18.136C99.2618 17.8203 98.8949 17.6624 98.4597 17.6624C98.0245 17.6624 97.6533 17.8203 97.3461 18.136C97.0474 18.4432 96.8981 18.8699 96.8981 19.416C96.8981 19.9621 97.0474 20.3973 97.3461 20.7216C97.6533 21.0373 98.0245 21.1952 98.4597 21.1952C98.8949 21.1952 99.2618 21.0373 99.5605 20.7216C99.8677 20.4059 100.021 19.9749 100.021 19.4288ZM105.982 17.048C106.238 16.6555 106.558 16.3483 106.942 16.1264C107.326 15.896 107.753 15.7808 108.222 15.7808V18.0976H107.621C107.075 18.0976 106.665 18.2171 106.392 18.456C106.119 18.6864 105.982 19.096 105.982 19.6848V23H103.794V15.8576H105.982V17.048ZM116.565 15.8576L112.085 26.392H109.729L111.368 22.7568L108.462 15.8576H110.907L112.558 20.3248L114.197 15.8576H116.565ZM124.651 23L122.782 19.608H122.257V23H120.069V14.0144H123.742C124.45 14.0144 125.052 14.1381 125.547 14.3856C126.05 14.6331 126.426 14.9744 126.673 15.4096C126.921 15.8363 127.045 16.3141 127.045 16.8432C127.045 17.4405 126.874 17.9739 126.533 18.4432C126.2 18.9125 125.705 19.2453 125.048 19.4416L127.121 23H124.651ZM122.257 18.0592H123.614C124.015 18.0592 124.314 17.9611 124.51 17.7648C124.715 17.5685 124.817 17.2912 124.817 16.9328C124.817 16.5915 124.715 16.3227 124.51 16.1264C124.314 15.9301 124.015 15.832 123.614 15.832H122.257V18.0592ZM135.151 19.3136C135.151 19.5184 135.139 19.7317 135.113 19.9536H130.159C130.194 20.3973 130.334 20.7387 130.582 20.9776C130.838 21.208 131.149 21.3232 131.516 21.3232C132.062 21.3232 132.442 21.0928 132.655 20.632H134.985C134.866 21.1013 134.648 21.5237 134.332 21.8992C134.025 22.2747 133.637 22.5691 133.167 22.7824C132.698 22.9957 132.173 23.1024 131.593 23.1024C130.893 23.1024 130.27 22.9531 129.724 22.6544C129.178 22.3557 128.751 21.9291 128.444 21.3744C128.137 20.8197 127.983 20.1712 127.983 19.4288C127.983 18.6864 128.133 18.0379 128.431 17.4832C128.739 16.9285 129.165 16.5019 129.711 16.2032C130.258 15.9045 130.885 15.7552 131.593 15.7552C132.284 15.7552 132.899 15.9003 133.436 16.1904C133.974 16.4805 134.392 16.8944 134.691 17.432C134.998 17.9696 135.151 18.5968 135.151 19.3136ZM132.911 18.7376C132.911 18.3621 132.783 18.0635 132.527 17.8416C132.271 17.6197 131.951 17.5088 131.567 17.5088C131.2 17.5088 130.889 17.6155 130.633 17.8288C130.386 18.0421 130.232 18.3451 130.172 18.7376H132.911ZM139.212 23.1024C138.589 23.1024 138.034 22.9957 137.548 22.7824C137.061 22.5691 136.677 22.2789 136.396 21.912C136.114 21.5365 135.956 21.1184 135.922 20.6576H138.085C138.111 20.9051 138.226 21.1056 138.431 21.2592C138.636 21.4128 138.887 21.4896 139.186 21.4896C139.459 21.4896 139.668 21.4384 139.813 21.336C139.967 21.2251 140.044 21.0843 140.044 20.9136C140.044 20.7088 139.937 20.5595 139.724 20.4656C139.51 20.3632 139.165 20.2523 138.687 20.1328C138.175 20.0133 137.748 19.8896 137.407 19.7616C137.066 19.6251 136.771 19.416 136.524 19.1344C136.276 18.8443 136.153 18.456 136.153 17.9696C136.153 17.56 136.263 17.1888 136.485 16.856C136.716 16.5147 137.049 16.2459 137.484 16.0496C137.927 15.8533 138.452 15.7552 139.058 15.7552C139.954 15.7552 140.658 15.9771 141.17 16.4208C141.691 16.8645 141.989 17.4533 142.066 18.1872H140.044C140.01 17.9397 139.899 17.7435 139.711 17.5984C139.532 17.4533 139.293 17.3808 138.994 17.3808C138.738 17.3808 138.542 17.432 138.405 17.5344C138.269 17.6283 138.201 17.7605 138.201 17.9312C138.201 18.136 138.307 18.2896 138.521 18.392C138.742 18.4944 139.084 18.5968 139.545 18.6992C140.074 18.8357 140.505 18.9723 140.837 19.1088C141.17 19.2368 141.46 19.4501 141.708 19.7488C141.964 20.0389 142.096 20.4315 142.105 20.9264C142.105 21.3445 141.985 21.72 141.746 22.0528C141.516 22.3771 141.179 22.6331 140.735 22.8208C140.3 23.0085 139.792 23.1024 139.212 23.1024ZM150.496 15.8576V23H148.308V22.0272C148.086 22.3429 147.783 22.5989 147.399 22.7952C147.023 22.9829 146.605 23.0768 146.144 23.0768C145.598 23.0768 145.116 22.9573 144.698 22.7184C144.28 22.4709 143.956 22.1168 143.725 21.656C143.495 21.1952 143.38 20.6533 143.38 20.0304V15.8576H145.556V19.736C145.556 20.2139 145.679 20.5851 145.927 20.8496C146.174 21.1141 146.507 21.2464 146.925 21.2464C147.352 21.2464 147.689 21.1141 147.936 20.8496C148.184 20.5851 148.308 20.2139 148.308 19.736V15.8576H150.496ZM154.257 13.528V23H152.069V13.528H154.257ZM159.824 21.144V23H158.711C157.917 23 157.299 22.808 156.855 22.424C156.411 22.0315 156.189 21.3957 156.189 20.5168V17.6752H155.319V15.8576H156.189V14.1168H158.378V15.8576H159.812V17.6752H158.378V20.5424C158.378 20.7557 158.429 20.9093 158.532 21.0032C158.634 21.0971 158.805 21.144 159.044 21.144H159.824Z" fill="#F2F2F2"/>
</svg>
