<svg width="195" height="37" viewBox="0 0 195 37" fill="none" xmlns="http://www.w3.org/2000/svg">
<rect width="194.191" height="37" rx="4" fill="#C8AC48"/>
<mask id="mask0" mask-type="alpha" maskUnits="userSpaceOnUse" x="0" y="0" width="195" height="37">
<rect width="194.191" height="37" rx="4" fill="#A68C2F"/>
</mask>
<g mask="url(#mask0)">
<path d="M138.924 0L55.8394 37H194.191V0H138.924Z" fill="#B89D3B"/>
</g>
<path d="M54.3616 21.3488H50.9696L50.4064 23H48.1024L51.4176 14.0144H53.9392L57.2544 23H54.9248L54.3616 21.3488ZM53.7984 19.6848L52.672 16.3568L51.5328 19.6848H53.7984ZM60.8188 15.768C61.3649 15.768 61.8343 15.8917 62.2268 16.1392C62.6193 16.3867 62.9052 16.7237 63.0844 17.1504V13.528H65.2732V23H63.0844V21.7072C62.9052 22.1339 62.6193 22.4709 62.2268 22.7184C61.8343 22.9659 61.3649 23.0896 60.8188 23.0896C60.23 23.0896 59.7009 22.9445 59.2316 22.6544C58.7708 22.3557 58.4039 21.9291 58.1308 21.3744C57.8663 20.8197 57.734 20.1712 57.734 19.4288C57.734 18.6779 57.8663 18.0293 58.1308 17.4832C58.4039 16.9285 58.7708 16.5061 59.2316 16.216C59.7009 15.9173 60.23 15.768 60.8188 15.768ZM61.5228 17.688C61.0535 17.688 60.6737 17.8416 60.3836 18.1488C60.102 18.456 59.9612 18.8827 59.9612 19.4288C59.9612 19.9749 60.102 20.4016 60.3836 20.7088C60.6737 21.016 61.0535 21.1696 61.5228 21.1696C61.9836 21.1696 62.3591 21.0117 62.6492 20.696C62.9479 20.3803 63.0972 19.9579 63.0972 19.4288C63.0972 18.8912 62.9479 18.4688 62.6492 18.1616C62.3591 17.8459 61.9836 17.688 61.5228 17.688ZM69.4938 15.768C70.0399 15.768 70.5093 15.8917 70.9018 16.1392C71.2943 16.3867 71.5802 16.7237 71.7594 17.1504V13.528H73.9482V23H71.7594V21.7072C71.5802 22.1339 71.2943 22.4709 70.9018 22.7184C70.5093 22.9659 70.0399 23.0896 69.4938 23.0896C68.905 23.0896 68.3759 22.9445 67.9066 22.6544C67.4458 22.3557 67.0789 21.9291 66.8058 21.3744C66.5413 20.8197 66.409 20.1712 66.409 19.4288C66.409 18.6779 66.5413 18.0293 66.8058 17.4832C67.0789 16.9285 67.4458 16.5061 67.9066 16.216C68.3759 15.9173 68.905 15.768 69.4938 15.768ZM70.1978 17.688C69.7285 17.688 69.3487 17.8416 69.0586 18.1488C68.777 18.456 68.6362 18.8827 68.6362 19.4288C68.6362 19.9749 68.777 20.4016 69.0586 20.7088C69.3487 21.016 69.7285 21.1696 70.1978 21.1696C70.6586 21.1696 71.0341 21.0117 71.3242 20.696C71.6229 20.3803 71.7722 19.9579 71.7722 19.4288C71.7722 18.8912 71.6229 18.4688 71.3242 18.1616C71.0341 17.8459 70.6586 17.688 70.1978 17.688ZM84.5201 20.4528C84.5201 20.9307 84.3964 21.3701 84.1489 21.7712C83.91 22.1723 83.5516 22.4923 83.0737 22.7312C82.6044 22.9701 82.0326 23.0896 81.3585 23.0896C80.343 23.0896 79.5068 22.8421 78.8497 22.3472C78.1926 21.8523 77.8342 21.1611 77.7745 20.2736H80.1041C80.1382 20.6149 80.2577 20.8837 80.4625 21.08C80.6758 21.2763 80.9446 21.3744 81.2689 21.3744C81.5505 21.3744 81.7724 21.2976 81.9345 21.144C82.0966 20.9904 82.1777 20.7856 82.1777 20.5296C82.1777 20.2992 82.1009 20.1072 81.9473 19.9536C81.8022 19.8 81.6188 19.6763 81.3969 19.5824C81.175 19.48 80.8678 19.3605 80.4753 19.224C79.9036 19.0277 79.4342 18.84 79.0673 18.6608C78.7089 18.4731 78.3974 18.2 78.1329 17.8416C77.8769 17.4747 77.7489 17.0011 77.7489 16.4208C77.7489 15.8832 77.8854 15.4181 78.1585 15.0256C78.4316 14.6331 78.807 14.3344 79.2849 14.1296C79.7713 13.9163 80.326 13.8096 80.9489 13.8096C81.9558 13.8096 82.7537 14.0485 83.3425 14.5264C83.9398 15.0043 84.2769 15.6613 84.3537 16.4976H81.9857C81.943 16.1989 81.8321 15.9643 81.6529 15.7936C81.4822 15.6144 81.2476 15.5248 80.9489 15.5248C80.6929 15.5248 80.4838 15.5931 80.3217 15.7296C80.1681 15.8661 80.0913 16.0667 80.0913 16.3312C80.0913 16.5445 80.1596 16.728 80.2961 16.8816C80.4412 17.0267 80.6204 17.1461 80.8337 17.24C81.047 17.3339 81.3542 17.4533 81.7553 17.5984C82.3356 17.7947 82.8092 17.9909 83.1761 18.1872C83.543 18.3749 83.8588 18.6523 84.1233 19.0192C84.3878 19.3861 84.5201 19.864 84.5201 20.4528ZM90.1846 15.768C90.7734 15.768 91.2982 15.9173 91.759 16.216C92.2283 16.5061 92.5953 16.9285 92.8598 17.4832C93.1329 18.0293 93.2694 18.6779 93.2694 19.4288C93.2694 20.1712 93.1329 20.8197 92.8598 21.3744C92.5953 21.9291 92.2283 22.3557 91.759 22.6544C91.2982 22.9445 90.7734 23.0896 90.1846 23.0896C89.6385 23.0896 89.1691 22.9659 88.7766 22.7184C88.3841 22.4709 88.0982 22.1339 87.919 21.7072V26.4048H85.7302V15.8576H87.919V17.1504C88.0982 16.7237 88.3841 16.3867 88.7766 16.1392C89.1691 15.8917 89.6385 15.768 90.1846 15.768ZM89.4806 17.688C89.0198 17.688 88.6401 17.8459 88.3414 18.1616C88.0513 18.4688 87.9062 18.8912 87.9062 19.4288C87.9062 19.9579 88.0513 20.3803 88.3414 20.696C88.6401 21.0117 89.0198 21.1696 89.4806 21.1696C89.9499 21.1696 90.3254 21.016 90.607 20.7088C90.8971 20.4016 91.0422 19.9749 91.0422 19.4288C91.0422 18.8827 90.8971 18.456 90.607 18.1488C90.3254 17.8416 89.9499 17.688 89.4806 17.688ZM101.189 19.2368C101.189 19.416 101.168 19.6123 101.125 19.8256H96.1716C96.1972 20.3632 96.3337 20.7515 96.5812 20.9904C96.8287 21.2208 97.1444 21.336 97.5284 21.336C97.8527 21.336 98.1215 21.2549 98.3348 21.0928C98.5481 20.9307 98.6889 20.7216 98.7572 20.4656H101.074C100.98 20.9691 100.775 21.4213 100.46 21.8224C100.144 22.2149 99.7428 22.5264 99.2564 22.7568C98.77 22.9787 98.2281 23.0896 97.6308 23.0896C96.9311 23.0896 96.3081 22.9445 95.762 22.6544C95.2244 22.3557 94.802 21.9291 94.4948 21.3744C94.1876 20.8197 94.034 20.1712 94.034 19.4288C94.034 18.6779 94.1833 18.0293 94.482 17.4832C94.7892 16.9285 95.2159 16.5061 95.762 16.216C96.3081 15.9173 96.9311 15.768 97.6308 15.768C98.3391 15.768 98.962 15.9131 99.4996 16.2032C100.037 16.4933 100.451 16.9029 100.741 17.432C101.04 17.9525 101.189 18.5541 101.189 19.2368ZM98.9748 18.904C98.9833 18.4347 98.8553 18.0848 98.5908 17.8544C98.3348 17.6155 98.0148 17.496 97.6308 17.496C97.2297 17.496 96.8969 17.6155 96.6324 17.8544C96.3679 18.0933 96.2185 18.4432 96.1844 18.904H98.9748ZM105.556 15.768C106.477 15.768 107.25 16.024 107.873 16.536C108.496 17.0395 108.888 17.7349 109.05 18.6224H106.733C106.665 18.3152 106.524 18.0763 106.311 17.9056C106.098 17.7349 105.829 17.6496 105.505 17.6496C105.121 17.6496 104.805 17.8032 104.557 18.1104C104.31 18.4091 104.186 18.8485 104.186 19.4288C104.186 20.0091 104.31 20.4528 104.557 20.76C104.805 21.0587 105.121 21.208 105.505 21.208C105.829 21.208 106.098 21.1227 106.311 20.952C106.524 20.7813 106.665 20.5424 106.733 20.2352H109.05C108.888 21.1227 108.496 21.8224 107.873 22.3344C107.25 22.8379 106.477 23.0896 105.556 23.0896C104.856 23.0896 104.233 22.9445 103.687 22.6544C103.149 22.3557 102.727 21.9291 102.42 21.3744C102.113 20.8197 101.959 20.1712 101.959 19.4288C101.959 18.6779 102.108 18.0293 102.407 17.4832C102.714 16.9285 103.141 16.5061 103.687 16.216C104.233 15.9173 104.856 15.768 105.556 15.768ZM109.988 13.848C109.988 13.5152 110.107 13.2421 110.346 13.0288C110.585 12.8069 110.901 12.696 111.294 12.696C111.686 12.696 112.002 12.8069 112.241 13.0288C112.48 13.2421 112.599 13.5152 112.599 13.848C112.599 14.1723 112.48 14.4453 112.241 14.6672C112.002 14.8805 111.686 14.9872 111.294 14.9872C110.901 14.9872 110.585 14.8805 110.346 14.6672C110.107 14.4453 109.988 14.1723 109.988 13.848ZM112.382 15.8576V23H110.193V15.8576H112.382ZM116.606 15.768C117.152 15.768 117.622 15.8917 118.014 16.1392C118.407 16.3867 118.697 16.7237 118.885 17.1504V15.8576H121.061V23H118.885V21.7072C118.697 22.1339 118.407 22.4709 118.014 22.7184C117.622 22.9659 117.152 23.0896 116.606 23.0896C116.018 23.0896 115.488 22.9445 115.019 22.6544C114.558 22.3557 114.191 21.9291 113.918 21.3744C113.654 20.8197 113.522 20.1712 113.522 19.4288C113.522 18.6779 113.654 18.0293 113.918 17.4832C114.191 16.9285 114.558 16.5061 115.019 16.216C115.488 15.9173 116.018 15.768 116.606 15.768ZM117.31 17.688C116.841 17.688 116.461 17.8416 116.171 18.1488C115.89 18.456 115.749 18.8827 115.749 19.4288C115.749 19.9749 115.89 20.4016 116.171 20.7088C116.461 21.016 116.841 21.1696 117.31 21.1696C117.771 21.1696 118.147 21.0117 118.437 20.696C118.735 20.3803 118.885 19.9579 118.885 19.4288C118.885 18.8912 118.735 18.4688 118.437 18.1616C118.147 17.8459 117.771 17.688 117.31 17.688ZM124.757 13.528V23H122.568V13.528H124.757ZM126.063 13.848C126.063 13.5152 126.182 13.2421 126.421 13.0288C126.66 12.8069 126.976 12.696 127.369 12.696C127.761 12.696 128.077 12.8069 128.316 13.0288C128.555 13.2421 128.674 13.5152 128.674 13.848C128.674 14.1723 128.555 14.4453 128.316 14.6672C128.077 14.8805 127.761 14.9872 127.369 14.9872C126.976 14.9872 126.66 14.8805 126.421 14.6672C126.182 14.4453 126.063 14.1723 126.063 13.848ZM128.457 15.8576V23H126.268V15.8576H128.457ZM134.013 21.1184V23H133.027C132.191 23 131.538 22.7952 131.069 22.3856C130.608 21.9675 130.377 21.2805 130.377 20.3248V17.7008H129.417V15.8576H130.377V14.104H132.566V15.8576H134V17.7008H132.566V20.3632C132.566 20.6448 132.622 20.8411 132.733 20.952C132.852 21.0629 133.048 21.1184 133.321 21.1184H134.013ZM135.038 13.848C135.038 13.5152 135.157 13.2421 135.396 13.0288C135.635 12.8069 135.951 12.696 136.344 12.696C136.736 12.696 137.052 12.8069 137.291 13.0288C137.53 13.2421 137.649 13.5152 137.649 13.848C137.649 14.1723 137.53 14.4453 137.291 14.6672C137.052 14.8805 136.736 14.9872 136.344 14.9872C135.951 14.9872 135.635 14.8805 135.396 14.6672C135.157 14.4453 135.038 14.1723 135.038 13.848ZM137.432 15.8576V23H135.243V15.8576H137.432ZM145.727 19.2368C145.727 19.416 145.705 19.6123 145.663 19.8256H140.709C140.735 20.3632 140.871 20.7515 141.119 20.9904C141.366 21.2208 141.682 21.336 142.066 21.336C142.39 21.336 142.659 21.2549 142.872 21.0928C143.086 20.9307 143.226 20.7216 143.295 20.4656H145.612C145.518 20.9691 145.313 21.4213 144.997 21.8224C144.681 22.2149 144.28 22.5264 143.794 22.7568C143.308 22.9787 142.766 23.0896 142.168 23.0896C141.469 23.0896 140.846 22.9445 140.3 22.6544C139.762 22.3557 139.34 21.9291 139.032 21.3744C138.725 20.8197 138.572 20.1712 138.572 19.4288C138.572 18.6779 138.721 18.0293 139.02 17.4832C139.327 16.9285 139.753 16.5061 140.3 16.216C140.846 15.9173 141.469 15.768 142.168 15.768C142.877 15.768 143.5 15.9131 144.037 16.2032C144.575 16.4933 144.989 16.9029 145.279 17.432C145.577 17.9525 145.727 18.5541 145.727 19.2368ZM143.512 18.904C143.521 18.4347 143.393 18.0848 143.128 17.8544C142.872 17.6155 142.552 17.496 142.168 17.496C141.767 17.496 141.434 17.6155 141.17 17.8544C140.905 18.0933 140.756 18.4432 140.722 18.904H143.512ZM149.466 15.768C150.371 15.768 151.092 15.9941 151.629 16.4464C152.175 16.8987 152.517 17.496 152.653 18.2384H150.605C150.546 17.9483 150.409 17.7221 150.196 17.56C149.991 17.3893 149.731 17.304 149.415 17.304C149.167 17.304 148.98 17.3595 148.852 17.4704C148.724 17.5728 148.66 17.7221 148.66 17.9184C148.66 18.1403 148.775 18.3067 149.005 18.4176C149.244 18.5285 149.615 18.6395 150.119 18.7504C150.665 18.8784 151.113 19.0107 151.463 19.1472C151.813 19.2752 152.116 19.4885 152.372 19.7872C152.628 20.0859 152.756 20.4869 152.756 20.9904C152.756 21.4 152.645 21.7627 152.423 22.0784C152.201 22.3941 151.881 22.6416 151.463 22.8208C151.045 23 150.55 23.0896 149.978 23.0896C149.014 23.0896 148.242 22.8763 147.661 22.4496C147.081 22.0229 146.727 21.4128 146.599 20.6192H148.711C148.745 20.9264 148.873 21.1611 149.095 21.3232C149.325 21.4853 149.62 21.5664 149.978 21.5664C150.226 21.5664 150.413 21.5109 150.541 21.4C150.669 21.2805 150.733 21.1269 150.733 20.9392C150.733 20.6917 150.614 20.5168 150.375 20.4144C150.145 20.3035 149.765 20.1883 149.236 20.0688C148.707 19.9579 148.271 19.8384 147.93 19.7104C147.589 19.5824 147.294 19.3776 147.047 19.096C146.799 18.8059 146.676 18.4133 146.676 17.9184C146.676 17.2784 146.919 16.7621 147.405 16.3696C147.892 15.9685 148.579 15.768 149.466 15.768Z" fill="#F2F2F2"/>
</svg>
