<svg width="195" height="37" viewBox="0 0 195 37" fill="none" xmlns="http://www.w3.org/2000/svg">
<rect width="194.191" height="37" rx="4" fill="#C8AC48"/>
<mask id="mask0" mask-type="alpha" maskUnits="userSpaceOnUse" x="0" y="0" width="195" height="37">
<rect width="194.191" height="37" rx="4" fill="#A68C2F"/>
</mask>
<g mask="url(#mask0)">
<path d="M138.924 0L55.8394 37H194.191V0H138.924Z" fill="#B89D3B"/>
</g>
<path d="M54.3616 21.3488H50.9696L50.4064 23H48.1024L51.4176 14.0144H53.9392L57.2544 23H54.9248L54.3616 21.3488ZM53.7984 19.6848L52.672 16.3568L51.5328 19.6848H53.7984ZM60.8188 15.768C61.3649 15.768 61.8343 15.8917 62.2268 16.1392C62.6193 16.3867 62.9052 16.7237 63.0844 17.1504V13.528H65.2732V23H63.0844V21.7072C62.9052 22.1339 62.6193 22.4709 62.2268 22.7184C61.8343 22.9659 61.3649 23.0896 60.8188 23.0896C60.23 23.0896 59.7009 22.9445 59.2316 22.6544C58.7708 22.3557 58.4039 21.9291 58.1308 21.3744C57.8663 20.8197 57.734 20.1712 57.734 19.4288C57.734 18.6779 57.8663 18.0293 58.1308 17.4832C58.4039 16.9285 58.7708 16.5061 59.2316 16.216C59.7009 15.9173 60.23 15.768 60.8188 15.768ZM61.5228 17.688C61.0535 17.688 60.6737 17.8416 60.3836 18.1488C60.102 18.456 59.9612 18.8827 59.9612 19.4288C59.9612 19.9749 60.102 20.4016 60.3836 20.7088C60.6737 21.016 61.0535 21.1696 61.5228 21.1696C61.9836 21.1696 62.3591 21.0117 62.6492 20.696C62.9479 20.3803 63.0972 19.9579 63.0972 19.4288C63.0972 18.8912 62.9479 18.4688 62.6492 18.1616C62.3591 17.8459 61.9836 17.688 61.5228 17.688ZM69.4938 15.768C70.0399 15.768 70.5093 15.8917 70.9018 16.1392C71.2943 16.3867 71.5802 16.7237 71.7594 17.1504V13.528H73.9482V23H71.7594V21.7072C71.5802 22.1339 71.2943 22.4709 70.9018 22.7184C70.5093 22.9659 70.0399 23.0896 69.4938 23.0896C68.905 23.0896 68.3759 22.9445 67.9066 22.6544C67.4458 22.3557 67.0789 21.9291 66.8058 21.3744C66.5413 20.8197 66.409 20.1712 66.409 19.4288C66.409 18.6779 66.5413 18.0293 66.8058 17.4832C67.0789 16.9285 67.4458 16.5061 67.9066 16.216C68.3759 15.9173 68.905 15.768 69.4938 15.768ZM70.1978 17.688C69.7285 17.688 69.3487 17.8416 69.0586 18.1488C68.777 18.456 68.6362 18.8827 68.6362 19.4288C68.6362 19.9749 68.777 20.4016 69.0586 20.7088C69.3487 21.016 69.7285 21.1696 70.1978 21.1696C70.6586 21.1696 71.0341 21.0117 71.3242 20.696C71.6229 20.3803 71.7722 19.9579 71.7722 19.4288C71.7722 18.8912 71.6229 18.4688 71.3242 18.1616C71.0341 17.8459 70.6586 17.688 70.1978 17.688ZM83.6241 21.3488H80.2321L79.6689 23H77.3649L80.6801 14.0144H83.2017L86.5169 23H84.1873L83.6241 21.3488ZM83.0609 19.6848L81.9345 16.3568L80.7953 19.6848H83.0609ZM90.8749 14.8848C90.5165 14.8848 90.2562 14.9616 90.0941 15.1152C89.932 15.2688 89.8424 15.5163 89.8253 15.8576H91.1181V17.7008H89.8253V23H87.6365V17.7008H86.7789V15.8576H87.6365V15.7808C87.6365 14.8933 87.8925 14.2107 88.4045 13.7328C88.925 13.2464 89.676 13.0032 90.6573 13.0032C90.8621 13.0032 91.0157 13.0075 91.1181 13.016V14.8976L90.8749 14.8848ZM95.5874 14.8848C95.229 14.8848 94.9687 14.9616 94.8066 15.1152C94.6445 15.2688 94.5549 15.5163 94.5378 15.8576H95.8306V17.7008H94.5378V23H92.349V17.7008H91.4914V15.8576H92.349V15.7808C92.349 14.8933 92.605 14.2107 93.117 13.7328C93.6375 13.2464 94.3885 13.0032 95.3698 13.0032C95.5746 13.0032 95.7282 13.0075 95.8306 13.016V14.8976L95.5874 14.8848ZM103.577 19.2368C103.577 19.416 103.555 19.6123 103.513 19.8256H98.5591C98.5847 20.3632 98.7212 20.7515 98.9687 20.9904C99.2162 21.2208 99.5319 21.336 99.9159 21.336C100.24 21.336 100.509 21.2549 100.722 21.0928C100.936 20.9307 101.076 20.7216 101.145 20.4656H103.462C103.368 20.9691 103.163 21.4213 102.847 21.8224C102.531 22.2149 102.13 22.5264 101.644 22.7568C101.158 22.9787 100.616 23.0896 100.018 23.0896C99.3186 23.0896 98.6956 22.9445 98.1495 22.6544C97.6119 22.3557 97.1895 21.9291 96.8823 21.3744C96.5751 20.8197 96.4215 20.1712 96.4215 19.4288C96.4215 18.6779 96.5708 18.0293 96.8695 17.4832C97.1767 16.9285 97.6034 16.5061 98.1495 16.216C98.6956 15.9173 99.3186 15.768 100.018 15.768C100.727 15.768 101.35 15.9131 101.887 16.2032C102.425 16.4933 102.839 16.9029 103.129 17.432C103.427 17.9525 103.577 18.5541 103.577 19.2368ZM101.362 18.904C101.371 18.4347 101.243 18.0848 100.978 17.8544C100.722 17.6155 100.402 17.496 100.018 17.496C99.6172 17.496 99.2844 17.6155 99.0199 17.8544C98.7554 18.0933 98.606 18.4432 98.5719 18.904H101.362ZM106.907 13.528V23H104.718V13.528H106.907ZM108.213 13.848C108.213 13.5152 108.332 13.2421 108.571 13.0288C108.81 12.8069 109.126 12.696 109.519 12.696C109.911 12.696 110.227 12.8069 110.466 13.0288C110.705 13.2421 110.824 13.5152 110.824 13.848C110.824 14.1723 110.705 14.4453 110.466 14.6672C110.227 14.8805 109.911 14.9872 109.519 14.9872C109.126 14.9872 108.81 14.8805 108.571 14.6672C108.332 14.4453 108.213 14.1723 108.213 13.848ZM110.607 15.8576V23H108.418V15.8576H110.607ZM114.831 15.768C115.377 15.768 115.847 15.8917 116.239 16.1392C116.632 16.3867 116.922 16.7237 117.11 17.1504V15.8576H119.286V23H117.11V21.7072C116.922 22.1339 116.632 22.4709 116.239 22.7184C115.847 22.9659 115.377 23.0896 114.831 23.0896C114.243 23.0896 113.713 22.9445 113.244 22.6544C112.783 22.3557 112.416 21.9291 112.143 21.3744C111.879 20.8197 111.747 20.1712 111.747 19.4288C111.747 18.6779 111.879 18.0293 112.143 17.4832C112.416 16.9285 112.783 16.5061 113.244 16.216C113.713 15.9173 114.243 15.768 114.831 15.768ZM115.535 17.688C115.066 17.688 114.686 17.8416 114.396 18.1488C114.115 18.456 113.974 18.8827 113.974 19.4288C113.974 19.9749 114.115 20.4016 114.396 20.7088C114.686 21.016 115.066 21.1696 115.535 21.1696C115.996 21.1696 116.372 21.0117 116.662 20.696C116.96 20.3803 117.11 19.9579 117.11 19.4288C117.11 18.8912 116.96 18.4688 116.662 18.1616C116.372 17.8459 115.996 17.688 115.535 17.688ZM124.837 21.1184V23H123.852C123.016 23 122.363 22.7952 121.893 22.3856C121.433 21.9675 121.202 21.2805 121.202 20.3248V17.7008H120.242V15.8576H121.202V14.104H123.391V15.8576H124.825V17.7008H123.391V20.3632C123.391 20.6448 123.447 20.8411 123.557 20.952C123.677 21.0629 123.873 21.1184 124.146 21.1184H124.837ZM125.863 13.848C125.863 13.5152 125.982 13.2421 126.221 13.0288C126.46 12.8069 126.776 12.696 127.169 12.696C127.561 12.696 127.877 12.8069 128.116 13.0288C128.355 13.2421 128.474 13.5152 128.474 13.848C128.474 14.1723 128.355 14.4453 128.116 14.6672C127.877 14.8805 127.561 14.9872 127.169 14.9872C126.776 14.9872 126.46 14.8805 126.221 14.6672C125.982 14.4453 125.863 14.1723 125.863 13.848ZM128.257 15.8576V23H126.068V15.8576H128.257ZM133.109 15.768C133.817 15.768 134.448 15.9173 135.003 16.216C135.566 16.5061 136.006 16.9285 136.321 17.4832C136.646 18.0379 136.808 18.6864 136.808 19.4288C136.808 20.1712 136.646 20.8197 136.321 21.3744C136.006 21.9291 135.566 22.3557 135.003 22.6544C134.448 22.9445 133.817 23.0896 133.109 23.0896C132.4 23.0896 131.765 22.9445 131.201 22.6544C130.638 22.3557 130.194 21.9291 129.87 21.3744C129.554 20.8197 129.397 20.1712 129.397 19.4288C129.397 18.6864 129.554 18.0379 129.87 17.4832C130.194 16.9285 130.638 16.5061 131.201 16.216C131.765 15.9173 132.4 15.768 133.109 15.768ZM133.109 17.6624C132.69 17.6624 132.336 17.816 132.046 18.1232C131.765 18.4219 131.624 18.8571 131.624 19.4288C131.624 20.0005 131.765 20.4357 132.046 20.7344C132.336 21.0331 132.69 21.1824 133.109 21.1824C133.527 21.1824 133.877 21.0331 134.158 20.7344C134.44 20.4357 134.581 20.0005 134.581 19.4288C134.581 18.8571 134.44 18.4219 134.158 18.1232C133.877 17.816 133.527 17.6624 133.109 17.6624ZM142.474 15.7808C143.293 15.7808 143.942 16.0539 144.42 16.6C144.906 17.1461 145.149 17.8971 145.149 18.8528V23H142.96V19.1088C142.96 18.6309 142.832 18.2597 142.576 17.9952C142.329 17.7221 141.996 17.5856 141.578 17.5856C141.134 17.5856 140.78 17.7264 140.516 18.008C140.26 18.2896 140.132 18.6907 140.132 19.2112V23H137.943V15.8576H140.132V17.1632C140.336 16.7365 140.639 16.3995 141.04 16.152C141.45 15.9045 141.928 15.7808 142.474 15.7808Z" fill="#F2F2F2"/>
</svg>
