<svg width="195" height="37" viewBox="0 0 195 37" fill="none" xmlns="http://www.w3.org/2000/svg">
<rect width="194.191" height="37" rx="4" fill="#C8AC48"/>
<mask id="mask0" mask-type="alpha" maskUnits="userSpaceOnUse" x="0" y="0" width="195" height="37">
<rect width="194.191" height="37" rx="4" fill="#A68C2F"/>
</mask>
<g mask="url(#mask0)">
<path d="M138.924 0L55.8394 37H194.191V0H138.924Z" fill="#B89D3B"/>
</g>
<path d="M55.5678 21.3488H52.1758L51.6126 23H49.3086L52.6238 14.0144H55.1454L58.4607 23H56.131L55.5678 21.3488ZM55.0046 19.6848L53.8782 16.3568L52.739 19.6848H55.0046ZM62.0251 15.768C62.5712 15.768 63.0405 15.8917 63.433 16.1392C63.8256 16.3867 64.1114 16.7237 64.2906 17.1504V13.528H66.4794V23H64.2906V21.7072C64.1114 22.1339 63.8256 22.4709 63.433 22.7184C63.0405 22.9659 62.5712 23.0896 62.0251 23.0896C61.4362 23.0896 60.9072 22.9445 60.4378 22.6544C59.977 22.3557 59.6101 21.9291 59.337 21.3744C59.0725 20.8197 58.9402 20.1712 58.9402 19.4288C58.9402 18.6779 59.0725 18.0293 59.337 17.4832C59.6101 16.9285 59.977 16.5061 60.4378 16.216C60.9072 15.9173 61.4362 15.768 62.0251 15.768ZM62.729 17.688C62.2597 17.688 61.88 17.8416 61.5898 18.1488C61.3082 18.456 61.1674 18.8827 61.1674 19.4288C61.1674 19.9749 61.3082 20.4016 61.5898 20.7088C61.88 21.016 62.2597 21.1696 62.729 21.1696C63.1898 21.1696 63.5653 21.0117 63.8555 20.696C64.1541 20.3803 64.3035 19.9579 64.3035 19.4288C64.3035 18.8912 64.1541 18.4688 63.8555 18.1616C63.5653 17.8459 63.1898 17.688 62.729 17.688ZM70.7001 15.768C71.2462 15.768 71.7155 15.8917 72.1081 16.1392C72.5006 16.3867 72.7865 16.7237 72.9657 17.1504V13.528H75.1545V23H72.9657V21.7072C72.7865 22.1339 72.5006 22.4709 72.1081 22.7184C71.7155 22.9659 71.2462 23.0896 70.7001 23.0896C70.1113 23.0896 69.5822 22.9445 69.1129 22.6544C68.6521 22.3557 68.2851 21.9291 68.0121 21.3744C67.7475 20.8197 67.6153 20.1712 67.6153 19.4288C67.6153 18.6779 67.7475 18.0293 68.0121 17.4832C68.2851 16.9285 68.6521 16.5061 69.1129 16.216C69.5822 15.9173 70.1113 15.768 70.7001 15.768ZM71.4041 17.688C70.9347 17.688 70.555 17.8416 70.2649 18.1488C69.9833 18.456 69.8425 18.8827 69.8425 19.4288C69.8425 19.9749 69.9833 20.4016 70.2649 20.7088C70.555 21.016 70.9347 21.1696 71.4041 21.1696C71.8649 21.1696 72.2403 21.0117 72.5305 20.696C72.8291 20.3803 72.9785 19.9579 72.9785 19.4288C72.9785 18.8912 72.8291 18.4688 72.5305 18.1616C72.2403 17.8459 71.8649 17.688 71.4041 17.688ZM87.2624 23H85.0736L81.4128 17.4448V23H79.224V13.9504H81.4128L85.0736 19.5568V13.9504H87.2624V23ZM95.5579 19.2368C95.5579 19.416 95.5366 19.6123 95.494 19.8256H90.5403C90.5659 20.3632 90.7025 20.7515 90.9499 20.9904C91.1974 21.2208 91.5131 21.336 91.8971 21.336C92.2214 21.336 92.4902 21.2549 92.7035 21.0928C92.9169 20.9307 93.0577 20.7216 93.1259 20.4656H95.4427C95.3489 20.9691 95.1441 21.4213 94.8283 21.8224C94.5126 22.2149 94.1115 22.5264 93.6251 22.7568C93.1387 22.9787 92.5969 23.0896 91.9995 23.0896C91.2998 23.0896 90.6769 22.9445 90.1307 22.6544C89.5931 22.3557 89.1707 21.9291 88.8635 21.3744C88.5563 20.8197 88.4027 20.1712 88.4027 19.4288C88.4027 18.6779 88.5521 18.0293 88.8507 17.4832C89.1579 16.9285 89.5846 16.5061 90.1307 16.216C90.6769 15.9173 91.2998 15.768 91.9995 15.768C92.7078 15.768 93.3307 15.9131 93.8683 16.2032C94.4059 16.4933 94.8198 16.9029 95.1099 17.432C95.4086 17.9525 95.5579 18.5541 95.5579 19.2368ZM93.3435 18.904C93.3521 18.4347 93.2241 18.0848 92.9595 17.8544C92.7035 17.6155 92.3835 17.496 91.9995 17.496C91.5985 17.496 91.2657 17.6155 91.0011 17.8544C90.7366 18.0933 90.5873 18.4432 90.5531 18.904H93.3435ZM107.144 15.8576L105.313 23H102.869L101.576 18.2128L100.27 23H97.8254L95.995 15.8576H98.1838L99.131 21.0032L100.462 15.8576H102.792L104.161 21.016L105.109 15.8576H107.144ZM112.688 19.8256V23H110.499V13.9504H114.045C115.12 13.9504 115.939 14.2192 116.502 14.7568C117.065 15.2859 117.347 16.0027 117.347 16.9072C117.347 17.4704 117.219 17.9739 116.963 18.4176C116.715 18.8528 116.344 19.1984 115.849 19.4544C115.354 19.7019 114.753 19.8256 114.045 19.8256H112.688ZM113.801 18.072C114.68 18.072 115.12 17.6837 115.12 16.9072C115.12 16.1136 114.68 15.7168 113.801 15.7168H112.688V18.072H113.801ZM120.613 13.528V23H118.424V13.528H120.613ZM124.838 15.768C125.384 15.768 125.853 15.8917 126.246 16.1392C126.638 16.3867 126.928 16.7237 127.116 17.1504V15.8576H129.292V23H127.116V21.7072C126.928 22.1339 126.638 22.4709 126.246 22.7184C125.853 22.9659 125.384 23.0896 124.838 23.0896C124.249 23.0896 123.72 22.9445 123.25 22.6544C122.79 22.3557 122.423 21.9291 122.15 21.3744C121.885 20.8197 121.753 20.1712 121.753 19.4288C121.753 18.6779 121.885 18.0293 122.15 17.4832C122.423 16.9285 122.79 16.5061 123.25 16.216C123.72 15.9173 124.249 15.768 124.838 15.768ZM125.542 17.688C125.072 17.688 124.692 17.8416 124.402 18.1488C124.121 18.456 123.98 18.8827 123.98 19.4288C123.98 19.9749 124.121 20.4016 124.402 20.7088C124.692 21.016 125.072 21.1696 125.542 21.1696C126.002 21.1696 126.378 21.0117 126.668 20.696C126.967 20.3803 127.116 19.9579 127.116 19.4288C127.116 18.8912 126.967 18.4688 126.668 18.1616C126.378 17.8459 126.002 17.688 125.542 17.688ZM135.33 15.7808C136.149 15.7808 136.798 16.0539 137.276 16.6C137.762 17.1461 138.005 17.8971 138.005 18.8528V23H135.817V19.1088C135.817 18.6309 135.689 18.2597 135.433 17.9952C135.185 17.7221 134.852 17.5856 134.434 17.5856C133.99 17.5856 133.636 17.7264 133.372 18.008C133.116 18.2896 132.988 18.6907 132.988 19.2112V23H130.799V15.8576H132.988V17.1632C133.193 16.7365 133.495 16.3995 133.897 16.152C134.306 15.9045 134.784 15.7808 135.33 15.7808ZM142.047 15.768C142.952 15.768 143.673 15.9941 144.211 16.4464C144.757 16.8987 145.098 17.496 145.235 18.2384H143.187C143.127 17.9483 142.99 17.7221 142.777 17.56C142.572 17.3893 142.312 17.304 141.996 17.304C141.749 17.304 141.561 17.3595 141.433 17.4704C141.305 17.5728 141.241 17.7221 141.241 17.9184C141.241 18.1403 141.356 18.3067 141.587 18.4176C141.825 18.5285 142.197 18.6395 142.7 18.7504C143.246 18.8784 143.694 19.0107 144.044 19.1472C144.394 19.2752 144.697 19.4885 144.953 19.7872C145.209 20.0859 145.337 20.4869 145.337 20.9904C145.337 21.4 145.226 21.7627 145.004 22.0784C144.782 22.3941 144.462 22.6416 144.044 22.8208C143.626 23 143.131 23.0896 142.559 23.0896C141.595 23.0896 140.823 22.8763 140.243 22.4496C139.662 22.0229 139.308 21.4128 139.18 20.6192H141.292C141.326 20.9264 141.454 21.1611 141.676 21.3232C141.907 21.4853 142.201 21.5664 142.559 21.5664C142.807 21.5664 142.995 21.5109 143.123 21.4C143.251 21.2805 143.315 21.1269 143.315 20.9392C143.315 20.6917 143.195 20.5168 142.956 20.4144C142.726 20.3035 142.346 20.1883 141.817 20.0688C141.288 19.9579 140.853 19.8384 140.511 19.7104C140.17 19.5824 139.876 19.3776 139.628 19.096C139.381 18.8059 139.257 18.4133 139.257 17.9184C139.257 17.2784 139.5 16.7621 139.987 16.3696C140.473 15.9685 141.16 15.768 142.047 15.768Z" fill="#F2F2F2"/>
</svg>
