<svg width="195" height="37" viewBox="0 0 195 37" fill="none" xmlns="http://www.w3.org/2000/svg">
<rect width="194.191" height="37" rx="4" fill="#C8AC48"/>
<mask id="mask0" mask-type="alpha" maskUnits="userSpaceOnUse" x="0" y="0" width="195" height="37">
<rect width="194.191" height="37" rx="4" fill="#A68C2F"/>
</mask>
<g mask="url(#mask0)">
<path d="M138.924 0L55.8394 37H194.191V0H138.924Z" fill="#B89D3B"/>
</g>
<path d="M54.3616 21.3488H50.9696L50.4064 23H48.1024L51.4176 14.0144H53.9392L57.2544 23H54.9248L54.3616 21.3488ZM53.7984 19.6848L52.672 16.3568L51.5328 19.6848H53.7984ZM60.8188 15.768C61.3649 15.768 61.8343 15.8917 62.2268 16.1392C62.6193 16.3867 62.9052 16.7237 63.0844 17.1504V13.528H65.2732V23H63.0844V21.7072C62.9052 22.1339 62.6193 22.4709 62.2268 22.7184C61.8343 22.9659 61.3649 23.0896 60.8188 23.0896C60.23 23.0896 59.7009 22.9445 59.2316 22.6544C58.7708 22.3557 58.4039 21.9291 58.1308 21.3744C57.8663 20.8197 57.734 20.1712 57.734 19.4288C57.734 18.6779 57.8663 18.0293 58.1308 17.4832C58.4039 16.9285 58.7708 16.5061 59.2316 16.216C59.7009 15.9173 60.23 15.768 60.8188 15.768ZM61.5228 17.688C61.0535 17.688 60.6737 17.8416 60.3836 18.1488C60.102 18.456 59.9612 18.8827 59.9612 19.4288C59.9612 19.9749 60.102 20.4016 60.3836 20.7088C60.6737 21.016 61.0535 21.1696 61.5228 21.1696C61.9836 21.1696 62.3591 21.0117 62.6492 20.696C62.9479 20.3803 63.0972 19.9579 63.0972 19.4288C63.0972 18.8912 62.9479 18.4688 62.6492 18.1616C62.3591 17.8459 61.9836 17.688 61.5228 17.688ZM69.4938 15.768C70.0399 15.768 70.5093 15.8917 70.9018 16.1392C71.2943 16.3867 71.5802 16.7237 71.7594 17.1504V13.528H73.9482V23H71.7594V21.7072C71.5802 22.1339 71.2943 22.4709 70.9018 22.7184C70.5093 22.9659 70.0399 23.0896 69.4938 23.0896C68.905 23.0896 68.3759 22.9445 67.9066 22.6544C67.4458 22.3557 67.0789 21.9291 66.8058 21.3744C66.5413 20.8197 66.409 20.1712 66.409 19.4288C66.409 18.6779 66.5413 18.0293 66.8058 17.4832C67.0789 16.9285 67.4458 16.5061 67.9066 16.216C68.3759 15.9173 68.905 15.768 69.4938 15.768ZM70.1978 17.688C69.7285 17.688 69.3487 17.8416 69.0586 18.1488C68.777 18.456 68.6362 18.8827 68.6362 19.4288C68.6362 19.9749 68.777 20.4016 69.0586 20.7088C69.3487 21.016 69.7285 21.1696 70.1978 21.1696C70.6586 21.1696 71.0341 21.0117 71.3242 20.696C71.6229 20.3803 71.7722 19.9579 71.7722 19.4288C71.7722 18.8912 71.6229 18.4688 71.3242 18.1616C71.0341 17.8459 70.6586 17.688 70.1978 17.688ZM82.1521 13.8608C83.3041 13.8608 84.2556 14.1637 85.0065 14.7696C85.766 15.3755 86.2566 16.1947 86.4785 17.2272H84.1617C83.991 16.8091 83.7265 16.4805 83.3681 16.2416C83.0182 16.0027 82.6001 15.8832 82.1137 15.8832C81.4737 15.8832 80.9574 16.1179 80.5649 16.5872C80.1724 17.0565 79.9761 17.6837 79.9761 18.4688C79.9761 19.2539 80.1724 19.8811 80.5649 20.3504C80.9574 20.8112 81.4737 21.0416 82.1137 21.0416C82.6001 21.0416 83.0182 20.9221 83.3681 20.6832C83.7265 20.4443 83.991 20.12 84.1617 19.7104H86.4785C86.2566 20.7344 85.766 21.5536 85.0065 22.168C84.2556 22.7739 83.3041 23.0768 82.1521 23.0768C81.2732 23.0768 80.5009 22.8848 79.8353 22.5008C79.1697 22.1083 78.6534 21.5621 78.2865 20.8624C77.9281 20.1627 77.7489 19.3648 77.7489 18.4688C77.7489 17.5728 77.9281 16.7749 78.2865 16.0752C78.6534 15.3755 79.1697 14.8336 79.8353 14.4496C80.5009 14.0571 81.2732 13.8608 82.1521 13.8608ZM90.4188 15.768C90.9649 15.768 91.4343 15.8917 91.8268 16.1392C92.2193 16.3867 92.5095 16.7237 92.6972 17.1504V15.8576H94.8732V23H92.6972V21.7072C92.5095 22.1339 92.2193 22.4709 91.8268 22.7184C91.4343 22.9659 90.9649 23.0896 90.4188 23.0896C89.83 23.0896 89.3009 22.9445 88.8316 22.6544C88.3708 22.3557 88.0039 21.9291 87.7308 21.3744C87.4663 20.8197 87.334 20.1712 87.334 19.4288C87.334 18.6779 87.4663 18.0293 87.7308 17.4832C88.0039 16.9285 88.3708 16.5061 88.8316 16.216C89.3009 15.9173 89.83 15.768 90.4188 15.768ZM91.1228 17.688C90.6535 17.688 90.2737 17.8416 89.9836 18.1488C89.702 18.456 89.5612 18.8827 89.5612 19.4288C89.5612 19.9749 89.702 20.4016 89.9836 20.7088C90.2737 21.016 90.6535 21.1696 91.1228 21.1696C91.5836 21.1696 91.9591 21.0117 92.2492 20.696C92.5479 20.3803 92.6972 19.9579 92.6972 19.4288C92.6972 18.8912 92.5479 18.4688 92.2492 18.1616C91.9591 17.8459 91.5836 17.688 91.1228 17.688ZM98.9786 15.768C99.8831 15.768 100.604 15.9941 101.142 16.4464C101.688 16.8987 102.029 17.496 102.166 18.2384H100.118C100.058 17.9483 99.9215 17.7221 99.7082 17.56C99.5034 17.3893 99.2431 17.304 98.9274 17.304C98.6799 17.304 98.4922 17.3595 98.3642 17.4704C98.2362 17.5728 98.1722 17.7221 98.1722 17.9184C98.1722 18.1403 98.2874 18.3067 98.5178 18.4176C98.7567 18.5285 99.1279 18.6395 99.6314 18.7504C100.178 18.8784 100.626 19.0107 100.975 19.1472C101.325 19.2752 101.628 19.4885 101.884 19.7872C102.14 20.0859 102.268 20.4869 102.268 20.9904C102.268 21.4 102.157 21.7627 101.935 22.0784C101.714 22.3941 101.394 22.6416 100.975 22.8208C100.557 23 100.062 23.0896 99.4906 23.0896C98.5263 23.0896 97.7541 22.8763 97.1738 22.4496C96.5935 22.0229 96.2394 21.4128 96.1114 20.6192H98.2234C98.2575 20.9264 98.3855 21.1611 98.6074 21.3232C98.8378 21.4853 99.1322 21.5664 99.4906 21.5664C99.7381 21.5664 99.9258 21.5109 100.054 21.4C100.182 21.2805 100.246 21.1269 100.246 20.9392C100.246 20.6917 100.126 20.5168 99.8874 20.4144C99.657 20.3035 99.2773 20.1883 98.7482 20.0688C98.2191 19.9579 97.7839 19.8384 97.4426 19.7104C97.1013 19.5824 96.8069 19.3776 96.5594 19.096C96.3119 18.8059 96.1882 18.4133 96.1882 17.9184C96.1882 17.2784 96.4314 16.7621 96.9178 16.3696C97.4042 15.9685 98.0911 15.768 98.9786 15.768ZM110.264 19.2368C110.264 19.416 110.243 19.6123 110.2 19.8256H105.247C105.272 20.3632 105.409 20.7515 105.656 20.9904C105.904 21.2208 106.219 21.336 106.603 21.336C106.928 21.336 107.196 21.2549 107.41 21.0928C107.623 20.9307 107.764 20.7216 107.832 20.4656H110.149C110.055 20.9691 109.85 21.4213 109.535 21.8224C109.219 22.2149 108.818 22.5264 108.331 22.7568C107.845 22.9787 107.303 23.0896 106.706 23.0896C106.006 23.0896 105.383 22.9445 104.837 22.6544C104.299 22.3557 103.877 21.9291 103.57 21.3744C103.263 20.8197 103.109 20.1712 103.109 19.4288C103.109 18.6779 103.258 18.0293 103.557 17.4832C103.864 16.9285 104.291 16.5061 104.837 16.216C105.383 15.9173 106.006 15.768 106.706 15.768C107.414 15.768 108.037 15.9131 108.575 16.2032C109.112 16.4933 109.526 16.9029 109.816 17.432C110.115 17.9525 110.264 18.5541 110.264 19.2368ZM108.05 18.904C108.058 18.4347 107.93 18.0848 107.666 17.8544C107.41 17.6155 107.09 17.496 106.706 17.496C106.305 17.496 105.972 17.6155 105.707 17.8544C105.443 18.0933 105.294 18.4432 105.259 18.904H108.05ZM120.47 13.9504V15.6912H118.013V23H115.811V15.6912H113.379V13.9504H120.47ZM123.044 15.8576L124.759 20.2352L126.359 15.8576H128.778L124.324 26.4048H121.918L123.594 22.7312L120.599 15.8576H123.044ZM133.96 15.768C134.548 15.768 135.073 15.9173 135.534 16.216C136.003 16.5061 136.37 16.9285 136.635 17.4832C136.908 18.0293 137.044 18.6779 137.044 19.4288C137.044 20.1712 136.908 20.8197 136.635 21.3744C136.37 21.9291 136.003 22.3557 135.534 22.6544C135.073 22.9445 134.548 23.0896 133.96 23.0896C133.413 23.0896 132.944 22.9659 132.552 22.7184C132.159 22.4709 131.873 22.1339 131.694 21.7072V26.4048H129.505V15.8576H131.694V17.1504C131.873 16.7237 132.159 16.3867 132.552 16.1392C132.944 15.8917 133.413 15.768 133.96 15.768ZM133.256 17.688C132.795 17.688 132.415 17.8459 132.116 18.1616C131.826 18.4688 131.681 18.8912 131.681 19.4288C131.681 19.9579 131.826 20.3803 132.116 20.696C132.415 21.0117 132.795 21.1696 133.256 21.1696C133.725 21.1696 134.1 21.016 134.382 20.7088C134.672 20.4016 134.817 19.9749 134.817 19.4288C134.817 18.8827 134.672 18.456 134.382 18.1488C134.1 17.8416 133.725 17.688 133.256 17.688ZM144.964 19.2368C144.964 19.416 144.943 19.6123 144.9 19.8256H139.947C139.972 20.3632 140.109 20.7515 140.356 20.9904C140.604 21.2208 140.919 21.336 141.303 21.336C141.628 21.336 141.896 21.2549 142.11 21.0928C142.323 20.9307 142.464 20.7216 142.532 20.4656H144.849C144.755 20.9691 144.55 21.4213 144.235 21.8224C143.919 22.2149 143.518 22.5264 143.031 22.7568C142.545 22.9787 142.003 23.0896 141.406 23.0896C140.706 23.0896 140.083 22.9445 139.537 22.6544C138.999 22.3557 138.577 21.9291 138.27 21.3744C137.963 20.8197 137.809 20.1712 137.809 19.4288C137.809 18.6779 137.958 18.0293 138.257 17.4832C138.564 16.9285 138.991 16.5061 139.537 16.216C140.083 15.9173 140.706 15.768 141.406 15.768C142.114 15.768 142.737 15.9131 143.275 16.2032C143.812 16.4933 144.226 16.9029 144.516 17.432C144.815 17.9525 144.964 18.5541 144.964 19.2368ZM142.75 18.904C142.758 18.4347 142.63 18.0848 142.366 17.8544C142.11 17.6155 141.79 17.496 141.406 17.496C141.005 17.496 140.672 17.6155 140.407 17.8544C140.143 18.0933 139.994 18.4432 139.959 18.904H142.75Z" fill="#F2F2F2"/>
</svg>
