<svg width="195" height="37" viewBox="0 0 195 37" fill="none" xmlns="http://www.w3.org/2000/svg">
<rect width="194.191" height="37" rx="4" fill="#C8AC48"/>
<mask id="mask0" mask-type="alpha" maskUnits="userSpaceOnUse" x="0" y="0" width="195" height="37">
<rect width="194.191" height="37" rx="4" fill="#A68C2F"/>
</mask>
<g mask="url(#mask0)">
<path d="M138.924 0L55.8394 37H194.191V0H138.924Z" fill="#B89D3B"/>
</g>
<path d="M39.3616 21.3488H35.9696L35.4064 23H33.1024L36.4176 14.0144H38.9392L42.2544 23H39.9248L39.3616 21.3488ZM38.7984 19.6848L37.672 16.3568L36.5328 19.6848H38.7984ZM45.8188 15.768C46.3649 15.768 46.8343 15.8917 47.2268 16.1392C47.6193 16.3867 47.9052 16.7237 48.0844 17.1504V13.528H50.2732V23H48.0844V21.7072C47.9052 22.1339 47.6193 22.4709 47.2268 22.7184C46.8343 22.9659 46.3649 23.0896 45.8188 23.0896C45.23 23.0896 44.7009 22.9445 44.2316 22.6544C43.7708 22.3557 43.4039 21.9291 43.1308 21.3744C42.8663 20.8197 42.734 20.1712 42.734 19.4288C42.734 18.6779 42.8663 18.0293 43.1308 17.4832C43.4039 16.9285 43.7708 16.5061 44.2316 16.216C44.7009 15.9173 45.23 15.768 45.8188 15.768ZM46.5228 17.688C46.0535 17.688 45.6737 17.8416 45.3836 18.1488C45.102 18.456 44.9612 18.8827 44.9612 19.4288C44.9612 19.9749 45.102 20.4016 45.3836 20.7088C45.6737 21.016 46.0535 21.1696 46.5228 21.1696C46.9836 21.1696 47.3591 21.0117 47.6492 20.696C47.9479 20.3803 48.0972 19.9579 48.0972 19.4288C48.0972 18.8912 47.9479 18.4688 47.6492 18.1616C47.3591 17.8459 46.9836 17.688 46.5228 17.688ZM54.4938 15.768C55.0399 15.768 55.5093 15.8917 55.9018 16.1392C56.2943 16.3867 56.5802 16.7237 56.7594 17.1504V13.528H58.9482V23H56.7594V21.7072C56.5802 22.1339 56.2943 22.4709 55.9018 22.7184C55.5093 22.9659 55.0399 23.0896 54.4938 23.0896C53.905 23.0896 53.3759 22.9445 52.9066 22.6544C52.4458 22.3557 52.0789 21.9291 51.8058 21.3744C51.5413 20.8197 51.409 20.1712 51.409 19.4288C51.409 18.6779 51.5413 18.0293 51.8058 17.4832C52.0789 16.9285 52.4458 16.5061 52.9066 16.216C53.3759 15.9173 53.905 15.768 54.4938 15.768ZM55.1978 17.688C54.7285 17.688 54.3487 17.8416 54.0586 18.1488C53.777 18.456 53.6362 18.8827 53.6362 19.4288C53.6362 19.9749 53.777 20.4016 54.0586 20.7088C54.3487 21.016 54.7285 21.1696 55.1978 21.1696C55.6586 21.1696 56.0341 21.0117 56.3242 20.696C56.6229 20.3803 56.7722 19.9579 56.7722 19.4288C56.7722 18.8912 56.6229 18.4688 56.3242 18.1616C56.0341 17.8459 55.6586 17.688 55.1978 17.688ZM67.1521 13.8608C68.3041 13.8608 69.2556 14.1637 70.0065 14.7696C70.766 15.3755 71.2566 16.1947 71.4785 17.2272H69.1617C68.991 16.8091 68.7265 16.4805 68.3681 16.2416C68.0182 16.0027 67.6001 15.8832 67.1137 15.8832C66.4737 15.8832 65.9574 16.1179 65.5649 16.5872C65.1724 17.0565 64.9761 17.6837 64.9761 18.4688C64.9761 19.2539 65.1724 19.8811 65.5649 20.3504C65.9574 20.8112 66.4737 21.0416 67.1137 21.0416C67.6001 21.0416 68.0182 20.9221 68.3681 20.6832C68.7265 20.4443 68.991 20.12 69.1617 19.7104H71.4785C71.2566 20.7344 70.766 21.5536 70.0065 22.168C69.2556 22.7739 68.3041 23.0768 67.1521 23.0768C66.2732 23.0768 65.5009 22.8848 64.8353 22.5008C64.1697 22.1083 63.6534 21.5621 63.2865 20.8624C62.9281 20.1627 62.7489 19.3648 62.7489 18.4688C62.7489 17.5728 62.9281 16.7749 63.2865 16.0752C63.6534 15.3755 64.1697 14.8336 64.8353 14.4496C65.5009 14.0571 66.2732 13.8608 67.1521 13.8608ZM75.4188 15.768C75.9649 15.768 76.4343 15.8917 76.8268 16.1392C77.2193 16.3867 77.5095 16.7237 77.6972 17.1504V15.8576H79.8732V23H77.6972V21.7072C77.5095 22.1339 77.2193 22.4709 76.8268 22.7184C76.4343 22.9659 75.9649 23.0896 75.4188 23.0896C74.83 23.0896 74.3009 22.9445 73.8316 22.6544C73.3708 22.3557 73.0039 21.9291 72.7308 21.3744C72.4663 20.8197 72.334 20.1712 72.334 19.4288C72.334 18.6779 72.4663 18.0293 72.7308 17.4832C73.0039 16.9285 73.3708 16.5061 73.8316 16.216C74.3009 15.9173 74.83 15.768 75.4188 15.768ZM76.1228 17.688C75.6535 17.688 75.2737 17.8416 74.9836 18.1488C74.702 18.456 74.5612 18.8827 74.5612 19.4288C74.5612 19.9749 74.702 20.4016 74.9836 20.7088C75.2737 21.016 75.6535 21.1696 76.1228 21.1696C76.5836 21.1696 76.9591 21.0117 77.2492 20.696C77.5479 20.3803 77.6972 19.9579 77.6972 19.4288C77.6972 18.8912 77.5479 18.4688 77.2492 18.1616C76.9591 17.8459 76.5836 17.688 76.1228 17.688ZM83.9786 15.768C84.8831 15.768 85.6042 15.9941 86.1418 16.4464C86.6879 16.8987 87.0293 17.496 87.1658 18.2384H85.1178C85.0581 17.9483 84.9215 17.7221 84.7082 17.56C84.5034 17.3893 84.2431 17.304 83.9274 17.304C83.6799 17.304 83.4922 17.3595 83.3642 17.4704C83.2362 17.5728 83.1722 17.7221 83.1722 17.9184C83.1722 18.1403 83.2874 18.3067 83.5178 18.4176C83.7567 18.5285 84.1279 18.6395 84.6314 18.7504C85.1775 18.8784 85.6255 19.0107 85.9754 19.1472C86.3253 19.2752 86.6282 19.4885 86.8842 19.7872C87.1402 20.0859 87.2682 20.4869 87.2682 20.9904C87.2682 21.4 87.1573 21.7627 86.9354 22.0784C86.7135 22.3941 86.3935 22.6416 85.9754 22.8208C85.5573 23 85.0623 23.0896 84.4906 23.0896C83.5263 23.0896 82.7541 22.8763 82.1738 22.4496C81.5935 22.0229 81.2394 21.4128 81.1114 20.6192H83.2234C83.2575 20.9264 83.3855 21.1611 83.6074 21.3232C83.8378 21.4853 84.1322 21.5664 84.4906 21.5664C84.7381 21.5664 84.9258 21.5109 85.0538 21.4C85.1818 21.2805 85.2458 21.1269 85.2458 20.9392C85.2458 20.6917 85.1263 20.5168 84.8874 20.4144C84.657 20.3035 84.2773 20.1883 83.7482 20.0688C83.2191 19.9579 82.7839 19.8384 82.4426 19.7104C82.1013 19.5824 81.8069 19.3776 81.5594 19.096C81.3119 18.8059 81.1882 18.4133 81.1882 17.9184C81.1882 17.2784 81.4314 16.7621 81.9178 16.3696C82.4042 15.9685 83.0911 15.768 83.9786 15.768ZM95.2642 19.2368C95.2642 19.416 95.2429 19.6123 95.2002 19.8256H90.2466C90.2722 20.3632 90.4087 20.7515 90.6562 20.9904C90.9037 21.2208 91.2194 21.336 91.6034 21.336C91.9277 21.336 92.1965 21.2549 92.4098 21.0928C92.6231 20.9307 92.7639 20.7216 92.8322 20.4656H95.149C95.0551 20.9691 94.8503 21.4213 94.5346 21.8224C94.2189 22.2149 93.8178 22.5264 93.3314 22.7568C92.845 22.9787 92.3031 23.0896 91.7058 23.0896C91.0061 23.0896 90.3831 22.9445 89.837 22.6544C89.2994 22.3557 88.877 21.9291 88.5698 21.3744C88.2626 20.8197 88.109 20.1712 88.109 19.4288C88.109 18.6779 88.2583 18.0293 88.557 17.4832C88.8642 16.9285 89.2909 16.5061 89.837 16.216C90.3831 15.9173 91.0061 15.768 91.7058 15.768C92.4141 15.768 93.037 15.9131 93.5746 16.2032C94.1122 16.4933 94.5261 16.9029 94.8162 17.432C95.1149 17.9525 95.2642 18.5541 95.2642 19.2368ZM93.0498 18.904C93.0583 18.4347 92.9303 18.0848 92.6658 17.8544C92.4098 17.6155 92.0898 17.496 91.7058 17.496C91.3047 17.496 90.9719 17.6155 90.7074 17.8544C90.4429 18.0933 90.2935 18.4432 90.2594 18.904H93.0498ZM103.102 13.8608C104.254 13.8608 105.206 14.1637 105.957 14.7696C106.716 15.3755 107.207 16.1947 107.429 17.2272H105.112C104.941 16.8091 104.677 16.4805 104.318 16.2416C103.968 16.0027 103.55 15.8832 103.064 15.8832C102.424 15.8832 101.907 16.1179 101.515 16.5872C101.122 17.0565 100.926 17.6837 100.926 18.4688C100.926 19.2539 101.122 19.8811 101.515 20.3504C101.907 20.8112 102.424 21.0416 103.064 21.0416C103.55 21.0416 103.968 20.9221 104.318 20.6832C104.677 20.4443 104.941 20.12 105.112 19.7104H107.429C107.207 20.7344 106.716 21.5536 105.957 22.168C105.206 22.7739 104.254 23.0768 103.102 23.0768C102.223 23.0768 101.451 22.8848 100.785 22.5008C100.12 22.1083 99.6034 21.5621 99.2365 20.8624C98.8781 20.1627 98.6989 19.3648 98.6989 18.4688C98.6989 17.5728 98.8781 16.7749 99.2365 16.0752C99.6034 15.3755 100.12 14.8336 100.785 14.4496C101.451 14.0571 102.223 13.8608 103.102 13.8608ZM111.369 15.768C111.915 15.768 112.384 15.8917 112.777 16.1392C113.169 16.3867 113.459 16.7237 113.647 17.1504V15.8576H115.823V23H113.647V21.7072C113.459 22.1339 113.169 22.4709 112.777 22.7184C112.384 22.9659 111.915 23.0896 111.369 23.0896C110.78 23.0896 110.251 22.9445 109.782 22.6544C109.321 22.3557 108.954 21.9291 108.681 21.3744C108.416 20.8197 108.284 20.1712 108.284 19.4288C108.284 18.6779 108.416 18.0293 108.681 17.4832C108.954 16.9285 109.321 16.5061 109.782 16.216C110.251 15.9173 110.78 15.768 111.369 15.768ZM112.073 17.688C111.603 17.688 111.224 17.8416 110.934 18.1488C110.652 18.456 110.511 18.8827 110.511 19.4288C110.511 19.9749 110.652 20.4016 110.934 20.7088C111.224 21.016 111.603 21.1696 112.073 21.1696C112.534 21.1696 112.909 21.0117 113.199 20.696C113.498 20.3803 113.647 19.9579 113.647 19.4288C113.647 18.8912 113.498 18.4688 113.199 18.1616C112.909 17.8459 112.534 17.688 112.073 17.688ZM121.375 21.1184V23H120.389C119.553 23 118.9 22.7952 118.431 22.3856C117.97 21.9675 117.74 21.2805 117.74 20.3248V17.7008H116.78V15.8576H117.74V14.104H119.929V15.8576H121.362V17.7008H119.929V20.3632C119.929 20.6448 119.984 20.8411 120.095 20.952C120.214 21.0629 120.411 21.1184 120.684 21.1184H121.375ZM129.389 19.2368C129.389 19.416 129.368 19.6123 129.325 19.8256H124.372C124.397 20.3632 124.534 20.7515 124.781 20.9904C125.029 21.2208 125.344 21.336 125.728 21.336C126.053 21.336 126.321 21.2549 126.535 21.0928C126.748 20.9307 126.889 20.7216 126.957 20.4656H129.274C129.18 20.9691 128.975 21.4213 128.66 21.8224C128.344 22.2149 127.943 22.5264 127.456 22.7568C126.97 22.9787 126.428 23.0896 125.831 23.0896C125.131 23.0896 124.508 22.9445 123.962 22.6544C123.424 22.3557 123.002 21.9291 122.695 21.3744C122.388 20.8197 122.234 20.1712 122.234 19.4288C122.234 18.6779 122.383 18.0293 122.682 17.4832C122.989 16.9285 123.416 16.5061 123.962 16.216C124.508 15.9173 125.131 15.768 125.831 15.768C126.539 15.768 127.162 15.9131 127.7 16.2032C128.237 16.4933 128.651 16.9029 128.941 17.432C129.24 17.9525 129.389 18.5541 129.389 19.2368ZM127.175 18.904C127.183 18.4347 127.055 18.0848 126.791 17.8544C126.535 17.6155 126.215 17.496 125.831 17.496C125.43 17.496 125.097 17.6155 124.832 17.8544C124.568 18.0933 124.419 18.4432 124.384 18.904H127.175ZM133.244 15.768C133.79 15.768 134.259 15.8917 134.652 16.1392C135.044 16.3867 135.334 16.7237 135.522 17.1504V15.8576H137.698V22.9616C137.698 23.6272 137.57 24.2245 137.314 24.7536C137.058 25.2912 136.666 25.7179 136.137 26.0336C135.608 26.3493 134.95 26.5072 134.165 26.5072C133.09 26.5072 132.228 26.2512 131.58 25.7392C130.94 25.2357 130.556 24.5488 130.428 23.6784H132.591C132.659 23.9685 132.813 24.1947 133.052 24.3568C133.299 24.5189 133.619 24.6 134.012 24.6C134.464 24.6 134.827 24.4677 135.1 24.2032C135.381 23.9472 135.522 23.5333 135.522 22.9616V21.7072C135.334 22.1339 135.044 22.4709 134.652 22.7184C134.259 22.9659 133.79 23.0896 133.244 23.0896C132.655 23.0896 132.126 22.9445 131.657 22.6544C131.196 22.3557 130.829 21.9291 130.556 21.3744C130.291 20.8197 130.159 20.1712 130.159 19.4288C130.159 18.6779 130.291 18.0293 130.556 17.4832C130.829 16.9285 131.196 16.5061 131.657 16.216C132.126 15.9173 132.655 15.768 133.244 15.768ZM133.948 17.688C133.478 17.688 133.099 17.8416 132.809 18.1488C132.527 18.456 132.386 18.8827 132.386 19.4288C132.386 19.9749 132.527 20.4016 132.809 20.7088C133.099 21.016 133.478 21.1696 133.948 21.1696C134.409 21.1696 134.784 21.0117 135.074 20.696C135.373 20.3803 135.522 19.9579 135.522 19.4288C135.522 18.8912 135.373 18.4688 135.074 18.1616C134.784 17.8459 134.409 17.688 133.948 17.688ZM142.546 15.768C143.254 15.768 143.886 15.9173 144.44 16.216C145.004 16.5061 145.443 16.9285 145.759 17.4832C146.083 18.0379 146.245 18.6864 146.245 19.4288C146.245 20.1712 146.083 20.8197 145.759 21.3744C145.443 21.9291 145.004 22.3557 144.44 22.6544C143.886 22.9445 143.254 23.0896 142.546 23.0896C141.838 23.0896 141.202 22.9445 140.639 22.6544C140.076 22.3557 139.632 21.9291 139.308 21.3744C138.992 20.8197 138.834 20.1712 138.834 19.4288C138.834 18.6864 138.992 18.0379 139.308 17.4832C139.632 16.9285 140.076 16.5061 140.639 16.216C141.202 15.9173 141.838 15.768 142.546 15.768ZM142.546 17.6624C142.128 17.6624 141.774 17.816 141.484 18.1232C141.202 18.4219 141.061 18.8571 141.061 19.4288C141.061 20.0005 141.202 20.4357 141.484 20.7344C141.774 21.0331 142.128 21.1824 142.546 21.1824C142.964 21.1824 143.314 21.0331 143.596 20.7344C143.877 20.4357 144.018 20.0005 144.018 19.4288C144.018 18.8571 143.877 18.4219 143.596 18.1232C143.314 17.816 142.964 17.6624 142.546 17.6624ZM149.569 17.2016C149.842 16.7664 150.192 16.4208 150.619 16.1648C151.054 15.9088 151.523 15.7808 152.027 15.7808V18.1232H151.399C150.819 18.1232 150.367 18.2469 150.043 18.4944C149.727 18.7419 149.569 19.16 149.569 19.7488V23H147.38V15.8576H149.569V17.2016ZM154.594 15.8576L156.309 20.2352L157.909 15.8576H160.328L155.874 26.4048H153.468L155.144 22.7312L152.149 15.8576H154.594Z" fill="#F2F2F2"/>
</svg>
