<svg width="195" height="37" viewBox="0 0 195 37" fill="none" xmlns="http://www.w3.org/2000/svg">
<rect width="194.191" height="37" rx="4" fill="#C8AC48"/>
<mask id="mask0" mask-type="alpha" maskUnits="userSpaceOnUse" x="0" y="0" width="195" height="37">
<rect width="194.191" height="37" rx="4" fill="#A68C2F"/>
</mask>
<g mask="url(#mask0)">
<path d="M138.924 0L55.8394 37H194.191V0H138.924Z" fill="#B89D3B"/>
</g>
<path d="M53.3872 21.4128H50.0336L49.496 23H47.2048L50.456 14.0144H52.9904L56.2416 23H53.9248L53.3872 21.4128ZM52.824 19.7232L51.7104 16.4336L50.6096 19.7232H52.824ZM56.7959 19.416C56.7959 18.6821 56.9324 18.0379 57.2055 17.4832C57.4871 16.9285 57.8668 16.5019 58.3447 16.2032C58.8226 15.9045 59.3559 15.7552 59.9447 15.7552C60.414 15.7552 60.8407 15.8533 61.2247 16.0496C61.6172 16.2459 61.9244 16.5104 62.1463 16.8432V13.528H64.3351V23H62.1463V21.976C61.9415 22.3173 61.6471 22.5904 61.2631 22.7952C60.8876 23 60.4482 23.1024 59.9447 23.1024C59.3559 23.1024 58.8226 22.9531 58.3447 22.6544C57.8668 22.3472 57.4871 21.9163 57.2055 21.3616C56.9324 20.7984 56.7959 20.1499 56.7959 19.416ZM62.1463 19.4288C62.1463 18.8827 61.9927 18.4517 61.6855 18.136C61.3868 17.8203 61.0199 17.6624 60.5847 17.6624C60.1495 17.6624 59.7783 17.8203 59.4711 18.136C59.1724 18.4432 59.0231 18.8699 59.0231 19.416C59.0231 19.9621 59.1724 20.3973 59.4711 20.7216C59.7783 21.0373 60.1495 21.1952 60.5847 21.1952C61.0199 21.1952 61.3868 21.0373 61.6855 20.7216C61.9927 20.4059 62.1463 19.9749 62.1463 19.4288ZM65.4834 19.416C65.4834 18.6821 65.6199 18.0379 65.893 17.4832C66.1746 16.9285 66.5543 16.5019 67.0322 16.2032C67.5101 15.9045 68.0434 15.7552 68.6322 15.7552C69.1015 15.7552 69.5282 15.8533 69.9122 16.0496C70.3047 16.2459 70.6119 16.5104 70.8338 16.8432V13.528H73.0226V23H70.8338V21.976C70.629 22.3173 70.3346 22.5904 69.9506 22.7952C69.5751 23 69.1357 23.1024 68.6322 23.1024C68.0434 23.1024 67.5101 22.9531 67.0322 22.6544C66.5543 22.3472 66.1746 21.9163 65.893 21.3616C65.6199 20.7984 65.4834 20.1499 65.4834 19.416ZM70.8338 19.4288C70.8338 18.8827 70.6802 18.4517 70.373 18.136C70.0743 17.8203 69.7074 17.6624 69.2722 17.6624C68.837 17.6624 68.4658 17.8203 68.1586 18.136C67.8599 18.4432 67.7106 18.8699 67.7106 19.416C67.7106 19.9621 67.8599 20.3973 68.1586 20.7216C68.4658 21.0373 68.837 21.1952 69.2722 21.1952C69.7074 21.1952 70.0743 21.0373 70.373 20.7216C70.6802 20.4059 70.8338 19.9749 70.8338 19.4288ZM84.1666 16.9072C84.1666 17.4277 84.0471 17.9056 83.8082 18.3408C83.5693 18.7675 83.2023 19.1131 82.7074 19.3776C82.2125 19.6421 81.5981 19.7744 80.8642 19.7744H79.5074V23H77.3186V14.0144H80.8642C81.581 14.0144 82.1869 14.1381 82.6818 14.3856C83.1767 14.6331 83.5479 14.9744 83.7954 15.4096C84.0429 15.8448 84.1666 16.344 84.1666 16.9072ZM80.6978 18.0336C81.1159 18.0336 81.4274 17.9355 81.6322 17.7392C81.837 17.5429 81.9394 17.2656 81.9394 16.9072C81.9394 16.5488 81.837 16.2715 81.6322 16.0752C81.4274 15.8789 81.1159 15.7808 80.6978 15.7808H79.5074V18.0336H80.6978ZM88.5573 23.1024C87.8576 23.1024 87.2261 22.9531 86.6629 22.6544C86.1082 22.3557 85.6688 21.9291 85.3445 21.3744C85.0288 20.8197 84.8709 20.1712 84.8709 19.4288C84.8709 18.6949 85.033 18.0507 85.3573 17.496C85.6816 16.9328 86.1253 16.5019 86.6885 16.2032C87.2517 15.9045 87.8832 15.7552 88.5829 15.7552C89.2826 15.7552 89.9141 15.9045 90.4773 16.2032C91.0405 16.5019 91.4842 16.9328 91.8085 17.496C92.1328 18.0507 92.2949 18.6949 92.2949 19.4288C92.2949 20.1627 92.1285 20.8112 91.7957 21.3744C91.4714 21.9291 91.0234 22.3557 90.4517 22.6544C89.8885 22.9531 89.257 23.1024 88.5573 23.1024ZM88.5573 21.208C88.9754 21.208 89.3296 21.0544 89.6197 20.7472C89.9184 20.44 90.0677 20.0005 90.0677 19.4288C90.0677 18.8571 89.9226 18.4176 89.6325 18.1104C89.3509 17.8032 89.001 17.6496 88.5829 17.6496C88.1562 17.6496 87.8021 17.8032 87.5205 18.1104C87.2389 18.4091 87.0981 18.8485 87.0981 19.4288C87.0981 20.0005 87.2346 20.44 87.5077 20.7472C87.7893 21.0544 88.1392 21.208 88.5573 21.208ZM96.3617 23.1024C95.7388 23.1024 95.1841 22.9957 94.6977 22.7824C94.2113 22.5691 93.8273 22.2789 93.5457 21.912C93.2641 21.5365 93.1062 21.1184 93.0721 20.6576H95.2353C95.2609 20.9051 95.3761 21.1056 95.5809 21.2592C95.7857 21.4128 96.0374 21.4896 96.3361 21.4896C96.6092 21.4896 96.8182 21.4384 96.9633 21.336C97.1169 21.2251 97.1937 21.0843 97.1937 20.9136C97.1937 20.7088 97.087 20.5595 96.8737 20.4656C96.6604 20.3632 96.3148 20.2523 95.8369 20.1328C95.3249 20.0133 94.8982 19.8896 94.5569 19.7616C94.2156 19.6251 93.9212 19.416 93.6737 19.1344C93.4262 18.8443 93.3025 18.456 93.3025 17.9696C93.3025 17.56 93.4134 17.1888 93.6353 16.856C93.8657 16.5147 94.1985 16.2459 94.6337 16.0496C95.0774 15.8533 95.6022 15.7552 96.2081 15.7552C97.1041 15.7552 97.8081 15.9771 98.3201 16.4208C98.8406 16.8645 99.1393 17.4533 99.2161 18.1872H97.1937C97.1596 17.9397 97.0486 17.7435 96.8609 17.5984C96.6817 17.4533 96.4428 17.3808 96.1441 17.3808C95.8881 17.3808 95.6918 17.432 95.5553 17.5344C95.4188 17.6283 95.3505 17.7605 95.3505 17.9312C95.3505 18.136 95.4572 18.2896 95.6705 18.392C95.8924 18.4944 96.2337 18.5968 96.6945 18.6992C97.2236 18.8357 97.6545 18.9723 97.9873 19.1088C98.3201 19.2368 98.6102 19.4501 98.8577 19.7488C99.1137 20.0389 99.246 20.4315 99.2545 20.9264C99.2545 21.3445 99.135 21.72 98.8961 22.0528C98.6657 22.3771 98.3286 22.6331 97.8849 22.8208C97.4497 23.0085 96.942 23.1024 96.3617 23.1024ZM104.574 21.144V23H103.461C102.667 23 102.049 22.808 101.605 22.424C101.161 22.0315 100.939 21.3957 100.939 20.5168V17.6752H100.069V15.8576H100.939V14.1168H103.128V15.8576H104.562V17.6752H103.128V20.5424C103.128 20.7557 103.179 20.9093 103.282 21.0032C103.384 21.0971 103.555 21.144 103.794 21.144H104.574ZM112.756 23.0896C111.911 23.0896 111.134 22.8933 110.426 22.5008C109.726 22.1083 109.167 21.5621 108.749 20.8624C108.34 20.1541 108.135 19.3605 108.135 18.4816C108.135 17.6027 108.34 16.8133 108.749 16.1136C109.167 15.4139 109.726 14.8677 110.426 14.4752C111.134 14.0827 111.911 13.8864 112.756 13.8864C113.601 13.8864 114.373 14.0827 115.073 14.4752C115.781 14.8677 116.335 15.4139 116.737 16.1136C117.146 16.8133 117.351 17.6027 117.351 18.4816C117.351 19.3605 117.146 20.1541 116.737 20.8624C116.327 21.5621 115.772 22.1083 115.073 22.5008C114.373 22.8933 113.601 23.0896 112.756 23.0896ZM112.756 21.0928C113.473 21.0928 114.044 20.8539 114.471 20.376C114.906 19.8981 115.124 19.2667 115.124 18.4816C115.124 17.688 114.906 17.0565 114.471 16.5872C114.044 16.1093 113.473 15.8704 112.756 15.8704C112.03 15.8704 111.45 16.1051 111.015 16.5744C110.588 17.0437 110.375 17.6795 110.375 18.4816C110.375 19.2752 110.588 19.9109 111.015 20.3888C111.45 20.8581 112.03 21.0928 112.756 21.0928ZM122.153 17.6752H120.975V23H118.786V17.6752H117.993V15.8576H118.786V15.6528C118.786 14.7739 119.038 14.1083 119.541 13.656C120.045 13.1952 120.783 12.9648 121.756 12.9648C121.918 12.9648 122.037 12.9691 122.114 12.9776V14.8336C121.696 14.808 121.402 14.8677 121.231 15.0128C121.06 15.1579 120.975 15.4181 120.975 15.7936V15.8576H122.153V17.6752ZM126.765 17.6752H125.588V23H123.399V17.6752H122.605V15.8576H123.399V15.6528C123.399 14.7739 123.65 14.1083 124.154 13.656C124.657 13.1952 125.396 12.9648 126.368 12.9648C126.53 12.9648 126.65 12.9691 126.727 12.9776V14.8336C126.309 14.808 126.014 14.8677 125.844 15.0128C125.673 15.1579 125.588 15.4181 125.588 15.7936V15.8576H126.765V17.6752ZM128.894 15.1152C128.51 15.1152 128.195 15.0043 127.947 14.7824C127.708 14.552 127.589 14.2704 127.589 13.9376C127.589 13.5963 127.708 13.3147 127.947 13.0928C128.195 12.8624 128.51 12.7472 128.894 12.7472C129.27 12.7472 129.577 12.8624 129.816 13.0928C130.063 13.3147 130.187 13.5963 130.187 13.9376C130.187 14.2704 130.063 14.552 129.816 14.7824C129.577 15.0043 129.27 15.1152 128.894 15.1152ZM129.982 15.8576V23H127.794V15.8576H129.982ZM131.133 19.4288C131.133 18.6864 131.283 18.0379 131.581 17.4832C131.889 16.9285 132.311 16.5019 132.849 16.2032C133.395 15.9045 134.018 15.7552 134.717 15.7552C135.613 15.7552 136.36 15.9899 136.957 16.4592C137.563 16.9285 137.96 17.5899 138.148 18.4432H135.818C135.622 17.8971 135.242 17.624 134.679 17.624C134.278 17.624 133.958 17.7819 133.719 18.0976C133.48 18.4048 133.361 18.8485 133.361 19.4288C133.361 20.0091 133.48 20.4571 133.719 20.7728C133.958 21.08 134.278 21.2336 134.679 21.2336C135.242 21.2336 135.622 20.9605 135.818 20.4144H138.148C137.96 21.2507 137.563 21.9077 136.957 22.3856C136.352 22.8635 135.605 23.1024 134.717 23.1024C134.018 23.1024 133.395 22.9531 132.849 22.6544C132.311 22.3557 131.889 21.9291 131.581 21.3744C131.283 20.8197 131.133 20.1712 131.133 19.4288ZM146.051 19.3136C146.051 19.5184 146.039 19.7317 146.013 19.9536H141.059C141.094 20.3973 141.234 20.7387 141.482 20.9776C141.738 21.208 142.049 21.3232 142.416 21.3232C142.962 21.3232 143.342 21.0928 143.555 20.632H145.885C145.766 21.1013 145.548 21.5237 145.232 21.8992C144.925 22.2747 144.537 22.5691 144.067 22.7824C143.598 22.9957 143.073 23.1024 142.493 23.1024C141.793 23.1024 141.17 22.9531 140.624 22.6544C140.078 22.3557 139.651 21.9291 139.344 21.3744C139.037 20.8197 138.883 20.1712 138.883 19.4288C138.883 18.6864 139.033 18.0379 139.331 17.4832C139.639 16.9285 140.065 16.5019 140.611 16.2032C141.158 15.9045 141.785 15.7552 142.493 15.7552C143.184 15.7552 143.799 15.9003 144.336 16.1904C144.874 16.4805 145.292 16.8944 145.591 17.432C145.898 17.9696 146.051 18.5968 146.051 19.3136ZM143.811 18.7376C143.811 18.3621 143.683 18.0635 143.427 17.8416C143.171 17.6197 142.851 17.5088 142.467 17.5088C142.1 17.5088 141.789 17.6155 141.533 17.8288C141.286 18.0421 141.132 18.3451 141.072 18.7376H143.811Z" fill="#F2F2F2"/>
</svg>
