<svg width="192" height="37" viewBox="0 0 192 37" fill="none" xmlns="http://www.w3.org/2000/svg">
<rect width="192" height="37" rx="4" fill="#C8AC48"/>
<mask id="mask0" mask-type="alpha" maskUnits="userSpaceOnUse" x="0" y="0" width="192" height="37">
<rect width="192" height="37" rx="4" fill="#A68C2F"/>
</mask>
<g mask="url(#mask0)">
<path d="M137.357 0L55.2095 37H192V0H137.357Z" fill="#B89D3B"/>
</g>
<path d="M72.6935 21.4128H69.3399L68.8023 23H66.5111L69.7623 14.0144H72.2967L75.5479 23H73.2311L72.6935 21.4128ZM72.1303 19.7232L71.0167 16.4336L69.9159 19.7232H72.1303ZM76.1022 19.416C76.1022 18.6821 76.2387 18.0379 76.5118 17.4832C76.7934 16.9285 77.1731 16.5019 77.651 16.2032C78.1288 15.9045 78.6622 15.7552 79.251 15.7552C79.7203 15.7552 80.147 15.8533 80.531 16.0496C80.9235 16.2459 81.2307 16.5104 81.4526 16.8432V13.528H83.6414V23H81.4526V21.976C81.2478 22.3173 80.9534 22.5904 80.5694 22.7952C80.1939 23 79.7544 23.1024 79.251 23.1024C78.6622 23.1024 78.1288 22.9531 77.651 22.6544C77.1731 22.3472 76.7934 21.9163 76.5118 21.3616C76.2387 20.7984 76.1022 20.1499 76.1022 19.416ZM81.4526 19.4288C81.4526 18.8827 81.299 18.4517 80.9918 18.136C80.6931 17.8203 80.3262 17.6624 79.891 17.6624C79.4558 17.6624 79.0846 17.8203 78.7774 18.136C78.4787 18.4432 78.3294 18.8699 78.3294 19.416C78.3294 19.9621 78.4787 20.3973 78.7774 20.7216C79.0846 21.0373 79.4558 21.1952 79.891 21.1952C80.3262 21.1952 80.6931 21.0373 80.9918 20.7216C81.299 20.4059 81.4526 19.9749 81.4526 19.4288ZM84.7897 19.416C84.7897 18.6821 84.9262 18.0379 85.1993 17.4832C85.4809 16.9285 85.8606 16.5019 86.3385 16.2032C86.8163 15.9045 87.3497 15.7552 87.9385 15.7552C88.4078 15.7552 88.8345 15.8533 89.2185 16.0496C89.611 16.2459 89.9182 16.5104 90.1401 16.8432V13.528H92.3289V23H90.1401V21.976C89.9353 22.3173 89.6409 22.5904 89.2569 22.7952C88.8814 23 88.4419 23.1024 87.9385 23.1024C87.3497 23.1024 86.8163 22.9531 86.3385 22.6544C85.8606 22.3472 85.4809 21.9163 85.1993 21.3616C84.9262 20.7984 84.7897 20.1499 84.7897 19.416ZM90.1401 19.4288C90.1401 18.8827 89.9865 18.4517 89.6793 18.136C89.3806 17.8203 89.0137 17.6624 88.5785 17.6624C88.1433 17.6624 87.7721 17.8203 87.4649 18.136C87.1662 18.4432 87.0169 18.8699 87.0169 19.416C87.0169 19.9621 87.1662 20.3973 87.4649 20.7216C87.7721 21.0373 88.1433 21.1952 88.5785 21.1952C89.0137 21.1952 89.3806 21.0373 89.6793 20.7216C89.9865 20.4059 90.1401 19.9749 90.1401 19.4288ZM104.663 23H102.474L98.8137 17.4576V23H96.6249V14.0144H98.8137L102.474 19.5824V14.0144H104.663V23ZM109.501 23.1024C108.801 23.1024 108.17 22.9531 107.607 22.6544C107.052 22.3557 106.613 21.9291 106.288 21.3744C105.973 20.8197 105.815 20.1712 105.815 19.4288C105.815 18.6949 105.977 18.0507 106.301 17.496C106.625 16.9328 107.069 16.5019 107.632 16.2032C108.195 15.9045 108.827 15.7552 109.527 15.7552C110.226 15.7552 110.858 15.9045 111.421 16.2032C111.984 16.5019 112.428 16.9328 112.752 17.496C113.077 18.0507 113.239 18.6949 113.239 19.4288C113.239 20.1627 113.072 20.8112 112.739 21.3744C112.415 21.9291 111.967 22.3557 111.395 22.6544C110.832 22.9531 110.201 23.1024 109.501 23.1024ZM109.501 21.208C109.919 21.208 110.273 21.0544 110.563 20.7472C110.862 20.44 111.011 20.0005 111.011 19.4288C111.011 18.8571 110.866 18.4176 110.576 18.1104C110.295 17.8032 109.945 17.6496 109.527 17.6496C109.1 17.6496 108.746 17.8032 108.464 18.1104C108.183 18.4091 108.042 18.8485 108.042 19.4288C108.042 20.0005 108.178 20.44 108.451 20.7472C108.733 21.0544 109.083 21.208 109.501 21.208ZM124.653 15.8576L122.72 23H120.301L119.174 18.3664L118.009 23H115.603L113.657 15.8576H115.846L116.857 20.9648L118.061 15.8576H120.377L121.593 20.9392L122.592 15.8576H124.653Z" fill="#F2F2F2"/>
</svg>
