<svg width="195" height="37" viewBox="0 0 195 37" fill="none" xmlns="http://www.w3.org/2000/svg">
<rect width="194.191" height="37" rx="4" fill="#C8AC48"/>
<mask id="mask0" mask-type="alpha" maskUnits="userSpaceOnUse" x="0" y="0" width="195" height="37">
<rect width="194.191" height="37" rx="4" fill="#A68C2F"/>
</mask>
<g mask="url(#mask0)">
<path d="M138.924 0L55.8394 37H194.191V0H138.924Z" fill="#B89D3B"/>
</g>
<path d="M73.3872 21.4128H70.0336L69.496 23H67.2048L70.456 14.0144H72.9904L76.2416 23H73.9248L73.3872 21.4128ZM72.824 19.7232L71.7104 16.4336L70.6096 19.7232H72.824ZM76.7959 19.416C76.7959 18.6821 76.9324 18.0379 77.2055 17.4832C77.4871 16.9285 77.8668 16.5019 78.3447 16.2032C78.8226 15.9045 79.3559 15.7552 79.9447 15.7552C80.414 15.7552 80.8407 15.8533 81.2247 16.0496C81.6172 16.2459 81.9244 16.5104 82.1463 16.8432V13.528H84.3351V23H82.1463V21.976C81.9415 22.3173 81.6471 22.5904 81.2631 22.7952C80.8876 23 80.4482 23.1024 79.9447 23.1024C79.3559 23.1024 78.8226 22.9531 78.3447 22.6544C77.8668 22.3472 77.4871 21.9163 77.2055 21.3616C76.9324 20.7984 76.7959 20.1499 76.7959 19.416ZM82.1463 19.4288C82.1463 18.8827 81.9927 18.4517 81.6855 18.136C81.3868 17.8203 81.0199 17.6624 80.5847 17.6624C80.1495 17.6624 79.7783 17.8203 79.4711 18.136C79.1724 18.4432 79.0231 18.8699 79.0231 19.416C79.0231 19.9621 79.1724 20.3973 79.4711 20.7216C79.7783 21.0373 80.1495 21.1952 80.5847 21.1952C81.0199 21.1952 81.3868 21.0373 81.6855 20.7216C81.9927 20.4059 82.1463 19.9749 82.1463 19.4288ZM85.4834 19.416C85.4834 18.6821 85.6199 18.0379 85.893 17.4832C86.1746 16.9285 86.5543 16.5019 87.0322 16.2032C87.5101 15.9045 88.0434 15.7552 88.6322 15.7552C89.1015 15.7552 89.5282 15.8533 89.9122 16.0496C90.3047 16.2459 90.6119 16.5104 90.8338 16.8432V13.528H93.0226V23H90.8338V21.976C90.629 22.3173 90.3346 22.5904 89.9506 22.7952C89.5751 23 89.1357 23.1024 88.6322 23.1024C88.0434 23.1024 87.5101 22.9531 87.0322 22.6544C86.5543 22.3472 86.1746 21.9163 85.893 21.3616C85.6199 20.7984 85.4834 20.1499 85.4834 19.416ZM90.8338 19.4288C90.8338 18.8827 90.6802 18.4517 90.373 18.136C90.0743 17.8203 89.7074 17.6624 89.2722 17.6624C88.837 17.6624 88.4658 17.8203 88.1586 18.136C87.8599 18.4432 87.7106 18.8699 87.7106 19.416C87.7106 19.9621 87.8599 20.3973 88.1586 20.7216C88.4658 21.0373 88.837 21.1952 89.2722 21.1952C89.7074 21.1952 90.0743 21.0373 90.373 20.7216C90.6802 20.4059 90.8338 19.9749 90.8338 19.4288ZM100.57 23.0896C99.9127 23.0896 99.3239 22.9829 98.8034 22.7696C98.2829 22.5563 97.8647 22.2405 97.549 21.8224C97.2418 21.4043 97.0797 20.9008 97.0626 20.312H99.3922C99.4263 20.6448 99.5415 20.9008 99.7378 21.08C99.9341 21.2507 100.19 21.336 100.506 21.336C100.83 21.336 101.086 21.2635 101.274 21.1184C101.462 20.9648 101.555 20.7557 101.555 20.4912C101.555 20.2693 101.479 20.0859 101.325 19.9408C101.18 19.7957 100.996 19.6763 100.775 19.5824C100.561 19.4885 100.254 19.3819 99.853 19.2624C99.2727 19.0832 98.7991 18.904 98.4322 18.7248C98.0653 18.5456 97.7495 18.2811 97.485 17.9312C97.2205 17.5813 97.0882 17.1248 97.0882 16.5616C97.0882 15.7253 97.3911 15.0725 97.997 14.6032C98.6029 14.1253 99.3922 13.8864 100.365 13.8864C101.355 13.8864 102.153 14.1253 102.759 14.6032C103.364 15.0725 103.689 15.7296 103.731 16.5744H101.363C101.346 16.2843 101.24 16.0581 101.043 15.896C100.847 15.7253 100.595 15.64 100.288 15.64C100.024 15.64 99.8103 15.7125 99.6482 15.8576C99.4861 15.9941 99.405 16.1947 99.405 16.4592C99.405 16.7493 99.5415 16.9755 99.8146 17.1376C100.088 17.2997 100.514 17.4747 101.095 17.6624C101.675 17.8587 102.144 18.0464 102.503 18.2256C102.87 18.4048 103.185 18.6651 103.45 19.0064C103.714 19.3477 103.847 19.7872 103.847 20.3248C103.847 20.8368 103.714 21.3019 103.45 21.72C103.194 22.1381 102.818 22.4709 102.323 22.7184C101.828 22.9659 101.244 23.0896 100.57 23.0896ZM109.174 21.144V23H108.061C107.267 23 106.649 22.808 106.205 22.424C105.761 22.0315 105.539 21.3957 105.539 20.5168V17.6752H104.669V15.8576H105.539V14.1168H107.728V15.8576H109.162V17.6752H107.728V20.5424C107.728 20.7557 107.779 20.9093 107.882 21.0032C107.984 21.0971 108.155 21.144 108.394 21.144H109.174ZM109.958 19.416C109.958 18.6821 110.095 18.0379 110.368 17.4832C110.65 16.9285 111.029 16.5019 111.507 16.2032C111.985 15.9045 112.518 15.7552 113.107 15.7552C113.611 15.7552 114.05 15.8576 114.426 16.0624C114.81 16.2672 115.104 16.536 115.309 16.8688V15.8576H117.498V23H115.309V21.9888C115.095 22.3216 114.797 22.5904 114.413 22.7952C114.037 23 113.598 23.1024 113.094 23.1024C112.514 23.1024 111.985 22.9531 111.507 22.6544C111.029 22.3472 110.65 21.9163 110.368 21.3616C110.095 20.7984 109.958 20.1499 109.958 19.416ZM115.309 19.4288C115.309 18.8827 115.155 18.4517 114.848 18.136C114.549 17.8203 114.182 17.6624 113.747 17.6624C113.312 17.6624 112.941 17.8203 112.634 18.136C112.335 18.4432 112.186 18.8699 112.186 19.416C112.186 19.9621 112.335 20.3973 112.634 20.7216C112.941 21.0373 113.312 21.1952 113.747 21.1952C114.182 21.1952 114.549 21.0373 114.848 20.7216C115.155 20.4059 115.309 19.9749 115.309 19.4288ZM122.665 17.6752H121.487V23H119.299V17.6752H118.505V15.8576H119.299V15.6528C119.299 14.7739 119.55 14.1083 120.054 13.656C120.557 13.1952 121.295 12.9648 122.268 12.9648C122.43 12.9648 122.55 12.9691 122.627 12.9776V14.8336C122.209 14.808 121.914 14.8677 121.743 15.0128C121.573 15.1579 121.487 15.4181 121.487 15.7936V15.8576H122.665V17.6752ZM127.278 17.6752H126.1V23H123.911V17.6752H123.118V15.8576H123.911V15.6528C123.911 14.7739 124.163 14.1083 124.666 13.656C125.17 13.1952 125.908 12.9648 126.881 12.9648C127.043 12.9648 127.162 12.9691 127.239 12.9776V14.8336C126.821 14.808 126.527 14.8677 126.356 15.0128C126.185 15.1579 126.1 15.4181 126.1 15.7936V15.8576H127.278V17.6752Z" fill="#F2F2F2"/>
</svg>
