<svg width="195" height="37" viewBox="0 0 195 37" fill="none" xmlns="http://www.w3.org/2000/svg">
<rect width="194.191" height="37" rx="4" fill="#C8AC48"/>
<mask id="mask0" mask-type="alpha" maskUnits="userSpaceOnUse" x="0" y="0" width="195" height="37">
<rect width="194.191" height="37" rx="4" fill="#A68C2F"/>
</mask>
<g mask="url(#mask0)">
<path d="M138.924 0L55.8394 37H194.191V0H138.924Z" fill="#B89D3B"/>
</g>
<path d="M70.3616 21.3488H66.9696L66.4064 23H64.1024L67.4176 14.0144H69.9392L73.2544 23H70.9248L70.3616 21.3488ZM69.7984 19.6848L68.672 16.3568L67.5328 19.6848H69.7984ZM76.8188 15.768C77.3649 15.768 77.8343 15.8917 78.2268 16.1392C78.6193 16.3867 78.9052 16.7237 79.0844 17.1504V13.528H81.2732V23H79.0844V21.7072C78.9052 22.1339 78.6193 22.4709 78.2268 22.7184C77.8343 22.9659 77.3649 23.0896 76.8188 23.0896C76.23 23.0896 75.7009 22.9445 75.2316 22.6544C74.7708 22.3557 74.4039 21.9291 74.1308 21.3744C73.8663 20.8197 73.734 20.1712 73.734 19.4288C73.734 18.6779 73.8663 18.0293 74.1308 17.4832C74.4039 16.9285 74.7708 16.5061 75.2316 16.216C75.7009 15.9173 76.23 15.768 76.8188 15.768ZM77.5228 17.688C77.0535 17.688 76.6737 17.8416 76.3836 18.1488C76.102 18.456 75.9612 18.8827 75.9612 19.4288C75.9612 19.9749 76.102 20.4016 76.3836 20.7088C76.6737 21.016 77.0535 21.1696 77.5228 21.1696C77.9836 21.1696 78.3591 21.0117 78.6492 20.696C78.9479 20.3803 79.0972 19.9579 79.0972 19.4288C79.0972 18.8912 78.9479 18.4688 78.6492 18.1616C78.3591 17.8459 77.9836 17.688 77.5228 17.688ZM85.4938 15.768C86.0399 15.768 86.5093 15.8917 86.9018 16.1392C87.2943 16.3867 87.5802 16.7237 87.7594 17.1504V13.528H89.9482V23H87.7594V21.7072C87.5802 22.1339 87.2943 22.4709 86.9018 22.7184C86.5093 22.9659 86.0399 23.0896 85.4938 23.0896C84.905 23.0896 84.3759 22.9445 83.9066 22.6544C83.4458 22.3557 83.0789 21.9291 82.8058 21.3744C82.5413 20.8197 82.409 20.1712 82.409 19.4288C82.409 18.6779 82.5413 18.0293 82.8058 17.4832C83.0789 16.9285 83.4458 16.5061 83.9066 16.216C84.3759 15.9173 84.905 15.768 85.4938 15.768ZM86.1978 17.688C85.7285 17.688 85.3487 17.8416 85.0586 18.1488C84.777 18.456 84.6362 18.8827 84.6362 19.4288C84.6362 19.9749 84.777 20.4016 85.0586 20.7088C85.3487 21.016 85.7285 21.1696 86.1978 21.1696C86.6586 21.1696 87.0341 21.0117 87.3242 20.696C87.6229 20.3803 87.7722 19.9579 87.7722 19.4288C87.7722 18.8912 87.6229 18.4688 87.3242 18.1616C87.0341 17.8459 86.6586 17.688 86.1978 17.688ZM98.1521 13.8608C99.3041 13.8608 100.256 14.1637 101.007 14.7696C101.766 15.3755 102.257 16.1947 102.479 17.2272H100.162C99.991 16.8091 99.7265 16.4805 99.3681 16.2416C99.0182 16.0027 98.6001 15.8832 98.1137 15.8832C97.4737 15.8832 96.9574 16.1179 96.5649 16.5872C96.1724 17.0565 95.9761 17.6837 95.9761 18.4688C95.9761 19.2539 96.1724 19.8811 96.5649 20.3504C96.9574 20.8112 97.4737 21.0416 98.1137 21.0416C98.6001 21.0416 99.0182 20.9221 99.3681 20.6832C99.7265 20.4443 99.991 20.12 100.162 19.7104H102.479C102.257 20.7344 101.766 21.5536 101.007 22.168C100.256 22.7739 99.3041 23.0768 98.1521 23.0768C97.2732 23.0768 96.5009 22.8848 95.8353 22.5008C95.1697 22.1083 94.6534 21.5621 94.2865 20.8624C93.9281 20.1627 93.7489 19.3648 93.7489 18.4688C93.7489 17.5728 93.9281 16.7749 94.2865 16.0752C94.6534 15.3755 95.1697 14.8336 95.8353 14.4496C96.5009 14.0571 97.2732 13.8608 98.1521 13.8608ZM107.046 15.768C107.754 15.768 108.386 15.9173 108.94 16.216C109.504 16.5061 109.943 16.9285 110.259 17.4832C110.583 18.0379 110.745 18.6864 110.745 19.4288C110.745 20.1712 110.583 20.8197 110.259 21.3744C109.943 21.9291 109.504 22.3557 108.94 22.6544C108.386 22.9445 107.754 23.0896 107.046 23.0896C106.338 23.0896 105.702 22.9445 105.139 22.6544C104.576 22.3557 104.132 21.9291 103.808 21.3744C103.492 20.8197 103.334 20.1712 103.334 19.4288C103.334 18.6864 103.492 18.0379 103.808 17.4832C104.132 16.9285 104.576 16.5061 105.139 16.216C105.702 15.9173 106.338 15.768 107.046 15.768ZM107.046 17.6624C106.628 17.6624 106.274 17.816 105.984 18.1232C105.702 18.4219 105.561 18.8571 105.561 19.4288C105.561 20.0005 105.702 20.4357 105.984 20.7344C106.274 21.0331 106.628 21.1824 107.046 21.1824C107.464 21.1824 107.814 21.0331 108.096 20.7344C108.377 20.4357 108.518 20.0005 108.518 19.4288C108.518 18.8571 108.377 18.4219 108.096 18.1232C107.814 17.816 107.464 17.6624 107.046 17.6624ZM118.984 15.8576V23H116.783V21.7072C116.578 22.1253 116.271 22.4581 115.861 22.7056C115.46 22.9531 114.991 23.0768 114.453 23.0768C113.634 23.0768 112.981 22.8037 112.495 22.2576C112.017 21.7115 111.778 20.9605 111.778 20.0048V15.8576H113.954V19.736C113.954 20.2224 114.078 20.6021 114.325 20.8752C114.581 21.1397 114.922 21.272 115.349 21.272C115.793 21.272 116.143 21.1312 116.399 20.8496C116.655 20.568 116.783 20.1669 116.783 19.6464V15.8576H118.984ZM122.682 17.2016C122.955 16.7664 123.304 16.4208 123.731 16.1648C124.166 15.9088 124.636 15.7808 125.139 15.7808V18.1232H124.512C123.932 18.1232 123.479 18.2469 123.155 18.4944C122.839 18.7419 122.682 19.16 122.682 19.7488V23H120.493V15.8576H122.682V17.2016ZM130.1 21.1184V23H129.114C128.278 23 127.625 22.7952 127.156 22.3856C126.695 21.9675 126.465 21.2805 126.465 20.3248V17.7008H125.505V15.8576H126.465V14.104H128.654V15.8576H130.087V17.7008H128.654V20.3632C128.654 20.6448 128.709 20.8411 128.82 20.952C128.939 21.0629 129.136 21.1184 129.409 21.1184H130.1Z" fill="#F2F2F2"/>
</svg>
