<svg width="195" height="37" viewBox="0 0 195 37" fill="none" xmlns="http://www.w3.org/2000/svg">
<rect width="194.191" height="37" rx="4" fill="#C8AC48"/>
<mask id="mask0" mask-type="alpha" maskUnits="userSpaceOnUse" x="0" y="0" width="195" height="37">
<rect width="194.191" height="37" rx="4" fill="#A68C2F"/>
</mask>
<g mask="url(#mask0)">
<path d="M138.924 0L55.8394 37H194.191V0H138.924Z" fill="#B89D3B"/>
</g>
<path d="M54.3616 21.3488H50.9696L50.4064 23H48.1024L51.4176 14.0144H53.9392L57.2544 23H54.9248L54.3616 21.3488ZM53.7984 19.6848L52.672 16.3568L51.5328 19.6848H53.7984ZM60.8188 15.768C61.3649 15.768 61.8343 15.8917 62.2268 16.1392C62.6193 16.3867 62.9052 16.7237 63.0844 17.1504V13.528H65.2732V23H63.0844V21.7072C62.9052 22.1339 62.6193 22.4709 62.2268 22.7184C61.8343 22.9659 61.3649 23.0896 60.8188 23.0896C60.23 23.0896 59.7009 22.9445 59.2316 22.6544C58.7708 22.3557 58.4039 21.9291 58.1308 21.3744C57.8663 20.8197 57.734 20.1712 57.734 19.4288C57.734 18.6779 57.8663 18.0293 58.1308 17.4832C58.4039 16.9285 58.7708 16.5061 59.2316 16.216C59.7009 15.9173 60.23 15.768 60.8188 15.768ZM61.5228 17.688C61.0535 17.688 60.6737 17.8416 60.3836 18.1488C60.102 18.456 59.9612 18.8827 59.9612 19.4288C59.9612 19.9749 60.102 20.4016 60.3836 20.7088C60.6737 21.016 61.0535 21.1696 61.5228 21.1696C61.9836 21.1696 62.3591 21.0117 62.6492 20.696C62.9479 20.3803 63.0972 19.9579 63.0972 19.4288C63.0972 18.8912 62.9479 18.4688 62.6492 18.1616C62.3591 17.8459 61.9836 17.688 61.5228 17.688ZM69.4938 15.768C70.0399 15.768 70.5093 15.8917 70.9018 16.1392C71.2943 16.3867 71.5802 16.7237 71.7594 17.1504V13.528H73.9482V23H71.7594V21.7072C71.5802 22.1339 71.2943 22.4709 70.9018 22.7184C70.5093 22.9659 70.0399 23.0896 69.4938 23.0896C68.905 23.0896 68.3759 22.9445 67.9066 22.6544C67.4458 22.3557 67.0789 21.9291 66.8058 21.3744C66.5413 20.8197 66.409 20.1712 66.409 19.4288C66.409 18.6779 66.5413 18.0293 66.8058 17.4832C67.0789 16.9285 67.4458 16.5061 67.9066 16.216C68.3759 15.9173 68.905 15.768 69.4938 15.768ZM70.1978 17.688C69.7285 17.688 69.3487 17.8416 69.0586 18.1488C68.777 18.456 68.6362 18.8827 68.6362 19.4288C68.6362 19.9749 68.777 20.4016 69.0586 20.7088C69.3487 21.016 69.7285 21.1696 70.1978 21.1696C70.6586 21.1696 71.0341 21.0117 71.3242 20.696C71.6229 20.3803 71.7722 19.9579 71.7722 19.4288C71.7722 18.8912 71.6229 18.4688 71.3242 18.1616C71.0341 17.8459 70.6586 17.688 70.1978 17.688ZM83.4449 18.3408C83.991 18.4688 84.422 18.7333 84.7377 19.1344C85.062 19.5355 85.2241 20.0005 85.2241 20.5296C85.2241 21.3061 84.9638 21.912 84.4433 22.3472C83.9313 22.7824 83.1932 23 82.2289 23H78.0177V13.9504H82.1265C83.0481 13.9504 83.7606 14.1509 84.2641 14.552C84.7676 14.9531 85.0193 15.5248 85.0193 16.2672C85.0193 16.8133 84.8742 17.2699 84.5841 17.6368C84.294 17.9952 83.9142 18.2299 83.4449 18.3408ZM80.2065 17.6496H81.6401C82.3996 17.6496 82.7793 17.3253 82.7793 16.6768C82.7793 16.0283 82.391 15.704 81.6145 15.704H80.2065V17.6496ZM81.7681 21.2208C82.5788 21.2208 82.9841 20.888 82.9841 20.2224C82.9841 19.8981 82.8774 19.6464 82.6641 19.4672C82.4508 19.2795 82.1478 19.1856 81.7553 19.1856H80.2065V21.2208H81.7681ZM89.0938 15.768C89.6399 15.768 90.1093 15.8917 90.5018 16.1392C90.8943 16.3867 91.1845 16.7237 91.3722 17.1504V15.8576H93.5482V23H91.3722V21.7072C91.1845 22.1339 90.8943 22.4709 90.5018 22.7184C90.1093 22.9659 89.6399 23.0896 89.0938 23.0896C88.505 23.0896 87.9759 22.9445 87.5066 22.6544C87.0458 22.3557 86.6789 21.9291 86.4058 21.3744C86.1413 20.8197 86.009 20.1712 86.009 19.4288C86.009 18.6779 86.1413 18.0293 86.4058 17.4832C86.6789 16.9285 87.0458 16.5061 87.5066 16.216C87.9759 15.9173 88.505 15.768 89.0938 15.768ZM89.7978 17.688C89.3285 17.688 88.9487 17.8416 88.6586 18.1488C88.377 18.456 88.2362 18.8827 88.2362 19.4288C88.2362 19.9749 88.377 20.4016 88.6586 20.7088C88.9487 21.016 89.3285 21.1696 89.7978 21.1696C90.2586 21.1696 90.6341 21.0117 90.9242 20.696C91.2229 20.3803 91.3722 19.9579 91.3722 19.4288C91.3722 18.8912 91.2229 18.4688 90.9242 18.1616C90.6341 17.8459 90.2586 17.688 89.7978 17.688ZM97.244 17.2016C97.5171 16.7664 97.8669 16.4208 98.2936 16.1648C98.7288 15.9088 99.1981 15.7808 99.7016 15.7808V18.1232H99.0744C98.4941 18.1232 98.0419 18.2469 97.7176 18.4944C97.4019 18.7419 97.244 19.16 97.244 19.7488V23H95.0552V15.8576H97.244V17.2016ZM107.315 13.8608C108.467 13.8608 109.418 14.1637 110.169 14.7696C110.928 15.3755 111.419 16.1947 111.641 17.2272H109.324C109.154 16.8091 108.889 16.4805 108.531 16.2416C108.181 16.0027 107.763 15.8832 107.276 15.8832C106.636 15.8832 106.12 16.1179 105.727 16.5872C105.335 17.0565 105.139 17.6837 105.139 18.4688C105.139 19.2539 105.335 19.8811 105.727 20.3504C106.12 20.8112 106.636 21.0416 107.276 21.0416C107.763 21.0416 108.181 20.9221 108.531 20.6832C108.889 20.4443 109.154 20.12 109.324 19.7104H111.641C111.419 20.7344 110.928 21.5536 110.169 22.168C109.418 22.7739 108.467 23.0768 107.315 23.0768C106.436 23.0768 105.663 22.8848 104.998 22.5008C104.332 22.1083 103.816 21.5621 103.449 20.8624C103.091 20.1627 102.911 19.3648 102.911 18.4688C102.911 17.5728 103.091 16.7749 103.449 16.0752C103.816 15.3755 104.332 14.8336 104.998 14.4496C105.663 14.0571 106.436 13.8608 107.315 13.8608ZM116.209 15.768C116.917 15.768 117.548 15.9173 118.103 16.216C118.666 16.5061 119.106 16.9285 119.421 17.4832C119.746 18.0379 119.908 18.6864 119.908 19.4288C119.908 20.1712 119.746 20.8197 119.421 21.3744C119.106 21.9291 118.666 22.3557 118.103 22.6544C117.548 22.9445 116.917 23.0896 116.209 23.0896C115.5 23.0896 114.865 22.9445 114.301 22.6544C113.738 22.3557 113.294 21.9291 112.97 21.3744C112.654 20.8197 112.497 20.1712 112.497 19.4288C112.497 18.6864 112.654 18.0379 112.97 17.4832C113.294 16.9285 113.738 16.5061 114.301 16.216C114.865 15.9173 115.5 15.768 116.209 15.768ZM116.209 17.6624C115.79 17.6624 115.436 17.816 115.146 18.1232C114.865 18.4219 114.724 18.8571 114.724 19.4288C114.724 20.0005 114.865 20.4357 115.146 20.7344C115.436 21.0331 115.79 21.1824 116.209 21.1824C116.627 21.1824 116.977 21.0331 117.258 20.7344C117.54 20.4357 117.681 20.0005 117.681 19.4288C117.681 18.8571 117.54 18.4219 117.258 18.1232C116.977 17.816 116.627 17.6624 116.209 17.6624ZM128.147 15.8576V23H125.945V21.7072C125.74 22.1253 125.433 22.4581 125.023 22.7056C124.622 22.9531 124.153 23.0768 123.615 23.0768C122.796 23.0768 122.143 22.8037 121.657 22.2576C121.179 21.7115 120.94 20.9605 120.94 20.0048V15.8576H123.116V19.736C123.116 20.2224 123.24 20.6021 123.487 20.8752C123.743 21.1397 124.085 21.272 124.511 21.272C124.955 21.272 125.305 21.1312 125.561 20.8496C125.817 20.568 125.945 20.1669 125.945 19.6464V15.8576H128.147ZM134.186 15.7808C135.006 15.7808 135.654 16.0539 136.132 16.6C136.618 17.1461 136.862 17.8971 136.862 18.8528V23H134.673V19.1088C134.673 18.6309 134.545 18.2597 134.289 17.9952C134.041 17.7221 133.709 17.5856 133.29 17.5856C132.847 17.5856 132.493 17.7264 132.228 18.008C131.972 18.2896 131.844 18.6907 131.844 19.2112V23H129.655V15.8576H131.844V17.1632C132.049 16.7365 132.352 16.3995 132.753 16.152C133.162 15.9045 133.64 15.7808 134.186 15.7808ZM141.531 15.768C142.452 15.768 143.225 16.024 143.848 16.536C144.471 17.0395 144.863 17.7349 145.025 18.6224H142.708C142.64 18.3152 142.499 18.0763 142.286 17.9056C142.073 17.7349 141.804 17.6496 141.48 17.6496C141.096 17.6496 140.78 17.8032 140.532 18.1104C140.285 18.4091 140.161 18.8485 140.161 19.4288C140.161 20.0091 140.285 20.4528 140.532 20.76C140.78 21.0587 141.096 21.208 141.48 21.208C141.804 21.208 142.073 21.1227 142.286 20.952C142.499 20.7813 142.64 20.5424 142.708 20.2352H145.025C144.863 21.1227 144.471 21.8224 143.848 22.3344C143.225 22.8379 142.452 23.0896 141.531 23.0896C140.831 23.0896 140.208 22.9445 139.662 22.6544C139.124 22.3557 138.702 21.9291 138.395 21.3744C138.088 20.8197 137.934 20.1712 137.934 19.4288C137.934 18.6779 138.083 18.0293 138.382 17.4832C138.689 16.9285 139.116 16.5061 139.662 16.216C140.208 15.9173 140.831 15.768 141.531 15.768ZM145.963 13.848C145.963 13.5152 146.082 13.2421 146.321 13.0288C146.56 12.8069 146.876 12.696 147.269 12.696C147.661 12.696 147.977 12.8069 148.216 13.0288C148.455 13.2421 148.574 13.5152 148.574 13.848C148.574 14.1723 148.455 14.4453 148.216 14.6672C147.977 14.8805 147.661 14.9872 147.269 14.9872C146.876 14.9872 146.56 14.8805 146.321 14.6672C146.082 14.4453 145.963 14.1723 145.963 13.848ZM148.357 15.8576V23H146.168V15.8576H148.357ZM152.057 13.528V23H149.868V13.528H152.057Z" fill="#F2F2F2"/>
</svg>
