<svg width="195" height="37" viewBox="0 0 195 37" fill="none" xmlns="http://www.w3.org/2000/svg">
<rect width="194.191" height="37" rx="4" fill="#C8AC48"/>
<mask id="mask0" mask-type="alpha" maskUnits="userSpaceOnUse" x="0" y="0" width="195" height="37">
<rect width="194.191" height="37" rx="4" fill="#A68C2F"/>
</mask>
<g mask="url(#mask0)">
<path d="M138.924 0L55.8394 37H194.191V0H138.924Z" fill="#B89D3B"/>
</g>
<path d="M64.3872 21.4128H61.0336L60.496 23H58.2048L61.456 14.0144H63.9904L67.2416 23H64.9248L64.3872 21.4128ZM63.824 19.7232L62.7104 16.4336L61.6096 19.7232H63.824ZM67.7959 19.416C67.7959 18.6821 67.9324 18.0379 68.2055 17.4832C68.4871 16.9285 68.8668 16.5019 69.3447 16.2032C69.8226 15.9045 70.3559 15.7552 70.9447 15.7552C71.414 15.7552 71.8407 15.8533 72.2247 16.0496C72.6172 16.2459 72.9244 16.5104 73.1463 16.8432V13.528H75.3351V23H73.1463V21.976C72.9415 22.3173 72.6471 22.5904 72.2631 22.7952C71.8876 23 71.4482 23.1024 70.9447 23.1024C70.3559 23.1024 69.8226 22.9531 69.3447 22.6544C68.8668 22.3472 68.4871 21.9163 68.2055 21.3616C67.9324 20.7984 67.7959 20.1499 67.7959 19.416ZM73.1463 19.4288C73.1463 18.8827 72.9927 18.4517 72.6855 18.136C72.3868 17.8203 72.0199 17.6624 71.5847 17.6624C71.1495 17.6624 70.7783 17.8203 70.4711 18.136C70.1724 18.4432 70.0231 18.8699 70.0231 19.416C70.0231 19.9621 70.1724 20.3973 70.4711 20.7216C70.7783 21.0373 71.1495 21.1952 71.5847 21.1952C72.0199 21.1952 72.3868 21.0373 72.6855 20.7216C72.9927 20.4059 73.1463 19.9749 73.1463 19.4288ZM76.4834 19.416C76.4834 18.6821 76.6199 18.0379 76.893 17.4832C77.1746 16.9285 77.5543 16.5019 78.0322 16.2032C78.5101 15.9045 79.0434 15.7552 79.6322 15.7552C80.1015 15.7552 80.5282 15.8533 80.9122 16.0496C81.3047 16.2459 81.6119 16.5104 81.8338 16.8432V13.528H84.0226V23H81.8338V21.976C81.629 22.3173 81.3346 22.5904 80.9506 22.7952C80.5751 23 80.1357 23.1024 79.6322 23.1024C79.0434 23.1024 78.5101 22.9531 78.0322 22.6544C77.5543 22.3472 77.1746 21.9163 76.893 21.3616C76.6199 20.7984 76.4834 20.1499 76.4834 19.416ZM81.8338 19.4288C81.8338 18.8827 81.6802 18.4517 81.373 18.136C81.0743 17.8203 80.7074 17.6624 80.2722 17.6624C79.837 17.6624 79.4658 17.8203 79.1586 18.136C78.8599 18.4432 78.7106 18.8699 78.7106 19.416C78.7106 19.9621 78.8599 20.3973 79.1586 20.7216C79.4658 21.0373 79.837 21.1952 80.2722 21.1952C80.7074 21.1952 81.0743 21.0373 81.373 20.7216C81.6802 20.4059 81.8338 19.9749 81.8338 19.4288ZM91.685 14.0144C92.6322 14.0144 93.4599 14.2021 94.1682 14.5776C94.8765 14.9531 95.4226 15.4821 95.8066 16.1648C96.1991 16.8389 96.3954 17.6197 96.3954 18.5072C96.3954 19.3861 96.1991 20.1669 95.8066 20.8496C95.4226 21.5323 94.8722 22.0613 94.1554 22.4368C93.4471 22.8123 92.6237 23 91.685 23H88.3186V14.0144H91.685ZM91.5442 21.1056C92.3719 21.1056 93.0162 20.8795 93.477 20.4272C93.9378 19.9749 94.1682 19.3349 94.1682 18.5072C94.1682 17.6795 93.9378 17.0352 93.477 16.5744C93.0162 16.1136 92.3719 15.8832 91.5442 15.8832H90.5074V21.1056H91.5442ZM98.7194 15.1152C98.3354 15.1152 98.0197 15.0043 97.7722 14.7824C97.5333 14.552 97.4138 14.2704 97.4138 13.9376C97.4138 13.5963 97.5333 13.3147 97.7722 13.0928C98.0197 12.8624 98.3354 12.7472 98.7194 12.7472C99.0949 12.7472 99.4021 12.8624 99.641 13.0928C99.8885 13.3147 100.012 13.5963 100.012 13.9376C100.012 14.2704 99.8885 14.552 99.641 14.7824C99.4021 15.0043 99.0949 15.1152 98.7194 15.1152ZM99.8074 15.8576V23H97.6186V15.8576H99.8074ZM104.299 23.1024C103.676 23.1024 103.122 22.9957 102.635 22.7824C102.149 22.5691 101.765 22.2789 101.483 21.912C101.202 21.5365 101.044 21.1184 101.01 20.6576H103.173C103.198 20.9051 103.314 21.1056 103.518 21.2592C103.723 21.4128 103.975 21.4896 104.274 21.4896C104.547 21.4896 104.756 21.4384 104.901 21.336C105.054 21.2251 105.131 21.0843 105.131 20.9136C105.131 20.7088 105.025 20.5595 104.811 20.4656C104.598 20.3632 104.252 20.2523 103.774 20.1328C103.262 20.0133 102.836 19.8896 102.494 19.7616C102.153 19.6251 101.859 19.416 101.611 19.1344C101.364 18.8443 101.24 18.456 101.24 17.9696C101.24 17.56 101.351 17.1888 101.573 16.856C101.803 16.5147 102.136 16.2459 102.571 16.0496C103.015 15.8533 103.54 15.7552 104.146 15.7552C105.042 15.7552 105.746 15.9771 106.258 16.4208C106.778 16.8645 107.077 17.4533 107.154 18.1872H105.131C105.097 17.9397 104.986 17.7435 104.798 17.5984C104.619 17.4533 104.38 17.3808 104.082 17.3808C103.826 17.3808 103.629 17.432 103.493 17.5344C103.356 17.6283 103.288 17.7605 103.288 17.9312C103.288 18.136 103.395 18.2896 103.608 18.392C103.83 18.4944 104.171 18.5968 104.632 18.6992C105.161 18.8357 105.592 18.9723 105.925 19.1088C106.258 19.2368 106.548 19.4501 106.795 19.7488C107.051 20.0389 107.183 20.4315 107.192 20.9264C107.192 21.3445 107.073 21.72 106.834 22.0528C106.603 22.3771 106.266 22.6331 105.822 22.8208C105.387 23.0085 104.879 23.1024 104.299 23.1024ZM112.512 21.144V23H111.398C110.605 23 109.986 22.808 109.542 22.424C109.099 22.0315 108.877 21.3957 108.877 20.5168V17.6752H108.006V15.8576H108.877V14.1168H111.065V15.8576H112.499V17.6752H111.065V20.5424C111.065 20.7557 111.117 20.9093 111.219 21.0032C111.321 21.0971 111.492 21.144 111.731 21.144H112.512ZM115.92 17.048C116.176 16.6555 116.496 16.3483 116.88 16.1264C117.264 15.896 117.691 15.7808 118.16 15.7808V18.0976H117.558C117.012 18.0976 116.603 18.2171 116.33 18.456C116.056 18.6864 115.92 19.096 115.92 19.6848V23H113.731V15.8576H115.92V17.048ZM120.307 15.1152C119.923 15.1152 119.607 15.0043 119.36 14.7824C119.121 14.552 119.001 14.2704 119.001 13.9376C119.001 13.5963 119.121 13.3147 119.36 13.0928C119.607 12.8624 119.923 12.7472 120.307 12.7472C120.682 12.7472 120.99 12.8624 121.229 13.0928C121.476 13.3147 121.6 13.5963 121.6 13.9376C121.6 14.2704 121.476 14.552 121.229 14.7824C120.99 15.0043 120.682 15.1152 120.307 15.1152ZM121.395 15.8576V23H119.206V15.8576H121.395ZM122.546 19.4288C122.546 18.6864 122.695 18.0379 122.994 17.4832C123.301 16.9285 123.724 16.5019 124.261 16.2032C124.807 15.9045 125.43 15.7552 126.13 15.7552C127.026 15.7552 127.773 15.9899 128.37 16.4592C128.976 16.9285 129.373 17.5899 129.56 18.4432H127.231C127.034 17.8971 126.655 17.624 126.092 17.624C125.69 17.624 125.37 17.7819 125.132 18.0976C124.893 18.4048 124.773 18.8485 124.773 19.4288C124.773 20.0091 124.893 20.4571 125.132 20.7728C125.37 21.08 125.69 21.2336 126.092 21.2336C126.655 21.2336 127.034 20.9605 127.231 20.4144H129.56C129.373 21.2507 128.976 21.9077 128.37 22.3856C127.764 22.8635 127.017 23.1024 126.13 23.1024C125.43 23.1024 124.807 22.9531 124.261 22.6544C123.724 22.3557 123.301 21.9291 122.994 21.3744C122.695 20.8197 122.546 20.1712 122.546 19.4288ZM134.712 21.144V23H133.598C132.805 23 132.186 22.808 131.742 22.424C131.299 22.0315 131.077 21.3957 131.077 20.5168V17.6752H130.206V15.8576H131.077V14.1168H133.266V15.8576H134.699V17.6752H133.266V20.5424C133.266 20.7557 133.317 20.9093 133.419 21.0032C133.522 21.0971 133.692 21.144 133.931 21.144H134.712Z" fill="#F2F2F2"/>
</svg>
