<svg width="195" height="37" viewBox="0 0 195 37" fill="none" xmlns="http://www.w3.org/2000/svg">
<rect width="194.191" height="37" rx="4" fill="#C8AC48"/>
<mask id="mask0" mask-type="alpha" maskUnits="userSpaceOnUse" x="0" y="0" width="195" height="37">
<rect width="194.191" height="37" rx="4" fill="#A68C2F"/>
</mask>
<g mask="url(#mask0)">
<path d="M138.924 0L55.8394 37H194.191V0H138.924Z" fill="#B89D3B"/>
</g>
<path d="M46.3872 21.4128H43.0336L42.496 23H40.2048L43.456 14.0144H45.9904L49.2416 23H46.9248L46.3872 21.4128ZM45.824 19.7232L44.7104 16.4336L43.6096 19.7232H45.824ZM49.7959 19.416C49.7959 18.6821 49.9324 18.0379 50.2055 17.4832C50.4871 16.9285 50.8668 16.5019 51.3447 16.2032C51.8226 15.9045 52.3559 15.7552 52.9447 15.7552C53.414 15.7552 53.8407 15.8533 54.2247 16.0496C54.6172 16.2459 54.9244 16.5104 55.1463 16.8432V13.528H57.3351V23H55.1463V21.976C54.9415 22.3173 54.6471 22.5904 54.2631 22.7952C53.8876 23 53.4482 23.1024 52.9447 23.1024C52.3559 23.1024 51.8226 22.9531 51.3447 22.6544C50.8668 22.3472 50.4871 21.9163 50.2055 21.3616C49.9324 20.7984 49.7959 20.1499 49.7959 19.416ZM55.1463 19.4288C55.1463 18.8827 54.9927 18.4517 54.6855 18.136C54.3868 17.8203 54.0199 17.6624 53.5847 17.6624C53.1495 17.6624 52.7783 17.8203 52.4711 18.136C52.1724 18.4432 52.0231 18.8699 52.0231 19.416C52.0231 19.9621 52.1724 20.3973 52.4711 20.7216C52.7783 21.0373 53.1495 21.1952 53.5847 21.1952C54.0199 21.1952 54.3868 21.0373 54.6855 20.7216C54.9927 20.4059 55.1463 19.9749 55.1463 19.4288ZM58.4834 19.416C58.4834 18.6821 58.6199 18.0379 58.893 17.4832C59.1746 16.9285 59.5543 16.5019 60.0322 16.2032C60.5101 15.9045 61.0434 15.7552 61.6322 15.7552C62.1015 15.7552 62.5282 15.8533 62.9122 16.0496C63.3047 16.2459 63.6119 16.5104 63.8338 16.8432V13.528H66.0226V23H63.8338V21.976C63.629 22.3173 63.3346 22.5904 62.9506 22.7952C62.5751 23 62.1357 23.1024 61.6322 23.1024C61.0434 23.1024 60.5101 22.9531 60.0322 22.6544C59.5543 22.3472 59.1746 21.9163 58.893 21.3616C58.6199 20.7984 58.4834 20.1499 58.4834 19.416ZM63.8338 19.4288C63.8338 18.8827 63.6802 18.4517 63.373 18.136C63.0743 17.8203 62.7074 17.6624 62.2722 17.6624C61.837 17.6624 61.4658 17.8203 61.1586 18.136C60.8599 18.4432 60.7106 18.8699 60.7106 19.416C60.7106 19.9621 60.8599 20.3973 61.1586 20.7216C61.4658 21.0373 61.837 21.1952 62.2722 21.1952C62.7074 21.1952 63.0743 21.0373 63.373 20.7216C63.6802 20.4059 63.8338 19.9749 63.8338 19.4288ZM69.9474 18.4944C69.9474 17.6069 70.1394 16.8176 70.5234 16.1264C70.9074 15.4267 71.4407 14.8848 72.1234 14.5008C72.8146 14.1083 73.5954 13.912 74.4658 13.912C75.5325 13.912 76.4455 14.1936 77.205 14.7568C77.9645 15.32 78.4722 16.088 78.7282 17.0608H76.3218C76.1426 16.6853 75.8866 16.3995 75.5538 16.2032C75.2295 16.0069 74.8583 15.9088 74.4402 15.9088C73.7661 15.9088 73.2199 16.1435 72.8018 16.6128C72.3837 17.0821 72.1746 17.7093 72.1746 18.4944C72.1746 19.2795 72.3837 19.9067 72.8018 20.376C73.2199 20.8453 73.7661 21.08 74.4402 21.08C74.8583 21.08 75.2295 20.9819 75.5538 20.7856C75.8866 20.5893 76.1426 20.3035 76.3218 19.928H78.7282C78.4722 20.9008 77.9645 21.6688 77.205 22.232C76.4455 22.7867 75.5325 23.064 74.4658 23.064C73.5954 23.064 72.8146 22.872 72.1234 22.488C71.4407 22.0955 70.9074 21.5536 70.5234 20.8624C70.1394 20.1712 69.9474 19.3819 69.9474 18.4944ZM82.2574 13.528V23H80.0686V13.528H82.2574ZM84.9444 15.1152C84.5604 15.1152 84.2447 15.0043 83.9972 14.7824C83.7583 14.552 83.6388 14.2704 83.6388 13.9376C83.6388 13.5963 83.7583 13.3147 83.9972 13.0928C84.2447 12.8624 84.5604 12.7472 84.9444 12.7472C85.3199 12.7472 85.6271 12.8624 85.866 13.0928C86.1135 13.3147 86.2372 13.5963 86.2372 13.9376C86.2372 14.2704 86.1135 14.552 85.866 14.7824C85.6271 15.0043 85.3199 15.1152 84.9444 15.1152ZM86.0324 15.8576V23H83.8436V15.8576H86.0324ZM94.3514 19.3136C94.3514 19.5184 94.3386 19.7317 94.313 19.9536H89.3594C89.3935 20.3973 89.5343 20.7387 89.7818 20.9776C90.0378 21.208 90.3493 21.3232 90.7162 21.3232C91.2623 21.3232 91.6421 21.0928 91.8554 20.632H94.185C94.0655 21.1013 93.8479 21.5237 93.5322 21.8992C93.225 22.2747 92.8367 22.5691 92.3674 22.7824C91.8981 22.9957 91.3733 23.1024 90.793 23.1024C90.0933 23.1024 89.4703 22.9531 88.9242 22.6544C88.3781 22.3557 87.9514 21.9291 87.6442 21.3744C87.337 20.8197 87.1834 20.1712 87.1834 19.4288C87.1834 18.6864 87.3327 18.0379 87.6314 17.4832C87.9386 16.9285 88.3653 16.5019 88.9114 16.2032C89.4575 15.9045 90.0847 15.7552 90.793 15.7552C91.4842 15.7552 92.0986 15.9003 92.6362 16.1904C93.1738 16.4805 93.5919 16.8944 93.8906 17.432C94.1978 17.9696 94.3514 18.5968 94.3514 19.3136ZM92.1114 18.7376C92.1114 18.3621 91.9834 18.0635 91.7274 17.8416C91.4714 17.6197 91.1514 17.5088 90.7674 17.5088C90.4005 17.5088 90.089 17.6155 89.833 17.8288C89.5855 18.0421 89.4319 18.3451 89.3722 18.7376H92.1114ZM99.8581 15.7808C100.694 15.7808 101.36 16.0539 101.855 16.6C102.358 17.1376 102.61 17.88 102.61 18.8272V23H100.434V19.1216C100.434 18.6437 100.31 18.2725 100.063 18.008C99.8154 17.7435 99.4826 17.6112 99.0645 17.6112C98.6464 17.6112 98.3136 17.7435 98.0661 18.008C97.8186 18.2725 97.6949 18.6437 97.6949 19.1216V23H95.5061V15.8576H97.6949V16.8048C97.9168 16.4891 98.2154 16.2416 98.5909 16.0624C98.9664 15.8747 99.3888 15.7808 99.8581 15.7808ZM108.112 21.144V23H106.998C106.205 23 105.586 22.808 105.142 22.424C104.699 22.0315 104.477 21.3957 104.477 20.5168V17.6752H103.606V15.8576H104.477V14.1168H106.666V15.8576H108.099V17.6752H106.666V20.5424C106.666 20.7557 106.717 20.9093 106.819 21.0032C106.922 21.0971 107.092 21.144 107.331 21.144H108.112ZM117.484 18.392C118.004 18.5029 118.422 18.7632 118.738 19.1728C119.054 19.5739 119.212 20.0347 119.212 20.5552C119.212 21.3061 118.947 21.9035 118.418 22.3472C117.897 22.7824 117.168 23 116.229 23H112.044V14.0144H116.088C117.001 14.0144 117.714 14.2235 118.226 14.6416C118.747 15.0597 119.007 15.6272 119.007 16.344C119.007 16.8731 118.866 17.3125 118.584 17.6624C118.311 18.0123 117.944 18.2555 117.484 18.392ZM114.232 17.6496H115.666C116.024 17.6496 116.297 17.5728 116.485 17.4192C116.681 17.2571 116.78 17.0224 116.78 16.7152C116.78 16.408 116.681 16.1733 116.485 16.0112C116.297 15.8491 116.024 15.768 115.666 15.768H114.232V17.6496ZM115.845 21.2336C116.212 21.2336 116.494 21.1525 116.69 20.9904C116.895 20.8197 116.997 20.5765 116.997 20.2608C116.997 19.9451 116.891 19.6976 116.677 19.5184C116.472 19.3392 116.187 19.2496 115.82 19.2496H114.232V21.2336H115.845ZM127.214 19.3136C127.214 19.5184 127.201 19.7317 127.176 19.9536H122.222C122.256 20.3973 122.397 20.7387 122.644 20.9776C122.9 21.208 123.212 21.3232 123.579 21.3232C124.125 21.3232 124.505 21.0928 124.718 20.632H127.048C126.928 21.1013 126.71 21.5237 126.395 21.8992C126.088 22.2747 125.699 22.5691 125.23 22.7824C124.761 22.9957 124.236 23.1024 123.656 23.1024C122.956 23.1024 122.333 22.9531 121.787 22.6544C121.241 22.3557 120.814 21.9291 120.507 21.3744C120.2 20.8197 120.046 20.1712 120.046 19.4288C120.046 18.6864 120.195 18.0379 120.494 17.4832C120.801 16.9285 121.228 16.5019 121.774 16.2032C122.32 15.9045 122.947 15.7552 123.656 15.7552C124.347 15.7552 124.961 15.9003 125.499 16.1904C126.036 16.4805 126.454 16.8944 126.753 17.432C127.06 17.9696 127.214 18.5968 127.214 19.3136ZM124.974 18.7376C124.974 18.3621 124.846 18.0635 124.59 17.8416C124.334 17.6197 124.014 17.5088 123.63 17.5088C123.263 17.5088 122.952 17.6155 122.696 17.8288C122.448 18.0421 122.294 18.3451 122.235 18.7376H124.974ZM132.759 15.7808C133.578 15.7808 134.235 16.0539 134.73 16.6C135.225 17.1376 135.473 17.88 135.473 18.8272V23H133.297V19.1216C133.297 18.6437 133.173 18.2725 132.925 18.008C132.678 17.7435 132.345 17.6112 131.927 17.6112C131.509 17.6112 131.176 17.7435 130.929 18.008C130.681 18.2725 130.557 18.6437 130.557 19.1216V23H128.369V13.528H130.557V16.8176C130.779 16.5019 131.082 16.2501 131.466 16.0624C131.85 15.8747 132.281 15.7808 132.759 15.7808ZM136.558 19.416C136.558 18.6821 136.695 18.0379 136.968 17.4832C137.25 16.9285 137.629 16.5019 138.107 16.2032C138.585 15.9045 139.118 15.7552 139.707 15.7552C140.211 15.7552 140.65 15.8576 141.026 16.0624C141.41 16.2672 141.704 16.536 141.909 16.8688V15.8576H144.098V23H141.909V21.9888C141.695 22.3216 141.397 22.5904 141.013 22.7952C140.637 23 140.198 23.1024 139.694 23.1024C139.114 23.1024 138.585 22.9531 138.107 22.6544C137.629 22.3472 137.25 21.9163 136.968 21.3616C136.695 20.7984 136.558 20.1499 136.558 19.416ZM141.909 19.4288C141.909 18.8827 141.755 18.4517 141.448 18.136C141.149 17.8203 140.782 17.6624 140.347 17.6624C139.912 17.6624 139.541 17.8203 139.234 18.136C138.935 18.4432 138.786 18.8699 138.786 19.416C138.786 19.9621 138.935 20.3973 139.234 20.7216C139.541 21.0373 139.912 21.1952 140.347 21.1952C140.782 21.1952 141.149 21.0373 141.448 20.7216C141.755 20.4059 141.909 19.9749 141.909 19.4288ZM147.87 13.528V23H145.681V13.528H147.87ZM153.04 17.6752H151.862V23H149.674V17.6752H148.88V15.8576H149.674V15.6528C149.674 14.7739 149.925 14.1083 150.429 13.656C150.932 13.1952 151.67 12.9648 152.643 12.9648C152.805 12.9648 152.925 12.9691 153.002 12.9776V14.8336C152.584 14.808 152.289 14.8677 152.118 15.0128C151.948 15.1579 151.862 15.4181 151.862 15.7936V15.8576H153.04V17.6752Z" fill="#F2F2F2"/>
</svg>
