<svg width="195" height="40" viewBox="0 0 195 40" fill="none" xmlns="http://www.w3.org/2000/svg">
<rect width="194.191" height="40" rx="4" fill="#C8AC48"/>
<mask id="mask0" mask-type="alpha" maskUnits="userSpaceOnUse" x="0" y="0" width="195" height="40">
<rect width="194.191" height="40" rx="4" fill="#A68C2F"/>
</mask>
<g mask="url(#mask0)">
<path d="M138.924 0L55.8394 40H194.191V0H138.924Z" fill="#B89D3B"/>
</g>
<path d="M58.7059 22.1433H55.3523L54.8147 23.7305H52.5235L55.7747 14.7449H58.3091L61.5603 23.7305H59.2435L58.7059 22.1433ZM58.1427 20.4537L57.0291 17.1641L55.9283 20.4537H58.1427ZM62.1146 20.1465C62.1146 19.4126 62.2512 18.7683 62.5242 18.2137C62.8058 17.659 63.1856 17.2323 63.6634 16.9337C64.1413 16.635 64.6746 16.4857 65.2634 16.4857C65.7328 16.4857 66.1594 16.5838 66.5434 16.7801C66.936 16.9763 67.2432 17.2409 67.465 17.5737V14.2585H69.6538V23.7305H67.465V22.7065C67.2602 23.0478 66.9658 23.3209 66.5818 23.5257C66.2064 23.7305 65.7669 23.8329 65.2634 23.8329C64.6746 23.8329 64.1413 23.6835 63.6634 23.3849C63.1856 23.0777 62.8058 22.6467 62.5242 22.0921C62.2512 21.5289 62.1146 20.8803 62.1146 20.1465ZM67.465 20.1593C67.465 19.6131 67.3114 19.1822 67.0042 18.8665C66.7056 18.5507 66.3386 18.3929 65.9034 18.3929C65.4682 18.3929 65.097 18.5507 64.7898 18.8665C64.4912 19.1737 64.3418 19.6003 64.3418 20.1465C64.3418 20.6926 64.4912 21.1278 64.7898 21.4521C65.097 21.7678 65.4682 21.9257 65.9034 21.9257C66.3386 21.9257 66.7056 21.7678 67.0042 21.4521C67.3114 21.1363 67.465 20.7054 67.465 20.1593ZM70.8021 20.1465C70.8021 19.4126 70.9387 18.7683 71.2117 18.2137C71.4933 17.659 71.8731 17.2323 72.3509 16.9337C72.8288 16.635 73.3621 16.4857 73.9509 16.4857C74.4203 16.4857 74.8469 16.5838 75.2309 16.7801C75.6235 16.9763 75.9307 17.2409 76.1525 17.5737V14.2585H78.3413V23.7305H76.1525V22.7065C75.9477 23.0478 75.6533 23.3209 75.2693 23.5257C74.8939 23.7305 74.4544 23.8329 73.9509 23.8329C73.3621 23.8329 72.8288 23.6835 72.3509 23.3849C71.8731 23.0777 71.4933 22.6467 71.2117 22.0921C70.9387 21.5289 70.8021 20.8803 70.8021 20.1465ZM76.1525 20.1593C76.1525 19.6131 75.9989 19.1822 75.6917 18.8665C75.3931 18.5507 75.0261 18.3929 74.5909 18.3929C74.1557 18.3929 73.7845 18.5507 73.4773 18.8665C73.1787 19.1737 73.0293 19.6003 73.0293 20.1465C73.0293 20.6926 73.1787 21.1278 73.4773 21.4521C73.7845 21.7678 74.1557 21.9257 74.5909 21.9257C75.0261 21.9257 75.3931 21.7678 75.6917 21.4521C75.9989 21.1363 76.1525 20.7054 76.1525 20.1593ZM90.6757 23.7305H88.4869L84.8261 18.1881V23.7305H82.6373V14.7449H84.8261L88.4869 20.3129V14.7449H90.6757V23.7305ZM98.9952 20.0441C98.9952 20.2489 98.9824 20.4622 98.9568 20.6841H94.0032C94.0373 21.1278 94.1781 21.4691 94.4256 21.7081C94.6816 21.9385 94.993 22.0537 95.36 22.0537C95.9061 22.0537 96.2858 21.8233 96.4992 21.3625H98.8288C98.7093 21.8318 98.4917 22.2542 98.176 22.6297C97.8688 23.0051 97.4805 23.2995 97.0112 23.5129C96.5418 23.7262 96.017 23.8329 95.4368 23.8329C94.737 23.8329 94.1141 23.6835 93.568 23.3849C93.0218 23.0862 92.5952 22.6595 92.288 22.1049C91.9808 21.5502 91.8272 20.9017 91.8272 20.1593C91.8272 19.4169 91.9765 18.7683 92.2752 18.2137C92.5824 17.659 93.009 17.2323 93.5552 16.9337C94.1013 16.635 94.7285 16.4857 95.4368 16.4857C96.128 16.4857 96.7424 16.6307 97.28 16.9209C97.8176 17.211 98.2357 17.6249 98.5344 18.1625C98.8416 18.7001 98.9952 19.3273 98.9952 20.0441ZM96.7552 19.4681C96.7552 19.0926 96.6272 18.7939 96.3712 18.5721C96.1152 18.3502 95.7952 18.2393 95.4112 18.2393C95.0442 18.2393 94.7328 18.3459 94.4768 18.5593C94.2293 18.7726 94.0757 19.0755 94.016 19.4681H96.7552ZM110.403 16.5881L108.47 23.7305H106.051L104.924 19.0969L103.759 23.7305H101.353L99.4074 16.5881H101.596L102.607 21.6953L103.811 16.5881H106.127L107.343 21.6697L108.342 16.5881H110.403ZM116.1 14.7449V20.1209C116.1 20.6585 116.233 21.0723 116.497 21.3625C116.762 21.6526 117.15 21.7977 117.662 21.7977C118.174 21.7977 118.566 21.6526 118.839 21.3625C119.113 21.0723 119.249 20.6585 119.249 20.1209V14.7449H121.438V20.1081C121.438 20.9102 121.267 21.5886 120.926 22.1433C120.585 22.6979 120.124 23.1161 119.543 23.3977C118.972 23.6793 118.332 23.8201 117.623 23.8201C116.915 23.8201 116.279 23.6835 115.716 23.4105C115.162 23.1289 114.722 22.7107 114.398 22.1561C114.074 21.5929 113.911 20.9102 113.911 20.1081V14.7449H116.1ZM125.88 23.8329C125.258 23.8329 124.703 23.7262 124.216 23.5129C123.73 23.2995 123.346 23.0094 123.064 22.6425C122.783 22.267 122.625 21.8489 122.591 21.3881H124.754C124.78 21.6355 124.895 21.8361 125.1 21.9897C125.304 22.1433 125.556 22.2201 125.855 22.2201C126.128 22.2201 126.337 22.1689 126.482 22.0665C126.636 21.9555 126.712 21.8147 126.712 21.6441C126.712 21.4393 126.606 21.2899 126.392 21.1961C126.179 21.0937 125.834 20.9827 125.356 20.8633C124.844 20.7438 124.417 20.6201 124.076 20.4921C123.734 20.3555 123.44 20.1465 123.192 19.8649C122.945 19.5747 122.821 19.1865 122.821 18.7001C122.821 18.2905 122.932 17.9193 123.154 17.5865C123.384 17.2451 123.717 16.9763 124.152 16.7801C124.596 16.5838 125.121 16.4857 125.727 16.4857C126.623 16.4857 127.327 16.7075 127.839 17.1513C128.359 17.595 128.658 18.1838 128.735 18.9177H126.712C126.678 18.6702 126.567 18.4739 126.38 18.3289C126.2 18.1838 125.962 18.1113 125.663 18.1113C125.407 18.1113 125.211 18.1625 125.074 18.2649C124.938 18.3587 124.869 18.491 124.869 18.6617C124.869 18.8665 124.976 19.0201 125.189 19.1225C125.411 19.2249 125.752 19.3273 126.213 19.4297C126.742 19.5662 127.173 19.7027 127.506 19.8393C127.839 19.9673 128.129 20.1806 128.376 20.4793C128.632 20.7694 128.765 21.1619 128.773 21.6569C128.773 22.075 128.654 22.4505 128.415 22.7833C128.184 23.1075 127.847 23.3635 127.404 23.5513C126.968 23.739 126.461 23.8329 125.88 23.8329ZM136.845 20.0441C136.845 20.2489 136.832 20.4622 136.807 20.6841H131.853C131.887 21.1278 132.028 21.4691 132.276 21.7081C132.532 21.9385 132.843 22.0537 133.21 22.0537C133.756 22.0537 134.136 21.8233 134.349 21.3625H136.679C136.559 21.8318 136.342 22.2542 136.026 22.6297C135.719 23.0051 135.33 23.2995 134.861 23.5129C134.392 23.7262 133.867 23.8329 133.287 23.8329C132.587 23.8329 131.964 23.6835 131.418 23.3849C130.872 23.0862 130.445 22.6595 130.138 22.1049C129.831 21.5502 129.677 20.9017 129.677 20.1593C129.677 19.4169 129.826 18.7683 130.125 18.2137C130.432 17.659 130.859 17.2323 131.405 16.9337C131.951 16.635 132.578 16.4857 133.287 16.4857C133.978 16.4857 134.592 16.6307 135.13 16.9209C135.668 17.211 136.086 17.6249 136.384 18.1625C136.692 18.7001 136.845 19.3273 136.845 20.0441ZM134.605 19.4681C134.605 19.0926 134.477 18.7939 134.221 18.5721C133.965 18.3502 133.645 18.2393 133.261 18.2393C132.894 18.2393 132.583 18.3459 132.327 18.5593C132.079 18.7726 131.926 19.0755 131.866 19.4681H134.605ZM140.189 17.7785C140.445 17.3859 140.765 17.0787 141.149 16.8569C141.533 16.6265 141.959 16.5113 142.429 16.5113V18.8281H141.827C141.281 18.8281 140.871 18.9475 140.598 19.1865C140.325 19.4169 140.189 19.8265 140.189 20.4153V23.7305H138V16.5881H140.189V17.7785Z" fill="#F2F2F2"/>
</svg>
