<svg width="195" height="37" viewBox="0 0 195 37" fill="none" xmlns="http://www.w3.org/2000/svg">
<rect width="194.191" height="37" rx="4" fill="#C8AC48"/>
<mask id="mask0" mask-type="alpha" maskUnits="userSpaceOnUse" x="0" y="0" width="195" height="37">
<rect width="194.191" height="37" rx="4" fill="#A68C2F"/>
</mask>
<g mask="url(#mask0)">
<path d="M138.924 0L55.8394 37H194.191V0H138.924Z" fill="#B89D3B"/>
</g>
<path d="M50.3872 21.4128H47.0336L46.496 23H44.2048L47.456 14.0144H49.9904L53.2416 23H50.9248L50.3872 21.4128ZM49.824 19.7232L48.7104 16.4336L47.6096 19.7232H49.824ZM53.7959 19.416C53.7959 18.6821 53.9324 18.0379 54.2055 17.4832C54.4871 16.9285 54.8668 16.5019 55.3447 16.2032C55.8226 15.9045 56.3559 15.7552 56.9447 15.7552C57.414 15.7552 57.8407 15.8533 58.2247 16.0496C58.6172 16.2459 58.9244 16.5104 59.1463 16.8432V13.528H61.3351V23H59.1463V21.976C58.9415 22.3173 58.6471 22.5904 58.2631 22.7952C57.8876 23 57.4482 23.1024 56.9447 23.1024C56.3559 23.1024 55.8226 22.9531 55.3447 22.6544C54.8668 22.3472 54.4871 21.9163 54.2055 21.3616C53.9324 20.7984 53.7959 20.1499 53.7959 19.416ZM59.1463 19.4288C59.1463 18.8827 58.9927 18.4517 58.6855 18.136C58.3868 17.8203 58.0199 17.6624 57.5847 17.6624C57.1495 17.6624 56.7783 17.8203 56.4711 18.136C56.1724 18.4432 56.0231 18.8699 56.0231 19.416C56.0231 19.9621 56.1724 20.3973 56.4711 20.7216C56.7783 21.0373 57.1495 21.1952 57.5847 21.1952C58.0199 21.1952 58.3868 21.0373 58.6855 20.7216C58.9927 20.4059 59.1463 19.9749 59.1463 19.4288ZM62.4834 19.416C62.4834 18.6821 62.6199 18.0379 62.893 17.4832C63.1746 16.9285 63.5543 16.5019 64.0322 16.2032C64.5101 15.9045 65.0434 15.7552 65.6322 15.7552C66.1015 15.7552 66.5282 15.8533 66.9122 16.0496C67.3047 16.2459 67.6119 16.5104 67.8338 16.8432V13.528H70.0226V23H67.8338V21.976C67.629 22.3173 67.3346 22.5904 66.9506 22.7952C66.5751 23 66.1357 23.1024 65.6322 23.1024C65.0434 23.1024 64.5101 22.9531 64.0322 22.6544C63.5543 22.3472 63.1746 21.9163 62.893 21.3616C62.6199 20.7984 62.4834 20.1499 62.4834 19.416ZM67.8338 19.4288C67.8338 18.8827 67.6802 18.4517 67.373 18.136C67.0743 17.8203 66.7074 17.6624 66.2722 17.6624C65.837 17.6624 65.4658 17.8203 65.1586 18.136C64.8599 18.4432 64.7106 18.8699 64.7106 19.416C64.7106 19.9621 64.8599 20.3973 65.1586 20.7216C65.4658 21.0373 65.837 21.1952 66.2722 21.1952C66.7074 21.1952 67.0743 21.0373 67.373 20.7216C67.6802 20.4059 67.8338 19.9749 67.8338 19.4288ZM77.5698 23.0896C76.9127 23.0896 76.3239 22.9829 75.8034 22.7696C75.2829 22.5563 74.8647 22.2405 74.549 21.8224C74.2418 21.4043 74.0797 20.9008 74.0626 20.312H76.3922C76.4263 20.6448 76.5415 20.9008 76.7378 21.08C76.9341 21.2507 77.1901 21.336 77.5058 21.336C77.8301 21.336 78.0861 21.2635 78.2738 21.1184C78.4615 20.9648 78.5554 20.7557 78.5554 20.4912C78.5554 20.2693 78.4786 20.0859 78.325 19.9408C78.1799 19.7957 77.9965 19.6763 77.7746 19.5824C77.5613 19.4885 77.2541 19.3819 76.853 19.2624C76.2727 19.0832 75.7991 18.904 75.4322 18.7248C75.0653 18.5456 74.7495 18.2811 74.485 17.9312C74.2205 17.5813 74.0882 17.1248 74.0882 16.5616C74.0882 15.7253 74.3911 15.0725 74.997 14.6032C75.6029 14.1253 76.3922 13.8864 77.365 13.8864C78.3549 13.8864 79.1527 14.1253 79.7586 14.6032C80.3645 15.0725 80.6887 15.7296 80.7314 16.5744H78.3634C78.3463 16.2843 78.2397 16.0581 78.0434 15.896C77.8471 15.7253 77.5954 15.64 77.2882 15.64C77.0237 15.64 76.8103 15.7125 76.6482 15.8576C76.4861 15.9941 76.405 16.1947 76.405 16.4592C76.405 16.7493 76.5415 16.9755 76.8146 17.1376C77.0877 17.2997 77.5143 17.4747 78.0946 17.6624C78.6749 17.8587 79.1442 18.0464 79.5026 18.2256C79.8695 18.4048 80.1853 18.6651 80.4498 19.0064C80.7143 19.3477 80.8466 19.7872 80.8466 20.3248C80.8466 20.8368 80.7143 21.3019 80.4498 21.72C80.1938 22.1381 79.8183 22.4709 79.3234 22.7184C78.8285 22.9659 78.2439 23.0896 77.5698 23.0896ZM89.2464 15.8576V23H87.0576V22.0272C86.8357 22.3429 86.5328 22.5989 86.1488 22.7952C85.7733 22.9829 85.3552 23.0768 84.8944 23.0768C84.3483 23.0768 83.8661 22.9573 83.448 22.7184C83.0299 22.4709 82.7056 22.1168 82.4752 21.656C82.2448 21.1952 82.1296 20.6533 82.1296 20.0304V15.8576H84.3056V19.736C84.3056 20.2139 84.4293 20.5851 84.6768 20.8496C84.9243 21.1141 85.2571 21.2464 85.6752 21.2464C86.1019 21.2464 86.4389 21.1141 86.6864 20.8496C86.9339 20.5851 87.0576 20.2139 87.0576 19.736V15.8576H89.2464ZM93.0074 16.8688C93.2122 16.536 93.5066 16.2672 93.8906 16.0624C94.2746 15.8576 94.7141 15.7552 95.209 15.7552C95.7978 15.7552 96.3311 15.9045 96.809 16.2032C97.2869 16.5019 97.6623 16.9285 97.9354 17.4832C98.217 18.0379 98.3578 18.6821 98.3578 19.416C98.3578 20.1499 98.217 20.7984 97.9354 21.3616C97.6623 21.9163 97.2869 22.3472 96.809 22.6544C96.3311 22.9531 95.7978 23.1024 95.209 23.1024C94.7055 23.1024 94.2661 23.0043 93.8906 22.808C93.5151 22.6032 93.2207 22.3344 93.0074 22.0016V23H90.8186V13.528H93.0074V16.8688ZM96.1306 19.416C96.1306 18.8699 95.977 18.4432 95.6698 18.136C95.3711 17.8203 94.9999 17.6624 94.5562 17.6624C94.121 17.6624 93.7498 17.8203 93.4426 18.136C93.1439 18.4517 92.9946 18.8827 92.9946 19.4288C92.9946 19.9749 93.1439 20.4059 93.4426 20.7216C93.7498 21.0373 94.121 21.1952 94.5562 21.1952C94.9914 21.1952 95.3626 21.0373 95.6698 20.7216C95.977 20.3973 96.1306 19.9621 96.1306 19.416ZM105.585 14.0144C106.532 14.0144 107.36 14.2021 108.068 14.5776C108.776 14.9531 109.323 15.4821 109.707 16.1648C110.099 16.8389 110.295 17.6197 110.295 18.5072C110.295 19.3861 110.099 20.1669 109.707 20.8496C109.323 21.5323 108.772 22.0613 108.055 22.4368C107.347 22.8123 106.524 23 105.585 23H102.219V14.0144H105.585ZM105.444 21.1056C106.272 21.1056 106.916 20.8795 107.377 20.4272C107.838 19.9749 108.068 19.3349 108.068 18.5072C108.068 17.6795 107.838 17.0352 107.377 16.5744C106.916 16.1136 106.272 15.8832 105.444 15.8832H104.407V21.1056H105.444ZM112.619 15.1152C112.235 15.1152 111.92 15.0043 111.672 14.7824C111.433 14.552 111.314 14.2704 111.314 13.9376C111.314 13.5963 111.433 13.3147 111.672 13.0928C111.92 12.8624 112.235 12.7472 112.619 12.7472C112.995 12.7472 113.302 12.8624 113.541 13.0928C113.788 13.3147 113.912 13.5963 113.912 13.9376C113.912 14.2704 113.788 14.552 113.541 14.7824C113.302 15.0043 112.995 15.1152 112.619 15.1152ZM113.707 15.8576V23H111.519V15.8576H113.707ZM118.199 23.1024C117.576 23.1024 117.022 22.9957 116.535 22.7824C116.049 22.5691 115.665 22.2789 115.383 21.912C115.102 21.5365 114.944 21.1184 114.91 20.6576H117.073C117.098 20.9051 117.214 21.1056 117.418 21.2592C117.623 21.4128 117.875 21.4896 118.174 21.4896C118.447 21.4896 118.656 21.4384 118.801 21.336C118.954 21.2251 119.031 21.0843 119.031 20.9136C119.031 20.7088 118.925 20.5595 118.711 20.4656C118.498 20.3632 118.152 20.2523 117.674 20.1328C117.162 20.0133 116.736 19.8896 116.394 19.7616C116.053 19.6251 115.759 19.416 115.511 19.1344C115.264 18.8443 115.14 18.456 115.14 17.9696C115.14 17.56 115.251 17.1888 115.473 16.856C115.703 16.5147 116.036 16.2459 116.471 16.0496C116.915 15.8533 117.44 15.7552 118.046 15.7552C118.942 15.7552 119.646 15.9771 120.158 16.4208C120.678 16.8645 120.977 17.4533 121.054 18.1872H119.031C118.997 17.9397 118.886 17.7435 118.698 17.5984C118.519 17.4533 118.28 17.3808 117.982 17.3808C117.726 17.3808 117.529 17.432 117.393 17.5344C117.256 17.6283 117.188 17.7605 117.188 17.9312C117.188 18.136 117.295 18.2896 117.508 18.392C117.73 18.4944 118.071 18.5968 118.532 18.6992C119.061 18.8357 119.492 18.9723 119.825 19.1088C120.158 19.2368 120.448 19.4501 120.695 19.7488C120.951 20.0389 121.083 20.4315 121.092 20.9264C121.092 21.3445 120.973 21.72 120.734 22.0528C120.503 22.3771 120.166 22.6331 119.722 22.8208C119.287 23.0085 118.779 23.1024 118.199 23.1024ZM126.412 21.144V23H125.298C124.505 23 123.886 22.808 123.442 22.424C122.999 22.0315 122.777 21.3957 122.777 20.5168V17.6752H121.906V15.8576H122.777V14.1168H124.965V15.8576H126.399V17.6752H124.965V20.5424C124.965 20.7557 125.017 20.9093 125.119 21.0032C125.221 21.0971 125.392 21.144 125.631 21.144H126.412ZM129.82 17.048C130.076 16.6555 130.396 16.3483 130.78 16.1264C131.164 15.896 131.591 15.7808 132.06 15.7808V18.0976H131.458C130.912 18.0976 130.503 18.2171 130.23 18.456C129.956 18.6864 129.82 19.096 129.82 19.6848V23H127.631V15.8576H129.82V17.048ZM134.207 15.1152C133.823 15.1152 133.507 15.0043 133.26 14.7824C133.021 14.552 132.901 14.2704 132.901 13.9376C132.901 13.5963 133.021 13.3147 133.26 13.0928C133.507 12.8624 133.823 12.7472 134.207 12.7472C134.582 12.7472 134.89 12.8624 135.129 13.0928C135.376 13.3147 135.5 13.5963 135.5 13.9376C135.5 14.2704 135.376 14.552 135.129 14.7824C134.89 15.0043 134.582 15.1152 134.207 15.1152ZM135.295 15.8576V23H133.106V15.8576H135.295ZM136.446 19.4288C136.446 18.6864 136.595 18.0379 136.894 17.4832C137.201 16.9285 137.624 16.5019 138.161 16.2032C138.707 15.9045 139.33 15.7552 140.03 15.7552C140.926 15.7552 141.673 15.9899 142.27 16.4592C142.876 16.9285 143.273 17.5899 143.46 18.4432H141.131C140.934 17.8971 140.555 17.624 139.992 17.624C139.59 17.624 139.27 17.7819 139.032 18.0976C138.793 18.4048 138.673 18.8485 138.673 19.4288C138.673 20.0091 138.793 20.4571 139.032 20.7728C139.27 21.08 139.59 21.2336 139.992 21.2336C140.555 21.2336 140.934 20.9605 141.131 20.4144H143.46C143.273 21.2507 142.876 21.9077 142.27 22.3856C141.664 22.8635 140.917 23.1024 140.03 23.1024C139.33 23.1024 138.707 22.9531 138.161 22.6544C137.624 22.3557 137.201 21.9291 136.894 21.3744C136.595 20.8197 136.446 20.1712 136.446 19.4288ZM148.612 21.144V23H147.498C146.705 23 146.086 22.808 145.642 22.424C145.199 22.0315 144.977 21.3957 144.977 20.5168V17.6752H144.106V15.8576H144.977V14.1168H147.166V15.8576H148.599V17.6752H147.166V20.5424C147.166 20.7557 147.217 20.9093 147.319 21.0032C147.422 21.0971 147.592 21.144 147.831 21.144H148.612Z" fill="#F2F2F2"/>
</svg>
