<svg width="195" height="37" viewBox="0 0 195 37" fill="none" xmlns="http://www.w3.org/2000/svg">
<rect width="194.191" height="37" rx="4" fill="#C8AC48"/>
<mask id="mask0" mask-type="alpha" maskUnits="userSpaceOnUse" x="0" y="0" width="195" height="37">
<rect width="194.191" height="37" rx="4" fill="#A68C2F"/>
</mask>
<g mask="url(#mask0)">
<path d="M138.924 0L55.8394 37H194.191V0H138.924Z" fill="#B89D3B"/>
</g>
<path d="M43.3872 21.4128H40.0336L39.496 23H37.2048L40.456 14.0144H42.9904L46.2416 23H43.9248L43.3872 21.4128ZM42.824 19.7232L41.7104 16.4336L40.6096 19.7232H42.824ZM46.7959 19.416C46.7959 18.6821 46.9324 18.0379 47.2055 17.4832C47.4871 16.9285 47.8668 16.5019 48.3447 16.2032C48.8226 15.9045 49.3559 15.7552 49.9447 15.7552C50.414 15.7552 50.8407 15.8533 51.2247 16.0496C51.6172 16.2459 51.9244 16.5104 52.1463 16.8432V13.528H54.3351V23H52.1463V21.976C51.9415 22.3173 51.6471 22.5904 51.2631 22.7952C50.8876 23 50.4482 23.1024 49.9447 23.1024C49.3559 23.1024 48.8226 22.9531 48.3447 22.6544C47.8668 22.3472 47.4871 21.9163 47.2055 21.3616C46.9324 20.7984 46.7959 20.1499 46.7959 19.416ZM52.1463 19.4288C52.1463 18.8827 51.9927 18.4517 51.6855 18.136C51.3868 17.8203 51.0199 17.6624 50.5847 17.6624C50.1495 17.6624 49.7783 17.8203 49.4711 18.136C49.1724 18.4432 49.0231 18.8699 49.0231 19.416C49.0231 19.9621 49.1724 20.3973 49.4711 20.7216C49.7783 21.0373 50.1495 21.1952 50.5847 21.1952C51.0199 21.1952 51.3868 21.0373 51.6855 20.7216C51.9927 20.4059 52.1463 19.9749 52.1463 19.4288ZM55.4834 19.416C55.4834 18.6821 55.6199 18.0379 55.893 17.4832C56.1746 16.9285 56.5543 16.5019 57.0322 16.2032C57.5101 15.9045 58.0434 15.7552 58.6322 15.7552C59.1015 15.7552 59.5282 15.8533 59.9122 16.0496C60.3047 16.2459 60.6119 16.5104 60.8338 16.8432V13.528H63.0226V23H60.8338V21.976C60.629 22.3173 60.3346 22.5904 59.9506 22.7952C59.5751 23 59.1357 23.1024 58.6322 23.1024C58.0434 23.1024 57.5101 22.9531 57.0322 22.6544C56.5543 22.3472 56.1746 21.9163 55.893 21.3616C55.6199 20.7984 55.4834 20.1499 55.4834 19.416ZM60.8338 19.4288C60.8338 18.8827 60.6802 18.4517 60.373 18.136C60.0743 17.8203 59.7074 17.6624 59.2722 17.6624C58.837 17.6624 58.4658 17.8203 58.1586 18.136C57.8599 18.4432 57.7106 18.8699 57.7106 19.416C57.7106 19.9621 57.8599 20.3973 58.1586 20.7216C58.4658 21.0373 58.837 21.1952 59.2722 21.1952C59.7074 21.1952 60.0743 21.0373 60.373 20.7216C60.6802 20.4059 60.8338 19.9749 60.8338 19.4288ZM74.1666 16.9072C74.1666 17.4277 74.0471 17.9056 73.8082 18.3408C73.5693 18.7675 73.2023 19.1131 72.7074 19.3776C72.2125 19.6421 71.5981 19.7744 70.8642 19.7744H69.5074V23H67.3186V14.0144H70.8642C71.581 14.0144 72.1869 14.1381 72.6818 14.3856C73.1767 14.6331 73.5479 14.9744 73.7954 15.4096C74.0429 15.8448 74.1666 16.344 74.1666 16.9072ZM70.6978 18.0336C71.1159 18.0336 71.4274 17.9355 71.6322 17.7392C71.837 17.5429 71.9394 17.2656 71.9394 16.9072C71.9394 16.5488 71.837 16.2715 71.6322 16.0752C71.4274 15.8789 71.1159 15.7808 70.6978 15.7808H69.5074V18.0336H70.6978ZM78.5573 23.1024C77.8576 23.1024 77.2261 22.9531 76.6629 22.6544C76.1082 22.3557 75.6688 21.9291 75.3445 21.3744C75.0288 20.8197 74.8709 20.1712 74.8709 19.4288C74.8709 18.6949 75.033 18.0507 75.3573 17.496C75.6816 16.9328 76.1253 16.5019 76.6885 16.2032C77.2517 15.9045 77.8832 15.7552 78.5829 15.7552C79.2826 15.7552 79.9141 15.9045 80.4773 16.2032C81.0405 16.5019 81.4842 16.9328 81.8085 17.496C82.1328 18.0507 82.2949 18.6949 82.2949 19.4288C82.2949 20.1627 82.1285 20.8112 81.7957 21.3744C81.4714 21.9291 81.0234 22.3557 80.4517 22.6544C79.8885 22.9531 79.257 23.1024 78.5573 23.1024ZM78.5573 21.208C78.9754 21.208 79.3296 21.0544 79.6197 20.7472C79.9184 20.44 80.0677 20.0005 80.0677 19.4288C80.0677 18.8571 79.9226 18.4176 79.6325 18.1104C79.3509 17.8032 79.001 17.6496 78.5829 17.6496C78.1562 17.6496 77.8021 17.8032 77.5205 18.1104C77.2389 18.4091 77.0981 18.8485 77.0981 19.4288C77.0981 20.0005 77.2346 20.44 77.5077 20.7472C77.7893 21.0544 78.1392 21.208 78.5573 21.208ZM85.6449 13.528V23H83.4561V13.528H85.6449ZM88.3319 15.1152C87.9479 15.1152 87.6322 15.0043 87.3847 14.7824C87.1458 14.552 87.0263 14.2704 87.0263 13.9376C87.0263 13.5963 87.1458 13.3147 87.3847 13.0928C87.6322 12.8624 87.9479 12.7472 88.3319 12.7472C88.7074 12.7472 89.0146 12.8624 89.2535 13.0928C89.501 13.3147 89.6247 13.5963 89.6247 13.9376C89.6247 14.2704 89.501 14.552 89.2535 14.7824C89.0146 15.0043 88.7074 15.1152 88.3319 15.1152ZM89.4199 15.8576V23H87.2311V15.8576H89.4199ZM90.5709 19.4288C90.5709 18.6864 90.7202 18.0379 91.0189 17.4832C91.3261 16.9285 91.7485 16.5019 92.2861 16.2032C92.8322 15.9045 93.4552 15.7552 94.1549 15.7552C95.0509 15.7552 95.7976 15.9899 96.3949 16.4592C97.0008 16.9285 97.3976 17.5899 97.5853 18.4432H95.2557C95.0594 17.8971 94.6797 17.624 94.1165 17.624C93.7154 17.624 93.3954 17.7819 93.1565 18.0976C92.9176 18.4048 92.7981 18.8485 92.7981 19.4288C92.7981 20.0091 92.9176 20.4571 93.1565 20.7728C93.3954 21.08 93.7154 21.2336 94.1165 21.2336C94.6797 21.2336 95.0594 20.9605 95.2557 20.4144H97.5853C97.3976 21.2507 97.0008 21.9077 96.3949 22.3856C95.789 22.8635 95.0424 23.1024 94.1549 23.1024C93.4552 23.1024 92.8322 22.9531 92.2861 22.6544C91.7485 22.3557 91.3261 21.9291 91.0189 21.3744C90.7202 20.8197 90.5709 20.1712 90.5709 19.4288ZM105.489 19.3136C105.489 19.5184 105.476 19.7317 105.451 19.9536H100.497C100.531 20.3973 100.672 20.7387 100.919 20.9776C101.175 21.208 101.487 21.3232 101.854 21.3232C102.4 21.3232 102.78 21.0928 102.993 20.632H105.323C105.203 21.1013 104.985 21.5237 104.67 21.8992C104.363 22.2747 103.974 22.5691 103.505 22.7824C103.036 22.9957 102.511 23.1024 101.931 23.1024C101.231 23.1024 100.608 22.9531 100.062 22.6544C99.5156 22.3557 99.0889 21.9291 98.7817 21.3744C98.4745 20.8197 98.3209 20.1712 98.3209 19.4288C98.3209 18.6864 98.4702 18.0379 98.7689 17.4832C99.0761 16.9285 99.5028 16.5019 100.049 16.2032C100.595 15.9045 101.222 15.7552 101.931 15.7552C102.622 15.7552 103.236 15.9003 103.774 16.1904C104.311 16.4805 104.729 16.8944 105.028 17.432C105.335 17.9696 105.489 18.5968 105.489 19.3136ZM103.249 18.7376C103.249 18.3621 103.121 18.0635 102.865 17.8416C102.609 17.6197 102.289 17.5088 101.905 17.5088C101.538 17.5088 101.227 17.6155 100.971 17.8288C100.723 18.0421 100.569 18.3451 100.51 18.7376H103.249ZM112.607 23.0896C111.95 23.0896 111.361 22.9829 110.841 22.7696C110.32 22.5563 109.902 22.2405 109.587 21.8224C109.279 21.4043 109.117 20.9008 109.1 20.312H111.43C111.464 20.6448 111.579 20.9008 111.775 21.08C111.972 21.2507 112.228 21.336 112.543 21.336C112.868 21.336 113.124 21.2635 113.311 21.1184C113.499 20.9648 113.593 20.7557 113.593 20.4912C113.593 20.2693 113.516 20.0859 113.363 19.9408C113.217 19.7957 113.034 19.6763 112.812 19.5824C112.599 19.4885 112.292 19.3819 111.891 19.2624C111.31 19.0832 110.837 18.904 110.47 18.7248C110.103 18.5456 109.787 18.2811 109.523 17.9312C109.258 17.5813 109.126 17.1248 109.126 16.5616C109.126 15.7253 109.429 15.0725 110.035 14.6032C110.64 14.1253 111.43 13.8864 112.403 13.8864C113.392 13.8864 114.19 14.1253 114.796 14.6032C115.402 15.0725 115.726 15.7296 115.769 16.5744H113.401C113.384 16.2843 113.277 16.0581 113.081 15.896C112.885 15.7253 112.633 15.64 112.326 15.64C112.061 15.64 111.848 15.7125 111.686 15.8576C111.524 15.9941 111.443 16.1947 111.443 16.4592C111.443 16.7493 111.579 16.9755 111.852 17.1376C112.125 17.2997 112.552 17.4747 113.132 17.6624C113.712 17.8587 114.182 18.0464 114.54 18.2256C114.907 18.4048 115.223 18.6651 115.487 19.0064C115.752 19.3477 115.884 19.7872 115.884 20.3248C115.884 20.8368 115.752 21.3019 115.487 21.72C115.231 22.1381 114.856 22.4709 114.361 22.7184C113.866 22.9659 113.281 23.0896 112.607 23.0896ZM121.212 21.144V23H120.098C119.305 23 118.686 22.808 118.242 22.424C117.799 22.0315 117.577 21.3957 117.577 20.5168V17.6752H116.706V15.8576H117.577V14.1168H119.766V15.8576H121.199V17.6752H119.766V20.5424C119.766 20.7557 119.817 20.9093 119.919 21.0032C120.022 21.0971 120.192 21.144 120.431 21.144H121.212ZM121.996 19.416C121.996 18.6821 122.132 18.0379 122.406 17.4832C122.687 16.9285 123.067 16.5019 123.545 16.2032C124.023 15.9045 124.556 15.7552 125.145 15.7552C125.648 15.7552 126.088 15.8576 126.463 16.0624C126.847 16.2672 127.142 16.536 127.346 16.8688V15.8576H129.535V23H127.346V21.9888C127.133 22.3216 126.834 22.5904 126.45 22.7952C126.075 23 125.635 23.1024 125.132 23.1024C124.552 23.1024 124.023 22.9531 123.545 22.6544C123.067 22.3472 122.687 21.9163 122.406 21.3616C122.132 20.7984 121.996 20.1499 121.996 19.416ZM127.346 19.4288C127.346 18.8827 127.193 18.4517 126.886 18.136C126.587 17.8203 126.22 17.6624 125.785 17.6624C125.35 17.6624 124.978 17.8203 124.671 18.136C124.372 18.4432 124.223 18.8699 124.223 19.416C124.223 19.9621 124.372 20.3973 124.671 20.7216C124.978 21.0373 125.35 21.1952 125.785 21.1952C126.22 21.1952 126.587 21.0373 126.886 20.7216C127.193 20.4059 127.346 19.9749 127.346 19.4288ZM135.099 21.144V23H133.986C133.192 23 132.574 22.808 132.13 22.424C131.686 22.0315 131.464 21.3957 131.464 20.5168V17.6752H130.594V15.8576H131.464V14.1168H133.653V15.8576H135.087V17.6752H133.653V20.5424C133.653 20.7557 133.704 20.9093 133.807 21.0032C133.909 21.0971 134.08 21.144 134.319 21.144H135.099ZM137.419 15.1152C137.035 15.1152 136.72 15.0043 136.472 14.7824C136.233 14.552 136.114 14.2704 136.114 13.9376C136.114 13.5963 136.233 13.3147 136.472 13.0928C136.72 12.8624 137.035 12.7472 137.419 12.7472C137.795 12.7472 138.102 12.8624 138.341 13.0928C138.588 13.3147 138.712 13.5963 138.712 13.9376C138.712 14.2704 138.588 14.552 138.341 14.7824C138.102 15.0043 137.795 15.1152 137.419 15.1152ZM138.507 15.8576V23H136.319V15.8576H138.507ZM143.345 23.1024C142.645 23.1024 142.014 22.9531 141.45 22.6544C140.896 22.3557 140.456 21.9291 140.132 21.3744C139.816 20.8197 139.658 20.1712 139.658 19.4288C139.658 18.6949 139.821 18.0507 140.145 17.496C140.469 16.9328 140.913 16.5019 141.476 16.2032C142.039 15.9045 142.671 15.7552 143.37 15.7552C144.07 15.7552 144.702 15.9045 145.265 16.2032C145.828 16.5019 146.272 16.9328 146.596 17.496C146.92 18.0507 147.082 18.6949 147.082 19.4288C147.082 20.1627 146.916 20.8112 146.583 21.3744C146.259 21.9291 145.811 22.3557 145.239 22.6544C144.676 22.9531 144.045 23.1024 143.345 23.1024ZM143.345 21.208C143.763 21.208 144.117 21.0544 144.407 20.7472C144.706 20.44 144.855 20.0005 144.855 19.4288C144.855 18.8571 144.71 18.4176 144.42 18.1104C144.138 17.8032 143.789 17.6496 143.37 17.6496C142.944 17.6496 142.59 17.8032 142.308 18.1104C142.026 18.4091 141.886 18.8485 141.886 19.4288C141.886 20.0005 142.022 20.44 142.295 20.7472C142.577 21.0544 142.927 21.208 143.345 21.208ZM152.596 15.7808C153.432 15.7808 154.097 16.0539 154.592 16.6C155.096 17.1376 155.348 17.88 155.348 18.8272V23H153.172V19.1216C153.172 18.6437 153.048 18.2725 152.8 18.008C152.553 17.7435 152.22 17.6112 151.802 17.6112C151.384 17.6112 151.051 17.7435 150.804 18.008C150.556 18.2725 150.432 18.6437 150.432 19.1216V23H148.244V15.8576H150.432V16.8048C150.654 16.4891 150.953 16.2416 151.328 16.0624C151.704 15.8747 152.126 15.7808 152.596 15.7808Z" fill="#F2F2F2"/>
</svg>
