<svg width="195" height="37" viewBox="0 0 195 37" fill="none" xmlns="http://www.w3.org/2000/svg">
<rect width="194.191" height="37" rx="4" fill="#C8AC48"/>
<mask id="mask0" mask-type="alpha" maskUnits="userSpaceOnUse" x="0" y="0" width="195" height="37">
<rect width="194.191" height="37" rx="4" fill="#A68C2F"/>
</mask>
<g mask="url(#mask0)">
<path d="M138.924 0L55.8394 37H194.191V0H138.924Z" fill="#B89D3B"/>
</g>
<path d="M52.3616 21.3488H48.9696L48.4064 23H46.1024L49.4176 14.0144H51.9392L55.2544 23H52.9248L52.3616 21.3488ZM51.7984 19.6848L50.672 16.3568L49.5328 19.6848H51.7984ZM58.8188 15.768C59.3649 15.768 59.8343 15.8917 60.2268 16.1392C60.6193 16.3867 60.9052 16.7237 61.0844 17.1504V13.528H63.2732V23H61.0844V21.7072C60.9052 22.1339 60.6193 22.4709 60.2268 22.7184C59.8343 22.9659 59.3649 23.0896 58.8188 23.0896C58.23 23.0896 57.7009 22.9445 57.2316 22.6544C56.7708 22.3557 56.4039 21.9291 56.1308 21.3744C55.8663 20.8197 55.734 20.1712 55.734 19.4288C55.734 18.6779 55.8663 18.0293 56.1308 17.4832C56.4039 16.9285 56.7708 16.5061 57.2316 16.216C57.7009 15.9173 58.23 15.768 58.8188 15.768ZM59.5228 17.688C59.0535 17.688 58.6737 17.8416 58.3836 18.1488C58.102 18.456 57.9612 18.8827 57.9612 19.4288C57.9612 19.9749 58.102 20.4016 58.3836 20.7088C58.6737 21.016 59.0535 21.1696 59.5228 21.1696C59.9836 21.1696 60.3591 21.0117 60.6492 20.696C60.9479 20.3803 61.0972 19.9579 61.0972 19.4288C61.0972 18.8912 60.9479 18.4688 60.6492 18.1616C60.3591 17.8459 59.9836 17.688 59.5228 17.688ZM67.4938 15.768C68.0399 15.768 68.5093 15.8917 68.9018 16.1392C69.2943 16.3867 69.5802 16.7237 69.7594 17.1504V13.528H71.9482V23H69.7594V21.7072C69.5802 22.1339 69.2943 22.4709 68.9018 22.7184C68.5093 22.9659 68.0399 23.0896 67.4938 23.0896C66.905 23.0896 66.3759 22.9445 65.9066 22.6544C65.4458 22.3557 65.0789 21.9291 64.8058 21.3744C64.5413 20.8197 64.409 20.1712 64.409 19.4288C64.409 18.6779 64.5413 18.0293 64.8058 17.4832C65.0789 16.9285 65.4458 16.5061 65.9066 16.216C66.3759 15.9173 66.905 15.768 67.4938 15.768ZM68.1978 17.688C67.7285 17.688 67.3487 17.8416 67.0586 18.1488C66.777 18.456 66.6362 18.8827 66.6362 19.4288C66.6362 19.9749 66.777 20.4016 67.0586 20.7088C67.3487 21.016 67.7285 21.1696 68.1978 21.1696C68.6586 21.1696 69.0341 21.0117 69.3242 20.696C69.6229 20.3803 69.7722 19.9579 69.7722 19.4288C69.7722 18.8912 69.6229 18.4688 69.3242 18.1616C69.0341 17.8459 68.6586 17.688 68.1978 17.688ZM81.6241 21.3488H78.2321L77.6689 23H75.3649L78.6801 14.0144H81.2017L84.5169 23H82.1873L81.6241 21.3488ZM81.0609 19.6848L79.9345 16.3568L78.7953 19.6848H81.0609ZM87.9661 15.768C88.8706 15.768 89.5917 15.9941 90.1293 16.4464C90.6754 16.8987 91.0168 17.496 91.1533 18.2384H89.1053C89.0456 17.9483 88.909 17.7221 88.6957 17.56C88.4909 17.3893 88.2306 17.304 87.9149 17.304C87.6674 17.304 87.4797 17.3595 87.3517 17.4704C87.2237 17.5728 87.1597 17.7221 87.1597 17.9184C87.1597 18.1403 87.2749 18.3067 87.5053 18.4176C87.7442 18.5285 88.1154 18.6395 88.6189 18.7504C89.165 18.8784 89.613 19.0107 89.9629 19.1472C90.3128 19.2752 90.6157 19.4885 90.8717 19.7872C91.1277 20.0859 91.2557 20.4869 91.2557 20.9904C91.2557 21.4 91.1448 21.7627 90.9229 22.0784C90.701 22.3941 90.381 22.6416 89.9629 22.8208C89.5448 23 89.0498 23.0896 88.4781 23.0896C87.5138 23.0896 86.7416 22.8763 86.1613 22.4496C85.581 22.0229 85.2269 21.4128 85.0989 20.6192H87.2109C87.245 20.9264 87.373 21.1611 87.5949 21.3232C87.8253 21.4853 88.1197 21.5664 88.4781 21.5664C88.7256 21.5664 88.9133 21.5109 89.0413 21.4C89.1693 21.2805 89.2333 21.1269 89.2333 20.9392C89.2333 20.6917 89.1138 20.5168 88.8749 20.4144C88.6445 20.3035 88.2648 20.1883 87.7357 20.0688C87.2066 19.9579 86.7714 19.8384 86.4301 19.7104C86.0888 19.5824 85.7944 19.3776 85.5469 19.096C85.2994 18.8059 85.1757 18.4133 85.1757 17.9184C85.1757 17.2784 85.4189 16.7621 85.9053 16.3696C86.3917 15.9685 87.0786 15.768 87.9661 15.768ZM95.0661 15.768C95.9706 15.768 96.6917 15.9941 97.2293 16.4464C97.7754 16.8987 98.1168 17.496 98.2533 18.2384H96.2053C96.1456 17.9483 96.009 17.7221 95.7957 17.56C95.5909 17.3893 95.3306 17.304 95.0149 17.304C94.7674 17.304 94.5797 17.3595 94.4517 17.4704C94.3237 17.5728 94.2597 17.7221 94.2597 17.9184C94.2597 18.1403 94.3749 18.3067 94.6053 18.4176C94.8442 18.5285 95.2154 18.6395 95.7189 18.7504C96.265 18.8784 96.713 19.0107 97.0629 19.1472C97.4128 19.2752 97.7157 19.4885 97.9717 19.7872C98.2277 20.0859 98.3557 20.4869 98.3557 20.9904C98.3557 21.4 98.2448 21.7627 98.0229 22.0784C97.801 22.3941 97.481 22.6416 97.0629 22.8208C96.6448 23 96.1498 23.0896 95.5781 23.0896C94.6138 23.0896 93.8416 22.8763 93.2613 22.4496C92.681 22.0229 92.3269 21.4128 92.1989 20.6192H94.3109C94.345 20.9264 94.473 21.1611 94.6949 21.3232C94.9253 21.4853 95.2197 21.5664 95.5781 21.5664C95.8256 21.5664 96.0133 21.5109 96.1413 21.4C96.2693 21.2805 96.3333 21.1269 96.3333 20.9392C96.3333 20.6917 96.2138 20.5168 95.9749 20.4144C95.7445 20.3035 95.3648 20.1883 94.8357 20.0688C94.3066 19.9579 93.8714 19.8384 93.5301 19.7104C93.1888 19.5824 92.8944 19.3776 92.6469 19.096C92.3994 18.8059 92.2757 18.4133 92.2757 17.9184C92.2757 17.2784 92.5189 16.7621 93.0053 16.3696C93.4917 15.9685 94.1786 15.768 95.0661 15.768ZM102.909 15.768C103.617 15.768 104.248 15.9173 104.803 16.216C105.366 16.5061 105.806 16.9285 106.121 17.4832C106.446 18.0379 106.608 18.6864 106.608 19.4288C106.608 20.1712 106.446 20.8197 106.121 21.3744C105.806 21.9291 105.366 22.3557 104.803 22.6544C104.248 22.9445 103.617 23.0896 102.909 23.0896C102.2 23.0896 101.565 22.9445 101.001 22.6544C100.438 22.3557 99.9944 21.9291 99.6701 21.3744C99.3544 20.8197 99.1965 20.1712 99.1965 19.4288C99.1965 18.6864 99.3544 18.0379 99.6701 17.4832C99.9944 16.9285 100.438 16.5061 101.001 16.216C101.565 15.9173 102.2 15.768 102.909 15.768ZM102.909 17.6624C102.49 17.6624 102.136 17.816 101.846 18.1232C101.565 18.4219 101.424 18.8571 101.424 19.4288C101.424 20.0005 101.565 20.4357 101.846 20.7344C102.136 21.0331 102.49 21.1824 102.909 21.1824C103.327 21.1824 103.677 21.0331 103.958 20.7344C104.24 20.4357 104.381 20.0005 104.381 19.4288C104.381 18.8571 104.24 18.4219 103.958 18.1232C103.677 17.816 103.327 17.6624 102.909 17.6624ZM110.968 15.768C111.89 15.768 112.662 16.024 113.285 16.536C113.908 17.0395 114.301 17.7349 114.463 18.6224H112.146C112.078 18.3152 111.937 18.0763 111.724 17.9056C111.51 17.7349 111.241 17.6496 110.917 17.6496C110.533 17.6496 110.217 17.8032 109.97 18.1104C109.722 18.4091 109.599 18.8485 109.599 19.4288C109.599 20.0091 109.722 20.4528 109.97 20.76C110.217 21.0587 110.533 21.208 110.917 21.208C111.241 21.208 111.51 21.1227 111.724 20.952C111.937 20.7813 112.078 20.5424 112.146 20.2352H114.463C114.301 21.1227 113.908 21.8224 113.285 22.3344C112.662 22.8379 111.89 23.0896 110.968 23.0896C110.269 23.0896 109.646 22.9445 109.1 22.6544C108.562 22.3557 108.14 21.9291 107.832 21.3744C107.525 20.8197 107.372 20.1712 107.372 19.4288C107.372 18.6779 107.521 18.0293 107.82 17.4832C108.127 16.9285 108.553 16.5061 109.1 16.216C109.646 15.9173 110.269 15.768 110.968 15.768ZM115.4 13.848C115.4 13.5152 115.52 13.2421 115.759 13.0288C115.998 12.8069 116.313 12.696 116.706 12.696C117.099 12.696 117.414 12.8069 117.653 13.0288C117.892 13.2421 118.012 13.5152 118.012 13.848C118.012 14.1723 117.892 14.4453 117.653 14.6672C117.414 14.8805 117.099 14.9872 116.706 14.9872C116.313 14.9872 115.998 14.8805 115.759 14.6672C115.52 14.4453 115.4 14.1723 115.4 13.848ZM117.794 15.8576V23H115.605V15.8576H117.794ZM122.019 15.768C122.565 15.768 123.034 15.8917 123.427 16.1392C123.819 16.3867 124.109 16.7237 124.297 17.1504V15.8576H126.473V23H124.297V21.7072C124.109 22.1339 123.819 22.4709 123.427 22.7184C123.034 22.9659 122.565 23.0896 122.019 23.0896C121.43 23.0896 120.901 22.9445 120.432 22.6544C119.971 22.3557 119.604 21.9291 119.331 21.3744C119.066 20.8197 118.934 20.1712 118.934 19.4288C118.934 18.6779 119.066 18.0293 119.331 17.4832C119.604 16.9285 119.971 16.5061 120.432 16.216C120.901 15.9173 121.43 15.768 122.019 15.768ZM122.723 17.688C122.253 17.688 121.874 17.8416 121.584 18.1488C121.302 18.456 121.161 18.8827 121.161 19.4288C121.161 19.9749 121.302 20.4016 121.584 20.7088C121.874 21.016 122.253 21.1696 122.723 21.1696C123.184 21.1696 123.559 21.0117 123.849 20.696C124.148 20.3803 124.297 19.9579 124.297 19.4288C124.297 18.8912 124.148 18.4688 123.849 18.1616C123.559 17.8459 123.184 17.688 122.723 17.688ZM132.025 21.1184V23H131.039C130.203 23 129.55 22.7952 129.081 22.3856C128.62 21.9675 128.39 21.2805 128.39 20.3248V17.7008H127.43V15.8576H128.39V14.104H130.579V15.8576H132.012V17.7008H130.579V20.3632C130.579 20.6448 130.634 20.8411 130.745 20.952C130.864 21.0629 131.061 21.1184 131.334 21.1184H132.025ZM140.039 19.2368C140.039 19.416 140.018 19.6123 139.975 19.8256H135.022C135.047 20.3632 135.184 20.7515 135.431 20.9904C135.679 21.2208 135.994 21.336 136.378 21.336C136.703 21.336 136.971 21.2549 137.185 21.0928C137.398 20.9307 137.539 20.7216 137.607 20.4656H139.924C139.83 20.9691 139.625 21.4213 139.31 21.8224C138.994 22.2149 138.593 22.5264 138.106 22.7568C137.62 22.9787 137.078 23.0896 136.481 23.0896C135.781 23.0896 135.158 22.9445 134.612 22.6544C134.074 22.3557 133.652 21.9291 133.345 21.3744C133.038 20.8197 132.884 20.1712 132.884 19.4288C132.884 18.6779 133.033 18.0293 133.332 17.4832C133.639 16.9285 134.066 16.5061 134.612 16.216C135.158 15.9173 135.781 15.768 136.481 15.768C137.189 15.768 137.812 15.9131 138.35 16.2032C138.887 16.4933 139.301 16.9029 139.591 17.432C139.89 17.9525 140.039 18.5541 140.039 19.2368ZM137.825 18.904C137.833 18.4347 137.705 18.0848 137.441 17.8544C137.185 17.6155 136.865 17.496 136.481 17.496C136.08 17.496 135.747 17.6155 135.482 17.8544C135.218 18.0933 135.069 18.4432 135.034 18.904H137.825ZM143.779 15.768C144.683 15.768 145.404 15.9941 145.942 16.4464C146.488 16.8987 146.829 17.496 146.966 18.2384H144.918C144.858 17.9483 144.722 17.7221 144.508 17.56C144.303 17.3893 144.043 17.304 143.727 17.304C143.48 17.304 143.292 17.3595 143.164 17.4704C143.036 17.5728 142.972 17.7221 142.972 17.9184C142.972 18.1403 143.087 18.3067 143.318 18.4176C143.557 18.5285 143.928 18.6395 144.431 18.7504C144.978 18.8784 145.426 19.0107 145.775 19.1472C146.125 19.2752 146.428 19.4885 146.684 19.7872C146.94 20.0859 147.068 20.4869 147.068 20.9904C147.068 21.4 146.957 21.7627 146.735 22.0784C146.514 22.3941 146.194 22.6416 145.775 22.8208C145.357 23 144.862 23.0896 144.291 23.0896C143.326 23.0896 142.554 22.8763 141.974 22.4496C141.394 22.0229 141.039 21.4128 140.911 20.6192H143.023C143.058 20.9264 143.186 21.1611 143.407 21.3232C143.638 21.4853 143.932 21.5664 144.291 21.5664C144.538 21.5664 144.726 21.5109 144.854 21.4C144.982 21.2805 145.046 21.1269 145.046 20.9392C145.046 20.6917 144.926 20.5168 144.687 20.4144C144.457 20.3035 144.077 20.1883 143.548 20.0688C143.019 19.9579 142.584 19.8384 142.243 19.7104C141.901 19.5824 141.607 19.3776 141.359 19.096C141.112 18.8059 140.988 18.4133 140.988 17.9184C140.988 17.2784 141.231 16.7621 141.718 16.3696C142.204 15.9685 142.891 15.768 143.779 15.768Z" fill="#F2F2F2"/>
</svg>
