<svg width="195" height="37" viewBox="0 0 195 37" fill="none" xmlns="http://www.w3.org/2000/svg">
<rect width="194.191" height="37" rx="4" fill="#C8AC48"/>
<mask id="mask0" mask-type="alpha" maskUnits="userSpaceOnUse" x="0" y="0" width="195" height="37">
<rect width="194.191" height="37" rx="4" fill="#A68C2F"/>
</mask>
<g mask="url(#mask0)">
<path d="M138.924 0L55.8394 37H194.191V0H138.924Z" fill="#B89D3B"/>
</g>
<path d="M62.3616 21.3488H58.9696L58.4064 23H56.1024L59.4176 14.0144H61.9392L65.2544 23H62.9248L62.3616 21.3488ZM61.7984 19.6848L60.672 16.3568L59.5328 19.6848H61.7984ZM68.8188 15.768C69.3649 15.768 69.8343 15.8917 70.2268 16.1392C70.6193 16.3867 70.9052 16.7237 71.0844 17.1504V13.528H73.2732V23H71.0844V21.7072C70.9052 22.1339 70.6193 22.4709 70.2268 22.7184C69.8343 22.9659 69.3649 23.0896 68.8188 23.0896C68.23 23.0896 67.7009 22.9445 67.2316 22.6544C66.7708 22.3557 66.4039 21.9291 66.1308 21.3744C65.8663 20.8197 65.734 20.1712 65.734 19.4288C65.734 18.6779 65.8663 18.0293 66.1308 17.4832C66.4039 16.9285 66.7708 16.5061 67.2316 16.216C67.7009 15.9173 68.23 15.768 68.8188 15.768ZM69.5228 17.688C69.0535 17.688 68.6737 17.8416 68.3836 18.1488C68.102 18.456 67.9612 18.8827 67.9612 19.4288C67.9612 19.9749 68.102 20.4016 68.3836 20.7088C68.6737 21.016 69.0535 21.1696 69.5228 21.1696C69.9836 21.1696 70.3591 21.0117 70.6492 20.696C70.9479 20.3803 71.0972 19.9579 71.0972 19.4288C71.0972 18.8912 70.9479 18.4688 70.6492 18.1616C70.3591 17.8459 69.9836 17.688 69.5228 17.688ZM77.4938 15.768C78.0399 15.768 78.5093 15.8917 78.9018 16.1392C79.2943 16.3867 79.5802 16.7237 79.7594 17.1504V13.528H81.9482V23H79.7594V21.7072C79.5802 22.1339 79.2943 22.4709 78.9018 22.7184C78.5093 22.9659 78.0399 23.0896 77.4938 23.0896C76.905 23.0896 76.3759 22.9445 75.9066 22.6544C75.4458 22.3557 75.0789 21.9291 74.8058 21.3744C74.5413 20.8197 74.409 20.1712 74.409 19.4288C74.409 18.6779 74.5413 18.0293 74.8058 17.4832C75.0789 16.9285 75.4458 16.5061 75.9066 16.216C76.3759 15.9173 76.905 15.768 77.4938 15.768ZM78.1978 17.688C77.7285 17.688 77.3487 17.8416 77.0586 18.1488C76.777 18.456 76.6362 18.8827 76.6362 19.4288C76.6362 19.9749 76.777 20.4016 77.0586 20.7088C77.3487 21.016 77.7285 21.1696 78.1978 21.1696C78.6586 21.1696 79.0341 21.0117 79.3242 20.696C79.6229 20.3803 79.7722 19.9579 79.7722 19.4288C79.7722 18.8912 79.6229 18.4688 79.3242 18.1616C79.0341 17.8459 78.6586 17.688 78.1978 17.688ZM90.1521 13.8608C91.3041 13.8608 92.2556 14.1637 93.0065 14.7696C93.766 15.3755 94.2566 16.1947 94.4785 17.2272H92.1617C91.991 16.8091 91.7265 16.4805 91.3681 16.2416C91.0182 16.0027 90.6001 15.8832 90.1137 15.8832C89.4737 15.8832 88.9574 16.1179 88.5649 16.5872C88.1724 17.0565 87.9761 17.6837 87.9761 18.4688C87.9761 19.2539 88.1724 19.8811 88.5649 20.3504C88.9574 20.8112 89.4737 21.0416 90.1137 21.0416C90.6001 21.0416 91.0182 20.9221 91.3681 20.6832C91.7265 20.4443 91.991 20.12 92.1617 19.7104H94.4785C94.2566 20.7344 93.766 21.5536 93.0065 22.168C92.2556 22.7739 91.3041 23.0768 90.1521 23.0768C89.2732 23.0768 88.5009 22.8848 87.8353 22.5008C87.1697 22.1083 86.6534 21.5621 86.2865 20.8624C85.9281 20.1627 85.7489 19.3648 85.7489 18.4688C85.7489 17.5728 85.9281 16.7749 86.2865 16.0752C86.6534 15.3755 87.1697 14.8336 87.8353 14.4496C88.5009 14.0571 89.2732 13.8608 90.1521 13.8608ZM99.046 15.768C99.7543 15.768 100.386 15.9173 100.94 16.216C101.504 16.5061 101.943 16.9285 102.259 17.4832C102.583 18.0379 102.745 18.6864 102.745 19.4288C102.745 20.1712 102.583 20.8197 102.259 21.3744C101.943 21.9291 101.504 22.3557 100.94 22.6544C100.386 22.9445 99.7543 23.0896 99.046 23.0896C98.3377 23.0896 97.702 22.9445 97.1388 22.6544C96.5756 22.3557 96.1319 21.9291 95.8076 21.3744C95.4919 20.8197 95.334 20.1712 95.334 19.4288C95.334 18.6864 95.4919 18.0379 95.8076 17.4832C96.1319 16.9285 96.5756 16.5061 97.1388 16.216C97.702 15.9173 98.3377 15.768 99.046 15.768ZM99.046 17.6624C98.6279 17.6624 98.2737 17.816 97.9836 18.1232C97.702 18.4219 97.5612 18.8571 97.5612 19.4288C97.5612 20.0005 97.702 20.4357 97.9836 20.7344C98.2737 21.0331 98.6279 21.1824 99.046 21.1824C99.4641 21.1824 99.814 21.0331 100.096 20.7344C100.377 20.4357 100.518 20.0005 100.518 19.4288C100.518 18.8571 100.377 18.4219 100.096 18.1232C99.814 17.816 99.4641 17.6624 99.046 17.6624ZM108.411 15.7808C109.231 15.7808 109.879 16.0539 110.357 16.6C110.843 17.1461 111.087 17.8971 111.087 18.8528V23H108.898V19.1088C108.898 18.6309 108.77 18.2597 108.514 17.9952C108.266 17.7221 107.934 17.5856 107.515 17.5856C107.072 17.5856 106.718 17.7264 106.453 18.008C106.197 18.2896 106.069 18.6907 106.069 19.2112V23H103.88V15.8576H106.069V17.1632C106.274 16.7365 106.577 16.3995 106.978 16.152C107.387 15.9045 107.865 15.7808 108.411 15.7808ZM116.575 21.1184V23H115.589C114.753 23 114.1 22.7952 113.631 22.3856C113.17 21.9675 112.94 21.2805 112.94 20.3248V17.7008H111.98V15.8576H112.94V14.104H115.129V15.8576H116.562V17.7008H115.129V20.3632C115.129 20.6448 115.184 20.8411 115.295 20.952C115.414 21.0629 115.611 21.1184 115.884 21.1184H116.575ZM120.519 15.768C121.065 15.768 121.534 15.8917 121.927 16.1392C122.319 16.3867 122.609 16.7237 122.797 17.1504V15.8576H124.973V23H122.797V21.7072C122.609 22.1339 122.319 22.4709 121.927 22.7184C121.534 22.9659 121.065 23.0896 120.519 23.0896C119.93 23.0896 119.401 22.9445 118.932 22.6544C118.471 22.3557 118.104 21.9291 117.831 21.3744C117.566 20.8197 117.434 20.1712 117.434 19.4288C117.434 18.6779 117.566 18.0293 117.831 17.4832C118.104 16.9285 118.471 16.5061 118.932 16.216C119.401 15.9173 119.93 15.768 120.519 15.768ZM121.223 17.688C120.753 17.688 120.374 17.8416 120.084 18.1488C119.802 18.456 119.661 18.8827 119.661 19.4288C119.661 19.9749 119.802 20.4016 120.084 20.7088C120.374 21.016 120.753 21.1696 121.223 21.1696C121.684 21.1696 122.059 21.0117 122.349 20.696C122.648 20.3803 122.797 19.9579 122.797 19.4288C122.797 18.8912 122.648 18.4688 122.349 18.1616C122.059 17.8459 121.684 17.688 121.223 17.688ZM129.706 15.768C130.627 15.768 131.4 16.024 132.023 16.536C132.646 17.0395 133.038 17.7349 133.2 18.6224H130.883C130.815 18.3152 130.674 18.0763 130.461 17.9056C130.248 17.7349 129.979 17.6496 129.655 17.6496C129.271 17.6496 128.955 17.8032 128.707 18.1104C128.46 18.4091 128.336 18.8485 128.336 19.4288C128.336 20.0091 128.46 20.4528 128.707 20.76C128.955 21.0587 129.271 21.208 129.655 21.208C129.979 21.208 130.248 21.1227 130.461 20.952C130.674 20.7813 130.815 20.5424 130.883 20.2352H133.2C133.038 21.1227 132.646 21.8224 132.023 22.3344C131.4 22.8379 130.627 23.0896 129.706 23.0896C129.006 23.0896 128.383 22.9445 127.837 22.6544C127.299 22.3557 126.877 21.9291 126.57 21.3744C126.263 20.8197 126.109 20.1712 126.109 19.4288C126.109 18.6779 126.258 18.0293 126.557 17.4832C126.864 16.9285 127.291 16.5061 127.837 16.216C128.383 15.9173 129.006 15.768 129.706 15.768ZM138.388 21.1184V23H137.402C136.566 23 135.913 22.7952 135.444 22.3856C134.983 21.9675 134.752 21.2805 134.752 20.3248V17.7008H133.792V15.8576H134.752V14.104H136.941V15.8576H138.375V17.7008H136.941V20.3632C136.941 20.6448 136.997 20.8411 137.108 20.952C137.227 21.0629 137.423 21.1184 137.696 21.1184H138.388Z" fill="#F2F2F2"/>
</svg>
