<svg width="195" height="37" viewBox="0 0 195 37" fill="none" xmlns="http://www.w3.org/2000/svg">
<rect width="194.191" height="37" rx="4" fill="#C8AC48"/>
<mask id="mask0" mask-type="alpha" maskUnits="userSpaceOnUse" x="0" y="0" width="195" height="37">
<rect width="194.191" height="37" rx="4" fill="#A68C2F"/>
</mask>
<g mask="url(#mask0)">
<path d="M138.924 0L55.8394 37H194.191V0H138.924Z" fill="#B89D3B"/>
</g>
<path d="M69.3616 21.3488H65.9696L65.4064 23H63.1024L66.4176 14.0144H68.9392L72.2544 23H69.9248L69.3616 21.3488ZM68.7984 19.6848L67.672 16.3568L66.5328 19.6848H68.7984ZM75.8188 15.768C76.3649 15.768 76.8343 15.8917 77.2268 16.1392C77.6193 16.3867 77.9052 16.7237 78.0844 17.1504V13.528H80.2732V23H78.0844V21.7072C77.9052 22.1339 77.6193 22.4709 77.2268 22.7184C76.8343 22.9659 76.3649 23.0896 75.8188 23.0896C75.23 23.0896 74.7009 22.9445 74.2316 22.6544C73.7708 22.3557 73.4039 21.9291 73.1308 21.3744C72.8663 20.8197 72.734 20.1712 72.734 19.4288C72.734 18.6779 72.8663 18.0293 73.1308 17.4832C73.4039 16.9285 73.7708 16.5061 74.2316 16.216C74.7009 15.9173 75.23 15.768 75.8188 15.768ZM76.5228 17.688C76.0535 17.688 75.6737 17.8416 75.3836 18.1488C75.102 18.456 74.9612 18.8827 74.9612 19.4288C74.9612 19.9749 75.102 20.4016 75.3836 20.7088C75.6737 21.016 76.0535 21.1696 76.5228 21.1696C76.9836 21.1696 77.3591 21.0117 77.6492 20.696C77.9479 20.3803 78.0972 19.9579 78.0972 19.4288C78.0972 18.8912 77.9479 18.4688 77.6492 18.1616C77.3591 17.8459 76.9836 17.688 76.5228 17.688ZM84.4938 15.768C85.0399 15.768 85.5093 15.8917 85.9018 16.1392C86.2943 16.3867 86.5802 16.7237 86.7594 17.1504V13.528H88.9482V23H86.7594V21.7072C86.5802 22.1339 86.2943 22.4709 85.9018 22.7184C85.5093 22.9659 85.0399 23.0896 84.4938 23.0896C83.905 23.0896 83.3759 22.9445 82.9066 22.6544C82.4458 22.3557 82.0789 21.9291 81.8058 21.3744C81.5413 20.8197 81.409 20.1712 81.409 19.4288C81.409 18.6779 81.5413 18.0293 81.8058 17.4832C82.0789 16.9285 82.4458 16.5061 82.9066 16.216C83.3759 15.9173 83.905 15.768 84.4938 15.768ZM85.1978 17.688C84.7285 17.688 84.3487 17.8416 84.0586 18.1488C83.777 18.456 83.6362 18.8827 83.6362 19.4288C83.6362 19.9749 83.777 20.4016 84.0586 20.7088C84.3487 21.016 84.7285 21.1696 85.1978 21.1696C85.6586 21.1696 86.0341 21.0117 86.3242 20.696C86.6229 20.3803 86.7722 19.9579 86.7722 19.4288C86.7722 18.8912 86.6229 18.4688 86.3242 18.1616C86.0341 17.8459 85.6586 17.688 85.1978 17.688ZM97.1521 13.8608C98.3041 13.8608 99.2556 14.1637 100.007 14.7696C100.766 15.3755 101.257 16.1947 101.479 17.2272H99.1617C98.991 16.8091 98.7265 16.4805 98.3681 16.2416C98.0182 16.0027 97.6001 15.8832 97.1137 15.8832C96.4737 15.8832 95.9574 16.1179 95.5649 16.5872C95.1724 17.0565 94.9761 17.6837 94.9761 18.4688C94.9761 19.2539 95.1724 19.8811 95.5649 20.3504C95.9574 20.8112 96.4737 21.0416 97.1137 21.0416C97.6001 21.0416 98.0182 20.9221 98.3681 20.6832C98.7265 20.4443 98.991 20.12 99.1617 19.7104H101.479C101.257 20.7344 100.766 21.5536 100.007 22.168C99.2556 22.7739 98.3041 23.0768 97.1521 23.0768C96.2732 23.0768 95.5009 22.8848 94.8353 22.5008C94.1697 22.1083 93.6534 21.5621 93.2865 20.8624C92.9281 20.1627 92.7489 19.3648 92.7489 18.4688C92.7489 17.5728 92.9281 16.7749 93.2865 16.0752C93.6534 15.3755 94.1697 14.8336 94.8353 14.4496C95.5009 14.0571 96.2732 13.8608 97.1521 13.8608ZM104.894 13.528V23H102.705V13.528H104.894ZM106.2 13.848C106.2 13.5152 106.32 13.2421 106.559 13.0288C106.798 12.8069 107.113 12.696 107.506 12.696C107.899 12.696 108.214 12.8069 108.453 13.0288C108.692 13.2421 108.812 13.5152 108.812 13.848C108.812 14.1723 108.692 14.4453 108.453 14.6672C108.214 14.8805 107.899 14.9872 107.506 14.9872C107.113 14.9872 106.798 14.8805 106.559 14.6672C106.32 14.4453 106.2 14.1723 106.2 13.848ZM108.594 15.8576V23H106.405V15.8576H108.594ZM116.889 19.2368C116.889 19.416 116.868 19.6123 116.825 19.8256H111.872C111.897 20.3632 112.034 20.7515 112.281 20.9904C112.529 21.2208 112.844 21.336 113.228 21.336C113.553 21.336 113.821 21.2549 114.035 21.0928C114.248 20.9307 114.389 20.7216 114.457 20.4656H116.774C116.68 20.9691 116.475 21.4213 116.16 21.8224C115.844 22.2149 115.443 22.5264 114.956 22.7568C114.47 22.9787 113.928 23.0896 113.331 23.0896C112.631 23.0896 112.008 22.9445 111.462 22.6544C110.924 22.3557 110.502 21.9291 110.195 21.3744C109.888 20.8197 109.734 20.1712 109.734 19.4288C109.734 18.6779 109.883 18.0293 110.182 17.4832C110.489 16.9285 110.916 16.5061 111.462 16.216C112.008 15.9173 112.631 15.768 113.331 15.768C114.039 15.768 114.662 15.9131 115.2 16.2032C115.737 16.4933 116.151 16.9029 116.441 17.432C116.74 17.9525 116.889 18.5541 116.889 19.2368ZM114.675 18.904C114.683 18.4347 114.555 18.0848 114.291 17.8544C114.035 17.6155 113.715 17.496 113.331 17.496C112.93 17.496 112.597 17.6155 112.332 17.8544C112.068 18.0933 111.919 18.4432 111.884 18.904H114.675ZM122.561 15.7808C123.381 15.7808 124.029 16.0539 124.507 16.6C124.993 17.1461 125.237 17.8971 125.237 18.8528V23H123.048V19.1088C123.048 18.6309 122.92 18.2597 122.664 17.9952C122.416 17.7221 122.084 17.5856 121.665 17.5856C121.222 17.5856 120.868 17.7264 120.603 18.008C120.347 18.2896 120.219 18.6907 120.219 19.2112V23H118.03V15.8576H120.219V17.1632C120.424 16.7365 120.727 16.3995 121.128 16.152C121.537 15.9045 122.015 15.7808 122.561 15.7808ZM130.725 21.1184V23H129.739C128.903 23 128.25 22.7952 127.781 22.3856C127.32 21.9675 127.09 21.2805 127.09 20.3248V17.7008H126.13V15.8576H127.09V14.104H129.279V15.8576H130.712V17.7008H129.279V20.3632C129.279 20.6448 129.334 20.8411 129.445 20.952C129.564 21.0629 129.761 21.1184 130.034 21.1184H130.725Z" fill="#F2F2F2"/>
</svg>
