<svg width="150" height="37" viewBox="0 0 150 37" fill="none" xmlns="http://www.w3.org/2000/svg">
<rect width="149.809" height="37" rx="4" fill="#C8AC48"/>
<mask id="mask0" mask-type="alpha" maskUnits="userSpaceOnUse" x="0" y="0" width="150" height="37">
<rect width="149.809" height="37" rx="4" fill="#A68C2F"/>
</mask>
<g mask="url(#mask0)">
<path d="M107.174 0L43.0776 37H149.809V0H107.174Z" fill="#B89D3B"/>
</g>
<path d="M52.3616 21.3488H48.9696L48.4064 23H46.1024L49.4176 14.0144H51.9392L55.2544 23H52.9248L52.3616 21.3488ZM51.7984 19.6848L50.672 16.3568L49.5328 19.6848H51.7984ZM58.8188 15.768C59.3649 15.768 59.8343 15.8917 60.2268 16.1392C60.6193 16.3867 60.9052 16.7237 61.0844 17.1504V13.528H63.2732V23H61.0844V21.7072C60.9052 22.1339 60.6193 22.4709 60.2268 22.7184C59.8343 22.9659 59.3649 23.0896 58.8188 23.0896C58.23 23.0896 57.7009 22.9445 57.2316 22.6544C56.7708 22.3557 56.4039 21.9291 56.1308 21.3744C55.8663 20.8197 55.734 20.1712 55.734 19.4288C55.734 18.6779 55.8663 18.0293 56.1308 17.4832C56.4039 16.9285 56.7708 16.5061 57.2316 16.216C57.7009 15.9173 58.23 15.768 58.8188 15.768ZM59.5228 17.688C59.0535 17.688 58.6737 17.8416 58.3836 18.1488C58.102 18.456 57.9612 18.8827 57.9612 19.4288C57.9612 19.9749 58.102 20.4016 58.3836 20.7088C58.6737 21.016 59.0535 21.1696 59.5228 21.1696C59.9836 21.1696 60.3591 21.0117 60.6492 20.696C60.9479 20.3803 61.0972 19.9579 61.0972 19.4288C61.0972 18.8912 60.9479 18.4688 60.6492 18.1616C60.3591 17.8459 59.9836 17.688 59.5228 17.688ZM67.4938 15.768C68.0399 15.768 68.5093 15.8917 68.9018 16.1392C69.2943 16.3867 69.5802 16.7237 69.7594 17.1504V13.528H71.9482V23H69.7594V21.7072C69.5802 22.1339 69.2943 22.4709 68.9018 22.7184C68.5093 22.9659 68.0399 23.0896 67.4938 23.0896C66.905 23.0896 66.3759 22.9445 65.9066 22.6544C65.4458 22.3557 65.0789 21.9291 64.8058 21.3744C64.5413 20.8197 64.409 20.1712 64.409 19.4288C64.409 18.6779 64.5413 18.0293 64.8058 17.4832C65.0789 16.9285 65.4458 16.5061 65.9066 16.216C66.3759 15.9173 66.905 15.768 67.4938 15.768ZM68.1978 17.688C67.7285 17.688 67.3487 17.8416 67.0586 18.1488C66.777 18.456 66.6362 18.8827 66.6362 19.4288C66.6362 19.9749 66.777 20.4016 67.0586 20.7088C67.3487 21.016 67.7285 21.1696 68.1978 21.1696C68.6586 21.1696 69.0341 21.0117 69.3242 20.696C69.6229 20.3803 69.7722 19.9579 69.7722 19.4288C69.7722 18.8912 69.6229 18.4688 69.3242 18.1616C69.0341 17.8459 68.6586 17.688 68.1978 17.688ZM84.0561 23H81.8673L78.2065 17.4448V23H76.0177V13.9504H78.2065L81.8673 19.5568V13.9504H84.0561V23ZM92.3517 19.2368C92.3517 19.416 92.3304 19.6123 92.2877 19.8256H87.3341C87.3597 20.3632 87.4962 20.7515 87.7437 20.9904C87.9912 21.2208 88.3069 21.336 88.6909 21.336C89.0152 21.336 89.284 21.2549 89.4973 21.0928C89.7106 20.9307 89.8514 20.7216 89.9197 20.4656H92.2365C92.1426 20.9691 91.9378 21.4213 91.6221 21.8224C91.3064 22.2149 90.9053 22.5264 90.4189 22.7568C89.9325 22.9787 89.3906 23.0896 88.7933 23.0896C88.0936 23.0896 87.4706 22.9445 86.9245 22.6544C86.3869 22.3557 85.9645 21.9291 85.6573 21.3744C85.3501 20.8197 85.1965 20.1712 85.1965 19.4288C85.1965 18.6779 85.3458 18.0293 85.6445 17.4832C85.9517 16.9285 86.3784 16.5061 86.9245 16.216C87.4706 15.9173 88.0936 15.768 88.7933 15.768C89.5016 15.768 90.1245 15.9131 90.6621 16.2032C91.1997 16.4933 91.6136 16.9029 91.9037 17.432C92.2024 17.9525 92.3517 18.5541 92.3517 19.2368ZM90.1373 18.904C90.1458 18.4347 90.0178 18.0848 89.7533 17.8544C89.4973 17.6155 89.1773 17.496 88.7933 17.496C88.3922 17.496 88.0594 17.6155 87.7949 17.8544C87.5304 18.0933 87.381 18.4432 87.3469 18.904H90.1373ZM103.938 15.8576L102.107 23H99.6623L98.3695 18.2128L97.0639 23H94.6191L92.7887 15.8576H94.9775L95.9247 21.0032L97.2559 15.8576H99.5855L100.955 21.016L101.902 15.8576H103.938Z" fill="#F2F2F2"/>
</svg>
