<svg width="195" height="37" viewBox="0 0 195 37" fill="none" xmlns="http://www.w3.org/2000/svg">
<rect width="194.191" height="37" rx="4" fill="#C8AC48"/>
<mask id="mask0" mask-type="alpha" maskUnits="userSpaceOnUse" x="0" y="0" width="195" height="37">
<rect width="194.191" height="37" rx="4" fill="#A68C2F"/>
</mask>
<g mask="url(#mask0)">
<path d="M138.924 0L55.8394 37H194.191V0H138.924Z" fill="#B89D3B"/>
</g>
<path d="M40.3872 21.4128H37.0336L36.496 23H34.2048L37.456 14.0144H39.9904L43.2416 23H40.9248L40.3872 21.4128ZM39.824 19.7232L38.7104 16.4336L37.6096 19.7232H39.824ZM43.7959 19.416C43.7959 18.6821 43.9324 18.0379 44.2055 17.4832C44.4871 16.9285 44.8668 16.5019 45.3447 16.2032C45.8226 15.9045 46.3559 15.7552 46.9447 15.7552C47.414 15.7552 47.8407 15.8533 48.2247 16.0496C48.6172 16.2459 48.9244 16.5104 49.1463 16.8432V13.528H51.3351V23H49.1463V21.976C48.9415 22.3173 48.6471 22.5904 48.2631 22.7952C47.8876 23 47.4482 23.1024 46.9447 23.1024C46.3559 23.1024 45.8226 22.9531 45.3447 22.6544C44.8668 22.3472 44.4871 21.9163 44.2055 21.3616C43.9324 20.7984 43.7959 20.1499 43.7959 19.416ZM49.1463 19.4288C49.1463 18.8827 48.9927 18.4517 48.6855 18.136C48.3868 17.8203 48.0199 17.6624 47.5847 17.6624C47.1495 17.6624 46.7783 17.8203 46.4711 18.136C46.1724 18.4432 46.0231 18.8699 46.0231 19.416C46.0231 19.9621 46.1724 20.3973 46.4711 20.7216C46.7783 21.0373 47.1495 21.1952 47.5847 21.1952C48.0199 21.1952 48.3868 21.0373 48.6855 20.7216C48.9927 20.4059 49.1463 19.9749 49.1463 19.4288ZM52.4834 19.416C52.4834 18.6821 52.6199 18.0379 52.893 17.4832C53.1746 16.9285 53.5543 16.5019 54.0322 16.2032C54.5101 15.9045 55.0434 15.7552 55.6322 15.7552C56.1015 15.7552 56.5282 15.8533 56.9122 16.0496C57.3047 16.2459 57.6119 16.5104 57.8338 16.8432V13.528H60.0226V23H57.8338V21.976C57.629 22.3173 57.3346 22.5904 56.9506 22.7952C56.5751 23 56.1357 23.1024 55.6322 23.1024C55.0434 23.1024 54.5101 22.9531 54.0322 22.6544C53.5543 22.3472 53.1746 21.9163 52.893 21.3616C52.6199 20.7984 52.4834 20.1499 52.4834 19.416ZM57.8338 19.4288C57.8338 18.8827 57.6802 18.4517 57.373 18.136C57.0743 17.8203 56.7074 17.6624 56.2722 17.6624C55.837 17.6624 55.4658 17.8203 55.1586 18.136C54.8599 18.4432 54.7106 18.8699 54.7106 19.416C54.7106 19.9621 54.8599 20.3973 55.1586 20.7216C55.4658 21.0373 55.837 21.1952 56.2722 21.1952C56.7074 21.1952 57.0743 21.0373 57.373 20.7216C57.6802 20.4059 57.8338 19.9749 57.8338 19.4288ZM67.5698 23.0896C66.9127 23.0896 66.3239 22.9829 65.8034 22.7696C65.2829 22.5563 64.8647 22.2405 64.549 21.8224C64.2418 21.4043 64.0797 20.9008 64.0626 20.312H66.3922C66.4263 20.6448 66.5415 20.9008 66.7378 21.08C66.9341 21.2507 67.1901 21.336 67.5058 21.336C67.8301 21.336 68.0861 21.2635 68.2738 21.1184C68.4615 20.9648 68.5554 20.7557 68.5554 20.4912C68.5554 20.2693 68.4786 20.0859 68.325 19.9408C68.1799 19.7957 67.9965 19.6763 67.7746 19.5824C67.5613 19.4885 67.2541 19.3819 66.853 19.2624C66.2727 19.0832 65.7991 18.904 65.4322 18.7248C65.0653 18.5456 64.7495 18.2811 64.485 17.9312C64.2205 17.5813 64.0882 17.1248 64.0882 16.5616C64.0882 15.7253 64.3911 15.0725 64.997 14.6032C65.6029 14.1253 66.3922 13.8864 67.365 13.8864C68.3549 13.8864 69.1527 14.1253 69.7586 14.6032C70.3645 15.0725 70.6887 15.7296 70.7314 16.5744H68.3634C68.3463 16.2843 68.2397 16.0581 68.0434 15.896C67.8471 15.7253 67.5954 15.64 67.2882 15.64C67.0237 15.64 66.8103 15.7125 66.6482 15.8576C66.4861 15.9941 66.405 16.1947 66.405 16.4592C66.405 16.7493 66.5415 16.9755 66.8146 17.1376C67.0877 17.2997 67.5143 17.4747 68.0946 17.6624C68.6749 17.8587 69.1442 18.0464 69.5026 18.2256C69.8695 18.4048 70.1853 18.6651 70.4498 19.0064C70.7143 19.3477 70.8466 19.7872 70.8466 20.3248C70.8466 20.8368 70.7143 21.3019 70.4498 21.72C70.1938 22.1381 69.8183 22.4709 69.3234 22.7184C68.8285 22.9659 68.2439 23.0896 67.5698 23.0896ZM71.7584 19.4288C71.7584 18.6864 71.9077 18.0379 72.2064 17.4832C72.5136 16.9285 72.936 16.5019 73.4736 16.2032C74.0197 15.9045 74.6427 15.7552 75.3424 15.7552C76.2384 15.7552 76.9851 15.9899 77.5824 16.4592C78.1883 16.9285 78.5851 17.5899 78.7728 18.4432H76.4432C76.2469 17.8971 75.8672 17.624 75.304 17.624C74.9029 17.624 74.5829 17.7819 74.344 18.0976C74.1051 18.4048 73.9856 18.8485 73.9856 19.4288C73.9856 20.0091 74.1051 20.4571 74.344 20.7728C74.5829 21.08 74.9029 21.2336 75.304 21.2336C75.8672 21.2336 76.2469 20.9605 76.4432 20.4144H78.7728C78.5851 21.2507 78.1883 21.9077 77.5824 22.3856C76.9765 22.8635 76.2299 23.1024 75.3424 23.1024C74.6427 23.1024 74.0197 22.9531 73.4736 22.6544C72.936 22.3557 72.5136 21.9291 72.2064 21.3744C71.9077 20.8197 71.7584 20.1712 71.7584 19.4288ZM84.334 15.7808C85.1532 15.7808 85.8103 16.0539 86.3052 16.6C86.8001 17.1376 87.0476 17.88 87.0476 18.8272V23H84.8716V19.1216C84.8716 18.6437 84.7479 18.2725 84.5004 18.008C84.2529 17.7435 83.9201 17.6112 83.502 17.6112C83.0839 17.6112 82.7511 17.7435 82.5036 18.008C82.2561 18.2725 82.1324 18.6437 82.1324 19.1216V23H79.9436V13.528H82.1324V16.8176C82.3543 16.5019 82.6572 16.2501 83.0412 16.0624C83.4252 15.8747 83.8561 15.7808 84.334 15.7808ZM95.3014 19.3136C95.3014 19.5184 95.2886 19.7317 95.263 19.9536H90.3094C90.3435 20.3973 90.4843 20.7387 90.7318 20.9776C90.9878 21.208 91.2993 21.3232 91.6662 21.3232C92.2123 21.3232 92.5921 21.0928 92.8054 20.632H95.135C95.0155 21.1013 94.7979 21.5237 94.4822 21.8992C94.175 22.2747 93.7867 22.5691 93.3174 22.7824C92.8481 22.9957 92.3233 23.1024 91.743 23.1024C91.0433 23.1024 90.4203 22.9531 89.8742 22.6544C89.3281 22.3557 88.9014 21.9291 88.5942 21.3744C88.287 20.8197 88.1334 20.1712 88.1334 19.4288C88.1334 18.6864 88.2827 18.0379 88.5814 17.4832C88.8886 16.9285 89.3153 16.5019 89.8614 16.2032C90.4075 15.9045 91.0347 15.7552 91.743 15.7552C92.4342 15.7552 93.0486 15.9003 93.5862 16.1904C94.1238 16.4805 94.5419 16.8944 94.8406 17.432C95.1478 17.9696 95.3014 18.5968 95.3014 19.3136ZM93.0614 18.7376C93.0614 18.3621 92.9334 18.0635 92.6774 17.8416C92.4214 17.6197 92.1014 17.5088 91.7174 17.5088C91.3505 17.5088 91.039 17.6155 90.783 17.8288C90.5355 18.0421 90.3819 18.3451 90.3222 18.7376H93.0614ZM96.0209 19.416C96.0209 18.6821 96.1574 18.0379 96.4305 17.4832C96.7121 16.9285 97.0918 16.5019 97.5697 16.2032C98.0476 15.9045 98.5809 15.7552 99.1697 15.7552C99.639 15.7552 100.066 15.8533 100.45 16.0496C100.842 16.2459 101.149 16.5104 101.371 16.8432V13.528H103.56V23H101.371V21.976C101.166 22.3173 100.872 22.5904 100.488 22.7952C100.113 23 99.6732 23.1024 99.1697 23.1024C98.5809 23.1024 98.0476 22.9531 97.5697 22.6544C97.0918 22.3472 96.7121 21.9163 96.4305 21.3616C96.1574 20.7984 96.0209 20.1499 96.0209 19.416ZM101.371 19.4288C101.371 18.8827 101.218 18.4517 100.91 18.136C100.612 17.8203 100.245 17.6624 99.8097 17.6624C99.3745 17.6624 99.0033 17.8203 98.6961 18.136C98.3974 18.4432 98.2481 18.8699 98.2481 19.416C98.2481 19.9621 98.3974 20.3973 98.6961 20.7216C99.0033 21.0373 99.3745 21.1952 99.8097 21.1952C100.245 21.1952 100.612 21.0373 100.91 20.7216C101.218 20.4059 101.371 19.9749 101.371 19.4288ZM112.196 15.8576V23H110.008V22.0272C109.786 22.3429 109.483 22.5989 109.099 22.7952C108.723 22.9829 108.305 23.0768 107.844 23.0768C107.298 23.0768 106.816 22.9573 106.398 22.7184C105.98 22.4709 105.656 22.1168 105.425 21.656C105.195 21.1952 105.08 20.6533 105.08 20.0304V15.8576H107.256V19.736C107.256 20.2139 107.379 20.5851 107.627 20.8496C107.874 21.1141 108.207 21.2464 108.625 21.2464C109.052 21.2464 109.389 21.1141 109.636 20.8496C109.884 20.5851 110.008 20.2139 110.008 19.736V15.8576H112.196ZM115.957 13.528V23H113.769V13.528H115.957ZM124.276 19.3136C124.276 19.5184 124.264 19.7317 124.238 19.9536H119.284C119.319 20.3973 119.459 20.7387 119.707 20.9776C119.963 21.208 120.274 21.3232 120.641 21.3232C121.187 21.3232 121.567 21.0928 121.78 20.632H124.11C123.991 21.1013 123.773 21.5237 123.457 21.8992C123.15 22.2747 122.762 22.5691 122.292 22.7824C121.823 22.9957 121.298 23.1024 120.718 23.1024C120.018 23.1024 119.395 22.9531 118.849 22.6544C118.303 22.3557 117.876 21.9291 117.569 21.3744C117.262 20.8197 117.108 20.1712 117.108 19.4288C117.108 18.6864 117.258 18.0379 117.556 17.4832C117.864 16.9285 118.29 16.5019 118.836 16.2032C119.383 15.9045 120.01 15.7552 120.718 15.7552C121.409 15.7552 122.024 15.9003 122.561 16.1904C123.099 16.4805 123.517 16.8944 123.816 17.432C124.123 17.9696 124.276 18.5968 124.276 19.3136ZM122.036 18.7376C122.036 18.3621 121.908 18.0635 121.652 17.8416C121.396 17.6197 121.076 17.5088 120.692 17.5088C120.325 17.5088 120.014 17.6155 119.758 17.8288C119.511 18.0421 119.357 18.3451 119.297 18.7376H122.036ZM134.223 14.0144C135.17 14.0144 135.997 14.2021 136.706 14.5776C137.414 14.9531 137.96 15.4821 138.344 16.1648C138.737 16.8389 138.933 17.6197 138.933 18.5072C138.933 19.3861 138.737 20.1669 138.344 20.8496C137.96 21.5323 137.41 22.0613 136.693 22.4368C135.985 22.8123 135.161 23 134.223 23H130.856V14.0144H134.223ZM134.082 21.1056C134.909 21.1056 135.554 20.8795 136.015 20.4272C136.475 19.9749 136.706 19.3349 136.706 18.5072C136.706 17.6795 136.475 17.0352 136.015 16.5744C135.554 16.1136 134.909 15.8832 134.082 15.8832H133.045V21.1056H134.082ZM139.721 19.416C139.721 18.6821 139.857 18.0379 140.131 17.4832C140.412 16.9285 140.792 16.5019 141.27 16.2032C141.748 15.9045 142.281 15.7552 142.87 15.7552C143.373 15.7552 143.813 15.8576 144.188 16.0624C144.572 16.2672 144.867 16.536 145.071 16.8688V15.8576H147.26V23H145.071V21.9888C144.858 22.3216 144.559 22.5904 144.175 22.7952C143.8 23 143.36 23.1024 142.857 23.1024C142.277 23.1024 141.748 22.9531 141.27 22.6544C140.792 22.3472 140.412 21.9163 140.131 21.3616C139.857 20.7984 139.721 20.1499 139.721 19.416ZM145.071 19.4288C145.071 18.8827 144.918 18.4517 144.611 18.136C144.312 17.8203 143.945 17.6624 143.51 17.6624C143.075 17.6624 142.703 17.8203 142.396 18.136C142.097 18.4432 141.948 18.8699 141.948 19.416C141.948 19.9621 142.097 20.3973 142.396 20.7216C142.703 21.0373 143.075 21.1952 143.51 21.1952C143.945 21.1952 144.312 21.0373 144.611 20.7216C144.918 20.4059 145.071 19.9749 145.071 19.4288ZM152.824 21.144V23H151.711C150.917 23 150.299 22.808 149.855 22.424C149.411 22.0315 149.189 21.3957 149.189 20.5168V17.6752H148.319V15.8576H149.189V14.1168H151.378V15.8576H152.812V17.6752H151.378V20.5424C151.378 20.7557 151.429 20.9093 151.532 21.0032C151.634 21.0971 151.805 21.144 152.044 21.144H152.824ZM160.776 19.3136C160.776 19.5184 160.764 19.7317 160.738 19.9536H155.784C155.819 20.3973 155.959 20.7387 156.207 20.9776C156.463 21.208 156.774 21.3232 157.141 21.3232C157.687 21.3232 158.067 21.0928 158.28 20.632H160.61C160.491 21.1013 160.273 21.5237 159.957 21.8992C159.65 22.2747 159.262 22.5691 158.792 22.7824C158.323 22.9957 157.798 23.1024 157.218 23.1024C156.518 23.1024 155.895 22.9531 155.349 22.6544C154.803 22.3557 154.376 21.9291 154.069 21.3744C153.762 20.8197 153.608 20.1712 153.608 19.4288C153.608 18.6864 153.758 18.0379 154.056 17.4832C154.364 16.9285 154.79 16.5019 155.336 16.2032C155.883 15.9045 156.51 15.7552 157.218 15.7552C157.909 15.7552 158.524 15.9003 159.061 16.1904C159.599 16.4805 160.017 16.8944 160.316 17.432C160.623 17.9696 160.776 18.5968 160.776 19.3136ZM158.536 18.7376C158.536 18.3621 158.408 18.0635 158.152 17.8416C157.896 17.6197 157.576 17.5088 157.192 17.5088C156.825 17.5088 156.514 17.6155 156.258 17.8288C156.011 18.0421 155.857 18.3451 155.797 18.7376H158.536Z" fill="#F2F2F2"/>
</svg>
