<svg width="195" height="37" viewBox="0 0 195 37" fill="none" xmlns="http://www.w3.org/2000/svg">
<rect width="194.191" height="37" rx="4" fill="#C8AC48"/>
<mask id="mask0" mask-type="alpha" maskUnits="userSpaceOnUse" x="0" y="0" width="195" height="37">
<rect width="194.191" height="37" rx="4" fill="#A68C2F"/>
</mask>
<g mask="url(#mask0)">
<path d="M138.924 0L55.8394 37H194.191V0H138.924Z" fill="#B89D3B"/>
</g>
<path d="M52.3872 21.4128H49.0336L48.496 23H46.2048L49.456 14.0144H51.9904L55.2416 23H52.9248L52.3872 21.4128ZM51.824 19.7232L50.7104 16.4336L49.6096 19.7232H51.824ZM55.7959 19.416C55.7959 18.6821 55.9324 18.0379 56.2055 17.4832C56.4871 16.9285 56.8668 16.5019 57.3447 16.2032C57.8226 15.9045 58.3559 15.7552 58.9447 15.7552C59.414 15.7552 59.8407 15.8533 60.2247 16.0496C60.6172 16.2459 60.9244 16.5104 61.1463 16.8432V13.528H63.3351V23H61.1463V21.976C60.9415 22.3173 60.6471 22.5904 60.2631 22.7952C59.8876 23 59.4482 23.1024 58.9447 23.1024C58.3559 23.1024 57.8226 22.9531 57.3447 22.6544C56.8668 22.3472 56.4871 21.9163 56.2055 21.3616C55.9324 20.7984 55.7959 20.1499 55.7959 19.416ZM61.1463 19.4288C61.1463 18.8827 60.9927 18.4517 60.6855 18.136C60.3868 17.8203 60.0199 17.6624 59.5847 17.6624C59.1495 17.6624 58.7783 17.8203 58.4711 18.136C58.1724 18.4432 58.0231 18.8699 58.0231 19.416C58.0231 19.9621 58.1724 20.3973 58.4711 20.7216C58.7783 21.0373 59.1495 21.1952 59.5847 21.1952C60.0199 21.1952 60.3868 21.0373 60.6855 20.7216C60.9927 20.4059 61.1463 19.9749 61.1463 19.4288ZM64.4834 19.416C64.4834 18.6821 64.6199 18.0379 64.893 17.4832C65.1746 16.9285 65.5543 16.5019 66.0322 16.2032C66.5101 15.9045 67.0434 15.7552 67.6322 15.7552C68.1015 15.7552 68.5282 15.8533 68.9122 16.0496C69.3047 16.2459 69.6119 16.5104 69.8338 16.8432V13.528H72.0226V23H69.8338V21.976C69.629 22.3173 69.3346 22.5904 68.9506 22.7952C68.5751 23 68.1357 23.1024 67.6322 23.1024C67.0434 23.1024 66.5101 22.9531 66.0322 22.6544C65.5543 22.3472 65.1746 21.9163 64.893 21.3616C64.6199 20.7984 64.4834 20.1499 64.4834 19.416ZM69.8338 19.4288C69.8338 18.8827 69.6802 18.4517 69.373 18.136C69.0743 17.8203 68.7074 17.6624 68.2722 17.6624C67.837 17.6624 67.4658 17.8203 67.1586 18.136C66.8599 18.4432 66.7106 18.8699 66.7106 19.416C66.7106 19.9621 66.8599 20.3973 67.1586 20.7216C67.4658 21.0373 67.837 21.1952 68.2722 21.1952C68.7074 21.1952 69.0743 21.0373 69.373 20.7216C69.6802 20.4059 69.8338 19.9749 69.8338 19.4288ZM82.7826 14.0144V15.768H80.4018V23H78.213V15.768H75.8322V14.0144H82.7826ZM87.1323 23.1024C86.4326 23.1024 85.8011 22.9531 85.2379 22.6544C84.6832 22.3557 84.2438 21.9291 83.9195 21.3744C83.6038 20.8197 83.4459 20.1712 83.4459 19.4288C83.4459 18.6949 83.608 18.0507 83.9323 17.496C84.2566 16.9328 84.7003 16.5019 85.2635 16.2032C85.8267 15.9045 86.4582 15.7552 87.1579 15.7552C87.8576 15.7552 88.4891 15.9045 89.0523 16.2032C89.6155 16.5019 90.0592 16.9328 90.3835 17.496C90.7078 18.0507 90.8699 18.6949 90.8699 19.4288C90.8699 20.1627 90.7035 20.8112 90.3707 21.3744C90.0464 21.9291 89.5984 22.3557 89.0267 22.6544C88.4635 22.9531 87.832 23.1024 87.1323 23.1024ZM87.1323 21.208C87.5504 21.208 87.9046 21.0544 88.1947 20.7472C88.4934 20.44 88.6427 20.0005 88.6427 19.4288C88.6427 18.8571 88.4976 18.4176 88.2075 18.1104C87.9259 17.8032 87.576 17.6496 87.1579 17.6496C86.7312 17.6496 86.3771 17.8032 86.0955 18.1104C85.8139 18.4091 85.6731 18.8485 85.6731 19.4288C85.6731 20.0005 85.8096 20.44 86.0827 20.7472C86.3643 21.0544 86.7142 21.208 87.1323 21.208ZM97.5351 17.5984V19.416H91.9031V17.5984H97.5351ZM99.0209 19.416C99.0209 18.6821 99.1574 18.0379 99.4305 17.4832C99.7121 16.9285 100.092 16.5019 100.57 16.2032C101.048 15.9045 101.581 15.7552 102.17 15.7552C102.639 15.7552 103.066 15.8533 103.45 16.0496C103.842 16.2459 104.149 16.5104 104.371 16.8432V13.528H106.56V23H104.371V21.976C104.167 22.3173 103.872 22.5904 103.488 22.7952C103.113 23 102.673 23.1024 102.17 23.1024C101.581 23.1024 101.048 22.9531 100.57 22.6544C100.092 22.3472 99.7121 21.9163 99.4305 21.3616C99.1574 20.7984 99.0209 20.1499 99.0209 19.416ZM104.371 19.4288C104.371 18.8827 104.218 18.4517 103.911 18.136C103.612 17.8203 103.245 17.6624 102.81 17.6624C102.375 17.6624 102.003 17.8203 101.696 18.136C101.397 18.4432 101.248 18.8699 101.248 19.416C101.248 19.9621 101.397 20.3973 101.696 20.7216C102.003 21.0373 102.375 21.1952 102.81 21.1952C103.245 21.1952 103.612 21.0373 103.911 20.7216C104.218 20.4059 104.371 19.9749 104.371 19.4288ZM111.395 23.1024C110.695 23.1024 110.064 22.9531 109.5 22.6544C108.946 22.3557 108.506 21.9291 108.182 21.3744C107.866 20.8197 107.708 20.1712 107.708 19.4288C107.708 18.6949 107.871 18.0507 108.195 17.496C108.519 16.9328 108.963 16.5019 109.526 16.2032C110.089 15.9045 110.721 15.7552 111.42 15.7552C112.12 15.7552 112.752 15.9045 113.315 16.2032C113.878 16.5019 114.322 16.9328 114.646 17.496C114.97 18.0507 115.132 18.6949 115.132 19.4288C115.132 20.1627 114.966 20.8112 114.633 21.3744C114.309 21.9291 113.861 22.3557 113.289 22.6544C112.726 22.9531 112.095 23.1024 111.395 23.1024ZM111.395 21.208C111.813 21.208 112.167 21.0544 112.457 20.7472C112.756 20.44 112.905 20.0005 112.905 19.4288C112.905 18.8571 112.76 18.4176 112.47 18.1104C112.188 17.8032 111.839 17.6496 111.42 17.6496C110.994 17.6496 110.64 17.8032 110.358 18.1104C110.076 18.4091 109.936 18.8485 109.936 19.4288C109.936 20.0005 110.072 20.44 110.345 20.7472C110.627 21.0544 110.977 21.208 111.395 21.208ZM121.195 21.3104H124.062V23H119.006V14.0144H121.195V21.3104ZM126.207 15.1152C125.823 15.1152 125.507 15.0043 125.26 14.7824C125.021 14.552 124.901 14.2704 124.901 13.9376C124.901 13.5963 125.021 13.3147 125.26 13.0928C125.507 12.8624 125.823 12.7472 126.207 12.7472C126.582 12.7472 126.89 12.8624 127.129 13.0928C127.376 13.3147 127.5 13.5963 127.5 13.9376C127.5 14.2704 127.376 14.552 127.129 14.7824C126.89 15.0043 126.582 15.1152 126.207 15.1152ZM127.295 15.8576V23H125.106V15.8576H127.295ZM131.787 23.1024C131.164 23.1024 130.609 22.9957 130.123 22.7824C129.636 22.5691 129.252 22.2789 128.971 21.912C128.689 21.5365 128.531 21.1184 128.497 20.6576H130.66C130.686 20.9051 130.801 21.1056 131.006 21.2592C131.211 21.4128 131.462 21.4896 131.761 21.4896C132.034 21.4896 132.243 21.4384 132.388 21.336C132.542 21.2251 132.619 21.0843 132.619 20.9136C132.619 20.7088 132.512 20.5595 132.299 20.4656C132.085 20.3632 131.74 20.2523 131.262 20.1328C130.75 20.0133 130.323 19.8896 129.982 19.7616C129.641 19.6251 129.346 19.416 129.099 19.1344C128.851 18.8443 128.728 18.456 128.728 17.9696C128.728 17.56 128.838 17.1888 129.06 16.856C129.291 16.5147 129.624 16.2459 130.059 16.0496C130.502 15.8533 131.027 15.7552 131.633 15.7552C132.529 15.7552 133.233 15.9771 133.745 16.4208C134.266 16.8645 134.564 17.4533 134.641 18.1872H132.619C132.585 17.9397 132.474 17.7435 132.286 17.5984C132.107 17.4533 131.868 17.3808 131.569 17.3808C131.313 17.3808 131.117 17.432 130.98 17.5344C130.844 17.6283 130.776 17.7605 130.776 17.9312C130.776 18.136 130.882 18.2896 131.096 18.392C131.317 18.4944 131.659 18.5968 132.12 18.6992C132.649 18.8357 133.08 18.9723 133.412 19.1088C133.745 19.2368 134.035 19.4501 134.283 19.7488C134.539 20.0389 134.671 20.4315 134.68 20.9264C134.68 21.3445 134.56 21.72 134.321 22.0528C134.091 22.3771 133.754 22.6331 133.31 22.8208C132.875 23.0085 132.367 23.1024 131.787 23.1024ZM139.999 21.144V23H138.886C138.092 23 137.474 22.808 137.03 22.424C136.586 22.0315 136.364 21.3957 136.364 20.5168V17.6752H135.494V15.8576H136.364V14.1168H138.553V15.8576H139.987V17.6752H138.553V20.5424C138.553 20.7557 138.604 20.9093 138.707 21.0032C138.809 21.0971 138.98 21.144 139.219 21.144H139.999Z" fill="#F2F2F2"/>
</svg>
