<svg width="195" height="37" viewBox="0 0 195 37" fill="none" xmlns="http://www.w3.org/2000/svg">
<rect width="194.191" height="37" rx="4" fill="#C8AC48"/>
<mask id="mask0" mask-type="alpha" maskUnits="userSpaceOnUse" x="0" y="0" width="195" height="37">
<rect width="194.191" height="37" rx="4" fill="#A68C2F"/>
</mask>
<g mask="url(#mask0)">
<path d="M138.924 0L55.8394 37H194.191V0H138.924Z" fill="#B89D3B"/>
</g>
<path d="M60.3872 21.4128H57.0336L56.496 23H54.2048L57.456 14.0144H59.9904L63.2416 23H60.9248L60.3872 21.4128ZM59.824 19.7232L58.7104 16.4336L57.6096 19.7232H59.824ZM63.7959 19.416C63.7959 18.6821 63.9324 18.0379 64.2055 17.4832C64.4871 16.9285 64.8668 16.5019 65.3447 16.2032C65.8226 15.9045 66.3559 15.7552 66.9447 15.7552C67.414 15.7552 67.8407 15.8533 68.2247 16.0496C68.6172 16.2459 68.9244 16.5104 69.1463 16.8432V13.528H71.3351V23H69.1463V21.976C68.9415 22.3173 68.6471 22.5904 68.2631 22.7952C67.8876 23 67.4482 23.1024 66.9447 23.1024C66.3559 23.1024 65.8226 22.9531 65.3447 22.6544C64.8668 22.3472 64.4871 21.9163 64.2055 21.3616C63.9324 20.7984 63.7959 20.1499 63.7959 19.416ZM69.1463 19.4288C69.1463 18.8827 68.9927 18.4517 68.6855 18.136C68.3868 17.8203 68.0199 17.6624 67.5847 17.6624C67.1495 17.6624 66.7783 17.8203 66.4711 18.136C66.1724 18.4432 66.0231 18.8699 66.0231 19.416C66.0231 19.9621 66.1724 20.3973 66.4711 20.7216C66.7783 21.0373 67.1495 21.1952 67.5847 21.1952C68.0199 21.1952 68.3868 21.0373 68.6855 20.7216C68.9927 20.4059 69.1463 19.9749 69.1463 19.4288ZM72.4834 19.416C72.4834 18.6821 72.6199 18.0379 72.893 17.4832C73.1746 16.9285 73.5543 16.5019 74.0322 16.2032C74.5101 15.9045 75.0434 15.7552 75.6322 15.7552C76.1015 15.7552 76.5282 15.8533 76.9122 16.0496C77.3047 16.2459 77.6119 16.5104 77.8338 16.8432V13.528H80.0226V23H77.8338V21.976C77.629 22.3173 77.3346 22.5904 76.9506 22.7952C76.5751 23 76.1357 23.1024 75.6322 23.1024C75.0434 23.1024 74.5101 22.9531 74.0322 22.6544C73.5543 22.3472 73.1746 21.9163 72.893 21.3616C72.6199 20.7984 72.4834 20.1499 72.4834 19.416ZM77.8338 19.4288C77.8338 18.8827 77.6802 18.4517 77.373 18.136C77.0743 17.8203 76.7074 17.6624 76.2722 17.6624C75.837 17.6624 75.4658 17.8203 75.1586 18.136C74.8599 18.4432 74.7106 18.8699 74.7106 19.416C74.7106 19.9621 74.8599 20.3973 75.1586 20.7216C75.4658 21.0373 75.837 21.1952 76.2722 21.1952C76.7074 21.1952 77.0743 21.0373 77.373 20.7216C77.6802 20.4059 77.8338 19.9749 77.8338 19.4288ZM92.7538 14.0144L89.5666 23H86.8274L83.6402 14.0144H85.9698L88.197 20.7984L90.437 14.0144H92.7538ZM96.9198 23.1024C96.2201 23.1024 95.5886 22.9531 95.0254 22.6544C94.4707 22.3557 94.0313 21.9291 93.707 21.3744C93.3913 20.8197 93.2334 20.1712 93.2334 19.4288C93.2334 18.6949 93.3955 18.0507 93.7198 17.496C94.0441 16.9328 94.4878 16.5019 95.051 16.2032C95.6142 15.9045 96.2457 15.7552 96.9454 15.7552C97.6451 15.7552 98.2766 15.9045 98.8398 16.2032C99.403 16.5019 99.8467 16.9328 100.171 17.496C100.495 18.0507 100.657 18.6949 100.657 19.4288C100.657 20.1627 100.491 20.8112 100.158 21.3744C99.8339 21.9291 99.3859 22.3557 98.8142 22.6544C98.251 22.9531 97.6195 23.1024 96.9198 23.1024ZM96.9198 21.208C97.3379 21.208 97.6921 21.0544 97.9822 20.7472C98.2809 20.44 98.4302 20.0005 98.4302 19.4288C98.4302 18.8571 98.2851 18.4176 97.995 18.1104C97.7134 17.8032 97.3635 17.6496 96.9454 17.6496C96.5187 17.6496 96.1646 17.8032 95.883 18.1104C95.6014 18.4091 95.4606 18.8485 95.4606 19.4288C95.4606 20.0005 95.5971 20.44 95.8702 20.7472C96.1518 21.0544 96.5017 21.208 96.9198 21.208ZM108.871 15.8576V23H106.683V22.0272C106.461 22.3429 106.158 22.5989 105.774 22.7952C105.398 22.9829 104.98 23.0768 104.519 23.0768C103.973 23.0768 103.491 22.9573 103.073 22.7184C102.655 22.4709 102.331 22.1168 102.1 21.656C101.87 21.1952 101.755 20.6533 101.755 20.0304V15.8576H103.931V19.736C103.931 20.2139 104.054 20.5851 104.302 20.8496C104.549 21.1141 104.882 21.2464 105.3 21.2464C105.727 21.2464 106.064 21.1141 106.311 20.8496C106.559 20.5851 106.683 20.2139 106.683 19.736V15.8576H108.871ZM110.008 19.4288C110.008 18.6864 110.158 18.0379 110.456 17.4832C110.764 16.9285 111.186 16.5019 111.724 16.2032C112.27 15.9045 112.893 15.7552 113.592 15.7552C114.488 15.7552 115.235 15.9899 115.832 16.4592C116.438 16.9285 116.835 17.5899 117.023 18.4432H114.693C114.497 17.8971 114.117 17.624 113.554 17.624C113.153 17.624 112.833 17.7819 112.594 18.0976C112.355 18.4048 112.236 18.8485 112.236 19.4288C112.236 20.0091 112.355 20.4571 112.594 20.7728C112.833 21.08 113.153 21.2336 113.554 21.2336C114.117 21.2336 114.497 20.9605 114.693 20.4144H117.023C116.835 21.2507 116.438 21.9077 115.832 22.3856C115.227 22.8635 114.48 23.1024 113.592 23.1024C112.893 23.1024 112.27 22.9531 111.724 22.6544C111.186 22.3557 110.764 21.9291 110.456 21.3744C110.158 20.8197 110.008 20.1712 110.008 19.4288ZM122.584 15.7808C123.403 15.7808 124.06 16.0539 124.555 16.6C125.05 17.1376 125.298 17.88 125.298 18.8272V23H123.122V19.1216C123.122 18.6437 122.998 18.2725 122.75 18.008C122.503 17.7435 122.17 17.6112 121.752 17.6112C121.334 17.6112 121.001 17.7435 120.754 18.008C120.506 18.2725 120.382 18.6437 120.382 19.1216V23H118.194V13.528H120.382V16.8176C120.604 16.5019 120.907 16.2501 121.291 16.0624C121.675 15.8747 122.106 15.7808 122.584 15.7808ZM133.551 19.3136C133.551 19.5184 133.539 19.7317 133.513 19.9536H128.559C128.594 20.3973 128.734 20.7387 128.982 20.9776C129.238 21.208 129.549 21.3232 129.916 21.3232C130.462 21.3232 130.842 21.0928 131.055 20.632H133.385C133.266 21.1013 133.048 21.5237 132.732 21.8992C132.425 22.2747 132.037 22.5691 131.567 22.7824C131.098 22.9957 130.573 23.1024 129.993 23.1024C129.293 23.1024 128.67 22.9531 128.124 22.6544C127.578 22.3557 127.151 21.9291 126.844 21.3744C126.537 20.8197 126.383 20.1712 126.383 19.4288C126.383 18.6864 126.533 18.0379 126.831 17.4832C127.139 16.9285 127.565 16.5019 128.111 16.2032C128.658 15.9045 129.285 15.7552 129.993 15.7552C130.684 15.7552 131.299 15.9003 131.836 16.1904C132.374 16.4805 132.792 16.8944 133.091 17.432C133.398 17.9696 133.551 18.5968 133.551 19.3136ZM131.311 18.7376C131.311 18.3621 131.183 18.0635 130.927 17.8416C130.671 17.6197 130.351 17.5088 129.967 17.5088C129.6 17.5088 129.289 17.6155 129.033 17.8288C128.786 18.0421 128.632 18.3451 128.572 18.7376H131.311ZM136.895 17.048C137.151 16.6555 137.471 16.3483 137.855 16.1264C138.239 15.896 138.666 15.7808 139.135 15.7808V18.0976H138.533C137.987 18.0976 137.578 18.2171 137.304 18.456C137.031 18.6864 136.895 19.096 136.895 19.6848V23H134.706V15.8576H136.895V17.048Z" fill="#F2F2F2"/>
</svg>
