<svg width="36" height="36" viewBox="0 0 36 36" fill="none" xmlns="http://www.w3.org/2000/svg">
<path d="M35.9397 21.9517L35.9451 21.9499L30.0345 9.05366L31.4679 8.34027L30.9315 7.26628L29.5341 7.96228L29.3451 7.55008C29.207 7.24888 28.8509 7.11666 28.5497 7.25473C28.419 7.31466 28.3143 7.41943 28.2543 7.55008L28.0857 7.91848C27.0687 7.44613 25.9611 7.20103 24.8398 7.20028H19.7998V6.00029H20.9998V4.80031H19.9684L20.3998 3.07412C20.731 1.74866 19.9251 0.405649 18.5996 0.0743773C17.2741 -0.256819 15.9311 0.549123 15.5999 1.87458C15.5015 2.26833 15.5015 2.6803 15.5999 3.07405L16.0313 4.80023H14.9999V6.00022H16.1998V7.20021H11.1629C10.0405 7.20111 8.93167 7.44681 7.91393 7.9202L7.74533 7.5518C7.60726 7.25061 7.25109 7.11838 6.94989 7.25646C6.81924 7.31638 6.71447 7.42116 6.65454 7.5518L6.46554 7.964L5.06816 7.26501L4.53176 8.3402L5.96515 9.05659L0.0546074 21.9499C0.0181578 22.0283 -0.000442021 22.1137 7.97434e-06 22.2001C0.00263295 24.5186 1.88151 26.3975 4.19997 26.4001H10.1999C12.5184 26.3975 14.3972 24.5186 14.3999 22.2001C14.3984 22.114 14.3779 22.0291 14.3399 21.9517L8.41313 9.00687C9.27464 8.60697 10.2131 8.39997 11.1629 8.40027H16.1998V30.3517L14.1515 32.4H11.9999C10.3439 32.402 9.00187 33.744 8.99992 35.4C8.99992 35.7314 9.26857 36 9.59991 36H26.3998C26.7311 36 26.9997 35.7314 26.9997 35.4C26.9978 33.744 25.6558 32.402 23.9998 32.4H21.8482L19.7998 30.3517V8.40027H24.8398C25.7896 8.39997 26.728 8.60697 27.5895 9.00687L21.6544 21.9499C21.6179 22.0283 21.5993 22.1137 21.5998 22.2001C21.6024 24.5186 23.4813 26.3975 25.7998 26.4001H31.7997C34.1181 26.3975 35.997 24.5186 35.9997 22.2001C35.9982 22.114 35.9778 22.0291 35.9397 21.9517ZM10.1999 25.2001H4.19997C2.77483 25.1985 1.54687 24.1961 1.26 22.8001H13.1399C12.8531 24.1961 11.625 25.1985 10.1999 25.2001ZM12.8651 21.6001H1.53479L7.04634 9.57566C7.14699 9.60266 7.25289 9.60266 7.35354 9.57566L12.8651 21.6001ZM16.996 1.68994C17.4633 1.13554 18.2915 1.06497 18.8459 1.53221C18.9028 1.58021 18.9556 1.63301 19.0036 1.68994C19.2463 1.99863 19.332 2.40243 19.2358 2.78313L18.7312 4.80031H17.2684L16.7638 2.78313C16.6676 2.40243 16.7534 1.99863 16.996 1.68994ZM17.3998 7.20028V6.00029H18.5998V7.20028H17.3998ZM18.5998 8.40027V30.0001H17.3998V8.40027H18.5998V8.40027ZM23.9998 33.6C24.7624 33.6009 25.4419 34.0814 25.6972 34.8H10.3025C10.5577 34.0814 11.2373 33.6009 11.9999 33.6H23.9998ZM20.1514 32.4H15.8483L17.0482 31.2H18.9514L20.1514 32.4ZM28.6449 9.57746C28.744 9.61233 28.8527 9.60783 28.9485 9.56486L34.4649 21.6001H23.1346L28.6449 9.57746ZM31.7997 25.2001H25.7998C24.3746 25.1985 23.1467 24.1961 22.8598 22.8001H34.7397C34.4529 24.1961 33.2248 25.1985 31.7997 25.2001Z" fill="#313B4E"/>
</svg>
