<svg width="24" height="24" viewBox="0 0 24 24" fill="none" xmlns="http://www.w3.org/2000/svg">
<path d="M20.75 19.5C20.75 19.5 22 19.5 22 18.25C22 17 20.75 13.25 15.75 13.25C10.75 13.25 9.5 17 9.5 18.25C9.5 19.5 10.75 19.5 10.75 19.5H20.75ZM10.7775 18.25C10.7683 18.2487 10.7591 18.2471 10.75 18.245C10.7513 17.915 10.9588 16.9575 11.7 16.095C12.39 15.2863 13.6025 14.5 15.75 14.5C17.8963 14.5 19.1087 15.2875 19.8 16.095C20.5412 16.9575 20.7475 17.9163 20.75 18.245L20.74 18.2475C20.7342 18.2485 20.7284 18.2493 20.7225 18.25H10.7775V18.25ZM15.75 10.75C16.413 10.75 17.0489 10.4866 17.5178 10.0178C17.9866 9.54893 18.25 8.91304 18.25 8.25C18.25 7.58696 17.9866 6.95107 17.5178 6.48223C17.0489 6.01339 16.413 5.75 15.75 5.75C15.087 5.75 14.4511 6.01339 13.9822 6.48223C13.5134 6.95107 13.25 7.58696 13.25 8.25C13.25 8.91304 13.5134 9.54893 13.9822 10.0178C14.4511 10.4866 15.087 10.75 15.75 10.75ZM19.5 8.25C19.5 8.74246 19.403 9.23009 19.2145 9.68506C19.0261 10.14 18.7499 10.5534 18.4017 10.9017C18.0534 11.2499 17.64 11.5261 17.1851 11.7145C16.7301 11.903 16.2425 12 15.75 12C15.2575 12 14.7699 11.903 14.3149 11.7145C13.86 11.5261 13.4466 11.2499 13.0983 10.9017C12.7501 10.5534 12.4739 10.14 12.2855 9.68506C12.097 9.23009 12 8.74246 12 8.25C12 7.25544 12.3951 6.30161 13.0983 5.59835C13.8016 4.89509 14.7554 4.5 15.75 4.5C16.7446 4.5 17.6984 4.89509 18.4017 5.59835C19.1049 6.30161 19.5 7.25544 19.5 8.25V8.25ZM10.67 13.6C10.17 13.4425 9.65454 13.339 9.1325 13.2912C8.83916 13.2634 8.54466 13.2496 8.25 13.25C3.25 13.25 2 17 2 18.25C2 19.0837 2.41625 19.5 3.25 19.5H8.52C8.33469 19.1098 8.24228 18.6819 8.25 18.25C8.25 16.9875 8.72125 15.6975 9.6125 14.62C9.91625 14.2525 10.27 13.9087 10.67 13.6ZM8.15 14.5C7.41019 15.6116 7.01055 16.9148 7 18.25H3.25C3.25 17.925 3.455 16.9625 4.2 16.095C4.88125 15.3 6.065 14.525 8.15 14.5013V14.5ZM3.875 8.875C3.875 7.88044 4.27009 6.92661 4.97335 6.22335C5.67661 5.52009 6.63044 5.125 7.625 5.125C8.61956 5.125 9.57339 5.52009 10.2767 6.22335C10.9799 6.92661 11.375 7.88044 11.375 8.875C11.375 9.86956 10.9799 10.8234 10.2767 11.5267C9.57339 12.2299 8.61956 12.625 7.625 12.625C6.63044 12.625 5.67661 12.2299 4.97335 11.5267C4.27009 10.8234 3.875 9.86956 3.875 8.875V8.875ZM7.625 6.375C6.96196 6.375 6.32607 6.63839 5.85723 7.10723C5.38839 7.57607 5.125 8.21196 5.125 8.875C5.125 9.53804 5.38839 10.1739 5.85723 10.6428C6.32607 11.1116 6.96196 11.375 7.625 11.375C8.28804 11.375 8.92393 11.1116 9.39277 10.6428C9.86161 10.1739 10.125 9.53804 10.125 8.875C10.125 8.21196 9.86161 7.57607 9.39277 7.10723C8.92393 6.63839 8.28804 6.375 7.625 6.375Z" fill="#D3D3FD"/>
</svg>
