<svg width="98" height="98" viewBox="0 0 98 98" fill="none" xmlns="http://www.w3.org/2000/svg">
<circle cx="49" cy="49" r="42" fill="#46546B"/>
<circle cx="49" cy="49" r="47.5" stroke="#293852" stroke-width="3"/>
<path d="M55.7229 51.1729C55.7229 52.3995 56.0715 52.8886 56.9829 52.8886C59.0144 52.8886 60.3079 50.2968 60.3079 45.9864C60.3079 39.3982 55.5129 36.2443 49.5265 36.2443C43.3679 36.2443 37.7665 40.3794 37.7665 48.1942C37.7665 55.6585 42.6665 59.7236 50.1915 59.7236C52.7465 59.7236 54.4615 59.4433 57.085 58.5672L57.6479 60.9136C55.0579 61.7562 52.29 62 50.1565 62C40.2865 62 35 56.5682 35 48.1927C35 39.7472 41.1265 34 49.5615 34C58.3465 34 63 39.2566 63 45.7046C63 51.1715 61.2865 55.3417 55.8965 55.3417C53.445 55.3417 51.8365 54.3604 51.6265 52.1863C50.9965 54.6043 49.3165 55.3417 47.04 55.3417C43.995 55.3417 41.44 52.9923 41.44 48.2628C41.44 43.4969 43.6815 40.5532 47.7065 40.5532C49.8415 40.5532 51.1715 41.3942 51.7635 42.7259L52.78 40.8686H55.72V51.1729H55.7229V51.1729ZM51.4194 46.5471C51.4194 44.6212 49.9829 43.8137 48.7929 43.8137C47.4979 43.8137 46.0644 44.8636 46.0644 47.9489C46.0644 50.402 47.1494 51.7687 48.7929 51.7687C49.9479 51.7687 51.4194 51.0327 51.4194 49.0002V46.5471Z" fill="#F2F2F2"/>
</svg>
