<svg width="54" height="50" viewBox="0 0 54 50" fill="none" xmlns="http://www.w3.org/2000/svg">
<path d="M47.25 9.14894H38.2852V6.80851C38.2852 4.89362 37.6348 3.28014 36.334 1.96809C35.0332 0.656028 33.4336 0 31.5352 0H22.4648C20.5664 0 18.9668 0.656028 17.666 1.96809C16.3652 3.28014 15.7148 4.89362 15.7148 6.80851V9.14894H6.75C4.85156 9.14894 3.25195 9.78723 1.95117 11.0638C0.650391 12.3404 0 13.9716 0 15.9574V25C0 26.4894 0.738281 27.234 2.21484 27.234V45.4255C2.21484 46.6312 2.67187 47.695 3.58594 48.617C4.5 49.539 5.55469 50 6.75 50H47.25C48.4453 50 49.5 49.539 50.4141 48.617C51.3281 47.695 51.7852 46.6312 51.7852 45.4255V27.234C53.2617 27.234 54 26.4894 54 25V15.9574C54 13.9716 53.3496 12.3404 52.0488 11.0638C50.748 9.78723 49.1484 9.14894 47.25 9.14894ZM20.25 6.80851C20.25 6.17021 20.4609 5.6383 20.8828 5.21277C21.3047 4.78723 21.832 4.57447 22.4648 4.57447H31.5352C32.168 4.57447 32.6953 4.78723 33.1172 5.21277C33.5391 5.6383 33.75 6.17021 33.75 6.80851V9.14894H20.25V6.80851ZM6.75 45.4255V27.234H20.25V34.0426C20.25 35.3191 20.6895 36.4007 21.5684 37.2872C22.4473 38.1738 23.5195 38.617 24.7852 38.617H29.2148C30.4805 38.617 31.5527 38.1738 32.4316 37.2872C33.3105 36.4007 33.75 35.3191 33.75 34.0426V27.234H47.25V45.4255H6.75ZM24.7852 34.0426V27.234H29.2148V34.0426H24.7852ZM49.4648 22.766H4.53516V15.9574C4.53516 14.3972 5.27344 13.617 6.75 13.617H47.25C48.7266 13.617 49.4648 14.3972 49.4648 15.9574V22.766Z" fill="#C8AC48"/>
</svg>
