<svg width="50" height="50" viewBox="0 0 50 50" fill="none" xmlns="http://www.w3.org/2000/svg">
<path d="M24.5 49C27.3188 49 29.625 46.7385 29.625 43.9744H19.375C19.375 46.7385 21.6812 49 24.5 49ZM39.875 33.9231V21.359C39.875 13.6446 35.6981 7.18667 28.3438 5.47795V3.76923C28.3438 1.68359 26.6269 0 24.5 0C22.3731 0 20.6562 1.68359 20.6562 3.76923V5.47795C13.3275 7.18667 9.125 13.6195 9.125 21.359V33.9231L4 38.9487V41.4615H45V38.9487L39.875 33.9231ZM34.75 36.4359H14.25V21.359C14.25 15.1272 18.1194 10.0513 24.5 10.0513C30.8806 10.0513 34.75 15.1272 34.75 21.359V36.4359Z" fill="#C8AC48"/>
</svg>
