<svg width="1085" height="789" viewBox="0 0 1085 789" fill="none" xmlns="http://www.w3.org/2000/svg">
<rect width="1085" height="789" fill="#202838"/>
<g opacity="0.06">
<path d="M532.424 318.988C531.114 334.402 518.578 346.851 502.701 347.621C486.824 348.391 473.142 337.214 470.345 322L532.424 318.988Z" fill="#FECA57"/>
<path d="M530.331 313.06L499.76 241.299C498.976 239.458 499.832 237.33 501.673 236.546C503.513 235.761 505.642 236.618 506.426 238.459L536.997 310.221C537.781 312.061 536.924 314.189 535.083 314.973C533.245 315.757 531.116 314.903 530.331 313.06Z" fill="#CCD2DB"/>
<path d="M470.225 318.12C468.317 317.518 467.258 315.483 467.86 313.575L491.34 239.191C491.942 237.283 493.976 236.224 495.885 236.827C497.793 237.429 498.852 239.464 498.25 241.372L474.77 315.756C474.168 317.664 472.133 318.723 470.225 318.12Z" fill="#CCD2DB"/>
<path d="M626.808 310.518C624.902 309.909 623.852 307.87 624.461 305.964L647.98 232.401C648.59 230.495 650.629 229.445 652.534 230.054C654.44 230.663 655.491 232.702 654.882 234.608L631.362 308.171C630.753 310.077 628.714 311.127 626.808 310.518Z" fill="#CCD2DB"/>
<path d="M686.932 305.474L656.401 234.534C655.61 232.696 656.459 230.565 658.297 229.774C660.135 228.983 662.266 229.832 663.057 231.669L693.588 302.61C694.379 304.448 693.53 306.579 691.692 307.37C689.856 308.16 687.724 307.313 686.932 305.474Z" fill="#CCD2DB"/>
<path d="M504.989 243.644C503.143 243.734 501.498 242.404 501.231 240.538C500.948 238.557 502.324 236.722 504.305 236.438C516.275 234.726 519.412 233.201 566.443 217.815C568.344 217.193 570.39 218.23 571.013 220.132C571.635 222.033 570.598 224.08 568.696 224.702C521.418 240.169 517.921 241.81 505.331 243.612C505.217 243.628 505.102 243.639 504.989 243.644Z" fill="#3E4B5A"/>
<path d="M650.768 236.824C650.655 236.83 650.541 236.83 650.425 236.825C637.236 236.229 633.651 234.929 582.948 223.633C580.995 223.198 579.764 221.262 580.199 219.309C580.634 217.356 582.571 216.125 584.523 216.56C635.299 227.872 638.371 229.027 650.752 229.586C652.751 229.676 654.298 231.37 654.208 233.369C654.123 235.252 652.614 236.735 650.768 236.824Z" fill="#3E4B5A"/>
<path d="M575.448 204.244C578.038 204.118 580.496 204.701 582.642 205.815L581.991 192.388C581.859 189.68 579.558 187.591 576.85 187.722L572.453 187.935C569.746 188.067 567.657 190.369 567.788 193.077L568.439 206.504C570.468 205.186 572.859 204.37 575.448 204.244Z" fill="#C46F5F"/>
<path d="M591.011 378.296L583.828 230.242C581.8 231.559 579.409 232.376 576.819 232.502C574.23 232.628 571.771 232.045 569.625 230.931L576.809 378.985L591.011 378.296Z" fill="#C46F5F"/>
<path d="M577.347 192.613C577.262 190.853 578.117 189.27 579.467 188.337C578.694 187.907 577.798 187.676 576.85 187.722L572.454 187.935C569.746 188.067 567.657 190.369 567.788 193.077L568.44 206.504C570.468 205.187 572.859 204.37 575.448 204.244C576.287 204.203 577.111 204.245 577.917 204.346L577.347 192.613Z" fill="#B45F4A"/>
<path d="M576.819 232.503C574.23 232.628 571.771 232.046 569.625 230.931L576.809 378.985L586.368 378.521L579.266 232.161C578.474 232.341 577.659 232.462 576.819 232.503Z" fill="#B45F4A"/>
<path d="M623.227 300.007L694.239 296.562C697.587 296.399 700.459 299.005 700.621 302.353L700.736 304.721C700.898 308.068 698.292 310.94 694.945 311.103L623.933 314.548C620.585 314.711 617.713 312.105 617.551 308.757L617.436 306.389C617.273 303.041 619.88 300.17 623.227 300.007Z" fill="#F4B537"/>
<path d="M694.476 301.453L623.465 304.898C621.481 304.994 619.67 304.114 618.485 302.688C617.769 303.744 617.37 305.025 617.436 306.389L617.551 308.756C617.713 312.104 620.585 314.71 623.933 314.548L694.944 311.102C698.292 310.94 700.898 308.068 700.736 304.72L700.621 302.353C700.554 300.989 700.033 299.752 699.218 298.771C698.176 300.305 696.46 301.356 694.476 301.453Z" fill="#E59D1F"/>
<path d="M691.936 311.248C690.625 326.662 678.089 339.111 662.212 339.881C646.336 340.652 632.654 329.475 629.857 314.26L691.936 311.248Z" fill="#FECA57"/>
<path d="M484.82 321.298L470.345 322C473.142 337.214 486.824 348.391 502.701 347.621C505.192 347.5 507.601 347.091 509.898 346.429C497.273 344.081 487.178 334.125 484.82 321.298Z" fill="#F4B537"/>
<path d="M644.332 313.558L629.857 314.26C632.654 329.475 646.336 340.652 662.213 339.881C664.704 339.761 667.113 339.352 669.409 338.689C656.785 336.342 646.69 326.385 644.332 313.558Z" fill="#F4B537"/>
<path d="M499.415 249.78C504.772 249.52 508.904 244.967 508.644 239.61C508.384 234.252 503.831 230.12 498.474 230.38C493.116 230.64 488.984 235.194 489.244 240.551C489.504 245.908 494.058 250.04 499.415 249.78Z" fill="#FECA57"/>
<path d="M656.011 242.182C661.368 241.922 665.5 237.368 665.24 232.011C664.98 226.654 660.427 222.522 655.07 222.782C649.713 223.042 645.581 227.596 645.841 232.953C646.1 238.31 650.654 242.442 656.011 242.182Z" fill="#FECA57"/>
<path d="M611.23 375.864L556.45 378.522C553.103 378.685 550.496 381.556 550.659 384.904L551.139 394.806L618.093 391.557L617.612 381.656C617.45 378.308 614.578 375.702 611.23 375.864Z" fill="#3E4B5A"/>
<path d="M550.72 383.702C550.661 384.093 550.638 384.495 550.658 384.904L551.139 394.805L618.092 391.556L617.612 381.655C617.592 381.246 617.53 380.848 617.433 380.465L550.72 383.702Z" fill="#303F49"/>
<path d="M620.18 390.005L549.169 393.45C545.821 393.613 543.215 396.484 543.377 399.832L543.492 402.2C543.654 405.547 546.527 408.153 549.874 407.991L620.886 404.545C624.233 404.383 626.84 401.511 626.677 398.163L626.562 395.796C626.4 392.448 623.528 389.842 620.18 390.005Z" fill="#576574"/>
<path d="M620.418 394.895L549.406 398.341C547.423 398.437 545.612 397.557 544.427 396.131C543.711 397.186 543.311 398.467 543.378 399.832L543.492 402.199C543.655 405.547 546.527 408.153 549.875 407.991L620.886 404.545C624.234 404.383 626.84 401.511 626.678 398.163L626.563 395.795C626.497 394.431 625.975 393.194 625.16 392.214C624.118 393.748 622.401 394.799 620.418 394.895Z" fill="#3E4B5A"/>
<path d="M576.819 232.502C584.623 232.123 590.642 225.491 590.263 217.687C589.884 209.884 583.252 203.865 575.448 204.244C567.645 204.622 561.626 211.255 562.004 219.058C562.383 226.862 569.016 232.881 576.819 232.502Z" fill="#FECA57"/>
<path d="M503.719 239.849C503.599 237.372 504.425 235.075 505.869 233.287C503.995 231.379 501.354 230.241 498.473 230.38C493.116 230.64 488.984 235.194 489.244 240.551C489.504 245.908 494.057 250.04 499.414 249.78C502.295 249.64 504.814 248.252 506.494 246.171C504.884 244.531 503.839 242.325 503.719 239.849Z" fill="#F4B537"/>
<path d="M660.315 232.25C660.195 229.774 661.022 227.477 662.465 225.689C660.592 223.781 657.951 222.642 655.07 222.782C649.713 223.042 645.581 227.595 645.841 232.953C646.1 238.31 650.654 242.442 656.011 242.182C658.892 242.042 661.41 240.654 663.09 238.573C661.48 236.933 660.436 234.726 660.315 232.25Z" fill="#F4B537"/>
<path d="M576.479 218.356C576.229 213.198 578.775 208.554 582.782 205.886C580.604 204.724 578.094 204.115 575.448 204.244C567.645 204.622 561.626 211.255 562.004 219.058C562.383 226.862 569.016 232.881 576.819 232.502C579.465 232.374 581.904 231.525 583.96 230.157C579.713 227.89 576.73 223.514 576.479 218.356Z" fill="#F4B537"/>
<path d="M466.631 307.606L537.643 304.16C540.99 303.998 543.862 306.603 544.025 309.951L544.14 312.319C544.302 315.666 541.696 318.539 538.348 318.701L467.337 322.146C463.988 322.308 461.117 319.702 460.954 316.355L460.84 313.987C460.677 310.64 463.283 307.768 466.631 307.606Z" fill="#F4B537"/>
<path d="M537.88 309.051L466.868 312.496C464.885 312.592 463.074 311.712 461.889 310.286C461.173 311.342 460.773 312.623 460.84 313.987L460.954 316.355C461.117 319.702 463.988 322.308 467.337 322.146L538.348 318.7C541.695 318.538 544.302 315.666 544.139 312.318L544.024 309.951C543.958 308.587 543.437 307.35 542.622 306.369C541.58 307.903 539.863 308.954 537.88 309.051Z" fill="#E59D1F"/>
</g>
<g opacity="0.06">
<path d="M938.918 603.951L939.209 605.593C940.142 610.846 944.74 614.657 950.078 614.602L970.286 614.388C972.457 614.363 974.323 615.911 974.702 618.045C975.13 620.456 973.522 622.757 971.11 623.185L904.557 634.998C902.145 635.426 899.844 633.82 899.416 631.409C899.037 629.275 900.257 627.179 902.3 626.456L921.348 619.702C926.382 617.918 929.387 612.758 928.454 607.502L928.163 605.86" fill="#D8923E"/>
<path d="M914.329 527.926L925.084 526.017L937.01 593.201L926.255 595.11L914.329 527.926Z" fill="#8F6128"/>
<path d="M848.663 539.582L990.752 514.36C996.063 513.418 999.606 508.348 998.663 503.038C997.966 499.106 994.942 495.995 991.032 495.184L983.11 493.541C986.458 498.041 983.897 504.489 978.372 505.47L857.225 526.974C851.7 527.955 847.076 522.783 848.671 517.405L841.798 521.674C838.407 523.784 836.638 527.743 837.336 531.675C838.279 536.985 843.35 540.525 848.663 539.582Z" fill="#F2C351"/>
<path d="M910.513 506.427L921.268 504.518L923.176 515.268L912.421 517.177L910.513 506.427Z" fill="#8F6128"/>
<path d="M919.36 493.769L914.583 483.093L909.415 484.01L908.605 495.678L919.36 493.769Z" fill="#8F6128"/>
<path d="M912.074 483.974C916.529 483.183 919.5 478.932 918.709 474.48C917.919 470.027 913.667 467.059 909.212 467.85C904.757 468.64 901.786 472.891 902.577 477.343C903.367 481.796 907.619 484.765 912.074 483.974Z" fill="#BC7F35"/>
<path d="M903.227 496.632L924.737 492.814L926.645 503.564L905.135 507.382L903.227 496.632Z" fill="#BC7F35"/>
<path d="M934.017 607.593C938.472 606.802 941.443 602.551 940.653 598.099C939.862 593.646 935.61 590.678 931.155 591.468C926.7 592.259 923.73 596.51 924.52 600.962C925.31 605.415 929.562 608.383 934.017 607.593Z" fill="#BC7F35"/>
<path d="M957.089 581.321C958.67 590.227 971.989 595.308 986.839 592.672C1001.69 590.036 1012.45 580.681 1010.86 571.775L957.089 581.321Z" fill="#C16B3F"/>
<path d="M976.345 533.55C980.8 532.759 983.77 528.509 982.98 524.056C982.189 519.604 977.937 516.635 973.482 517.426C969.027 518.217 966.057 522.467 966.847 526.92C967.637 531.372 971.89 534.341 976.345 533.55Z" fill="#F2C351"/>
<path d="M849.537 600.412C851.118 609.318 864.437 614.4 879.288 611.763C894.138 609.127 904.894 599.772 903.313 590.866L849.537 600.412Z" fill="#C16B3F"/>
<path d="M868.793 552.641C873.248 551.851 876.218 547.6 875.428 543.148C874.638 538.695 870.386 535.726 865.931 536.517C861.476 537.308 858.505 541.559 859.295 546.011C860.086 550.464 864.338 553.432 868.793 552.641Z" fill="#F2C351"/>
<path d="M872.408 538.167C870.636 536.777 868.324 536.092 865.931 536.517C861.475 537.308 858.505 541.558 859.295 546.011C859.728 548.449 861.217 550.413 863.192 551.587C868.524 549.207 872.106 544.009 872.408 538.167Z" fill="#F7D881"/>
<path d="M979.96 519.076C978.188 517.686 975.875 517.001 973.482 517.426C969.027 518.217 966.057 522.467 966.847 526.92C967.28 529.357 968.768 531.322 970.744 532.496C976.076 530.116 979.658 524.918 979.96 519.076Z" fill="#F7D881"/>
<path d="M913.582 468.299C912.233 467.776 910.742 467.578 909.212 467.85C904.756 468.64 901.786 472.891 902.576 477.343C902.899 479.16 903.817 480.708 905.07 481.874C910.243 479.395 913.608 474.116 913.582 468.299Z" fill="#D8923E"/>
<path d="M903.227 496.632L905.135 507.382L913.494 505.898C917.186 503.086 919.381 498.624 919.169 493.803L903.227 496.632Z" fill="#D8923E"/>
<path d="M936.633 592.453C935.028 591.535 933.121 591.12 931.155 591.468C926.7 592.259 923.729 596.509 924.52 600.962C924.821 602.661 925.63 604.136 926.759 605.277C931.952 602.848 935.621 598.035 936.633 592.453Z" fill="#D8923E"/>
<path d="M893.214 592.659L849.537 600.412C851.093 609.176 864.023 614.221 878.587 611.866C885.571 607.366 890.734 600.531 893.214 592.659Z" fill="#E39854"/>
<path d="M1000.77 573.568L957.089 581.321C958.645 590.084 971.575 595.13 986.139 592.774C993.123 588.275 998.286 581.44 1000.77 573.568Z" fill="#E39854"/>
<path d="M1012.89 569.944L980.947 534.574C984.452 532.239 986.447 527.981 985.666 523.579C985.317 521.612 984.423 519.891 983.216 518.467L991.226 517.045C998.013 515.841 1002.56 509.341 1001.35 502.557C1000.46 497.5 996.625 493.556 991.589 492.51L983.667 490.866C982.558 490.634 981.42 491.116 980.81 492.069C980.201 493.026 980.245 494.257 980.922 495.165C981.939 496.534 982.162 498.23 981.533 499.814C980.902 501.4 979.577 502.481 977.9 502.782L925.39 512.1L924.435 506.722L927.124 506.245C928.611 505.981 929.6 504.566 929.336 503.08L927.428 492.334C927.165 490.847 925.749 489.86 924.263 490.124L920.979 490.706L917.963 483.965C920.645 481.524 922.074 477.824 921.395 474C920.343 468.072 914.663 464.107 908.732 465.16C902.8 466.213 898.832 471.89 899.885 477.819C900.563 481.643 903.181 484.624 906.536 485.993L906.024 493.361L902.749 493.942C901.263 494.206 900.274 495.621 900.538 497.107L902.445 507.854C902.709 509.34 904.124 510.328 905.611 510.064L908.3 509.586L909.255 514.964L856.745 524.282C856.745 524.285 856.742 524.285 856.742 524.285C855.065 524.583 853.451 524.024 852.313 522.754C851.175 521.481 850.801 519.815 851.284 518.177C851.607 517.091 851.225 515.92 850.323 515.232C849.422 514.546 848.196 514.484 847.227 515.086L840.355 519.355C835.989 522.07 833.749 527.092 834.647 532.149C835.85 538.929 842.353 543.469 849.14 542.27L849.143 542.269L857.15 540.848C856.502 542.601 856.257 544.521 856.607 546.488C857.388 550.89 860.727 554.201 864.821 555.187L847.001 599.39L847.049 599.41C846.862 599.87 846.755 600.363 846.849 600.889C848.721 611.437 863.18 617.392 879.764 614.448C896.349 611.504 907.874 600.937 906.002 590.389C905.909 589.862 905.636 589.437 905.304 589.069L905.343 589.034L873.401 553.664C876.905 551.329 878.901 547.072 878.12 542.67C877.77 540.703 876.877 538.984 875.671 537.56L912.117 531.091L923.271 593.924C921.952 596.107 921.351 598.733 921.831 601.437C922.31 604.138 923.778 606.394 925.768 607.992C926.461 611.944 924.225 615.787 920.439 617.127L901.389 623.885C898.07 625.059 896.112 628.422 896.727 631.884C897.417 635.772 901.144 638.376 905.034 637.686L971.587 625.872C975.478 625.181 978.081 621.454 977.39 617.565C976.776 614.104 973.778 611.62 970.261 611.654L950.053 611.868C946.036 611.912 942.613 609.077 941.903 605.126C943.218 602.943 943.823 600.316 943.343 597.616C942.863 594.912 941.395 592.653 939.406 591.057L928.252 528.224L964.704 521.753C964.053 523.507 963.809 525.43 964.158 527.397C964.94 531.799 968.279 535.109 972.373 536.096L954.556 580.299L954.603 580.318C954.413 580.778 954.307 581.271 954.4 581.798C956.273 592.346 970.731 598.301 987.316 595.357C1003.9 592.413 1015.43 581.846 1013.55 571.298C1013.46 570.771 1013.19 570.346 1012.86 569.977L1012.89 569.944ZM909.688 470.534C912.654 470.008 915.493 471.987 916.02 474.954C916.546 477.919 914.562 480.755 911.596 481.281C908.63 481.807 905.791 479.828 905.265 476.863C904.739 473.899 906.72 471.061 909.688 470.534ZM911.962 486.699C912.16 486.675 912.351 486.691 912.55 486.656C912.746 486.621 912.921 486.54 913.115 486.494L915.438 491.69L911.569 492.377L911.962 486.699ZM906.392 498.84L922.525 495.976L923.479 501.348L907.346 504.212L906.392 498.84ZM913.675 508.632L919.052 507.678L920.007 513.055L914.629 514.01L913.675 508.632ZM840.022 531.195C839.516 528.347 840.778 525.52 843.238 523.988L845.989 522.283C846.404 523.778 847.162 525.185 848.244 526.393C850.632 529.065 854.169 530.286 857.696 529.66L857.699 529.659L978.849 508.157C982.381 507.527 985.281 505.161 986.606 501.827C987.204 500.323 987.431 498.742 987.303 497.195L990.474 497.852C993.311 498.444 995.469 500.664 995.974 503.512C996.653 507.334 994.093 510.993 990.27 511.671L973.005 514.736L973.002 514.736L972.999 514.737L865.475 533.826C865.467 533.827 865.459 533.826 865.453 533.827C865.448 533.828 865.438 533.833 865.429 533.834L848.186 536.895C844.362 537.571 840.699 535.014 840.022 531.195ZM869.693 557.71L897.986 589.04L853.906 596.865L869.693 557.71ZM878.81 609.073C867.342 611.109 856.6 608.168 853.211 602.532L900.591 594.122C899.349 600.579 890.275 607.038 878.81 609.073ZM872.737 543.625C873.263 546.589 871.279 549.428 868.313 549.955C865.347 550.481 862.508 548.499 861.982 545.534C861.456 542.576 863.431 539.747 866.384 539.209L866.429 539.201C869.387 538.69 872.211 540.666 872.737 543.625ZM937.961 598.574C938.487 601.538 936.502 604.374 933.537 604.9C930.571 605.427 927.732 603.447 927.206 600.483C926.679 597.516 928.663 594.68 931.629 594.154C934.595 593.627 937.435 595.61 937.961 598.574ZM950.107 617.33L970.315 617.114C971.152 617.107 971.864 617.698 972.01 618.52C972.174 619.445 971.555 620.334 970.63 620.498L904.08 632.311C903.153 632.476 902.268 631.854 902.104 630.929C901.958 630.104 902.424 629.306 903.212 629.028L922.259 622.273C927.512 620.412 930.933 615.652 931.278 610.313C932.326 610.44 933.396 610.469 934.491 610.275C935.582 610.081 936.58 609.685 937.521 609.205C939.685 614.099 944.532 617.391 950.107 617.33ZM933.434 588.683C932.531 588.61 931.611 588.613 930.678 588.778C929.742 588.944 928.88 589.261 928.057 589.637L917.495 530.136L922.872 529.182L933.434 588.683ZM973.954 520.112L973.959 520.111C976.925 519.587 979.762 521.57 980.288 524.534C980.814 527.498 978.831 530.337 975.865 530.863C972.899 531.39 970.059 529.407 969.533 526.443C969.01 523.478 970.991 520.64 973.954 520.112ZM1005.54 569.949L961.457 577.773L977.244 538.619L1005.54 569.949ZM986.362 589.982C974.894 592.018 964.151 589.076 960.763 583.441L1008.14 575.031C1006.9 581.488 997.827 587.947 986.362 589.982Z" fill="black"/>
</g>
<g opacity="0.05">
<path d="M315.131 627.927L307.074 619.87L252.226 670.502C248.601 673.848 248.487 679.537 251.975 683.025C255.463 686.513 261.153 686.399 264.498 682.775L315.131 627.927Z" fill="#873F30"/>
<path d="M264.256 683.028C260.884 686.401 255.38 686.429 251.976 683.025C250.969 682.018 250.264 680.829 249.858 679.565C252.866 680.543 256.299 679.828 258.672 677.454C258.755 677.371 258.838 677.282 258.919 677.196L309.553 622.347L315.132 627.926L264.498 682.776C264.417 682.861 264.337 682.947 264.256 683.028Z" fill="#6C3328"/>
<path d="M323.065 600.779L304.512 622.91L312.091 630.489L334.222 611.936L323.065 600.779Z" fill="#873F30"/>
<path d="M323.065 600.779L317.07 607.93L318.869 609.729C320.193 611.053 320.193 613.2 318.869 614.524L307.497 625.896L312.091 630.489L334.222 611.936L323.065 600.779Z" fill="#6C3328"/>
<path d="M307.584 634.773L300.227 627.416C298.1 625.289 298.1 621.841 300.227 619.714C302.354 617.587 305.803 617.587 307.93 619.714L315.287 627.071C317.414 629.198 317.414 632.646 315.287 634.773C313.16 636.9 309.711 636.9 307.584 634.773Z" fill="#BA5D4F"/>
<path d="M315.285 634.773C314.22 635.838 312.826 636.368 311.436 636.368C310.041 636.368 308.646 635.837 307.582 634.773L302.006 629.197C303.07 630.261 304.465 630.792 305.857 630.789C307.249 630.792 308.644 630.261 309.708 629.197C311.837 627.068 311.834 623.62 309.708 621.494L315.285 627.071C317.413 629.199 317.413 632.645 315.285 634.773Z" fill="#A34F41"/>
<path d="M332.678 550.196L349.014 566.532L323.367 592.179L307.032 575.843L332.678 550.196Z" fill="#BA5D4F"/>
<path d="M359.149 627.985L342.813 611.649L368.46 586.003L384.796 602.339L359.149 627.985Z" fill="#A34F41"/>
<path d="M302.436 581.473L301.869 580.906C299.717 578.754 299.717 575.265 301.869 573.113L329.941 545.041C332.092 542.89 335.581 542.89 337.733 545.041L338.3 545.609C340.452 547.76 340.452 551.249 338.3 553.401L310.228 581.473C308.077 583.625 304.588 583.625 302.436 581.473Z" fill="#873F30"/>
<path d="M353.528 632.565L354.095 633.132C356.247 635.284 359.736 635.284 361.887 633.132L389.959 605.06C392.111 602.909 392.111 599.42 389.959 597.268L389.392 596.701C387.24 594.549 383.751 594.549 381.6 596.701L353.528 624.773C351.376 626.924 351.376 630.413 353.528 632.565Z" fill="#6C3328"/>
<path d="M356.104 560.531L374.449 578.876L335.715 617.61L317.37 599.265L356.104 560.531Z" fill="#FCC16D"/>
<path d="M326.417 608.347L365.152 569.612L374.437 578.897L335.703 617.632L326.417 608.347Z" fill="#FCA62F"/>
<path d="M356.193 559.76L351.699 557.922C350.158 557.292 348.39 557.648 347.213 558.825L315.653 590.385C314.476 591.562 314.12 593.331 314.75 594.871L316.587 599.366C317.332 601.188 319.693 601.664 321.085 600.271L357.099 564.258C358.491 562.866 358.016 560.505 356.193 559.76Z" fill="#873F30"/>
<path d="M375.241 578.808L377.079 583.302C377.709 584.843 377.353 586.612 376.176 587.788L344.616 619.348C343.439 620.525 341.67 620.881 340.13 620.252L335.635 618.414C333.813 617.669 333.337 615.308 334.73 613.916L370.743 577.902C372.135 576.51 374.496 576.986 375.241 578.808Z" fill="#6C3328"/>
<path d="M391.879 667.135H324.961V657.744C324.961 655.806 326.533 654.234 328.471 654.234H388.368C390.307 654.234 391.879 655.806 391.879 657.744V667.135Z" fill="#BA5D4F"/>
<path d="M391.878 657.745V667.135H384.534V657.745C384.534 655.807 382.962 654.235 381.024 654.235H388.368C390.305 654.235 391.878 655.807 391.878 657.745Z" fill="#A34F41"/>
<path d="M406.627 685.568H310.213C307.656 685.568 305.957 682.921 307.022 680.595L310.43 673.153C313.382 666.707 319.822 662.573 326.912 662.573H389.927C397.018 662.573 403.458 666.707 406.41 673.153L409.818 680.595C410.883 682.921 409.184 685.568 406.627 685.568Z" fill="#873F30"/>
<path d="M406.629 685.568H397.242C399.797 685.568 401.496 682.921 400.433 680.597L397.024 673.152C394.072 666.707 387.631 662.572 380.543 662.572H389.926C397.017 662.572 403.459 666.707 406.411 673.152L409.82 680.597C410.883 682.921 409.184 685.568 406.629 685.568Z" fill="#6C3328"/>
<path d="M360.234 561.286C359.891 559.58 358.724 558.168 357.113 557.509L352.618 555.672C350.165 554.668 347.368 555.231 345.493 557.106L344.257 558.342L340.502 554.586C343.102 551.469 342.944 546.814 340.019 543.89L339.451 543.322C336.355 540.226 331.317 540.226 328.22 543.322L300.149 571.394C297.053 574.49 297.053 579.529 300.149 582.625L300.716 583.192C302.216 584.692 304.21 585.518 306.332 585.518C308.212 585.518 309.99 584.869 311.415 583.677L315.168 587.43L313.933 588.666C312.058 590.541 311.495 593.338 312.499 595.791L314.336 600.286C314.949 601.784 316.213 602.897 317.76 603.322L306.939 616.23C304.115 615.134 300.783 615.719 298.508 617.994C296.299 620.204 295.688 623.407 296.657 626.176L250.576 668.715C248.332 670.786 247.064 673.608 247.002 676.661C246.941 679.714 248.097 682.585 250.256 684.744C252.361 686.849 255.142 688 258.109 688C258.185 688 258.262 687.999 258.339 687.998C261.392 687.937 264.214 686.668 266.285 684.424L289.36 659.427C290.271 658.44 290.21 656.902 289.223 655.991C288.237 655.08 286.698 655.142 285.787 656.128L262.712 681.125C261.547 682.388 259.959 683.101 258.242 683.136C256.522 683.167 254.909 682.52 253.695 681.305C252.48 680.091 251.83 678.476 251.865 676.758C251.899 675.041 252.613 673.453 253.875 672.288L299.523 630.149L304.851 635.478L293.572 647.696C292.661 648.683 292.723 650.221 293.709 651.132C294.177 651.564 294.768 651.777 295.358 651.777C296.013 651.777 296.666 651.513 297.145 650.994L308.814 638.354C309.645 638.647 310.528 638.8 311.436 638.8C313.54 638.8 315.518 637.98 317.006 636.493C318.494 635.004 319.314 633.026 319.314 630.922C319.314 629.925 319.128 628.958 318.776 628.057L331.679 617.241C332.104 618.787 333.217 620.052 334.715 620.664L339.21 622.502C340.017 622.832 340.862 622.992 341.698 622.992C343.404 622.992 345.077 622.325 346.335 621.067L347.571 619.832L351.326 623.587C348.726 626.704 348.884 631.359 351.809 634.284L352.376 634.851C353.925 636.399 355.958 637.173 357.992 637.173C360.025 637.173 362.059 636.399 363.607 634.851L391.679 606.779C394.775 603.683 394.775 598.645 391.679 595.548L391.112 594.981C388.187 592.056 383.532 591.898 380.416 594.498L376.66 590.742L377.896 589.507C379.77 587.632 380.333 584.835 379.33 582.381L377.493 577.887C376.834 576.276 375.422 575.109 373.715 574.765C373.615 574.6 360.404 561.387 360.234 561.286ZM321.308 606.659L328.341 613.693L315.833 624.179L310.822 619.167L321.308 606.659ZM385.496 597.518C386.318 597.518 387.091 597.839 387.673 598.42L388.24 598.987C389.44 600.188 389.44 602.141 388.24 603.341L360.168 631.413C358.968 632.613 357.015 632.613 355.814 631.413L355.247 630.845C354.047 629.645 354.047 627.692 355.247 626.491L383.319 598.42C383.9 597.839 384.673 597.518 385.496 597.518ZM376.951 597.911L354.738 620.123L351.009 616.394L373.221 594.182L376.951 597.911ZM374.456 586.069L342.896 617.629C342.41 618.115 341.685 618.261 341.049 618.001L336.555 616.163C336.515 616.147 336.394 616.098 336.36 615.928C336.326 615.757 336.418 615.665 336.448 615.635L372.461 579.622C372.487 579.596 372.557 579.526 372.682 579.526C372.704 579.526 372.729 579.528 372.755 579.533C372.924 579.567 372.974 579.688 372.99 579.728L374.828 584.223C375.088 584.859 374.942 585.584 374.456 586.069ZM368.667 576.539L333.366 611.841L323.16 601.635L358.461 566.333L368.667 576.539ZM306.332 580.655C305.509 580.655 304.737 580.335 304.155 579.754C304.155 579.754 304.155 579.754 304.155 579.753L303.588 579.186C302.387 577.986 302.387 576.032 303.588 574.832L331.659 546.761C332.26 546.16 333.048 545.86 333.836 545.86C334.625 545.86 335.413 546.161 336.013 546.76L336.581 547.328C337.162 547.909 337.482 548.683 337.482 549.505C337.482 550.328 337.162 551.1 336.581 551.682L308.509 579.754C307.927 580.335 307.154 580.655 306.332 580.655ZM317.371 592.104L334.729 574.747C335.678 573.797 335.678 572.258 334.729 571.309C333.779 570.359 332.239 570.359 331.29 571.309L318.607 583.992L314.878 580.262L337.09 558.05L340.819 561.78L339.404 563.195C338.455 564.144 338.455 565.684 339.404 566.633C340.354 567.583 341.893 567.583 342.843 566.633L348.932 560.544C349.417 560.058 350.142 559.912 350.778 560.173L355.273 562.01C355.313 562.026 355.433 562.076 355.468 562.246C355.502 562.416 355.41 562.508 355.379 562.539L319.366 598.552C319.335 598.582 319.244 598.674 319.073 598.64C318.903 598.606 318.854 598.485 318.838 598.445L317 593.951C316.74 593.315 316.886 592.59 317.371 592.104ZM301.947 621.433C302.534 620.845 303.306 620.552 304.078 620.552C304.85 620.552 305.623 620.845 306.21 621.433L313.567 628.79C314.137 629.36 314.45 630.117 314.45 630.922C314.45 631.728 314.137 632.485 313.567 633.054C312.998 633.624 312.241 633.937 311.435 633.937C310.63 633.937 309.873 633.623 309.303 633.054L301.946 625.697C300.771 624.522 300.771 622.609 301.947 621.433Z" fill="black"/>
<path d="M408.621 672.141C405.903 666.208 400.537 661.984 394.31 660.618V657.744C394.31 654.468 391.645 651.802 388.368 651.802H346.711C345.369 651.802 344.28 652.891 344.28 654.234C344.28 655.577 345.369 656.665 346.711 656.665H388.368C388.963 656.665 389.447 657.149 389.447 657.744V660.142H327.392V657.744C327.392 657.149 327.876 656.665 328.471 656.665H335.237C336.579 656.665 337.668 655.577 337.668 654.234C337.668 652.891 336.579 651.802 335.237 651.802H328.471C325.195 651.802 322.53 654.468 322.53 657.744V660.618C316.303 661.984 310.936 666.208 308.219 672.141L304.81 679.583C303.964 681.431 304.114 683.556 305.212 685.267C306.311 686.978 308.18 687.999 310.213 687.999H406.627C408.66 687.999 410.529 686.978 411.627 685.267C412.725 683.556 412.875 681.431 412.029 679.583L408.621 672.141ZM407.535 682.64C407.416 682.825 407.14 683.136 406.627 683.136H310.213C309.7 683.136 309.424 682.825 309.305 682.64C309.186 682.455 309.018 682.074 309.232 681.608L312.641 674.166C315.19 668.601 320.792 665.005 326.912 665.005H389.928C396.049 665.005 401.651 668.601 404.199 674.166L407.608 681.608C407.822 682.074 407.654 682.455 407.535 682.64Z" fill="black"/>
<path d="M401.514 648.422C402.134 648.422 402.754 648.186 403.229 647.714L405.86 645.099C406.812 644.152 406.817 642.613 405.87 641.66C404.924 640.708 403.384 640.703 402.432 641.65L399.8 644.265C398.848 645.212 398.843 646.752 399.79 647.704C400.265 648.182 400.89 648.422 401.514 648.422Z" fill="black"/>
<path d="M392.394 636.321L391.481 639.96C391.154 641.262 391.945 642.583 393.248 642.91C393.446 642.96 393.645 642.984 393.841 642.984C394.93 642.984 395.921 642.247 396.198 641.143L397.111 637.504C397.437 636.202 396.646 634.881 395.344 634.554C394.042 634.227 392.72 635.018 392.394 636.321Z" fill="black"/>
<path d="M404.549 654.272C404.82 655.383 405.814 656.127 406.909 656.127C407.1 656.127 407.294 656.104 407.488 656.056L411.133 655.165C412.437 654.846 413.236 653.53 412.917 652.225C412.598 650.921 411.283 650.122 409.978 650.441L406.333 651.333C405.029 651.651 404.23 652.968 404.549 654.272Z" fill="black"/>
</g>
</svg>
