<svg width="835" height="789" viewBox="0 0 835 789" fill="none" xmlns="http://www.w3.org/2000/svg">
<rect width="835" height="789" fill="#C8AC48"/>
<path d="M285.464 602.777L344.148 586.188C345.936 585.682 346.975 583.824 346.47 582.037L345.494 578.585C344.483 575.009 340.767 572.931 337.191 573.942L336.098 570.073C334.649 564.949 329.303 561.959 324.179 563.408L290.551 572.914C285.428 574.362 282.438 579.709 283.886 584.832L284.98 588.702C281.405 589.712 279.326 593.429 280.337 597.004L281.313 600.456C281.818 602.243 283.677 603.282 285.464 602.777Z" fill="black" fill-opacity="0.04"/>
<path d="M311.652 553.049C314.61 555.296 318.83 554.719 321.076 551.761C323.323 548.803 322.746 544.583 319.788 542.335L293.005 521.996C290.046 519.749 285.827 520.326 283.581 523.284C281.333 526.243 281.91 530.462 284.869 532.709L311.652 553.049Z" fill="black" fill-opacity="0.04"/>
<path d="M348.264 504.84C351.222 507.086 355.441 506.51 357.689 503.551C359.935 500.593 359.358 496.374 356.4 494.127L329.617 473.787C326.659 471.54 322.439 472.117 320.192 475.075C317.946 478.034 318.523 482.253 321.482 484.5L348.264 504.84Z" fill="black" fill-opacity="0.04"/>
<path d="M339.382 527.656C343.147 522.699 345.473 517.208 346.386 511.86L315.222 488.193C310.316 490.509 305.651 494.222 301.886 499.18C298.121 504.137 295.796 509.628 294.882 514.975L326.046 538.644C330.952 536.328 335.617 532.614 339.382 527.656Z" fill="black" fill-opacity="0.04"/>
<path d="M348.359 526.028C347.287 527.99 346.116 529.911 344.739 531.724C343.361 533.537 341.825 535.181 340.224 536.741L346.027 541.148L354.163 530.436L348.359 526.028Z" fill="black" fill-opacity="0.04"/>
<path d="M359.52 534.504L351.384 545.216L378.167 565.557C381.126 567.804 385.345 567.226 387.591 564.268C389.838 561.31 389.261 557.091 386.303 554.843L359.52 534.504Z" fill="black" fill-opacity="0.04"/>
<path d="M124.194 270.059C128.675 271.614 133.526 271.758 138.092 270.472C142.658 269.186 146.72 266.532 149.731 262.866L108.706 248.519C108.776 253.262 110.298 257.869 113.068 261.721C115.837 265.572 119.72 268.482 124.194 270.059Z" fill="black" fill-opacity="0.05"/>
<path d="M245.339 236.897C246.962 237.192 248.631 237.099 250.211 236.625C251.791 236.152 253.237 235.311 254.429 234.172C255.409 233.241 256.673 232.664 258.018 232.534C258.297 232.495 258.559 232.379 258.775 232.198C258.991 232.018 259.151 231.78 259.238 231.512C259.322 231.278 259.345 231.027 259.304 230.782C259.264 230.537 259.161 230.307 259.006 230.113C258.852 229.913 258.649 229.755 258.417 229.656C258.185 229.557 257.931 229.519 257.679 229.546C255.69 229.75 253.824 230.607 252.373 231.982C251.389 232.936 250.159 233.596 248.82 233.889C247.481 234.182 246.088 234.096 244.795 233.64C243.503 233.185 242.363 232.378 241.505 231.31C240.646 230.242 240.101 228.956 239.933 227.596C239.724 225.978 239.073 224.448 238.052 223.174C237.031 221.901 235.679 220.933 234.145 220.376L207.953 211.216C208.234 209.51 208.013 207.759 207.318 206.176C206.623 204.593 205.483 203.246 204.037 202.298L208.528 189.458L204.499 188.049L200.009 200.889C198.287 200.729 196.557 201.072 195.026 201.877C193.496 202.682 192.232 203.914 191.388 205.423L165.218 196.271C163.674 195.749 162.016 195.663 160.426 196.021C158.835 196.379 157.374 197.167 156.202 198.3C155.222 199.264 153.992 199.935 152.651 200.238C151.31 200.54 149.911 200.463 148.612 200.013C147.313 199.564 146.165 198.76 145.297 197.694C144.43 196.627 143.878 195.339 143.703 193.976C143.425 192 142.503 190.171 141.079 188.774C140.9 188.596 140.678 188.467 140.434 188.399C140.19 188.331 139.934 188.327 139.688 188.387C139.445 188.442 139.221 188.558 139.036 188.725C138.851 188.891 138.713 189.102 138.633 189.338C138.534 189.6 138.512 189.884 138.568 190.158C138.624 190.433 138.756 190.685 138.95 190.887C139.921 191.824 140.55 193.059 140.736 194.396C140.962 196.031 141.571 197.589 142.513 198.944C143.456 200.298 144.706 201.411 146.161 202.19L111.451 240.76L110.029 240.262L109.921 240.572C109.405 242.123 109.059 243.726 108.886 245.352L151.563 260.278C152.416 258.887 153.118 257.408 153.656 255.867L153.764 255.558L152.42 255.088L149.311 203.26C150.912 203.524 152.553 203.412 154.105 202.934C155.656 202.456 157.075 201.624 158.251 200.505C159.024 199.753 159.989 199.229 161.041 198.99C162.093 198.751 163.19 198.805 164.212 199.148L190.383 208.301C190.104 210.006 190.325 211.756 191.021 213.337C191.716 214.919 192.855 216.266 194.3 217.213L174.11 274.944L178.138 276.353L198.328 218.622C200.049 218.782 201.779 218.439 203.308 217.635C204.838 216.831 206.102 215.601 206.946 214.093L233.139 223.253C234.153 223.624 235.046 224.267 235.72 225.111C236.393 225.956 236.821 226.969 236.957 228.041C237.175 229.645 237.762 231.176 238.671 232.516C239.58 233.855 240.787 234.966 242.196 235.762L207.476 274.342L206.131 273.872L206.023 274.181C205.483 275.721 205.11 277.315 204.91 278.935L247.588 293.86C248.467 292.481 249.195 291.011 249.759 289.476L249.867 289.167L248.445 288.67L245.339 236.897ZM149.3 253.997L114.57 241.85L146.447 206.429L149.3 253.997ZM210.595 275.433L242.472 240.012L245.326 287.579L210.595 275.433Z" fill="black" fill-opacity="0.05"/>
<path d="M220.219 303.641C224.701 305.197 229.551 305.341 234.117 304.055C238.683 302.769 242.745 300.114 245.756 296.449L204.731 282.101C204.802 286.844 206.324 291.452 209.093 295.303C211.862 299.155 215.745 302.065 220.219 303.641Z" fill="black" fill-opacity="0.05"/>
<path d="M152.808 287.839L186.761 299.713L184.648 305.755L150.695 293.881L152.808 287.839Z" fill="black" fill-opacity="0.05"/>
<path d="M169.939 276.715L180.297 280.337L175.97 292.71L165.612 289.087L169.939 276.715Z" fill="black" fill-opacity="0.05"/>
<path d="M141.057 293.74L191.985 311.551L189.57 318.456L138.642 300.645L141.057 293.74Z" fill="black" fill-opacity="0.05"/>
<path d="M536.873 270.343L536.885 270.339L524.407 243.113L527.433 241.607L526.3 239.34L523.35 240.809L522.951 239.939C522.66 239.303 521.908 239.024 521.272 239.316C520.996 239.442 520.775 239.663 520.649 239.939L520.293 240.717C518.146 239.72 515.807 239.202 513.44 239.201H502.8V236.667H505.333V234.134H503.156L504.067 230.49C504.766 227.692 503.064 224.856 500.266 224.157C497.468 223.458 494.633 225.159 493.933 227.957C493.726 228.789 493.726 229.658 493.933 230.49L494.844 234.134H492.667V236.667H495.2V239.201H484.566C482.197 239.202 479.856 239.721 477.707 240.721L477.351 239.943C477.06 239.307 476.308 239.028 475.672 239.319C475.396 239.446 475.175 239.667 475.049 239.943L474.65 240.813L471.7 239.337L470.567 241.607L473.593 243.12L461.115 270.339C461.038 270.505 460.999 270.685 461 270.867C461.006 275.762 464.972 279.729 469.867 279.734H482.533C487.428 279.729 491.394 275.762 491.4 270.867C491.397 270.685 491.354 270.506 491.273 270.343L478.761 243.015C480.58 242.17 482.561 241.733 484.566 241.734H495.2V288.076L490.876 292.401H486.333C482.837 292.405 480.004 295.238 480 298.734C480 299.434 480.567 300.001 481.267 300.001H516.733C517.433 300.001 518 299.434 518 298.734C517.996 295.238 515.163 292.405 511.667 292.401H507.124L502.8 288.076V241.734H513.44C515.445 241.733 517.426 242.17 519.245 243.015L506.715 270.339C506.638 270.505 506.599 270.685 506.6 270.867C506.606 275.762 510.572 279.729 515.467 279.734H528.133C533.028 279.729 536.994 275.762 537 270.867C536.997 270.685 536.954 270.506 536.873 270.343ZM482.533 277.201H469.867C466.858 277.197 464.266 275.081 463.66 272.134H488.74C488.135 275.081 485.542 277.197 482.533 277.201ZM488.16 269.601H464.24L475.876 244.215C476.088 244.272 476.312 244.272 476.524 244.215L488.16 269.601ZM496.881 227.568C497.867 226.397 499.616 226.248 500.786 227.235C500.906 227.336 501.018 227.448 501.119 227.568C501.632 228.219 501.812 229.072 501.609 229.876L500.544 234.134H497.456L496.391 229.876C496.188 229.072 496.369 228.219 496.881 227.568ZM497.733 239.201V236.667H500.267V239.201H497.733ZM500.267 241.734V287.334H497.733V241.734H500.267ZM511.667 294.934C513.277 294.936 514.711 295.95 515.25 297.467H482.75C483.289 295.95 484.723 294.936 486.333 294.934H511.667ZM503.542 292.401H494.458L496.991 289.867H501.009L503.542 292.401ZM521.473 244.219C521.682 244.293 521.912 244.283 522.114 244.193L533.76 269.601H509.84L521.473 244.219ZM528.133 277.201H515.467C512.458 277.197 509.866 275.081 509.26 272.134H534.34C533.735 275.081 531.142 277.197 528.133 277.201Z" fill="black" fill-opacity="0.05"/>
</svg>
