<svg width="52" height="35" viewBox="0 0 52 35" fill="none" xmlns="http://www.w3.org/2000/svg">
<path d="M45.4802 1.04552L45.4802 1.04548C45.3511 0.890894 45.19 0.763727 45.0067 0.672653C44.8234 0.581567 44.6223 0.528747 44.4162 0.517927C44.2101 0.507107 44.0042 0.538557 43.8117 0.610043C43.6199 0.681293 43.4459 0.790601 43.3007 0.930464C42.7771 1.44494 42.7331 2.26726 43.1752 2.79455C46.6784 6.79161 48.6041 11.8893 48.6 17.1621M45.4802 1.04552L48.1 17.1617M45.4802 1.04552L45.4853 1.05145C49.233 5.39937 51.5 11.0186 51.5 17.1617C51.5 23.3039 49.2336 28.9231 45.4856 33.2971M45.4802 1.04552L45.864 0.725001C49.686 5.15909 52 10.8928 52 17.1617C52 23.4306 49.686 29.1643 45.864 33.6239M48.6 17.1621L48.1 17.1617M48.6 17.1621C48.6 17.162 48.6 17.1618 48.6 17.1617H48.1M48.6 17.1621C48.5999 22.6407 46.5499 27.6738 43.1733 31.5566L43.1714 31.5587C42.717 32.0754 42.7672 32.8956 43.302 33.4197C43.914 34.0196 44.9072 33.9602 45.4856 33.2971M48.1 17.1617C48.1 22.5132 46.098 27.4315 42.796 31.2285C42.146 31.9675 42.25 33.0888 42.952 33.7768C43.784 34.5923 45.11 34.4903 45.864 33.6239M45.4856 33.2971C45.4852 33.2976 45.4848 33.298 45.4843 33.2985L45.864 33.6239M45.4856 33.2971C45.486 33.2966 45.4864 33.2961 45.4868 33.2957L45.864 33.6239M37.6218 26.1646L37.6207 26.166C37.1934 26.6941 37.2362 27.4745 37.764 27.9918C38.3863 28.6017 39.4184 28.542 39.96 27.8601C42.3839 24.7982 43.699 21.0345 43.7 17.1617L37.6218 26.1646ZM37.6218 26.1646C39.6142 23.6841 40.8 20.5421 40.8 17.1617C40.8 13.784 39.6159 10.6418 37.5964 8.18495C37.1668 7.63115 37.236 6.84912 37.738 6.35712L37.7381 6.35696C37.8843 6.21356 38.0606 6.10168 38.2555 6.02933C38.4504 5.95698 38.6592 5.92598 38.8678 5.93865C39.0763 5.95131 39.2794 6.0073 39.4634 6.1025C39.6473 6.19769 39.8077 6.32973 39.9344 6.48929L39.9363 6.49174M37.6218 26.1646L39.9363 6.49174M39.9363 6.49174C42.286 9.41378 43.7 13.1267 43.7 17.1616L39.9363 6.49174ZM8.82855 2.76472L8.82671 2.76684C5.45006 6.64969 3.4 11.683 3.4 17.1617H3.9L3.4 17.1617C3.40041 22.4411 5.32499 27.545 8.82439 31.5539C9.26729 32.0816 9.22297 32.9052 8.69801 33.4197C8.08599 34.0196 7.09278 33.9602 6.51438 33.297C2.76636 28.9231 0.5 23.3039 0.5 17.1617C0.5 11.0188 2.76687 5.39902 6.51565 1.02489L6.51611 1.02435C6.64704 0.871145 6.80928 0.745328 6.99313 0.655258C7.17699 0.565177 7.37824 0.512931 7.58431 0.502111C7.79039 0.491291 7.99636 0.522158 8.18929 0.592581C8.38071 0.66245 8.55487 0.769627 8.70137 0.907007C9.233 1.43129 9.28207 2.24911 8.82855 2.76472ZM14.3793 8.15739L14.3782 8.15881L11.7 17.1617L11.2 17.1602C11.2 17.1604 11.2 17.1607 11.2 17.1609C11.19 20.4256 12.3213 23.5937 14.4033 26.1381C14.8332 26.6919 14.7641 27.4742 14.262 27.9663C13.639 28.5769 12.6041 28.5168 12.063 27.8564C9.71302 24.9081 8.3 21.1952 8.3 17.1617L8.3 17.1614C8.29775 13.286 9.62187 9.52063 12.0623 6.46797C12.1898 6.31334 12.3493 6.18564 12.531 6.09346C12.7136 6.00081 12.9144 5.94625 13.1205 5.93362C13.3265 5.921 13.5329 5.95062 13.7262 6.0204C13.9182 6.08968 14.0927 6.19687 14.2391 6.33468C14.7639 6.85197 14.8058 7.63034 14.3793 8.15739ZM34.6 15.8875C34.6 18.2376 33.0981 20.336 31.4567 22.4275C31.3419 22.5737 31.2264 22.72 31.1109 22.8663C30.4199 23.7418 29.7293 24.6167 29.1916 25.4775C28.66 26.3285 28.2459 27.2134 28.1316 28.1292H23.8684C23.7541 27.2134 23.34 26.3285 22.8084 25.4775C22.2707 24.6167 21.5801 23.7418 20.8891 22.8663C20.7736 22.72 20.6581 22.5737 20.5433 22.4275C18.9019 20.336 17.4 18.2376 17.4 15.8875C17.4 11.2548 21.2486 7.4684 26 7.4684C30.7514 7.4684 34.6 11.2548 34.6 15.8875ZM23.9 32.4517V31.6775H28.1V32.4517C28.1 33.5677 27.1634 34.5 26 34.5C24.8366 34.5 23.9 33.5677 23.9 32.4517Z" stroke="#C8AC48"/>
</svg>
