<svg width="150" height="37" viewBox="0 0 150 37" fill="none" xmlns="http://www.w3.org/2000/svg">
<rect width="150" height="37" rx="4" fill="#C8AC48"/>
<mask id="mask0" mask-type="alpha" maskUnits="userSpaceOnUse" x="0" y="0" width="150" height="37">
<rect width="150" height="37" rx="4" fill="#A68C2F"/>
</mask>
<g mask="url(#mask0)">
<path d="M107.31 0L43.1324 37H150V0H107.31Z" fill="#B89D3B"/>
</g>
<path fill-rule="evenodd" clip-rule="evenodd" d="M109 24.887L114 19.887V19.18L109 14.18L108.293 14.887L112.439 19.034H102V20.034H112.44L108.292 24.18L108.999 24.887H109Z" fill="#F2F2F2"/>
<path d="M39.2336 18.392C39.7541 18.5029 40.1723 18.7632 40.488 19.1728C40.8037 19.5739 40.9616 20.0347 40.9616 20.5552C40.9616 21.3061 40.6971 21.9035 40.168 22.3472C39.6475 22.7824 38.9179 23 37.9792 23H33.7936V14.0144H37.8384C38.7515 14.0144 39.464 14.2235 39.976 14.6416C40.4965 15.0597 40.7568 15.6272 40.7568 16.344C40.7568 16.8731 40.616 17.3125 40.3344 17.6624C40.0613 18.0123 39.6944 18.2555 39.2336 18.392ZM35.9824 17.6496H37.416C37.7744 17.6496 38.0475 17.5728 38.2352 17.4192C38.4315 17.2571 38.5296 17.0224 38.5296 16.7152C38.5296 16.408 38.4315 16.1733 38.2352 16.0112C38.0475 15.8491 37.7744 15.768 37.416 15.768H35.9824V17.6496ZM37.5952 21.2336C37.9621 21.2336 38.2437 21.1525 38.44 20.9904C38.6448 20.8197 38.7472 20.5765 38.7472 20.2608C38.7472 19.9451 38.6405 19.6976 38.4272 19.5184C38.2224 19.3392 37.9365 19.2496 37.5696 19.2496H35.9824V21.2336H37.5952ZM49.2839 15.8576V23H47.0951V22.0272C46.8732 22.3429 46.5703 22.5989 46.1863 22.7952C45.8108 22.9829 45.3927 23.0768 44.9319 23.0768C44.3858 23.0768 43.9036 22.9573 43.4855 22.7184C43.0674 22.4709 42.7431 22.1168 42.5127 21.656C42.2823 21.1952 42.1671 20.6533 42.1671 20.0304V15.8576H44.3431V19.736C44.3431 20.2139 44.4668 20.5851 44.7143 20.8496C44.9618 21.1141 45.2946 21.2464 45.7127 21.2464C46.1394 21.2464 46.4764 21.1141 46.7239 20.8496C46.9714 20.5851 47.0951 20.2139 47.0951 19.736V15.8576H49.2839ZM58.1521 15.8576L53.6721 26.392H51.3169L52.9553 22.7568L50.0497 15.8576H52.4945L54.1457 20.3248L55.7841 15.8576H58.1521ZM69.6945 23H67.5057L63.8449 17.4576V23H61.6561V14.0144H63.8449L67.5057 19.5824V14.0144H69.6945V23ZM74.5323 23.1024C73.8326 23.1024 73.2011 22.9531 72.6379 22.6544C72.0832 22.3557 71.6438 21.9291 71.3195 21.3744C71.0038 20.8197 70.8459 20.1712 70.8459 19.4288C70.8459 18.6949 71.008 18.0507 71.3323 17.496C71.6566 16.9328 72.1003 16.5019 72.6635 16.2032C73.2267 15.9045 73.8582 15.7552 74.5579 15.7552C75.2576 15.7552 75.8891 15.9045 76.4523 16.2032C77.0155 16.5019 77.4592 16.9328 77.7835 17.496C78.1078 18.0507 78.2699 18.6949 78.2699 19.4288C78.2699 20.1627 78.1035 20.8112 77.7707 21.3744C77.4464 21.9291 76.9984 22.3557 76.4267 22.6544C75.8635 22.9531 75.232 23.1024 74.5323 23.1024ZM74.5323 21.208C74.9504 21.208 75.3046 21.0544 75.5947 20.7472C75.8934 20.44 76.0427 20.0005 76.0427 19.4288C76.0427 18.8571 75.8976 18.4176 75.6075 18.1104C75.3259 17.8032 74.976 17.6496 74.5579 17.6496C74.1312 17.6496 73.7771 17.8032 73.4955 18.1104C73.2139 18.4091 73.0731 18.8485 73.0731 19.4288C73.0731 20.0005 73.2096 20.44 73.4827 20.7472C73.7643 21.0544 74.1142 21.208 74.5323 21.208ZM89.6839 15.8576L87.7511 23H85.3319L84.2055 18.3664L83.0407 23H80.6343L78.6887 15.8576H80.8775L81.8887 20.9648L83.0919 15.8576H85.4087L86.6247 20.9392L87.6231 15.8576H89.6839Z" fill="#F2F2F2"/>
</svg>
