<svg width="50" height="50" viewBox="0 0 50 50" fill="none" xmlns="http://www.w3.org/2000/svg">
<path d="M12.5959 22.5H17.3939V27.5H12.5959V22.5ZM12.5959 32.5H17.3939V37.5H12.5959V32.5ZM22.1919 22.5H26.9899V27.5H22.1919V22.5ZM22.1919 32.5H26.9899V37.5H22.1919V32.5ZM31.7879 22.5H36.5858V27.5H31.7879V22.5ZM31.7879 32.5H36.5858V37.5H31.7879V32.5Z" fill="#C8AC48"/>
<path d="M7.79798 50H41.3838C44.0299 50 46.1818 47.7575 46.1818 45V10C46.1818 7.2425 44.0299 5 41.3838 5H36.5859V0H31.7879V5H17.3939V0H12.596V5H7.79798C5.15189 5 3 7.2425 3 10V45C3 47.7575 5.15189 50 7.79798 50ZM41.3838 15L41.3862 45H7.79798V15H41.3838Z" fill="#C8AC48"/>
</svg>
