<svg width="150" height="37" viewBox="0 0 150 37" fill="none" xmlns="http://www.w3.org/2000/svg">
<rect width="150" height="37" rx="4" fill="#C8AC48"/>
<mask id="mask0" mask-type="alpha" maskUnits="userSpaceOnUse" x="0" y="0" width="150" height="37">
<rect width="150" height="37" rx="4" fill="#A68C2F"/>
</mask>
<g mask="url(#mask0)">
<path d="M107.31 0L43.1323 37H150V0H107.31Z" fill="#B89D3B"/>
</g>
<path fill-rule="evenodd" clip-rule="evenodd" d="M109 24.887L114 19.887V19.18L109 14.18L108.293 14.887L112.439 19.034H102V20.034H112.44L108.292 24.18L108.999 24.887H109Z" fill="#F2F2F2"/>
<path d="M36.8896 13.8608C38.0416 13.8608 38.9931 14.1637 39.744 14.7696C40.5035 15.3755 40.9941 16.1947 41.216 17.2272H38.8992C38.7285 16.8091 38.464 16.4805 38.1056 16.2416C37.7557 16.0027 37.3376 15.8832 36.8512 15.8832C36.2112 15.8832 35.6949 16.1179 35.3024 16.5872C34.9099 17.0565 34.7136 17.6837 34.7136 18.4688C34.7136 19.2539 34.9099 19.8811 35.3024 20.3504C35.6949 20.8112 36.2112 21.0416 36.8512 21.0416C37.3376 21.0416 37.7557 20.9221 38.1056 20.6832C38.464 20.4443 38.7285 20.12 38.8992 19.7104H41.216C40.9941 20.7344 40.5035 21.5536 39.744 22.168C38.9931 22.7739 38.0416 23.0768 36.8896 23.0768C36.0107 23.0768 35.2384 22.8848 34.5728 22.5008C33.9072 22.1083 33.3909 21.5621 33.024 20.8624C32.6656 20.1627 32.4864 19.3648 32.4864 18.4688C32.4864 17.5728 32.6656 16.7749 33.024 16.0752C33.3909 15.3755 33.9072 14.8336 34.5728 14.4496C35.2384 14.0571 36.0107 13.8608 36.8896 13.8608ZM45.1563 15.768C45.7024 15.768 46.1718 15.8917 46.5643 16.1392C46.9568 16.3867 47.247 16.7237 47.4347 17.1504V15.8576H49.6107V23H47.4347V21.7072C47.247 22.1339 46.9568 22.4709 46.5643 22.7184C46.1718 22.9659 45.7024 23.0896 45.1563 23.0896C44.5675 23.0896 44.0384 22.9445 43.5691 22.6544C43.1083 22.3557 42.7414 21.9291 42.4683 21.3744C42.2038 20.8197 42.0715 20.1712 42.0715 19.4288C42.0715 18.6779 42.2038 18.0293 42.4683 17.4832C42.7414 16.9285 43.1083 16.5061 43.5691 16.216C44.0384 15.9173 44.5675 15.768 45.1563 15.768ZM45.8603 17.688C45.391 17.688 45.0112 17.8416 44.7211 18.1488C44.4395 18.456 44.2987 18.8827 44.2987 19.4288C44.2987 19.9749 44.4395 20.4016 44.7211 20.7088C45.0112 21.016 45.391 21.1696 45.8603 21.1696C46.3211 21.1696 46.6966 21.0117 46.9867 20.696C47.2854 20.3803 47.4347 19.9579 47.4347 19.4288C47.4347 18.8912 47.2854 18.4688 46.9867 18.1616C46.6966 17.8459 46.3211 17.688 45.8603 17.688ZM53.3065 13.528V23H51.1177V13.528H53.3065ZM57.0065 13.528V23H54.8177V13.528H57.0065ZM69.1186 23H66.9298L63.269 17.4448V23H61.0802V13.9504H63.269L66.9298 19.5568V13.9504H69.1186V23ZM73.971 15.768C74.6793 15.768 75.3107 15.9173 75.8654 16.216C76.4286 16.5061 76.8681 16.9285 77.1838 17.4832C77.5081 18.0379 77.6702 18.6864 77.6702 19.4288C77.6702 20.1712 77.5081 20.8197 77.1838 21.3744C76.8681 21.9291 76.4286 22.3557 75.8654 22.6544C75.3107 22.9445 74.6793 23.0896 73.971 23.0896C73.2627 23.0896 72.627 22.9445 72.0638 22.6544C71.5006 22.3557 71.0569 21.9291 70.7326 21.3744C70.4169 20.8197 70.259 20.1712 70.259 19.4288C70.259 18.6864 70.4169 18.0379 70.7326 17.4832C71.0569 16.9285 71.5006 16.5061 72.0638 16.216C72.627 15.9173 73.2627 15.768 73.971 15.768ZM73.971 17.6624C73.5529 17.6624 73.1987 17.816 72.9086 18.1232C72.627 18.4219 72.4862 18.8571 72.4862 19.4288C72.4862 20.0005 72.627 20.4357 72.9086 20.7344C73.1987 21.0331 73.5529 21.1824 73.971 21.1824C74.3891 21.1824 74.739 21.0331 75.0206 20.7344C75.3022 20.4357 75.443 20.0005 75.443 19.4288C75.443 18.8571 75.3022 18.4219 75.0206 18.1232C74.739 17.816 74.3891 17.6624 73.971 17.6624ZM89.25 15.8576L87.4196 23H84.9748L83.682 18.2128L82.3764 23H79.9316L78.1012 15.8576H80.29L81.2372 21.0032L82.5684 15.8576H84.898L86.2676 21.016L87.2148 15.8576H89.25Z" fill="#F2F2F2"/>
</svg>
