<svg width="24" height="24" viewBox="0 0 24 24" fill="none" xmlns="http://www.w3.org/2000/svg">
<path d="M18.5446 7.55556L16.5385 2.51852H17.7692V1.25926H11.6154V0H10.3846V1.25926H4.23077V2.51852H5.46154L3.46769 7.55556H3V8.81481H3.18462C3.37662 9.44193 3.76677 9.98593 4.29231 10.3637C4.81126 10.7487 5.43589 10.9561 6.07692 10.9561C6.71796 10.9561 7.34259 10.7487 7.86154 10.3637C8.38752 9.98362 8.78017 9.44062 8.98154 8.81481H9.15385V7.55556H8.6L6.54462 2.51852H10.3846V12.5926H7.92308L7.44308 12.8193L4.98154 15.98L5.46154 17H16.5385L17.0185 15.98L14.5569 12.8193L14.0769 12.5926H11.6154V2.51852H15.4677L13.4123 7.55556H12.8462V8.81481H13.0308C13.2321 9.4387 13.6205 9.98174 14.1409 10.3667C14.6613 10.7516 15.2871 10.9588 15.9292 10.9588C16.5714 10.9588 17.1972 10.7516 17.7175 10.3667C18.2379 9.98174 18.6264 9.4387 18.8277 8.81481H19V7.55556H18.5446ZM6.96308 9.45704C6.69165 9.61073 6.38713 9.69295 6.07692 9.6963C5.77039 9.69465 5.46944 9.61225 5.20308 9.45704C4.93146 9.3047 4.70262 9.08357 4.53846 8.81481H7.61538C7.45261 9.0803 7.22862 9.30083 6.96308 9.45704V9.45704ZM7.27077 7.55556H4.80923L6.04 4.53333L7.27077 7.55556ZM13.7815 13.8519L15.3077 15.7407H6.69231L8.21846 13.8519H13.7815ZM15.9723 4.55852L17.2031 7.58074H14.7415L15.9723 4.55852V4.55852ZM16.8092 9.48222C16.5401 9.64178 16.2341 9.72442 15.9231 9.72148C15.6158 9.72595 15.3133 9.64313 15.0492 9.48222C14.7772 9.31934 14.5489 9.09004 14.3846 8.81481H17.4615C17.309 9.095 17.0831 9.32612 16.8092 9.48222V9.48222Z" fill="#D3D3FD"/>
</svg>
