<svg width="168" height="168" viewBox="0 0 168 168" fill="none" xmlns="http://www.w3.org/2000/svg">
<circle cx="84" cy="84" r="77" fill="#F2F2F2"/>
<circle cx="84" cy="84" r="83.5" stroke="#F2F2F2"/>
<path d="M47.9791 83.175C46.6958 83.175 45.5458 82.9667 44.5291 82.55C43.5124 82.1333 42.6958 81.5167 42.0791 80.7C41.4791 79.8833 41.1624 78.9 41.1291 77.75H45.6791C45.7458 78.4 45.9708 78.9 46.3541 79.25C46.7374 79.5833 47.2374 79.75 47.8541 79.75C48.4874 79.75 48.9874 79.6083 49.3541 79.325C49.7208 79.025 49.9041 78.6167 49.9041 78.1C49.9041 77.6667 49.7541 77.3083 49.4541 77.025C49.1708 76.7417 48.8124 76.5083 48.3791 76.325C47.9624 76.1417 47.3624 75.9333 46.5791 75.7C45.4458 75.35 44.5208 75 43.8041 74.65C43.0874 74.3 42.4708 73.7833 41.9541 73.1C41.4374 72.4167 41.1791 71.525 41.1791 70.425C41.1791 68.7917 41.7708 67.5167 42.9541 66.6C44.1374 65.6667 45.6791 65.2 47.5791 65.2C49.5124 65.2 51.0708 65.6667 52.2541 66.6C53.4374 67.5167 54.0708 68.8 54.1541 70.45H49.5291C49.4958 69.8833 49.2874 69.4417 48.9041 69.125C48.5208 68.7917 48.0291 68.625 47.4291 68.625C46.9124 68.625 46.4958 68.7667 46.1791 69.05C45.8624 69.3167 45.7041 69.7083 45.7041 70.225C45.7041 70.7917 45.9708 71.2333 46.5041 71.55C47.0374 71.8667 47.8708 72.2083 49.0041 72.575C50.1374 72.9583 51.0541 73.325 51.7541 73.675C52.4708 74.025 53.0874 74.5333 53.6041 75.2C54.1208 75.8667 54.3791 76.725 54.3791 77.775C54.3791 78.775 54.1208 79.6833 53.6041 80.5C53.1041 81.3167 52.3708 81.9667 51.4041 82.45C50.4374 82.9333 49.2958 83.175 47.9791 83.175ZM76.885 65.45V83H72.61V72.475L68.685 83H65.235L61.285 72.45V83H57.01V65.45H62.06L66.985 77.6L71.86 65.45H76.885ZM90.8842 79.9H84.3342L83.2842 83H78.8092L85.1592 65.45H90.1092L96.4592 83H91.9342L90.8842 79.9ZM89.7842 76.6L87.6092 70.175L85.4592 76.6H89.7842ZM107.342 83L103.692 76.375H102.667V83H98.3918V65.45H105.567C106.95 65.45 108.125 65.6917 109.092 66.175C110.075 66.6583 110.808 67.325 111.292 68.175C111.775 69.0083 112.017 69.9417 112.017 70.975C112.017 72.1417 111.683 73.1833 111.017 74.1C110.367 75.0167 109.4 75.6667 108.117 76.05L112.167 83H107.342ZM102.667 73.35H105.317C106.1 73.35 106.683 73.1583 107.067 72.775C107.467 72.3917 107.667 71.85 107.667 71.15C107.667 70.4833 107.467 69.9583 107.067 69.575C106.683 69.1917 106.1 69 105.317 69H102.667V73.35ZM127.325 65.45V68.875H122.675V83H118.4V68.875H113.75V65.45H127.325Z" fill="#313B4E"/>
<path d="M44.0649 107.112C43.3289 107.112 42.6675 106.984 42.0809 106.728C41.5049 106.461 41.0515 106.099 40.7209 105.64C40.3902 105.171 40.2195 104.632 40.2089 104.024H41.7609C41.8142 104.547 42.0275 104.989 42.4009 105.352C42.7849 105.704 43.3395 105.88 44.0649 105.88C44.7582 105.88 45.3022 105.709 45.6969 105.368C46.1022 105.016 46.3049 104.568 46.3049 104.024C46.3049 103.597 46.1875 103.251 45.9529 102.984C45.7182 102.717 45.4249 102.515 45.0729 102.376C44.7209 102.237 44.2462 102.088 43.6489 101.928C42.9129 101.736 42.3209 101.544 41.8729 101.352C41.4355 101.16 41.0569 100.861 40.7369 100.456C40.4275 100.04 40.2729 99.4853 40.2729 98.792C40.2729 98.184 40.4275 97.6453 40.7369 97.176C41.0462 96.7067 41.4782 96.344 42.0329 96.088C42.5982 95.832 43.2435 95.704 43.9689 95.704C45.0142 95.704 45.8675 95.9653 46.5289 96.488C47.2009 97.0107 47.5795 97.704 47.6649 98.568H46.0649C46.0115 98.1413 45.7875 97.768 45.3929 97.448C44.9982 97.1173 44.4755 96.952 43.8249 96.952C43.2169 96.952 42.7209 97.112 42.3369 97.432C41.9529 97.7413 41.7609 98.1787 41.7609 98.744C41.7609 99.1493 41.8729 99.48 42.0969 99.736C42.3315 99.992 42.6142 100.189 42.9449 100.328C43.2862 100.456 43.7609 100.605 44.3689 100.776C45.1049 100.979 45.6969 101.181 46.1449 101.384C46.5929 101.576 46.9769 101.88 47.2969 102.296C47.6169 102.701 47.7769 103.256 47.7769 103.96C47.7769 104.504 47.6329 105.016 47.3449 105.496C47.0569 105.976 46.6302 106.365 46.0649 106.664C45.4995 106.963 44.8329 107.112 44.0649 107.112ZM56.7835 95.848V97.032H53.7435V107H52.2875V97.032H49.2315V95.848H56.7835ZM64.4478 107L61.7918 102.44H60.0318V107H58.5758V95.848H62.1758C63.0184 95.848 63.7278 95.992 64.3038 96.28C64.8904 96.568 65.3278 96.9573 65.6158 97.448C65.9038 97.9387 66.0478 98.4987 66.0478 99.128C66.0478 99.896 65.8238 100.573 65.3758 101.16C64.9384 101.747 64.2771 102.136 63.3918 102.328L66.1918 107H64.4478ZM60.0318 101.272H62.1758C62.9651 101.272 63.5571 101.08 63.9518 100.696C64.3464 100.301 64.5438 99.7787 64.5438 99.128C64.5438 98.4667 64.3464 97.9547 63.9518 97.592C63.5678 97.2293 62.9758 97.048 62.1758 97.048H60.0318V101.272ZM74.9021 104.52H70.0381L69.1421 107H67.6061L71.6381 95.912H73.3181L77.3341 107H75.7981L74.9021 104.52ZM74.4861 103.336L72.4701 97.704L70.4541 103.336H74.4861ZM85.9554 95.848V97.032H82.9154V107H81.4594V97.032H78.4034V95.848H85.9554ZM89.2036 97.032V100.76H93.2676V101.96H89.2036V105.8H93.7476V107H87.7476V95.832H93.7476V97.032H89.2036ZM104.399 99.08C104.089 98.4293 103.641 97.928 103.055 97.576C102.468 97.2133 101.785 97.032 101.007 97.032C100.228 97.032 99.5241 97.2133 98.8948 97.576C98.2761 97.928 97.7854 98.44 97.4228 99.112C97.0708 99.7733 96.8948 100.541 96.8948 101.416C96.8948 102.291 97.0708 103.059 97.4228 103.72C97.7854 104.381 98.2761 104.893 98.8948 105.256C99.5241 105.608 100.228 105.784 101.007 105.784C102.095 105.784 102.991 105.459 103.695 104.808C104.399 104.157 104.809 103.277 104.927 102.168H100.479V100.984H106.479V102.104C106.393 103.021 106.105 103.864 105.615 104.632C105.124 105.389 104.479 105.992 103.679 106.44C102.879 106.877 101.988 107.096 101.007 107.096C99.9721 107.096 99.0281 106.856 98.1748 106.376C97.3214 105.885 96.6441 105.208 96.1428 104.344C95.6521 103.48 95.4068 102.504 95.4068 101.416C95.4068 100.328 95.6521 99.352 96.1428 98.488C96.6441 97.6133 97.3214 96.936 98.1748 96.456C99.0281 95.9653 99.9721 95.72 101.007 95.72C102.191 95.72 103.236 96.0133 104.143 96.6C105.06 97.1867 105.727 98.0133 106.143 99.08H104.399ZM109.86 95.848V107H108.404V95.848H109.86ZM113.797 97.032V100.76H117.861V101.96H113.797V105.8H118.341V107H112.341V95.832H118.341V97.032H113.797ZM124.081 107.112C123.345 107.112 122.683 106.984 122.097 106.728C121.521 106.461 121.067 106.099 120.737 105.64C120.406 105.171 120.235 104.632 120.225 104.024H121.777C121.83 104.547 122.043 104.989 122.417 105.352C122.801 105.704 123.355 105.88 124.081 105.88C124.774 105.88 125.318 105.709 125.713 105.368C126.118 105.016 126.321 104.568 126.321 104.024C126.321 103.597 126.203 103.251 125.969 102.984C125.734 102.717 125.441 102.515 125.089 102.376C124.737 102.237 124.262 102.088 123.665 101.928C122.929 101.736 122.337 101.544 121.889 101.352C121.451 101.16 121.073 100.861 120.753 100.456C120.443 100.04 120.289 99.4853 120.289 98.792C120.289 98.184 120.443 97.6453 120.753 97.176C121.062 96.7067 121.494 96.344 122.049 96.088C122.614 95.832 123.259 95.704 123.985 95.704C125.03 95.704 125.883 95.9653 126.545 96.488C127.217 97.0107 127.595 97.704 127.681 98.568H126.081C126.027 98.1413 125.803 97.768 125.409 97.448C125.014 97.1173 124.491 96.952 123.841 96.952C123.233 96.952 122.737 97.112 122.353 97.432C121.969 97.7413 121.777 98.1787 121.777 98.744C121.777 99.1493 121.889 99.48 122.113 99.736C122.347 99.992 122.63 100.189 122.961 100.328C123.302 100.456 123.777 100.605 124.385 100.776C125.121 100.979 125.713 101.181 126.161 101.384C126.609 101.576 126.993 101.88 127.312 102.296C127.633 102.701 127.793 103.256 127.793 103.96C127.793 104.504 127.649 105.016 127.361 105.496C127.073 105.976 126.646 106.365 126.081 106.664C125.515 106.963 124.849 107.112 124.081 107.112Z" fill="#313B4E"/>
</svg>
