<svg width="50" height="50" viewBox="0 0 50 50" fill="none" xmlns="http://www.w3.org/2000/svg">
<path d="M35.6136 27.5425C38.7273 29.635 40.9091 32.47 40.9091 36.25V43H50V36.25C50 31.345 41.8864 28.4425 35.6136 27.5425ZM31.8182 25C36.8409 25 40.9091 20.9725 40.9091 16C40.9091 11.0275 36.8409 7 31.8182 7C30.75 7 29.75 7.225 28.7955 7.54C30.7512 9.93449 31.8181 12.9207 31.8181 16C31.8181 19.0793 30.7512 22.0655 28.7955 24.46C29.75 24.775 30.75 25 31.8182 25ZM18.1818 25C23.2045 25 27.2727 20.9725 27.2727 16C27.2727 11.0275 23.2045 7 18.1818 7C13.1591 7 9.09091 11.0275 9.09091 16C9.09091 20.9725 13.1591 25 18.1818 25ZM18.1818 11.5C20.6818 11.5 22.7273 13.525 22.7273 16C22.7273 18.475 20.6818 20.5 18.1818 20.5C15.6818 20.5 13.6364 18.475 13.6364 16C13.6364 13.525 15.6818 11.5 18.1818 11.5ZM18.1818 27.25C12.1136 27.25 0 30.265 0 36.25V43H36.3636V36.25C36.3636 30.265 24.25 27.25 18.1818 27.25ZM31.8182 38.5H4.54545V36.2725C5 34.6525 12.0455 31.75 18.1818 31.75C24.3182 31.75 31.3636 34.6525 31.8182 36.25V38.5Z" fill="#C8AC48"/>
</svg>
