<svg width="98" height="98" viewBox="0 0 98 98" fill="none" xmlns="http://www.w3.org/2000/svg">
<circle cx="49" cy="49" r="42" fill="#46546B"/>
<circle cx="49" cy="49" r="47.5" stroke="#293852" stroke-width="3"/>
<path d="M47.5 43V50.5L53.875 54.28L55.03 52.36L49.75 49.225V43H47.5ZM62.5 46V35.5L58.54 39.46C57.2907 38.2019 55.8043 37.204 54.1667 36.5243C52.5292 35.8446 50.773 35.4964 49 35.5C46.33 35.5 43.7199 36.2918 41.4998 37.7752C39.2797 39.2586 37.5494 41.367 36.5276 43.8338C35.5058 46.3006 35.2385 49.015 35.7594 51.6337C36.2803 54.2525 37.5661 56.658 39.4541 58.546C41.3421 60.434 43.7475 61.7197 46.3663 62.2406C48.985 62.7615 51.6994 62.4942 54.1662 61.4724C56.633 60.4506 58.7414 58.7203 60.2248 56.5002C61.7082 54.2802 62.5 51.6701 62.5 49H59.5C59.5 54.79 54.79 59.5 49 59.5C43.21 59.5 38.5 54.79 38.5 49C38.5 43.21 43.21 38.5 49 38.5C51.895 38.5 54.52 39.685 56.425 41.575L52 46H62.5Z" fill="#F2F2F2"/>
</svg>
