<svg width="164" height="37" viewBox="0 0 164 37" fill="none" xmlns="http://www.w3.org/2000/svg">
<rect width="164" height="37" rx="4" fill="#C8AC48"/>
<mask id="mask0" mask-type="alpha" maskUnits="userSpaceOnUse" x="0" y="0" width="164" height="37">
<rect width="164" height="37" rx="4" fill="#A68C2F"/>
</mask>
<g mask="url(#mask0)">
<path d="M117.326 0L47.1581 37H164V0H117.326Z" fill="#B89D3B"/>
</g>
<path d="M58.8896 13.8608C60.0416 13.8608 60.9931 14.1637 61.744 14.7696C62.5035 15.3755 62.9941 16.1947 63.216 17.2272H60.8992C60.7285 16.8091 60.464 16.4805 60.1056 16.2416C59.7557 16.0027 59.3376 15.8832 58.8512 15.8832C58.2112 15.8832 57.6949 16.1179 57.3024 16.5872C56.9099 17.0565 56.7136 17.6837 56.7136 18.4688C56.7136 19.2539 56.9099 19.8811 57.3024 20.3504C57.6949 20.8112 58.2112 21.0416 58.8512 21.0416C59.3376 21.0416 59.7557 20.9221 60.1056 20.6832C60.464 20.4443 60.7285 20.12 60.8992 19.7104H63.216C62.9941 20.7344 62.5035 21.5536 61.744 22.168C60.9931 22.7739 60.0416 23.0768 58.8896 23.0768C58.0107 23.0768 57.2384 22.8848 56.5728 22.5008C55.9072 22.1083 55.3909 21.5621 55.024 20.8624C54.6656 20.1627 54.4864 19.3648 54.4864 18.4688C54.4864 17.5728 54.6656 16.7749 55.024 16.0752C55.3909 15.3755 55.9072 14.8336 56.5728 14.4496C57.2384 14.0571 58.0107 13.8608 58.8896 13.8608ZM67.7835 15.768C68.4918 15.768 69.1232 15.9173 69.6779 16.216C70.2411 16.5061 70.6806 16.9285 70.9963 17.4832C71.3206 18.0379 71.4827 18.6864 71.4827 19.4288C71.4827 20.1712 71.3206 20.8197 70.9963 21.3744C70.6806 21.9291 70.2411 22.3557 69.6779 22.6544C69.1232 22.9445 68.4918 23.0896 67.7835 23.0896C67.0752 23.0896 66.4395 22.9445 65.8763 22.6544C65.3131 22.3557 64.8694 21.9291 64.5451 21.3744C64.2294 20.8197 64.0715 20.1712 64.0715 19.4288C64.0715 18.6864 64.2294 18.0379 64.5451 17.4832C64.8694 16.9285 65.3131 16.5061 65.8763 16.216C66.4395 15.9173 67.0752 15.768 67.7835 15.768ZM67.7835 17.6624C67.3654 17.6624 67.0112 17.816 66.7211 18.1232C66.4395 18.4219 66.2987 18.8571 66.2987 19.4288C66.2987 20.0005 66.4395 20.4357 66.7211 20.7344C67.0112 21.0331 67.3654 21.1824 67.7835 21.1824C68.2016 21.1824 68.5515 21.0331 68.8331 20.7344C69.1147 20.4357 69.2555 20.0005 69.2555 19.4288C69.2555 18.8571 69.1147 18.4219 68.8331 18.1232C68.5515 17.816 68.2016 17.6624 67.7835 17.6624ZM77.1489 15.7808C77.9681 15.7808 78.6166 16.0539 79.0945 16.6C79.5809 17.1461 79.8241 17.8971 79.8241 18.8528V23H77.6353V19.1088C77.6353 18.6309 77.5073 18.2597 77.2513 17.9952C77.0038 17.7221 76.671 17.5856 76.2529 17.5856C75.8092 17.5856 75.455 17.7264 75.1905 18.008C74.9345 18.2896 74.8065 18.6907 74.8065 19.2112V23H72.6177V15.8576H74.8065V17.1632C75.0113 16.7365 75.3142 16.3995 75.7153 16.152C76.1249 15.9045 76.6028 15.7808 77.1489 15.7808ZM84.7749 14.8848C84.4165 14.8848 84.1562 14.9616 83.9941 15.1152C83.832 15.2688 83.7424 15.5163 83.7253 15.8576H85.0181V17.7008H83.7253V23H81.5365V17.7008H80.6789V15.8576H81.5365V15.7808C81.5365 14.8933 81.7925 14.2107 82.3045 13.7328C82.825 13.2464 83.576 13.0032 84.5573 13.0032C84.7621 13.0032 84.9157 13.0075 85.0181 13.016V14.8976L84.7749 14.8848ZM85.7754 13.848C85.7754 13.5152 85.8949 13.2421 86.1338 13.0288C86.3727 12.8069 86.6885 12.696 87.081 12.696C87.4735 12.696 87.7893 12.8069 88.0282 13.0288C88.2671 13.2421 88.3866 13.5152 88.3866 13.848C88.3866 14.1723 88.2671 14.4453 88.0282 14.6672C87.7893 14.8805 87.4735 14.9872 87.081 14.9872C86.6885 14.9872 86.3727 14.8805 86.1338 14.6672C85.8949 14.4453 85.7754 14.1723 85.7754 13.848ZM88.169 15.8576V23H85.9802V15.8576H88.169ZM91.869 17.2016C92.1421 16.7664 92.4919 16.4208 92.9186 16.1648C93.3538 15.9088 93.8231 15.7808 94.3266 15.7808V18.1232H93.6994C93.1191 18.1232 92.6669 18.2469 92.3426 18.4944C92.0269 18.7419 91.869 19.16 91.869 19.7488V23H89.6802V15.8576H91.869V17.2016ZM104.497 15.7808C105.376 15.7808 106.067 16.0539 106.571 16.6C107.074 17.1376 107.326 17.8885 107.326 18.8528V23H105.15V19.1088C105.15 18.6565 105.026 18.3067 104.779 18.0592C104.54 17.8032 104.211 17.6752 103.793 17.6752C103.358 17.6752 103.012 17.8117 102.756 18.0848C102.509 18.3493 102.385 18.7248 102.385 19.2112V23H100.196V19.1088C100.196 18.6565 100.077 18.3067 99.8379 18.0592C99.599 17.8032 99.2704 17.6752 98.8523 17.6752C98.4171 17.6752 98.0715 17.8075 97.8155 18.072C97.5595 18.3365 97.4315 18.7163 97.4315 19.2112V23H95.2427V15.8576H97.4315V17.0736C97.6192 16.6725 97.9051 16.3568 98.2891 16.1264C98.6816 15.896 99.1382 15.7808 99.6587 15.7808C100.205 15.7808 100.687 15.9088 101.105 16.1648C101.523 16.4123 101.839 16.7707 102.052 17.24C102.3 16.7963 102.637 16.4421 103.063 16.1776C103.499 15.9131 103.977 15.7808 104.497 15.7808Z" fill="#F2F2F2"/>
</svg>
