<svg width="125" height="37" viewBox="0 0 125 37" fill="none" xmlns="http://www.w3.org/2000/svg">
<rect x="0.5" y="0.5" width="123.191" height="36" rx="3.5" stroke="#C8AC48"/>
<path d="M48.944 19.8256V23H46.7552V13.9504H50.3008C51.376 13.9504 52.1952 14.2192 52.7584 14.7568C53.3216 15.2859 53.6032 16.0027 53.6032 16.9072C53.6032 17.4704 53.4752 17.9739 53.2192 18.4176C52.9717 18.8528 52.6005 19.1984 52.1056 19.4544C51.6107 19.7019 51.0091 19.8256 50.3008 19.8256H48.944ZM50.0576 18.072C50.9365 18.072 51.376 17.6837 51.376 16.9072C51.376 16.1136 50.9365 15.7168 50.0576 15.7168H48.944V18.072H50.0576ZM56.869 17.2016C57.1421 16.7664 57.4919 16.4208 57.9186 16.1648C58.3538 15.9088 58.8231 15.7808 59.3266 15.7808V18.1232H58.6994C58.1191 18.1232 57.6669 18.2469 57.3426 18.4944C57.0269 18.7419 56.869 19.16 56.869 19.7488V23H54.6802V15.8576H56.869V17.2016ZM60.0379 13.848C60.0379 13.5152 60.1574 13.2421 60.3963 13.0288C60.6352 12.8069 60.951 12.696 61.3435 12.696C61.736 12.696 62.0518 12.8069 62.2907 13.0288C62.5296 13.2421 62.6491 13.5152 62.6491 13.848C62.6491 14.1723 62.5296 14.4453 62.2907 14.6672C62.0518 14.8805 61.736 14.9872 61.3435 14.9872C60.951 14.9872 60.6352 14.8805 60.3963 14.6672C60.1574 14.4453 60.0379 14.1723 60.0379 13.848ZM62.4315 15.8576V23H60.2427V15.8576H62.4315ZM68.4739 15.7808C69.2931 15.7808 69.9416 16.0539 70.4195 16.6C70.9059 17.1461 71.1491 17.8971 71.1491 18.8528V23H68.9603V19.1088C68.9603 18.6309 68.8323 18.2597 68.5763 17.9952C68.3288 17.7221 67.996 17.5856 67.5779 17.5856C67.1342 17.5856 66.78 17.7264 66.5155 18.008C66.2595 18.2896 66.1315 18.6907 66.1315 19.2112V23H63.9427V15.8576H66.1315V17.1632C66.3363 16.7365 66.6392 16.3995 67.0403 16.152C67.4499 15.9045 67.9278 15.7808 68.4739 15.7808ZM76.6375 21.1184V23H75.6519C74.8156 23 74.1628 22.7952 73.6935 22.3856C73.2327 21.9675 73.0023 21.2805 73.0023 20.3248V17.7008H72.0423V15.8576H73.0023V14.104H75.1911V15.8576H76.6247V17.7008H75.1911V20.3632C75.1911 20.6448 75.2466 20.8411 75.3575 20.952C75.477 21.0629 75.6732 21.1184 75.9463 21.1184H76.6375Z" fill="#C8AC48"/>
</svg>
