<svg width="36" height="36" viewBox="0 0 36 36" fill="none" xmlns="http://www.w3.org/2000/svg">
<g clip-path="url(#clip0)">
<path d="M31.6371 14.2183C31.9284 14.2183 32.1645 13.9822 32.1645 13.691V11.8513H32.6316C32.9229 11.8513 33.159 11.6152 33.159 11.3239V9.57842H35.4727C35.764 9.57842 36 9.34232 36 9.05108V5.0735C36 4.83338 35.8378 4.62364 35.6055 4.56317L18.1328 0.0174688C18.0458 -0.00517188 17.9543 -0.00517188 17.8672 0.0174688L0.394594 4.56317C0.162211 4.62364 0 4.83338 0 5.0735V9.05101C0 9.34224 0.236039 9.57835 0.527344 9.57835H2.84105V11.3239C2.84105 11.6151 3.07709 11.8512 3.36839 11.8512H3.83548V28.1271H3.36839C3.07709 28.1271 2.84105 28.3632 2.84105 28.6544V30.3999H1.94787C1.65656 30.3999 1.42052 30.636 1.42052 30.9273V32.6728H0.527344C0.236039 32.6728 0 32.9089 0 33.2001V35.4731C0 35.7644 0.236039 36.0005 0.527344 36.0005H35.4727C35.764 36.0005 36 35.7644 36 35.4731V33.2003C36 32.909 35.764 32.6729 35.4727 32.6729H34.5795V30.9274C34.5795 30.6362 34.3434 30.4001 34.0521 30.4001H33.159V28.6546C33.159 28.3633 32.9229 28.1272 32.6316 28.1272H32.1645V16.1519C32.1645 15.8607 31.9284 15.6246 31.6371 15.6246C31.3458 15.6246 31.1098 15.8607 31.1098 16.1519V28.1271H27.3347V11.8513H31.1098V13.691C31.1098 13.9822 31.3459 14.2183 31.6371 14.2183V14.2183ZM32.1043 10.7966H26.3403V9.57842H32.1043V10.7966ZM1.05469 5.48124L18 1.07272L34.9453 5.48124V8.52374H1.05469V5.48124ZM20.882 10.7966H15.118V9.57842H20.882V10.7966ZM9.65967 9.57842V10.7966H3.89573V9.57842H9.65967ZM4.89016 11.8513H8.66531V15.9523C8.66531 16.2435 8.90135 16.4796 9.19266 16.4796C9.48396 16.4796 9.72 16.2435 9.72 15.9523V11.8513H10.187C10.4783 11.8513 10.7144 11.6152 10.7144 11.3239V9.57842H14.0633V11.3239C14.0633 11.6152 14.2994 11.8513 14.5907 11.8513H15.0578V28.1271H14.5907C14.2994 28.1271 14.0633 28.3633 14.0633 28.6545V30.4H10.7144V28.6545C10.7144 28.3633 10.4783 28.1271 10.187 28.1271H9.72V18.4132C9.72 18.122 9.48396 17.8858 9.19266 17.8858C8.90135 17.8858 8.66531 18.122 8.66531 18.4132V28.1271H4.89016V11.8513ZM20.882 29.1818V30.4H15.118V29.1818H20.882ZM3.89573 29.1818H9.65967V30.4H3.89573V29.1818ZM34.9453 34.9458H1.05469V33.7276H34.9453V34.9458ZM33.5248 32.6729H2.47521V31.4548H33.5248V32.6729ZM26.3403 30.4001V29.1819H32.1043V30.4001H26.3403ZM26.28 28.1271H25.813C25.5217 28.1271 25.2856 28.3633 25.2856 28.6545V30.4H21.9367V28.6545C21.9367 28.3633 21.7006 28.1271 21.4093 28.1271H20.9425V23.2331C20.9425 22.9419 20.7065 22.7058 20.4152 22.7058C20.1239 22.7058 19.8878 22.9419 19.8878 23.2331V28.1271H16.1124V11.8513H19.8878V20.7722C19.8878 21.0634 20.1239 21.2995 20.4152 21.2995C20.7065 21.2995 20.9425 21.0634 20.9425 20.7722V11.8513H21.4093C21.7006 11.8513 21.9367 11.6152 21.9367 11.3239V9.57842H25.2856V11.3239C25.2856 11.6152 25.5217 11.8513 25.813 11.8513H26.28V28.1271Z" fill="#F2F2F2"/>
<path d="M18.0001 7.30512C19.3679 7.30512 20.4806 6.19229 20.4806 4.8245C20.4806 3.45671 19.3679 2.34387 18.0001 2.34387C16.6323 2.34387 15.5195 3.45664 15.5195 4.82443C15.5195 6.19221 16.6323 7.30512 18.0001 7.30512V7.30512ZM18.0001 3.39856C18.7863 3.39856 19.426 4.03819 19.426 4.82443C19.426 5.61066 18.7862 6.25036 18.0001 6.25036C17.2139 6.25036 16.5742 5.61066 16.5742 4.82443C16.5742 4.03819 17.2139 3.39856 18.0001 3.39856Z" fill="#F2F2F2"/>
<path d="M22.2615 4.89026H22.9718C23.2631 4.89026 23.4991 4.65415 23.4991 4.36292C23.4991 4.07168 23.2631 3.83557 22.9718 3.83557H22.2615C21.9702 3.83557 21.7341 4.07168 21.7341 4.36292C21.7341 4.65415 21.9702 4.89026 22.2615 4.89026Z" fill="#F2F2F2"/>
<path d="M13.0281 4.89026H13.7384C14.0297 4.89026 14.2657 4.65415 14.2657 4.36292C14.2657 4.07168 14.0297 3.83557 13.7384 3.83557H13.0281C12.7368 3.83557 12.5007 4.07168 12.5007 4.36292C12.5007 4.65415 12.7368 4.89026 13.0281 4.89026Z" fill="#F2F2F2"/>
<path d="M22.2615 7.05652H22.9718C23.2631 7.05652 23.4991 6.82041 23.4991 6.52917C23.4991 6.23794 23.2631 6.00183 22.9718 6.00183H22.2615C21.9702 6.00183 21.7341 6.23794 21.7341 6.52917C21.7341 6.82041 21.9702 7.05652 22.2615 7.05652Z" fill="#F2F2F2"/>
<path d="M13.0281 7.05652H13.7384C14.0297 7.05652 14.2657 6.82041 14.2657 6.52917C14.2657 6.23794 14.0297 6.00183 13.7384 6.00183H13.0281C12.7368 6.00183 12.5007 6.23794 12.5007 6.52917C12.5007 6.82041 12.7368 7.05652 13.0281 7.05652Z" fill="#F2F2F2"/>
</g>
<defs>
<clipPath id="clip0">
<rect width="36" height="36" fill="white"/>
</clipPath>
</defs>
</svg>
