<svg width="24" height="24" viewBox="0 0 24 24" fill="none" xmlns="http://www.w3.org/2000/svg">
<path d="M12 7.04728C12.2652 7.04728 12.5196 6.9419 12.7072 6.75432C12.8948 6.56675 13.0002 6.31234 13.0002 6.04708C13.0002 5.78181 12.8948 5.5274 12.7072 5.33983C12.5196 5.15225 12.2652 5.04688 12 5.04688C11.7347 5.04688 11.4803 5.15225 11.2927 5.33983C11.1051 5.5274 10.9998 5.78181 10.9998 6.04708C10.9998 6.31234 11.1051 6.56675 11.2927 6.75432C11.4803 6.9419 11.7347 7.04728 12 7.04728Z" fill="#D3D3FD"/>
<path d="M19.2001 16.0066V9.59856H19.3117C20.3833 9.59856 20.8237 8.22216 19.9477 7.60176L12.9265 2.61936C12.656 2.42736 12.3324 2.32422 12.0007 2.32422C11.669 2.32422 11.3454 2.42736 11.0749 2.61936L4.05249 7.60176C3.18009 8.22216 3.61689 9.59856 4.68849 9.59856H4.80009V16.0066C4.07889 16.4698 3.60009 17.2786 3.60009 18.199V19.7986C3.60009 19.9577 3.66331 20.1103 3.77583 20.2228C3.88835 20.3353 4.04096 20.3986 4.20009 20.3986H19.8001C19.9592 20.3986 20.1118 20.3353 20.2244 20.2228C20.3369 20.1103 20.4001 19.9577 20.4001 19.7986V18.199C20.4001 17.2786 19.9225 16.4698 19.2001 16.0078V16.0066ZM11.7697 3.59856C11.8372 3.55072 11.9179 3.52503 12.0007 3.52503C12.0835 3.52503 12.1642 3.55072 12.2317 3.59856L18.9985 8.39856H5.00289L11.7697 3.59856ZM18.0001 9.59856V15.6058C17.9338 15.6008 17.8674 15.5984 17.8009 15.5986H15.6001V9.59856H18.0001ZM6.00009 15.6058V9.59856H8.40009V15.5986H6.20049C6.13363 15.5984 6.06678 15.6008 6.00009 15.6058V15.6058ZM6.20049 16.7986H17.8009C18.5737 16.7986 19.2001 17.425 19.2001 18.199V19.1986H4.80009V18.199C4.80009 17.425 5.42769 16.7986 6.20049 16.7986ZM11.4001 15.5986H9.60009V9.59856H11.4001V15.5986ZM12.6001 15.5986V9.59856H14.4001V15.5986H12.6001Z" fill="#D3D3FD"/>
</svg>
