<svg width="98" height="98" viewBox="0 0 98 98" fill="none" xmlns="http://www.w3.org/2000/svg">
<circle cx="49" cy="49" r="42" fill="#46546B"/>
<circle cx="49" cy="49" r="47.5" stroke="#293852" stroke-width="3"/>
<path d="M63 57.3333V40.6667C63 37.0533 56.8187 34 49.5 34C42.1813 34 36 37.0533 36 40.6667V57.3333C36 60.9467 42.1813 64 49.5 64C56.8187 64 63 60.9467 63 57.3333ZM49.5 37.3333C55.7286 37.3333 59.5086 39.845 59.625 40.6567C59.5086 41.4883 55.7286 44 49.5 44C43.2714 44 39.4914 41.4883 39.375 40.6767C39.4914 39.845 43.2714 37.3333 49.5 37.3333ZM39.375 45.0117C41.8708 46.4233 45.5124 47.3333 49.5 47.3333C53.4876 47.3333 57.1292 46.4233 59.625 45.0117V48.99C59.5086 49.8217 55.7286 52.3333 49.5 52.3333C43.2714 52.3333 39.4914 49.8217 39.375 49V45.0117ZM39.375 57.3333V53.345C41.8708 54.7567 45.5124 55.6667 49.5 55.6667C53.4876 55.6667 57.1292 54.7567 59.625 53.345V57.3233C59.5086 58.155 55.7286 60.6667 49.5 60.6667C43.2714 60.6667 39.4914 58.155 39.375 57.3333Z" fill="#F2F2F2"/>
</svg>
