<svg width="98" height="98" viewBox="0 0 98 98" fill="none" xmlns="http://www.w3.org/2000/svg">
<circle cx="49" cy="49" r="42" fill="#46546B"/>
<circle cx="49" cy="49" r="47.5" stroke="#293852" stroke-width="3"/>
<path d="M36.8304 34C35.8145 34 34.8402 34.4036 34.1219 35.1219C33.4036 35.8402 33 36.8145 33 37.8304V56.0982C33 57.1141 33.4036 58.0884 34.1219 58.8067C34.8402 59.525 35.8145 59.9286 36.8304 59.9286H44.7975V62.2869H41.2641C41.1063 62.2819 40.9491 62.3087 40.8018 62.3656C40.6545 62.4226 40.5202 62.5085 40.4068 62.6184C40.2934 62.7283 40.2032 62.8599 40.1416 63.0053C40.08 63.1507 40.0483 63.307 40.0483 63.4649C40.0483 63.6228 40.08 63.7791 40.1416 63.9245C40.2032 64.0699 40.2934 64.2014 40.4068 64.3113C40.5202 64.4212 40.6545 64.5072 40.8018 64.5641C40.9491 64.6211 41.1063 64.6479 41.2641 64.6429H57.7547C57.9125 64.6479 58.0698 64.6211 58.217 64.5641C58.3643 64.5072 58.4987 64.4212 58.6121 64.3113C58.7255 64.2014 58.8157 64.0699 58.8772 63.9245C58.9388 63.7791 58.9706 63.6228 58.9706 63.4649C58.9706 63.307 58.9388 63.1507 58.8772 63.0053C58.8157 62.8599 58.7255 62.7283 58.6121 62.6184C58.4987 62.5085 58.3643 62.4226 58.217 62.3656C58.0698 62.3087 57.9125 62.2819 57.7547 62.2869H54.2214V59.9286H62.1696C63.1855 59.9286 64.1598 59.525 64.8781 58.8067C65.5964 58.0884 66 57.1141 66 56.0982V37.8304C66 36.8145 65.5964 35.8402 64.8781 35.1219C64.1598 34.4036 63.1855 34 62.1696 34H36.8304ZM51.8642 59.9286V62.2869H47.1546V59.9286H51.8642ZM35.3571 37.8304C35.3571 37.0171 36.0171 36.3571 36.8304 36.3571H62.1696C62.9829 36.3571 63.6429 37.0171 63.6429 37.8304V56.0982C63.6429 56.9114 62.9829 57.5714 62.1696 57.5714H36.8304C36.0171 57.5714 35.3571 56.9114 35.3571 56.0982V37.8304Z" fill="#F2F2F2"/>
</svg>
