<svg width="42" height="37" viewBox="0 0 42 37" fill="none" xmlns="http://www.w3.org/2000/svg">
<path d="M34.5 30.5H16.5V28.8163C16.5 28.7652 16.524 28.6953 16.6087 28.6259C16.6945 28.5556 16.8301 28.5 16.9967 28.5H34.0033C34.1699 28.5 34.3055 28.5556 34.3913 28.6259C34.476 28.6953 34.5 28.7652 34.5 28.8163V30.5Z" stroke="#313B4E"/>
<path d="M12.0411 33.3002L12.0412 33.3002C12.8064 31.6291 14.4757 30.5576 16.3137 30.5576H34.3864C36.2244 30.5576 37.8937 31.6291 38.659 33.3002L39.1136 33.092L38.659 33.3002L39.6365 35.4345C39.7902 35.7701 39.5449 36.1523 39.1758 36.1523H11.5243C11.1552 36.1523 10.9099 35.7702 11.0636 35.4345C11.0636 35.4345 11.0636 35.4345 11.0636 35.4345L12.0411 33.3002Z" stroke="#313B4E"/>
<path d="M38.5427 25.9758C38.5704 26.0234 38.6136 26.0547 38.6634 26.0677C38.7129 26.0807 38.7656 26.0748 38.8126 26.0476L38.5427 25.9758ZM38.5427 25.9758L38.1104 26.2269L38.5429 25.976C38.4881 25.8816 38.5202 25.7609 38.6144 25.7061C38.6145 25.7061 38.6145 25.7061 38.6145 25.7061L39.5346 25.172L38.5427 25.9758ZM39.7329 25.5135L38.8126 26.0475L39.5347 25.172C39.629 25.1174 39.7498 25.1494 39.8046 25.2437L40.237 24.9926L39.8045 25.2435C39.8592 25.3379 39.8271 25.4587 39.7329 25.5134C39.7329 25.5134 39.7329 25.5134 39.7329 25.5135Z" fill="#FCC16D" stroke="#313B4E"/>
<path d="M37.0578 24.2666L37.0579 24.2665L37.5758 23.3236C37.5758 23.3236 37.5758 23.3236 37.5758 23.3235C37.6282 23.228 37.5933 23.1081 37.4978 23.0556L37.0578 24.2666ZM37.0578 24.2666C37.0137 24.3469 36.9209 24.3851 36.8354 24.3627C36.8206 24.3588 36.8054 24.353 36.79 24.3445L37.0578 24.2666ZM36.7899 24.3444C36.6945 24.292 36.6596 24.172 36.712 24.0765C36.712 24.0765 36.712 24.0765 36.712 24.0765L37.2299 23.1336L36.7899 24.3444ZM37.2299 23.1336C37.2824 23.0381 37.4025 23.0032 37.4978 23.0556L37.2299 23.1336Z" fill="#FCC16D" stroke="#313B4E"/>
<path d="M39.4524 28.4044L39.4524 28.4043C39.4542 28.2952 39.544 28.2085 39.6529 28.2103L39.653 28.2103L40.729 28.2282L40.7291 28.2282C40.8381 28.23 40.9248 28.3196 40.923 28.4288C40.9212 28.5379 40.8314 28.6247 40.7225 28.6228L40.7224 28.6228L39.647 28.6049C39.6469 28.6049 39.6468 28.6049 39.6468 28.6049C39.629 28.6046 39.6131 28.6022 39.599 28.5985C39.5131 28.576 39.4509 28.4965 39.4524 28.4044Z" fill="#FCC16D" stroke="#313B4E"/>
<path d="M0.636211 28.7206C0.868369 28.3608 1.14537 28.0426 1.45963 27.7749L4.65386 24.9889C4.67874 24.9515 4.70759 24.9159 4.74061 24.8829C4.79612 24.8275 4.85901 24.7842 4.92587 24.7518L6.85758 23.067L15.7987 15.2675C15.4327 14.8849 15.2311 14.3845 15.2311 13.8524C15.2311 13.3043 15.4445 12.7892 15.8323 12.4015C16.0014 12.2325 16.1937 12.0997 16.3991 12.0024L15.5719 11.1752C15.3407 11.2367 15.1032 11.2681 14.8654 11.2681C14.1653 11.2681 13.4651 11.0016 12.9322 10.4687C12.4155 9.95204 12.131 9.26534 12.131 8.53503C12.131 7.80471 12.4155 7.11801 12.9321 6.6014L18.7325 0.801137C19.2491 0.284524 19.9359 0 20.6664 0C21.3966 0 22.0832 0.284524 22.5997 0.801137C23.3137 1.51511 23.5487 2.52886 23.3063 3.44095L31.5593 11.6939C31.7874 11.6333 32.0247 11.6013 32.2671 11.6013C32.9977 11.6013 33.6842 11.8856 34.2004 12.4017C35.2665 13.4679 35.2665 15.2027 34.2004 16.269L28.4 22.0694C27.8669 22.6025 27.1666 22.869 26.4664 22.869C25.7661 22.869 25.0659 22.6025 24.5327 22.0694C23.8187 21.3553 23.5837 20.3417 23.8261 19.4296L23.0006 18.604C22.9015 18.8112 22.7668 19.0023 22.5996 19.1695C22.2123 19.5568 21.6973 19.7702 21.1493 19.7702C20.6178 19.7702 20.1177 19.569 19.7345 19.2034L10.2112 30.145C10.185 30.186 10.1544 30.2251 10.1185 30.2609C10.1063 30.2731 10.0933 30.2843 10.0804 30.2953L7.2426 33.5558C7.17205 33.6391 7.09665 33.721 7.01837 33.7993C6.23898 34.5784 5.20951 35.0012 4.1287 35.0012C3.93817 35.0012 3.74587 34.9881 3.5533 34.9614C2.2661 34.7833 1.15365 34.0132 0.501333 32.8485C-0.213258 31.5719 -0.160073 29.9513 0.636211 28.7206ZM21.6329 1.76792C21.3745 1.50958 21.0312 1.36725 20.6664 1.36725C20.301 1.36725 19.9575 1.50958 19.6992 1.76792L13.8988 7.56825C13.6405 7.82659 13.4982 8.16997 13.4982 8.5351C13.4982 8.90022 13.6405 9.2436 13.8989 9.50194C14.4318 10.035 15.299 10.035 15.8319 9.50194L21.6325 3.70134C21.6327 3.7012 21.6327 3.70113 21.6329 3.701C22.1659 3.16804 22.1659 2.30087 21.6329 1.76792ZM25.4995 21.1026C26.0326 21.6357 26.9002 21.6358 27.4333 21.1026L33.2336 15.3023C33.7667 14.7691 33.7667 13.9017 33.2336 13.3685C32.9757 13.1106 32.6324 12.9685 32.2671 12.9685C31.9018 12.9685 31.5587 13.1105 31.3009 13.3682L25.4996 19.1696C24.9665 19.7025 24.9665 20.5697 25.4995 21.1026ZM22.6213 16.2913L24.5328 18.2028L30.3337 12.4019L22.5997 4.66771L16.7988 10.4687L18.7138 12.3837C18.72 12.3896 18.7261 12.3953 18.7327 12.4018L22.5977 16.2669C22.6057 16.2748 22.6134 16.283 22.6213 16.2913ZM20.1804 17.7174C20.1817 17.7187 20.183 17.72 20.1844 17.7214L20.6658 18.2028C20.7949 18.3319 20.9666 18.403 21.1494 18.403C21.3321 18.403 21.5039 18.3319 21.6329 18.2027C21.7622 18.0735 21.8334 17.9017 21.8334 17.7188C21.8334 17.5398 21.7651 17.3715 21.6411 17.2444L17.7581 13.3614C17.4919 13.1026 17.0617 13.1058 16.7987 13.3685C16.6695 13.4977 16.5983 13.6696 16.5983 13.8524C16.5983 14.0352 16.6693 14.2066 16.7988 14.3357L17.2774 14.8143C17.2806 14.8175 17.2839 14.8208 17.2871 14.8241L20.1804 17.7174ZM18.7647 18.2352L16.7668 16.2373L8.30748 23.6159L11.3943 26.7028L18.7647 18.2352ZM10.4946 27.7366L7.2748 24.5168L6.24205 25.4176L9.59488 28.7705L10.4946 27.7366ZM1.69418 32.1806C2.13539 32.9683 2.88129 33.4882 3.74068 33.6072C4.59808 33.7258 5.4405 33.4434 6.0518 32.8324C6.10437 32.7799 6.15469 32.7251 6.20158 32.6696C6.20377 32.667 6.20596 32.6644 6.20821 32.6619L8.69523 29.8042L5.20937 26.3183L2.35525 28.8079C2.35313 28.8098 2.35094 28.8116 2.34868 28.8135C2.13505 28.9952 1.94548 29.2133 1.78463 29.4626C1.26767 30.2614 1.23144 31.3538 1.69418 32.1806Z" fill="#313B4E"/>
</svg>
