<svg width="164" height="37" viewBox="0 0 164 37" fill="none" xmlns="http://www.w3.org/2000/svg">
<rect width="164" height="37" rx="4" fill="#C8AC48"/>
<mask id="mask0" mask-type="alpha" maskUnits="userSpaceOnUse" x="0" y="0" width="164" height="37">
<rect width="164" height="37" rx="4" fill="#A68C2F"/>
</mask>
<g mask="url(#mask0)">
<path d="M117.326 0L47.1581 37H164V0H117.326Z" fill="#B89D3B"/>
</g>
<path d="M72.896 18.456C72.896 19.3435 72.704 20.1328 72.32 20.824C71.9445 21.5067 71.3984 22.04 70.6816 22.424C69.9733 22.808 69.1371 23 68.1728 23H64.7552V13.9504H68.1728C69.1456 13.9504 69.9861 14.1381 70.6944 14.5136C71.4027 14.8891 71.9445 15.4181 72.32 16.1008C72.704 16.7835 72.896 17.5685 72.896 18.456ZM67.9808 21.0416C68.8341 21.0416 69.4955 20.8155 69.9648 20.3632C70.4427 19.9109 70.6816 19.2752 70.6816 18.456C70.6816 17.6368 70.4427 17.0011 69.9648 16.5488C69.4955 16.0965 68.8341 15.8704 67.9808 15.8704H66.944V21.0416H67.9808ZM77.4835 15.768C78.1918 15.768 78.8232 15.9173 79.3779 16.216C79.9411 16.5061 80.3806 16.9285 80.6963 17.4832C81.0206 18.0379 81.1827 18.6864 81.1827 19.4288C81.1827 20.1712 81.0206 20.8197 80.6963 21.3744C80.3806 21.9291 79.9411 22.3557 79.3779 22.6544C78.8232 22.9445 78.1918 23.0896 77.4835 23.0896C76.7752 23.0896 76.1395 22.9445 75.5763 22.6544C75.0131 22.3557 74.5694 21.9291 74.2451 21.3744C73.9294 20.8197 73.7715 20.1712 73.7715 19.4288C73.7715 18.6864 73.9294 18.0379 74.2451 17.4832C74.5694 16.9285 75.0131 16.5061 75.5763 16.216C76.1395 15.9173 76.7752 15.768 77.4835 15.768ZM77.4835 17.6624C77.0654 17.6624 76.7112 17.816 76.4211 18.1232C76.1395 18.4219 75.9987 18.8571 75.9987 19.4288C75.9987 20.0005 76.1395 20.4357 76.4211 20.7344C76.7112 21.0331 77.0654 21.1824 77.4835 21.1824C77.9016 21.1824 78.2515 21.0331 78.5331 20.7344C78.8147 20.4357 78.9555 20.0005 78.9555 19.4288C78.9555 18.8571 78.8147 18.4219 78.5331 18.1232C78.2515 17.816 77.9016 17.6624 77.4835 17.6624ZM86.8489 15.7808C87.6681 15.7808 88.3166 16.0539 88.7945 16.6C89.2809 17.1461 89.5241 17.8971 89.5241 18.8528V23H87.3353V19.1088C87.3353 18.6309 87.2073 18.2597 86.9513 17.9952C86.7038 17.7221 86.371 17.5856 85.9529 17.5856C85.5092 17.5856 85.155 17.7264 84.8905 18.008C84.6345 18.2896 84.5065 18.6907 84.5065 19.2112V23H82.3177V15.8576H84.5065V17.1632C84.7113 16.7365 85.0142 16.3995 85.4153 16.152C85.8249 15.9045 86.3028 15.7808 86.8489 15.7808ZM97.7517 19.2368C97.7517 19.416 97.7304 19.6123 97.6877 19.8256H92.7341C92.7597 20.3632 92.8962 20.7515 93.1437 20.9904C93.3912 21.2208 93.7069 21.336 94.0909 21.336C94.4152 21.336 94.684 21.2549 94.8973 21.0928C95.1106 20.9307 95.2514 20.7216 95.3197 20.4656H97.6365C97.5426 20.9691 97.3378 21.4213 97.0221 21.8224C96.7064 22.2149 96.3053 22.5264 95.8189 22.7568C95.3325 22.9787 94.7906 23.0896 94.1933 23.0896C93.4936 23.0896 92.8706 22.9445 92.3245 22.6544C91.7869 22.3557 91.3645 21.9291 91.0573 21.3744C90.7501 20.8197 90.5965 20.1712 90.5965 19.4288C90.5965 18.6779 90.7458 18.0293 91.0445 17.4832C91.3517 16.9285 91.7784 16.5061 92.3245 16.216C92.8706 15.9173 93.4936 15.768 94.1933 15.768C94.9016 15.768 95.5245 15.9131 96.0621 16.2032C96.5997 16.4933 97.0136 16.9029 97.3037 17.432C97.6024 17.9525 97.7517 18.5541 97.7517 19.2368ZM95.5373 18.904C95.5458 18.4347 95.4178 18.0848 95.1533 17.8544C94.8973 17.6155 94.5773 17.496 94.1933 17.496C93.7922 17.496 93.4594 17.6155 93.1949 17.8544C92.9304 18.0933 92.781 18.4432 92.7469 18.904H95.5373Z" fill="#F2F2F2"/>
</svg>
