<svg width="41" height="41" viewBox="0 0 41 41" fill="none" xmlns="http://www.w3.org/2000/svg">
<mask id="path-1-inside-1" fill="white">
<path d="M41 20.5C41 9.17853 31.8215 0 20.5 0C9.47168 0 0.480383 8.70977 0.0211833 19.6253C0.0157166 19.7593 0.01435 19.8953 0.0116166 20.0299C0.00819997 20.187 0 20.3428 0 20.5V20.569C0 31.8529 9.17853 41 20.5 41C31.8215 41 41 31.8529 41 20.569L40.9986 20.5355L41 20.5ZM24.5932 39.1899C24.2344 38.9951 23.89 38.676 23.7499 38.2414C23.4964 37.4542 23.6925 36.8433 23.9836 36.1326C24.216 35.5634 23.9037 34.906 24.0581 34.3102C24.3595 33.1506 24.723 31.8939 24.6109 30.6482C24.5412 29.8835 24.3718 29.8487 23.806 29.4072C23.2094 28.9392 23.2094 28.277 22.8104 27.6853C22.4489 27.1475 23.4219 25.1043 23.1507 24.9799C22.8466 24.8399 22.155 25.023 21.9364 24.7326C21.7013 24.4196 21.5373 24.0499 21.2141 23.8073C21.0057 23.6509 20.0839 23.1274 19.8379 23.1643C18.599 23.3495 17.2569 22.1414 16.4663 21.3535C15.9217 20.813 15.6948 20.2068 15.2957 19.5816C14.9582 19.052 14.447 19.0062 14.1962 18.3496C13.9332 17.6635 14.0897 16.7847 14.0097 16.0631C13.9229 15.2875 13.5375 15.0402 13.0558 14.447C12.0253 13.174 11.6461 11.2743 9.69103 11.2743C8.64075 11.2743 8.71523 13.5621 7.86927 13.2553C6.9126 12.9089 5.4325 14.5475 5.45368 14.3268C5.56575 13.1829 6.7404 12.6266 6.8552 12.2857C7.23035 11.1664 5.17898 11.4342 5.44207 10.5008C5.57053 10.0416 6.8757 9.70743 6.60578 9.43342C6.52447 9.35005 5.52612 8.64963 5.57532 8.61478C5.7605 8.48495 6.56547 8.89632 6.39053 8.36195C6.33177 8.18428 6.23678 8.02097 6.14658 7.85628C6.56147 7.38514 6.99934 6.93473 7.45858 6.5067C8.15148 6.44998 8.87035 6.49303 9.1307 6.5436C10.7816 6.86887 11.3556 7.70458 13.0066 7.08617C13.8006 6.7896 16.7273 7.30415 17.1469 8.13645C17.3751 8.59155 18.2252 7.86107 18.5566 7.81187C18.9119 7.75857 19.7148 8.30592 19.9595 7.9704C20.6039 7.08822 19.5467 6.72195 20.7952 7.40118C21.6323 7.85697 23.2682 5.85275 22.7502 8.2082C22.3764 9.90628 21.0029 9.94387 19.9957 11.0502C19.0042 12.1394 21.9576 12.436 22.0334 13.42C22.2521 16.2531 23.7629 13.189 23.3584 12.1818C22.576 10.2309 24.2488 10.7666 24.9225 12.0062C25.2963 12.6943 25.5806 12.1148 26.0384 11.875C26.4095 11.6816 26.5085 12.7291 26.5885 12.9116C26.8516 13.5177 27.716 13.6988 27.5698 14.4792C27.4071 15.3395 26.7956 15.0812 26.1976 15.2267C25.53 15.3887 26.3056 15.9504 26.2086 16.1554C26.1033 16.3795 25.2984 16.4724 25.0838 16.5995C24.4524 16.9713 24.8385 17.6963 24.3444 18.0858C24.0055 18.3536 23.6638 18.1794 23.5982 18.681C23.521 19.272 22.4318 19.462 22.5732 20.0271C22.6122 20.1823 22.9258 21.3412 22.7284 21.4027C22.6375 21.4321 21.9193 20.3948 21.7232 20.2909C21.335 20.0852 19.5707 20.2533 19.3438 21.4211C19.1969 22.1762 20.4119 23.3686 20.7214 22.3286C21.1048 21.0487 21.2872 23.0741 21.1949 23.1534C21.3781 23.3133 22.4496 22.8903 22.1318 23.6317C21.9972 23.9454 22.2637 24.7633 22.7393 24.5112C22.9381 24.4059 23.4506 24.723 23.5402 24.5528C23.6688 24.3569 23.8427 24.1947 24.0472 24.08C24.5262 23.7998 25.243 24.0629 25.7678 24.0937C26.0883 24.1121 28.715 25.5451 28.7294 25.8327C28.7868 26.909 30.7725 26.7689 31.0773 27.1536C31.8966 28.1964 31.6445 27.6668 31.0466 29.0027C30.7452 29.6751 31.0076 30.4999 30.2778 30.9871C29.9266 31.2208 29.4981 31.104 29.1859 31.4347C28.9043 31.7333 29.015 32.09 28.8442 32.4351C28.6385 32.8458 25.8744 35.3297 25.692 35.9304C25.6011 36.2317 24.7763 36.4941 25.4719 36.7832C25.8765 36.9021 24.5761 38.1314 25.2013 38.6405C25.3537 38.7641 25.4535 38.8687 25.5287 38.9623C25.2164 39.0457 24.9068 39.1215 24.5932 39.1899ZM22.9559 1.52862C22.9293 1.6277 22.9696 1.74455 23.1411 1.85867C23.5279 2.11492 23.0304 2.68413 22.4967 2.31718C21.9644 1.95023 20.7672 2.48187 20.8499 2.75725C20.9312 3.03263 21.3009 3.14197 21.8721 2.92262C22.442 2.70258 22.6771 2.95542 22.7728 3.21645C22.8384 3.39343 22.7728 3.49183 22.7543 3.73032C22.7372 3.9688 22.0737 3.80343 21.5223 3.84102C20.9694 3.87792 20.3811 3.73032 20.3982 3.41803C20.4166 3.10643 19.8098 2.53722 19.4477 2.29942C19.0862 2.06162 19.6062 1.54775 20.0859 1.93247C20.5635 2.31787 20.5827 1.85935 21.1348 1.71312C21.4485 1.62975 21.3227 1.5047 21.2161 1.3858C21.8038 1.4063 22.3833 1.4555 22.9559 1.52862ZM25.3592 7.5891C25.7726 7.70117 26.4908 8.22392 26.4908 8.47128C26.4908 8.71933 26.1648 9.02957 26.0206 8.99403C24.9799 8.74052 24.1025 7.71347 23.6194 7.15108C22.7762 6.1705 22.8295 7.011 21.4936 6.58665C21.1519 6.47732 20.61 5.41747 20.9688 4.89472C21.3275 4.37197 21.7416 4.28928 22.0723 4.428C22.4031 4.56467 23.3693 3.98725 23.5914 4.67537C23.8114 5.36348 24.4189 6.24157 24.9717 6.47663C25.5252 6.71033 24.9444 7.47703 25.3592 7.5891ZM25.6906 10.7823C25.856 11.1124 24.6964 10.3969 24.4203 10.0669C24.1456 9.7375 23.7301 8.99335 24.0629 8.6633C24.3936 8.33393 25.1357 9.35005 25.5259 9.57213C26.2974 10.0129 25.5252 10.4529 25.6906 10.7823ZM19.818 5.78373C19.898 5.67372 20.0674 5.9491 20.2185 6.22448C20.3695 6.49987 20.1611 6.888 19.818 6.82923C19.475 6.77183 19.626 6.05297 19.818 5.78373ZM19.818 3.01487C19.818 3.01487 20.1413 3.80343 19.818 3.67497C19.4948 3.5465 19.4791 3.21645 19.818 3.01487ZM19.8836 5.50903C19.7914 5.28968 19.7702 4.38837 19.9943 4.11503C20.3251 3.71187 20.8594 4.50043 20.5 4.81203C20.1413 5.12432 19.9752 5.72975 19.8836 5.50903ZM15.731 6.47595C15.1304 6.4329 15.1174 5.91357 15.034 5.63818C14.9507 5.3628 14.4532 6.16093 13.9503 5.63818C13.4473 5.11543 14.0678 4.428 13.9571 4.01458C13.8464 3.60185 15.1434 4.01458 15.3374 4.01458C15.5315 4.01458 16.0556 4.86738 16.193 4.85303C16.3317 4.83937 17.0765 5.52748 17.0765 5.2521C17.0765 4.9774 17.1899 4.50863 17.712 4.45397C18.5129 4.37128 17.7947 5.33478 17.7667 5.70993C17.74 6.08508 18.3755 6.73767 18.6085 7.01305C18.8436 7.28843 18.0161 7.48182 17.8774 7.31577C17.74 7.1504 17.3806 7.31577 17.0765 7.5358C16.7738 7.75583 15.9449 7.23308 15.5588 7.06772C15.172 6.90303 16.3317 6.51832 15.731 6.47595ZM17.8774 2.13405C18.4111 2.31787 18.7144 2.48255 18.9768 2.13405C19.2304 1.79785 19.4238 2.86727 19.2399 3.16042C19.0554 3.45493 18.7062 3.38182 18.6502 3.16042C18.5955 2.94175 17.3437 1.95023 17.8774 2.13405ZM18.6502 5.45437C18.4671 5.2152 18.4486 4.9405 18.6502 4.73892C18.8532 4.53733 18.7876 4.29885 19.1484 4.22573C19.326 4.18883 19.3499 4.46353 19.3499 4.72047C19.3499 4.9774 19.5713 5.30745 19.3499 5.70993C19.1292 6.11242 18.8347 5.69217 18.6502 5.45437ZM20.157 1.37555C20.1488 1.42612 20.1153 1.45618 20.0312 1.44798C19.9734 1.43818 19.9184 1.41604 19.87 1.38307C19.9663 1.37965 20.0606 1.37692 20.157 1.37555ZM15.9825 2.1525C16.4055 2.1525 16.3508 2.43813 16.7007 2.64382C17.0505 2.84882 16.866 1.58328 17.1052 2.06025C17.3444 2.53653 18.0543 3.19732 17.7127 3.3251C17.4188 3.43648 16.1861 3.91208 16.0754 3.83008C15.9647 3.74808 15.8178 3.39958 15.5226 3.3251C15.2274 3.25198 14.9151 2.55498 14.7122 2.57343C14.635 2.58027 14.6281 2.4477 14.6787 2.2714C15.0336 2.15714 15.3918 2.05346 15.7529 1.96048C15.7925 2.06845 15.8527 2.1525 15.9825 2.1525ZM25.2205 22.6696C24.7797 23.1247 24.0205 22.3525 23.4964 22.3798C22.9723 22.4072 22.7092 21.8571 22.2541 21.9125C21.7977 21.9664 22.3785 21.3337 23.0133 21.6651C23.6468 21.9951 25.5799 22.2972 25.2205 22.6696ZM34.056 6.99802C33.9275 7.16202 33.7813 7.27682 33.6412 7.39777C33.2278 7.75583 32.4549 7.7285 32.3442 7.97587C32.2335 8.22323 31.9575 8.99335 30.9912 8.99677C30.025 8.9995 30.301 10.4529 30.2184 10.8677C30.1357 11.2825 29.9157 11.7732 29.6389 11.4151C29.3628 11.0577 29.2521 11.1944 28.398 10.1489C27.5438 9.10337 27.8718 8.52595 28.1485 8.22323C28.4246 7.9212 28.5353 7.20507 28.1485 7.31508C27.7618 7.4251 27.5411 7.17705 27.6237 6.8347C27.7064 6.49235 28.1205 6.24225 27.6237 5.87667C27.127 5.51177 27.4023 4.20592 27.0163 3.01418C26.6295 1.82177 26.1047 2.66568 25.2492 2.71147C24.3936 2.75725 24.2549 2.11492 24.6417 1.82108C28.2105 2.61029 31.4779 4.40704 34.056 6.99802Z"/>
</mask>
<path d="M41 20.5C41 9.17853 31.8215 0 20.5 0C9.47168 0 0.480383 8.70977 0.0211833 19.6253C0.0157166 19.7593 0.01435 19.8953 0.0116166 20.0299C0.00819997 20.187 0 20.3428 0 20.5V20.569C0 31.8529 9.17853 41 20.5 41C31.8215 41 41 31.8529 41 20.569L40.9986 20.5355L41 20.5ZM24.5932 39.1899C24.2344 38.9951 23.89 38.676 23.7499 38.2414C23.4964 37.4542 23.6925 36.8433 23.9836 36.1326C24.216 35.5634 23.9037 34.906 24.0581 34.3102C24.3595 33.1506 24.723 31.8939 24.6109 30.6482C24.5412 29.8835 24.3718 29.8487 23.806 29.4072C23.2094 28.9392 23.2094 28.277 22.8104 27.6853C22.4489 27.1475 23.4219 25.1043 23.1507 24.9799C22.8466 24.8399 22.155 25.023 21.9364 24.7326C21.7013 24.4196 21.5373 24.0499 21.2141 23.8073C21.0057 23.6509 20.0839 23.1274 19.8379 23.1643C18.599 23.3495 17.2569 22.1414 16.4663 21.3535C15.9217 20.813 15.6948 20.2068 15.2957 19.5816C14.9582 19.052 14.447 19.0062 14.1962 18.3496C13.9332 17.6635 14.0897 16.7847 14.0097 16.0631C13.9229 15.2875 13.5375 15.0402 13.0558 14.447C12.0253 13.174 11.6461 11.2743 9.69103 11.2743C8.64075 11.2743 8.71523 13.5621 7.86927 13.2553C6.9126 12.9089 5.4325 14.5475 5.45368 14.3268C5.56575 13.1829 6.7404 12.6266 6.8552 12.2857C7.23035 11.1664 5.17898 11.4342 5.44207 10.5008C5.57053 10.0416 6.8757 9.70743 6.60578 9.43342C6.52447 9.35005 5.52612 8.64963 5.57532 8.61478C5.7605 8.48495 6.56547 8.89632 6.39053 8.36195C6.33177 8.18428 6.23678 8.02097 6.14658 7.85628C6.56147 7.38514 6.99934 6.93473 7.45858 6.5067C8.15148 6.44998 8.87035 6.49303 9.1307 6.5436C10.7816 6.86887 11.3556 7.70458 13.0066 7.08617C13.8006 6.7896 16.7273 7.30415 17.1469 8.13645C17.3751 8.59155 18.2252 7.86107 18.5566 7.81187C18.9119 7.75857 19.7148 8.30592 19.9595 7.9704C20.6039 7.08822 19.5467 6.72195 20.7952 7.40118C21.6323 7.85697 23.2682 5.85275 22.7502 8.2082C22.3764 9.90628 21.0029 9.94387 19.9957 11.0502C19.0042 12.1394 21.9576 12.436 22.0334 13.42C22.2521 16.2531 23.7629 13.189 23.3584 12.1818C22.576 10.2309 24.2488 10.7666 24.9225 12.0062C25.2963 12.6943 25.5806 12.1148 26.0384 11.875C26.4095 11.6816 26.5085 12.7291 26.5885 12.9116C26.8516 13.5177 27.716 13.6988 27.5698 14.4792C27.4071 15.3395 26.7956 15.0812 26.1976 15.2267C25.53 15.3887 26.3056 15.9504 26.2086 16.1554C26.1033 16.3795 25.2984 16.4724 25.0838 16.5995C24.4524 16.9713 24.8385 17.6963 24.3444 18.0858C24.0055 18.3536 23.6638 18.1794 23.5982 18.681C23.521 19.272 22.4318 19.462 22.5732 20.0271C22.6122 20.1823 22.9258 21.3412 22.7284 21.4027C22.6375 21.4321 21.9193 20.3948 21.7232 20.2909C21.335 20.0852 19.5707 20.2533 19.3438 21.4211C19.1969 22.1762 20.4119 23.3686 20.7214 22.3286C21.1048 21.0487 21.2872 23.0741 21.1949 23.1534C21.3781 23.3133 22.4496 22.8903 22.1318 23.6317C21.9972 23.9454 22.2637 24.7633 22.7393 24.5112C22.9381 24.4059 23.4506 24.723 23.5402 24.5528C23.6688 24.3569 23.8427 24.1947 24.0472 24.08C24.5262 23.7998 25.243 24.0629 25.7678 24.0937C26.0883 24.1121 28.715 25.5451 28.7294 25.8327C28.7868 26.909 30.7725 26.7689 31.0773 27.1536C31.8966 28.1964 31.6445 27.6668 31.0466 29.0027C30.7452 29.6751 31.0076 30.4999 30.2778 30.9871C29.9266 31.2208 29.4981 31.104 29.1859 31.4347C28.9043 31.7333 29.015 32.09 28.8442 32.4351C28.6385 32.8458 25.8744 35.3297 25.692 35.9304C25.6011 36.2317 24.7763 36.4941 25.4719 36.7832C25.8765 36.9021 24.5761 38.1314 25.2013 38.6405C25.3537 38.7641 25.4535 38.8687 25.5287 38.9623C25.2164 39.0457 24.9068 39.1215 24.5932 39.1899ZM22.9559 1.52862C22.9293 1.6277 22.9696 1.74455 23.1411 1.85867C23.5279 2.11492 23.0304 2.68413 22.4967 2.31718C21.9644 1.95023 20.7672 2.48187 20.8499 2.75725C20.9312 3.03263 21.3009 3.14197 21.8721 2.92262C22.442 2.70258 22.6771 2.95542 22.7728 3.21645C22.8384 3.39343 22.7728 3.49183 22.7543 3.73032C22.7372 3.9688 22.0737 3.80343 21.5223 3.84102C20.9694 3.87792 20.3811 3.73032 20.3982 3.41803C20.4166 3.10643 19.8098 2.53722 19.4477 2.29942C19.0862 2.06162 19.6062 1.54775 20.0859 1.93247C20.5635 2.31787 20.5827 1.85935 21.1348 1.71312C21.4485 1.62975 21.3227 1.5047 21.2161 1.3858C21.8038 1.4063 22.3833 1.4555 22.9559 1.52862ZM25.3592 7.5891C25.7726 7.70117 26.4908 8.22392 26.4908 8.47128C26.4908 8.71933 26.1648 9.02957 26.0206 8.99403C24.9799 8.74052 24.1025 7.71347 23.6194 7.15108C22.7762 6.1705 22.8295 7.011 21.4936 6.58665C21.1519 6.47732 20.61 5.41747 20.9688 4.89472C21.3275 4.37197 21.7416 4.28928 22.0723 4.428C22.4031 4.56467 23.3693 3.98725 23.5914 4.67537C23.8114 5.36348 24.4189 6.24157 24.9717 6.47663C25.5252 6.71033 24.9444 7.47703 25.3592 7.5891ZM25.6906 10.7823C25.856 11.1124 24.6964 10.3969 24.4203 10.0669C24.1456 9.7375 23.7301 8.99335 24.0629 8.6633C24.3936 8.33393 25.1357 9.35005 25.5259 9.57213C26.2974 10.0129 25.5252 10.4529 25.6906 10.7823ZM19.818 5.78373C19.898 5.67372 20.0674 5.9491 20.2185 6.22448C20.3695 6.49987 20.1611 6.888 19.818 6.82923C19.475 6.77183 19.626 6.05297 19.818 5.78373ZM19.818 3.01487C19.818 3.01487 20.1413 3.80343 19.818 3.67497C19.4948 3.5465 19.4791 3.21645 19.818 3.01487ZM19.8836 5.50903C19.7914 5.28968 19.7702 4.38837 19.9943 4.11503C20.3251 3.71187 20.8594 4.50043 20.5 4.81203C20.1413 5.12432 19.9752 5.72975 19.8836 5.50903ZM15.731 6.47595C15.1304 6.4329 15.1174 5.91357 15.034 5.63818C14.9507 5.3628 14.4532 6.16093 13.9503 5.63818C13.4473 5.11543 14.0678 4.428 13.9571 4.01458C13.8464 3.60185 15.1434 4.01458 15.3374 4.01458C15.5315 4.01458 16.0556 4.86738 16.193 4.85303C16.3317 4.83937 17.0765 5.52748 17.0765 5.2521C17.0765 4.9774 17.1899 4.50863 17.712 4.45397C18.5129 4.37128 17.7947 5.33478 17.7667 5.70993C17.74 6.08508 18.3755 6.73767 18.6085 7.01305C18.8436 7.28843 18.0161 7.48182 17.8774 7.31577C17.74 7.1504 17.3806 7.31577 17.0765 7.5358C16.7738 7.75583 15.9449 7.23308 15.5588 7.06772C15.172 6.90303 16.3317 6.51832 15.731 6.47595ZM17.8774 2.13405C18.4111 2.31787 18.7144 2.48255 18.9768 2.13405C19.2304 1.79785 19.4238 2.86727 19.2399 3.16042C19.0554 3.45493 18.7062 3.38182 18.6502 3.16042C18.5955 2.94175 17.3437 1.95023 17.8774 2.13405ZM18.6502 5.45437C18.4671 5.2152 18.4486 4.9405 18.6502 4.73892C18.8532 4.53733 18.7876 4.29885 19.1484 4.22573C19.326 4.18883 19.3499 4.46353 19.3499 4.72047C19.3499 4.9774 19.5713 5.30745 19.3499 5.70993C19.1292 6.11242 18.8347 5.69217 18.6502 5.45437ZM20.157 1.37555C20.1488 1.42612 20.1153 1.45618 20.0312 1.44798C19.9734 1.43818 19.9184 1.41604 19.87 1.38307C19.9663 1.37965 20.0606 1.37692 20.157 1.37555ZM15.9825 2.1525C16.4055 2.1525 16.3508 2.43813 16.7007 2.64382C17.0505 2.84882 16.866 1.58328 17.1052 2.06025C17.3444 2.53653 18.0543 3.19732 17.7127 3.3251C17.4188 3.43648 16.1861 3.91208 16.0754 3.83008C15.9647 3.74808 15.8178 3.39958 15.5226 3.3251C15.2274 3.25198 14.9151 2.55498 14.7122 2.57343C14.635 2.58027 14.6281 2.4477 14.6787 2.2714C15.0336 2.15714 15.3918 2.05346 15.7529 1.96048C15.7925 2.06845 15.8527 2.1525 15.9825 2.1525ZM25.2205 22.6696C24.7797 23.1247 24.0205 22.3525 23.4964 22.3798C22.9723 22.4072 22.7092 21.8571 22.2541 21.9125C21.7977 21.9664 22.3785 21.3337 23.0133 21.6651C23.6468 21.9951 25.5799 22.2972 25.2205 22.6696ZM34.056 6.99802C33.9275 7.16202 33.7813 7.27682 33.6412 7.39777C33.2278 7.75583 32.4549 7.7285 32.3442 7.97587C32.2335 8.22323 31.9575 8.99335 30.9912 8.99677C30.025 8.9995 30.301 10.4529 30.2184 10.8677C30.1357 11.2825 29.9157 11.7732 29.6389 11.4151C29.3628 11.0577 29.2521 11.1944 28.398 10.1489C27.5438 9.10337 27.8718 8.52595 28.1485 8.22323C28.4246 7.9212 28.5353 7.20507 28.1485 7.31508C27.7618 7.4251 27.5411 7.17705 27.6237 6.8347C27.7064 6.49235 28.1205 6.24225 27.6237 5.87667C27.127 5.51177 27.4023 4.20592 27.0163 3.01418C26.6295 1.82177 26.1047 2.66568 25.2492 2.71147C24.3936 2.75725 24.2549 2.11492 24.6417 1.82108C28.2105 2.61029 31.4779 4.40704 34.056 6.99802Z" stroke="#C8AC48" stroke-width="2" mask="url(#path-1-inside-1)"/>
</svg>
