<svg width="40" height="40" viewBox="0 0 40 40" fill="none" xmlns="http://www.w3.org/2000/svg">
<path d="M23.75 30H28.75V35H23.75V30Z" fill="white"/>
<path d="M32.5 30H37.5V35H32.5V30Z" fill="white"/>
<path d="M23.75 21.25H28.75V26.25H23.75V21.25Z" fill="white"/>
<path d="M32.5 21.25H37.5V26.25H32.5V21.25Z" fill="white"/>
<path d="M21.25 30H5V12.5H35V18.75H37.5V12.5C37.4993 11.8372 37.2357 11.2017 36.767 10.733C36.2983 10.2643 35.6628 10.0007 35 10H27.5V5C27.4993 4.33716 27.2357 3.70166 26.767 3.23296C26.2983 2.76427 25.6628 2.50066 25 2.5H15C14.3372 2.50066 13.7017 2.76427 13.233 3.23296C12.7643 3.70166 12.5007 4.33716 12.5 5V10H5C4.33716 10.0007 3.70166 10.2643 3.23296 10.733C2.76427 11.2017 2.50066 11.8372 2.5 12.5V30C2.50066 30.6628 2.76427 31.2983 3.23296 31.767C3.70166 32.2357 4.33716 32.4993 5 32.5H21.25V30ZM15 5H25V10H15V5Z" fill="white"/>
</svg>
