<svg width="488" height="413" viewBox="0 0 488 413" fill="none" xmlns="http://www.w3.org/2000/svg">
<circle cx="209.524" cy="85" r="77" fill="#F2F2F2"/>
<circle cx="209.524" cy="85" r="83.5" stroke="#F2F2F2"/>
<path d="M176.274 66.325V84H171.974V76.625H165.274V84H160.999V66.325H165.274V73.175H171.974V66.325H176.274ZM187.612 66.05C189.279 66.05 190.787 66.4417 192.137 67.225C193.504 67.9917 194.579 69.0667 195.362 70.45C196.146 71.8167 196.537 73.3667 196.537 75.1C196.537 76.8333 196.137 78.3917 195.337 79.775C194.554 81.1583 193.479 82.2417 192.112 83.025C190.762 83.7917 189.262 84.175 187.612 84.175C185.962 84.175 184.454 83.7917 183.087 83.025C181.737 82.2417 180.662 81.1583 179.862 79.775C179.079 78.3917 178.687 76.8333 178.687 75.1C178.687 73.3667 179.079 71.8167 179.862 70.45C180.662 69.0667 181.737 67.9917 183.087 67.225C184.454 66.4417 185.962 66.05 187.612 66.05ZM187.612 70.025C186.212 70.025 185.096 70.4833 184.262 71.4C183.446 72.3 183.037 73.5333 183.037 75.1C183.037 76.65 183.446 77.8833 184.262 78.8C185.096 79.7167 186.212 80.175 187.612 80.175C188.996 80.175 190.104 79.7167 190.937 78.8C191.771 77.8833 192.187 76.65 192.187 75.1C192.187 73.55 191.771 72.3167 190.937 71.4C190.121 70.4833 189.012 70.025 187.612 70.025ZM214.639 84H210.364L203.214 73.15V84H198.939V66.325H203.214L210.364 77.275V66.325H214.639V84ZM221.866 69.725V73.425H227.841V76.65H221.866V80.575H228.591V84H217.591V66.325H228.591V69.725H221.866ZM243.719 79.025C243.719 79.9583 243.477 80.8167 242.994 81.6C242.527 82.3833 241.827 83.0083 240.894 83.475C239.977 83.9417 238.861 84.175 237.544 84.175C235.561 84.175 233.927 83.6917 232.644 82.725C231.361 81.7583 230.661 80.4083 230.544 78.675H235.094C235.161 79.3417 235.394 79.8667 235.794 80.25C236.211 80.6333 236.736 80.825 237.369 80.825C237.919 80.825 238.352 80.675 238.669 80.375C238.986 80.075 239.144 79.675 239.144 79.175C239.144 78.725 238.994 78.35 238.694 78.05C238.411 77.75 238.052 77.5083 237.619 77.325C237.186 77.125 236.586 76.8917 235.819 76.625C234.702 76.2417 233.786 75.875 233.069 75.525C232.369 75.1583 231.761 74.625 231.244 73.925C230.744 73.2083 230.494 72.2833 230.494 71.15C230.494 70.1 230.761 69.1917 231.294 68.425C231.827 67.6583 232.561 67.075 233.494 66.675C234.444 66.2583 235.527 66.05 236.744 66.05C238.711 66.05 240.269 66.5167 241.419 67.45C242.586 68.3833 243.244 69.6667 243.394 71.3H238.769C238.686 70.7167 238.469 70.2583 238.119 69.925C237.786 69.575 237.327 69.4 236.744 69.4C236.244 69.4 235.836 69.5333 235.519 69.8C235.219 70.0667 235.069 70.4583 235.069 70.975C235.069 71.3917 235.202 71.75 235.469 72.05C235.752 72.3333 236.102 72.5667 236.519 72.75C236.936 72.9333 237.536 73.1667 238.319 73.45C239.452 73.8333 240.377 74.2167 241.094 74.6C241.811 74.9667 242.427 75.5083 242.944 76.225C243.461 76.9417 243.719 77.875 243.719 79.025ZM258.782 66.325V69.725H253.982V84H249.682V69.725H244.932V66.325H258.782Z" fill="#313B4E"/>
<path d="M174.604 96.72V97.904H171.42V108H169.964V97.904H166.78V96.72H174.604ZM182.036 108L179.092 103.392H177.508V108H176.052V96.72H179.764C181.044 96.72 182.004 97.0293 182.644 97.648C183.284 98.256 183.604 99.0667 183.604 100.08C183.604 100.997 183.348 101.739 182.836 102.304C182.324 102.859 181.582 103.205 180.612 103.344L183.684 108H182.036ZM177.508 102.336H179.636C181.289 102.336 182.116 101.611 182.116 100.16C182.116 98.7093 181.289 97.984 179.636 97.984H177.508V102.336ZM186.836 97.904V101.76H191.124V102.88H186.836V106.816H191.604V108H185.38V96.72H191.604V97.904H186.836ZM200.082 105.392H195.122L194.178 108H192.61L196.786 96.928H198.434L202.594 108H201.026L200.082 105.392ZM199.666 104.256L197.602 98.56L195.538 104.256H199.666ZM210.979 96.72V97.904H207.795V108H206.339V97.904H203.155V96.72H210.979ZM223.723 96.912V108H222.267V99.152L218.731 108H217.435L213.883 99.184V108H212.427V96.912H214.171L218.107 106.224L221.979 96.912H223.723ZM227.508 97.904V101.76H231.796V102.88H227.508V106.816H232.276V108H226.052V96.72H232.276V97.904H227.508ZM242.914 108H241.458L235.602 99.088V108H234.146V96.72H235.602L241.458 105.648V96.72H242.914V108ZM252.167 96.72V97.904H248.983V108H247.527V97.904H244.343V96.72H252.167Z" fill="#313B4E"/>
<circle cx="403.524" cy="207" r="77" fill="#F2F2F2"/>
<circle cx="403.524" cy="207" r="83.5" stroke="#F2F2F2"/>
<path d="M374.353 188.15C376.603 188.15 378.462 188.742 379.928 189.925C381.412 191.108 382.37 192.708 382.803 194.725H378.278C377.945 193.908 377.428 193.267 376.728 192.8C376.045 192.333 375.228 192.1 374.278 192.1C373.028 192.1 372.02 192.558 371.253 193.475C370.487 194.392 370.103 195.617 370.103 197.15C370.103 198.683 370.487 199.908 371.253 200.825C372.02 201.725 373.028 202.175 374.278 202.175C375.228 202.175 376.045 201.942 376.728 201.475C377.428 201.008 377.945 200.375 378.278 199.575H382.803C382.37 201.575 381.412 203.175 379.928 204.375C378.462 205.558 376.603 206.15 374.353 206.15C372.637 206.15 371.128 205.775 369.828 205.025C368.528 204.258 367.52 203.192 366.803 201.825C366.103 200.458 365.753 198.9 365.753 197.15C365.753 195.4 366.103 193.842 366.803 192.475C367.52 191.108 368.528 190.05 369.828 189.3C371.128 188.533 372.637 188.15 374.353 188.15ZM389.474 202.725H395.174V206H385.199V188.325H389.474V202.725ZM401.413 191.725V195.425H407.388V198.65H401.413V202.575H408.138V206H397.138V188.325H408.138V191.725H401.413ZM421.515 202.775H414.89L413.79 206H409.29L415.765 188.45H420.69L427.165 206H422.615L421.515 202.775ZM420.415 199.525L418.215 193.025L415.99 199.525H420.415ZM437.902 206L434.077 199.325H433.102V206H428.827V188.325H436.127C437.527 188.325 438.71 188.567 439.677 189.05C440.644 189.533 441.369 190.2 441.852 191.05C442.335 191.883 442.577 192.842 442.577 193.925C442.577 195.208 442.219 196.3 441.502 197.2C440.802 198.1 439.777 198.717 438.427 199.05L442.627 206H437.902ZM433.102 196.4H435.752C436.602 196.4 437.227 196.217 437.627 195.85C438.027 195.467 438.227 194.908 438.227 194.175C438.227 193.475 438.019 192.925 437.602 192.525C437.202 192.125 436.585 191.925 435.752 191.925H433.102V196.4Z" fill="#313B4E"/>
<path d="M384.363 227.392H379.403L378.459 230H376.891L381.067 218.928H382.715L386.875 230H385.307L384.363 227.392ZM383.947 226.256L381.883 220.56L379.819 226.256H383.947ZM397.853 224.352C397.853 225.493 397.623 226.491 397.165 227.344C396.706 228.187 396.029 228.843 395.133 229.312C394.247 229.771 393.181 230 391.933 230H388.349V218.72H391.933C393.181 218.72 394.247 218.949 395.133 219.408C396.029 219.856 396.706 220.507 397.165 221.36C397.623 222.203 397.853 223.2 397.853 224.352ZM391.821 228.688C393.293 228.688 394.418 228.309 395.197 227.552C395.975 226.795 396.365 225.728 396.365 224.352C396.365 222.976 395.975 221.909 395.197 221.152C394.429 220.384 393.303 220 391.821 220H389.805V228.688H391.821ZM400.553 218.72L403.993 228.384L407.481 218.72H409.065L404.921 230H403.081L398.953 218.72H400.553ZM411.992 218.72V230H410.536V218.72H411.992ZM419.325 218.608C420.701 218.608 421.837 218.949 422.733 219.632C423.629 220.304 424.248 221.227 424.589 222.4H423.053C422.765 221.653 422.301 221.061 421.661 220.624C421.021 220.176 420.237 219.952 419.309 219.952C418.573 219.952 417.912 220.133 417.325 220.496C416.749 220.848 416.29 221.36 415.949 222.032C415.618 222.693 415.453 223.472 415.453 224.368C415.453 225.253 415.618 226.027 415.949 226.688C416.29 227.349 416.749 227.861 417.325 228.224C417.912 228.576 418.573 228.752 419.309 228.752C420.237 228.752 421.021 228.533 421.661 228.096C422.301 227.648 422.765 227.051 423.053 226.304H424.589C424.248 227.477 423.629 228.405 422.733 229.088C421.837 229.76 420.701 230.096 419.325 230.096C418.269 230.096 417.336 229.856 416.525 229.376C415.714 228.885 415.08 228.208 414.621 227.344C414.173 226.469 413.949 225.477 413.949 224.368C413.949 223.248 414.173 222.251 414.621 221.376C415.08 220.501 415.714 219.824 416.525 219.344C417.336 218.853 418.269 218.608 419.325 218.608ZM427.992 219.904V223.76H432.28V224.88H427.992V228.816H432.76V230H426.536V218.72H432.76V219.904H427.992Z" fill="#313B4E"/>
<circle cx="209.524" cy="329" r="77" fill="#F2F2F2"/>
<circle cx="209.524" cy="329" r="83.5" stroke="#F2F2F2"/>
<path d="M180.925 323.025C180.925 323.958 180.684 324.817 180.2 325.6C179.734 326.383 179.034 327.008 178.1 327.475C177.184 327.942 176.067 328.175 174.75 328.175C172.767 328.175 171.134 327.692 169.85 326.725C168.567 325.758 167.867 324.408 167.75 322.675H172.3C172.367 323.342 172.6 323.867 173 324.25C173.417 324.633 173.942 324.825 174.575 324.825C175.125 324.825 175.559 324.675 175.875 324.375C176.192 324.075 176.35 323.675 176.35 323.175C176.35 322.725 176.2 322.35 175.9 322.05C175.617 321.75 175.259 321.508 174.825 321.325C174.392 321.125 173.792 320.892 173.025 320.625C171.909 320.242 170.992 319.875 170.275 319.525C169.575 319.158 168.967 318.625 168.45 317.925C167.95 317.208 167.7 316.283 167.7 315.15C167.7 314.1 167.967 313.192 168.5 312.425C169.034 311.658 169.767 311.075 170.7 310.675C171.65 310.258 172.734 310.05 173.95 310.05C175.917 310.05 177.475 310.517 178.625 311.45C179.792 312.383 180.45 313.667 180.6 315.3H175.975C175.892 314.717 175.675 314.258 175.325 313.925C174.992 313.575 174.534 313.4 173.95 313.4C173.45 313.4 173.042 313.533 172.725 313.8C172.425 314.067 172.275 314.458 172.275 314.975C172.275 315.392 172.409 315.75 172.675 316.05C172.959 316.333 173.309 316.567 173.725 316.75C174.142 316.933 174.742 317.167 175.525 317.45C176.659 317.833 177.584 318.217 178.3 318.6C179.017 318.967 179.634 319.508 180.15 320.225C180.667 320.942 180.925 321.875 180.925 323.025ZM203.164 310.45V328H198.889V317.025L195.089 328H191.389L187.564 317V328H183.289V310.45H188.514L193.289 322.675L197.964 310.45H203.164ZM217.066 324.775H210.441L209.341 328H204.841L211.316 310.45H216.241L222.716 328H218.166L217.066 324.775ZM215.966 321.525L213.766 315.025L211.541 321.525H215.966ZM233.453 328L229.628 321.325H228.653V328H224.378V310.325H231.678C233.078 310.325 234.261 310.567 235.228 311.05C236.194 311.533 236.919 312.2 237.403 313.05C237.886 313.883 238.128 314.842 238.128 315.925C238.128 317.208 237.769 318.3 237.053 319.2C236.353 320.1 235.328 320.717 233.978 321.05L238.178 328H233.453ZM228.653 318.4H231.303C232.153 318.4 232.778 318.217 233.178 317.85C233.578 317.467 233.778 316.908 233.778 316.175C233.778 315.475 233.569 314.925 233.153 314.525C232.753 314.125 232.136 313.925 231.303 313.925H228.653V318.4ZM252.971 310.325V313.725H248.171V328H243.871V313.725H239.121V310.325H252.971Z" fill="#313B4E"/>
<path d="M174.196 349.072C174.196 349.605 174.068 350.101 173.812 350.56C173.556 351.019 173.166 351.392 172.644 351.68C172.121 351.968 171.476 352.112 170.708 352.112C169.961 352.112 169.294 351.979 168.708 351.712C168.132 351.435 167.668 351.061 167.316 350.592C166.974 350.112 166.777 349.568 166.724 348.96H168.276C168.308 349.28 168.414 349.595 168.596 349.904C168.788 350.203 169.054 350.453 169.396 350.656C169.748 350.848 170.169 350.944 170.66 350.944C171.3 350.944 171.79 350.773 172.132 350.432C172.473 350.091 172.644 349.653 172.644 349.12C172.644 348.661 172.521 348.288 172.276 348C172.041 347.712 171.748 347.488 171.396 347.328C171.044 347.157 170.564 346.976 169.956 346.784C169.241 346.549 168.665 346.331 168.228 346.128C167.801 345.915 167.433 345.6 167.124 345.184C166.825 344.768 166.676 344.219 166.676 343.536C166.676 342.949 166.814 342.432 167.092 341.984C167.38 341.536 167.785 341.189 168.308 340.944C168.841 340.699 169.465 340.576 170.18 340.576C171.289 340.576 172.169 340.848 172.82 341.392C173.47 341.925 173.849 342.608 173.956 343.44H172.388C172.302 342.992 172.073 342.597 171.7 342.256C171.326 341.915 170.82 341.744 170.18 341.744C169.593 341.744 169.124 341.899 168.772 342.208C168.42 342.507 168.244 342.933 168.244 343.488C168.244 343.925 168.356 344.283 168.58 344.56C168.814 344.827 169.102 345.04 169.444 345.2C169.785 345.349 170.254 345.52 170.852 345.712C171.577 345.947 172.158 346.171 172.596 346.384C173.044 346.597 173.422 346.923 173.732 347.36C174.041 347.787 174.196 348.357 174.196 349.072ZM183.065 340.72V341.904H179.881V352H178.425V341.904H175.241V340.72H183.065ZM190.497 352L187.553 347.392H185.969V352H184.513V340.72H188.225C189.505 340.72 190.465 341.029 191.105 341.648C191.745 342.256 192.065 343.067 192.065 344.08C192.065 344.997 191.809 345.739 191.297 346.304C190.785 346.859 190.043 347.205 189.073 347.344L192.145 352H190.497ZM185.969 346.336H188.097C189.75 346.336 190.577 345.611 190.577 344.16C190.577 342.709 189.75 341.984 188.097 341.984H185.969V346.336ZM200.449 349.392H195.489L194.545 352H192.977L197.153 340.928H198.801L202.961 352H201.393L200.449 349.392ZM200.033 348.256L197.969 342.56L195.905 348.256H200.033ZM211.347 340.72V341.904H208.163V352H206.707V341.904H203.523V340.72H211.347ZM214.25 341.904V345.76H218.538V346.88H214.25V350.816H219.018V352H212.794V340.72H219.018V341.904H214.25ZM226.008 340.608C227.32 340.608 228.418 340.933 229.304 341.584C230.2 342.235 230.802 343.12 231.112 344.24H229.576C229.309 343.557 228.861 343.008 228.232 342.592C227.613 342.176 226.877 341.968 226.024 341.968C225.256 341.968 224.568 342.149 223.96 342.512C223.352 342.864 222.872 343.371 222.52 344.032C222.178 344.693 222.008 345.472 222.008 346.368C222.008 347.285 222.184 348.08 222.536 348.752C222.888 349.413 223.373 349.925 223.992 350.288C224.621 350.64 225.341 350.816 226.152 350.816C226.845 350.816 227.48 350.667 228.056 350.368C228.632 350.069 229.101 349.637 229.464 349.072C229.837 348.496 230.061 347.824 230.136 347.056H225.704V345.968H231.368V347.312C231.272 348.208 230.994 349.019 230.536 349.744C230.077 350.469 229.458 351.045 228.68 351.472C227.901 351.899 227.016 352.112 226.024 352.112C224.936 352.112 223.976 351.872 223.144 351.392C222.312 350.901 221.661 350.224 221.192 349.36C220.733 348.485 220.504 347.488 220.504 346.368C220.504 345.248 220.733 344.256 221.192 343.392C221.661 342.517 222.312 341.835 223.144 341.344C223.976 340.853 224.93 340.608 226.008 340.608ZM234.797 340.72V352H233.341V340.72H234.797ZM238.594 341.904V345.76H242.882V346.88H238.594V350.816H243.362V352H237.138V340.72H243.362V341.904H238.594ZM252.367 349.072C252.367 349.605 252.239 350.101 251.983 350.56C251.727 351.019 251.338 351.392 250.815 351.68C250.293 351.968 249.647 352.112 248.879 352.112C248.133 352.112 247.466 351.979 246.879 351.712C246.303 351.435 245.839 351.061 245.487 350.592C245.146 350.112 244.949 349.568 244.895 348.96H246.447C246.479 349.28 246.586 349.595 246.767 349.904C246.959 350.203 247.226 350.453 247.567 350.656C247.919 350.848 248.341 350.944 248.831 350.944C249.471 350.944 249.962 350.773 250.303 350.432C250.645 350.091 250.815 349.653 250.815 349.12C250.815 348.661 250.693 348.288 250.447 348C250.213 347.712 249.919 347.488 249.567 347.328C249.215 347.157 248.735 346.976 248.127 346.784C247.413 346.549 246.837 346.331 246.399 346.128C245.973 345.915 245.605 345.6 245.295 345.184C244.997 344.768 244.847 344.219 244.847 343.536C244.847 342.949 244.986 342.432 245.263 341.984C245.551 341.536 245.957 341.189 246.479 340.944C247.013 340.699 247.637 340.576 248.351 340.576C249.461 340.576 250.341 340.848 250.991 341.392C251.642 341.925 252.021 342.608 252.127 343.44H250.559C250.474 342.992 250.245 342.597 249.871 342.256C249.498 341.915 248.991 341.744 248.351 341.744C247.765 341.744 247.295 341.899 246.943 342.208C246.591 342.507 246.415 342.933 246.415 343.488C246.415 343.925 246.527 344.283 246.751 344.56C246.986 344.827 247.274 345.04 247.615 345.2C247.957 345.349 248.426 345.52 249.023 345.712C249.749 345.947 250.33 346.171 250.767 346.384C251.215 346.597 251.594 346.923 251.903 347.36C252.213 347.787 252.367 348.357 252.367 349.072Z" fill="#313B4E"/>
<path d="M281.024 96.5C293.358 111.333 332.324 131.5 389.524 93.5C461.024 46 480.024 141 447.524 161.5" stroke="#F2F2F2" stroke-linejoin="round" stroke-dasharray="2 4"/>
<path d="M155.524 52C147.191 32.1667 121.924 -5.5 87.5245 2.5C44.5245 12.5 53.0245 64 15.5245 58C-21.9755 52 20.5245 -32.5 59.5245 33.5C98.5245 99.5 86.0245 219.5 87.5245 253.5C89.0245 287.5 87.5245 346.5 141.524 345.5" stroke="#F2F2F2" stroke-dasharray="3 5"/>
</svg>
