<svg width="195" height="37" viewBox="0 0 195 37" fill="none" xmlns="http://www.w3.org/2000/svg">
<rect width="194.191" height="37" rx="4" fill="#C8AC48"/>
<mask id="mask0" mask-type="alpha" maskUnits="userSpaceOnUse" x="0" y="0" width="195" height="37">
<rect width="194.191" height="37" rx="4" fill="#A68C2F"/>
</mask>
<g mask="url(#mask0)">
<path d="M138.925 0L55.8398 37H194.191V0H138.925Z" fill="#B89D3B"/>
</g>
<path d="M84.6432 14.0144V15.768H80.9824V17.6624H83.7216V19.3648H80.9824V23H78.7936V14.0144H84.6432ZM86.8944 15.1152C86.5104 15.1152 86.1947 15.0043 85.9472 14.7824C85.7083 14.552 85.5888 14.2704 85.5888 13.9376C85.5888 13.5963 85.7083 13.3147 85.9472 13.0928C86.1947 12.8624 86.5104 12.7472 86.8944 12.7472C87.2699 12.7472 87.5771 12.8624 87.816 13.0928C88.0635 13.3147 88.1872 13.5963 88.1872 13.9376C88.1872 14.2704 88.0635 14.552 87.816 14.7824C87.5771 15.0043 87.2699 15.1152 86.8944 15.1152ZM87.9824 15.8576V23H85.7936V15.8576H87.9824ZM93.9206 15.7808C94.7569 15.7808 95.4225 16.0539 95.9174 16.6C96.4209 17.1376 96.6726 17.88 96.6726 18.8272V23H94.4966V19.1216C94.4966 18.6437 94.3729 18.2725 94.1254 18.008C93.8779 17.7435 93.5451 17.6112 93.127 17.6112C92.7089 17.6112 92.3761 17.7435 92.1286 18.008C91.8811 18.2725 91.7574 18.6437 91.7574 19.1216V23H89.5686V15.8576H91.7574V16.8048C91.9793 16.4891 92.2779 16.2416 92.6534 16.0624C93.0289 15.8747 93.4513 15.7808 93.9206 15.7808ZM99.2944 15.1152C98.9104 15.1152 98.5947 15.0043 98.3472 14.7824C98.1083 14.552 97.9888 14.2704 97.9888 13.9376C97.9888 13.5963 98.1083 13.3147 98.3472 13.0928C98.5947 12.8624 98.9104 12.7472 99.2944 12.7472C99.6699 12.7472 99.9771 12.8624 100.216 13.0928C100.463 13.3147 100.587 13.5963 100.587 13.9376C100.587 14.2704 100.463 14.552 100.216 14.7824C99.9771 15.0043 99.6699 15.1152 99.2944 15.1152ZM100.382 15.8576V23H98.1936V15.8576H100.382ZM104.874 23.1024C104.251 23.1024 103.697 22.9957 103.21 22.7824C102.724 22.5691 102.34 22.2789 102.058 21.912C101.777 21.5365 101.619 21.1184 101.585 20.6576H103.748C103.773 20.9051 103.889 21.1056 104.093 21.2592C104.298 21.4128 104.55 21.4896 104.849 21.4896C105.122 21.4896 105.331 21.4384 105.476 21.336C105.629 21.2251 105.706 21.0843 105.706 20.9136C105.706 20.7088 105.6 20.5595 105.386 20.4656C105.173 20.3632 104.827 20.2523 104.349 20.1328C103.837 20.0133 103.411 19.8896 103.069 19.7616C102.728 19.6251 102.434 19.416 102.186 19.1344C101.939 18.8443 101.815 18.456 101.815 17.9696C101.815 17.56 101.926 17.1888 102.148 16.856C102.378 16.5147 102.711 16.2459 103.146 16.0496C103.59 15.8533 104.115 15.7552 104.721 15.7552C105.617 15.7552 106.321 15.9771 106.833 16.4208C107.353 16.8645 107.652 17.4533 107.729 18.1872H105.706C105.672 17.9397 105.561 17.7435 105.373 17.5984C105.194 17.4533 104.955 17.3808 104.657 17.3808C104.401 17.3808 104.204 17.432 104.068 17.5344C103.931 17.6283 103.863 17.7605 103.863 17.9312C103.863 18.136 103.97 18.2896 104.183 18.392C104.405 18.4944 104.746 18.5968 105.207 18.6992C105.736 18.8357 106.167 18.9723 106.5 19.1088C106.833 19.2368 107.123 19.4501 107.37 19.7488C107.626 20.0389 107.758 20.4315 107.767 20.9264C107.767 21.3445 107.648 21.72 107.409 22.0528C107.178 22.3771 106.841 22.6331 106.397 22.8208C105.962 23.0085 105.454 23.1024 104.874 23.1024ZM113.497 15.7808C114.316 15.7808 114.973 16.0539 115.468 16.6C115.963 17.1376 116.21 17.88 116.21 18.8272V23H114.034V19.1216C114.034 18.6437 113.91 18.2725 113.663 18.008C113.415 17.7435 113.083 17.6112 112.665 17.6112C112.246 17.6112 111.914 17.7435 111.666 18.008C111.419 18.2725 111.295 18.6437 111.295 19.1216V23H109.106V13.528H111.295V16.8176C111.517 16.5019 111.82 16.2501 112.204 16.0624C112.588 15.8747 113.019 15.7808 113.497 15.7808Z" fill="#F2F2F2"/>
</svg>
