<svg width="167" height="50" viewBox="0 0 167 50" fill="none" xmlns="http://www.w3.org/2000/svg">
<rect width="167" height="50" rx="25" fill="white"/>
<path fill-rule="evenodd" clip-rule="evenodd" d="M73.71 12.3699C73.71 12.5566 73.7733 12.7166 73.9 12.8499C74.0333 12.9766 74.1933 13.0399 74.38 13.0399C74.5666 13.0399 74.7266 12.9749 74.86 12.8449C74.9933 12.7149 75.06 12.5566 75.06 12.3699C75.06 12.1766 74.9933 12.0149 74.86 11.8849C74.7266 11.7549 74.5666 11.6899 74.38 11.6899C74.1933 11.6899 74.035 11.7566 73.905 11.8899C73.775 12.0233 73.71 12.1833 73.71 12.3699ZM60.25 18.9999H61.04V15.5299H57.65V16.4099H60.11C60.0966 16.6099 60.0483 16.8099 59.965 17.0099C59.8816 17.2099 59.7583 17.4083 59.595 17.6049C59.4316 17.8016 59.205 17.9599 58.915 18.0799C58.6249 18.1999 58.2933 18.2599 57.92 18.2599C57.2399 18.2599 56.6583 18.0149 56.175 17.5249C55.6916 17.0349 55.45 16.3433 55.45 15.4499C55.45 14.5633 55.6966 13.8766 56.19 13.3899C56.6833 12.9033 57.2733 12.6599 57.96 12.6599C58.5066 12.6599 58.9783 12.8016 59.375 13.0849C59.7716 13.3683 60.05 13.7666 60.21 14.2799L61.1 13.8999C60.8933 13.2533 60.5083 12.7349 59.945 12.3449C59.3816 11.9549 58.72 11.7599 57.96 11.7599C57.3599 11.7599 56.7983 11.8966 56.275 12.1699C55.7516 12.4433 55.3166 12.8666 54.97 13.4399C54.6233 14.0133 54.45 14.6833 54.45 15.4499C54.45 16.2166 54.6149 16.8866 54.945 17.4599C55.275 18.0333 55.6966 18.4583 56.21 18.7349C56.7233 19.0116 57.2833 19.1499 57.89 19.1499C58.4433 19.1499 58.9166 19.0366 59.31 18.8099C59.7033 18.5833 59.9866 18.3133 60.16 17.9999L60.25 18.9999ZM65.69 16.0999H63.06C63.08 15.7666 63.2099 15.4783 63.45 15.2349C63.69 14.9916 63.9966 14.8699 64.37 14.8699C64.7833 14.8699 65.1033 14.9849 65.33 15.2149C65.5566 15.4449 65.6766 15.7399 65.69 16.0999ZM65.83 17.3499L66.64 17.6299C66.5 18.0766 66.24 18.4416 65.86 18.7249C65.4799 19.0083 65.02 19.1499 64.48 19.1499C63.8066 19.1499 63.235 18.9183 62.765 18.4549C62.2949 17.9916 62.06 17.3666 62.06 16.5799C62.06 15.8466 62.2866 15.2399 62.74 14.7599C63.1933 14.2799 63.7333 14.0399 64.36 14.0399C65.0866 14.0399 65.6533 14.2683 66.06 14.7249C66.4666 15.1816 66.67 15.7933 66.67 16.5599C66.67 16.6799 66.6633 16.7799 66.65 16.8599H63.03C63.0366 17.2866 63.1783 17.6366 63.455 17.9099C63.7316 18.1833 64.0733 18.3199 64.48 18.3199C65.1666 18.3199 65.6166 17.9966 65.83 17.3499ZM69.13 14.1899V12.6699H68.27V13.4499C68.27 13.6699 68.2083 13.8483 68.085 13.9849C67.9616 14.1216 67.7766 14.1899 67.53 14.1899H67.27V15.0399H68.19V17.6799C68.19 18.1133 68.3099 18.4499 68.55 18.6899C68.79 18.9299 69.1166 19.0499 69.53 19.0499C69.7966 19.0499 70.01 19.0199 70.17 18.9599V18.1599C70.0633 18.1866 69.94 18.1999 69.8 18.1999C69.5599 18.1999 69.3883 18.1466 69.285 18.0399C69.1816 17.9333 69.13 17.7666 69.13 17.5399V15.0399H70.17V14.1899H69.13ZM74.85 18.9999H73.92V14.1899H74.85V18.9999ZM77.71 12.6699V14.1899H78.75V15.0399H77.71V17.5399C77.71 17.7666 77.7616 17.9333 77.865 18.0399C77.9683 18.1466 78.1399 18.1999 78.38 18.1999C78.52 18.1999 78.6433 18.1866 78.75 18.1599V18.9599C78.59 19.0199 78.3766 19.0499 78.11 19.0499C77.6966 19.0499 77.37 18.9299 77.13 18.6899C76.8899 18.4499 76.77 18.1133 76.77 17.6799V15.0399H75.85V14.1899H76.11C76.3566 14.1899 76.5416 14.1216 76.665 13.9849C76.7883 13.8483 76.85 13.6699 76.85 13.4499V12.6699H77.71ZM84.56 18.3099C84.1399 18.3099 83.7833 18.1599 83.49 17.8599C83.2033 17.5533 83.06 17.1299 83.06 16.5899C83.06 16.0566 83.205 15.6383 83.495 15.3349C83.785 15.0316 84.1399 14.8799 84.56 14.8799C84.98 14.8799 85.3349 15.0316 85.625 15.3349C85.915 15.6383 86.06 16.0566 86.06 16.5899C86.06 17.1299 85.915 17.5516 85.625 17.8549C85.3349 18.1583 84.98 18.3099 84.56 18.3099ZM82.79 14.7699C83.2566 14.2833 83.8466 14.0399 84.56 14.0399C85.2733 14.0399 85.8616 14.2816 86.325 14.7649C86.7883 15.2483 87.02 15.8566 87.02 16.5899C87.02 17.3299 86.79 17.9416 86.33 18.4249C85.8699 18.9083 85.28 19.1499 84.56 19.1499C83.8399 19.1499 83.25 18.9083 82.79 18.4249C82.3299 17.9416 82.1 17.3299 82.1 16.5899C82.1 15.8566 82.3299 15.2499 82.79 14.7699ZM89.16 18.9999V16.2199C89.16 15.8399 89.2583 15.5249 89.455 15.2749C89.6516 15.0249 89.9266 14.8999 90.28 14.8999C91.0266 14.8999 91.4 15.3033 91.4 16.1099V18.9999H92.34V15.9499C92.34 15.3899 92.1916 14.9333 91.895 14.5799C91.5983 14.2266 91.1733 14.0499 90.62 14.0499C89.9533 14.0499 89.46 14.3266 89.1399 14.8799V14.1899H88.22V18.9999H89.16Z" fill="#0A142F"/>
<path fill-rule="evenodd" clip-rule="evenodd" d="M65.4241 30.256V36H63.8721L63.7281 34.56C63.2321 35.392 62.0641 36.24 60.2561 36.24C57.2961 36.24 54.6721 34.064 54.6721 30.32C54.6721 26.592 57.4401 24.416 60.3841 24.416C63.1361 24.416 64.8961 26 65.5041 27.872L63.6961 28.56C63.3121 27.28 62.1921 26.192 60.3841 26.192C58.5441 26.192 56.6241 27.504 56.6241 30.32C56.6241 33.088 58.4161 34.48 60.3681 34.48C62.6561 34.48 63.5201 32.912 63.6161 31.936H59.8721V30.256H65.4241ZM68.8321 32.096C68.8321 33.712 69.8721 34.576 71.0081 34.576C72.1601 34.576 73.1841 33.728 73.1841 32.096C73.1841 30.48 72.1601 29.648 71.0081 29.648C69.8721 29.648 68.8321 30.48 68.8321 32.096ZM71.0081 27.968C68.6881 27.968 66.9761 29.712 66.9761 32.096C66.9761 34.496 68.6881 36.24 71.0081 36.24C73.3441 36.24 75.0561 34.496 75.0561 32.096C75.0561 29.712 73.3441 27.968 71.0081 27.968ZM78.0961 32.096C78.0961 33.712 79.1361 34.576 80.2721 34.576C81.4241 34.576 82.4481 33.728 82.4481 32.096C82.4481 30.48 81.4241 29.648 80.2721 29.648C79.1361 29.648 78.0961 30.48 78.0961 32.096ZM80.2721 27.968C77.9521 27.968 76.2401 29.712 76.2401 32.096C76.2401 34.496 77.9521 36.24 80.2721 36.24C82.6081 36.24 84.3201 34.496 84.3201 32.096C84.3201 29.712 82.6081 27.968 80.2721 27.968ZM89.2641 39.28C87.2001 39.28 85.7601 38 85.5521 36.432L87.2641 35.984C87.3921 36.944 88.1441 37.664 89.2161 37.664C90.6881 37.664 91.4241 36.912 91.4241 35.328V34.512C91.0881 35.12 90.3041 35.648 89.1681 35.648C87.0881 35.648 85.5681 34.048 85.5681 31.856C85.5681 29.776 87.0241 28.064 89.1681 28.064C90.3841 28.064 91.1361 28.56 91.4721 29.2V28.208H93.2641V35.264C93.2641 37.344 92.1921 39.28 89.2641 39.28ZM89.4721 34.064C88.2561 34.064 87.4401 33.216 87.4401 31.856C87.4401 30.528 88.2881 29.664 89.4721 29.664C90.6241 29.664 91.4721 30.528 91.4721 31.856C91.4721 33.2 90.6561 34.064 89.4721 34.064ZM97.3921 24.416V36H95.5361V24.416H97.3921ZM101.088 31.248C101.152 30.416 101.824 29.52 102.992 29.52C104.272 29.52 104.88 30.336 104.912 31.248H101.088ZM103.168 34.64C104.288 34.64 104.864 34.048 105.12 33.28L106.688 33.776C106.272 35.136 105.04 36.24 103.168 36.24C101.056 36.24 99.1841 34.704 99.1841 32.064C99.1841 29.6 101.008 27.968 102.976 27.968C105.376 27.968 106.784 29.552 106.784 32.016C106.784 32.32 106.752 32.576 106.736 32.608H101.04C101.088 33.792 102.016 34.64 103.168 34.64ZM114.608 29.872V26.352H116.608C117.824 26.352 118.56 27.04 118.56 28.128C118.56 29.2 117.824 29.872 116.608 29.872H114.608ZM120.512 28.112C120.512 30.112 119.072 31.568 116.896 31.568H114.608V36H112.688V24.656H116.896C119.072 24.656 120.512 26.128 120.512 28.112ZM124.016 36V24.416H122.16V36H124.016ZM128.576 36.24C126.944 36.24 125.936 35.12 125.936 33.888C125.936 32.496 126.96 31.728 128.288 31.536L130.288 31.232C130.736 31.168 130.864 30.944 130.864 30.672C130.864 30.016 130.416 29.488 129.392 29.488C128.416 29.488 127.872 30.112 127.792 30.896L126.096 30.512C126.24 29.168 127.456 27.968 129.376 27.968C131.776 27.968 132.688 29.328 132.688 30.88L132.69 34.9229C132.697 35.3097 132.727 35.6107 132.752 35.7973L132.784 36H131.056C131.04 35.952 130.976 35.632 130.976 35.008C130.608 35.6 129.84 36.24 128.576 36.24ZM128.928 34.784C128.192 34.784 127.792 34.304 127.792 33.776C127.792 33.136 128.256 32.816 128.832 32.72L130.864 32.416V32.768C130.864 34.288 129.968 34.784 128.928 34.784ZM135.312 39.152H137.296L142.256 28.208H140.288L138.192 33.136L135.952 28.208H133.856L137.184 35.072L135.312 39.152Z" fill="#0A142F"/>
<path d="M20.0958 14.1294C20.0395 14.33 20 14.5453 20 14.792V35.1065C20 35.3499 20.038 35.564 20.0932 35.762L31.4206 24.9601L20.0958 14.1294Z" fill="#48A0DC"/>
<path d="M22.6161 13.3403C22.0888 13.0167 21.569 12.9357 21.1301 13.0474L32.5049 23.9262L35.8414 20.7451L22.6161 13.3403Z" fill="#88C057"/>
<path d="M40.7172 23.4752L37.1867 21.4985L33.5713 24.9463L37.2546 28.4698L40.69 26.5712C42.3653 25.61 41.7534 24.0613 40.7172 23.4752Z" fill="#FFCC66"/>
<path d="M32.4866 25.9795L21.0977 36.8387C21.5432 36.9644 22.075 36.8897 22.6157 36.5579L35.8824 29.227L32.4866 25.9795Z" fill="#ED7161"/>
</svg>
