<svg width="74" height="74" viewBox="0 0 74 74" fill="none" xmlns="http://www.w3.org/2000/svg">
<g clip-path="url(#clip0)">
<circle cx="36.5" cy="35.5" r="33.5" fill="#F2F2F2"/>
<path d="M44.9661 66.7303C39.0645 68.3129 32.8265 68.1088 27.0409 66.1438C21.2552 64.1788 16.1818 60.5412 12.4623 55.691C8.74272 50.8408 6.54405 44.9958 6.14432 38.8952C5.74459 32.7946 7.16175 26.7124 10.2166 21.4177C13.2714 16.1231 17.8267 11.8538 23.3064 9.14971C28.7862 6.44566 34.9442 5.42831 41.0017 6.22632C47.0593 7.02433 52.7443 9.60185 57.3378 13.6329C61.9314 17.664 65.2272 22.9676 66.8084 28.873C68.9189 36.7912 67.8046 45.2237 63.7098 52.3207C59.6151 59.4178 52.8742 64.5999 44.9661 66.7303ZM29.2045 7.88142C23.4737 9.41756 18.3269 12.6196 14.4147 17.0826C10.5026 21.5456 8.00085 27.0692 7.22584 32.9549C6.45082 38.8406 7.43734 44.8241 10.0607 50.1488C12.684 55.4735 16.8263 59.9002 21.9638 62.8693C27.1013 65.8384 33.0033 67.2164 38.9234 66.8292C44.8436 66.442 50.5161 64.3068 55.2236 60.6938C59.9311 57.0808 63.4623 52.1521 65.3705 46.531C67.2788 40.9099 67.4785 34.8488 65.9444 29.1142C63.8793 21.4278 58.8509 14.8752 51.963 10.8945C45.075 6.91378 36.89 5.83015 29.2045 7.88142V7.88142Z" fill="#4C8900"/>
<path d="M72.0735 27.4542C71.581 27.1611 71.2125 26.6981 71.0372 26.1522C70.8618 25.6064 70.8917 25.0152 71.1213 24.4899C71.2507 24.1975 71.3191 23.8818 71.3225 23.562C71.3258 23.2423 71.264 22.9252 71.1408 22.6301C71.0176 22.3351 70.8355 22.0683 70.6058 21.846C70.3761 21.6237 70.1035 21.4506 69.8046 21.3373C69.2692 21.1347 68.826 20.7437 68.5582 20.2375C68.2903 19.7312 68.2163 19.1446 68.3498 18.5876C68.4246 18.277 68.4354 17.9544 68.3815 17.6395C68.3276 17.3246 68.2102 17.024 68.0364 16.756C67.8626 16.4879 67.6361 16.2581 67.3706 16.0806C67.1052 15.9031 66.8064 15.7815 66.4924 15.7233C65.9298 15.619 65.4244 15.3129 65.0711 14.8625C64.7178 14.4121 64.5408 13.8482 64.5733 13.2765C64.5917 12.9564 64.5445 12.6358 64.4347 12.3346C64.3248 12.0333 64.1545 11.7578 63.9343 11.5248C63.7141 11.2918 63.4487 11.1063 63.1542 10.9797C62.8598 10.8531 62.5426 10.788 62.2221 10.7886C61.6508 10.7866 61.0998 10.5766 60.672 10.1978C60.2441 9.81891 59.9688 9.29716 59.8974 8.72999C59.8584 8.41253 59.7552 8.10635 59.594 7.83016C59.4328 7.55398 59.217 7.31358 58.9598 7.12366C58.7027 6.93375 58.4095 6.7983 58.0982 6.72559C57.7869 6.65289 57.4641 6.64446 57.1495 6.70082C56.5879 6.7982 56.0101 6.68817 55.5236 6.39119C55.037 6.09421 54.6749 5.63049 54.5044 5.0863C54.4094 4.78131 54.2533 4.49887 54.0457 4.25621C53.838 4.01354 53.5832 3.81574 53.2966 3.67485C53.0101 3.53397 52.6979 3.45295 52.379 3.43675C52.0602 3.42055 51.7413 3.46949 51.442 3.5806C50.9054 3.78049 50.3143 3.77755 49.7797 3.57234C49.2451 3.36713 48.8037 2.97375 48.5383 2.46603C48.3908 2.18286 48.1871 1.93273 47.9398 1.73086C47.6925 1.529 47.4067 1.37963 47.0998 1.29186C46.7929 1.20409 46.4714 1.17975 46.1549 1.22033C45.8383 1.26091 45.5333 1.36556 45.2585 1.5279C44.7652 1.81869 44.1828 1.91938 43.6206 1.8111C43.0584 1.70281 42.555 1.39298 42.2049 0.939739C42.0088 0.687403 41.7633 0.477699 41.4836 0.323429C41.2038 0.169158 40.8955 0.0735566 40.5776 0.0424585C40.2596 0.0113605 39.9387 0.0454186 39.6344 0.142554C39.33 0.23969 39.0487 0.397865 38.8074 0.607425C38.3759 0.981767 37.8229 1.18613 37.2518 1.18234C36.6807 1.17855 36.1305 0.966873 35.7039 0.58684C35.465 0.3742 35.1853 0.212552 34.8818 0.111781C34.5783 0.0110098 34.2575 -0.0267676 33.939 0.000758618C33.6204 0.0282848 33.3108 0.120536 33.0291 0.271872C32.7474 0.423209 32.4995 0.630449 32.3006 0.880922C31.9419 1.32686 31.433 1.62663 30.8693 1.72407C30.3055 1.82151 29.7256 1.70995 29.2382 1.41027C28.9661 1.24292 28.6627 1.13282 28.3466 1.08667C28.0306 1.04052 27.7084 1.0593 27.3999 1.14186C27.0913 1.22442 26.8027 1.36903 26.5519 1.56686C26.301 1.76469 26.093 2.0116 25.9407 2.29252C25.6677 2.79574 25.2207 3.18208 24.6835 3.37914C24.1462 3.57621 23.5556 3.57046 23.0223 3.36298C22.7239 3.2474 22.4051 3.19399 22.0853 3.20601C21.7656 3.21803 21.4516 3.29523 21.1627 3.43289C20.8739 3.57054 20.6161 3.76575 20.4052 4.00657C20.1943 4.24738 20.0348 4.52874 19.9364 4.83339C19.7574 5.37702 19.3864 5.83669 18.893 6.12631C18.3996 6.41593 17.8176 6.51563 17.2561 6.40673C16.9423 6.34577 16.6195 6.34945 16.3072 6.41754C15.995 6.48563 15.6999 6.61671 15.4399 6.80277C15.18 6.98883 14.9607 7.22596 14.7955 7.49967C14.6302 7.77339 14.5224 8.07794 14.4788 8.39473C14.4002 8.96109 14.1182 9.47945 13.6855 9.8529C13.2528 10.2263 12.699 10.4293 12.1276 10.4239C11.8085 10.4204 11.4921 10.482 11.1976 10.6048C10.903 10.7277 10.6366 10.9092 10.4144 11.1384C10.1923 11.3676 10.019 11.6396 9.90531 11.9379C9.79159 12.2362 9.73973 12.5546 9.75292 12.8736C9.77646 13.4468 9.58992 14.0088 9.22837 14.454C8.86683 14.8991 8.35519 15.1968 7.78969 15.291C7.47448 15.343 7.17316 15.4587 6.90414 15.6311C6.63511 15.8035 6.40402 16.029 6.22498 16.2937C6.04593 16.5585 5.92268 16.857 5.86276 17.171C5.80283 17.485 5.80748 17.8079 5.87643 18.12C6.00361 18.6759 5.92471 19.259 5.65441 19.761C5.38411 20.263 4.94081 20.6497 4.40695 20.8491C4.10662 20.9577 3.83154 21.1263 3.59849 21.3448C3.36544 21.5632 3.1793 21.8269 3.05142 22.1197C2.92354 22.4125 2.85661 22.7283 2.85471 23.0478C2.8528 23.3673 2.91596 23.6839 3.04034 23.9782C3.26379 24.5059 3.28706 25.097 3.10578 25.6407C2.9245 26.1843 2.55113 26.6431 2.05579 26.9308V26.9308C1.77976 27.0914 1.53932 27.3066 1.34913 27.5632C1.15894 27.8199 1.02299 28.1126 0.949564 28.4235C0.876139 28.7345 0.86678 29.0571 0.922059 29.3718C0.977337 29.6865 1.09609 29.9866 1.27109 30.2539C1.58466 30.7329 1.71289 31.3099 1.63173 31.8767C1.55058 32.4435 1.26561 32.9613 0.830243 33.3329C0.584205 33.5398 0.383149 33.7949 0.239491 34.0825C0.0958329 34.3701 0.0126216 34.6842 -0.00500496 35.0052C-0.0226315 35.3263 0.025701 35.6476 0.137008 35.9492C0.248315 36.2508 0.420234 36.5264 0.64215 36.759C1.03646 37.174 1.26595 37.7188 1.2876 38.291C1.30924 38.8633 1.12155 39.4238 0.759708 39.8675C0.561808 40.1142 0.415682 40.3984 0.330071 40.7029C0.24446 41.0075 0.221122 41.3262 0.261455 41.6401C0.301788 41.9539 0.404962 42.2563 0.564805 42.5293C0.724649 42.8023 0.937877 43.0402 1.19173 43.2288C1.65382 43.5668 1.97684 44.0618 2.1002 44.6211C2.22356 45.1804 2.1388 45.7655 1.86182 46.2667V46.2667C1.70667 46.5463 1.61012 46.8546 1.57807 47.1728C1.54602 47.491 1.57914 47.8124 1.67541 48.1174C1.77169 48.4224 1.92908 48.7045 2.13799 48.9465C2.3469 49.1886 2.60294 49.3854 2.89045 49.5251C3.40509 49.775 3.81105 50.2039 4.03232 50.7318C4.25359 51.2596 4.27498 51.85 4.09249 52.3924C3.99009 52.6953 3.95046 53.0159 3.97601 53.3346C4.00157 53.6533 4.09177 53.9634 4.24112 54.2461C4.39047 54.5287 4.59583 54.7779 4.84465 54.9785C5.09348 55.1791 5.38055 55.3268 5.68834 55.4127V55.4127C6.2394 55.5669 6.71535 55.9169 7.02698 56.3971C7.33862 56.8773 7.46455 57.4547 7.38118 58.0212C7.33427 58.3374 7.35226 58.6599 7.43407 58.969C7.51587 59.278 7.65977 59.5671 7.85697 59.8187C8.05418 60.0702 8.30055 60.2789 8.58105 60.432C8.86155 60.5851 9.17028 60.6794 9.48841 60.7091C10.0581 60.7624 10.5888 61.0219 10.9811 61.4387C11.3733 61.8556 11.6002 62.4013 11.6192 62.9735C11.6299 63.2928 11.7056 63.6066 11.8415 63.8957C11.9774 64.1848 12.1707 64.4432 12.4097 64.655C12.6487 64.8669 12.9283 65.0279 13.2315 65.1281C13.5346 65.2283 13.855 65.2657 14.1731 65.238C14.7432 65.1885 15.3117 65.3488 15.7721 65.6888C16.2326 66.0288 16.5533 66.5251 16.6742 67.0848C16.7425 67.3966 16.8736 67.6911 17.0594 67.9506C17.2451 68.2101 17.4817 68.429 17.7547 68.594C18.0277 68.7591 18.3315 68.8669 18.6474 68.9107C18.9634 68.9546 19.2849 68.9337 19.5925 68.8493C20.1445 68.6992 20.7322 68.7555 21.2456 69.0078C21.759 69.26 22.1628 69.6909 22.3816 70.2197C22.502 70.5165 22.6816 70.7855 22.9096 71.0104C23.1375 71.2352 23.409 71.4111 23.7072 71.5273C24.0055 71.6435 24.3243 71.6975 24.6442 71.6861C24.9641 71.6746 25.2782 71.598 25.5674 71.4607C26.0837 71.2144 26.672 71.1648 27.2222 71.3212C27.7724 71.4777 28.2467 71.8294 28.5564 72.3106C28.7291 72.5794 28.9548 72.8102 29.2196 72.9888C29.4844 73.1674 29.7828 73.2902 30.0966 73.3497C30.4103 73.4091 30.7329 73.404 31.0447 73.3345C31.3564 73.2651 31.6507 73.1329 31.9097 72.9459V72.9459C32.373 72.6096 32.9429 72.454 33.5126 72.5081C34.0823 72.5622 34.6127 72.8224 35.0044 73.2399C35.2226 73.4737 35.486 73.6606 35.7787 73.789C36.0715 73.9175 36.3873 73.9849 36.7069 73.9871C37.0265 73.9893 37.3433 73.9263 37.6377 73.8018C37.9322 73.6774 38.1982 73.4942 38.4195 73.2635C38.8163 72.851 39.3498 72.5974 39.9201 72.5503C40.4903 72.5032 41.0581 72.6658 41.5172 73.0076C41.7735 73.1983 42.066 73.3347 42.3767 73.4085C42.6875 73.4823 43.01 73.492 43.3246 73.4369C43.6393 73.3819 43.9394 73.2633 44.2067 73.0883C44.474 72.9134 44.7028 72.6858 44.8793 72.4195C45.1965 71.9427 45.6766 71.5982 46.2296 71.4504C46.7826 71.3026 47.3704 71.3617 47.8829 71.6166C48.169 71.7585 48.481 71.8407 48.7998 71.858C49.1186 71.8753 49.4376 71.8275 49.7374 71.7175C50.0371 71.6074 50.3113 71.4374 50.5432 71.2178C50.7752 70.9982 50.96 70.7337 51.0864 70.4403C51.313 69.914 51.7238 69.4885 52.2416 69.2437C52.7595 68.999 53.3488 68.9518 53.899 69.111C54.2055 69.1991 54.5268 69.2238 54.8432 69.1837C55.1596 69.1436 55.4645 69.0395 55.7394 68.8777C56.0144 68.716 56.2535 68.4999 56.4424 68.2428C56.6312 67.9856 56.7658 67.6927 56.8379 67.3818C56.9685 66.8254 57.297 66.3356 57.7622 66.0038C58.2273 65.6721 58.7972 65.5211 59.3654 65.5791C59.683 65.6114 60.0038 65.5787 60.3083 65.4829C60.6128 65.3872 60.8946 65.2303 61.1366 65.0221C61.3786 64.8138 61.5757 64.5584 61.7158 64.2714C61.8559 63.9844 61.9362 63.6719 61.9517 63.3529C61.9793 62.7808 62.2146 62.2384 62.6134 61.8274C63.0121 61.4165 63.547 61.1652 64.1177 61.1208C64.4355 61.0959 64.7449 61.0067 65.0271 60.8584C65.3093 60.7102 65.5584 60.5061 65.7593 60.2586C65.9603 60.011 66.1088 59.7252 66.1959 59.4184C66.283 59.1116 66.3069 58.7903 66.2661 58.4741C66.1914 57.9066 66.326 57.3314 66.6446 56.8561C66.9633 56.3808 67.4441 56.0381 67.9972 55.892C68.3075 55.8123 68.5983 55.67 68.8517 55.4738C69.1051 55.2775 69.3158 55.0316 69.4707 54.7509C69.6257 54.4703 69.7217 54.1609 69.7528 53.8418C69.7839 53.5227 69.7496 53.2006 69.6518 52.8953V52.8953C69.4771 52.3503 69.507 51.7602 69.7359 51.2357C69.9647 50.7111 70.3768 50.288 70.895 50.0456C71.1836 49.9103 71.4418 49.7177 71.6537 49.4795C71.8657 49.2412 72.027 48.9623 72.1279 48.6598C72.2288 48.3572 72.2671 48.0372 72.2406 47.7194C72.2141 47.4015 72.1232 47.0924 71.9736 46.8107C71.7035 46.3054 71.6271 45.7189 71.7586 45.1612C71.8901 44.6035 72.2205 44.113 72.6877 43.7817C72.9486 43.597 73.1691 43.3611 73.3358 43.0883C73.5025 42.8155 73.6119 42.5116 73.6573 42.1951C73.7027 41.8786 73.6831 41.5562 73.5998 41.2475C73.5165 40.9388 73.3711 40.6503 73.1727 40.3997C72.8174 39.951 72.6379 39.3881 72.6676 38.8165C72.6974 38.2448 72.9344 37.7036 73.3343 37.2942C73.5581 37.0659 73.7329 36.7944 73.8483 36.4962C73.9636 36.198 74.017 35.8794 74.0052 35.5599C73.9934 35.2403 73.9166 34.9266 73.7795 34.6377C73.6424 34.3489 73.4479 34.091 73.2079 33.8799C72.7784 33.5017 72.5015 32.9798 72.429 32.4119C72.3565 31.844 72.4934 31.2691 72.8141 30.795C72.9939 30.5298 73.1176 30.2307 73.1777 29.916C73.2378 29.6013 73.2331 29.2776 73.1637 28.9648C73.0944 28.652 72.9619 28.3567 72.7744 28.0969C72.587 27.8372 72.3484 27.6185 72.0735 27.4542ZM45.3084 68.02C39.152 69.6702 32.6448 69.4567 26.6097 67.4063C20.5745 65.356 15.2825 61.561 11.4028 56.5013C7.52305 51.4415 5.22984 45.3441 4.81315 38.9802C4.39646 32.6164 5.875 26.2717 9.06179 20.7487C12.2486 15.2256 17.0005 10.7721 22.7167 7.95138C28.4329 5.13065 34.8566 4.06934 41.1756 4.90167C47.4946 5.73399 53.425 8.42256 58.217 12.6274C63.0089 16.8323 66.4472 22.3645 68.0971 28.5247C69.1927 32.6153 69.4723 36.8817 68.9199 41.0804C68.3676 45.2791 66.9941 49.3279 64.8779 52.9954C62.7618 56.6629 59.9444 59.8774 56.5866 62.4554C53.2289 65.0333 49.3965 66.9242 45.3084 68.02V68.02Z" fill="#4C8900"/>
<path d="M41.9712 55.5581C38.2785 56.5478 34.3754 56.4197 30.7555 55.1899C27.1356 53.9601 23.9614 51.6838 21.6343 48.6489C19.3072 45.614 17.9317 41.9568 17.6818 38.1397C17.4318 34.3226 18.3185 30.517 20.2299 27.2042C22.1413 23.8914 24.9915 21.2201 28.42 19.5281C31.8486 17.8361 35.7016 17.1994 39.4917 17.6984C43.2819 18.1975 46.8391 19.8099 49.7135 22.3319C52.5879 24.8538 54.6504 28.172 55.6402 31.8668C56.9613 36.822 56.264 42.0993 53.7015 46.5407C51.1389 50.9822 46.9203 54.2252 41.9712 55.5581V55.5581ZM32.1991 19.0566C28.6768 20.0006 25.5133 21.9687 23.1088 24.7118C20.7043 27.455 19.1668 30.85 18.6907 34.4676C18.2146 38.0852 18.8213 41.7628 20.4341 45.0353C22.0468 48.3079 24.5932 51.0284 27.7512 52.8527C30.9092 54.677 34.537 55.5233 38.1757 55.2845C41.8143 55.0457 45.3005 53.7325 48.1933 51.511C51.0861 49.2895 53.2555 46.2595 54.4273 42.8042C55.599 39.3489 55.7205 35.6235 54.7762 32.0991C53.5054 27.3771 50.4149 23.3522 46.1824 20.9072C41.95 18.4621 36.9212 17.7966 32.1991 19.0566V19.0566Z" fill="#4C8900"/>
<path d="M12.2788 34.2489L12.6374 32.055L13.7307 32.2315L13.378 34.4165L12.2788 34.2489Z" fill="#4C8900"/>
<path d="M16.511 27.9937C16.1157 28.2772 15.6499 28.4461 15.1649 28.4819C14.6687 28.504 14.1751 28.3973 13.7322 28.1721C13.2893 27.9469 12.9122 27.6109 12.6374 27.1968C12.3797 26.7845 12.2394 26.3096 12.2319 25.8234C12.2265 25.3031 12.3507 24.7897 12.5933 24.3295C12.7896 23.9239 13.069 23.5642 13.4133 23.2737C13.7308 23.0098 14.1083 22.828 14.5125 22.7444L14.8534 23.9854C14.6157 24.0295 14.3913 24.1278 14.1976 24.2726C14.004 24.4175 13.8462 24.605 13.7366 24.8206C13.6058 25.0539 13.5389 25.3177 13.5426 25.5852C13.5526 25.8398 13.6363 26.0861 13.7836 26.2939C13.9423 26.5189 14.1544 26.7008 14.4008 26.8233C14.6437 26.9535 14.9159 27.0193 15.1914 27.0144C15.4451 27.0102 15.6921 26.9326 15.9026 26.7909C16.123 26.643 16.3012 26.4403 16.4199 26.2028C16.5274 25.9857 16.5833 25.7466 16.5833 25.5043C16.5833 25.262 16.5274 25.023 16.4199 24.8059L17.6337 24.3295C17.805 24.7051 17.8817 25.1171 17.857 25.5293C17.8291 25.9791 17.707 26.418 17.4985 26.8174C17.2705 27.2845 16.9314 27.6884 16.511 27.9937Z" fill="#4C8900"/>
<path d="M20.8077 20.1653L21.6894 20.921L18.9121 24.156L14.8916 20.6946L17.6013 17.5391L18.483 18.2949L16.752 20.3241L17.4309 20.9122L18.9532 19.1154L19.8026 19.8476L18.2655 21.6357L19.0032 22.2679L20.8077 20.1653Z" fill="#4C8900"/>
<path d="M23.4381 17.8126L22.771 18.2831L23.5851 19.4359L22.3595 20.3182L19.2971 15.9716L21.275 14.5718C21.6183 14.3137 22.0133 14.1331 22.433 14.0425C22.7873 13.9658 23.1564 13.9955 23.494 14.1277C23.8341 14.2679 24.1254 14.5052 24.3316 14.81C24.5407 15.0949 24.6641 15.4336 24.6872 15.7864C24.7054 16.1328 24.6227 16.4771 24.4491 16.7774L26.3447 17.4773L25.034 18.4066L23.4381 17.8126ZM22.5564 15.3511C22.3058 15.344 22.0613 15.4287 21.8687 15.5893L21.1898 16.0716L22.0715 17.3391L22.7504 16.8568C22.9643 16.7279 23.1249 16.5265 23.203 16.2892C23.2247 16.1871 23.2236 16.0814 23.1997 15.9797C23.1758 15.878 23.1298 15.7829 23.0649 15.7011C23.0127 15.6105 22.9416 15.5323 22.8563 15.4719C22.7711 15.4115 22.6738 15.3703 22.5711 15.3511H22.5564Z" fill="#4C8900"/>
<path d="M26.5565 12.9632L25.0429 13.566L24.6021 12.4632L29.0105 10.6987L29.4513 11.8015L27.9466 12.3897L29.4719 16.2128L28.0788 16.7686L26.5565 12.9632Z" fill="#4C8900"/>
<path d="M30.6208 10.3547L32.0903 10.0429L33.1895 15.2364L31.72 15.5305L30.6208 10.3547Z" fill="#4C8900"/>
<path d="M35.7466 10.7899L35.7848 11.9662L38.1359 11.8839L38.1771 13.0426L35.8259 13.1249L35.8876 14.9423L34.3858 14.9982L34.2036 9.70472L38.3593 9.56062L38.4005 10.7193L35.7466 10.7899Z" fill="#4C8900"/>
<path d="M40.1433 9.76649L41.6127 9.97823L40.8692 15.2306L39.385 15.0188L40.1433 9.76649Z" fill="#4C8900"/>
<path d="M46.5031 15.6423L46.1417 16.7421L42.1006 15.3982L43.7729 10.3635L47.7199 11.6751L47.3525 12.7779L44.8162 11.9339L44.5223 12.7809L46.7677 13.5278L46.412 14.5924L44.1784 13.8484L43.8845 14.7689L46.5031 15.6423Z" fill="#4C8900"/>
<path d="M49.8624 12.6456L51.9637 14.013C52.4157 14.2963 52.7975 14.6784 53.0805 15.1306C53.3306 15.5315 53.4602 15.996 53.4538 16.4686C53.4238 16.9598 53.267 17.4348 52.9986 17.8472C52.7302 18.2596 52.3594 18.5952 51.9226 18.8213C51.4928 19.0221 51.0136 19.0926 50.5442 19.0242C50.0171 18.9495 49.5143 18.7543 49.0747 18.4537L46.9734 17.0862L49.8624 12.6456ZM49.6684 17.4273C49.9938 17.6616 50.3976 17.7597 50.794 17.7008C50.9879 17.6615 51.1713 17.5814 51.3319 17.4658C51.4925 17.3502 51.6267 17.2018 51.7257 17.0303C51.8431 16.8714 51.9251 16.6892 51.9662 16.4959C52.0072 16.3027 52.0064 16.1028 51.9637 15.9099C51.857 15.5223 51.6041 15.1913 51.2584 14.9865L50.4649 14.4689L48.8778 16.9098L49.6684 17.4273Z" fill="#4C8900"/>
<path d="M55.8402 20.7475L57.2185 22.4826L56.3369 23.1708L54.9614 21.4357L55.8402 20.7475Z" fill="#4C8900"/>
<path d="M17.6895 51.2704L19.0356 53.0349L18.1539 53.7083L16.8079 51.9438L17.6895 51.2704Z" fill="#4C8900"/>
<path d="M21.3925 58.6312C21.1659 58.2012 21.0641 57.7163 21.0986 57.2314C21.1398 56.7323 21.3106 56.2526 21.5941 55.84C21.8776 55.4273 22.2641 55.0959 22.715 54.8787C23.1571 54.6769 23.6467 54.6026 24.1287 54.6641C24.6484 54.7284 25.1437 54.9226 25.5688 55.2287C25.9434 55.4787 26.2617 55.8042 26.5033 56.1845C26.7221 56.5403 26.8512 56.944 26.8795 57.3608L25.6011 57.5284C25.5908 57.2868 25.5247 57.0508 25.4079 56.8391C25.2911 56.6273 25.1269 56.4455 24.9281 56.308C24.7112 56.1466 24.4558 56.0452 24.1874 56.0139C23.9337 55.9891 23.6783 56.0392 23.4527 56.158C23.2117 56.2901 23.0049 56.4766 22.8488 56.7028C22.6927 56.929 22.5915 57.1886 22.5534 57.4608C22.5237 57.7129 22.5676 57.9683 22.6798 58.196C22.8016 58.4341 22.9828 58.6367 23.2058 58.7842C23.4051 58.9217 23.6335 59.0112 23.8731 59.0459C24.1127 59.0806 24.3571 59.0595 24.5871 58.9841L24.881 60.2369C24.4857 60.3576 24.0668 60.3788 23.6614 60.2987C23.2211 60.2073 22.8047 60.025 22.4388 59.7635C22.0005 59.48 21.6407 59.0906 21.3925 58.6312V58.6312Z" fill="#4C8900"/>
<path d="M30.4475 62.1838L30.0389 63.2719L26.0537 61.775L27.9199 56.808L31.8141 58.2784L31.4085 59.3665L28.9045 58.4254L28.59 59.2635L30.7942 60.0929L30.4034 61.1427L28.1962 60.3134L27.8553 61.2221L30.4475 62.1838Z" fill="#4C8900"/>
<path d="M34.4916 62.6073L33.6805 62.5161L33.5247 63.9189L32.0347 63.7513L32.6225 58.4784L35.0324 58.746C35.46 58.7841 35.8746 58.9124 36.2491 59.1224C36.5695 59.299 36.8282 59.5695 36.9906 59.8975C37.1529 60.2256 37.2111 60.5954 37.1573 60.9575C37.1316 61.3076 37.002 61.6421 36.7853 61.9182C36.5686 62.1943 36.2744 62.3994 35.9405 62.5073L36.8957 64.2894L35.2998 64.113L34.4916 62.6073ZM35.4762 60.1929C35.2956 60.0171 35.0576 59.9126 34.8061 59.8988L33.9773 59.8076L33.8069 61.3515L34.6356 61.4427C34.8805 61.4889 35.1337 61.4461 35.3498 61.3221C35.5165 61.1867 35.6232 60.9911 35.6468 60.7775C35.6705 60.564 35.6092 60.3498 35.4762 60.1811V60.1929Z" fill="#4C8900"/>
<path d="M39.3115 59.9576L37.6951 60.1664L37.5422 58.99L42.2446 58.3754L42.4003 59.5517L40.7927 59.7635L41.3247 63.8424L39.8346 64.0365L39.3115 59.9576Z" fill="#4C8900"/>
<path d="M42.8088 58.1049L44.2401 57.6579L45.8242 62.719L44.3929 63.169L42.8088 58.1049Z" fill="#4C8900"/>
<path d="M47.1585 57.6667L47.6992 58.7019L49.7741 57.6226L50.309 58.6489L48.2341 59.7311L49.0805 61.3457L47.7433 62.0515L45.2952 57.3461L48.9836 55.4258L49.5184 56.4551L47.1585 57.6667Z" fill="#4C8900"/>
<path d="M49.5273 54.9023L50.7029 53.9848L53.9358 58.1813L52.7602 59.0989L49.5273 54.9023Z" fill="#4C8900"/>
<path d="M57.5123 52.9172L58.3764 53.6907L55.5461 56.8638L51.5962 53.3348L54.3706 50.2264L55.2346 50.9998L53.4536 52.9937L54.1178 53.5819L55.6902 51.8174L56.5248 52.5673L54.9554 54.3318L55.6755 54.9788L57.5123 52.9172Z" fill="#4C8900"/>
<path d="M54.8704 49.5853L56.0048 47.3473C56.236 46.8667 56.5737 46.4453 56.9923 46.1151C57.3667 45.8218 57.8178 45.6431 58.2913 45.6005C58.7822 45.5764 59.2708 45.681 59.7089 45.9038C60.147 46.1266 60.5195 46.4599 60.7894 46.8709C61.0323 47.2811 61.1508 47.7532 61.1303 48.2295C61.1103 48.7629 60.9696 49.2848 60.7189 49.7558L59.5844 51.9938L54.8704 49.5853ZM59.6373 49.2588C59.8362 48.9101 59.8901 48.4971 59.7872 48.109C59.6478 47.7423 59.3773 47.4403 59.0283 47.2616C58.6792 47.0829 58.2763 47.0401 57.8975 47.1414C57.5236 47.2895 57.2221 47.5775 57.0569 47.9443L56.6308 48.7883L59.223 50.1058L59.6373 49.2588Z" fill="#4C8900"/>
<path d="M60.5425 42.1714L60.8364 39.9952L61.9297 40.154L61.6152 42.345L60.5425 42.1714Z" fill="#4C8900"/>
<path d="M32.5343 20.3094C29.2596 21.1871 26.3185 23.0168 24.0831 25.5672C21.8477 28.1176 20.4184 31.274 19.9758 34.6373C19.5332 38.0006 20.0974 41.4196 21.5968 44.4621C23.0963 47.5045 25.4638 50.0337 28.3998 51.7297C31.3358 53.4257 34.7086 54.2124 38.0914 53.9903C41.4743 53.7682 44.7154 52.5472 47.4048 50.4818C50.0941 48.4164 52.111 45.5993 53.2003 42.3869C54.2895 39.1745 54.4023 35.711 53.5243 32.4344C52.3472 28.0416 49.4747 24.2965 45.5384 22.0227C41.6022 19.7489 36.9246 19.1326 32.5343 20.3094ZM35.9082 50.9292L23.6675 43.8565L27.2295 37.6808L33.2984 41.1863L42.8735 24.5912L49.0453 28.1584L35.9082 50.9292Z" fill="#4C8900"/>
</g>
<defs>
<clipPath id="clip0">
<rect width="74" height="74" fill="white"/>
</clipPath>
</defs>
</svg>
