<svg width="158" height="158" viewBox="0 0 158 158" fill="none" xmlns="http://www.w3.org/2000/svg">
<path d="M38.4128 156.908L103.821 138.418C105.814 137.854 106.972 135.783 106.409 133.791L105.321 129.943C104.195 125.958 100.052 123.642 96.0676 124.768L94.8485 120.456C93.2342 114.746 87.2748 111.413 81.5645 113.027L44.0827 123.623C38.3724 125.237 35.0398 131.197 36.654 136.907L37.8732 141.22C33.8885 142.346 31.5719 146.488 32.6984 150.473L33.786 154.321C34.349 156.312 36.4214 157.471 38.4128 156.908Z" fill="black" fill-opacity="0.04"/>
<path d="M67.6018 101.482C70.8984 103.986 75.6021 103.343 78.1057 100.046C80.6105 96.7487 79.9667 92.0453 76.6698 89.5405L46.818 66.8703C43.5202 64.3657 38.8177 65.0093 36.3138 68.306C33.8092 71.6038 34.4519 76.3065 37.7497 78.8111L67.6018 101.482Z" fill="black" fill-opacity="0.04"/>
<path d="M108.408 47.7488C111.706 50.2524 116.409 49.6098 118.913 46.3119C121.417 43.0153 120.774 38.3126 117.477 35.808L87.6248 13.1378C84.3279 10.633 79.6243 11.2759 77.1207 14.5735C74.617 17.8711 75.2597 22.5738 78.5575 25.0784L108.408 47.7488Z" fill="black" fill-opacity="0.04"/>
<path d="M98.5095 73.1788C102.705 67.6539 105.298 61.5336 106.316 55.5731L71.5813 29.194C66.113 31.7755 60.9135 35.9143 56.7169 41.4403C52.5209 46.9652 49.9286 53.0855 48.9099 59.0451L83.6453 85.4261C89.1136 82.8445 94.3128 78.7048 98.5095 73.1788Z" fill="black" fill-opacity="0.04"/>
<path d="M108.515 71.3646C107.319 73.5509 106.015 75.692 104.48 77.7133C102.944 79.734 101.232 81.5663 99.4479 83.3051L105.916 88.2175L114.984 76.2777L108.515 71.3646Z" fill="black" fill-opacity="0.04"/>
<path d="M120.954 80.8114L111.886 92.7513L141.738 115.422C145.036 117.927 149.738 117.283 152.242 113.987C154.747 110.689 154.103 105.986 150.806 103.482L120.954 80.8114Z" fill="black" fill-opacity="0.04"/>
</svg>
