<svg width="166" height="147" viewBox="0 0 166 147" fill="none" xmlns="http://www.w3.org/2000/svg">
<g opacity="0.05">
<path d="M68.1308 86.9268L60.0736 78.8696L5.22571 129.502C1.60122 132.848 1.48743 138.537 4.97544 142.025C8.46344 145.513 14.1527 145.399 17.4984 141.775L68.1308 86.9268Z" fill="#873F30"/>
<path d="M17.2563 142.028C13.8837 145.401 8.38016 145.429 4.97644 142.026C3.96949 141.019 3.26405 139.829 2.85815 138.565C5.86635 139.543 9.2986 138.828 11.6717 136.454C11.755 136.371 11.8383 136.282 11.9191 136.197L62.5527 81.3474L68.1318 86.9265L17.4981 141.776C17.4174 141.862 17.337 141.947 17.2563 142.028V142.028Z" fill="#6C3328"/>
<path d="M76.0652 59.7791L57.5122 81.9102L65.0912 89.4892L87.2224 70.9362L76.0652 59.7791Z" fill="#873F30"/>
<path d="M76.0651 59.7791L70.0698 66.9305L71.8688 68.7294C73.1928 70.0534 73.1928 72.2002 71.8688 73.5242L60.4973 84.8957L65.0911 89.4895L87.2223 70.9362L76.0651 59.7791Z" fill="#6C3328"/>
<path d="M60.5844 93.7735L53.2271 86.4162C51.1001 84.2892 51.1001 80.8407 53.2271 78.7137C55.3542 76.5866 58.8026 76.5866 60.9296 78.7137L68.2869 86.071C70.414 88.198 70.414 91.6464 68.2869 93.7735C66.1599 95.9005 62.7114 95.9005 60.5844 93.7735Z" fill="#BA5D4F"/>
<path d="M68.2846 93.7734C67.2203 94.8377 65.8256 95.3684 64.4358 95.3684C63.0411 95.3684 61.6464 94.8374 60.5821 93.7734L55.0056 88.1969C56.0699 89.2612 57.4646 89.792 58.8567 89.7894C60.2488 89.792 61.6438 89.2612 62.7081 88.1969C64.8368 86.0683 64.8342 82.6205 62.7081 80.4944L68.2846 86.0709C70.4133 88.1995 70.4133 91.6447 68.2846 93.7734Z" fill="#A34F41"/>
<path d="M85.6782 9.19604L102.014 25.532L76.3674 51.1787L60.0315 34.8428L85.6782 9.19604Z" fill="#BA5D4F"/>
<path d="M112.149 86.9856L95.8135 70.6497L121.46 45.003L137.796 61.3389L112.149 86.9856Z" fill="#A34F41"/>
<path d="M55.436 40.4729L54.8686 39.9056C52.717 37.7539 52.717 34.2649 54.8686 32.1132L82.9406 4.04125C85.0923 1.88957 88.5813 1.88957 90.733 4.04125L91.3003 4.60859C93.452 6.76027 93.452 10.2492 91.3003 12.4009L63.2283 40.4729C61.0766 42.6249 57.5877 42.6249 55.436 40.4729Z" fill="#873F30"/>
<path d="M106.528 91.565L107.095 92.1323C109.247 94.284 112.736 94.284 114.887 92.1323L142.959 64.0603C145.111 61.9087 145.111 58.4197 142.959 56.268L142.392 55.7007C140.24 53.549 136.751 53.549 134.6 55.7007L106.528 83.7727C104.376 85.9243 104.376 89.4133 106.528 91.565V91.565Z" fill="#6C3328"/>
<path d="M109.104 19.5308L127.449 37.8759L88.715 76.61L70.3699 58.2649L109.104 19.5308Z" fill="#FCC16D"/>
<path d="M79.4175 67.3467L118.152 28.6123L127.437 37.8975L88.7026 76.6318L79.4175 67.3467Z" fill="#FCA62F"/>
<path d="M109.193 18.7597L104.699 16.9222C103.158 16.2923 101.39 16.6483 100.213 17.8254L68.6528 49.3854C67.4756 50.5625 67.1197 52.3307 67.7496 53.8713L69.5871 58.3659C70.3321 60.1885 72.6932 60.6638 74.0853 59.2714L110.099 23.2579C111.491 21.8658 111.016 19.5047 109.193 18.7597V18.7597Z" fill="#873F30"/>
<path d="M128.241 37.8078L130.079 42.3025C130.709 43.8434 130.353 45.6115 129.176 46.7883L97.6157 78.3483C96.4386 79.5255 94.6704 79.8814 93.1298 79.2515L88.6352 77.414C86.8126 76.669 86.3373 74.3079 87.7297 72.9158L123.743 36.9024C125.135 35.5103 127.496 35.9855 128.241 37.8078V37.8078Z" fill="#6C3328"/>
<path d="M144.879 126.135H77.9609V116.744C77.9609 114.806 79.5326 113.234 81.4713 113.234H141.368C143.307 113.234 144.879 114.806 144.879 116.744V126.135Z" fill="#BA5D4F"/>
<path d="M144.878 116.745V126.135H137.534V116.745C137.534 114.807 135.962 113.235 134.024 113.235H141.368C143.305 113.235 144.878 114.807 144.878 116.745Z" fill="#A34F41"/>
<path d="M159.627 144.568H63.2132C60.656 144.568 58.9569 141.921 60.0215 139.595L63.4298 132.153C66.3822 125.707 72.8216 121.573 79.912 121.573H142.927C150.018 121.573 156.458 125.707 159.41 132.153L162.818 139.595C163.883 141.921 162.184 144.568 159.627 144.568V144.568Z" fill="#873F30"/>
<path d="M159.629 144.568H150.242C152.797 144.568 154.496 141.921 153.433 139.597L150.024 132.152C147.072 125.707 140.631 121.572 133.543 121.572H142.926C150.017 121.572 156.459 125.707 159.411 132.152L162.82 139.597C163.883 141.921 162.184 144.568 159.629 144.568Z" fill="#6C3328"/>
<path d="M113.234 20.2862C112.891 18.5797 111.724 17.1678 110.113 16.509L105.618 14.6715C103.165 13.6685 100.368 14.2313 98.4928 16.1061L97.2573 17.3416L93.5018 13.5861C96.1022 10.4693 95.9437 5.81424 93.0191 2.8897L92.4515 2.32203C89.3548 -0.774011 84.3168 -0.774011 81.2204 2.32203L53.1486 30.3939C50.0525 33.4903 50.0525 38.5286 53.1489 41.6253L53.7162 42.1923C55.2163 43.6923 57.2104 44.5184 59.3319 44.5184C61.2116 44.5184 62.9904 43.8687 64.4152 42.6773L68.1684 46.4304L66.9329 47.6659C65.0581 49.5408 64.4953 52.3376 65.4987 54.7914L67.3362 59.2857C67.9486 60.7841 69.2133 61.8974 70.7597 62.3224L59.9388 75.2298C57.1151 74.1337 53.7833 74.7189 51.5081 76.9944C49.2988 79.2038 48.6877 82.4075 49.6567 85.1764L3.5762 127.715C1.33246 129.786 0.0635663 132.608 0.00229378 135.661C-0.0586545 138.714 1.09677 141.585 3.25622 143.744C5.3612 145.849 8.14213 147 11.1091 147C11.1853 147 11.2622 146.999 11.3387 146.998C14.3916 146.937 17.2137 145.668 19.285 143.424L42.3604 118.427C43.2714 117.44 43.2098 115.902 42.2233 114.991C41.2367 114.08 39.6981 114.142 38.7875 115.128L15.712 140.125C14.5469 141.388 12.9593 142.101 11.2417 142.136C9.52222 142.167 7.90936 141.52 6.69494 140.305C5.48018 139.091 4.83018 137.476 4.86454 135.758C4.89891 134.041 5.6131 132.453 6.87519 131.288L52.5225 89.1494L57.851 94.4778L46.572 106.696C45.661 107.683 45.7226 109.221 46.7091 110.132C47.1766 110.564 47.7679 110.777 48.3576 110.777C49.0125 110.777 49.6658 110.513 50.1449 109.994L61.8136 97.354C62.6448 97.6468 63.5282 97.7998 64.4357 97.7998C66.54 97.7998 68.5182 96.9802 70.0063 95.4925C71.4943 94.0045 72.3139 92.0263 72.3139 89.9219C72.3139 88.9254 72.1281 87.958 71.7764 87.0567L84.6786 76.2406C85.1036 77.787 86.2169 79.0517 87.715 79.6644L92.2096 81.502C93.0172 81.832 93.8617 81.9925 94.6984 81.9925C96.4043 81.9925 98.0772 81.325 99.335 80.0674L100.571 78.8319L104.326 82.5874C101.726 85.7042 101.884 90.3593 104.809 93.2838L105.376 93.8511C106.925 95.3995 108.958 96.1733 110.992 96.1733C113.025 96.1733 115.059 95.3992 116.607 93.8511L144.679 65.7793C147.775 62.6829 147.775 57.6446 144.679 54.5482L144.112 53.9809C141.187 51.0564 136.532 50.8978 133.416 53.4979L129.66 49.7424L130.896 48.5069C132.77 46.6321 133.333 43.8353 132.33 41.3815L130.493 36.8868C129.834 35.2756 128.422 34.1088 126.715 33.7652C126.615 33.6002 113.404 20.387 113.234 20.2862V20.2862ZM74.308 65.6593L81.3414 72.6927L68.833 83.1787L63.822 78.1673L74.308 65.6593ZM138.496 56.5184C139.318 56.5184 140.091 56.8387 140.673 57.4199L141.24 57.9873C142.44 59.1878 142.44 61.1407 141.24 62.3412L113.168 90.4128C111.968 91.6132 110.015 91.6132 108.814 90.4128L108.247 89.8454C107.047 88.6449 107.047 86.692 108.247 85.4915L136.319 57.4196C136.9 56.8387 137.673 56.5184 138.496 56.5184V56.5184ZM129.951 56.9113L107.738 79.1234L104.009 75.3938L126.221 53.1818L129.951 56.9113ZM127.456 45.0692L95.896 76.6293C95.41 77.115 94.6851 77.2612 94.0494 77.0009L89.5548 75.1633C89.5149 75.1471 89.3943 75.0979 89.3599 74.9277C89.3256 74.7575 89.418 74.6651 89.4481 74.6349L125.461 38.6216C125.487 38.596 125.557 38.5256 125.682 38.5256C125.704 38.5256 125.729 38.5279 125.755 38.5331C125.924 38.5671 125.974 38.6881 125.99 38.7279L127.828 43.2229C128.088 43.8586 127.942 44.5835 127.456 45.0692V45.0692ZM121.667 35.5392L86.366 70.8406L76.1601 60.6346L111.461 25.3333L121.667 35.5392ZM59.3319 39.6555C58.5094 39.6555 57.7365 39.3352 57.1553 38.7536C57.1553 38.7536 57.1549 38.7536 57.1549 38.7532L56.5876 38.1862C55.3871 36.9857 55.3871 35.0325 56.5876 33.8323L84.6595 5.76075C85.2599 5.16034 86.048 4.86047 86.8364 4.86047C87.6249 4.86047 88.413 5.16067 89.0131 5.76043L89.5807 6.32809C90.162 6.90937 90.4823 7.68257 90.4823 8.50504C90.4823 9.32752 90.162 10.1004 89.5807 10.682L61.5089 38.7539C60.9272 39.3352 60.1544 39.6555 59.3319 39.6555V39.6555ZM70.3713 51.1043L87.7286 33.747C88.6782 32.7975 88.6782 31.2579 87.7286 30.3086C86.779 29.3591 85.2395 29.3591 84.2902 30.3086L71.6071 42.9917L67.8776 39.2622L90.0897 17.0501L93.8192 20.7796L92.4041 22.1947C91.4546 23.1443 91.4546 24.6839 92.4041 25.6331C93.3537 26.5827 94.8933 26.5827 95.8425 25.6331L101.932 19.5441C102.417 19.0582 103.142 18.912 103.778 19.1726L108.273 21.0101C108.313 21.0264 108.433 21.0756 108.468 21.2458C108.502 21.416 108.41 21.5084 108.379 21.5386L72.3658 57.5519C72.3353 57.582 72.2435 57.6738 72.073 57.6401C71.9031 57.606 71.8539 57.4851 71.8376 57.4452L70.0001 52.9506C69.7398 52.3149 69.8857 51.5903 70.3713 51.1043V51.1043ZM54.9465 80.4331C55.5343 79.8453 56.3062 79.5516 57.0784 79.5516C57.8503 79.5516 58.6226 79.8453 59.2103 80.4331L66.5672 87.7903C67.1368 88.3596 67.4503 89.1166 67.4503 89.9222C67.4503 90.7275 67.1368 91.4845 66.5669 92.0541C65.9976 92.6237 65.2406 92.9372 64.435 92.9372C63.6297 92.9372 62.8727 92.6234 62.3031 92.0541L54.9462 84.6972C53.771 83.5217 53.771 81.6086 54.9465 80.4331V80.4331Z" fill="black"/>
<path d="M161.621 131.141C158.903 125.208 153.537 120.984 147.31 119.618V116.744C147.31 113.468 144.645 110.802 141.368 110.802H99.7114C98.3686 110.802 97.28 111.891 97.28 113.234C97.28 114.577 98.3686 115.665 99.7114 115.665H141.368C141.963 115.665 142.447 116.149 142.447 116.744V119.142H80.3925V116.744C80.3925 116.149 80.8765 115.665 81.4714 115.665H88.2366C89.5794 115.665 90.6681 114.577 90.6681 113.234C90.6681 111.891 89.5794 110.802 88.2366 110.802H81.4714C78.1951 110.802 75.5296 113.468 75.5296 116.744V119.618C69.3034 120.984 63.9364 125.208 61.219 131.141L57.8105 138.583C56.964 140.431 57.1144 142.556 58.2125 144.267C59.3105 145.978 61.1798 146.999 63.2128 146.999H159.627C161.66 146.999 163.529 145.978 164.627 144.267C165.725 142.556 165.875 140.431 165.029 138.583L161.621 131.141ZM160.535 141.64C160.416 141.825 160.14 142.136 159.627 142.136H63.2131C62.7003 142.136 62.4241 141.825 62.3051 141.64C62.1861 141.455 62.0185 141.074 62.2321 140.608L65.6407 133.166C68.1895 127.601 73.7916 124.005 79.9123 124.005H142.928C149.049 124.005 154.651 127.601 157.199 133.166L160.608 140.608C160.821 141.074 160.654 141.455 160.535 141.64Z" fill="black"/>
<path d="M154.514 107.422C155.134 107.422 155.754 107.186 156.229 106.714L158.86 104.099C159.812 103.152 159.817 101.613 158.87 100.66C157.924 99.708 156.384 99.7031 155.432 100.65L152.8 103.265C151.848 104.212 151.843 105.752 152.79 106.704C153.265 107.182 153.89 107.422 154.514 107.422V107.422Z" fill="black"/>
<path d="M145.394 95.3211L144.481 98.9598C144.154 100.262 144.945 101.583 146.248 101.91C146.446 101.96 146.645 101.984 146.841 101.984C147.93 101.984 148.921 101.247 149.198 100.143L150.111 96.5044C150.437 95.2018 149.646 93.8813 148.344 93.5545C147.042 93.2274 145.72 94.0181 145.394 95.3211Z" fill="black"/>
<path d="M157.549 113.272C157.82 114.383 158.814 115.127 159.909 115.127C160.1 115.127 160.294 115.104 160.488 115.056L164.133 114.165C165.437 113.846 166.236 112.53 165.917 111.225C165.598 109.921 164.283 109.122 162.978 109.441L159.333 110.333C158.029 110.651 157.23 111.968 157.549 113.272V113.272Z" fill="black"/>
</g>
</svg>
