<svg width="72" height="72" viewBox="0 0 72 72" fill="none" xmlns="http://www.w3.org/2000/svg">
<g clip-path="url(#clip0)">
<path d="M71.873 29.6256C71.873 23.6213 69.5348 17.9765 65.2892 13.7309C60.3817 8.82323 53.6421 6.49195 46.7555 7.30392C46.3929 6.60389 45.8121 6.02648 45.087 5.67366L39.1768 2.79787C38.6747 2.55347 38.114 2.42423 37.5561 2.42423C36.566 2.42423 35.635 2.80969 34.935 3.50972L31.7272 6.71752L30.5983 5.58858C29.4124 4.40269 27.6165 4.19091 26.2118 4.95155L22.347 1.08689C22.3465 1.08647 22.3461 1.08591 22.3457 1.08548C21.6457 0.385453 20.7152 0 19.7252 0C18.7352 0 17.8046 0.385453 17.1048 1.08548L13.3553 4.83483C12.6552 5.53486 12.2698 6.46537 12.2698 7.45537C12.2698 8.08298 12.4252 8.68641 12.717 9.22261L9.34801 12.5916C8.81181 12.2999 8.20839 12.1445 7.58078 12.1445C6.59092 12.1445 5.66026 12.53 4.96023 13.2299L1.21089 16.9792C-0.234033 18.4241 -0.234033 20.7752 1.21089 22.2202L5.01465 26.0239C4.59967 26.633 4.37594 27.3514 4.37594 28.1046C4.37594 29.0946 4.76139 30.0251 5.46142 30.725L6.59036 31.854L3.38256 35.0618C2.26558 36.1786 1.9794 37.8834 2.67058 39.3038L6.45972 47.091C6.82815 47.8482 7.02222 48.6759 7.02095 49.4851C7.01125 55.5036 9.349 61.1613 13.6037 65.4162C17.8495 69.6618 23.4943 72 29.4987 72C35.5031 72 41.1478 69.6618 45.3936 65.4162C49.0151 61.7946 51.288 57.0435 51.8426 51.9718C56.9212 51.4252 61.6262 49.1836 65.2892 45.5205C69.5348 41.2748 71.873 35.63 71.873 29.6256V29.6256ZM46.086 11.6265C46.6948 11.0177 47.0641 10.2202 47.1501 9.38137C53.3386 8.69625 59.3856 10.8105 63.7975 15.2225C67.6447 19.0697 69.7636 24.185 69.7636 29.6257C69.7636 33.892 68.4604 37.9578 66.0431 41.3693C65.8644 40.9742 65.6135 40.6041 65.2892 40.2796C64.8102 39.8007 64.2234 39.4692 63.5834 39.3075C67.7279 33.2371 67.5993 25.0154 62.9281 19.0475C62.569 18.5888 61.9061 18.5079 61.4475 18.8671C60.9888 19.2261 60.908 19.889 61.2671 20.3476C65.9511 26.3319 65.4272 34.9007 60.0483 40.2795C57.6903 42.6375 54.682 44.115 51.4229 44.5496C50.4894 40.411 48.417 36.6498 45.3936 33.6265C42.3718 30.6049 38.6094 28.5315 34.4717 27.5978C34.8969 24.4406 36.3192 21.3933 38.7406 18.9719C44.1197 13.593 52.6889 13.0691 58.6731 17.7535C59.1318 18.1126 59.7947 18.0318 60.1537 17.5731C60.5127 17.1143 60.432 16.4514 59.9733 16.0924C55.4885 12.5819 49.7307 11.6369 44.5697 13.1428L46.086 11.6265ZM45.8489 44.2683C45.0201 41.6797 43.5752 39.3069 41.6442 37.376C39.7142 35.4458 37.3427 34.0013 34.7553 33.1725C34.4839 32.0438 34.3444 30.8898 34.3361 29.735C37.9542 30.615 41.2444 32.4606 43.902 35.1181C46.5609 37.7769 48.4051 41.0655 49.2848 44.6836C48.1123 44.6754 46.9614 44.5345 45.8489 44.2683V44.2683ZM43.259 43.3917C41.5952 42.6513 40.0653 41.6043 38.7406 40.2795C37.3986 38.9374 36.3642 37.4027 35.6352 35.764C37.3102 36.5106 38.8466 37.5618 40.1526 38.8676C41.4602 40.1752 42.5122 41.714 43.259 43.3917V43.3917ZM36.4263 5.00119C36.7281 4.69955 37.1292 4.53347 37.556 4.53347C37.7994 4.53347 38.0343 4.58761 38.2539 4.69448L44.164 7.57027C44.6342 7.79892 44.9533 8.226 45.0399 8.74167C45.1264 9.25734 44.964 9.76514 44.5943 10.1348L37.2489 17.4803C30.552 24.1772 30.552 35.074 37.2489 41.771C40.4884 45.0105 44.8007 46.7945 49.3928 46.7942H49.3945C53.9876 46.7938 58.3008 45.0098 61.5397 41.771C61.8412 41.4693 62.2421 41.3034 62.6685 41.3034C63.0949 41.3034 63.496 41.4695 63.7973 41.771C64.4199 42.3934 64.4199 43.4063 63.7973 44.0288C59.9502 47.8761 54.835 49.9949 49.3941 49.9949C43.9532 49.9949 38.8382 47.8761 34.9908 44.0288C32.0276 41.0656 30.0919 37.3508 29.3581 33.3142C29.353 33.2757 29.3462 33.238 29.3373 33.201C29.1299 32.0217 29.024 30.8156 29.026 29.5928C29.0278 28.4648 28.7602 27.3164 28.2521 26.2723L24.463 18.4852C24.1652 17.8733 24.2884 17.139 24.7697 16.6577L36.4263 5.00119ZM11.8313 26.6131L10.7024 25.4842C9.61084 24.3927 8.00223 24.1263 6.65772 24.6839L5.06851 23.0947C5.58306 22.913 6.05458 22.6174 6.45184 22.2202L10.2013 18.4707C11.3872 17.2848 11.599 15.489 10.8384 14.0842L14.2086 10.7139C14.7448 11.0057 15.3483 11.1611 15.9758 11.1611C16.9657 11.1611 17.8963 10.7757 18.5962 10.0756L22.3456 6.3263C22.7496 5.92228 23.0404 5.44739 23.2186 4.94128L24.7189 6.44161C24.4271 6.97781 24.2717 7.58123 24.2717 8.20884C24.2717 9.19884 24.6572 10.1294 25.3572 10.8293L26.4861 11.9582L23.2783 15.166C22.1613 16.2828 21.8752 17.9876 22.5663 19.4081L25.7169 25.8829C25.5515 25.7652 25.3765 25.6593 25.1911 25.5691L19.2809 22.6934C17.8605 22.0023 16.1558 22.2884 15.039 23.4052L11.8313 26.6131ZM26.1903 31.5222C26.503 31.2095 26.7525 30.8468 26.9333 30.4546C26.9583 31.1496 27.0143 31.8389 27.1014 32.5211C26.276 32.6363 25.4643 32.8102 24.6715 33.041L26.1903 31.5222ZM27.9777 6.61247C28.4041 6.61247 28.805 6.77855 29.1067 7.08005L30.2356 8.20898L27.9777 10.4669L26.8488 9.33778C26.5472 9.03628 26.3812 8.63536 26.3812 8.20898C26.3812 7.78261 26.5473 7.38169 26.8488 7.08005C27.1503 6.77841 27.5512 6.61247 27.9777 6.61247V6.61247ZM14.8469 6.32644L18.5964 2.57695C18.8979 2.27531 19.2988 2.10938 19.7252 2.10938C20.1515 2.10938 20.5525 2.27545 20.8541 2.57695C21.1557 2.87845 21.3217 3.27952 21.3217 3.70589C21.3217 4.13227 21.1556 4.53319 20.8541 4.83483L17.1048 8.58417C16.8031 8.88581 16.4022 9.05175 15.9758 9.05175C15.5493 9.05175 15.1484 8.88567 14.8469 8.58403C14.5452 8.28253 14.3793 7.88161 14.3793 7.45523C14.3793 7.02886 14.5452 6.62794 14.8469 6.32644V6.32644ZM2.7025 18.4708L6.45184 14.7213C6.75348 14.4198 7.15441 14.2538 7.58078 14.2538C8.00716 14.2538 8.40808 14.4198 8.70972 14.7215C9.01136 15.023 9.1773 15.4239 9.1773 15.8503C9.1773 16.2766 9.01122 16.6776 8.70972 16.9792L4.96023 20.7287C4.65873 21.0302 4.25781 21.1963 3.8313 21.1963C3.40478 21.1963 3.00386 21.0302 2.70236 20.7287C2.40072 20.427 2.23478 20.0261 2.23478 19.5998C2.23492 19.1732 2.40086 18.7723 2.7025 18.4708V18.4708ZM6.95303 29.2335C6.65139 28.932 6.48545 28.5311 6.48545 28.1048C6.48545 27.6784 6.65153 27.2775 6.95303 26.9758C7.25453 26.6742 7.65559 26.5082 8.08197 26.5082C8.50834 26.5082 8.90927 26.6743 9.21091 26.9758L10.3398 28.1048L8.08197 30.3626L6.95303 29.2335ZM15.0954 63.9246C11.24 60.0691 9.12161 54.9423 9.13047 49.4886C9.1323 48.3604 8.86469 47.2122 8.35661 46.168L4.56747 38.3809C4.26976 37.7691 4.39295 37.0347 4.87417 36.5535L16.5307 24.897C17.0118 24.4157 17.7463 24.2924 18.3581 24.5904L24.2683 27.4662C24.7386 27.6948 25.0578 28.1219 25.1443 28.6376C25.2308 29.1533 25.0683 29.661 24.6986 30.0308L18.7404 35.989C18.3285 36.4009 18.3285 37.0688 18.7404 37.4805C18.9676 37.7078 19.2729 37.809 19.57 37.7854C19.6055 37.789 19.6411 37.7913 19.6766 37.7913C19.9011 37.7913 20.1275 37.7198 20.319 37.5723C22.4039 35.9681 24.8587 34.9515 27.4659 34.6005C28.3881 38.7049 30.4518 42.4725 33.4995 45.5203C36.5464 48.5672 40.3141 50.6315 44.4179 51.5544C43.9766 54.8101 42.4835 57.8441 40.1525 60.1751C34.2782 66.0496 24.7195 66.0496 18.8448 60.1751C13.4659 54.7962 12.942 46.2271 17.6263 40.2429C17.9853 39.7842 17.9046 39.1213 17.4459 38.7623C16.9873 38.4033 16.3244 38.484 15.9653 38.9427C10.6245 45.7656 11.2213 55.5346 17.3532 61.6667C20.7021 65.0156 25.0997 66.6899 29.4986 66.6894C33.8965 66.6892 38.296 65.0149 41.644 61.6667C41.9455 61.3651 42.3464 61.1992 42.7728 61.1992C43.1991 61.1992 43.6002 61.3652 43.9015 61.6667C44.5241 62.2891 44.5241 63.3021 43.9015 63.9246C40.0548 67.7718 34.9395 69.8906 29.4987 69.8906C24.058 69.8906 18.9427 67.7718 15.0954 63.9246V63.9246ZM46.1448 61.2589C45.9662 60.866 45.7162 60.498 45.3934 60.1753C44.9136 59.6955 44.3255 59.3636 43.6841 59.2021C45.1632 57.0317 46.1316 54.5401 46.4996 51.9197C47.452 52.0414 48.4183 52.1042 49.3942 52.1042C49.4976 52.1042 49.6007 52.1018 49.7037 52.1004C49.2827 55.4067 48.0541 58.551 46.1448 61.2589V61.2589Z" fill="#313B4E"/>
</g>
<defs>
<clipPath id="clip0">
<rect width="72" height="72" fill="white"/>
</clipPath>
</defs>
</svg>
