<svg width="77" height="77" viewBox="0 0 77 77" fill="none" xmlns="http://www.w3.org/2000/svg">
<path d="M38.5 45.7188C41.1541 45.7188 43.3125 43.5603 43.3125 40.9062V38.5H33.6875V40.9062C33.6875 43.5603 35.8459 45.7188 38.5 45.7188ZM40.9062 40.9062C40.9062 42.2333 39.827 43.3125 38.5 43.3125C37.173 43.3125 36.0938 42.2333 36.0938 40.9062H40.9062Z" fill="#313B4E"/>
<path d="M26.4688 16.004L32.9873 10.5719C34.1964 9.56364 34.8906 8.08139 34.8906 6.5065C34.8906 5.09403 34.3408 3.76578 33.335 2.75877C32.3316 1.75536 30.9985 1.20312 29.58 1.20312H29.3731C28.3264 1.20312 27.3254 1.50391 26.4688 2.06577C25.6121 1.50391 24.6111 1.20312 23.5644 1.20312H23.3575C21.939 1.20312 20.6059 1.75536 19.5953 2.76478C18.5967 3.76458 18.0469 5.09403 18.0469 6.5065C18.0469 8.08259 18.7411 9.56364 19.9502 10.5719L26.4688 16.004ZM21.3037 4.46119C21.8524 3.91136 22.5827 3.60938 23.3575 3.60938H23.5644C24.3404 3.60938 25.0695 3.91136 25.6181 4.46119L26.4688 5.31059L27.3194 4.46119C27.868 3.91136 28.5983 3.60938 29.3731 3.60938H29.58C30.356 3.60938 31.0851 3.91136 31.6386 4.4648C32.1836 5.01102 32.4844 5.7365 32.4844 6.5065C32.4844 7.36553 32.1066 8.17403 31.4461 8.72386L26.4688 12.871L21.4914 8.72386C20.8309 8.17403 20.4531 7.36553 20.4531 6.5065C20.4531 5.7365 20.7539 5.01102 21.3037 4.46119V4.46119Z" fill="#313B4E"/>
<path d="M9.625 28.0352L16.1435 22.6031C17.3527 21.5949 18.0469 20.1126 18.0469 18.5377C18.0469 17.1253 17.497 15.797 16.4912 14.79C15.4878 13.7866 14.1548 13.2344 12.7363 13.2344H12.5293C11.4826 13.2344 10.4816 13.5352 9.625 14.097C8.76837 13.5352 7.76737 13.2344 6.72066 13.2344H6.51372C5.09523 13.2344 3.76217 13.7866 2.75155 14.796C1.75295 15.7958 1.20312 17.1253 1.20312 18.5377C1.20312 20.1138 1.89733 21.5949 3.10647 22.6031L9.625 28.0352ZM4.45998 16.4924C5.00861 15.9426 5.73891 15.6406 6.51372 15.6406H6.72066C7.49667 15.6406 8.22577 15.9426 8.77439 16.4924L9.625 17.3418L10.4756 16.4924C11.0242 15.9426 11.7545 15.6406 12.5293 15.6406H12.7363C13.5123 15.6406 14.2414 15.9426 14.7948 16.496C15.3398 17.0423 15.6406 17.7678 15.6406 18.5377C15.6406 19.3968 15.2628 20.2053 14.6023 20.7551L9.625 24.9023L4.64767 20.7551C3.98716 20.2053 3.60938 19.3968 3.60938 18.5377C3.60938 17.7678 3.91016 17.0423 4.45998 16.4924V16.4924Z" fill="#313B4E"/>
<path d="M50.5312 16.004L57.0498 10.5719C58.2589 9.56364 58.9531 8.08139 58.9531 6.5065C58.9531 5.09403 58.4033 3.76578 57.3975 2.75877C56.3941 1.75536 55.061 1.20312 53.6425 1.20312H53.4356C52.3889 1.20312 51.3879 1.50391 50.5312 2.06577C49.6746 1.50391 48.6736 1.20312 47.6269 1.20312H47.42C46.0015 1.20312 44.6684 1.75536 43.6578 2.76478C42.6592 3.76458 42.1094 5.09403 42.1094 6.5065C42.1094 8.08259 42.8036 9.56364 44.0127 10.5719L50.5312 16.004ZM45.3662 4.46119C45.9149 3.91136 46.6452 3.60938 47.42 3.60938H47.6269C48.4029 3.60938 49.132 3.91136 49.6806 4.46119L50.5312 5.31059L51.3819 4.46119C51.9305 3.91136 52.6608 3.60938 53.4356 3.60938H53.6425C54.4185 3.60938 55.1476 3.91136 55.7011 4.4648C56.2461 5.01102 56.5469 5.7365 56.5469 6.5065C56.5469 7.36553 56.1691 8.17403 55.5086 8.72386L50.5312 12.871L45.5539 8.72386C44.8934 8.17403 44.5156 7.36553 44.5156 6.5065C44.5156 5.7365 44.8164 5.01102 45.3662 4.46119Z" fill="#313B4E"/>
<path d="M60.8565 22.6031L67.375 28.0352L73.8935 22.6031C75.1027 21.5949 75.7969 20.1126 75.7969 18.5377C75.7969 17.1253 75.247 15.797 74.2412 14.79C73.2378 13.7866 71.9048 13.2344 70.4863 13.2344H70.2793C69.2326 13.2344 68.2316 13.5352 67.375 14.097C66.5184 13.5352 65.5174 13.2344 64.4707 13.2344H64.2637C62.8452 13.2344 61.5122 13.7866 60.5015 14.796C59.503 15.7958 58.9531 17.1253 58.9531 18.5377C58.9531 20.1126 59.6473 21.5949 60.8565 22.6031ZM62.21 16.4924C62.7586 15.9426 63.4889 15.6406 64.2637 15.6406H64.4707C65.2467 15.6406 65.9758 15.9426 66.5244 16.4924L67.375 17.3418L68.2256 16.4924C68.7742 15.9426 69.5045 15.6406 70.2793 15.6406H70.4863C71.2623 15.6406 71.9914 15.9426 72.5448 16.496C73.0898 17.0423 73.3906 17.7678 73.3906 18.5377C73.3906 19.3968 73.0128 20.2053 72.3523 20.7551L67.375 24.9023L62.3977 20.7551C61.7372 20.2053 61.3594 19.3968 61.3594 18.5377C61.3594 17.7678 61.6602 17.0423 62.21 16.4924Z" fill="#313B4E"/>
<path d="M71.9493 33.6875H70.2793L69.1568 32.565C68.3291 31.7372 67.2282 31.2812 66.0576 31.2812C64.1687 31.2812 62.4975 32.4856 61.8996 34.2782L61.5182 35.4224L44.8718 50.9596L43.8852 48.9852C45.9534 47.6979 47.5355 45.6935 48.2778 43.3137H49.3281C51.9822 43.3137 54.1406 41.1553 54.1406 38.5012C54.1406 37.3883 53.7448 36.3753 53.1083 35.5584L53.7544 32.9801C54.0107 31.9478 54.1406 30.889 54.1406 29.8303C54.1406 22.6693 48.3151 16.8438 41.1541 16.8438H35.8459C28.6849 16.8438 22.8594 22.6693 22.8594 29.8303C22.8594 30.8878 22.9893 31.9478 23.2468 32.9801L23.8917 35.556C23.2552 36.3741 22.8594 37.3871 22.8594 38.5C22.8594 41.1541 25.0178 43.3125 27.6719 43.3125H28.7234C29.4657 45.6923 31.0466 47.6979 33.116 48.984L32.1295 50.9584L15.4818 35.4224L15.1004 34.277C14.5025 32.4856 12.8313 31.2812 10.9424 31.2812C9.77178 31.2812 8.67092 31.7372 7.84317 32.565L6.72066 33.6875H5.05072C2.92961 33.6875 1.20312 35.414 1.20312 37.5351C1.20312 39.3626 2.5037 40.9496 4.29516 41.3081L7.80587 42.0095L24.0625 59.4272V75.7969H52.9375V59.4272L69.1941 42.0095L72.7048 41.3081C74.4963 40.9496 75.7969 39.3626 75.7969 37.5351C75.7969 35.414 74.0704 33.6875 71.9493 33.6875V33.6875ZM33.6875 55.4412L35.5824 56.9571C34.9243 57.1545 34.2867 57.4083 33.6875 57.7452V55.4412ZM49.3281 40.9062H48.729L49.0731 36.0938H49.3281C50.6552 36.0938 51.7344 37.173 51.7344 38.5C51.7344 39.827 50.6552 40.9062 49.3281 40.9062V40.9062ZM25.2656 38.5C25.2656 37.173 26.3448 36.0938 27.6719 36.0938H27.9269L28.2698 40.9062H27.6719C26.3448 40.9062 25.2656 39.827 25.2656 38.5ZM27.6719 32.0091V32.2931C27.6719 32.4507 27.6779 32.6071 27.6899 32.7599L27.7561 33.6875H27.6719C27.0763 33.6875 26.5121 33.8102 25.9839 34.0087L25.5808 32.3977C25.3715 31.5568 25.2656 30.6929 25.2656 29.8303C25.2656 23.9963 30.012 19.25 35.8459 19.25H41.1541C46.988 19.25 51.7344 23.9963 51.7344 29.8303C51.7344 30.6917 51.6285 31.5568 51.4192 32.3965L51.0161 34.0087C50.4891 33.8102 49.9237 33.6875 49.3281 33.6875H49.2451L49.2932 33.0125C50.0656 32.097 50.5312 30.9143 50.5312 29.6245V28.875H48.125V29.6245C48.125 31.2018 46.8425 32.4844 45.2652 32.4844C44.3917 32.4844 43.5784 32.0934 43.0334 31.41L41.6077 29.6294C40.0003 27.6213 37.6037 26.4688 35.0302 26.4688H34.8906C33.0787 26.4688 31.3234 27.0005 29.8146 28.0051C28.4732 28.9003 27.6719 30.397 27.6719 32.0091V32.0091ZM30.6773 40.8413L30.089 32.5854C30.0817 32.488 30.0781 32.3905 30.0781 32.2931V32.0091C30.0781 31.203 30.4788 30.4547 31.1501 30.0071C32.2606 29.2672 33.5552 28.875 34.8906 28.875H35.0302C36.8674 28.875 38.5794 29.6979 39.7272 31.1333L41.1529 32.9139C42.1575 34.17 43.6566 34.8906 45.2652 34.8906C45.7849 34.8906 46.2878 34.8148 46.7619 34.6741L46.3227 40.8413C46.0304 44.9259 42.5942 48.125 38.5 48.125C34.4058 48.125 30.9696 44.9259 30.6773 40.8413V40.8413ZM38.5 50.5312C39.6165 50.5312 40.6921 50.34 41.7039 50.0031L43.0045 52.6054L38.5 56.2088L33.9955 52.6054L35.2961 50.0031C36.3079 50.34 37.3835 50.5312 38.5 50.5312ZM43.3125 55.4412V57.7452C42.7133 57.4083 42.0757 57.1545 41.4176 56.9571L43.3125 55.4412ZM3.60938 37.5351C3.60938 36.741 4.25545 36.0938 5.05072 36.0938H7.71684L9.54439 34.2662C9.91736 33.8932 10.4143 33.6875 10.9424 33.6875C11.7942 33.6875 12.5486 34.2313 12.8193 35.0386L13.0322 35.6775L8.10906 39.6165L4.76919 38.9488C4.09664 38.814 3.60938 38.2197 3.60938 37.5351V37.5351ZM50.5312 58.4791V73.3906H26.4688V58.4791L10.1881 41.035L14.3773 37.6831L31.2812 53.4609V63.0618L33.335 61.0069C34.6596 59.6822 36.4198 58.9531 38.2931 58.9531H38.7069C40.5802 58.9531 42.3416 59.6822 43.665 61.0069L45.7188 63.0618V53.4609L62.6227 37.6831L66.8119 41.035L50.5312 58.4791ZM72.232 38.9488L68.8921 39.6165L63.969 35.6775L64.1819 35.0398C64.4514 34.2313 65.2058 33.6875 66.0576 33.6875C66.5845 33.6875 67.0826 33.8932 67.4556 34.2662L69.2832 36.0938H71.9493C72.7445 36.0938 73.3906 36.741 73.3906 37.5351C73.3906 38.2197 72.9034 38.814 72.232 38.9488V38.9488Z" fill="#313B4E"/>
</svg>
