<svg width="2160" height="888" viewBox="0 0 2160 888" fill="none" xmlns="http://www.w3.org/2000/svg">
<rect x="1220.62" width="939.375" height="887.625" fill="#C8AC48"/>
<path d="M1541.77 678.125L1607.79 659.461C1609.8 658.893 1610.97 656.802 1610.4 654.791L1609.31 650.908C1608.17 646.886 1603.99 644.548 1599.97 645.684L1598.73 641.332C1597.11 635.568 1591.09 632.204 1585.33 633.834L1547.49 644.528C1541.73 646.158 1538.37 652.173 1540 657.937L1541.23 662.289C1537.21 663.426 1534.87 667.607 1536 671.629L1537.1 675.513C1537.67 677.523 1539.76 678.693 1541.77 678.125Z" fill="black" fill-opacity="0.04"/>
<path d="M1571.23 622.181C1574.56 624.708 1579.31 624.059 1581.84 620.731C1584.36 617.403 1583.71 612.656 1580.39 610.127L1550.26 587.245C1546.93 584.717 1542.18 585.367 1539.65 588.694C1537.13 592.023 1537.77 596.77 1541.1 599.298L1571.23 622.181Z" fill="black" fill-opacity="0.04"/>
<path d="M1612.42 567.945C1615.75 570.472 1620.5 569.823 1623.02 566.495C1625.55 563.167 1624.9 558.421 1621.57 555.893L1591.44 533.011C1588.12 530.482 1583.37 531.131 1580.84 534.46C1578.31 537.788 1578.96 542.535 1582.29 545.063L1612.42 567.945Z" fill="black" fill-opacity="0.04"/>
<path d="M1602.43 593.613C1606.67 588.036 1609.28 581.859 1610.31 575.842L1575.25 549.217C1569.73 551.823 1564.48 556 1560.25 561.578C1556.01 567.154 1553.4 573.332 1552.37 579.347L1587.43 605.974C1592.95 603.369 1598.19 599.19 1602.43 593.613Z" fill="black" fill-opacity="0.04"/>
<path d="M1612.53 591.782C1611.32 593.988 1610.01 596.149 1608.46 598.19C1606.91 600.229 1605.18 602.079 1603.38 603.834L1609.91 608.792L1619.06 596.741L1612.53 591.782Z" fill="black" fill-opacity="0.04"/>
<path d="M1625.08 601.317L1615.93 613.368L1646.06 636.251C1649.39 638.779 1654.14 638.129 1656.67 634.802C1659.19 631.473 1658.54 626.727 1655.22 624.199L1625.08 601.317Z" fill="black" fill-opacity="0.04"/>
<path d="M1360.34 303.816C1365.38 305.566 1370.84 305.728 1375.98 304.281C1381.11 302.834 1385.68 299.848 1389.07 295.724L1342.92 279.583C1343 284.919 1344.71 290.103 1347.83 294.436C1350.94 298.768 1355.31 302.042 1360.34 303.816V303.816Z" fill="black" fill-opacity="0.05"/>
<path d="M1496.63 266.509C1498.46 266.841 1500.34 266.736 1502.11 266.203C1503.89 265.671 1505.52 264.725 1506.86 263.444C1507.96 262.396 1509.38 261.747 1510.9 261.6C1511.21 261.557 1511.5 261.426 1511.75 261.223C1511.99 261.02 1512.17 260.752 1512.27 260.451C1512.36 260.188 1512.39 259.906 1512.34 259.63C1512.3 259.354 1512.18 259.095 1512.01 258.877C1511.83 258.652 1511.61 258.475 1511.34 258.363C1511.08 258.251 1510.8 258.208 1510.51 258.239C1508.28 258.469 1506.18 259.433 1504.54 260.98C1503.44 262.053 1502.05 262.796 1500.55 263.125C1499.04 263.455 1497.47 263.358 1496.02 262.845C1494.57 262.333 1493.28 261.425 1492.32 260.224C1491.35 259.023 1490.74 257.576 1490.55 256.046C1490.31 254.225 1489.58 252.504 1488.43 251.071C1487.28 249.638 1485.76 248.549 1484.04 247.923L1454.57 237.618C1454.89 235.699 1454.64 233.729 1453.86 231.948C1453.08 230.167 1451.79 228.651 1450.17 227.585L1455.22 213.14L1450.69 211.556L1445.64 226C1443.7 225.82 1441.75 226.207 1440.03 227.112C1438.31 228.017 1436.89 229.403 1435.94 231.101L1406.5 220.804C1404.76 220.218 1402.89 220.121 1401.1 220.523C1399.31 220.926 1397.67 221.813 1396.35 223.087C1395.25 224.172 1393.87 224.927 1392.36 225.267C1390.85 225.608 1389.27 225.52 1387.81 225.015C1386.35 224.509 1385.06 223.605 1384.08 222.405C1383.11 221.205 1382.49 219.757 1382.29 218.223C1381.98 216 1380.94 213.943 1379.34 212.37C1379.14 212.17 1378.89 212.025 1378.61 211.949C1378.34 211.873 1378.05 211.868 1377.77 211.936C1377.5 211.997 1377.25 212.128 1377.04 212.315C1376.83 212.503 1376.68 212.74 1376.59 213.005C1376.48 213.3 1376.45 213.62 1376.51 213.928C1376.58 214.237 1376.73 214.521 1376.94 214.748C1378.04 215.802 1378.74 217.192 1378.95 218.695C1379.21 220.534 1379.89 222.288 1380.95 223.812C1382.01 225.336 1383.42 226.587 1385.06 227.464L1346.01 270.855L1344.41 270.295L1344.29 270.643C1343.71 272.389 1343.32 274.192 1343.12 276.022L1391.13 292.812C1392.09 291.247 1392.88 289.584 1393.49 287.85L1393.61 287.503L1392.1 286.974L1388.6 228.668C1390.4 228.964 1392.25 228.839 1393.99 228.301C1395.74 227.763 1397.33 226.827 1398.66 225.568C1399.53 224.722 1400.61 224.133 1401.8 223.864C1402.98 223.594 1404.21 223.656 1405.36 224.041L1434.81 234.338C1434.49 236.257 1434.74 238.225 1435.52 240.005C1436.31 241.784 1437.59 243.299 1439.21 244.365L1416.5 309.312L1421.03 310.897L1443.74 245.95C1445.68 246.129 1447.63 245.743 1449.35 244.839C1451.07 243.935 1452.49 242.551 1453.44 240.855L1482.91 251.16C1484.05 251.577 1485.05 252.3 1485.81 253.25C1486.57 254.2 1487.05 255.341 1487.2 256.546C1487.45 258.35 1488.11 260.073 1489.13 261.58C1490.15 263.087 1491.51 264.337 1493.1 265.232L1454.04 308.635L1452.52 308.106L1452.4 308.454C1451.79 310.186 1451.37 311.979 1451.15 313.801L1499.16 330.593C1500.15 329.041 1500.97 327.388 1501.6 325.661L1501.72 325.313L1500.13 324.754L1496.63 266.509ZM1388.59 285.746L1349.52 272.082L1385.38 232.233L1388.59 285.746ZM1457.54 309.862L1493.41 270.013L1496.62 323.527L1457.54 309.862Z" fill="black" fill-opacity="0.05"/>
<path d="M1468.37 341.597C1473.41 343.346 1478.87 343.508 1484.01 342.062C1489.14 340.615 1493.71 337.628 1497.1 333.505L1450.95 317.364C1451.03 322.7 1452.74 327.883 1455.85 332.216C1458.97 336.549 1463.34 339.823 1468.37 341.597V341.597Z" fill="black" fill-opacity="0.05"/>
<path d="M1392.53 323.819L1430.73 337.177L1428.35 343.975L1390.16 330.616L1392.53 323.819Z" fill="black" fill-opacity="0.05"/>
<path d="M1411.81 311.304L1423.46 315.38L1418.59 329.299L1406.94 325.223L1411.81 311.304Z" fill="black" fill-opacity="0.05"/>
<path d="M1379.31 330.457L1436.61 350.495L1433.89 358.263L1376.6 338.226L1379.31 330.457Z" fill="black" fill-opacity="0.05"/>
<path d="M1824.61 304.136L1824.62 304.132L1810.58 273.503L1813.99 271.808L1812.71 269.258L1809.39 270.911L1808.95 269.932C1808.62 269.216 1807.77 268.902 1807.06 269.23C1806.75 269.372 1806.5 269.621 1806.35 269.932L1805.95 270.807C1803.54 269.685 1800.91 269.103 1798.25 269.101H1786.28V266.251H1789.13V263.401H1786.68L1787.7 259.301C1788.49 256.153 1786.57 252.963 1783.42 252.177C1780.28 251.39 1777.09 253.304 1776.3 256.452C1776.07 257.387 1776.07 258.366 1776.3 259.301L1777.32 263.401H1774.88V266.251H1777.73V269.101H1765.76C1763.1 269.103 1760.46 269.686 1758.05 270.811L1757.65 269.936C1757.32 269.22 1756.47 268.906 1755.76 269.234C1755.45 269.377 1755.2 269.625 1755.05 269.936L1754.61 270.915L1751.29 269.255L1750.01 271.808L1753.42 273.51L1739.38 304.132C1739.29 304.318 1739.25 304.521 1739.25 304.726C1739.26 310.232 1743.72 314.695 1749.23 314.701H1763.48C1768.98 314.695 1773.44 310.232 1773.45 304.726C1773.45 304.521 1773.4 304.32 1773.31 304.136L1759.23 273.392C1761.28 272.442 1763.51 271.95 1765.76 271.951H1777.73V324.086L1772.86 328.951H1767.75C1763.82 328.955 1760.63 332.143 1760.63 336.076C1760.63 336.863 1761.26 337.501 1762.05 337.501H1801.95C1802.74 337.501 1803.38 336.863 1803.38 336.076C1803.37 332.143 1800.18 328.955 1796.25 328.951H1791.14L1786.28 324.086V271.951H1798.25C1800.5 271.95 1802.73 272.442 1804.78 273.392L1790.68 304.132C1790.59 304.318 1790.55 304.521 1790.55 304.726C1790.56 310.232 1795.02 314.695 1800.53 314.701H1814.78C1820.28 314.695 1824.74 310.232 1824.75 304.726C1824.75 304.521 1824.7 304.32 1824.61 304.136ZM1763.48 311.851H1749.23C1745.84 311.847 1742.92 309.466 1742.24 306.151H1770.46C1769.78 309.466 1766.86 311.847 1763.48 311.851ZM1769.8 303.301H1742.9L1755.99 274.742C1756.22 274.807 1756.48 274.807 1756.71 274.742L1769.8 303.301ZM1779.62 256.014C1780.73 254.697 1782.69 254.529 1784.01 255.639C1784.14 255.753 1784.27 255.878 1784.38 256.014C1784.96 256.747 1785.16 257.706 1784.94 258.61L1783.74 263.401H1780.26L1779.06 258.61C1778.84 257.706 1779.04 256.747 1779.62 256.014ZM1780.58 269.101V266.251H1783.43V269.101H1780.58ZM1783.43 271.951V323.251H1780.58V271.951H1783.43V271.951ZM1796.25 331.801C1798.06 331.803 1799.68 332.944 1800.28 334.651H1763.72C1764.32 332.944 1765.94 331.803 1767.75 331.801H1796.25ZM1787.11 328.951H1776.89L1779.74 326.101H1784.26L1787.11 328.951ZM1807.28 274.747C1807.52 274.83 1807.78 274.819 1808 274.717L1821.1 303.301H1794.2L1807.28 274.747ZM1814.78 311.851H1800.53C1797.14 311.847 1794.22 309.466 1793.54 306.151H1821.76C1821.08 309.466 1818.16 311.847 1814.78 311.851Z" fill="black" fill-opacity="0.05"/>
<rect width="1220.62" height="887.625" fill="#202838"/>
<g opacity="0.06">
<path d="M598.977 358.861C597.503 376.202 583.4 390.207 565.539 391.074C547.677 391.94 532.285 379.366 529.138 362.25L598.977 358.861Z" fill="#FECA57"/>
<path d="M596.622 352.193L562.23 271.461C561.348 269.39 562.311 266.996 564.383 266.114C566.453 265.231 568.847 266.195 569.729 268.266L604.121 348.998C605.003 351.069 604.04 353.463 601.969 354.345C599.901 355.227 597.505 354.265 596.622 352.193Z" fill="#CCD2DB"/>
<path d="M529.003 357.886C526.857 357.208 525.666 354.918 526.343 352.772L552.757 269.09C553.435 266.944 555.723 265.752 557.871 266.43C560.017 267.107 561.208 269.397 560.531 271.543L534.116 355.226C533.439 357.372 531.149 358.563 529.003 357.886Z" fill="#CCD2DB"/>
<path d="M705.159 349.333C703.015 348.648 701.833 346.353 702.519 344.21L728.978 261.451C729.664 259.307 731.958 258.125 734.101 258.81C736.245 259.496 737.428 261.79 736.742 263.934L710.283 346.692C709.597 348.836 707.303 350.018 705.159 349.333Z" fill="#CCD2DB"/>
<path d="M772.799 343.659L738.452 263.851C737.562 261.783 738.516 259.386 740.584 258.496C742.652 257.606 745.049 258.561 745.939 260.628L780.286 340.436C781.176 342.504 780.221 344.901 778.154 345.791C776.088 346.68 773.689 345.727 772.799 343.659Z" fill="#CCD2DB"/>
<path d="M568.113 274.1C566.036 274.2 564.186 272.705 563.885 270.605C563.567 268.377 565.115 266.312 567.343 265.993C580.809 264.067 584.338 262.352 637.248 245.042C639.387 244.342 641.689 245.509 642.389 247.648C643.089 249.788 641.923 252.09 639.783 252.79C586.595 270.191 582.661 272.037 568.498 274.063C568.369 274.081 568.24 274.094 568.113 274.1Z" fill="#3E4B5A"/>
<path d="M732.114 266.427C731.987 266.434 731.858 266.434 731.728 266.428C716.891 265.758 712.858 264.296 655.816 251.587C653.619 251.098 652.235 248.92 652.724 246.722C653.214 244.525 655.393 243.141 657.589 243.63C714.711 256.356 718.168 257.655 732.096 258.284C734.345 258.386 736.086 260.291 735.984 262.54C735.888 264.659 734.191 266.327 732.114 266.427Z" fill="#3E4B5A"/>
<path d="M647.379 229.775C650.292 229.633 653.059 230.288 655.473 231.542L654.74 216.436C654.592 213.39 652.003 211.04 648.956 211.188L644.01 211.427C640.964 211.575 638.614 214.165 638.762 217.211L639.495 232.318C641.777 230.835 644.466 229.916 647.379 229.775Z" fill="#C46F5F"/>
<path d="M664.888 425.583L656.806 259.022C654.525 260.504 651.835 261.424 648.922 261.565C646.009 261.706 643.243 261.051 640.828 259.797L648.91 426.358L664.888 425.583V425.583Z" fill="#C46F5F"/>
<path d="M649.516 216.69C649.42 214.71 650.382 212.929 651.901 211.88C651.031 211.396 650.023 211.136 648.956 211.188L644.011 211.427C640.964 211.575 638.614 214.165 638.762 217.211L639.495 232.318C641.776 230.835 644.466 229.916 647.379 229.775C648.324 229.729 649.25 229.775 650.156 229.89L649.516 216.69V216.69Z" fill="#B45F4A"/>
<path d="M648.922 261.565C646.009 261.707 643.243 261.052 640.828 259.798L648.91 426.358L659.664 425.837L651.675 261.182C650.784 261.384 649.866 261.52 648.922 261.565Z" fill="#B45F4A"/>
<path d="M701.131 337.508L781.019 333.632C784.785 333.449 788.016 336.381 788.199 340.147L788.328 342.811C788.511 346.577 785.579 349.808 781.813 349.991L701.925 353.867C698.159 354.05 694.927 351.118 694.745 347.351L694.615 344.688C694.433 340.922 697.365 337.691 701.131 337.508Z" fill="#F4B537"/>
<path d="M781.285 339.134L701.398 343.01C699.166 343.119 697.129 342.129 695.796 340.524C694.99 341.712 694.541 343.153 694.615 344.688L694.745 347.351C694.927 351.117 698.158 354.049 701.924 353.866L781.812 349.99C785.578 349.807 788.51 346.577 788.328 342.81L788.198 340.147C788.124 338.612 787.537 337.221 786.62 336.118C785.449 337.843 783.517 339.026 781.285 339.134Z" fill="#E59D1F"/>
<path d="M778.428 350.154C776.953 367.495 762.85 381.5 744.989 382.367C727.128 383.233 711.736 370.659 708.589 353.543L778.428 350.154Z" fill="#FECA57"/>
<path d="M545.423 361.46L529.138 362.25C532.285 379.366 547.677 391.94 565.539 391.074C568.341 390.938 571.051 390.478 573.635 389.732C559.433 387.091 548.075 375.89 545.423 361.46Z" fill="#F4B537"/>
<path d="M724.873 352.753L708.589 353.543C711.736 370.659 727.128 383.233 744.99 382.367C747.792 382.231 750.502 381.771 753.086 381.025C738.883 378.384 727.526 367.183 724.873 352.753Z" fill="#F4B537"/>
<path d="M561.842 281.003C567.869 280.71 572.517 275.588 572.225 269.561C571.932 263.534 566.81 258.885 560.783 259.178C554.756 259.47 550.108 264.593 550.4 270.62C550.693 276.646 555.815 281.295 561.842 281.003Z" fill="#FECA57"/>
<path d="M738.013 272.455C744.039 272.162 748.688 267.04 748.395 261.013C748.103 254.986 742.98 250.337 736.954 250.63C730.927 250.922 726.278 256.045 726.571 262.072C726.863 268.098 731.986 272.747 738.013 272.455Z" fill="#FECA57"/>
<path d="M687.634 422.847L626.006 425.837C622.24 426.02 619.308 429.251 619.491 433.017L620.032 444.156L695.354 440.502L694.814 429.363C694.631 425.596 691.4 422.664 687.634 422.847Z" fill="#3E4B5A"/>
<path d="M619.561 431.665C619.494 432.105 619.468 432.557 619.49 433.017L620.031 444.156L695.354 440.501L694.813 429.362C694.791 428.902 694.722 428.454 694.613 428.024L619.561 431.665Z" fill="#303F49"/>
<path d="M697.703 438.755L617.815 442.631C614.049 442.814 611.117 446.045 611.299 449.811L611.429 452.475C611.611 456.241 614.843 459.173 618.609 458.99L698.497 455.114C702.263 454.931 705.195 451.7 705.012 447.934L704.883 445.271C704.7 441.504 701.469 438.572 697.703 438.755Z" fill="#576574"/>
<path d="M697.97 444.257L618.082 448.133C615.851 448.242 613.813 447.252 612.481 445.647C611.675 446.835 611.225 448.276 611.3 449.811L611.429 452.474C611.612 456.24 614.843 459.172 618.609 458.989L698.497 455.113C702.263 454.93 705.195 451.7 705.013 447.933L704.883 445.27C704.809 443.735 704.222 442.344 703.305 441.24C702.133 442.966 700.201 444.149 697.97 444.257Z" fill="#3E4B5A"/>
<path d="M648.922 261.565C657.701 261.139 664.472 253.677 664.046 244.898C663.62 236.119 656.158 229.348 647.379 229.774C638.6 230.2 631.829 237.662 632.255 246.441C632.681 255.219 640.143 261.991 648.922 261.565Z" fill="#FECA57"/>
<path d="M566.684 269.83C566.548 267.044 567.478 264.459 569.102 262.448C566.994 260.301 564.024 259.021 560.782 259.178C554.755 259.47 550.107 264.593 550.399 270.62C550.692 276.646 555.814 281.295 561.841 281.003C565.082 280.845 567.915 279.284 569.806 276.943C567.994 275.098 566.819 272.615 566.684 269.83Z" fill="#F4B537"/>
<path d="M742.855 261.282C742.72 258.496 743.65 255.911 745.274 253.9C743.166 251.753 740.195 250.473 736.954 250.63C730.927 250.922 726.278 256.045 726.571 262.072C726.863 268.099 731.986 272.747 738.013 272.455C741.254 272.297 744.087 270.736 745.977 268.395C744.165 266.55 742.99 264.067 742.855 261.282Z" fill="#F4B537"/>
<path d="M648.539 245.651C648.258 239.848 651.122 234.623 655.63 231.622C653.18 230.314 650.356 229.63 647.379 229.774C638.601 230.2 631.829 237.662 632.255 246.441C632.681 255.219 640.143 261.991 648.922 261.565C651.898 261.42 654.642 260.466 656.955 258.926C652.177 256.377 648.821 251.453 648.539 245.651Z" fill="#F4B537"/>
<path d="M524.96 346.056L604.848 342.18C608.614 341.997 611.845 344.929 612.028 348.695L612.157 351.359C612.34 355.125 609.408 358.356 605.642 358.539L525.754 362.415C521.987 362.597 518.756 359.665 518.574 355.899L518.445 353.236C518.262 349.47 521.193 346.239 524.96 346.056Z" fill="#F4B537"/>
<path d="M605.115 347.682L525.227 351.558C522.996 351.667 520.958 350.676 519.625 349.072C518.819 350.259 518.37 351.701 518.445 353.236L518.574 355.899C518.757 359.665 521.987 362.597 525.754 362.414L605.641 358.538C609.407 358.355 612.34 355.125 612.157 351.358L612.028 348.695C611.953 347.16 611.366 345.769 610.449 344.665C609.278 346.391 607.346 347.574 605.115 347.682Z" fill="#E59D1F"/>
</g>
<g opacity="0.06">
<path d="M1056.28 679.444L1056.61 681.292C1057.66 687.202 1062.83 691.489 1068.84 691.427L1091.57 691.187C1094.01 691.159 1096.11 692.9 1096.54 695.301C1097.02 698.013 1095.21 700.601 1092.5 701.083L1017.63 714.373C1014.91 714.855 1012.32 713.047 1011.84 710.335C1011.42 707.935 1012.79 705.577 1015.09 704.763L1036.52 697.164C1042.18 695.158 1045.56 689.353 1044.51 683.439L1044.18 681.592" fill="#D8923E"/>
<path d="M1028.62 593.917L1040.72 591.769L1054.14 667.351L1042.04 669.499L1028.62 593.917Z" fill="#8F6128"/>
<path d="M954.746 607.03L1114.6 578.655C1120.57 577.595 1124.56 571.891 1123.5 565.917C1122.71 561.494 1119.31 557.994 1114.91 557.082L1106 555.233C1109.77 560.297 1106.88 567.55 1100.67 568.654L964.378 592.846C958.162 593.95 952.961 588.131 954.754 582.08L947.023 586.883C943.207 589.257 941.218 593.711 942.003 598.134C943.063 604.108 948.769 608.091 954.746 607.03V607.03Z" fill="#F2C351"/>
<path d="M1024.33 569.731L1036.43 567.583L1038.57 579.676L1026.47 581.824L1024.33 569.731Z" fill="#8F6128"/>
<path d="M1034.28 555.49L1028.91 543.48L1023.09 544.512L1022.18 557.637L1034.28 555.49Z" fill="#8F6128"/>
<path d="M1026.08 544.47C1031.1 543.581 1034.44 538.799 1033.55 533.79C1032.66 528.781 1027.88 525.441 1022.86 526.331C1017.85 527.22 1014.51 532.002 1015.4 537.011C1016.29 542.021 1021.07 545.36 1026.08 544.47Z" fill="#BC7F35"/>
<path d="M1016.13 558.711L1040.33 554.416L1042.48 566.509L1018.28 570.805L1016.13 558.711Z" fill="#BC7F35"/>
<path d="M1050.77 683.542C1055.78 682.652 1059.12 677.87 1058.23 672.861C1057.35 667.852 1052.56 664.512 1047.55 665.402C1042.54 666.292 1039.2 671.074 1040.08 676.083C1040.97 681.092 1045.76 684.431 1050.77 683.542Z" fill="#BC7F35"/>
<path d="M1076.73 653.986C1078.5 664.005 1093.49 669.722 1110.19 666.756C1126.9 663.791 1139 653.266 1137.22 643.247L1076.73 653.986Z" fill="#C16B3F"/>
<path d="M1098.39 600.244C1103.4 599.354 1106.74 594.572 1105.85 589.563C1104.96 584.554 1100.18 581.215 1095.17 582.104C1090.16 582.994 1086.81 587.776 1087.7 592.785C1088.59 597.794 1093.38 601.134 1098.39 600.244Z" fill="#F2C351"/>
<path d="M955.73 675.464C957.508 685.483 972.492 691.199 989.198 688.234C1005.9 685.268 1018.01 674.744 1016.23 664.725L955.73 675.464Z" fill="#C16B3F"/>
<path d="M977.392 621.722C982.404 620.832 985.746 616.05 984.857 611.041C983.967 606.032 979.184 602.692 974.172 603.582C969.16 604.472 965.818 609.253 966.707 614.263C967.596 619.272 972.38 622.611 977.392 621.722Z" fill="#F2C351"/>
<path d="M981.459 605.438C979.466 603.874 976.864 603.104 974.172 603.582C969.16 604.472 965.818 609.253 966.707 614.263C967.194 617.005 968.869 619.215 971.091 620.536C977.09 617.858 981.119 612.01 981.459 605.438V605.438Z" fill="#F7D881"/>
<path d="M1102.46 583.96C1100.46 582.396 1097.86 581.626 1095.17 582.104C1090.16 582.994 1086.81 587.775 1087.7 592.785C1088.19 595.527 1089.86 597.737 1092.09 599.058C1098.09 596.381 1102.11 590.532 1102.46 583.96V583.96Z" fill="#F7D881"/>
<path d="M1027.78 526.836C1026.26 526.248 1024.58 526.025 1022.86 526.331C1017.85 527.22 1014.51 532.002 1015.4 537.011C1015.76 539.055 1016.79 540.796 1018.2 542.108C1024.02 539.319 1027.81 533.38 1027.78 526.836Z" fill="#D8923E"/>
<path d="M1016.13 558.711L1018.28 570.805L1027.68 569.135C1031.83 565.972 1034.3 560.952 1034.06 555.528L1016.13 558.711Z" fill="#D8923E"/>
<path d="M1053.71 666.51C1051.91 665.477 1049.76 665.009 1047.55 665.402C1042.54 666.292 1039.2 671.073 1040.08 676.083C1040.42 677.993 1041.33 679.653 1042.6 680.937C1048.45 678.204 1052.57 672.79 1053.71 666.51Z" fill="#D8923E"/>
<path d="M1004.87 666.742L955.73 675.464C957.48 685.323 972.026 690.998 988.411 688.349C996.267 683.287 1002.08 675.598 1004.87 666.742Z" fill="#E39854"/>
<path d="M1125.86 645.264L1076.73 653.986C1078.48 663.845 1093.02 669.521 1109.41 666.871C1117.26 661.809 1123.07 654.12 1125.86 645.264Z" fill="#E39854"/>
<path d="M1139.5 641.187L1103.57 601.395C1107.51 598.768 1109.75 593.979 1108.87 589.027C1108.48 586.814 1107.48 584.878 1106.12 583.276L1115.13 581.676C1122.76 580.321 1127.88 573.008 1126.52 565.377C1125.51 559.687 1121.2 555.25 1115.54 554.073L1106.63 552.225C1105.38 551.963 1104.1 552.505 1103.41 553.578C1102.73 554.654 1102.78 556.039 1103.54 557.061C1104.68 558.601 1104.93 560.509 1104.22 562.29C1103.52 564.075 1102.02 565.291 1100.14 565.629L1041.06 576.112L1039.99 570.063L1043.01 569.526C1044.69 569.229 1045.8 567.637 1045.5 565.965L1043.36 553.875C1043.06 552.203 1041.47 551.092 1039.8 551.389L1036.1 552.045L1032.71 544.461C1035.73 541.714 1037.33 537.552 1036.57 533.25C1035.39 526.581 1029 522.12 1022.32 523.305C1015.65 524.489 1011.19 530.876 1012.37 537.546C1013.13 541.848 1016.08 545.202 1019.85 546.743L1019.28 555.031L1015.59 555.685C1013.92 555.982 1012.81 557.573 1013.1 559.245L1015.25 571.335C1015.55 573.007 1017.14 574.119 1018.81 573.822L1021.84 573.285L1022.91 579.334L963.838 589.817C963.838 589.82 963.835 589.821 963.835 589.821C961.948 590.156 960.132 589.527 958.852 588.098C957.572 586.667 957.151 584.792 957.695 582.949C958.058 581.728 957.628 580.41 956.614 579.636C955.6 578.865 954.221 578.794 953.131 579.471L945.399 584.274C940.488 587.329 937.968 592.978 938.978 598.668C940.332 606.296 947.647 611.403 955.283 610.053L955.286 610.053L964.294 608.454C963.565 610.426 963.29 612.586 963.682 614.799C964.561 619.752 968.318 623.476 972.924 624.585L952.877 674.314L952.93 674.336C952.72 674.853 952.6 675.408 952.705 676.001C954.811 687.867 971.077 694.566 989.735 691.254C1008.39 687.942 1021.36 676.054 1019.25 664.188C1019.15 663.595 1018.84 663.116 1018.47 662.702L1018.51 662.664L982.576 622.872C986.519 620.245 988.764 615.456 987.885 610.503C987.492 608.29 986.487 606.357 985.129 604.755L1026.13 597.477L1038.68 668.165C1037.2 670.62 1036.52 673.575 1037.06 676.617C1037.6 679.655 1039.25 682.193 1041.49 683.992C1042.27 688.437 1039.75 692.76 1035.49 694.268L1014.06 701.87C1010.33 703.191 1008.13 706.975 1008.82 710.869C1009.59 715.244 1013.79 718.173 1018.16 717.396L1093.04 704.106C1097.41 703.329 1100.34 699.136 1099.56 694.761C1098.87 690.867 1095.5 688.073 1091.54 688.111L1068.81 688.351C1064.29 688.401 1060.44 685.212 1059.64 680.766C1061.12 678.311 1061.8 675.356 1061.26 672.317C1060.72 669.276 1059.07 666.735 1056.83 664.939L1044.28 594.252L1085.29 586.973C1084.56 588.946 1084.29 591.109 1084.68 593.322C1085.56 598.274 1089.31 601.998 1093.92 603.108L1073.88 652.836L1073.93 652.858C1073.72 653.376 1073.6 653.93 1073.7 654.523C1075.81 666.389 1092.07 673.088 1110.73 669.776C1129.39 666.465 1142.35 654.577 1140.25 642.71C1140.14 642.118 1139.84 641.639 1139.46 641.225L1139.5 641.187ZM1023.4 529.351C1026.74 528.759 1029.93 530.986 1030.52 534.324C1031.11 537.658 1028.88 540.849 1025.55 541.441C1022.21 542.033 1019.01 539.806 1018.42 536.471C1017.83 533.137 1020.06 529.944 1023.4 529.351ZM1025.96 547.537C1026.18 547.509 1026.4 547.527 1026.62 547.488C1026.84 547.448 1027.04 547.358 1027.25 547.306L1029.87 553.151L1025.51 553.924L1025.96 547.537ZM1019.69 561.195L1037.84 557.973L1038.91 564.017L1020.76 567.238L1019.69 561.195ZM1027.88 572.211L1033.93 571.138L1035.01 577.187L1028.96 578.261L1027.88 572.211ZM945.024 597.595C944.455 594.39 945.875 591.209 948.643 589.486L951.738 587.568C952.205 589.25 953.057 590.833 954.275 592.192C956.961 595.198 960.94 596.572 964.909 595.867L964.912 595.867L1101.2 571.677C1105.18 570.968 1108.44 568.306 1109.93 564.555C1110.6 562.864 1110.86 561.085 1110.72 559.345L1114.28 560.084C1117.47 560.749 1119.9 563.247 1120.47 566.451C1121.23 570.75 1118.35 574.867 1114.05 575.63L1094.63 579.078L1094.63 579.078L1094.62 579.079L973.66 600.554C973.651 600.556 973.641 600.554 973.635 600.556C973.629 600.557 973.617 600.562 973.608 600.563L954.21 604.007C949.908 604.767 945.787 601.891 945.024 597.595V597.595ZM978.404 627.424L1010.23 662.67L960.644 671.473L978.404 627.424ZM988.661 685.208C975.76 687.498 963.675 684.189 959.863 677.848L1013.16 668.387C1011.77 675.652 1001.56 682.918 988.661 685.208V685.208ZM981.829 611.578C982.421 614.913 980.189 618.107 976.852 618.699C973.516 619.291 970.321 617.061 969.729 613.726C969.138 610.398 971.36 607.215 974.681 606.61L974.733 606.601C978.06 606.026 981.238 608.25 981.829 611.578ZM1055.21 673.395C1055.8 676.73 1053.57 679.921 1050.23 680.513C1046.89 681.105 1043.7 678.878 1043.11 675.543C1042.51 672.205 1044.75 669.015 1048.08 668.423C1051.42 667.83 1054.61 670.061 1055.21 673.395ZM1068.87 694.496L1091.6 694.253C1092.55 694.245 1093.35 694.91 1093.51 695.835C1093.7 696.875 1093 697.875 1091.96 698.06L1017.09 711.35C1016.05 711.535 1015.05 710.835 1014.87 709.795C1014.7 708.867 1015.23 707.97 1016.11 707.656L1037.54 700.057C1043.45 697.964 1047.3 692.609 1047.69 686.602C1048.87 686.745 1050.07 686.778 1051.3 686.559C1052.53 686.341 1053.65 685.896 1054.71 685.356C1057.15 690.861 1062.6 694.565 1068.87 694.496ZM1050.11 662.268C1049.1 662.186 1048.06 662.189 1047.01 662.376C1045.96 662.562 1044.99 662.919 1044.06 663.342L1032.18 596.403L1038.23 595.329L1050.11 662.268ZM1095.7 585.125L1095.7 585.124C1099.04 584.535 1102.23 586.766 1102.82 590.101C1103.42 593.435 1101.18 596.629 1097.85 597.221C1094.51 597.813 1091.32 595.583 1090.72 592.248C1090.14 588.913 1092.36 585.72 1095.7 585.125V585.125ZM1131.23 641.192L1081.64 649.995L1099.4 605.946L1131.23 641.192ZM1109.66 663.73C1096.76 666.02 1084.67 662.711 1080.86 656.371L1134.16 646.909C1132.76 654.174 1122.55 661.44 1109.66 663.73V663.73Z" fill="black"/>
</g>
<g opacity="0.05">
<path d="M354.522 706.418L345.458 697.353L283.754 754.315C279.676 758.079 279.548 764.479 283.472 768.403C287.396 772.327 293.797 772.199 297.561 768.121L354.522 706.418Z" fill="#873F30"/>
<path d="M297.288 768.407C293.494 772.201 287.303 772.233 283.473 768.404C282.341 767.271 281.547 765.933 281.09 764.51C284.475 765.611 288.336 764.806 291.006 762.136C291.099 762.042 291.193 761.943 291.284 761.846L348.247 700.141L354.523 706.417L297.56 768.123C297.469 768.219 297.379 768.316 297.288 768.407V768.407Z" fill="#6C3328"/>
<path d="M363.448 675.876L342.576 700.774L351.103 709.3L376 688.428L363.448 675.876Z" fill="#873F30"/>
<path d="M363.448 675.876L356.704 683.922L358.727 685.946C360.217 687.435 360.217 689.85 358.727 691.34L345.935 704.133L351.103 709.301L376 688.428L363.448 675.876Z" fill="#6C3328"/>
<path d="M346.033 714.12L337.756 705.843C335.363 703.45 335.363 699.571 337.756 697.178C340.149 694.785 344.028 694.785 346.421 697.178L354.698 705.455C357.091 707.848 357.091 711.727 354.698 714.12C352.305 716.513 348.425 716.513 346.033 714.12Z" fill="#BA5D4F"/>
<path d="M354.695 714.12C353.498 715.317 351.929 715.914 350.365 715.914C348.796 715.914 347.227 715.317 346.03 714.12L339.756 707.847C340.954 709.044 342.523 709.641 344.089 709.638C345.655 709.641 347.224 709.044 348.422 707.847C350.816 705.452 350.814 701.573 348.422 699.181L354.695 705.455C357.09 707.849 357.09 711.725 354.695 714.12Z" fill="#A34F41"/>
<path d="M374.263 618.97L392.641 637.348L363.788 666.201L345.41 647.823L374.263 618.97Z" fill="#BA5D4F"/>
<path d="M404.043 706.484L385.665 688.106L414.518 659.253L432.896 677.631L404.043 706.484Z" fill="#A34F41"/>
<path d="M340.24 654.157L339.602 653.519C337.181 651.098 337.181 647.173 339.602 644.752L371.183 613.171C373.604 610.751 377.529 610.751 379.949 613.171L380.588 613.81C383.008 616.23 383.008 620.155 380.588 622.576L349.007 654.157C346.586 656.578 342.661 656.578 340.24 654.157Z" fill="#873F30"/>
<path d="M397.719 711.636L398.357 712.274C400.778 714.695 404.703 714.695 407.123 712.274L438.704 680.693C441.125 678.272 441.125 674.347 438.704 671.927L438.066 671.288C435.646 668.868 431.72 668.868 429.3 671.288L397.719 702.869C395.298 705.29 395.298 709.215 397.719 711.636V711.636Z" fill="#6C3328"/>
<path d="M400.617 630.597L421.255 651.235L377.679 694.811L357.041 674.173L400.617 630.597Z" fill="#FCC16D"/>
<path d="M367.22 684.39L410.796 640.814L421.242 651.26L377.665 694.836L367.22 684.39Z" fill="#FCA62F"/>
<path d="M400.717 629.73L395.661 627.662C393.927 626.954 391.938 627.354 390.614 628.679L355.109 664.184C353.785 665.508 353.385 667.497 354.093 669.23L356.16 674.287C356.999 676.337 359.655 676.872 361.221 675.305L401.736 634.79C403.302 633.224 402.767 630.568 400.717 629.73V629.73Z" fill="#873F30"/>
<path d="M422.147 651.159L424.214 656.215C424.922 657.949 424.522 659.938 423.198 661.262L387.693 696.767C386.368 698.091 384.379 698.492 382.646 697.783L377.59 695.716C375.539 694.878 375.004 692.221 376.571 690.655L417.086 650.14C418.652 648.574 421.308 649.109 422.147 651.159V651.159Z" fill="#6C3328"/>
<path d="M440.864 750.527H365.581V739.962C365.581 737.781 367.349 736.013 369.53 736.013H436.915C439.096 736.013 440.864 737.781 440.864 739.962V750.527Z" fill="#BA5D4F"/>
<path d="M440.863 739.963V750.527H432.601V739.963C432.601 737.783 430.832 736.014 428.652 736.014H436.913C439.093 736.014 440.863 737.783 440.863 739.963Z" fill="#A34F41"/>
<path d="M457.455 771.264H348.99C346.113 771.264 344.202 768.286 345.399 765.67L349.234 757.297C352.555 750.045 359.799 745.395 367.776 745.395H438.668C446.645 745.395 453.89 750.045 457.211 757.297L461.045 765.67C462.244 768.286 460.332 771.264 457.455 771.264V771.264Z" fill="#873F30"/>
<path d="M457.457 771.264H446.897C449.772 771.264 451.683 768.286 450.487 765.672L446.652 757.296C443.331 750.045 436.085 745.393 428.111 745.393H438.667C446.644 745.393 453.891 750.045 457.212 757.296L461.047 765.672C462.243 768.286 460.332 771.264 457.457 771.264Z" fill="#6C3328"/>
<path d="M405.264 631.447C404.877 629.527 403.565 627.939 401.752 627.198L396.696 625.13C393.935 624.002 390.789 624.635 388.679 626.744L387.289 628.134L383.065 623.909C385.99 620.403 385.812 615.166 382.522 611.876L381.883 611.237C378.399 607.754 372.731 607.754 369.248 611.237L337.667 642.818C334.184 646.302 334.184 651.97 337.667 655.453L338.306 656.091C339.993 657.779 342.237 658.708 344.623 658.708C346.738 658.708 348.739 657.977 350.342 656.637L354.564 660.859L353.175 662.249C351.065 664.358 350.432 667.505 351.561 670.265L353.628 675.321C354.317 677.007 355.74 678.26 357.48 678.738L345.306 693.259C342.129 692.025 338.381 692.684 335.822 695.244C333.336 697.729 332.649 701.333 333.739 704.448L281.898 752.304C279.374 754.635 277.947 757.809 277.878 761.244C277.809 764.679 279.109 767.908 281.538 770.337C283.906 772.705 287.035 774 290.373 774C290.459 774 290.545 773.999 290.631 773.997C294.066 773.929 297.24 772.501 299.571 769.977L325.53 741.855C326.555 740.745 326.486 739.015 325.376 737.99C324.266 736.965 322.535 737.034 321.511 738.144L295.551 766.266C294.24 767.686 292.454 768.489 290.522 768.528C288.588 768.563 286.773 767.835 285.407 766.469C284.04 765.102 283.309 763.285 283.348 761.353C283.386 759.421 284.19 757.635 285.61 756.324L336.963 708.918L342.957 714.913L330.268 728.658C329.244 729.768 329.313 731.499 330.423 732.523C330.949 733.009 331.614 733.249 332.277 733.249C333.014 733.249 333.749 732.953 334.288 732.369L347.415 718.148C348.35 718.478 349.344 718.65 350.365 718.65C352.733 718.65 354.958 717.728 356.632 716.054C358.306 714.38 359.228 712.155 359.228 709.787C359.228 708.666 359.019 707.578 358.623 706.564L373.138 694.396C373.617 696.135 374.869 697.558 376.554 698.248L381.611 700.315C382.519 700.686 383.469 700.867 384.411 700.867C386.33 700.867 388.212 700.116 389.627 698.701L391.017 697.311L395.242 701.536C392.316 705.042 392.495 710.279 395.785 713.569L396.423 714.208C398.165 715.949 400.452 716.82 402.741 716.82C405.028 716.82 407.317 715.949 409.058 714.208L440.639 682.627C444.122 679.143 444.122 673.475 440.639 669.992L440.001 669.354C436.711 666.063 431.474 665.885 427.967 668.81L423.743 664.585L425.133 663.195C427.242 661.086 427.875 657.94 426.746 655.179L424.679 650.123C423.938 648.31 422.349 646.997 420.43 646.611C420.316 646.425 405.454 631.56 405.264 631.447V631.447ZM361.471 682.492L369.384 690.404L355.312 702.201L349.675 696.563L361.471 682.492ZM433.683 672.208C434.608 672.208 435.477 672.568 436.132 673.222L436.77 673.861C438.12 675.211 438.12 677.408 436.77 678.759L405.189 710.339C403.838 711.69 401.641 711.69 400.291 710.339L399.653 709.701C398.302 708.351 398.302 706.153 399.653 704.803L431.234 673.222C431.888 672.568 432.758 672.208 433.683 672.208V672.208ZM424.069 672.65L399.081 697.639L394.885 693.443L419.874 668.454L424.069 672.65ZM421.263 659.328L385.758 694.833C385.211 695.379 384.396 695.544 383.681 695.251L378.624 693.184C378.579 693.166 378.444 693.11 378.405 692.919C378.366 692.727 378.47 692.623 378.504 692.589L419.019 652.074C419.048 652.045 419.127 651.966 419.267 651.966C419.292 651.966 419.32 651.969 419.349 651.975C419.54 652.013 419.596 652.149 419.614 652.194L421.681 657.251C421.974 657.966 421.81 658.781 421.263 659.328V659.328ZM414.751 648.607L375.037 688.321L363.555 676.839L403.269 637.125L414.751 648.607ZM344.623 653.237C343.698 653.237 342.829 652.877 342.175 652.223C342.175 652.223 342.174 652.223 342.174 652.222L341.536 651.584C340.186 650.234 340.186 648.037 341.536 646.686L373.117 615.106C373.792 614.43 374.679 614.093 375.566 614.093C376.453 614.093 377.34 614.431 378.015 615.105L378.653 615.744C379.307 616.398 379.668 617.268 379.668 618.193C379.668 619.118 379.307 619.988 378.653 620.642L347.072 652.223C346.418 652.877 345.549 653.237 344.623 653.237V653.237ZM357.043 666.117L376.57 646.59C377.638 645.522 377.638 643.79 376.57 642.722C375.501 641.654 373.769 641.654 372.701 642.722L358.433 656.991L354.237 652.795L379.226 627.806L383.422 632.002L381.83 633.594C380.761 634.662 380.761 636.394 381.83 637.462C382.898 638.531 384.63 638.531 385.698 637.462L392.548 630.612C393.095 630.065 393.91 629.901 394.625 630.194L399.682 632.261C399.727 632.28 399.862 632.335 399.901 632.527C399.94 632.718 399.836 632.822 399.802 632.856L359.286 673.371C359.252 673.405 359.149 673.508 358.957 673.47C358.766 673.432 358.711 673.296 358.692 673.251L356.625 668.194C356.332 667.479 356.496 666.664 357.043 666.117V666.117ZM339.69 699.112C340.351 698.451 341.219 698.121 342.088 698.121C342.957 698.121 343.825 698.451 344.487 699.112L352.763 707.389C353.404 708.03 353.757 708.881 353.757 709.788C353.757 710.693 353.404 711.545 352.763 712.186C352.122 712.827 351.271 713.179 350.364 713.179C349.458 713.179 348.607 712.826 347.966 712.186L339.689 703.909C338.367 702.587 338.367 700.435 339.69 699.112V699.112Z" fill="black"/>
<path d="M459.698 756.159C456.641 749.484 450.604 744.732 443.599 743.195V739.962C443.599 736.277 440.6 733.278 436.914 733.278H390.05C388.54 733.278 387.315 734.503 387.315 736.013C387.315 737.524 388.54 738.749 390.05 738.749H436.914C437.584 738.749 438.128 739.293 438.128 739.962V742.66H368.317V739.962C368.317 739.293 368.861 738.749 369.53 738.749H377.141C378.652 738.749 379.877 737.524 379.877 736.013C379.877 734.503 378.652 733.278 377.141 733.278H369.53C365.844 733.278 362.846 736.277 362.846 739.962V743.195C355.841 744.732 349.803 749.484 346.746 756.159L342.912 764.531C341.959 766.61 342.129 769.001 343.364 770.925C344.599 772.85 346.702 773.999 348.989 773.999H457.455C459.742 773.999 461.845 772.85 463.08 770.925C464.316 769.001 464.485 766.61 463.533 764.531L459.698 756.159ZM458.477 767.97C458.343 768.178 458.032 768.528 457.455 768.528H348.99C348.413 768.528 348.102 768.178 347.968 767.97C347.834 767.761 347.646 767.334 347.886 766.809L351.721 758.437C354.588 752.176 360.891 748.131 367.776 748.131H438.669C445.555 748.131 451.857 752.176 454.724 758.437L458.559 766.809C458.799 767.334 458.611 767.761 458.477 767.97Z" fill="black"/>
<path d="M451.704 729.474C452.401 729.474 453.099 729.209 453.632 728.679L456.592 725.736C457.664 724.671 457.669 722.939 456.604 721.868C455.539 720.796 453.807 720.791 452.735 721.856L449.775 724.799C448.704 725.864 448.699 727.596 449.764 728.667C450.298 729.205 451.001 729.474 451.704 729.474V729.474Z" fill="black"/>
<path d="M441.443 715.861L440.416 719.955C440.048 721.42 440.938 722.906 442.404 723.273C442.627 723.329 442.851 723.356 443.071 723.356C444.296 723.356 445.411 722.528 445.723 721.286L446.749 717.192C447.117 715.727 446.227 714.241 444.762 713.874C443.297 713.506 441.81 714.395 441.443 715.861Z" fill="black"/>
<path d="M455.117 736.056C455.423 737.305 456.541 738.142 457.772 738.142C457.987 738.142 458.206 738.117 458.424 738.063L462.525 737.06C463.992 736.701 464.891 735.221 464.532 733.753C464.173 732.286 462.693 731.387 461.225 731.746L457.124 732.749C455.657 733.108 454.758 734.589 455.117 736.056V736.056Z" fill="black"/>
</g>
</svg>
