<svg width="36" height="36" viewBox="0 0 36 36" fill="none" xmlns="http://www.w3.org/2000/svg">
<path d="M31.6371 14.2179C31.9284 14.2179 32.1645 13.9818 32.1645 13.6905V11.8508H32.6316C32.9229 11.8508 33.159 11.6147 33.159 11.3234V9.57794H35.4727C35.764 9.57794 36 9.34183 36 9.05059V5.07301C36 4.8329 35.8378 4.62315 35.6055 4.56268L18.1328 0.0169805C18.0458 -0.00566016 17.9543 -0.00566016 17.8672 0.0169805L0.394594 4.56268C0.162211 4.62315 0 4.8329 0 5.07301V9.05052C0 9.34176 0.236039 9.57787 0.527344 9.57787H2.84105V11.3234C2.84105 11.6146 3.07709 11.8507 3.36839 11.8507H3.83548V28.1266H3.36839C3.07709 28.1266 2.84105 28.3627 2.84105 28.6539V30.3994H1.94787C1.65656 30.3994 1.42052 30.6356 1.42052 30.9268V32.6723H0.527344C0.236039 32.6723 0 32.9084 0 33.1996V35.4726C0 35.7639 0.236039 36 0.527344 36H35.4727C35.764 36 36 35.7639 36 35.4726V33.1998C36 32.9085 35.764 32.6724 35.4727 32.6724H34.5795V30.9269C34.5795 30.6357 34.3434 30.3996 34.0521 30.3996H33.159V28.6541C33.159 28.3628 32.9229 28.1267 32.6316 28.1267H32.1645V16.1515C32.1645 15.8602 31.9284 15.6241 31.6371 15.6241C31.3458 15.6241 31.1098 15.8602 31.1098 16.1515V28.1267H27.3347V11.8508H31.1098V13.6905C31.1098 13.9818 31.3459 14.2179 31.6371 14.2179V14.2179ZM32.1043 10.7961H26.3403V9.57794H32.1043V10.7961ZM1.05469 5.48076L18 1.07223L34.9453 5.48076V8.52325H1.05469V5.48076ZM20.882 10.7961H15.118V9.57794H20.882V10.7961ZM9.65967 9.57794V10.7961H3.89573V9.57794H9.65967ZM4.89016 11.8508H8.66531V15.9518C8.66531 16.243 8.90135 16.4791 9.19266 16.4791C9.48396 16.4791 9.72 16.243 9.72 15.9518V11.8508H10.187C10.4783 11.8508 10.7144 11.6147 10.7144 11.3234V9.57794H14.0633V11.3234C14.0633 11.6147 14.2994 11.8508 14.5907 11.8508H15.0578V28.1267H14.5907C14.2994 28.1267 14.0633 28.3628 14.0633 28.654V30.3995H10.7144V28.654C10.7144 28.3628 10.4783 28.1267 10.187 28.1267H9.72V18.4127C9.72 18.1215 9.48396 17.8854 9.19266 17.8854C8.90135 17.8854 8.66531 18.1215 8.66531 18.4127V28.1267H4.89016V11.8508ZM20.882 29.1813V30.3995H15.118V29.1813H20.882ZM3.89573 29.1813H9.65967V30.3995H3.89573V29.1813ZM34.9453 34.9453H1.05469V33.7271H34.9453V34.9453ZM33.5248 32.6724H2.47521V31.4543H33.5248V32.6724ZM26.3403 30.3996V29.1814H32.1043V30.3996H26.3403ZM26.28 28.1267H25.813C25.5217 28.1267 25.2856 28.3628 25.2856 28.654V30.3995H21.9367V28.654C21.9367 28.3628 21.7006 28.1267 21.4093 28.1267H20.9425V23.2326C20.9425 22.9414 20.7065 22.7053 20.4152 22.7053C20.1239 22.7053 19.8878 22.9414 19.8878 23.2326V28.1267H16.1124V11.8508H19.8878V20.7717C19.8878 21.0629 20.1239 21.299 20.4152 21.299C20.7065 21.299 20.9425 21.0629 20.9425 20.7717V11.8508H21.4093C21.7006 11.8508 21.9367 11.6147 21.9367 11.3234V9.57794H25.2856V11.3234C25.2856 11.6147 25.5217 11.8508 25.813 11.8508H26.28V28.1267Z" fill="#313B4E"/>
</svg>
