<svg width="168" height="168" viewBox="0 0 168 168" fill="none" xmlns="http://www.w3.org/2000/svg">
<circle cx="84" cy="84" r="77" fill="#F2F2F2"/>
<circle cx="84" cy="84" r="83.5" stroke="#F2F2F2"/>
<path d="M50.75 65.45V83H46.475V75.775H39.825V83H35.55V65.45H39.825V72.325H46.475V65.45H50.75ZM62.1361 83.175C60.4861 83.175 58.9695 82.7917 57.5861 82.025C56.2195 81.2583 55.1278 80.1917 54.3111 78.825C53.5111 77.4417 53.1111 75.8917 53.1111 74.175C53.1111 72.4583 53.5111 70.9167 54.3111 69.55C55.1278 68.1833 56.2195 67.1167 57.5861 66.35C58.9695 65.5833 60.4861 65.2 62.1361 65.2C63.7861 65.2 65.2945 65.5833 66.6611 66.35C68.0445 67.1167 69.1278 68.1833 69.9111 69.55C70.7111 70.9167 71.1111 72.4583 71.1111 74.175C71.1111 75.8917 70.7111 77.4417 69.9111 78.825C69.1111 80.1917 68.0278 81.2583 66.6611 82.025C65.2945 82.7917 63.7861 83.175 62.1361 83.175ZM62.1361 79.275C63.5361 79.275 64.6528 78.8083 65.4861 77.875C66.3361 76.9417 66.7611 75.7083 66.7611 74.175C66.7611 72.625 66.3361 71.3917 65.4861 70.475C64.6528 69.5417 63.5361 69.075 62.1361 69.075C60.7195 69.075 59.5861 69.5333 58.7361 70.45C57.9028 71.3667 57.4861 72.6083 57.4861 74.175C57.4861 75.725 57.9028 76.9667 58.7361 77.9C59.5861 78.8167 60.7195 79.275 62.1361 79.275ZM89.1895 83H84.9145L77.7645 72.175V83H73.4895V65.45H77.7645L84.9145 76.325V65.45H89.1895V83ZM96.5633 68.875V72.425H102.288V75.725H96.5633V79.575H103.038V83H92.2883V65.45H103.038V68.875H96.5633ZM112.164 83.175C110.88 83.175 109.73 82.9667 108.714 82.55C107.697 82.1333 106.88 81.5167 106.264 80.7C105.664 79.8833 105.347 78.9 105.314 77.75H109.864C109.93 78.4 110.155 78.9 110.539 79.25C110.922 79.5833 111.422 79.75 112.039 79.75C112.672 79.75 113.172 79.6083 113.539 79.325C113.905 79.025 114.089 78.6167 114.089 78.1C114.089 77.6667 113.939 77.3083 113.639 77.025C113.355 76.7417 112.997 76.5083 112.564 76.325C112.147 76.1417 111.547 75.9333 110.764 75.7C109.63 75.35 108.705 75 107.989 74.65C107.272 74.3 106.655 73.7833 106.139 73.1C105.622 72.4167 105.364 71.525 105.364 70.425C105.364 68.7917 105.955 67.5167 107.139 66.6C108.322 65.6667 109.864 65.2 111.764 65.2C113.697 65.2 115.255 65.6667 116.439 66.6C117.622 67.5167 118.255 68.8 118.339 70.45H113.714C113.68 69.8833 113.472 69.4417 113.089 69.125C112.705 68.7917 112.214 68.625 111.614 68.625C111.097 68.625 110.68 68.7667 110.364 69.05C110.047 69.3167 109.889 69.7083 109.889 70.225C109.889 70.7917 110.155 71.2333 110.689 71.55C111.222 71.8667 112.055 72.2083 113.189 72.575C114.322 72.9583 115.239 73.325 115.939 73.675C116.655 74.025 117.272 74.5333 117.789 75.2C118.305 75.8667 118.564 76.725 118.564 77.775C118.564 78.775 118.305 79.6833 117.789 80.5C117.289 81.3167 116.555 81.9667 115.589 82.45C114.622 82.9333 113.48 83.175 112.164 83.175ZM133.82 65.45V68.875H129.17V83H124.895V68.875H120.245V65.45H133.82Z" fill="#313B4E"/>
<path d="M49.096 95.848V97.032H46.056V107H44.6V97.032H41.544V95.848H49.096ZM56.7603 107L54.1043 102.44H52.3443V107H50.8883V95.848H54.4883C55.3309 95.848 56.0403 95.992 56.6163 96.28C57.2029 96.568 57.6403 96.9573 57.9283 97.448C58.2163 97.9387 58.3603 98.4987 58.3603 99.128C58.3603 99.896 58.1363 100.573 57.6883 101.16C57.2509 101.747 56.5896 102.136 55.7043 102.328L58.5043 107H56.7603ZM52.3443 101.272H54.4883C55.2776 101.272 55.8696 101.08 56.2643 100.696C56.6589 100.301 56.8563 99.7787 56.8563 99.128C56.8563 98.4667 56.6589 97.9547 56.2643 97.592C55.8803 97.2293 55.2883 97.048 54.4883 97.048H52.3443V101.272ZM62.0786 97.032V100.76H66.1426V101.96H62.0786V105.8H66.6226V107H60.6226V95.832H66.6226V97.032H62.0786ZM75.4178 104.52H70.5538L69.6578 107H68.1217L72.1538 95.912H73.8338L77.8498 107H76.3138L75.4178 104.52ZM75.0018 103.336L72.9858 97.704L70.9698 103.336H75.0018ZM86.471 95.848V97.032H83.431V107H81.975V97.032H78.919V95.848H86.471ZM99.5753 95.928V107H98.1193V98.744L94.4393 107H93.4153L89.7193 98.728V107H88.2633V95.928H89.8313L93.9273 105.08L98.0233 95.928H99.5753ZM103.501 97.032V100.76H107.565V101.96H103.501V105.8H108.045V107H102.045V95.832H108.045V97.032H103.501ZM119.016 107H117.56L111.704 98.12V107H110.248V95.832H111.704L117.56 104.696V95.832H119.016V107ZM128.362 95.848V97.032H125.322V107H123.866V97.032H120.81V95.848H128.362Z" fill="#313B4E"/>
</svg>
