<svg width="40" height="40" viewBox="0 0 40 40" fill="none" xmlns="http://www.w3.org/2000/svg">
<path d="M30.625 30.625H36.875V31.875H30.625V30.625Z" fill="white"/>
<path d="M33.125 33.125H34.375V34.375H33.125V33.125Z" fill="white"/>
<path d="M35.625 33.125H36.875V34.375H35.625V33.125Z" fill="white"/>
<path d="M30.625 33.125H31.875V34.375H30.625V33.125Z" fill="white"/>
<path d="M3.125 5.625H9.375V6.875H3.125V5.625Z" fill="white"/>
<path d="M8.125 8.125H9.375V9.375H8.125V8.125Z" fill="white"/>
<path d="M3.125 8.125H4.375V9.375H3.125V8.125Z" fill="white"/>
<path d="M5.625 8.125H6.875V9.375H5.625V8.125Z" fill="white"/>
<path d="M30.625 22.3306V18.125H37.5C38.5338 18.125 39.375 17.2838 39.375 16.25V2.5C39.375 1.46625 38.5338 0.625 37.5 0.625H21.25C20.2162 0.625 19.375 1.46625 19.375 2.5V6.875H11.875V3.125H0.625V11.875H11.875V8.125H19.375V9.375H17.6694L17.1219 11.0837C16.6394 11.2387 16.1725 11.4312 15.7288 11.6581L14.1356 10.8381L10.8394 14.1344L11.6594 15.7275C11.4331 16.1706 11.2406 16.6369 11.085 17.1206L9.375 17.6694V21.875H2.5C1.46625 21.875 0.625 22.7162 0.625 23.75V37.5C0.625 38.5338 1.46625 39.375 2.5 39.375H18.75C19.7838 39.375 20.625 38.5338 20.625 37.5V33.125H28.125V36.875H39.375V28.125H28.125V31.875H20.625V30.625H22.3306L22.8781 28.9162C23.3612 28.7606 23.8281 28.5688 24.2712 28.3419L25.8644 29.1619L29.1606 25.8656L28.3406 24.2725C28.5669 23.8294 28.7594 23.3631 28.915 22.8794L30.625 22.3306ZM10.625 10.625H1.875V4.375H10.625V10.625ZM29.375 29.375H38.125V35.625H29.375V29.375ZM25.625 20C25.625 22.89 23.4331 25.2763 20.625 25.5881V23.75C20.625 22.7162 19.7838 21.875 18.75 21.875H14.7012C14.4887 21.275 14.375 20.6469 14.375 20C14.375 17.11 16.5669 14.7238 19.375 14.4119V16.25C19.375 17.2838 20.2162 18.125 21.25 18.125H25.2988C25.5113 18.725 25.625 19.3531 25.625 20V20ZM25.05 16.875C25.2619 15.4044 26.205 14.1712 27.5 13.5531V13.75C27.5 14.7838 28.3412 15.625 29.375 15.625C30.4088 15.625 31.25 14.7838 31.25 13.75V13.5531C32.545 14.1712 33.4881 15.4044 33.7 16.875H25.05ZM26.25 7.25312C26.25 6.01062 27.2606 5 28.5031 5H28.75V6.48875L27.2863 7.22063C26.8969 7.41563 26.5987 7.73125 26.4244 8.10938C26.3131 7.83875 26.25 7.55 26.25 7.25312ZM28.75 13.175C28.955 13.1456 29.1625 13.125 29.375 13.125C29.5875 13.125 29.795 13.1456 30 13.175V13.75C30 14.0944 29.72 14.375 29.375 14.375C29.03 14.375 28.75 14.0944 28.75 13.75V13.175ZM32.3256 8.10875C32.1513 7.73062 31.8531 7.415 31.4637 7.22L30 6.48875V5H30.2469C31.4894 5 32.5 6.01062 32.5 7.25312C32.5 7.55 32.4375 7.83875 32.3256 8.10875ZM28.75 11.875C28.0606 11.875 27.5 11.3144 27.5 10.625V8.8975C27.5 8.65938 27.6325 8.445 27.8456 8.33875L29.375 7.57375L30.9044 8.33875C31.1175 8.445 31.25 8.65938 31.25 8.8975V10.625C31.25 11.3144 30.6894 11.875 30 11.875H28.75ZM20.625 2.5C20.625 2.15563 20.905 1.875 21.25 1.875H37.5C37.845 1.875 38.125 2.15563 38.125 2.5V16.25C38.125 16.5944 37.845 16.875 37.5 16.875H34.9631C34.7425 14.8912 33.4856 13.2206 31.7481 12.4075C32.2113 11.9531 32.5 11.3231 32.5 10.625V10.1894L33.1619 9.19688C33.5469 8.61938 33.75 7.94687 33.75 7.25375C33.75 5.32187 32.1781 3.75 30.2469 3.75H28.5037C26.5719 3.75 25 5.32187 25 7.25312C25 7.94687 25.2031 8.61875 25.5881 9.19625L26.25 10.1894V10.625C26.25 11.3231 26.5387 11.9531 27.0019 12.4075C25.2644 13.2206 24.0075 14.8912 23.7869 16.875H21.25C20.905 16.875 20.625 16.5944 20.625 16.25V2.5ZM10.625 18.5806L12.0975 18.1088L12.1888 17.7856C12.3638 17.1675 12.6062 16.58 12.9087 16.0381L13.0731 15.7456L12.3669 14.3737L14.3744 12.3669L15.7456 13.0725L16.0388 12.9087C16.5825 12.6044 17.1706 12.3619 17.7869 12.1881L18.11 12.0969L18.5806 10.625H19.375V13.1569C15.8762 13.4738 13.125 16.42 13.125 20C13.125 20.6419 13.2194 21.2681 13.3913 21.875H10.625V18.5806ZM6.875 32.5V29.375C6.875 27.5206 8.22938 25.9806 10 25.6813V27.1137L8.53625 27.8456C7.8975 28.165 7.5 28.8075 7.5 29.5225V31.25C7.5 31.9481 7.78875 32.5781 8.25188 33.0325C7.90188 33.1963 7.57188 33.395 7.26562 33.6244C7.01687 33.3019 6.875 32.9119 6.875 32.5V32.5ZM10 32.5C9.31062 32.5 8.75 31.9394 8.75 31.25V29.5225C8.75 29.2844 8.8825 29.07 9.09563 28.9637L10.625 28.1988L12.1544 28.9637C12.3675 29.07 12.5 29.2844 12.5 29.5225V31.25C12.5 31.9394 11.9394 32.5 11.25 32.5H10ZM10.625 33.75C11.1262 33.75 11.6056 33.8387 12.0544 33.9944L11.6075 35H9.6425L9.19563 33.9944C9.64438 33.8387 10.1238 33.75 10.625 33.75ZM11.0519 36.25L10.625 37.2106L10.1981 36.25H11.0519ZM13.1662 34.5706C14.2744 35.3656 15 36.6606 15 38.125H11.5869L13.1662 34.5706ZM14.375 32.5C14.375 32.9119 14.2331 33.3019 13.9844 33.6238C13.6781 33.3944 13.3481 33.1963 12.9981 33.0319C13.4613 32.5781 13.75 31.9481 13.75 31.25V29.5225C13.75 28.8075 13.3525 28.1656 12.7137 27.8456L11.25 27.1137V25.6813C13.0206 25.98 14.375 27.52 14.375 29.375V32.5ZM8.08375 34.5706L9.66313 38.125H6.25C6.25 36.6606 6.97563 35.3656 8.08375 34.5706V34.5706ZM19.375 37.5C19.375 37.8444 19.095 38.125 18.75 38.125H16.25C16.25 36.7356 15.7412 35.465 14.9031 34.4825C15.3669 33.9275 15.625 33.2338 15.625 32.5V29.375C15.625 26.6181 13.3819 24.375 10.625 24.375C7.86813 24.375 5.625 26.6181 5.625 29.375V32.5C5.625 33.2338 5.88312 33.9275 6.34687 34.4825C5.50875 35.465 5 36.7356 5 38.125H2.5C2.155 38.125 1.875 37.8444 1.875 37.5V23.75C1.875 23.4056 2.155 23.125 2.5 23.125H18.75C19.095 23.125 19.375 23.4056 19.375 23.75V37.5ZM27.9025 21.8906L27.8113 22.2137C27.6363 22.8319 27.3938 23.4194 27.0913 23.9613L26.9269 24.2537L27.6331 25.6256L25.6256 27.6325L24.2537 26.9269L23.9613 27.0906C23.4188 27.3944 22.8306 27.6375 22.2131 27.8113L21.89 27.9025L21.4194 29.375H20.625V26.8431C24.1238 26.5263 26.875 23.58 26.875 20C26.875 19.3581 26.7806 18.7319 26.6088 18.125H29.375V21.4194L27.9025 21.8906Z" fill="white"/>
<path d="M3.125 24.375H4.375V25.625H3.125V24.375Z" fill="white"/>
<path d="M16.875 24.375H18.125V25.625H16.875V24.375Z" fill="white"/>
<path d="M21.875 3.125H23.125V4.375H21.875V3.125Z" fill="white"/>
<path d="M35.625 3.125H36.875V4.375H35.625V3.125Z" fill="white"/>
</svg>
