<svg width="70" height="70" viewBox="0 0 70 70" fill="none" xmlns="http://www.w3.org/2000/svg">
<path d="M19.4142 52.4316C18.8702 52.4316 18.3486 52.2156 17.964 51.8309C17.5794 51.4463 17.3633 50.9247 17.3633 50.3809V27.5902C17.3633 22.7031 21.3253 18.7272 26.1952 18.7272H43.8047C48.6746 18.7272 52.6367 22.7031 52.6367 27.5902V50.38C52.6367 51.5126 51.7185 52.4308 50.5859 52.4308L19.4142 52.4316Z" fill="#FFF4F4"/>
<path d="M43.8046 18.7272H35.0203V52.4312L50.5858 52.4308C51.7184 52.4308 52.6366 51.5126 52.6366 50.38V27.5902C52.6366 22.7031 48.6746 18.7272 43.8046 18.7272V18.7272Z" fill="#F6EFEA"/>
<path d="M35 30.616C33.8674 30.616 32.9492 29.6978 32.9492 28.5652V19.4109C32.9492 18.2783 33.8674 17.3601 35 17.3601C36.1327 17.3601 37.0508 18.2783 37.0508 19.4109V28.5652C37.0508 29.6978 36.1326 30.616 35 30.616Z" fill="#FF8856"/>
<path d="M14.7836 69.8191C14.6691 69.8191 14.5539 69.8095 14.4389 69.79C13.7307 69.6691 13.1372 69.1866 12.8747 68.5179L10.1465 61.5708L3.26529 58.6801C2.60289 58.4018 2.13449 57.7973 2.03045 57.0863C1.9264 56.3755 2.20189 55.662 2.75683 55.2056L8.52103 50.4641L9.14378 43.0264C9.20367 42.3106 9.63392 41.6783 10.2779 41.3596C10.9218 41.041 11.6854 41.0826 12.2911 41.4692L18.5816 45.486L25.8477 43.7799C26.5471 43.6152 27.2814 43.8293 27.7835 44.3433C28.2855 44.8574 28.482 45.5965 28.3014 46.2918L26.425 53.5159L30.2931 59.899C30.6654 60.5135 30.689 61.278 30.3554 61.9143C30.0218 62.5504 29.3794 62.9656 28.6623 63.0088L21.2121 63.4566L16.3366 69.1079C15.9431 69.5637 15.3742 69.8191 14.7836 69.8191V69.8191Z" fill="#FDBF00"/>
<path d="M55.2162 69.8191C54.6255 69.8191 54.0568 69.5637 53.6636 69.1081L48.7881 63.4568L41.3378 63.009C40.6208 62.966 39.9784 62.5506 39.6447 61.9145C39.3111 61.2782 39.3346 60.5136 39.7071 59.8992L43.5748 53.516L41.6985 46.292C41.518 45.5967 41.7144 44.8576 42.2164 44.3435C42.7184 43.8294 43.4526 43.6153 44.1522 43.7801L51.4182 45.4862L57.709 41.4694C58.3145 41.0829 59.0785 41.0415 59.7221 41.3598C60.3661 41.6784 60.7962 42.3108 60.8562 43.0266L61.479 50.4643L67.2432 55.2058C67.798 55.6622 68.0735 56.3757 67.9696 57.0865C67.8655 57.7975 67.397 58.402 66.7347 58.6802L59.8535 61.571L57.1253 68.5181C56.8627 69.1868 56.2692 69.6693 55.5611 69.7901C55.446 69.8094 55.3306 69.8191 55.2162 69.8191V69.8191Z" fill="#FF8856"/>
<path d="M45.7279 70C45.4582 70 45.1871 69.9468 44.9306 69.8385L34.9999 65.6463L25.0692 69.8385C24.4075 70.1177 23.6476 70.0306 23.0663 69.6082C22.4851 69.186 22.1672 68.4902 22.2285 67.7745L23.1467 57.0344L16.091 48.8853C15.6207 48.3421 15.469 47.5925 15.691 46.9091C15.913 46.226 16.4764 45.7086 17.1762 45.5456L27.6742 43.1002L33.2442 33.8715C33.6154 33.2564 34.2814 32.8804 34.9999 32.8804C35.7184 32.8804 36.3845 33.2564 36.7556 33.8715L42.3257 43.1002L52.8238 45.5456C53.5235 45.7085 54.0868 46.226 54.3088 46.9091C54.5309 47.5925 54.3792 48.3421 53.9088 48.8853L46.8531 57.0344L47.7715 67.7745C47.8327 68.4902 47.5149 69.1858 46.9335 69.6082C46.5777 69.867 46.1545 70 45.7279 70V70Z" fill="#FFDE46"/>
<path d="M35.0203 17.3611V30.6149C36.1434 30.6038 37.0507 29.6908 37.0507 28.5652V19.4109C37.0507 18.2852 36.1434 17.3722 35.0203 17.3611V17.3611Z" fill="#FF435B"/>
<path d="M54.3091 46.9091C54.087 46.2259 53.5238 45.7086 52.824 45.5456L42.3259 43.1001L36.7559 33.8715C36.3882 33.2623 35.7312 32.8881 35.0205 32.8811V65.6548L44.9308 69.8384C45.1873 69.9466 45.4584 69.9998 45.7282 69.9998C46.1547 69.9998 46.5779 69.8668 46.9338 69.6081C47.5151 69.1858 47.833 68.4902 47.7717 67.7745L46.8534 57.0344L53.909 48.8853C54.3793 48.3422 54.5311 47.5924 54.3091 46.9091Z" fill="#FFCD00"/>
<path d="M35 21.0547C29.1952 21.0547 24.4727 16.3321 24.4727 10.5273C24.4727 4.72254 29.1952 0 35 0C40.8048 0 45.5273 4.72254 45.5273 10.5273C45.5273 16.3321 40.8048 21.0547 35 21.0547Z" fill="#FFE4C1"/>
<path d="M35.0203 0.000549316V21.0541C40.8156 21.0431 45.5272 16.3253 45.5272 10.5273C45.5272 4.72938 40.8156 0.0116235 35.0203 0.000549316V0.000549316Z" fill="#FDD1A3"/>
</svg>
