<svg width="77" height="77" viewBox="0 0 77 77" fill="none" xmlns="http://www.w3.org/2000/svg">
<path d="M22.8594 60.1562H20.4531V62.5625H22.8594V60.1562Z" fill="black"/>
<path d="M65.9899 4.88614C65.7543 4.17099 65.301 3.54745 64.6933 3.10283C64.0857 2.65822 63.3542 2.41481 62.6013 2.4067C61.8484 2.3986 61.1118 2.6262 60.4947 3.05762C59.8776 3.48905 59.411 4.10269 59.1601 4.8126H34.6837C34.4328 4.10269 33.9661 3.48905 33.349 3.05762C32.7319 2.6262 31.9954 2.3986 31.2425 2.4067C30.4896 2.41481 29.7581 2.65822 29.1504 3.10283C28.5428 3.54745 28.0894 4.17099 27.8538 4.88614C26.1347 5.13391 24.5623 5.99236 23.4242 7.30443C22.2862 8.61651 21.6586 10.2945 21.6562 12.0313V21.6563C21.6586 23.3932 22.2862 25.0712 23.4242 26.3833C24.5623 27.6953 26.1347 28.5538 27.8538 28.8016C28.0894 29.5167 28.5428 30.1402 29.1504 30.5849C29.7581 31.0295 30.4896 31.2729 31.2425 31.281C31.9954 31.2891 32.7319 31.0615 33.349 30.6301C33.9661 30.1986 34.4328 29.585 34.6837 28.8751H39.9101C39.7518 29.3219 39.6832 29.7955 39.7081 30.2688C39.733 30.7422 39.851 31.206 40.0552 31.6337C40.2595 32.0614 40.546 32.4447 40.8985 32.7616C41.251 33.0785 41.6624 33.3229 42.1094 33.4807V42.6761C41.7879 42.3704 41.4351 42.0995 41.0566 41.8679C39.6407 40.9911 37.9394 40.699 36.3121 41.0532C34.6848 41.4074 33.2588 42.3803 32.3355 43.7663L30.1473 47.0486C29.9276 47.3796 29.6295 47.6511 29.2795 47.8389C28.9294 48.0267 28.5383 48.125 28.1411 48.1251H27.6719V46.922C27.6719 46.6029 27.5451 46.2969 27.3195 46.0712C27.0939 45.8456 26.7878 45.7188 26.4688 45.7188H6.01562V48.1251H25.2656V64.9688H6.01562V67.3751H26.4688C26.7878 67.3751 27.0939 67.2483 27.3195 67.0227C27.5451 66.7971 27.6719 66.4911 27.6719 66.172V64.9688H29.7951C33.0602 66.5502 36.6407 67.3728 40.2686 67.3751H42.1094V69.7813C42.1094 71.0577 42.6164 72.2818 43.5189 73.1843C44.4214 74.0868 45.6455 74.5938 46.9219 74.5938C48.1982 74.5938 49.4223 74.0868 50.3248 73.1843C51.2273 72.2818 51.7344 71.0577 51.7344 69.7813V67.1682C52.4375 66.9186 53.0463 66.4577 53.4771 65.8485C53.9079 65.2394 54.1397 64.5118 54.1406 63.7657C54.1426 63.1448 53.9823 62.5341 53.6756 61.9943C54.4542 61.4987 55.013 60.7232 55.2366 59.8278C55.4603 58.9324 55.3318 57.9853 54.8777 57.1818C55.6565 56.6864 56.2155 55.911 56.4393 55.0155C56.6632 54.1201 56.5349 53.1729 56.0808 52.3693C56.5881 52.0391 57.0059 51.5888 57.2971 51.0582C57.5883 50.5277 57.7439 49.9334 57.75 49.3282C57.7489 48.3713 57.3683 47.4538 56.6917 46.7772C56.015 46.1005 55.0976 45.7199 54.1406 45.7188H51.7344V33.4807C52.1813 33.3229 52.5928 33.0785 52.9453 32.7616C53.2977 32.4447 53.5843 32.0614 53.7885 31.6337C53.9928 31.206 54.1107 30.7422 54.1356 30.2688C54.1606 29.7955 54.0919 29.3219 53.9337 28.8751H59.1601C59.411 29.585 59.8776 30.1986 60.4947 30.6301C61.1118 31.0615 61.8484 31.2891 62.6013 31.281C63.3542 31.2729 64.0857 31.0295 64.6933 30.5849C65.301 30.1402 65.7543 29.5167 65.9899 28.8016C67.709 28.5538 69.2814 27.6953 70.4195 26.3833C71.5576 25.0712 72.1852 23.3932 72.1875 21.6563V12.0313C72.1852 10.2945 71.5576 8.61651 70.4195 7.30443C69.2814 5.99236 67.709 5.13391 65.9899 4.88614V4.88614ZM58.9531 7.21885V26.4688H34.8906V7.21885H58.9531ZM24.0625 21.6563V12.0313C24.0638 10.9647 24.4189 9.92866 25.072 9.08538C25.7251 8.24211 26.6395 7.63924 27.6719 7.37119V26.3165C26.6395 26.0484 25.7251 25.4456 25.072 24.6023C24.4189 23.759 24.0638 22.723 24.0625 21.6563V21.6563ZM32.4844 27.672C32.4844 27.9911 32.3576 28.2971 32.132 28.5227C31.9064 28.7483 31.6003 28.8751 31.2812 28.8751C30.9622 28.8751 30.6561 28.7483 30.4305 28.5227C30.2049 28.2971 30.0781 27.9911 30.0781 27.672V6.01572C30.0781 5.69663 30.2049 5.39061 30.4305 5.16498C30.6561 4.93935 30.9622 4.8126 31.2812 4.8126C31.6003 4.8126 31.9064 4.93935 32.132 5.16498C32.3576 5.39061 32.4844 5.69663 32.4844 6.01572V27.672ZM46.9219 72.1876C46.2839 72.1868 45.6723 71.9331 45.2212 71.482C44.7701 71.0309 44.5164 70.4193 44.5156 69.7813V67.3751H49.3281V69.7813C49.3274 70.4193 49.0736 71.0309 48.6225 71.482C48.1714 71.9331 47.5598 72.1868 46.9219 72.1876V72.1876ZM55.3438 49.3282C55.3453 49.4834 55.3154 49.6372 55.256 49.7805C55.1965 49.9238 55.1087 50.0536 54.9979 50.1621C54.9899 50.17 54.9821 50.1772 54.9742 50.1857C54.8657 50.2965 54.736 50.3843 54.5927 50.4436C54.4495 50.503 54.2957 50.5329 54.1406 50.5313H45.7188V52.9376H52.9375C53.2565 52.938 53.5623 53.0648 53.7878 53.2904C54.0134 53.5159 54.1403 53.8217 54.1406 54.1407C54.1421 54.2959 54.1123 54.4497 54.0528 54.593C53.9934 54.7363 53.9056 54.8661 53.7947 54.9746C53.7868 54.9825 53.7789 54.9897 53.7711 54.9982C53.6626 55.109 53.5328 55.1968 53.3896 55.2561C53.2463 55.3155 53.0926 55.3454 52.9375 55.3438H44.5156V57.7501H51.7344C52.0534 57.7505 52.3592 57.8773 52.5847 58.1029C52.8103 58.3284 52.9371 58.6342 52.9375 58.9532C52.939 59.1084 52.9092 59.2622 52.8497 59.4055C52.7903 59.5488 52.7025 59.6786 52.5916 59.7871C52.5836 59.795 52.5758 59.8022 52.568 59.8107C52.4595 59.9215 52.3297 60.0093 52.1865 60.0686C52.0432 60.128 51.8894 60.1579 51.7344 60.1563H43.3125V62.5626H50.5312C50.6864 62.5611 50.8402 62.5909 50.9835 62.6504C51.1268 62.7098 51.2567 62.7976 51.3652 62.9085C51.373 62.9165 51.3802 62.9243 51.3888 62.9321C51.4996 63.0406 51.5873 63.1704 51.6467 63.3136C51.7061 63.4569 51.7359 63.6107 51.7344 63.7657C51.734 64.0847 51.6071 64.3905 51.3816 64.6161C51.156 64.8416 50.8502 64.9685 50.5312 64.9688H40.2686C37.7554 64.9687 35.2615 64.5296 32.8995 63.6711C32.122 63.3904 31.3617 63.0639 30.6227 62.6936C30.454 62.6077 30.2674 62.5628 30.0781 62.5626H27.6719V50.5313H28.1411C28.9344 50.5319 29.7155 50.3362 30.4148 49.9617C31.1141 49.5871 31.7099 49.0454 32.1492 48.3848L33.4876 46.3846L34.3391 45.1013C34.9171 44.2336 35.8101 43.6248 36.8291 43.404C37.8481 43.1832 38.913 43.3677 39.7983 43.9184C40.4324 44.3085 40.9441 44.8689 41.2752 45.5357L41.367 45.7194H38.5V48.1257H54.1406C54.4595 48.1261 54.7652 48.2528 54.9908 48.4783C55.2163 48.7037 55.3432 49.0093 55.3438 49.3282V49.3282ZM44.5156 45.7188V33.6876H49.3281V45.7188H44.5156ZM51.7344 30.0782C51.734 30.3972 51.6071 30.703 51.3816 30.9286C51.156 31.1541 50.8502 31.281 50.5312 31.2813H43.3125C42.9934 31.2813 42.6874 31.1546 42.4618 30.929C42.2361 30.7033 42.1094 30.3973 42.1094 30.0782C42.1094 29.7591 42.2361 29.4531 42.4618 29.2275C42.6874 29.0019 42.9934 28.8751 43.3125 28.8751H50.5312C50.8502 28.8755 51.156 29.0023 51.3816 29.2279C51.6071 29.4534 51.734 29.7592 51.7344 30.0782ZM63.7656 27.672C63.7656 27.9911 63.6389 28.2971 63.4132 28.5227C63.1876 28.7483 62.8816 28.8751 62.5625 28.8751C62.2434 28.8751 61.9374 28.7483 61.7118 28.5227C61.4861 28.2971 61.3594 27.9911 61.3594 27.672V6.01572C61.3594 5.69663 61.4861 5.39061 61.7118 5.16498C61.9374 4.93935 62.2434 4.8126 62.5625 4.8126C62.8816 4.8126 63.1876 4.93935 63.4132 5.16498C63.6389 5.39061 63.7656 5.69663 63.7656 6.01572V27.672ZM69.7812 21.6563C69.7799 22.723 69.4249 23.759 68.7717 24.6023C68.1186 25.4456 67.2043 26.0484 66.1719 26.3165V7.37119C67.2043 7.63924 68.1186 8.24211 68.7717 9.08538C69.4249 9.92866 69.7799 10.9647 69.7812 12.0313V21.6563Z" fill="#313B4E"/>
</svg>
