<svg width="16" height="18" viewBox="0 0 16 18" fill="none" xmlns="http://www.w3.org/2000/svg">
<path d="M3.04946 0C3.84152 2.00173e-05 4.46197 0.30906 4.91082 0.92712C5.38605 1.5205 5.65007 2.33636 5.70288 3.37472V7.26862H6.81178L8.67313 9.04869H5.70288V14.0922C5.70288 14.4878 5.86129 14.8463 6.17812 15.1677C6.49494 15.4891 7.00979 15.6498 7.72265 15.6498C8.64672 15.6498 9.62361 15.1677 10.6533 14.2035C11.7094 13.2146 12.2638 12.2009 12.3166 11.1625L11.8414 11.1996C10.1516 11.1996 9.30678 10.359 9.30679 8.67785C9.30678 8.10922 9.5048 7.6024 9.90084 7.15737C10.2969 6.71236 10.9569 6.48986 11.881 6.48984C12.8579 6.48986 13.6763 6.88543 14.3364 7.67656C15.0229 8.46771 15.3661 9.43191 15.3661 10.5692C15.3661 12.2504 14.6004 13.8574 13.0691 15.3902C11.5642 16.923 9.76882 17.6895 7.68305 17.6895C6.91738 17.6895 6.09891 17.3804 5.22764 16.7623C4.38277 16.1195 3.88113 15.5015 3.72272 14.9081V9.04869H1.82175L0 7.26862H3.72272V3.74557C3.72271 3.02861 3.26067 2.60832 2.3366 2.48468C1.91416 2.4847 1.63694 2.54651 1.50493 2.67011C1.26731 2.29928 1.04289 1.85426 0.831671 1.33505V1.14963C0.831671 0.828247 1.09569 0.556294 1.62374 0.333765C2.15178 0.111277 2.62702 2.00173e-05 3.04946 0Z" fill="#313B4E"/>
</svg>
