<svg width="38" height="38" viewBox="0 0 38 38" fill="none" xmlns="http://www.w3.org/2000/svg">
<rect opacity="0.25" x="0.75" y="0.75" width="36.3646" height="36.3646" rx="18.1823" stroke="white" stroke-width="1.5"/>
<path fill-rule="evenodd" clip-rule="evenodd" d="M15.5342 25.2429H12.6216V16.5049H15.5342V25.2429V25.2429Z" fill="white"/>
<path fill-rule="evenodd" clip-rule="evenodd" d="M14.0693 14.5631H14.0527C13.1835 14.5631 12.6216 13.9155 12.6216 13.1062C12.6216 12.2798 13.2006 11.6504 14.0863 11.6504C14.972 11.6504 15.5174 12.2798 15.5342 13.1062C15.5342 13.9155 14.972 14.5631 14.0693 14.5631V14.5631Z" fill="white"/>
<path fill-rule="evenodd" clip-rule="evenodd" d="M26.2139 25.2426H23.3518V20.6752C23.3518 19.5279 22.9376 18.7451 21.9015 18.7451C21.1108 18.7451 20.6398 19.2728 20.4329 19.7826C20.3572 19.9653 20.3386 20.2198 20.3386 20.4749V25.2429H17.4761C17.4761 25.2429 17.5138 17.5067 17.4761 16.7056H20.3386V17.9148C20.7185 17.3335 21.3989 16.5049 22.9186 16.5049C24.802 16.5049 26.2141 17.7253 26.2141 20.3476L26.2139 25.2426V25.2426Z" fill="white"/>
</svg>
