<svg width="24" height="24" viewBox="0 0 24 24" fill="none" xmlns="http://www.w3.org/2000/svg">
<path d="M7.55312 4.00072L5.06408 6.37466L4.09275 5.44909L3 6.48818L4.51771 7.93438L5.06408 8.43042L5.61046 7.93366L8.64587 5.04126L7.55312 4V4.00072ZM11.1349 5.24445V6.69065H21V5.24445H11.1349ZM7.55312 9.78551L5.06408 12.1602L4.09275 11.2317L3 12.273L4.51771 13.7192L5.06408 14.2152L5.61046 13.7184L8.64587 10.826L7.55312 9.78479V9.78551ZM11.1349 11.0292V12.4754H21V11.0292H11.1349ZM7.55312 15.5703L5.06408 17.9442L4.09275 17.0187L3 18.0578L4.51771 19.504L5.06408 20L5.61046 19.5032L8.64587 16.6108L7.55312 15.5696V15.5703ZM11.1349 16.814V18.2602H21V16.814H11.1349Z" fill="#D3D3FD"/>
</svg>
