<svg width="150" height="38" viewBox="0 0 150 38" fill="none" xmlns="http://www.w3.org/2000/svg">
<rect y="1" width="150" height="37" rx="4" fill="#C8AC48"/>
<mask id="mask0" mask-type="alpha" maskUnits="userSpaceOnUse" x="0" y="0" width="150" height="37">
<rect width="150" height="37" rx="4" fill="#A68C2F"/>
</mask>
<g mask="url(#mask0)">
<path d="M107.257 1L43 38H150V1H107.257Z" fill="#B89D3B"/>
</g>
<path d="M57.5073 24.0896C56.8502 24.0896 56.2614 23.9829 55.7409 23.7696C55.2204 23.5563 54.8022 23.2405 54.4865 22.8224C54.1793 22.4043 54.0172 21.9008 54.0001 21.312H56.3297C56.3638 21.6448 56.479 21.9008 56.6753 22.08C56.8716 22.2507 57.1276 22.336 57.4433 22.336C57.7676 22.336 58.0236 22.2635 58.2113 22.1184C58.399 21.9648 58.4929 21.7557 58.4929 21.4912C58.4929 21.2693 58.4161 21.0859 58.2625 20.9408C58.1174 20.7957 57.934 20.6763 57.7121 20.5824C57.4988 20.4885 57.1916 20.3819 56.7905 20.2624C56.2102 20.0832 55.7366 19.904 55.3697 19.7248C55.0028 19.5456 54.687 19.2811 54.4225 18.9312C54.158 18.5813 54.0257 18.1248 54.0257 17.5616C54.0257 16.7253 54.3286 16.0725 54.9345 15.6032C55.5404 15.1253 56.3297 14.8864 57.3025 14.8864C58.2924 14.8864 59.0902 15.1253 59.6961 15.6032C60.302 16.0725 60.6262 16.7296 60.6689 17.5744H58.3009C58.2838 17.2843 58.1772 17.0581 57.9809 16.896C57.7846 16.7253 57.5329 16.64 57.2257 16.64C56.9612 16.64 56.7478 16.7125 56.5857 16.8576C56.4236 16.9941 56.3425 17.1947 56.3425 17.4592C56.3425 17.7493 56.479 17.9755 56.7521 18.1376C57.0252 18.2997 57.4518 18.4747 58.0321 18.6624C58.6124 18.8587 59.0817 19.0464 59.4401 19.2256C59.807 19.4048 60.1228 19.6651 60.3873 20.0064C60.6518 20.3477 60.7841 20.7872 60.7841 21.3248C60.7841 21.8368 60.6518 22.3019 60.3873 22.72C60.1313 23.1381 59.7558 23.4709 59.2609 23.7184C58.766 23.9659 58.1814 24.0896 57.5073 24.0896ZM63.2319 16.1152C62.8479 16.1152 62.5322 16.0043 62.2847 15.7824C62.0458 15.552 61.9263 15.2704 61.9263 14.9376C61.9263 14.5963 62.0458 14.3147 62.2847 14.0928C62.5322 13.8624 62.8479 13.7472 63.2319 13.7472C63.6074 13.7472 63.9146 13.8624 64.1535 14.0928C64.401 14.3147 64.5247 14.5963 64.5247 14.9376C64.5247 15.2704 64.401 15.552 64.1535 15.7824C63.9146 16.0043 63.6074 16.1152 63.2319 16.1152ZM64.3199 16.8576V24H62.1311V16.8576H64.3199ZM68.6197 16.7552C69.1232 16.7552 69.5626 16.8576 69.9381 17.0624C70.3221 17.2672 70.6165 17.536 70.8213 17.8688V16.8576H73.0101V23.9872C73.0101 24.6443 72.8778 25.2373 72.6133 25.7664C72.3573 26.304 71.9605 26.7307 71.4229 27.0464C70.8938 27.3621 70.2325 27.52 69.4389 27.52C68.3808 27.52 67.5232 27.2683 66.8661 26.7648C66.209 26.2699 65.8336 25.5957 65.7397 24.7424H67.9029C67.9712 25.0155 68.1333 25.2288 68.3893 25.3824C68.6453 25.5445 68.961 25.6256 69.3365 25.6256C69.7888 25.6256 70.1472 25.4933 70.4117 25.2288C70.6848 24.9728 70.8213 24.5589 70.8213 23.9872V22.976C70.608 23.3088 70.3136 23.5819 69.9381 23.7952C69.5626 24 69.1232 24.1024 68.6197 24.1024C68.0309 24.1024 67.4976 23.9531 67.0197 23.6544C66.5418 23.3472 66.1621 22.9163 65.8805 22.3616C65.6074 21.7984 65.4709 21.1499 65.4709 20.416C65.4709 19.6821 65.6074 19.0379 65.8805 18.4832C66.1621 17.9285 66.5418 17.5019 67.0197 17.2032C67.4976 16.9045 68.0309 16.7552 68.6197 16.7552ZM70.8213 20.4288C70.8213 19.8827 70.6677 19.4517 70.3605 19.136C70.0618 18.8203 69.6949 18.6624 69.2597 18.6624C68.8245 18.6624 68.4533 18.8203 68.1461 19.136C67.8474 19.4432 67.6981 19.8699 67.6981 20.416C67.6981 20.9621 67.8474 21.3973 68.1461 21.7216C68.4533 22.0373 68.8245 22.1952 69.2597 22.1952C69.6949 22.1952 70.0618 22.0373 70.3605 21.7216C70.6677 21.4059 70.8213 20.9749 70.8213 20.4288ZM78.9456 16.7808C79.7819 16.7808 80.4475 17.0539 80.9424 17.6C81.4459 18.1376 81.6976 18.88 81.6976 19.8272V24H79.5216V20.1216C79.5216 19.6437 79.3979 19.2725 79.1504 19.008C78.9029 18.7435 78.5701 18.6112 78.152 18.6112C77.7339 18.6112 77.4011 18.7435 77.1536 19.008C76.9061 19.2725 76.7824 19.6437 76.7824 20.1216V24H74.5936V16.8576H76.7824V17.8048C77.0043 17.4891 77.3029 17.2416 77.6784 17.0624C78.0539 16.8747 78.4763 16.7808 78.9456 16.7808ZM88.1199 15.0144V24H85.9311V15.0144H88.1199ZM94.0581 16.7808C94.8944 16.7808 95.56 17.0539 96.0549 17.6C96.5584 18.1376 96.8101 18.88 96.8101 19.8272V24H94.6341V20.1216C94.6341 19.6437 94.5104 19.2725 94.2629 19.008C94.0154 18.7435 93.6826 18.6112 93.2645 18.6112C92.8464 18.6112 92.5136 18.7435 92.2661 19.008C92.0186 19.2725 91.8949 19.6437 91.8949 20.1216V24H89.7061V16.8576H91.8949V17.8048C92.1168 17.4891 92.4154 17.2416 92.7909 17.0624C93.1664 16.8747 93.5888 16.7808 94.0581 16.7808Z" fill="#F2F2F2"/>
</svg>
