<svg width="139" height="139" viewBox="0 0 139 139" fill="none" xmlns="http://www.w3.org/2000/svg">
<circle cx="69.5001" cy="69.5001" r="62.881" fill="#C8AC48"/>
<circle cx="69.5" cy="69.5" r="69" stroke="#C8AC48"/>
<path d="M47.3382 74.1985H52.2182V75.6785H45.5182V61.7385H47.3382V74.1985ZM58.931 75.8585C57.9044 75.8585 56.971 75.6251 56.131 75.1585C55.3044 74.6918 54.651 74.0318 54.171 73.1785C53.7044 72.3118 53.471 71.3118 53.471 70.1785C53.471 69.0585 53.711 68.0718 54.191 67.2185C54.6844 66.3518 55.351 65.6918 56.191 65.2385C57.031 64.7718 57.971 64.5385 59.011 64.5385C60.051 64.5385 60.991 64.7718 61.831 65.2385C62.671 65.6918 63.331 66.3451 63.811 67.1985C64.3044 68.0518 64.551 69.0451 64.551 70.1785C64.551 71.3118 64.2977 72.3118 63.791 73.1785C63.2977 74.0318 62.6244 74.6918 61.771 75.1585C60.9177 75.6251 59.971 75.8585 58.931 75.8585ZM58.931 74.2585C59.5844 74.2585 60.1977 74.1051 60.771 73.7985C61.3444 73.4918 61.8044 73.0318 62.151 72.4185C62.511 71.8051 62.691 71.0585 62.691 70.1785C62.691 69.2985 62.5177 68.5518 62.171 67.9385C61.8244 67.3251 61.371 66.8718 60.811 66.5785C60.251 66.2718 59.6444 66.1185 58.991 66.1185C58.3244 66.1185 57.711 66.2718 57.151 66.5785C56.6044 66.8718 56.1644 67.3251 55.831 67.9385C55.4977 68.5518 55.331 69.2985 55.331 70.1785C55.331 71.0718 55.491 71.8251 55.811 72.4385C56.1444 73.0518 56.5844 73.5118 57.131 73.8185C57.6777 74.1118 58.2777 74.2585 58.931 74.2585ZM71.464 64.5385C72.4107 64.5385 73.2373 64.7451 73.944 65.1585C74.664 65.5718 75.1973 66.0918 75.544 66.7185V64.7185H77.384V75.9185C77.384 76.9185 77.1707 77.8051 76.744 78.5785C76.3173 79.3651 75.704 79.9785 74.904 80.4185C74.1173 80.8585 73.1973 81.0785 72.144 81.0785C70.704 81.0785 69.504 80.7385 68.544 80.0585C67.584 79.3785 67.0173 78.4518 66.844 77.2785H68.644C68.844 77.9451 69.2573 78.4785 69.884 78.8785C70.5107 79.2918 71.264 79.4985 72.144 79.4985C73.144 79.4985 73.9573 79.1851 74.584 78.5585C75.224 77.9318 75.544 77.0518 75.544 75.9185V73.6185C75.184 74.2585 74.6507 74.7918 73.944 75.2185C73.2373 75.6451 72.4107 75.8585 71.464 75.8585C70.4907 75.8585 69.604 75.6185 68.804 75.1385C68.0173 74.6585 67.3973 73.9851 66.944 73.1185C66.4907 72.2518 66.264 71.2651 66.264 70.1585C66.264 69.0385 66.4907 68.0585 66.944 67.2185C67.3973 66.3651 68.0173 65.7051 68.804 65.2385C69.604 64.7718 70.4907 64.5385 71.464 64.5385ZM75.544 70.1785C75.544 69.3518 75.3773 68.6318 75.044 68.0185C74.7107 67.4051 74.2573 66.9385 73.684 66.6185C73.124 66.2851 72.504 66.1185 71.824 66.1185C71.144 66.1185 70.524 66.2785 69.964 66.5985C69.404 66.9185 68.9573 67.3851 68.624 67.9985C68.2907 68.6118 68.124 69.3318 68.124 70.1585C68.124 70.9985 68.2907 71.7318 68.624 72.3585C68.9573 72.9718 69.404 73.4451 69.964 73.7785C70.524 74.0985 71.144 74.2585 71.824 74.2585C72.504 74.2585 73.124 74.0985 73.684 73.7785C74.2573 73.4451 74.7107 72.9718 75.044 72.3585C75.3773 71.7318 75.544 71.0051 75.544 70.1785ZM85.2396 75.8585C84.213 75.8585 83.2796 75.6251 82.4396 75.1585C81.613 74.6918 80.9596 74.0318 80.4796 73.1785C80.013 72.3118 79.7796 71.3118 79.7796 70.1785C79.7796 69.0585 80.0196 68.0718 80.4996 67.2185C80.993 66.3518 81.6596 65.6918 82.4996 65.2385C83.3396 64.7718 84.2796 64.5385 85.3196 64.5385C86.3596 64.5385 87.2996 64.7718 88.1396 65.2385C88.9796 65.6918 89.6396 66.3451 90.1196 67.1985C90.613 68.0518 90.8596 69.0451 90.8596 70.1785C90.8596 71.3118 90.6063 72.3118 90.0996 73.1785C89.6063 74.0318 88.933 74.6918 88.0796 75.1585C87.2263 75.6251 86.2796 75.8585 85.2396 75.8585ZM85.2396 74.2585C85.893 74.2585 86.5063 74.1051 87.0796 73.7985C87.653 73.4918 88.113 73.0318 88.4596 72.4185C88.8196 71.8051 88.9996 71.0585 88.9996 70.1785C88.9996 69.2985 88.8263 68.5518 88.4796 67.9385C88.133 67.3251 87.6796 66.8718 87.1196 66.5785C86.5596 66.2718 85.953 66.1185 85.2996 66.1185C84.633 66.1185 84.0196 66.2718 83.4596 66.5785C82.913 66.8718 82.473 67.3251 82.1396 67.9385C81.8063 68.5518 81.6396 69.2985 81.6396 70.1785C81.6396 71.0718 81.7996 71.8251 82.1196 72.4385C82.453 73.0518 82.893 73.5118 83.4396 73.8185C83.9863 74.1118 84.5863 74.2585 85.2396 74.2585Z" fill="#F2F2F2"/>
</svg>
