<svg width="36" height="36" viewBox="0 0 36 36" fill="none" xmlns="http://www.w3.org/2000/svg">
<path d="M6.06424 28.7012C5.95235 28.7012 5.84505 28.7456 5.76593 28.8247C5.68681 28.9039 5.64236 29.0112 5.64236 29.123V32.48C5.64236 32.5919 5.68681 32.6992 5.76593 32.7784C5.84505 32.8575 5.95235 32.9019 6.06424 32.9019C6.17613 32.9019 6.28343 32.8575 6.36255 32.7784C6.44167 32.6992 6.48611 32.5919 6.48611 32.48V29.123C6.48611 29.0112 6.44167 28.9039 6.36255 28.8247C6.28343 28.7456 6.17613 28.7012 6.06424 28.7012V28.7012Z" fill="#313B4E"/>
<path d="M6.06424 26.7373C5.95235 26.7373 5.84505 26.7818 5.76593 26.8609C5.68681 26.94 5.64236 27.0473 5.64236 27.1592V27.6156C5.64236 27.7275 5.68681 27.8348 5.76593 27.914C5.84505 27.9931 5.95235 28.0375 6.06424 28.0375C6.17613 28.0375 6.28343 27.9931 6.36255 27.914C6.44167 27.8348 6.48611 27.7275 6.48611 27.6156V27.1592C6.48611 27.0473 6.44167 26.94 6.36255 26.8609C6.28343 26.7818 6.17613 26.7373 6.06424 26.7373V26.7373Z" fill="#313B4E"/>
<path d="M32.4928 27.1039C32.4012 26.0464 32.0407 25.0299 31.4456 24.151C30.8506 23.272 30.0406 22.5598 29.0928 22.082C29.0853 22.0782 29.0775 22.0749 29.0697 22.0713L22.5873 19.3047V15.9092C22.6907 15.7886 22.7895 15.6635 22.8836 15.5341C23.2958 15.8123 23.7994 15.9205 24.2895 15.8364C24.7796 15.7523 25.2182 15.4822 25.514 15.0825C25.8098 14.6828 25.9399 14.1844 25.8771 13.6911C25.8144 13.1978 25.5636 12.7478 25.1772 12.435C25.4169 12.2586 25.6125 12.0291 25.7487 11.7644C25.8849 11.4998 25.9579 11.2072 25.9621 10.9096C25.9663 10.612 25.9015 10.3175 25.7729 10.0491C25.6442 9.78076 25.4552 9.54582 25.2205 9.36272C25.4617 9.15555 25.6478 8.89196 25.7624 8.59544C25.877 8.29892 25.9166 7.97865 25.8775 7.66317C25.8384 7.34768 25.7219 7.04675 25.5383 6.78718C25.3548 6.5276 25.1099 6.31744 24.8255 6.17539C25.0527 5.91973 25.2104 5.61004 25.2836 5.27596C25.3567 4.94189 25.3429 4.59462 25.2434 4.26742C25.1439 3.94022 24.9621 3.64404 24.7153 3.40725C24.4686 3.17046 24.1652 3.00099 23.8341 2.91507C22.9235 1.58117 21.2435 0.979083 19.6473 1.41671L18.2481 1.8004C18.0838 1.84543 17.9106 1.84657 17.7458 1.80371L16.1649 1.39287C14.6827 1.0077 13.1253 1.51381 12.1968 2.68268C12.1184 2.78154 12.0445 2.8849 11.9756 2.99101C11.6861 3.10653 11.4282 3.28939 11.2235 3.52445C11.0187 3.7595 10.8729 4.03997 10.7981 4.34262C10.7233 4.64527 10.7218 4.96138 10.7936 5.26475C10.8653 5.56812 11.0084 5.85002 11.2109 6.08708C10.9161 6.22671 10.6615 6.43883 10.471 6.70358C10.2804 6.96834 10.1602 7.27709 10.1214 7.60096C10.0826 7.92483 10.1266 8.25325 10.2492 8.5555C10.3719 8.85776 10.5692 9.12397 10.8227 9.32926C10.5792 9.50845 10.3814 9.74235 10.245 10.0121C10.1086 10.2818 10.0376 10.5799 10.0376 10.8821C10.0376 11.1844 10.1086 11.4824 10.245 11.7521C10.3814 12.0219 10.5792 12.2558 10.8227 12.435C10.4366 12.748 10.1862 13.1979 10.1236 13.691C10.0611 14.1841 10.1912 14.6823 10.4869 15.0818C10.7826 15.4813 11.221 15.7513 11.7109 15.8356C12.2007 15.9198 12.7041 15.8118 13.1163 15.5341C13.2104 15.6634 13.3091 15.7885 13.4125 15.9093V19.3047L6.9303 22.071C6.92249 22.0744 6.91476 22.078 6.90724 22.0817C5.95937 22.5595 5.14943 23.2718 4.55434 24.1508C3.95925 25.0298 3.59879 26.0464 3.5072 27.1039C3.50629 27.1155 3.5058 27.1272 3.5058 27.1391V34.3102C3.5058 34.4221 3.55025 34.5294 3.62936 34.6085C3.70848 34.6877 3.81579 34.7321 3.92767 34.7321H32.0724C32.1843 34.7321 32.2916 34.6877 32.3707 34.6085C32.4498 34.5294 32.4942 34.4221 32.4942 34.3102V27.1389C32.4942 27.1272 32.4937 27.1155 32.4928 27.1039V27.1039ZM23.9616 15.0201C23.7466 15.0202 23.5365 14.9564 23.3578 14.837C23.179 14.7176 23.0397 14.5479 22.9575 14.3493C22.8752 14.1507 22.8537 13.9322 22.8956 13.7213C22.9375 13.5105 23.041 13.3168 23.193 13.1648C23.345 13.0128 23.5387 12.9093 23.7495 12.8674C23.9603 12.8254 24.1788 12.847 24.3774 12.9292C24.576 13.0115 24.7458 13.1508 24.8652 13.3295C24.9846 13.5082 25.0484 13.7184 25.0484 13.9333C25.048 14.2214 24.9334 14.4977 24.7297 14.7014C24.526 14.9052 24.2497 15.0198 23.9616 15.0201V15.0201ZM24.0319 11.9686C23.7648 11.9687 23.507 11.8705 23.3078 11.6925C23.1085 11.5146 22.9818 11.2695 22.9518 11.0041C22.9219 10.7387 22.9907 10.4715 23.1453 10.2537C23.2999 10.0358 23.5293 9.88254 23.7897 9.82313C23.8464 9.82819 23.9037 9.83122 23.9618 9.83122C24.0495 9.83108 24.137 9.82497 24.2238 9.81294C24.491 9.8608 24.7307 10.007 24.8955 10.2227C25.0603 10.4385 25.1384 10.7081 25.1143 10.9786C25.0903 11.249 24.9658 11.5006 24.7655 11.6839C24.5651 11.8671 24.3034 11.9687 24.0319 11.9686V11.9686ZM25.0486 7.90072C25.0482 8.14664 24.9645 8.38518 24.8111 8.57742C24.6577 8.76966 24.4437 8.90426 24.204 8.95927C24.1473 8.95428 24.0899 8.95118 24.0319 8.95118C23.9443 8.95135 23.8567 8.95746 23.7699 8.96947C23.5665 8.93288 23.3778 8.83905 23.2259 8.69898C23.074 8.55891 22.9651 8.3784 22.9122 8.17866C22.8592 7.97891 22.8643 7.7682 22.9269 7.57126C22.9895 7.37432 23.107 7.19932 23.2655 7.06679C23.4241 6.93426 23.6172 6.8497 23.8221 6.82304C24.027 6.79638 24.2353 6.82873 24.4225 6.91627C24.6097 7.00382 24.768 7.14294 24.8789 7.31731C24.9898 7.49168 25.0486 7.69407 25.0486 7.90072ZM24.4861 4.84965C24.4861 5.07819 24.4183 5.30159 24.2913 5.49162C24.1644 5.68164 23.9839 5.82974 23.7727 5.9172C23.5616 6.00466 23.3293 6.02754 23.1051 5.98296C22.881 5.93837 22.6751 5.82832 22.5135 5.66672C22.3519 5.50512 22.2418 5.29922 22.1972 5.07508C22.1527 4.85093 22.1755 4.61859 22.263 4.40745C22.3505 4.19631 22.4986 4.01584 22.6886 3.88887C22.8786 3.7619 23.102 3.69413 23.3306 3.69413C23.637 3.69447 23.9307 3.81636 24.1474 4.03307C24.364 4.24977 24.4858 4.54358 24.4861 4.85V4.84965ZM18.3867 2.63424C18.4149 2.62798 18.443 2.62179 18.4711 2.61413L19.8703 2.23051C20.3707 2.08923 20.8992 2.08 21.4042 2.20371C21.9093 2.32743 22.3736 2.57987 22.7521 2.93644C22.4164 3.03872 22.1134 3.22726 21.8734 3.48325C21.6333 3.73924 21.4647 4.05372 21.3842 4.39529C21.0158 4.23932 20.6199 4.15864 20.2199 4.15798H20.1145L19.7009 4.3782C19.2925 4.59509 18.8465 4.7322 18.3867 4.78222V2.63424ZM15.9527 2.20948L17.5331 2.62032C17.5364 2.62116 17.5398 2.62172 17.543 2.62257V4.77779C16.9963 4.71183 16.4717 4.52291 16.0085 4.2252L15.9042 4.15798H15.7801C15.3827 4.15719 14.9892 4.23609 14.6228 4.39001C14.5418 4.02712 14.3598 3.69456 14.0977 3.43078C13.8357 3.167 13.5043 2.98277 13.142 2.89939C13.5145 2.55706 13.9675 2.31434 14.4588 2.19374C14.9502 2.07313 15.464 2.07855 15.9527 2.20948H15.9527ZM12.7055 3.69371C12.9271 3.69375 13.1437 3.7595 13.3279 3.88265C13.5122 4.0058 13.6558 4.18081 13.7405 4.38556C13.8253 4.59031 13.8475 4.81559 13.8042 5.03294C13.761 5.25028 13.6542 5.44991 13.4975 5.6066C13.3408 5.76328 13.1411 5.86998 12.9238 5.91319C12.7064 5.95641 12.4812 5.93421 12.2764 5.8494C12.0717 5.76458 11.8967 5.62096 11.7736 5.4367C11.6505 5.25244 11.5848 5.03581 11.5848 4.81421C11.5851 4.5171 11.7033 4.23226 11.9134 4.02219C12.1235 3.81212 12.4084 3.69399 12.7055 3.69371V3.69371ZM12.0386 15.0201C11.8237 15.0201 11.6136 14.9564 11.4348 14.837C11.2561 14.7176 11.1168 14.5478 11.0346 14.3492C10.9523 14.1506 10.9308 13.9321 10.9727 13.7213C11.0146 13.5105 11.1182 13.3168 11.2701 13.1648C11.4221 13.0128 11.6158 12.9093 11.8266 12.8674C12.0374 12.8254 12.256 12.847 12.4546 12.9292C12.6531 13.0115 12.8229 13.1508 12.9423 13.3295C13.0617 13.5082 13.1255 13.7184 13.1255 13.9333C13.1251 14.2215 13.0105 14.4978 12.8067 14.7015C12.6029 14.9053 12.3266 15.0199 12.0384 15.0201H12.0386ZM10.8817 10.8821C10.8817 10.6672 10.9455 10.457 11.0649 10.2783C11.1843 10.0996 11.354 9.96028 11.5526 9.87802C11.7512 9.79576 11.9697 9.77423 12.1806 9.81617C12.3914 9.85811 12.585 9.96161 12.737 10.1136C12.889 10.2656 12.9925 10.4593 13.0345 10.6701C13.0764 10.8809 13.0549 11.0994 12.9726 11.298C12.8904 11.4966 12.7511 11.6663 12.5723 11.7858C12.3936 11.9052 12.1835 11.9689 11.9685 11.9689C11.6804 11.9686 11.4041 11.8541 11.2003 11.6503C10.9965 11.4466 10.8818 11.1703 10.8815 10.8821H10.8817ZM12.0386 8.91772C11.8237 8.91772 11.6136 8.85398 11.4348 8.73455C11.2561 8.61513 11.1168 8.44539 11.0346 8.2468C10.9523 8.04821 10.9308 7.82969 10.9727 7.61887C11.0146 7.40805 11.1182 7.21439 11.2701 7.0624C11.4221 6.9104 11.6158 6.80689 11.8266 6.76496C12.0374 6.72302 12.256 6.74455 12.4546 6.82681C12.6531 6.90906 12.8229 7.04836 12.9423 7.22709C13.0617 7.40582 13.1255 7.61594 13.1255 7.8309C13.1251 8.11908 13.0105 8.39536 12.8067 8.59912C12.6029 8.80287 12.3266 8.91746 12.0384 8.91772H12.0386ZM13.1836 12.3805C13.4069 12.1998 13.587 11.9714 13.7106 11.7122C13.8343 11.453 13.8985 11.1693 13.8985 10.8821C13.8985 10.5949 13.8343 10.3113 13.7106 10.052C13.587 9.79277 13.4069 9.56445 13.1836 9.38375C13.3952 9.22805 13.5727 9.03074 13.7052 8.80394C13.8378 8.57715 13.9226 8.32565 13.9544 8.0649C13.9862 7.80414 13.9644 7.53963 13.8903 7.28762C13.8162 7.0356 13.6913 6.80139 13.5234 6.59937C13.7795 6.48136 14.0073 6.30984 14.1914 6.09638C14.3756 5.88291 14.5119 5.63245 14.5911 5.36187C14.9099 5.14798 15.2808 5.0246 15.6642 5.0049C16.3299 5.40585 17.0882 5.62749 17.8652 5.6482C18.6421 5.66892 19.4111 5.488 20.0973 5.12309L20.3205 5.00419C20.7036 5.02099 21.075 5.14142 21.3951 5.35266C21.4697 5.63707 21.6058 5.90162 21.7939 6.12761C21.982 6.3536 22.2175 6.5355 22.4836 6.66047C22.3168 6.85864 22.1916 7.08842 22.1156 7.33608C22.0396 7.58373 22.0143 7.84417 22.0413 8.10182C22.0682 8.35947 22.1469 8.60903 22.2725 8.83559C22.3981 9.06215 22.5681 9.26104 22.7724 9.42038C22.5581 9.6044 22.3869 9.83328 22.2709 10.0908C22.1549 10.3483 22.0969 10.6282 22.1011 10.9106C22.1052 11.1931 22.1714 11.4711 22.2949 11.7251C22.4184 11.9791 22.5963 12.2029 22.8159 12.3805C22.4323 12.6626 22.1668 13.0766 22.0705 13.5429C21.9742 14.0091 22.054 14.4945 22.2944 14.9054C21.8191 15.6071 21.1792 16.1817 20.4305 16.5789C19.6819 16.9761 18.8473 17.1838 17.9998 17.1838C17.1523 17.1838 16.3177 16.9761 15.569 16.5789C14.8203 16.1817 14.1804 15.6071 13.7052 14.9054C13.9456 14.4945 14.0253 14.0091 13.9289 13.5429C13.8326 13.0767 13.5671 12.6626 13.1836 12.3806V12.3805ZM21.7435 16.7195V19.3539C20.6235 20.0624 19.3254 20.4386 18 20.4386C16.6747 20.4386 15.3765 20.0624 14.2565 19.3539V16.7195C15.3205 17.5663 16.6402 18.0274 18 18.0274C19.3599 18.0274 20.6795 17.5663 21.7435 16.7195V16.7195ZM12.9024 33.8884H8.9785V28.4014C8.9785 28.2895 8.93405 28.1822 8.85494 28.1031C8.77582 28.024 8.66852 27.9795 8.55663 27.9795C8.44474 27.9795 8.33743 28.024 8.25832 28.1031C8.1792 28.1822 8.13475 28.2895 8.13475 28.4014V33.8884H4.34955V27.1568C4.43121 26.2487 4.74238 25.3764 5.25384 24.6216C5.76529 23.8669 6.46023 23.2546 7.27335 22.8423L11.1453 21.1899L12.8474 26.0696C12.8838 26.1738 12.9024 26.2834 12.9024 26.3938V33.8884ZM19.4414 26.2673V33.8884H16.2774V31.7812C16.2774 31.6693 16.2329 31.562 16.1538 31.4829C16.0747 31.4037 15.9674 31.3593 15.8555 31.3593C15.7436 31.3593 15.6363 31.4037 15.5572 31.4829C15.4781 31.562 15.4336 31.6693 15.4336 31.7812V33.8884H13.7461V26.3937C13.7462 26.1887 13.7117 25.9851 13.6441 25.7915L11.923 20.8578L13.2603 20.2871L15.3217 25.6605C15.3958 25.8534 15.4338 26.0584 15.4336 26.2651V28.9687C15.4336 29.0806 15.4781 29.1879 15.5572 29.267C15.6363 29.3461 15.7436 29.3905 15.8555 29.3905C15.9674 29.3905 16.0747 29.3461 16.1538 29.267C16.2329 29.1879 16.2774 29.0806 16.2774 28.9687V26.2649C16.2776 25.9548 16.2207 25.6474 16.1095 25.3579L14.1596 20.2754C15.2755 20.9045 16.5289 21.2499 17.8095 21.281C19.0901 21.3122 20.3588 21.0283 21.504 20.4542L19.6114 25.355C19.4988 25.646 19.4412 25.9553 19.4414 26.2673V26.2673ZM22.043 26.3911V33.8884H20.2852V26.2673C20.285 26.0594 20.3234 25.8533 20.3984 25.6594L22.5108 20.1891L23.8749 20.7713L22.1428 25.7948C22.0765 25.9866 22.0428 26.1881 22.043 26.3911V26.3911ZM31.6505 33.8884H27.8653V28.4014C27.8653 28.2895 27.8208 28.1822 27.7417 28.1031C27.6626 28.024 27.5553 27.9795 27.4434 27.9795C27.3315 27.9795 27.2242 28.024 27.1451 28.1031C27.066 28.1822 27.0215 28.2895 27.0215 28.4014V33.8884H22.8867V26.3911C22.8867 26.2819 22.9049 26.1734 22.9405 26.0702L24.6531 21.1037L28.7267 22.8423C29.5398 23.2546 30.2347 23.8669 30.7462 24.6216C31.2577 25.3764 31.5688 26.2487 31.6505 27.1568V33.8884Z" fill="#313B4E"/>
</svg>
