<svg width="40" height="40" viewBox="0 0 40 40" fill="none" xmlns="http://www.w3.org/2000/svg">
<path d="M4 9C4 7.67392 4.52678 6.40215 5.46447 5.46447C6.40215 4.52678 7.67392 4 9 4H31C32.3261 4 33.5979 4.52678 34.5355 5.46447C35.4732 6.40215 36 7.67392 36 9V31C36 32.3261 35.4732 33.5979 34.5355 34.5355C33.5979 35.4732 32.3261 36 31 36H9C7.67392 36 6.40215 35.4732 5.46447 34.5355C4.52678 33.5979 4 32.3261 4 31V9ZM9 6C8.20435 6 7.44129 6.31607 6.87868 6.87868C6.31607 7.44129 6 8.20435 6 9V31C6 31.7956 6.31607 32.5587 6.87868 33.1213C7.44129 33.6839 8.20435 34 9 34H31C31.7956 34 32.5587 33.6839 33.1213 33.1213C33.6839 32.5587 34 31.7956 34 31V9C34 8.20435 33.6839 7.44129 33.1213 6.87868C32.5587 6.31607 31.7956 6 31 6H9Z" fill="white"/>
<path d="M22 24C22 23.4696 22.2107 22.9609 22.5858 22.5858C22.9609 22.2107 23.4696 22 24 22H28C28.5304 22 29.0391 22.2107 29.4142 22.5858C29.7893 22.9609 30 23.4696 30 24V28C30 28.5304 29.7893 29.0391 29.4142 29.4142C29.0391 29.7893 28.5304 30 28 30H24C23.4696 30 22.9609 29.7893 22.5858 29.4142C22.2107 29.0391 22 28.5304 22 28V24Z" fill="white"/>
<path d="M22 12C22 11.4696 22.2107 10.9609 22.5858 10.5858C22.9609 10.2107 23.4696 10 24 10H28C28.5304 10 29.0391 10.2107 29.4142 10.5858C29.7893 10.9609 30 11.4696 30 12V16C30 16.5304 29.7893 17.0391 29.4142 17.4142C29.0391 17.7893 28.5304 18 28 18H24C23.4696 18 22.9609 17.7893 22.5858 17.4142C22.2107 17.0391 22 16.5304 22 16V12Z" fill="white"/>
<path d="M10 24C10 23.4696 10.2107 22.9609 10.5858 22.5858C10.9609 22.2107 11.4696 22 12 22H16C16.5304 22 17.0391 22.2107 17.4142 22.5858C17.7893 22.9609 18 23.4696 18 24V28C18 28.5304 17.7893 29.0391 17.4142 29.4142C17.0391 29.7893 16.5304 30 16 30H12C11.4696 30 10.9609 29.7893 10.5858 29.4142C10.2107 29.0391 10 28.5304 10 28V24Z" fill="white"/>
<path d="M10 12C10 11.4696 10.2107 10.9609 10.5858 10.5858C10.9609 10.2107 11.4696 10 12 10H16C16.5304 10 17.0391 10.2107 17.4142 10.5858C17.7893 10.9609 18 11.4696 18 12V16C18 16.5304 17.7893 17.0391 17.4142 17.4142C17.0391 17.7893 16.5304 18 16 18H12C11.4696 18 10.9609 17.7893 10.5858 17.4142C10.2107 17.0391 10 16.5304 10 16V12Z" fill="white"/>
</svg>
