<svg width="30" height="30" viewBox="0 0 30 30" fill="none" xmlns="http://www.w3.org/2000/svg">
<circle cx="15" cy="15" r="15" fill="#F2F2F2"/>
<path d="M18.5729 11.7391C18.5729 11.6484 18.4987 11.5742 18.408 11.5742L17.0481 11.5804L15 14.022L12.954 11.5825L11.5921 11.5763C11.5014 11.5763 11.4272 11.6484 11.4272 11.7411C11.4272 11.7803 11.4417 11.8174 11.4664 11.8483L14.147 15.0419L11.4664 18.2336C11.4415 18.2638 11.4277 18.3016 11.4272 18.3407C11.4272 18.4314 11.5014 18.5055 11.5921 18.5055L12.954 18.4994L15 16.0577L17.0461 18.4973L18.406 18.5035C18.4966 18.5035 18.5708 18.4314 18.5708 18.3386C18.5708 18.2995 18.5564 18.2624 18.5316 18.2315L15.8551 15.0399L18.5358 11.8462C18.5605 11.8174 18.5729 11.7782 18.5729 11.7391Z" fill="#313B4E"/>
<path d="M15.0001 5.76953C9.90253 5.76953 5.76929 9.90277 5.76929 15.0003C5.76929 20.0978 9.90253 24.2311 15.0001 24.2311C20.0976 24.2311 24.2308 20.0978 24.2308 15.0003C24.2308 9.90277 20.0976 5.76953 15.0001 5.76953ZM15.0001 22.6651C10.7679 22.6651 7.33522 19.2324 7.33522 15.0003C7.33522 10.7682 10.7679 7.33547 15.0001 7.33547C19.2322 7.33547 22.6649 10.7682 22.6649 15.0003C22.6649 19.2324 19.2322 22.6651 15.0001 22.6651Z" fill="#313B4E"/>
</svg>
