<svg width="98" height="98" viewBox="0 0 98 98" fill="none" xmlns="http://www.w3.org/2000/svg">
<circle cx="49" cy="49" r="42" fill="#46546B"/>
<circle cx="49" cy="49" r="47.5" stroke="#293852" stroke-width="3"/>
<path d="M59.7143 55.4191C58.9513 55.423 58.2036 55.6328 57.55 56.0263L53.4646 51.9417C54.0467 51.0685 54.3573 50.0426 54.3573 48.9933C54.3573 47.9441 54.0467 46.9182 53.4646 46.045L56.1936 43.3173C56.8839 43.6497 57.6696 43.7271 58.4116 43.5358C59.1536 43.3446 59.8039 42.897 60.2473 42.2724C60.6907 41.6477 60.8987 40.8864 60.8343 40.1232C60.7699 39.36 60.4373 38.6442 59.8955 38.1027C59.3537 37.5611 58.6376 37.2287 57.8741 37.1643C57.1105 37.1 56.3489 37.3078 55.724 37.751C55.0991 38.1943 54.6513 38.8443 54.46 39.5859C54.2686 40.3276 54.3461 41.1129 54.6786 41.803L51.9496 44.5307C51.076 43.9489 50.0498 43.6384 49 43.6384C47.9502 43.6384 46.924 43.9489 46.0504 44.5307L41.9639 40.4461C42.3574 39.7931 42.5673 39.0461 42.5714 38.2838C42.5714 37.4366 42.3201 36.6083 41.8492 35.9039C41.3782 35.1994 40.7089 34.6503 39.9258 34.3261C39.1427 34.0019 38.281 33.917 37.4496 34.0823C36.6183 34.2476 35.8546 34.6556 35.2553 35.2547C34.6559 35.8538 34.2477 36.6171 34.0824 37.4481C33.917 38.2791 34.0019 39.1404 34.3262 39.9232C34.6506 40.7059 35.1999 41.375 35.9047 41.8457C36.6095 42.3164 37.4381 42.5676 38.2857 42.5676C39.0487 42.5637 39.7964 42.3539 40.45 41.9604L44.5354 46.045C43.9533 46.9182 43.6427 47.9441 43.6427 48.9933C43.6427 50.0426 43.9533 51.0685 44.5354 51.9417L40.4489 56.0263C39.7956 55.6331 39.0483 55.4233 38.2857 55.4191C37.4381 55.4191 36.6095 55.6703 35.9047 56.141C35.1999 56.6117 34.6506 57.2808 34.3262 58.0635C34.0019 58.8463 33.917 59.7076 34.0824 60.5386C34.2477 61.3696 34.6559 62.1329 35.2553 62.732C35.8546 63.3311 36.6183 63.7391 37.4496 63.9044C38.281 64.0697 39.1427 63.9848 39.9258 63.6606C40.7089 63.3364 41.3782 62.7873 41.8492 62.0828C42.3201 61.3784 42.5714 60.5501 42.5714 59.7029C42.5675 58.9403 42.3576 58.1928 41.9639 57.5396L46.0504 53.456C46.6202 53.8356 47.2579 54.1018 47.9286 54.2399V57.758C47.2137 58.0107 46.6112 58.5078 46.2275 59.1615C45.8439 59.8152 45.7038 60.5835 45.832 61.3304C45.9602 62.0774 46.3485 62.7551 46.9282 63.2436C47.5079 63.7321 48.2418 64 49 64C49.7582 64 50.4921 63.7321 51.0718 63.2436C51.6515 62.7551 52.0398 62.0774 52.168 61.3304C52.2962 60.5835 52.1561 59.8152 51.7725 59.1615C51.3888 58.5078 50.7863 58.0107 50.0714 57.758V54.2399C50.7421 54.1018 51.3798 53.8356 51.9496 53.456L56.0361 57.5406C55.6426 58.1936 55.4327 58.9406 55.4286 59.7029C55.4286 60.5501 55.6799 61.3784 56.1508 62.0828C56.6218 62.7873 57.2911 63.3364 58.0742 63.6606C58.8573 63.9848 59.719 64.0697 60.5504 63.9044C61.3817 63.7391 62.1454 63.3311 62.7447 62.732C63.3441 62.1329 63.7523 61.3696 63.9176 60.5386C64.083 59.7076 63.9981 58.8463 63.6738 58.0635C63.3494 57.2808 62.8001 56.6117 62.0953 56.141C61.3905 55.6703 60.5619 55.4191 59.7143 55.4191ZM49 45.7805C49.6357 45.7805 50.2572 45.9689 50.7858 46.322C51.3143 46.675 51.7263 47.1768 51.9696 47.7638C52.2129 48.3509 52.2765 48.9969 52.1525 49.6201C52.0285 50.2434 51.7224 50.8159 51.2728 51.2652C50.8233 51.7145 50.2506 52.0205 49.6271 52.1445C49.0036 52.2684 48.3573 52.2048 47.7699 51.9616C47.1826 51.7185 46.6806 51.3067 46.3274 50.7783C45.9742 50.25 45.7857 49.6288 45.7857 48.9933C45.7866 48.1415 46.1255 47.3248 46.7281 46.7225C47.3307 46.1201 48.1478 45.7813 49 45.7805V45.7805ZM36.1429 38.2838C36.1429 37.8602 36.2685 37.4461 36.504 37.0938C36.7395 36.7416 37.0741 36.4671 37.4657 36.305C37.8572 36.1428 38.2881 36.1004 38.7038 36.1831C39.1194 36.2657 39.5013 36.4697 39.8009 36.7693C40.1006 37.0688 40.3047 37.4505 40.3874 37.8659C40.4701 38.2814 40.4276 38.7121 40.2655 39.1035C40.1033 39.4949 39.8286 39.8294 39.4762 40.0647C39.1238 40.3001 38.7095 40.4257 38.2857 40.4257C37.7176 40.4252 37.1729 40.1993 36.7711 39.7977C36.3694 39.3962 36.1434 38.8517 36.1429 38.2838V38.2838ZM38.2857 61.8448C37.8619 61.8448 37.4476 61.7192 37.0952 61.4838C36.7428 61.2485 36.4682 60.9139 36.306 60.5226C36.1438 60.1312 36.1014 59.7005 36.184 59.285C36.2667 58.8695 36.4708 58.4879 36.7705 58.1883C37.0702 57.8888 37.452 57.6848 37.8677 57.6021C38.2833 57.5195 38.7142 57.5619 39.1058 57.724C39.4973 57.8861 39.832 58.1607 40.0674 58.5129C40.3029 58.8651 40.4286 59.2793 40.4286 59.7029C40.428 60.2708 40.2021 60.8152 39.8003 61.2168C39.3986 61.6184 38.8539 61.8442 38.2857 61.8448V61.8448ZM59.7143 61.8448C59.2905 61.8448 58.8762 61.7192 58.5238 61.4838C58.1714 61.2485 57.8967 60.9139 57.7345 60.5226C57.5724 60.1312 57.5299 59.7005 57.6126 59.285C57.6953 58.8695 57.8994 58.4879 58.1991 58.1883C58.4987 57.8888 58.8806 57.6848 59.2962 57.6021C59.7119 57.5195 60.1428 57.5619 60.5343 57.724C60.9259 57.8861 61.2605 58.1607 61.496 58.5129C61.7315 58.8651 61.8571 59.2793 61.8571 59.7029C61.8563 60.2707 61.6303 60.815 61.2286 61.2165C60.8269 61.618 60.2823 61.8439 59.7143 61.8448V61.8448Z" fill="#F2F2F2"/>
</svg>
