<svg width="195" height="37" viewBox="0 0 195 37" fill="none" xmlns="http://www.w3.org/2000/svg">
<rect width="194.191" height="37" rx="4" fill="#C8AC48"/>
<mask id="mask0" mask-type="alpha" maskUnits="userSpaceOnUse" x="0" y="0" width="195" height="37">
<rect width="194.191" height="37" rx="4" fill="#A68C2F"/>
</mask>
<g mask="url(#mask0)">
<path d="M138.924 0L55.8394 37H194.191V0H138.924Z" fill="#B89D3B"/>
</g>
<path d="M76.9312 15.0144V24H74.7424V18.3808L72.7968 24H70.9024L68.944 18.368V24H66.7552V15.0144H69.4304L71.8752 21.2736L74.2688 15.0144H76.9312ZM80.0939 16.8576L81.8091 21.2352L83.4091 16.8576H85.8283L81.3739 27.4048H78.9675L80.6443 23.7312L77.6491 16.8576H80.0939ZM93.2521 14.8608C94.4041 14.8608 95.3556 15.1637 96.1065 15.7696C96.866 16.3755 97.3566 17.1947 97.5785 18.2272H95.2617C95.091 17.8091 94.8265 17.4805 94.4681 17.2416C94.1182 17.0027 93.7001 16.8832 93.2137 16.8832C92.5737 16.8832 92.0574 17.1179 91.6649 17.5872C91.2724 18.0565 91.0761 18.6837 91.0761 19.4688C91.0761 20.2539 91.2724 20.8811 91.6649 21.3504C92.0574 21.8112 92.5737 22.0416 93.2137 22.0416C93.7001 22.0416 94.1182 21.9221 94.4681 21.6832C94.8265 21.4443 95.091 21.12 95.2617 20.7104H97.5785C97.3566 21.7344 96.866 22.5536 96.1065 23.168C95.3556 23.7739 94.4041 24.0768 93.2521 24.0768C92.3732 24.0768 91.6009 23.8848 90.9353 23.5008C90.2697 23.1083 89.7534 22.5621 89.3865 21.8624C89.0281 21.1627 88.8489 20.3648 88.8489 19.4688C88.8489 18.5728 89.0281 17.7749 89.3865 17.0752C89.7534 16.3755 90.2697 15.8336 90.9353 15.4496C91.6009 15.0571 92.3732 14.8608 93.2521 14.8608ZM101.519 16.768C102.065 16.768 102.534 16.8917 102.927 17.1392C103.319 17.3867 103.609 17.7237 103.797 18.1504V16.8576H105.973V24H103.797V22.7072C103.609 23.1339 103.319 23.4709 102.927 23.7184C102.534 23.9659 102.065 24.0896 101.519 24.0896C100.93 24.0896 100.401 23.9445 99.9316 23.6544C99.4708 23.3557 99.1039 22.9291 98.8308 22.3744C98.5663 21.8197 98.434 21.1712 98.434 20.4288C98.434 19.6779 98.5663 19.0293 98.8308 18.4832C99.1039 17.9285 99.4708 17.5061 99.9316 17.216C100.401 16.9173 100.93 16.768 101.519 16.768ZM102.223 18.688C101.753 18.688 101.374 18.8416 101.084 19.1488C100.802 19.456 100.661 19.8827 100.661 20.4288C100.661 20.9749 100.802 21.4016 101.084 21.7088C101.374 22.016 101.753 22.1696 102.223 22.1696C102.684 22.1696 103.059 22.0117 103.349 21.696C103.648 21.3803 103.797 20.9579 103.797 20.4288C103.797 19.8912 103.648 19.4688 103.349 19.1616C103.059 18.8459 102.684 18.688 102.223 18.688ZM109.669 14.528V24H107.48V14.528H109.669ZM117.964 20.2368C117.964 20.416 117.943 20.6123 117.9 20.8256H112.947C112.972 21.3632 113.109 21.7515 113.356 21.9904C113.604 22.2208 113.919 22.336 114.303 22.336C114.628 22.336 114.896 22.2549 115.11 22.0928C115.323 21.9307 115.464 21.7216 115.532 21.4656H117.849C117.755 21.9691 117.55 22.4213 117.235 22.8224C116.919 23.2149 116.518 23.5264 116.031 23.7568C115.545 23.9787 115.003 24.0896 114.406 24.0896C113.706 24.0896 113.083 23.9445 112.537 23.6544C111.999 23.3557 111.577 22.9291 111.27 22.3744C110.963 21.8197 110.809 21.1712 110.809 20.4288C110.809 19.6779 110.958 19.0293 111.257 18.4832C111.564 17.9285 111.991 17.5061 112.537 17.216C113.083 16.9173 113.706 16.768 114.406 16.768C115.114 16.768 115.737 16.9131 116.275 17.2032C116.812 17.4933 117.226 17.9029 117.516 18.432C117.815 18.9525 117.964 19.5541 117.964 20.2368ZM115.75 19.904C115.758 19.4347 115.63 19.0848 115.366 18.8544C115.11 18.6155 114.79 18.496 114.406 18.496C114.005 18.496 113.672 18.6155 113.407 18.8544C113.143 19.0933 112.994 19.4432 112.959 19.904H115.75ZM123.636 16.7808C124.456 16.7808 125.104 17.0539 125.582 17.6C126.068 18.1461 126.312 18.8971 126.312 19.8528V24H124.123V20.1088C124.123 19.6309 123.995 19.2597 123.739 18.9952C123.491 18.7221 123.159 18.5856 122.74 18.5856C122.297 18.5856 121.943 18.7264 121.678 19.008C121.422 19.2896 121.294 19.6907 121.294 20.2112V24H119.105V16.8576H121.294V18.1632C121.499 17.7365 121.802 17.3995 122.203 17.152C122.612 16.9045 123.09 16.7808 123.636 16.7808ZM130.469 16.768C131.015 16.768 131.484 16.8917 131.877 17.1392C132.269 17.3867 132.555 17.7237 132.734 18.1504V14.528H134.923V24H132.734V22.7072C132.555 23.1339 132.269 23.4709 131.877 23.7184C131.484 23.9659 131.015 24.0896 130.469 24.0896C129.88 24.0896 129.351 23.9445 128.882 23.6544C128.421 23.3557 128.054 22.9291 127.781 22.3744C127.516 21.8197 127.384 21.1712 127.384 20.4288C127.384 19.6779 127.516 19.0293 127.781 18.4832C128.054 17.9285 128.421 17.5061 128.882 17.216C129.351 16.9173 129.88 16.768 130.469 16.768ZM131.173 18.688C130.703 18.688 130.324 18.8416 130.034 19.1488C129.752 19.456 129.611 19.8827 129.611 20.4288C129.611 20.9749 129.752 21.4016 130.034 21.7088C130.324 22.016 130.703 22.1696 131.173 22.1696C131.634 22.1696 132.009 22.0117 132.299 21.696C132.598 21.3803 132.747 20.9579 132.747 20.4288C132.747 19.8912 132.598 19.4688 132.299 19.1616C132.009 18.8459 131.634 18.688 131.173 18.688ZM139.144 16.768C139.69 16.768 140.159 16.8917 140.552 17.1392C140.944 17.3867 141.234 17.7237 141.422 18.1504V16.8576H143.598V24H141.422V22.7072C141.234 23.1339 140.944 23.4709 140.552 23.7184C140.159 23.9659 139.69 24.0896 139.144 24.0896C138.555 24.0896 138.026 23.9445 137.557 23.6544C137.096 23.3557 136.729 22.9291 136.456 22.3744C136.191 21.8197 136.059 21.1712 136.059 20.4288C136.059 19.6779 136.191 19.0293 136.456 18.4832C136.729 17.9285 137.096 17.5061 137.557 17.216C138.026 16.9173 138.555 16.768 139.144 16.768ZM139.848 18.688C139.378 18.688 138.999 18.8416 138.709 19.1488C138.427 19.456 138.286 19.8827 138.286 20.4288C138.286 20.9749 138.427 21.4016 138.709 21.7088C138.999 22.016 139.378 22.1696 139.848 22.1696C140.309 22.1696 140.684 22.0117 140.974 21.696C141.273 21.3803 141.422 20.9579 141.422 20.4288C141.422 19.8912 141.273 19.4688 140.974 19.1616C140.684 18.8459 140.309 18.688 139.848 18.688ZM147.294 18.2016C147.567 17.7664 147.917 17.4208 148.344 17.1648C148.779 16.9088 149.248 16.7808 149.752 16.7808V19.1232H149.124C148.544 19.1232 148.092 19.2469 147.768 19.4944C147.452 19.7419 147.294 20.16 147.294 20.7488V24H145.105V16.8576H147.294V18.2016Z" fill="white"/>
<path d="M56 12.5H47C45.3431 12.5 44 13.8431 44 15.5V23C44 24.6569 45.3431 26 47 26H56C57.6569 26 59 24.6569 59 23V15.5C59 13.8431 57.6569 12.5 56 12.5Z" stroke="white" stroke-width="2" stroke-linecap="round" stroke-linejoin="round"/>
<path d="M48.5 11V14" stroke="white" stroke-width="2" stroke-linecap="round" stroke-linejoin="round"/>
<path d="M54.5 11V14" stroke="white" stroke-width="2" stroke-linecap="round" stroke-linejoin="round"/>
<path d="M44 17H59" stroke="white" stroke-width="2" stroke-linecap="round" stroke-linejoin="round"/>
</svg>
