<svg width="195" height="37" viewBox="0 0 195 37" fill="none" xmlns="http://www.w3.org/2000/svg">
<rect width="194.191" height="37" rx="4" fill="#C8AC48"/>
<mask id="mask0" mask-type="alpha" maskUnits="userSpaceOnUse" x="0" y="0" width="195" height="37">
<rect width="194.191" height="37" rx="4" fill="#A68C2F"/>
</mask>
<g mask="url(#mask0)">
<path d="M138.925 0L55.8398 37H194.191V0H138.925Z" fill="#B89D3B"/>
</g>
<path d="M72.832 23H70.6432L66.9824 17.4576V23H64.7936V14.0144H66.9824L70.6432 19.5824V14.0144H72.832V23ZM81.1514 19.3136C81.1514 19.5184 81.1386 19.7317 81.113 19.9536H76.1594C76.1935 20.3973 76.3343 20.7387 76.5818 20.9776C76.8378 21.208 77.1493 21.3232 77.5162 21.3232C78.0623 21.3232 78.4421 21.0928 78.6554 20.632H80.985C80.8655 21.1013 80.6479 21.5237 80.3322 21.8992C80.025 22.2747 79.6367 22.5691 79.1674 22.7824C78.6981 22.9957 78.1733 23.1024 77.593 23.1024C76.8933 23.1024 76.2703 22.9531 75.7242 22.6544C75.1781 22.3557 74.7514 21.9291 74.4442 21.3744C74.137 20.8197 73.9834 20.1712 73.9834 19.4288C73.9834 18.6864 74.1327 18.0379 74.4314 17.4832C74.7386 16.9285 75.1653 16.5019 75.7114 16.2032C76.2575 15.9045 76.8847 15.7552 77.593 15.7552C78.2842 15.7552 78.8986 15.9003 79.4362 16.1904C79.9738 16.4805 80.3919 16.8944 80.6906 17.432C80.9978 17.9696 81.1514 18.5968 81.1514 19.3136ZM78.9114 18.7376C78.9114 18.3621 78.7834 18.0635 78.5274 17.8416C78.2714 17.6197 77.9514 17.5088 77.5674 17.5088C77.2005 17.5088 76.889 17.6155 76.633 17.8288C76.3855 18.0421 76.2319 18.3451 76.1722 18.7376H78.9114ZM86.5301 23L85.1605 21.016L84.0085 23H81.6405L83.9957 19.352L81.5765 15.8576H84.0341L85.4037 17.8288L86.5557 15.8576H88.9237L86.5301 19.4544L88.9877 23H86.5301ZM93.8119 21.144V23H92.6983C91.9047 23 91.286 22.808 90.8423 22.424C90.3986 22.0315 90.1767 21.3957 90.1767 20.5168V17.6752H89.3063V15.8576H90.1767V14.1168H92.3655V15.8576H93.7991V17.6752H92.3655V20.5424C92.3655 20.7557 92.4167 20.9093 92.5191 21.0032C92.6215 21.0971 92.7922 21.144 93.0311 21.144H93.8119ZM104.592 16.9072C104.592 17.4277 104.472 17.9056 104.233 18.3408C103.994 18.7675 103.627 19.1131 103.132 19.3776C102.637 19.6421 102.023 19.7744 101.289 19.7744H99.9324V23H97.7436V14.0144H101.289C102.006 14.0144 102.612 14.1381 103.107 14.3856C103.602 14.6331 103.973 14.9744 104.22 15.4096C104.468 15.8448 104.592 16.344 104.592 16.9072ZM101.123 18.0336C101.541 18.0336 101.852 17.9355 102.057 17.7392C102.262 17.5429 102.364 17.2656 102.364 16.9072C102.364 16.5488 102.262 16.2715 102.057 16.0752C101.852 15.8789 101.541 15.7808 101.123 15.7808H99.9324V18.0336H101.123ZM105.296 19.416C105.296 18.6821 105.432 18.0379 105.706 17.4832C105.987 16.9285 106.367 16.5019 106.845 16.2032C107.323 15.9045 107.856 15.7552 108.445 15.7552C108.948 15.7552 109.388 15.8576 109.763 16.0624C110.147 16.2672 110.442 16.536 110.646 16.8688V15.8576H112.835V23H110.646V21.9888C110.433 22.3216 110.134 22.5904 109.75 22.7952C109.375 23 108.935 23.1024 108.432 23.1024C107.852 23.1024 107.323 22.9531 106.845 22.6544C106.367 22.3472 105.987 21.9163 105.706 21.3616C105.432 20.7984 105.296 20.1499 105.296 19.416ZM110.646 19.4288C110.646 18.8827 110.493 18.4517 110.186 18.136C109.887 17.8203 109.52 17.6624 109.085 17.6624C108.65 17.6624 108.278 17.8203 107.971 18.136C107.672 18.4432 107.523 18.8699 107.523 19.416C107.523 19.9621 107.672 20.3973 107.971 20.7216C108.278 21.0373 108.65 21.1952 109.085 21.1952C109.52 21.1952 109.887 21.0373 110.186 20.7216C110.493 20.4059 110.646 19.9749 110.646 19.4288ZM117.132 15.7552C117.636 15.7552 118.075 15.8576 118.451 16.0624C118.835 16.2672 119.129 16.536 119.334 16.8688V15.8576H121.523V22.9872C121.523 23.6443 121.39 24.2373 121.126 24.7664C120.87 25.304 120.473 25.7307 119.935 26.0464C119.406 26.3621 118.745 26.52 117.951 26.52C116.893 26.52 116.036 26.2683 115.379 25.7648C114.722 25.2699 114.346 24.5957 114.252 23.7424H116.415C116.484 24.0155 116.646 24.2288 116.902 24.3824C117.158 24.5445 117.474 24.6256 117.849 24.6256C118.301 24.6256 118.66 24.4933 118.924 24.2288C119.197 23.9728 119.334 23.5589 119.334 22.9872V21.976C119.12 22.3088 118.826 22.5819 118.451 22.7952C118.075 23 117.636 23.1024 117.132 23.1024C116.543 23.1024 116.01 22.9531 115.532 22.6544C115.054 22.3472 114.675 21.9163 114.393 21.3616C114.12 20.7984 113.983 20.1499 113.983 19.416C113.983 18.6821 114.12 18.0379 114.393 17.4832C114.675 16.9285 115.054 16.5019 115.532 16.2032C116.01 15.9045 116.543 15.7552 117.132 15.7552ZM119.334 19.4288C119.334 18.8827 119.18 18.4517 118.873 18.136C118.574 17.8203 118.207 17.6624 117.772 17.6624C117.337 17.6624 116.966 17.8203 116.659 18.136C116.36 18.4432 116.211 18.8699 116.211 19.416C116.211 19.9621 116.36 20.3973 116.659 20.7216C116.966 21.0373 117.337 21.1952 117.772 21.1952C118.207 21.1952 118.574 21.0373 118.873 20.7216C119.18 20.4059 119.334 19.9749 119.334 19.4288ZM129.839 19.3136C129.839 19.5184 129.826 19.7317 129.801 19.9536H124.847C124.881 20.3973 125.022 20.7387 125.269 20.9776C125.525 21.208 125.837 21.3232 126.204 21.3232C126.75 21.3232 127.13 21.0928 127.343 20.632H129.673C129.553 21.1013 129.335 21.5237 129.02 21.8992C128.713 22.2747 128.324 22.5691 127.855 22.7824C127.386 22.9957 126.861 23.1024 126.281 23.1024C125.581 23.1024 124.958 22.9531 124.412 22.6544C123.866 22.3557 123.439 21.9291 123.132 21.3744C122.825 20.8197 122.671 20.1712 122.671 19.4288C122.671 18.6864 122.82 18.0379 123.119 17.4832C123.426 16.9285 123.853 16.5019 124.399 16.2032C124.945 15.9045 125.572 15.7552 126.281 15.7552C126.972 15.7552 127.586 15.9003 128.124 16.1904C128.661 16.4805 129.079 16.8944 129.378 17.432C129.685 17.9696 129.839 18.5968 129.839 19.3136ZM127.599 18.7376C127.599 18.3621 127.471 18.0635 127.215 17.8416C126.959 17.6197 126.639 17.5088 126.255 17.5088C125.888 17.5088 125.577 17.6155 125.321 17.8288C125.073 18.0421 124.919 18.3451 124.86 18.7376H127.599Z" fill="#F2F2F2"/>
</svg>
