<svg width="98" height="98" viewBox="0 0 98 98" fill="none" xmlns="http://www.w3.org/2000/svg">
<circle cx="49" cy="49" r="42" fill="#46546B"/>
<circle cx="49" cy="49" r="47.5" stroke="#293852" stroke-width="3"/>
<path d="M49.0001 65.2917C50.5584 65.2917 51.8334 64.0167 51.8334 62.4584H46.1667C46.1667 64.0167 47.4417 65.2917 49.0001 65.2917ZM57.5001 56.7917V49.7084C57.5001 45.3592 55.1909 41.7184 51.1251 40.7551V39.7917C51.1251 38.6159 50.1759 37.6667 49.0001 37.6667C47.8242 37.6667 46.8751 38.6159 46.8751 39.7917V40.7551C42.8234 41.7184 40.5001 45.3451 40.5001 49.7084V56.7917L37.6667 59.6251V61.0417H60.3334V59.6251L57.5001 56.7917ZM54.6667 58.2084H43.3334V49.7084C43.3334 46.1951 45.4726 43.3334 49.0001 43.3334C52.5276 43.3334 54.6667 46.1951 54.6667 49.7084V58.2084Z" fill="#F2F2F2"/>
</svg>
