<svg width="36" height="36" viewBox="0 0 36 36" fill="none" xmlns="http://www.w3.org/2000/svg">
<path d="M12.1943 27.8828H23.8057C23.9176 27.8828 24.0249 27.8384 24.104 27.7592C24.1831 27.6801 24.2276 27.5728 24.2276 27.4609V18.3203C24.2276 18.2084 24.1831 18.1011 24.104 18.022C24.0249 17.9429 23.9176 17.8984 23.8057 17.8984H12.1943C12.0824 17.8984 11.9751 17.9429 11.896 18.022C11.8169 18.1011 11.7724 18.2084 11.7724 18.3203V27.4609C11.7724 27.5728 11.8169 27.6801 11.896 27.7592C11.9751 27.8384 12.0824 27.8828 12.1943 27.8828V27.8828ZM12.6162 18.7422H23.3838V27.0391H12.6162V18.7422Z" fill="#313B4E"/>
<path d="M5.62642 21.4434C5.51453 21.4434 5.40723 21.4878 5.32811 21.5669C5.24899 21.646 5.20454 21.7533 5.20454 21.8652V25.5535C5.20454 25.6654 5.24899 25.7727 5.32811 25.8519C5.40723 25.931 5.51453 25.9754 5.62642 25.9754C5.73831 25.9754 5.84561 25.931 5.92473 25.8519C6.00385 25.7727 6.04829 25.6654 6.04829 25.5535V21.8652C6.04829 21.7533 6.00385 21.646 5.92473 21.5669C5.84561 21.4878 5.73831 21.4434 5.62642 21.4434Z" fill="#313B4E"/>
<path d="M5.69673 19.5273C5.58484 19.5273 5.47754 19.5718 5.39842 19.6509C5.3193 19.73 5.27486 19.8373 5.27486 19.9492V20.4103C5.27486 20.5222 5.3193 20.6295 5.39842 20.7086C5.47754 20.7878 5.58484 20.8322 5.69673 20.8322C5.80862 20.8322 5.91593 20.7878 5.99504 20.7086C6.07416 20.6295 6.11861 20.5222 6.11861 20.4103V19.9492C6.11861 19.8373 6.07416 19.73 5.99504 19.6509C5.91593 19.5718 5.80862 19.5273 5.69673 19.5273Z" fill="#313B4E"/>
<path d="M18 7.49316C17.7774 7.49316 17.5597 7.55919 17.3746 7.68288C17.1895 7.80657 17.0452 7.98238 16.96 8.18808C16.8748 8.39378 16.8525 8.62012 16.8959 8.83848C16.9394 9.05685 17.0466 9.25743 17.204 9.41486C17.3614 9.5723 17.562 9.67951 17.7804 9.72294C17.9988 9.76638 18.2251 9.74409 18.4308 9.65888C18.6365 9.57368 18.8123 9.4294 18.936 9.24428C19.0597 9.05916 19.1257 8.84151 19.1257 8.61887C19.1254 8.32042 19.0067 8.03428 18.7956 7.82325C18.5846 7.61221 18.2985 7.4935 18 7.49316V7.49316ZM18 8.90082C17.9442 8.90082 17.8897 8.88429 17.8434 8.8533C17.797 8.82232 17.7609 8.77829 17.7395 8.72677C17.7182 8.67525 17.7126 8.61856 17.7235 8.56386C17.7343 8.50917 17.7612 8.45893 17.8006 8.4195C17.8401 8.38007 17.8903 8.35321 17.945 8.34233C17.9997 8.33145 18.0564 8.33704 18.1079 8.35838C18.1594 8.37972 18.2035 8.41586 18.2344 8.46222C18.2654 8.50859 18.282 8.5631 18.282 8.61887C18.2819 8.69362 18.2521 8.76528 18.1993 8.81814C18.1464 8.87099 18.0748 8.90073 18 8.90082Z" fill="#313B4E"/>
<path d="M15.0507 7.49316C14.828 7.49315 14.6104 7.55916 14.4252 7.68285C14.2401 7.80653 14.0958 7.98234 14.0106 8.18803C13.9254 8.39372 13.9031 8.62007 13.9465 8.83844C13.9899 9.05681 14.0972 9.2574 14.2546 9.41483C14.412 9.57227 14.6126 9.67949 14.831 9.72293C15.0493 9.76638 15.2757 9.74409 15.4814 9.65889C15.6871 9.57369 15.8629 9.4294 15.9866 9.24428C16.1103 9.05916 16.1763 8.84151 16.1763 8.61887C16.176 8.32043 16.0572 8.03432 15.8462 7.82329C15.6352 7.61226 15.3491 7.49354 15.0507 7.49316V7.49316ZM15.0507 8.90082C14.9949 8.90083 14.9404 8.88431 14.894 8.85334C14.8476 8.82236 14.8115 8.77833 14.7901 8.72681C14.7688 8.6753 14.7632 8.6186 14.7741 8.5639C14.7849 8.50921 14.8118 8.45896 14.8512 8.41952C14.8906 8.38008 14.9409 8.35322 14.9956 8.34234C15.0503 8.33145 15.107 8.33703 15.1585 8.35837C15.21 8.37971 15.254 8.41585 15.285 8.46222C15.316 8.50858 15.3326 8.5631 15.3326 8.61887C15.3325 8.69361 15.3027 8.76526 15.2499 8.81811C15.1971 8.87097 15.1254 8.90071 15.0507 8.90082V8.90082Z" fill="#313B4E"/>
<path d="M20.9493 7.49316C20.7267 7.49318 20.5091 7.55921 20.3239 7.68291C20.1388 7.80662 19.9946 7.98243 19.9094 8.18813C19.8242 8.39382 19.8019 8.62016 19.8453 8.83852C19.8888 9.05688 19.996 9.25745 20.1534 9.41488C20.3109 9.5723 20.5114 9.67951 20.7298 9.72294C20.9482 9.76637 21.1745 9.74407 21.3802 9.65887C21.5859 9.57366 21.7617 9.42938 21.8854 9.24426C22.0091 9.05914 22.0751 8.8415 22.0751 8.61886C22.0748 8.32039 21.9561 8.03424 21.745 7.8232C21.534 7.61216 21.2478 7.49346 20.9493 7.49316ZM20.9493 8.90082C20.8936 8.9008 20.8391 8.88425 20.7927 8.85326C20.7463 8.82227 20.7102 8.77823 20.6889 8.72671C20.6676 8.67519 20.662 8.6185 20.6729 8.56381C20.6838 8.50913 20.7106 8.45889 20.7501 8.41947C20.7895 8.38004 20.8397 8.3532 20.8944 8.34232C20.9491 8.33145 21.0058 8.33704 21.0573 8.35838C21.1088 8.37972 21.1529 8.41586 21.1838 8.46223C21.2148 8.50859 21.2314 8.5631 21.2314 8.61886C21.2313 8.69363 21.2015 8.76531 21.1487 8.81818C21.0958 8.87104 21.0241 8.90076 20.9493 8.90082V8.90082Z" fill="#313B4E"/>
<path d="M18 10.4434C17.7774 10.4434 17.5597 10.5094 17.3746 10.6331C17.1895 10.7568 17.0452 10.9326 16.96 11.1383C16.8748 11.344 16.8525 11.5703 16.8959 11.7887C16.9394 12.007 17.0466 12.2076 17.204 12.3651C17.3614 12.5225 17.562 12.6297 17.7804 12.6731C17.9988 12.7166 18.2251 12.6943 18.4308 12.6091C18.6365 12.5239 18.8123 12.3796 18.936 12.1945C19.0597 12.0093 19.1257 11.7917 19.1257 11.5691C19.1254 11.2706 19.0067 10.9845 18.7956 10.7734C18.5846 10.5624 18.2985 10.4437 18 10.4434ZM18 11.851C17.9442 11.851 17.8897 11.8345 17.8434 11.8035C17.797 11.7725 17.7609 11.7285 17.7395 11.677C17.7182 11.6254 17.7126 11.5687 17.7235 11.5141C17.7343 11.4594 17.7612 11.4091 17.8006 11.3697C17.8401 11.3303 17.8903 11.3034 17.945 11.2925C17.9997 11.2816 18.0564 11.2872 18.1079 11.3086C18.1594 11.3299 18.2035 11.3661 18.2344 11.4124C18.2654 11.4588 18.282 11.5133 18.282 11.5691C18.2819 11.6438 18.2521 11.7155 18.1993 11.7683C18.1464 11.8212 18.0748 11.8509 18 11.851V11.851Z" fill="#313B4E"/>
<path d="M15.0507 10.4434C14.828 10.4433 14.6104 10.5094 14.4252 10.633C14.2401 10.7567 14.0958 10.9325 14.0106 11.1382C13.9254 11.3439 13.9031 11.5703 13.9465 11.7886C13.9899 12.007 14.0972 12.2076 14.2546 12.365C14.412 12.5225 14.6126 12.6297 14.831 12.6731C15.0493 12.7166 15.2757 12.6943 15.4814 12.6091C15.6871 12.5239 15.8629 12.3796 15.9866 12.1945C16.1103 12.0094 16.1763 11.7917 16.1763 11.5691C16.176 11.2706 16.0572 10.9845 15.8462 10.7735C15.6352 10.5625 15.3491 10.4437 15.0507 10.4434ZM15.0507 11.851C14.9949 11.851 14.9404 11.8345 14.894 11.8035C14.8476 11.7726 14.8115 11.7285 14.7901 11.677C14.7688 11.6255 14.7632 11.5688 14.7741 11.5141C14.7849 11.4594 14.8118 11.4092 14.8512 11.3697C14.8906 11.3303 14.9409 11.3034 14.9956 11.2925C15.0503 11.2816 15.107 11.2872 15.1585 11.3086C15.21 11.3299 15.254 11.366 15.285 11.4124C15.316 11.4588 15.3326 11.5133 15.3326 11.5691C15.3325 11.6438 15.3027 11.7155 15.2499 11.7683C15.1971 11.8212 15.1254 11.8509 15.0507 11.851Z" fill="#313B4E"/>
<path d="M20.9493 10.4434C20.7267 10.4434 20.5091 10.5094 20.3239 10.6331C20.1388 10.7568 19.9946 10.9326 19.9094 11.1383C19.8242 11.344 19.8019 11.5704 19.8453 11.7887C19.8888 12.0071 19.996 12.2077 20.1534 12.3651C20.3109 12.5225 20.5114 12.6297 20.7298 12.6731C20.9482 12.7166 21.1745 12.6943 21.3802 12.6091C21.5859 12.5239 21.7617 12.3796 21.8854 12.1945C22.0091 12.0093 22.0751 11.7917 22.0751 11.5691C22.0748 11.2706 21.9561 10.9844 21.745 10.7734C21.534 10.5624 21.2478 10.4437 20.9493 10.4434V10.4434ZM20.9493 11.851C20.8936 11.851 20.8391 11.8345 20.7927 11.8035C20.7463 11.7725 20.7102 11.7284 20.6889 11.6769C20.6676 11.6254 20.662 11.5687 20.6729 11.514C20.6838 11.4593 20.7106 11.4091 20.7501 11.3697C20.7895 11.3302 20.8397 11.3034 20.8944 11.2925C20.9491 11.2816 21.0058 11.2872 21.0573 11.3086C21.1088 11.3299 21.1529 11.3661 21.1838 11.4124C21.2148 11.4588 21.2314 11.5133 21.2314 11.5691C21.2313 11.6438 21.2015 11.7155 21.1487 11.7684C21.0958 11.8212 21.0241 11.851 20.9493 11.851V11.851Z" fill="#313B4E"/>
<path d="M35.1296 14.0652H34.0511V12.9023C34.0511 12.7905 34.0066 12.6831 33.9275 12.604C33.8484 12.5249 33.7411 12.4805 33.6292 12.4805H32.9515V11.1998C32.9515 11.0879 32.9071 10.9806 32.828 10.9015C32.7489 10.8224 32.6416 10.7779 32.5297 10.7779H30.9758V10.389C30.9754 10.0563 30.8431 9.7373 30.6079 9.50198C30.3727 9.26666 30.0538 9.13419 29.7211 9.13359H29.6367V5.50716H29.8073C30.4023 5.79486 31.0728 5.88792 31.7237 5.77315L30.8364 7.81172C30.7686 7.84751 30.7118 7.90112 30.6721 7.96679C30.6325 8.03245 30.6115 8.10767 30.6114 8.18438C30.6114 9.1594 31.452 9.95266 32.4852 9.95266C33.5185 9.95266 34.3591 9.1594 34.3591 8.18438C34.359 8.10767 34.338 8.03245 34.2983 7.96679C34.2587 7.90112 34.2019 7.84751 34.1341 7.81172L32.8723 4.91161C32.8193 4.80717 32.728 4.72721 32.6175 4.68837C32.507 4.64952 32.3858 4.65478 32.2791 4.70306L32.15 4.76332C31.8282 4.91269 31.4763 4.9858 31.1217 4.97697C30.7671 4.96814 30.4193 4.87761 30.1054 4.71241C30.0446 4.68014 29.9768 4.66325 29.9079 4.6632H29.6367V4.44888C29.6367 4.33699 29.5923 4.22969 29.5132 4.15057C29.434 4.07146 29.3267 4.02701 29.2149 4.02701C29.103 4.02701 28.9957 4.07146 28.9165 4.15057C28.8374 4.22969 28.793 4.33699 28.793 4.44888V4.66341H28.5017C28.4329 4.66347 28.3652 4.68037 28.3044 4.71263C27.9904 4.87783 27.6426 4.96838 27.288 4.97721C26.9333 4.98604 26.5815 4.91291 26.2597 4.76353L26.1307 4.70327C26.0781 4.67748 26.0209 4.66241 25.9625 4.65895C25.9041 4.65549 25.8455 4.66371 25.7903 4.68312C25.735 4.70254 25.6842 4.73276 25.6408 4.77203C25.5974 4.81129 25.5622 4.85882 25.5374 4.91182L24.275 7.81172C24.2073 7.84756 24.1506 7.90119 24.111 7.96685C24.0714 8.03251 24.0504 8.10771 24.0504 8.18438C24.0504 9.1594 24.891 9.95266 25.9242 9.95266C26.9573 9.95266 27.798 9.1594 27.798 8.18438C27.7979 8.10767 27.7769 8.03245 27.7373 7.96679C27.6976 7.90112 27.6408 7.84751 27.573 7.81172L26.6856 5.77266C27.3365 5.88692 28.0069 5.79398 28.6022 5.50695H28.793V9.13359H28.7093C28.3764 9.13363 28.0571 9.26591 27.8217 9.50133C27.5863 9.73674 27.454 10.056 27.454 10.389V10.7782H26.0649C25.953 10.7782 25.8457 10.8227 25.7665 10.9018C25.6874 10.9809 25.643 11.0882 25.643 11.2001V12.4805H24.9654C24.8535 12.4805 24.7462 12.5249 24.6671 12.604C24.5879 12.6831 24.5435 12.7905 24.5435 12.9023V14.0652H23.6505V6.03844C23.6499 5.50003 23.4358 4.98386 23.055 4.60317C22.6743 4.22248 22.1581 4.00837 21.6197 4.00781H14.3803C13.842 4.00843 13.3258 4.22256 12.9451 4.60325C12.5644 4.98393 12.3503 5.50007 12.3497 6.03844V14.0652H0.870407C0.758519 14.0652 0.651213 14.1096 0.572096 14.1887C0.49298 14.2679 0.448532 14.3752 0.448532 14.487V16.7644C0.448532 16.8763 0.49298 16.9836 0.572096 17.0627C0.651213 17.1418 0.758519 17.1863 0.870407 17.1863H1.57353V31.5703C1.57353 31.6822 1.61798 31.7895 1.6971 31.8686C1.77621 31.9477 1.88352 31.9922 1.99541 31.9922H3.99784C4.10973 31.9922 4.21703 31.9477 4.29615 31.8686C4.37526 31.7895 4.41971 31.6822 4.41971 31.5703V29.8372H31.51V31.5703C31.51 31.6822 31.5544 31.7895 31.6336 31.8686C31.7127 31.9477 31.82 31.9922 31.9319 31.9922H34.0046C34.1165 31.9922 34.2238 31.9477 34.3029 31.8686C34.382 31.7895 34.4265 31.6822 34.4265 31.5703V17.1863H35.1296C35.2415 17.1863 35.3488 17.1418 35.4279 17.0627C35.507 16.9836 35.5515 16.8763 35.5515 16.7644V14.487C35.5515 14.3752 35.507 14.2679 35.4279 14.1887C35.3488 14.1096 35.2415 14.0652 35.1296 14.0652V14.0652ZM32.4854 9.10913C32.3021 9.11268 32.121 9.06814 31.9602 8.97995C31.7994 8.89176 31.6645 8.76299 31.569 8.60646H33.4019C33.3063 8.76299 33.1715 8.89176 33.0107 8.97996C32.8499 9.06815 32.6688 9.11268 32.4854 9.10913V9.10913ZM32.4854 6.13716L33.1929 7.7625H31.778L32.4854 6.13716ZM25.9242 6.13716L26.6317 7.7625H25.2167L25.9242 6.13716ZM26.8405 8.60625C26.7424 8.76032 26.6069 8.88715 26.4468 8.97501C26.2866 9.06288 26.1068 9.10894 25.9242 9.10894C25.7415 9.10894 25.5617 9.06288 25.4016 8.97501C25.2414 8.88715 25.1059 8.76032 25.0078 8.60625H26.8405ZM28.2977 10.3885C28.2977 10.3344 28.3083 10.2809 28.329 10.2309C28.3497 10.181 28.38 10.1356 28.4182 10.0974C28.4564 10.0591 28.5018 10.0288 28.5518 10.0081C28.6017 9.98747 28.6552 9.97683 28.7093 9.97685H29.7203C29.8294 9.97702 29.934 10.0204 30.0111 10.0976C30.0883 10.1748 30.1317 10.2794 30.1318 10.3885V10.7774H28.2977V10.3885ZM26.4867 11.6217H32.1079V12.4805H26.4867V11.6217ZM25.3871 13.3242H33.2073V14.0652H25.3871V13.3242ZM13.1934 6.03844C13.1938 5.72377 13.319 5.4221 13.5415 5.1996C13.764 4.9771 14.0657 4.85193 14.3803 4.85156H21.6197C21.9344 4.85193 22.236 4.9771 22.4585 5.1996C22.681 5.4221 22.8062 5.72377 22.8066 6.03844V14.0652H13.1934V6.03844ZM3.57596 31.1484H2.41728V17.1863H3.57596V31.1484ZM31.51 27.0385H26.6787V18.7417H31.51V27.0385ZM33.5827 31.1484H32.3537V17.1863H33.5827V31.1484ZM34.7077 16.3425H9.42188C9.31 16.3425 9.20269 16.387 9.12357 16.4661C9.04446 16.5452 9.00001 16.6525 9.00001 16.7644C9.00001 16.8763 9.04446 16.9836 9.12357 17.0627C9.20269 17.1418 9.31 17.1863 9.42188 17.1863H31.51V17.8979H26.2568C26.1449 17.8979 26.0376 17.9424 25.9585 18.0215C25.8794 18.1006 25.8349 18.2079 25.8349 18.3198V27.4604C25.8349 27.5723 25.8794 27.6796 25.9585 27.7587C26.0376 27.8378 26.1449 27.8823 26.2568 27.8823H31.51V28.9932H4.41971V27.8823H9.74321C9.8551 27.8823 9.96241 27.8378 10.0415 27.7587C10.1206 27.6796 10.1651 27.5723 10.1651 27.4604V18.3198C10.1651 18.2079 10.1206 18.1006 10.0415 18.0215C9.96241 17.9424 9.8551 17.8979 9.74321 17.8979H4.41971V17.1863H6.60938C6.72127 17.1863 6.82858 17.1418 6.90769 17.0627C6.98681 16.9836 7.03126 16.8763 7.03126 16.7644C7.03126 16.6525 6.98681 16.5452 6.90769 16.4661C6.82858 16.387 6.72127 16.3425 6.60938 16.3425H1.29228V14.9089H34.7077V16.3425ZM4.41971 27.0385V18.7417H9.32134V27.0385H4.41971Z" fill="#313B4E"/>
</svg>
