<svg width="195" height="37" viewBox="0 0 195 37" fill="none" xmlns="http://www.w3.org/2000/svg">
<rect width="194.191" height="37" rx="4" fill="#C8AC48"/>
<mask id="mask0" mask-type="alpha" maskUnits="userSpaceOnUse" x="0" y="0" width="195" height="37">
<rect width="194.191" height="37" rx="4" fill="#A68C2F"/>
</mask>
<g mask="url(#mask0)">
<path d="M138.924 0L55.8394 37H194.191V0H138.924Z" fill="#B89D3B"/>
</g>
<path d="M76.0627 19.8256V23H73.8739V13.9504H77.4195C78.4947 13.9504 79.3139 14.2192 79.8771 14.7568C80.4403 15.2859 80.7219 16.0027 80.7219 16.9072C80.7219 17.4704 80.5939 17.9739 80.3379 18.4176C80.0905 18.8528 79.7193 19.1984 79.2243 19.4544C78.7294 19.7019 78.1278 19.8256 77.4195 19.8256H76.0627ZM77.1763 18.072C78.0553 18.072 78.4947 17.6837 78.4947 16.9072C78.4947 16.1136 78.0553 15.7168 77.1763 15.7168H76.0627V18.072H77.1763ZM84.5125 15.768C85.0587 15.768 85.528 15.8917 85.9205 16.1392C86.3131 16.3867 86.6032 16.7237 86.7909 17.1504V15.8576H88.9669V23H86.7909V21.7072C86.6032 22.1339 86.3131 22.4709 85.9205 22.7184C85.528 22.9659 85.0587 23.0896 84.5125 23.0896C83.9237 23.0896 83.3947 22.9445 82.9253 22.6544C82.4645 22.3557 82.0976 21.9291 81.8245 21.3744C81.56 20.8197 81.4277 20.1712 81.4277 19.4288C81.4277 18.6779 81.56 18.0293 81.8245 17.4832C82.0976 16.9285 82.4645 16.5061 82.9253 16.216C83.3947 15.9173 83.9237 15.768 84.5125 15.768ZM85.2165 17.688C84.7472 17.688 84.3675 17.8416 84.0773 18.1488C83.7957 18.456 83.6549 18.8827 83.6549 19.4288C83.6549 19.9749 83.7957 20.4016 84.0773 20.7088C84.3675 21.016 84.7472 21.1696 85.2165 21.1696C85.6773 21.1696 86.0528 21.0117 86.3429 20.696C86.6416 20.3803 86.7909 19.9579 86.7909 19.4288C86.7909 18.8912 86.6416 18.4688 86.3429 18.1616C86.0528 17.8459 85.6773 17.688 85.2165 17.688ZM97.5779 15.8576V23H95.3763V21.7072C95.1715 22.1253 94.8643 22.4581 94.4547 22.7056C94.0537 22.9531 93.5843 23.0768 93.0467 23.0768C92.2275 23.0768 91.5747 22.8037 91.0883 22.2576C90.6105 21.7115 90.3715 20.9605 90.3715 20.0048V15.8576H92.5475V19.736C92.5475 20.2224 92.6713 20.6021 92.9187 20.8752C93.1747 21.1397 93.5161 21.272 93.9427 21.272C94.3865 21.272 94.7363 21.1312 94.9923 20.8496C95.2483 20.568 95.3763 20.1669 95.3763 19.6464V15.8576H97.5779ZM101.685 15.768C102.589 15.768 103.31 15.9941 103.848 16.4464C104.394 16.8987 104.736 17.496 104.872 18.2384H102.824C102.764 17.9483 102.628 17.7221 102.414 17.56C102.21 17.3893 101.949 17.304 101.634 17.304C101.386 17.304 101.198 17.3595 101.07 17.4704C100.942 17.5728 100.878 17.7221 100.878 17.9184C100.878 18.1403 100.994 18.3067 101.224 18.4176C101.463 18.5285 101.834 18.6395 102.338 18.7504C102.884 18.8784 103.332 19.0107 103.682 19.1472C104.032 19.2752 104.334 19.4885 104.59 19.7872C104.846 20.0859 104.974 20.4869 104.974 20.9904C104.974 21.4 104.864 21.7627 104.642 22.0784C104.42 22.3941 104.1 22.6416 103.682 22.8208C103.264 23 102.769 23.0896 102.197 23.0896C101.233 23.0896 100.46 22.8763 99.88 22.4496C99.2998 22.0229 98.9456 21.4128 98.8176 20.6192H100.93C100.964 20.9264 101.092 21.1611 101.314 21.3232C101.544 21.4853 101.838 21.5664 102.197 21.5664C102.444 21.5664 102.632 21.5109 102.76 21.4C102.888 21.2805 102.952 21.1269 102.952 20.9392C102.952 20.6917 102.833 20.5168 102.594 20.4144C102.363 20.3035 101.984 20.1883 101.454 20.0688C100.925 19.9579 100.49 19.8384 100.149 19.7104C99.8075 19.5824 99.5131 19.3776 99.2656 19.096C99.0182 18.8059 98.8944 18.4133 98.8944 17.9184C98.8944 17.2784 99.1376 16.7621 99.624 16.3696C100.11 15.9685 100.797 15.768 101.685 15.768ZM112.97 19.2368C112.97 19.416 112.949 19.6123 112.906 19.8256H107.953C107.978 20.3632 108.115 20.7515 108.362 20.9904C108.61 21.2208 108.926 21.336 109.31 21.336C109.634 21.336 109.903 21.2549 110.116 21.0928C110.329 20.9307 110.47 20.7216 110.538 20.4656H112.855C112.761 20.9691 112.557 21.4213 112.241 21.8224C111.925 22.2149 111.524 22.5264 111.038 22.7568C110.551 22.9787 110.009 23.0896 109.412 23.0896C108.712 23.0896 108.089 22.9445 107.543 22.6544C107.006 22.3557 106.583 21.9291 106.276 21.3744C105.969 20.8197 105.815 20.1712 105.815 19.4288C105.815 18.6779 105.965 18.0293 106.263 17.4832C106.57 16.9285 106.997 16.5061 107.543 16.216C108.089 15.9173 108.712 15.768 109.412 15.768C110.12 15.768 110.743 15.9131 111.281 16.2032C111.818 16.4933 112.232 16.9029 112.522 17.432C112.821 17.9525 112.97 18.5541 112.97 19.2368ZM110.756 18.904C110.765 18.4347 110.637 18.0848 110.372 17.8544C110.116 17.6155 109.796 17.496 109.412 17.496C109.011 17.496 108.678 17.6155 108.414 17.8544C108.149 18.0933 108 18.4432 107.966 18.904H110.756ZM124.712 23H122.524L118.863 17.4448V23H116.674V13.9504H118.863L122.524 19.5568V13.9504H124.712V23ZM129.565 15.768C130.273 15.768 130.904 15.9173 131.459 16.216C132.022 16.5061 132.462 16.9285 132.778 17.4832C133.102 18.0379 133.264 18.6864 133.264 19.4288C133.264 20.1712 133.102 20.8197 132.778 21.3744C132.462 21.9291 132.022 22.3557 131.459 22.6544C130.904 22.9445 130.273 23.0896 129.565 23.0896C128.856 23.0896 128.221 22.9445 127.658 22.6544C127.094 22.3557 126.651 21.9291 126.326 21.3744C126.011 20.8197 125.853 20.1712 125.853 19.4288C125.853 18.6864 126.011 18.0379 126.326 17.4832C126.651 16.9285 127.094 16.5061 127.658 16.216C128.221 15.9173 128.856 15.768 129.565 15.768ZM129.565 17.6624C129.147 17.6624 128.792 17.816 128.502 18.1232C128.221 18.4219 128.08 18.8571 128.08 19.4288C128.08 20.0005 128.221 20.4357 128.502 20.7344C128.792 21.0331 129.147 21.1824 129.565 21.1824C129.983 21.1824 130.333 21.0331 130.614 20.7344C130.896 20.4357 131.037 20.0005 131.037 19.4288C131.037 18.8571 130.896 18.4219 130.614 18.1232C130.333 17.816 129.983 17.6624 129.565 17.6624ZM144.844 15.8576L143.013 23H140.569L139.276 18.2128L137.97 23H135.525L133.695 15.8576H135.884L136.831 21.0032L138.162 15.8576H140.492L141.861 21.016L142.809 15.8576H144.844Z" fill="#F2F2F2"/>
<path d="M56.5 12.75H55.25C54.9185 12.75 54.6005 12.8817 54.3661 13.1161C54.1317 13.3505 54 13.6685 54 14V24C54 24.3315 54.1317 24.6495 54.3661 24.8839C54.6005 25.1183 54.9185 25.25 55.25 25.25H56.5C56.8315 25.25 57.1495 25.1183 57.3839 24.8839C57.6183 24.6495 57.75 24.3315 57.75 24V14C57.75 13.6685 57.6183 13.3505 57.3839 13.1161C57.1495 12.8817 56.8315 12.75 56.5 12.75Z" fill="white"/>
<path d="M62.75 12.75H61.5C61.1685 12.75 60.8505 12.8817 60.6161 13.1161C60.3817 13.3505 60.25 13.6685 60.25 14V24C60.25 24.3315 60.3817 24.6495 60.6161 24.8839C60.8505 25.1183 61.1685 25.25 61.5 25.25H62.75C63.0815 25.25 63.3995 25.1183 63.6339 24.8839C63.8683 24.6495 64 24.3315 64 24V14C64 13.6685 63.8683 13.3505 63.6339 13.1161C63.3995 12.8817 63.0815 12.75 62.75 12.75Z" fill="white"/>
</svg>
