<svg width="150" height="37" viewBox="0 0 150 37" fill="none" xmlns="http://www.w3.org/2000/svg">
<rect width="150" height="37" rx="4" fill="#C8AC48"/>
<mask id="mask0" mask-type="alpha" maskUnits="userSpaceOnUse" x="0" y="0" width="150" height="37">
<rect width="150" height="37" rx="4" fill="#A68C2F"/>
</mask>
<g mask="url(#mask0)">
<path d="M107.31 0L43.1323 37H150V0H107.31Z" fill="#B89D3B"/>
</g>
<path d="M56.6416 16.9072C56.6416 17.4277 56.5221 17.9056 56.2832 18.3408C56.0443 18.7675 55.6773 19.1131 55.1824 19.3776C54.6875 19.6421 54.0731 19.7744 53.3392 19.7744H51.9824V23H49.7936V14.0144H53.3392C54.056 14.0144 54.6619 14.1381 55.1568 14.3856C55.6517 14.6331 56.0229 14.9744 56.2704 15.4096C56.5179 15.8448 56.6416 16.344 56.6416 16.9072ZM53.1728 18.0336C53.5909 18.0336 53.9024 17.9355 54.1072 17.7392C54.312 17.5429 54.4144 17.2656 54.4144 16.9072C54.4144 16.5488 54.312 16.2715 54.1072 16.0752C53.9024 15.8789 53.5909 15.7808 53.1728 15.7808H51.9824V18.0336H53.1728ZM57.3459 19.416C57.3459 18.6821 57.4824 18.0379 57.7555 17.4832C58.0371 16.9285 58.4168 16.5019 58.8947 16.2032C59.3726 15.9045 59.9059 15.7552 60.4947 15.7552C60.9982 15.7552 61.4376 15.8576 61.8131 16.0624C62.1971 16.2672 62.4915 16.536 62.6963 16.8688V15.8576H64.8851V23H62.6963V21.9888C62.483 22.3216 62.1843 22.5904 61.8003 22.7952C61.4248 23 60.9854 23.1024 60.4819 23.1024C59.9016 23.1024 59.3726 22.9531 58.8947 22.6544C58.4168 22.3472 58.0371 21.9163 57.7555 21.3616C57.4824 20.7984 57.3459 20.1499 57.3459 19.416ZM62.6963 19.4288C62.6963 18.8827 62.5427 18.4517 62.2355 18.136C61.9368 17.8203 61.5699 17.6624 61.1347 17.6624C60.6995 17.6624 60.3283 17.8203 60.0211 18.136C59.7224 18.4432 59.5731 18.8699 59.5731 19.416C59.5731 19.9621 59.7224 20.3973 60.0211 20.7216C60.3283 21.0373 60.6995 21.1952 61.1347 21.1952C61.5699 21.1952 61.9368 21.0373 62.2355 20.7216C62.5427 20.4059 62.6963 19.9749 62.6963 19.4288ZM73.7646 15.8576L69.2846 26.392H66.9294L68.5678 22.7568L65.6622 15.8576H68.107L69.7582 20.3248L71.3966 15.8576H73.7646ZM85.307 23H83.1182L79.4574 17.4576V23H77.2686V14.0144H79.4574L83.1182 19.5824V14.0144H85.307V23ZM90.1448 23.1024C89.4451 23.1024 88.8136 22.9531 88.2504 22.6544C87.6957 22.3557 87.2563 21.9291 86.932 21.3744C86.6163 20.8197 86.4584 20.1712 86.4584 19.4288C86.4584 18.6949 86.6205 18.0507 86.9448 17.496C87.2691 16.9328 87.7128 16.5019 88.276 16.2032C88.8392 15.9045 89.4707 15.7552 90.1704 15.7552C90.8701 15.7552 91.5016 15.9045 92.0648 16.2032C92.628 16.5019 93.0717 16.9328 93.396 17.496C93.7203 18.0507 93.8824 18.6949 93.8824 19.4288C93.8824 20.1627 93.716 20.8112 93.3832 21.3744C93.0589 21.9291 92.6109 22.3557 92.0392 22.6544C91.476 22.9531 90.8445 23.1024 90.1448 23.1024ZM90.1448 21.208C90.5629 21.208 90.9171 21.0544 91.2072 20.7472C91.5059 20.44 91.6552 20.0005 91.6552 19.4288C91.6552 18.8571 91.5101 18.4176 91.22 18.1104C90.9384 17.8032 90.5885 17.6496 90.1704 17.6496C89.7437 17.6496 89.3896 17.8032 89.108 18.1104C88.8264 18.4091 88.6856 18.8485 88.6856 19.4288C88.6856 20.0005 88.8221 20.44 89.0952 20.7472C89.3768 21.0544 89.7267 21.208 90.1448 21.208ZM105.296 15.8576L103.364 23H100.944L99.818 18.3664L98.6532 23H96.2468L94.3012 15.8576H96.49L97.5012 20.9648L98.7044 15.8576H101.021L102.237 20.9392L103.236 15.8576H105.296Z" fill="#F2F2F2"/>
</svg>
