<svg width="150" height="37" viewBox="0 0 150 37" fill="none" xmlns="http://www.w3.org/2000/svg">
<rect width="150" height="37" rx="4" fill="#313B4E"/>
<path d="M106.383 0.534657L56.0812 29.5347C52.5347 31.5793 53.9854 37 58.0791 37H146C148.209 37 150 35.2091 150 33V4C150 1.79086 148.209 0 146 0H108.381C107.679 0 106.99 0.184382 106.383 0.534657Z" fill="#46546B"/>
<path d="M52.6416 17.9072C52.6416 18.4277 52.5221 18.9056 52.2832 19.3408C52.0443 19.7675 51.6773 20.1131 51.1824 20.3776C50.6875 20.6421 50.0731 20.7744 49.3392 20.7744H47.9824V24H45.7936V15.0144H49.3392C50.056 15.0144 50.6619 15.1381 51.1568 15.3856C51.6517 15.6331 52.0229 15.9744 52.2704 16.4096C52.5179 16.8448 52.6416 17.344 52.6416 17.9072ZM49.1728 19.0336C49.5909 19.0336 49.9024 18.9355 50.1072 18.7392C50.312 18.5429 50.4144 18.2656 50.4144 17.9072C50.4144 17.5488 50.312 17.2715 50.1072 17.0752C49.9024 16.8789 49.5909 16.7808 49.1728 16.7808H47.9824V19.0336H49.1728ZM53.3459 20.416C53.3459 19.6821 53.4824 19.0379 53.7555 18.4832C54.0371 17.9285 54.4168 17.5019 54.8947 17.2032C55.3726 16.9045 55.9059 16.7552 56.4947 16.7552C56.9982 16.7552 57.4376 16.8576 57.8131 17.0624C58.1971 17.2672 58.4915 17.536 58.6963 17.8688V16.8576H60.8851V24H58.6963V22.9888C58.483 23.3216 58.1843 23.5904 57.8003 23.7952C57.4248 24 56.9854 24.1024 56.4819 24.1024C55.9016 24.1024 55.3726 23.9531 54.8947 23.6544C54.4168 23.3472 54.0371 22.9163 53.7555 22.3616C53.4824 21.7984 53.3459 21.1499 53.3459 20.416ZM58.6963 20.4288C58.6963 19.8827 58.5427 19.4517 58.2355 19.136C57.9368 18.8203 57.5699 18.6624 57.1347 18.6624C56.6995 18.6624 56.3283 18.8203 56.0211 19.136C55.7224 19.4432 55.5731 19.8699 55.5731 20.416C55.5731 20.9621 55.7224 21.3973 56.0211 21.7216C56.3283 22.0373 56.6995 22.1952 57.1347 22.1952C57.5699 22.1952 57.9368 22.0373 58.2355 21.7216C58.5427 21.4059 58.6963 20.9749 58.6963 20.4288ZM69.7646 16.8576L65.2846 27.392H62.9294L64.5678 23.7568L61.6622 16.8576H64.107L65.7582 21.3248L67.3966 16.8576H69.7646ZM81.307 24H79.1182L75.4574 18.4576V24H73.2686V15.0144H75.4574L79.1182 20.5824V15.0144H81.307V24ZM86.1448 24.1024C85.4451 24.1024 84.8136 23.9531 84.2504 23.6544C83.6957 23.3557 83.2563 22.9291 82.932 22.3744C82.6163 21.8197 82.4584 21.1712 82.4584 20.4288C82.4584 19.6949 82.6205 19.0507 82.9448 18.496C83.2691 17.9328 83.7128 17.5019 84.276 17.2032C84.8392 16.9045 85.4707 16.7552 86.1704 16.7552C86.8701 16.7552 87.5016 16.9045 88.0648 17.2032C88.628 17.5019 89.0717 17.9328 89.396 18.496C89.7203 19.0507 89.8824 19.6949 89.8824 20.4288C89.8824 21.1627 89.716 21.8112 89.3832 22.3744C89.0589 22.9291 88.6109 23.3557 88.0392 23.6544C87.476 23.9531 86.8445 24.1024 86.1448 24.1024ZM86.1448 22.208C86.5629 22.208 86.9171 22.0544 87.2072 21.7472C87.5059 21.44 87.6552 21.0005 87.6552 20.4288C87.6552 19.8571 87.5101 19.4176 87.22 19.1104C86.9384 18.8032 86.5885 18.6496 86.1704 18.6496C85.7437 18.6496 85.3896 18.8032 85.108 19.1104C84.8264 19.4091 84.6856 19.8485 84.6856 20.4288C84.6856 21.0005 84.8221 21.44 85.0952 21.7472C85.3768 22.0544 85.7267 22.208 86.1448 22.208ZM101.296 16.8576L99.3636 24H96.9444L95.818 19.3664L94.6532 24H92.2468L90.3012 16.8576H92.49L93.5012 21.9648L94.7044 16.8576H97.0212L98.2372 21.9392L99.2356 16.8576H101.296Z" fill="#F2F2F2"/>
</svg>
