<svg width="98" height="98" viewBox="0 0 98 98" fill="none" xmlns="http://www.w3.org/2000/svg">
<circle cx="49" cy="49" r="42" fill="#46546B"/>
<circle cx="49" cy="49" r="47.5" stroke="#293852" stroke-width="3"/>
<path d="M56.7 32H41.3C39.4781 32 38 33.3857 38 35.0938V61.9062C38 63.6143 39.4781 65 41.3 65H56.7C58.5219 65 60 63.6143 60 61.9062V35.0938C60 33.3857 58.5219 32 56.7 32ZM49 62.9375C47.7831 62.9375 46.8 62.0158 46.8 60.875C46.8 59.7342 47.7831 58.8125 49 58.8125C50.2169 58.8125 51.2 59.7342 51.2 60.875C51.2 62.0158 50.2169 62.9375 49 62.9375ZM56.7 55.9766C56.7 56.402 56.3288 56.75 55.875 56.75H42.125C41.6713 56.75 41.3 56.402 41.3 55.9766V35.8672C41.3 35.4418 41.6713 35.0938 42.125 35.0938H55.875C56.3288 35.0938 56.7 35.4418 56.7 35.8672V55.9766Z" fill="#F2F2F2"/>
</svg>
