<svg width="195" height="37" viewBox="0 0 195 37" fill="none" xmlns="http://www.w3.org/2000/svg">
<rect width="194.191" height="37" rx="4" fill="#C8AC48"/>
<mask id="mask0" mask-type="alpha" maskUnits="userSpaceOnUse" x="0" y="0" width="195" height="37">
<rect width="194.191" height="37" rx="4" fill="#A68C2F"/>
</mask>
<g mask="url(#mask0)">
<path d="M138.925 0L55.8398 37H194.191V0H138.925Z" fill="#B89D3B"/>
</g>
<path d="M57.6416 16.9072C57.6416 17.4277 57.5221 17.9056 57.2832 18.3408C57.0443 18.7675 56.6773 19.1131 56.1824 19.3776C55.6875 19.6421 55.0731 19.7744 54.3392 19.7744H52.9824V23H50.7936V14.0144H54.3392C55.056 14.0144 55.6619 14.1381 56.1568 14.3856C56.6517 14.6331 57.0229 14.9744 57.2704 15.4096C57.5179 15.8448 57.6416 16.344 57.6416 16.9072ZM54.1728 18.0336C54.5909 18.0336 54.9024 17.9355 55.1072 17.7392C55.312 17.5429 55.4144 17.2656 55.4144 16.9072C55.4144 16.5488 55.312 16.2715 55.1072 16.0752C54.9024 15.8789 54.5909 15.7808 54.1728 15.7808H52.9824V18.0336H54.1728ZM60.9699 17.048C61.2259 16.6555 61.5459 16.3483 61.9299 16.1264C62.3139 15.896 62.7406 15.7808 63.2099 15.7808V18.0976H62.6083C62.0622 18.0976 61.6526 18.2171 61.3795 18.456C61.1064 18.6864 60.9699 19.096 60.9699 19.6848V23H58.7811V15.8576H60.9699V17.048ZM70.9889 19.3136C70.9889 19.5184 70.9761 19.7317 70.9505 19.9536H65.9969C66.031 20.3973 66.1718 20.7387 66.4193 20.9776C66.6753 21.208 66.9868 21.3232 67.3537 21.3232C67.8998 21.3232 68.2796 21.0928 68.4929 20.632H70.8225C70.703 21.1013 70.4854 21.5237 70.1697 21.8992C69.8625 22.2747 69.4742 22.5691 69.0049 22.7824C68.5356 22.9957 68.0108 23.1024 67.4305 23.1024C66.7308 23.1024 66.1078 22.9531 65.5617 22.6544C65.0156 22.3557 64.5889 21.9291 64.2817 21.3744C63.9745 20.8197 63.8209 20.1712 63.8209 19.4288C63.8209 18.6864 63.9702 18.0379 64.2689 17.4832C64.5761 16.9285 65.0028 16.5019 65.5489 16.2032C66.095 15.9045 66.7222 15.7552 67.4305 15.7552C68.1217 15.7552 68.7361 15.9003 69.2737 16.1904C69.8113 16.4805 70.2294 16.8944 70.5281 17.432C70.8353 17.9696 70.9889 18.5968 70.9889 19.3136ZM68.7489 18.7376C68.7489 18.3621 68.6209 18.0635 68.3649 17.8416C68.1089 17.6197 67.7889 17.5088 67.4049 17.5088C67.038 17.5088 66.7265 17.6155 66.4705 17.8288C66.223 18.0421 66.0694 18.3451 66.0097 18.7376H68.7489ZM75.3564 20.952L76.9052 15.8576H79.2348L76.7004 23H73.9996L71.4652 15.8576H73.8076L75.3564 20.952ZM81.2569 15.1152C80.8729 15.1152 80.5572 15.0043 80.3097 14.7824C80.0708 14.552 79.9513 14.2704 79.9513 13.9376C79.9513 13.5963 80.0708 13.3147 80.3097 13.0928C80.5572 12.8624 80.8729 12.7472 81.2569 12.7472C81.6324 12.7472 81.9396 12.8624 82.1785 13.0928C82.426 13.3147 82.5497 13.5963 82.5497 13.9376C82.5497 14.2704 82.426 14.552 82.1785 14.7824C81.9396 15.0043 81.6324 15.1152 81.2569 15.1152ZM82.3449 15.8576V23H80.1561V15.8576H82.3449ZM87.1823 23.1024C86.4826 23.1024 85.8511 22.9531 85.2879 22.6544C84.7332 22.3557 84.2938 21.9291 83.9695 21.3744C83.6538 20.8197 83.4959 20.1712 83.4959 19.4288C83.4959 18.6949 83.658 18.0507 83.9823 17.496C84.3066 16.9328 84.7503 16.5019 85.3135 16.2032C85.8767 15.9045 86.5082 15.7552 87.2079 15.7552C87.9076 15.7552 88.5391 15.9045 89.1023 16.2032C89.6655 16.5019 90.1092 16.9328 90.4335 17.496C90.7578 18.0507 90.9199 18.6949 90.9199 19.4288C90.9199 20.1627 90.7535 20.8112 90.4207 21.3744C90.0964 21.9291 89.6484 22.3557 89.0767 22.6544C88.5135 22.9531 87.882 23.1024 87.1823 23.1024ZM87.1823 21.208C87.6004 21.208 87.9546 21.0544 88.2447 20.7472C88.5434 20.44 88.6927 20.0005 88.6927 19.4288C88.6927 18.8571 88.5476 18.4176 88.2575 18.1104C87.9759 17.8032 87.626 17.6496 87.2079 17.6496C86.7812 17.6496 86.4271 17.8032 86.1455 18.1104C85.8639 18.4091 85.7231 18.8485 85.7231 19.4288C85.7231 20.0005 85.8596 20.44 86.1327 20.7472C86.4143 21.0544 86.7642 21.208 87.1823 21.208ZM99.1339 15.8576V23H96.9451V22.0272C96.7232 22.3429 96.4203 22.5989 96.0363 22.7952C95.6608 22.9829 95.2427 23.0768 94.7819 23.0768C94.2358 23.0768 93.7536 22.9573 93.3355 22.7184C92.9174 22.4709 92.5931 22.1168 92.3627 21.656C92.1323 21.1952 92.0171 20.6533 92.0171 20.0304V15.8576H94.1931V19.736C94.1931 20.2139 94.3168 20.5851 94.5643 20.8496C94.8118 21.1141 95.1446 21.2464 95.5627 21.2464C95.9894 21.2464 96.3264 21.1141 96.5739 20.8496C96.8214 20.5851 96.9451 20.2139 96.9451 19.736V15.8576H99.1339ZM103.612 23.1024C102.989 23.1024 102.434 22.9957 101.948 22.7824C101.461 22.5691 101.077 22.2789 100.796 21.912C100.514 21.5365 100.356 21.1184 100.322 20.6576H102.485C102.511 20.9051 102.626 21.1056 102.831 21.2592C103.036 21.4128 103.287 21.4896 103.586 21.4896C103.859 21.4896 104.068 21.4384 104.213 21.336C104.367 21.2251 104.444 21.0843 104.444 20.9136C104.444 20.7088 104.337 20.5595 104.124 20.4656C103.91 20.3632 103.565 20.2523 103.087 20.1328C102.575 20.0133 102.148 19.8896 101.807 19.7616C101.466 19.6251 101.171 19.416 100.924 19.1344C100.676 18.8443 100.553 18.456 100.553 17.9696C100.553 17.56 100.663 17.1888 100.885 16.856C101.116 16.5147 101.449 16.2459 101.884 16.0496C102.327 15.8533 102.852 15.7552 103.458 15.7552C104.354 15.7552 105.058 15.9771 105.57 16.4208C106.091 16.8645 106.389 17.4533 106.466 18.1872H104.444C104.41 17.9397 104.299 17.7435 104.111 17.5984C103.932 17.4533 103.693 17.3808 103.394 17.3808C103.138 17.3808 102.942 17.432 102.805 17.5344C102.669 17.6283 102.601 17.7605 102.601 17.9312C102.601 18.136 102.707 18.2896 102.921 18.392C103.142 18.4944 103.484 18.5968 103.945 18.6992C104.474 18.8357 104.905 18.9723 105.237 19.1088C105.57 19.2368 105.86 19.4501 106.108 19.7488C106.364 20.0389 106.496 20.4315 106.505 20.9264C106.505 21.3445 106.385 21.72 106.146 22.0528C105.916 22.3771 105.579 22.6331 105.135 22.8208C104.7 23.0085 104.192 23.1024 103.612 23.1024ZM117.404 16.9072C117.404 17.4277 117.285 17.9056 117.046 18.3408C116.807 18.7675 116.44 19.1131 115.945 19.3776C115.45 19.6421 114.836 19.7744 114.102 19.7744H112.745V23H110.556V14.0144H114.102C114.819 14.0144 115.424 14.1381 115.919 14.3856C116.414 14.6331 116.785 14.9744 117.033 15.4096C117.28 15.8448 117.404 16.344 117.404 16.9072ZM113.935 18.0336C114.353 18.0336 114.665 17.9355 114.87 17.7392C115.075 17.5429 115.177 17.2656 115.177 16.9072C115.177 16.5488 115.075 16.2715 114.87 16.0752C114.665 15.8789 114.353 15.7808 113.935 15.7808H112.745V18.0336H113.935ZM118.108 19.416C118.108 18.6821 118.245 18.0379 118.518 17.4832C118.8 16.9285 119.179 16.5019 119.657 16.2032C120.135 15.9045 120.668 15.7552 121.257 15.7552C121.761 15.7552 122.2 15.8576 122.576 16.0624C122.96 16.2672 123.254 16.536 123.459 16.8688V15.8576H125.648V23H123.459V21.9888C123.245 22.3216 122.947 22.5904 122.563 22.7952C122.187 23 121.748 23.1024 121.244 23.1024C120.664 23.1024 120.135 22.9531 119.657 22.6544C119.179 22.3472 118.8 21.9163 118.518 21.3616C118.245 20.7984 118.108 20.1499 118.108 19.416ZM123.459 19.4288C123.459 18.8827 123.305 18.4517 122.998 18.136C122.699 17.8203 122.332 17.6624 121.897 17.6624C121.462 17.6624 121.091 17.8203 120.784 18.136C120.485 18.4432 120.336 18.8699 120.336 19.416C120.336 19.9621 120.485 20.3973 120.784 20.7216C121.091 21.0373 121.462 21.1952 121.897 21.1952C122.332 21.1952 122.699 21.0373 122.998 20.7216C123.305 20.4059 123.459 19.9749 123.459 19.4288ZM129.945 15.7552C130.448 15.7552 130.888 15.8576 131.263 16.0624C131.647 16.2672 131.942 16.536 132.146 16.8688V15.8576H134.335V22.9872C134.335 23.6443 134.203 24.2373 133.938 24.7664C133.682 25.304 133.286 25.7307 132.748 26.0464C132.219 26.3621 131.558 26.52 130.764 26.52C129.706 26.52 128.848 26.2683 128.191 25.7648C127.534 25.2699 127.159 24.5957 127.065 23.7424H129.228C129.296 24.0155 129.458 24.2288 129.714 24.3824C129.97 24.5445 130.286 24.6256 130.662 24.6256C131.114 24.6256 131.472 24.4933 131.737 24.2288C132.01 23.9728 132.146 23.5589 132.146 22.9872V21.976C131.933 22.3088 131.639 22.5819 131.263 22.7952C130.888 23 130.448 23.1024 129.945 23.1024C129.356 23.1024 128.823 22.9531 128.345 22.6544C127.867 22.3472 127.487 21.9163 127.206 21.3616C126.932 20.7984 126.796 20.1499 126.796 19.416C126.796 18.6821 126.932 18.0379 127.206 17.4832C127.487 16.9285 127.867 16.5019 128.345 16.2032C128.823 15.9045 129.356 15.7552 129.945 15.7552ZM132.146 19.4288C132.146 18.8827 131.993 18.4517 131.686 18.136C131.387 17.8203 131.02 17.6624 130.585 17.6624C130.15 17.6624 129.778 17.8203 129.471 18.136C129.172 18.4432 129.023 18.8699 129.023 19.416C129.023 19.9621 129.172 20.3973 129.471 20.7216C129.778 21.0373 130.15 21.1952 130.585 21.1952C131.02 21.1952 131.387 21.0373 131.686 20.7216C131.993 20.4059 132.146 19.9749 132.146 19.4288ZM142.651 19.3136C142.651 19.5184 142.639 19.7317 142.613 19.9536H137.659C137.694 20.3973 137.834 20.7387 138.082 20.9776C138.338 21.208 138.649 21.3232 139.016 21.3232C139.562 21.3232 139.942 21.0928 140.155 20.632H142.485C142.366 21.1013 142.148 21.5237 141.832 21.8992C141.525 22.2747 141.137 22.5691 140.667 22.7824C140.198 22.9957 139.673 23.1024 139.093 23.1024C138.393 23.1024 137.77 22.9531 137.224 22.6544C136.678 22.3557 136.251 21.9291 135.944 21.3744C135.637 20.8197 135.483 20.1712 135.483 19.4288C135.483 18.6864 135.633 18.0379 135.931 17.4832C136.239 16.9285 136.665 16.5019 137.211 16.2032C137.758 15.9045 138.385 15.7552 139.093 15.7552C139.784 15.7552 140.399 15.9003 140.936 16.1904C141.474 16.4805 141.892 16.8944 142.191 17.432C142.498 17.9696 142.651 18.5968 142.651 19.3136ZM140.411 18.7376C140.411 18.3621 140.283 18.0635 140.027 17.8416C139.771 17.6197 139.451 17.5088 139.067 17.5088C138.7 17.5088 138.389 17.6155 138.133 17.8288C137.886 18.0421 137.732 18.3451 137.672 18.7376H140.411Z" fill="#F2F2F2"/>
</svg>
