<svg width="292" height="45" viewBox="0 0 292 45" fill="none" xmlns="http://www.w3.org/2000/svg">
<g filter="url(#filter0_d)">
<rect x="4" width="284" height="37" rx="4" fill="#C8AC48"/>
<mask id="mask0" mask-type="alpha" maskUnits="userSpaceOnUse" x="4" y="0" width="284" height="37">
<rect x="4" width="284" height="37" rx="4" fill="#A68C2F"/>
</mask>
<g mask="url(#mask0)">
<path d="M207.174 0L85.6641 37H288V0H207.174Z" fill="#B89D3B"/>
</g>
<path d="M72.576 12.9504L69.44 18.992V22H67.2384V18.992L64.1024 12.9504H66.6112L68.352 16.6368L70.0928 12.9504H72.576ZM80.2017 18.2368C80.2017 18.416 80.1804 18.6123 80.1377 18.8256H75.1841C75.2097 19.3632 75.3462 19.7515 75.5937 19.9904C75.8412 20.2208 76.1569 20.336 76.5409 20.336C76.8652 20.336 77.134 20.2549 77.3473 20.0928C77.5606 19.9307 77.7014 19.7216 77.7697 19.4656H80.0865C79.9926 19.9691 79.7878 20.4213 79.4721 20.8224C79.1564 21.2149 78.7553 21.5264 78.2689 21.7568C77.7825 21.9787 77.2406 22.0896 76.6433 22.0896C75.9436 22.0896 75.3206 21.9445 74.7745 21.6544C74.2369 21.3557 73.8145 20.9291 73.5073 20.3744C73.2001 19.8197 73.0465 19.1712 73.0465 18.4288C73.0465 17.6779 73.1958 17.0293 73.4945 16.4832C73.8017 15.9285 74.2284 15.5061 74.7745 15.216C75.3206 14.9173 75.9436 14.768 76.6433 14.768C77.3516 14.768 77.9745 14.9131 78.5121 15.2032C79.0497 15.4933 79.4636 15.9029 79.7537 16.432C80.0524 16.9525 80.2017 17.5541 80.2017 18.2368ZM77.9873 17.904C77.9958 17.4347 77.8678 17.0848 77.6033 16.8544C77.3473 16.6155 77.0273 16.496 76.6433 16.496C76.2422 16.496 75.9094 16.6155 75.6449 16.8544C75.3804 17.0933 75.231 17.4432 75.1969 17.904H77.9873ZM83.9411 14.768C84.8456 14.768 85.5667 14.9941 86.1043 15.4464C86.6504 15.8987 86.9918 16.496 87.1283 17.2384H85.0803C85.0206 16.9483 84.884 16.7221 84.6707 16.56C84.4659 16.3893 84.2056 16.304 83.8899 16.304C83.6424 16.304 83.4547 16.3595 83.3267 16.4704C83.1987 16.5728 83.1347 16.7221 83.1347 16.9184C83.1347 17.1403 83.2499 17.3067 83.4803 17.4176C83.7192 17.5285 84.0904 17.6395 84.5939 17.7504C85.14 17.8784 85.588 18.0107 85.9379 18.1472C86.2878 18.2752 86.5907 18.4885 86.8467 18.7872C87.1027 19.0859 87.2307 19.4869 87.2307 19.9904C87.2307 20.4 87.1198 20.7627 86.8979 21.0784C86.676 21.3941 86.356 21.6416 85.9379 21.8208C85.5198 22 85.0248 22.0896 84.4531 22.0896C83.4888 22.0896 82.7166 21.8763 82.1363 21.4496C81.556 21.0229 81.2019 20.4128 81.0739 19.6192H83.1859C83.22 19.9264 83.348 20.1611 83.5699 20.3232C83.8003 20.4853 84.0947 20.5664 84.4531 20.5664C84.7006 20.5664 84.8883 20.5109 85.0163 20.4C85.1443 20.2805 85.2083 20.1269 85.2083 19.9392C85.2083 19.6917 85.0888 19.5168 84.8499 19.4144C84.6195 19.3035 84.2398 19.1883 83.7107 19.0688C83.1816 18.9579 82.7464 18.8384 82.4051 18.7104C82.0638 18.5824 81.7694 18.3776 81.5219 18.096C81.2744 17.8059 81.1507 17.4133 81.1507 16.9184C81.1507 16.2784 81.3939 15.7621 81.8803 15.3696C82.3667 14.9685 83.0536 14.768 83.9411 14.768ZM89.8507 20.6432C90.1067 21.1381 90.2347 21.6757 90.2347 22.256C90.2347 22.8448 90.0768 23.3312 89.7611 23.7152C89.4539 24.0992 88.9718 24.2912 88.3147 24.2912V23.4848C88.5451 23.4848 88.7115 23.4336 88.8139 23.3312C88.9248 23.2288 88.9803 23.0325 88.9803 22.7424V22.6144H88.0459V20.6432H89.8507ZM96.2315 18.8256V22H94.0427V12.9504H97.5883C98.6635 12.9504 99.4827 13.2192 100.046 13.7568C100.609 14.2859 100.891 15.0027 100.891 15.9072C100.891 16.4704 100.763 16.9739 100.507 17.4176C100.259 17.8528 99.888 18.1984 99.3931 18.4544C98.8982 18.7019 98.2966 18.8256 97.5883 18.8256H96.2315ZM97.3451 17.072C98.224 17.072 98.6635 16.6837 98.6635 15.9072C98.6635 15.1136 98.224 14.7168 97.3451 14.7168H96.2315V17.072H97.3451ZM104.157 16.2016C104.43 15.7664 104.779 15.4208 105.206 15.1648C105.641 14.9088 106.111 14.7808 106.614 14.7808V17.1232H105.987C105.407 17.1232 104.954 17.2469 104.63 17.4944C104.314 17.7419 104.157 18.16 104.157 18.7488V22H101.968V14.8576H104.157V16.2016ZM110.871 14.768C111.579 14.768 112.211 14.9173 112.765 15.216C113.329 15.5061 113.768 15.9285 114.084 16.4832C114.408 17.0379 114.57 17.6864 114.57 18.4288C114.57 19.1712 114.408 19.8197 114.084 20.3744C113.768 20.9291 113.329 21.3557 112.765 21.6544C112.211 21.9445 111.579 22.0896 110.871 22.0896C110.163 22.0896 109.527 21.9445 108.964 21.6544C108.401 21.3557 107.957 20.9291 107.633 20.3744C107.317 19.8197 107.159 19.1712 107.159 18.4288C107.159 17.6864 107.317 17.0379 107.633 16.4832C107.957 15.9285 108.401 15.5061 108.964 15.216C109.527 14.9173 110.163 14.768 110.871 14.768ZM110.871 16.6624C110.453 16.6624 110.099 16.816 109.809 17.1232C109.527 17.4219 109.386 17.8571 109.386 18.4288C109.386 19.0005 109.527 19.4357 109.809 19.7344C110.099 20.0331 110.453 20.1824 110.871 20.1824C111.289 20.1824 111.639 20.0331 111.921 19.7344C112.202 19.4357 112.343 19.0005 112.343 18.4288C112.343 17.8571 112.202 17.4219 111.921 17.1232C111.639 16.816 111.289 16.6624 110.871 16.6624ZM118.931 14.768C119.852 14.768 120.625 15.024 121.248 15.536C121.871 16.0395 122.263 16.7349 122.425 17.6224H120.108C120.04 17.3152 119.899 17.0763 119.686 16.9056C119.473 16.7349 119.204 16.6496 118.88 16.6496C118.496 16.6496 118.18 16.8032 117.932 17.1104C117.685 17.4091 117.561 17.8485 117.561 18.4288C117.561 19.0091 117.685 19.4528 117.932 19.76C118.18 20.0587 118.496 20.208 118.88 20.208C119.204 20.208 119.473 20.1227 119.686 19.952C119.899 19.7813 120.04 19.5424 120.108 19.2352H122.425C122.263 20.1227 121.871 20.8224 121.248 21.3344C120.625 21.8379 119.852 22.0896 118.931 22.0896C118.231 22.0896 117.608 21.9445 117.062 21.6544C116.524 21.3557 116.102 20.9291 115.795 20.3744C115.488 19.8197 115.334 19.1712 115.334 18.4288C115.334 17.6779 115.483 17.0293 115.782 16.4832C116.089 15.9285 116.516 15.5061 117.062 15.216C117.608 14.9173 118.231 14.768 118.931 14.768ZM130.352 18.2368C130.352 18.416 130.33 18.6123 130.288 18.8256H125.334C125.36 19.3632 125.496 19.7515 125.744 19.9904C125.991 20.2208 126.307 20.336 126.691 20.336C127.015 20.336 127.284 20.2549 127.497 20.0928C127.711 19.9307 127.851 19.7216 127.92 19.4656H130.237C130.143 19.9691 129.938 20.4213 129.622 20.8224C129.306 21.2149 128.905 21.5264 128.419 21.7568C127.933 21.9787 127.391 22.0896 126.793 22.0896C126.094 22.0896 125.471 21.9445 124.925 21.6544C124.387 21.3557 123.965 20.9291 123.657 20.3744C123.35 19.8197 123.197 19.1712 123.197 18.4288C123.197 17.6779 123.346 17.0293 123.645 16.4832C123.952 15.9285 124.378 15.5061 124.925 15.216C125.471 14.9173 126.094 14.768 126.793 14.768C127.502 14.768 128.125 14.9131 128.662 15.2032C129.2 15.4933 129.614 15.9029 129.904 16.432C130.202 16.9525 130.352 17.5541 130.352 18.2368ZM128.137 17.904C128.146 17.4347 128.018 17.0848 127.753 16.8544C127.497 16.6155 127.177 16.496 126.793 16.496C126.392 16.496 126.059 16.6155 125.795 16.8544C125.53 17.0933 125.381 17.4432 125.347 17.904H128.137ZM138.277 18.2368C138.277 18.416 138.255 18.6123 138.213 18.8256H133.259C133.285 19.3632 133.421 19.7515 133.669 19.9904C133.916 20.2208 134.232 20.336 134.616 20.336C134.94 20.336 135.209 20.2549 135.422 20.0928C135.636 19.9307 135.776 19.7216 135.845 19.4656H138.162C138.068 19.9691 137.863 20.4213 137.547 20.8224C137.231 21.2149 136.83 21.5264 136.344 21.7568C135.858 21.9787 135.316 22.0896 134.718 22.0896C134.019 22.0896 133.396 21.9445 132.85 21.6544C132.312 21.3557 131.89 20.9291 131.582 20.3744C131.275 19.8197 131.122 19.1712 131.122 18.4288C131.122 17.6779 131.271 17.0293 131.57 16.4832C131.877 15.9285 132.303 15.5061 132.85 15.216C133.396 14.9173 134.019 14.768 134.718 14.768C135.427 14.768 136.05 14.9131 136.587 15.2032C137.125 15.4933 137.539 15.9029 137.829 16.432C138.127 16.9525 138.277 17.5541 138.277 18.2368ZM136.062 17.904C136.071 17.4347 135.943 17.0848 135.678 16.8544C135.422 16.6155 135.102 16.496 134.718 16.496C134.317 16.496 133.984 16.6155 133.72 16.8544C133.455 17.0933 133.306 17.4432 133.272 17.904H136.062ZM142.131 14.768C142.677 14.768 143.147 14.8917 143.539 15.1392C143.932 15.3867 144.218 15.7237 144.397 16.1504V12.528H146.586V22H144.397V20.7072C144.218 21.1339 143.932 21.4709 143.539 21.7184C143.147 21.9659 142.677 22.0896 142.131 22.0896C141.542 22.0896 141.013 21.9445 140.544 21.6544C140.083 21.3557 139.716 20.9291 139.443 20.3744C139.179 19.8197 139.046 19.1712 139.046 18.4288C139.046 17.6779 139.179 17.0293 139.443 16.4832C139.716 15.9285 140.083 15.5061 140.544 15.216C141.013 14.9173 141.542 14.768 142.131 14.768ZM142.835 16.688C142.366 16.688 141.986 16.8416 141.696 17.1488C141.414 17.456 141.274 17.8827 141.274 18.4288C141.274 18.9749 141.414 19.4016 141.696 19.7088C141.986 20.016 142.366 20.1696 142.835 20.1696C143.296 20.1696 143.672 20.0117 143.962 19.696C144.26 19.3803 144.41 18.9579 144.41 18.4288C144.41 17.8912 144.26 17.4688 143.962 17.1616C143.672 16.8459 143.296 16.688 142.835 16.688ZM157.158 12.9504V14.6912H154.7V22H152.498V14.6912H150.066V12.9504H157.158ZM161.421 14.768C162.129 14.768 162.761 14.9173 163.315 15.216C163.879 15.5061 164.318 15.9285 164.634 16.4832C164.958 17.0379 165.12 17.6864 165.12 18.4288C165.12 19.1712 164.958 19.8197 164.634 20.3744C164.318 20.9291 163.879 21.3557 163.315 21.6544C162.761 21.9445 162.129 22.0896 161.421 22.0896C160.713 22.0896 160.077 21.9445 159.514 21.6544C158.951 21.3557 158.507 20.9291 158.183 20.3744C157.867 19.8197 157.709 19.1712 157.709 18.4288C157.709 17.6864 157.867 17.0379 158.183 16.4832C158.507 15.9285 158.951 15.5061 159.514 15.216C160.077 14.9173 160.713 14.768 161.421 14.768ZM161.421 16.6624C161.003 16.6624 160.649 16.816 160.359 17.1232C160.077 17.4219 159.936 17.8571 159.936 18.4288C159.936 19.0005 160.077 19.4357 160.359 19.7344C160.649 20.0331 161.003 20.1824 161.421 20.1824C161.839 20.1824 162.189 20.0331 162.471 19.7344C162.752 19.4357 162.893 19.0005 162.893 18.4288C162.893 17.8571 162.752 17.4219 162.471 17.1232C162.189 16.816 161.839 16.6624 161.421 16.6624ZM171.007 18.8256V22H168.818V12.9504H172.363C173.439 12.9504 174.258 13.2192 174.821 13.7568C175.384 14.2859 175.666 15.0027 175.666 15.9072C175.666 16.4704 175.538 16.9739 175.282 17.4176C175.034 17.8528 174.663 18.1984 174.168 18.4544C173.673 18.7019 173.072 18.8256 172.363 18.8256H171.007ZM172.12 17.072C172.999 17.072 173.439 16.6837 173.439 15.9072C173.439 15.1136 172.999 14.7168 172.12 14.7168H171.007V17.072H172.12ZM179.456 14.768C180.002 14.768 180.472 14.8917 180.864 15.1392C181.257 15.3867 181.547 15.7237 181.735 16.1504V14.8576H183.911V22H181.735V20.7072C181.547 21.1339 181.257 21.4709 180.864 21.7184C180.472 21.9659 180.002 22.0896 179.456 22.0896C178.868 22.0896 178.338 21.9445 177.869 21.6544C177.408 21.3557 177.041 20.9291 176.768 20.3744C176.504 19.8197 176.372 19.1712 176.372 18.4288C176.372 17.6779 176.504 17.0293 176.768 16.4832C177.041 15.9285 177.408 15.5061 177.869 15.216C178.338 14.9173 178.868 14.768 179.456 14.768ZM180.16 16.688C179.691 16.688 179.311 16.8416 179.021 17.1488C178.74 17.456 178.599 17.8827 178.599 18.4288C178.599 18.9749 178.74 19.4016 179.021 19.7088C179.311 20.016 179.691 20.1696 180.16 20.1696C180.621 20.1696 180.997 20.0117 181.287 19.696C181.585 19.3803 181.735 18.9579 181.735 18.4288C181.735 17.8912 181.585 17.4688 181.287 17.1616C180.997 16.8459 180.621 16.688 180.16 16.688ZM187.069 14.8576L188.784 19.2352L190.384 14.8576H192.803L188.349 25.4048H185.943L187.619 21.7312L184.624 14.8576H187.069ZM202.785 14.7808C203.664 14.7808 204.355 15.0539 204.858 15.6C205.362 16.1376 205.613 16.8885 205.613 17.8528V22H203.437V18.1088C203.437 17.6565 203.314 17.3067 203.066 17.0592C202.827 16.8032 202.499 16.6752 202.081 16.6752C201.645 16.6752 201.3 16.8117 201.044 17.0848C200.796 17.3493 200.673 17.7248 200.673 18.2112V22H198.484V18.1088C198.484 17.6565 198.364 17.3067 198.125 17.0592C197.886 16.8032 197.558 16.6752 197.14 16.6752C196.705 16.6752 196.359 16.8075 196.103 17.072C195.847 17.3365 195.719 17.7163 195.719 18.2112V22H193.53V14.8576H195.719V16.0736C195.907 15.6725 196.193 15.3568 196.577 15.1264C196.969 14.896 197.426 14.7808 197.946 14.7808C198.492 14.7808 198.974 14.9088 199.393 15.1648C199.811 15.4123 200.126 15.7707 200.34 16.24C200.587 15.7963 200.924 15.4421 201.351 15.1776C201.786 14.9131 202.264 14.7808 202.785 14.7808ZM213.852 18.2368C213.852 18.416 213.83 18.6123 213.788 18.8256H208.834C208.86 19.3632 208.996 19.7515 209.244 19.9904C209.491 20.2208 209.807 20.336 210.191 20.336C210.515 20.336 210.784 20.2549 210.997 20.0928C211.211 19.9307 211.351 19.7216 211.42 19.4656H213.737C213.643 19.9691 213.438 20.4213 213.122 20.8224C212.806 21.2149 212.405 21.5264 211.919 21.7568C211.433 21.9787 210.891 22.0896 210.293 22.0896C209.594 22.0896 208.971 21.9445 208.425 21.6544C207.887 21.3557 207.465 20.9291 207.157 20.3744C206.85 19.8197 206.697 19.1712 206.697 18.4288C206.697 17.6779 206.846 17.0293 207.145 16.4832C207.452 15.9285 207.878 15.5061 208.425 15.216C208.971 14.9173 209.594 14.768 210.293 14.768C211.002 14.768 211.625 14.9131 212.162 15.2032C212.7 15.4933 213.114 15.9029 213.404 16.432C213.702 16.9525 213.852 17.5541 213.852 18.2368ZM211.637 17.904C211.646 17.4347 211.518 17.0848 211.253 16.8544C210.997 16.6155 210.677 16.496 210.293 16.496C209.892 16.496 209.559 16.6155 209.295 16.8544C209.03 17.0933 208.881 17.4432 208.847 17.904H211.637ZM219.524 14.7808C220.343 14.7808 220.992 15.0539 221.47 15.6C221.956 16.1461 222.199 16.8971 222.199 17.8528V22H220.01V18.1088C220.01 17.6309 219.882 17.2597 219.626 16.9952C219.379 16.7221 219.046 16.5856 218.628 16.5856C218.184 16.5856 217.83 16.7264 217.566 17.008C217.31 17.2896 217.182 17.6907 217.182 18.2112V22H214.993V14.8576H217.182V16.1632C217.386 15.7365 217.689 15.3995 218.09 15.152C218.5 14.9045 218.978 14.7808 219.524 14.7808ZM227.687 20.1184V22H226.702C225.866 22 225.213 21.7952 224.743 21.3856C224.283 20.9675 224.052 20.2805 224.052 19.3248V16.7008H223.092V14.8576H224.052V13.104H226.241V14.8576H227.675V16.7008H226.241V19.3632C226.241 19.6448 226.297 19.8411 226.407 19.952C226.527 20.0629 226.723 20.1184 226.996 20.1184H227.687Z" fill="#F2F2F2"/>
</g>
<defs>
<filter id="filter0_d" x="0" y="0" width="292" height="45" filterUnits="userSpaceOnUse" color-interpolation-filters="sRGB">
<feFlood flood-opacity="0" result="BackgroundImageFix"/>
<feColorMatrix in="SourceAlpha" type="matrix" values="0 0 0 0 0 0 0 0 0 0 0 0 0 0 0 0 0 0 127 0"/>
<feOffset dy="4"/>
<feGaussianBlur stdDeviation="2"/>
<feColorMatrix type="matrix" values="0 0 0 0 0 0 0 0 0 0 0 0 0 0 0 0 0 0 0.25 0"/>
<feBlend mode="normal" in2="BackgroundImageFix" result="effect1_dropShadow"/>
<feBlend mode="normal" in="SourceGraphic" in2="effect1_dropShadow" result="shape"/>
</filter>
</defs>
</svg>
