<svg width="197" height="197" viewBox="0 0 197 197" fill="none" xmlns="http://www.w3.org/2000/svg">
<g opacity="0.06">
<path d="M113.536 153.587L113.828 155.229C114.76 160.483 119.358 164.293 124.696 164.239L144.905 164.025C147.075 164 148.941 165.548 149.32 167.682C149.748 170.093 148.14 172.393 145.728 172.821L79.1752 184.635C76.7634 185.063 74.4618 183.456 74.034 181.046C73.6552 178.912 74.8751 176.816 76.9184 176.093L95.9661 169.338C101 167.555 104.005 162.395 103.072 157.138L102.781 155.496" fill="#D8923E"/>
<path d="M88.947 77.563L99.7022 75.6539L111.628 142.838L100.873 144.747L88.947 77.563Z" fill="#8F6128"/>
<path d="M23.2815 89.2192L165.371 63.9972C170.681 63.0546 174.224 57.9848 173.282 52.6746C172.584 48.743 169.56 45.6316 165.65 44.8205L157.728 43.1774C161.076 47.6782 158.515 54.1259 152.99 55.1068L31.8435 76.6112C26.318 77.592 21.6945 72.4196 23.2887 67.0416L16.4166 71.3107C13.0247 73.4208 11.2563 77.3799 11.9542 81.3115C12.8968 86.6218 17.9684 90.1623 23.2815 89.2192V89.2192Z" fill="#F2C351"/>
<path d="M85.1309 56.064L95.886 54.1548L97.7941 64.9043L87.039 66.8134L85.1309 56.064Z" fill="#8F6128"/>
<path d="M93.9779 43.4056L89.2013 32.7301L84.0334 33.6474L83.2228 45.3147L93.9779 43.4056Z" fill="#8F6128"/>
<path d="M86.6922 33.6106C91.1472 32.8198 94.1179 28.5692 93.3275 24.1166C92.5371 19.664 88.285 16.6956 83.83 17.4864C79.3751 18.2772 76.4044 22.5277 77.1948 26.9803C77.9851 31.4329 82.2373 34.4014 86.6922 33.6106Z" fill="#BC7F35"/>
<path d="M77.8452 46.269L99.3555 42.4508L101.264 53.2003L79.7533 57.0185L77.8452 46.269Z" fill="#BC7F35"/>
<path d="M108.636 157.229C113.091 156.439 116.061 152.188 115.271 147.736C114.48 143.283 110.228 140.314 105.773 141.105C101.318 141.896 98.3478 146.147 99.1381 150.599C99.9285 155.052 104.181 158.02 108.636 157.229Z" fill="#BC7F35"/>
<path d="M131.707 130.958C133.288 139.864 146.607 144.945 161.457 142.309C176.308 139.673 187.064 130.318 185.483 121.412L131.707 130.958Z" fill="#C16B3F"/>
<path d="M150.963 83.187C155.418 82.3962 158.388 78.1456 157.598 73.693C156.808 69.2405 152.555 66.272 148.101 67.0628C143.646 67.8536 140.675 72.1042 141.465 76.5567C142.256 81.0093 146.508 83.9778 150.963 83.187Z" fill="#F2C351"/>
<path d="M24.1555 150.049C25.7364 158.955 39.0554 164.036 53.9056 161.4C68.7558 158.764 79.5122 149.409 77.9313 140.503L24.1555 150.049Z" fill="#C16B3F"/>
<path d="M43.411 102.278C47.8659 101.488 50.8366 97.2369 50.0463 92.7843C49.2559 88.3318 45.0037 85.3633 40.5488 86.1541C36.0939 86.9449 33.1231 91.1955 33.9135 95.648C34.7039 100.101 38.956 103.069 43.411 102.278Z" fill="#F2C351"/>
<path d="M47.0266 87.804C45.2544 86.4138 42.9418 85.7293 40.5488 86.1541C36.0935 86.9449 33.1231 91.1951 33.9135 95.648C34.3462 98.0855 35.8348 100.05 37.8099 101.224C43.1425 98.8443 46.7239 93.6457 47.0266 87.804V87.804Z" fill="#F7D881"/>
<path d="M154.578 68.7127C152.806 67.3225 150.494 66.638 148.101 67.0628C143.645 67.8536 140.675 72.1038 141.465 76.5567C141.898 78.9942 143.387 80.9587 145.362 82.1327C150.694 79.7529 154.276 74.5544 154.578 68.7127V68.7127Z" fill="#F7D881"/>
<path d="M88.2005 17.9358C86.8512 17.413 85.36 17.2148 83.83 17.4864C79.3747 18.2772 76.4043 22.5273 77.1948 26.9803C77.5172 28.797 78.4354 30.3444 79.688 31.5108C84.8616 29.0318 88.2262 23.7525 88.2005 17.9358Z" fill="#D8923E"/>
<path d="M77.8452 46.2693L79.7533 57.0188L88.1128 55.5349C91.8044 52.7229 93.9995 48.2612 93.7871 43.4395L77.8452 46.2693Z" fill="#D8923E"/>
<path d="M111.251 142.09C109.646 141.172 107.739 140.756 105.773 141.105C101.318 141.896 98.3477 146.146 99.1381 150.599C99.4396 152.298 100.248 153.773 101.377 154.914C106.57 152.484 110.24 147.672 111.251 142.09Z" fill="#D8923E"/>
<path d="M67.8322 142.296L24.1555 150.049C25.7111 158.813 38.641 163.858 53.2054 161.503C60.1892 157.003 65.3522 150.168 67.8322 142.296Z" fill="#E39854"/>
<path d="M175.384 123.205L131.707 130.958C133.263 139.721 146.193 144.766 160.757 142.411C167.741 137.912 172.904 131.077 175.384 123.205Z" fill="#E39854"/>
<path d="M187.507 119.581L155.565 84.2106C159.07 81.8754 161.065 77.6181 160.284 73.2162C159.935 71.2491 159.041 69.5282 157.835 68.1042L165.844 66.6823C172.631 65.4777 177.174 58.9775 175.973 52.1941C175.075 47.1365 171.244 43.1928 166.207 42.1464L158.285 40.5033C157.176 40.2705 156.039 40.7524 155.429 41.7062C154.819 42.6626 154.863 43.894 155.54 44.8022C156.557 46.1713 156.78 47.8669 156.151 49.4505C155.521 51.0372 154.195 52.1179 152.518 52.4184L100.008 61.7366L99.0536 56.3591L101.742 55.8819C103.229 55.6179 104.218 54.2033 103.954 52.7172L102.046 41.9704C101.783 40.4843 100.368 39.4964 98.8807 39.7603L95.5977 40.3431L92.5816 33.6019C95.2629 31.1605 96.6919 27.4612 96.0131 23.6371C94.9608 17.7088 89.2813 13.7439 83.3498 14.7968C77.4184 15.8496 73.4505 21.527 74.5028 27.4554C75.1816 31.2795 77.7992 34.2605 81.1542 35.6303L80.6426 42.9978L77.3677 43.5791C75.8808 43.843 74.8921 45.2576 75.1559 46.7437L77.0635 57.4905C77.3273 58.9766 78.7425 59.9645 80.2294 59.7006L82.9181 59.2233L83.8727 64.6007L31.3628 73.9189C31.3633 73.9216 31.3606 73.9221 31.3606 73.9221C29.6828 74.2199 28.0692 73.6608 26.9313 72.3909C25.7929 71.1182 25.4195 69.452 25.9025 67.8139C26.2257 66.7281 25.843 65.5569 24.9415 64.8687C24.0405 64.1832 22.8146 64.1208 21.8453 64.7225L14.9731 68.9916C10.6071 71.7071 8.3671 76.7285 9.26487 81.7861C10.4684 88.5663 16.971 93.1058 23.7585 91.9065L23.7612 91.9061L31.7684 90.4847C31.12 92.2381 30.8756 94.1581 31.2248 96.1253C32.0062 100.527 35.3451 103.838 39.4392 104.824L21.6195 149.027L21.6673 149.046C21.48 149.507 21.3733 150 21.4668 150.526C23.3392 161.074 37.7978 167.029 54.3822 164.085C70.9667 161.141 82.4926 150.574 80.6202 140.026C80.5267 139.499 80.2542 139.074 79.9227 138.706L79.9609 138.671L48.0191 103.301C51.5236 100.966 53.5192 96.7085 52.7378 92.3066C52.3886 90.3394 51.4956 88.6212 50.2888 87.1972L86.7353 80.7276L97.8888 143.561C96.5705 145.744 95.969 148.37 96.4488 151.074C96.9283 153.775 98.3966 156.031 100.386 157.629C101.079 161.581 98.8435 165.424 95.0571 166.764L76.0072 173.522C72.6877 174.696 70.7304 178.059 71.3448 181.521C72.035 185.409 75.7617 188.013 79.6524 187.323L146.205 175.509C150.096 174.818 152.699 171.091 152.009 167.202C151.394 163.741 148.396 161.257 144.88 161.291L124.671 161.504C120.655 161.549 117.231 158.714 116.521 154.762C117.837 152.58 118.441 149.953 117.961 147.252C117.481 144.549 116.013 142.29 114.024 140.694L102.87 77.8608L139.322 71.3903C138.671 73.1441 138.427 75.0668 138.776 77.034C139.558 81.4359 142.897 84.7462 146.991 85.7326L129.174 129.935L129.222 129.955C129.032 130.415 128.925 130.908 129.018 131.435C130.891 141.983 145.349 147.938 161.934 144.994C178.518 142.05 190.044 131.483 188.172 120.935C188.078 120.408 187.806 119.982 187.474 119.614L187.507 119.581ZM84.3066 20.171C87.2723 19.6446 90.1116 21.6243 90.6382 24.5912C91.1644 27.5554 89.18 30.3914 86.2142 30.9178C83.2485 31.4442 80.4092 29.4645 79.8831 26.5003C79.3569 23.5362 81.3382 20.6979 84.3066 20.171ZM86.5797 36.336C86.7779 36.3119 86.9693 36.3279 87.1683 36.2925C87.3646 36.2577 87.5388 36.1769 87.7332 36.1313L90.0561 41.3268L86.1869 42.0136L86.5797 36.336ZM81.0105 48.4765L97.1433 45.6128L98.0968 50.9849L81.9641 53.8486L81.0105 48.4765ZM88.293 58.2692L93.6706 57.3147L94.6252 62.6921L89.2476 63.6467L88.293 58.2692ZM14.6398 80.832C14.1341 77.9834 15.3963 75.1564 17.8563 73.6248L20.6072 71.9195C21.0224 73.4148 21.7797 74.8216 22.8622 76.0294C25.2503 78.7018 28.787 79.923 32.3147 79.2968L32.3173 79.2963L153.467 57.7941C156.999 57.1643 159.899 54.7978 161.224 51.4635C161.822 49.9602 162.049 48.3786 161.922 46.8323L165.092 47.4893C167.929 48.0806 170.087 50.3005 170.592 53.1491C171.271 56.9706 168.711 60.6294 164.888 61.3081L147.623 64.3727L147.62 64.3732L147.618 64.3737L40.0933 83.4629C40.0853 83.4643 40.0767 83.4631 40.0714 83.464C40.066 83.465 40.0557 83.4696 40.0476 83.471L22.8044 86.5318C18.9805 87.2078 15.3176 84.6507 14.6398 80.832V80.832ZM44.3107 107.347L72.6038 138.677L28.5238 146.502L44.3107 107.347ZM53.4282 158.71C41.9605 160.746 31.218 157.804 27.8296 152.169L75.2088 143.759C73.9671 150.216 64.8932 156.675 53.4282 158.71V158.71ZM47.3548 93.2621C47.881 96.2262 45.8971 99.0649 42.9313 99.5914C39.9656 100.118 37.1258 98.1354 36.5997 95.1712C36.0745 92.2124 38.0491 89.3837 41.0017 88.8457L41.0474 88.8376C44.0048 88.3265 46.8296 90.3033 47.3548 93.2621ZM112.579 148.211C113.105 151.175 111.121 154.011 108.155 154.537C105.189 155.064 102.35 153.084 101.824 150.12C101.297 147.153 103.282 144.317 106.247 143.79C109.213 143.264 112.053 145.246 112.579 148.211ZM124.725 166.967L144.934 166.75C145.77 166.743 146.482 167.335 146.628 168.157C146.792 169.082 146.174 169.97 145.249 170.135L78.6983 181.948C77.7707 182.113 76.8865 181.491 76.7224 180.566C76.5759 179.741 77.0417 178.943 77.8298 178.665L96.8775 171.91C102.13 170.049 105.551 165.289 105.896 159.95C106.944 160.077 108.015 160.106 109.109 159.912C110.201 159.718 111.198 159.322 112.139 158.842C114.303 163.736 119.15 167.028 124.725 166.967ZM108.052 138.319C107.149 138.247 106.229 138.25 105.296 138.415C104.36 138.581 103.498 138.898 102.675 139.274L92.1129 79.7731L97.4905 78.8185L108.052 138.319ZM148.572 69.7484L148.577 69.7474C151.543 69.2237 154.38 71.2066 154.906 74.1708C155.433 77.1349 153.449 79.9736 150.483 80.5001C147.517 81.0265 144.677 79.0441 144.151 76.0799C143.628 73.1153 145.609 70.2771 148.572 69.7484V69.7484ZM180.155 119.586L136.075 127.41L151.862 88.2553L180.155 119.586ZM160.98 139.619C149.512 141.655 138.77 138.713 135.381 133.078L182.76 124.667C181.519 131.125 172.445 137.584 160.98 139.619V139.619Z" fill="black"/>
</g>
</svg>
