<svg width="221" height="203" viewBox="0 0 221 203" fill="none" xmlns="http://www.w3.org/2000/svg">
<g opacity="0.06">
<path d="M68.2946 120.835C67.1386 134.431 56.0807 145.412 42.0762 146.092C28.0716 146.771 16.0029 136.912 13.5356 123.492L68.2946 120.835Z" fill="#FECA57"/>
<path d="M66.448 115.606L39.4821 52.3064C38.7905 50.6829 39.5458 48.8057 41.1698 48.114C42.7929 47.4216 44.6706 48.1777 45.3622 49.8017L72.3281 113.102C73.0197 114.725 72.2644 116.602 70.6404 117.294C69.0189 117.985 67.1405 117.231 66.448 115.606Z" fill="#CCD2DB"/>
<path d="M13.4298 120.07C11.7469 119.539 10.813 117.743 11.3442 116.06L32.0551 50.4472C32.5863 48.7643 34.3802 47.8297 36.0644 48.3616C37.7473 48.8928 38.6812 50.688 38.15 52.3709L17.4391 117.984C16.9079 119.667 15.1127 120.601 13.4298 120.07Z" fill="#CCD2DB"/>
<path d="M151.55 113.364C149.869 112.827 148.942 111.028 149.479 109.347L170.225 44.4579C170.763 42.7767 172.562 41.8501 174.242 42.3872C175.923 42.9247 176.851 44.7236 176.313 46.4043L155.567 111.293C155.029 112.974 153.231 113.901 151.55 113.364Z" fill="#CCD2DB"/>
<path d="M204.584 108.915L177.653 46.3393C176.956 44.7181 177.704 42.8384 179.325 42.1407C180.947 41.4434 182.826 42.1915 183.524 43.8127L210.455 106.388C211.152 108.01 210.404 109.889 208.783 110.587C207.163 111.284 205.282 110.537 204.584 108.915Z" fill="#CCD2DB"/>
<path d="M44.0946 54.3753C42.4662 54.4543 41.0155 53.2816 40.7799 51.6355C40.53 49.8883 41.7437 48.2691 43.491 48.0191C54.0494 46.5085 56.8165 45.1639 98.3019 31.5917C99.9792 31.0433 101.784 31.9578 102.333 33.6355C102.882 35.3127 101.967 37.1178 100.289 37.6667C58.5859 51.3103 55.5017 52.7576 44.3963 54.3466C44.2952 54.361 44.1946 54.3704 44.0946 54.3753Z" fill="#3E4B5A"/>
<path d="M172.684 48.3598C172.584 48.3646 172.484 48.3649 172.382 48.3604C160.748 47.8346 157.586 46.6882 112.861 36.7239C111.138 36.34 110.053 34.6325 110.436 32.9095C110.82 31.187 112.529 30.1016 114.251 30.4851C159.039 40.4634 161.749 41.4818 172.67 41.975C174.433 42.0547 175.798 43.5487 175.719 45.312C175.643 46.9731 174.313 48.2808 172.684 48.3598Z" fill="#3E4B5A"/>
<path d="M106.246 19.621C108.53 19.5101 110.699 20.0239 112.591 21.007L112.017 9.16261C111.901 6.77406 109.871 4.93139 107.482 5.0473L103.604 5.23545C101.215 5.35135 99.3728 7.38193 99.4887 9.77048L100.063 21.6149C101.853 20.4523 103.962 19.7318 106.246 19.621Z" fill="#C46F5F"/>
<path d="M119.974 173.15L113.637 42.5533C111.848 43.7154 109.739 44.4364 107.455 44.5472C105.171 44.658 103.002 44.1442 101.109 43.1611L107.446 173.758L119.974 173.15V173.15Z" fill="#C46F5F"/>
<path d="M107.921 9.36136C107.846 7.80934 108.6 6.41252 109.791 5.58993C109.109 5.21059 108.319 5.00671 107.482 5.0473L103.604 5.23545C101.216 5.35135 99.3733 7.38193 99.4892 9.77048L100.064 21.6149C101.853 20.4524 103.962 19.7318 106.246 19.621C106.986 19.5851 107.712 19.6215 108.423 19.7112L107.921 9.36136V9.36136Z" fill="#B45F4A"/>
<path d="M107.455 44.5474C105.171 44.6583 103.002 44.1449 101.109 43.1614L107.446 173.758L115.878 173.349L109.614 44.2464C108.915 44.405 108.196 44.5115 107.455 44.5474Z" fill="#B45F4A"/>
<path d="M148.391 104.093L211.03 101.053C213.982 100.91 216.516 103.209 216.659 106.162L216.76 108.25C216.904 111.203 214.605 113.736 211.652 113.88L149.013 116.919C146.061 117.062 143.527 114.764 143.384 111.81L143.282 109.722C143.139 106.769 145.438 104.236 148.391 104.093Z" fill="#F4B537"/>
<path d="M211.238 105.367L148.6 108.406C146.851 108.491 145.253 107.715 144.208 106.457C143.576 107.388 143.224 108.518 143.283 109.722L143.384 111.81C143.527 114.763 146.06 117.062 149.013 116.918L211.652 113.879C214.604 113.736 216.903 111.203 216.76 108.25L216.659 106.161C216.6 104.958 216.14 103.867 215.421 103.002C214.503 104.355 212.988 105.282 211.238 105.367Z" fill="#E59D1F"/>
<path d="M208.998 114.008C207.842 127.604 196.784 138.586 182.779 139.265C168.775 139.945 156.706 130.086 154.239 116.665L208.998 114.008Z" fill="#FECA57"/>
<path d="M26.3038 122.872L13.5356 123.492C16.0029 136.912 28.0716 146.771 42.0762 146.092C44.2739 145.985 46.3984 145.625 48.4242 145.04C37.2887 142.969 28.3836 134.187 26.3038 122.872Z" fill="#F4B537"/>
<path d="M167.007 116.046L154.239 116.665C156.706 130.086 168.775 139.945 182.78 139.265C184.977 139.158 187.102 138.798 189.128 138.213C177.992 136.143 169.087 127.36 167.007 116.046Z" fill="#F4B537"/>
<path d="M39.1777 59.7877C43.9031 59.5584 47.548 55.5418 47.3187 50.8164C47.0894 46.091 43.0728 42.4461 38.3474 42.6754C33.622 42.9047 29.9771 46.9213 30.2064 51.6467C30.4357 56.3721 34.4523 60.017 39.1777 59.7877Z" fill="#FECA57"/>
<path d="M177.309 53.0856C182.034 52.8563 185.679 48.8397 185.45 44.1143C185.221 39.3888 181.204 35.744 176.479 35.9733C171.753 36.2026 168.108 40.2191 168.338 44.9446C168.567 49.67 172.584 53.3148 177.309 53.0856Z" fill="#FECA57"/>
<path d="M137.809 171.005L89.4877 173.349C86.5349 173.493 84.2359 176.026 84.3792 178.979L84.8029 187.713L143.862 184.847L143.438 176.113C143.295 173.16 140.761 170.862 137.809 171.005Z" fill="#3E4B5A"/>
<path d="M84.4336 177.919C84.3811 178.264 84.3611 178.618 84.3786 178.978L84.8023 187.712L143.861 184.847L143.438 176.113C143.42 175.752 143.366 175.401 143.28 175.063L84.4336 177.919Z" fill="#303F49"/>
<path d="M145.703 183.478L83.0649 186.517C80.112 186.66 77.813 189.193 77.9563 192.147L78.0576 194.235C78.2009 197.188 80.7344 199.487 83.6872 199.343L146.326 196.304C149.279 196.161 151.578 193.628 151.434 190.675L151.333 188.586C151.19 185.633 148.656 183.335 145.703 183.478Z" fill="#576574"/>
<path d="M145.913 187.792L83.2744 190.831C81.5249 190.916 79.9274 190.14 78.8825 188.882C78.2507 189.813 77.8985 190.943 77.9569 192.146L78.0582 194.235C78.2015 197.187 80.7349 199.486 83.6878 199.343L146.326 196.304C149.279 196.161 151.578 193.628 151.435 190.674L151.333 188.586C151.275 187.383 150.815 186.292 150.096 185.427C149.177 186.78 147.662 187.707 145.913 187.792Z" fill="#3E4B5A"/>
<path d="M107.455 44.5471C114.338 44.2131 119.648 38.3624 119.314 31.4791C118.98 24.5959 113.129 19.2866 106.246 19.6206C99.3625 19.9546 94.0532 25.8053 94.3872 32.6886C94.7212 39.5719 100.572 44.8811 107.455 44.5471Z" fill="#FECA57"/>
<path d="M42.974 51.0272C42.8681 48.8431 43.5971 46.8165 44.8704 45.2392C43.2177 43.5563 40.8883 42.5521 38.3469 42.6754C33.6215 42.9047 29.9766 46.9213 30.2059 51.6467C30.4352 56.3722 34.4518 60.017 39.1772 59.7877C41.7186 59.6644 43.9399 58.4399 45.4219 56.6044C44.0018 55.1578 43.08 53.2113 42.974 51.0272Z" fill="#F4B537"/>
<path d="M181.106 44.3251C181 42.141 181.729 40.1143 183.002 38.537C181.35 36.8541 179.02 35.85 176.479 35.9733C171.753 36.2026 168.108 40.2191 168.338 44.9446C168.567 49.67 172.584 53.3148 177.309 53.0856C179.85 52.9623 182.072 51.7377 183.554 49.9023C182.133 48.4557 181.212 46.5091 181.106 44.3251Z" fill="#F4B537"/>
<path d="M107.155 32.0691C106.935 27.5196 109.18 23.4227 112.715 21.0698C110.794 20.0442 108.58 19.5074 106.246 19.6206C99.3626 19.9546 94.0532 25.8055 94.3872 32.6886C94.7212 39.5717 100.572 44.8811 107.455 44.5471C109.789 44.4339 111.94 43.6852 113.754 42.4784C110.008 40.4792 107.376 36.6186 107.155 32.0691Z" fill="#F4B537"/>
<path d="M10.2597 110.795L72.8982 107.756C75.851 107.612 78.3845 109.911 78.5278 112.864L78.6291 114.952C78.7724 117.905 76.4734 120.439 73.5205 120.582L10.882 123.621C7.92876 123.764 5.39571 121.465 5.25244 118.512L5.15112 116.424C5.00784 113.471 7.30644 110.938 10.2597 110.795Z" fill="#F4B537"/>
<path d="M73.1069 112.07L10.4689 115.109C8.71938 115.194 7.12189 114.417 6.07662 113.16C5.44477 114.091 5.09257 115.221 5.15096 116.424L5.25228 118.512C5.39556 121.465 7.92861 123.764 10.8819 123.621L73.5199 120.582C76.4728 120.438 78.7718 117.905 78.6285 114.952L78.5272 112.864C78.4688 111.66 78.0088 110.569 77.2898 109.704C76.3712 111.057 74.8564 111.985 73.1069 112.07Z" fill="#E59D1F"/>
</g>
</svg>
