<svg width="24" height="24" viewBox="0 0 24 24" fill="none" xmlns="http://www.w3.org/2000/svg">
<path d="M9.3 19.2004H6.6C5.64522 19.2004 4.72955 18.8211 4.05442 18.146C3.37928 17.4708 3 16.5552 3 15.6004V7.50039C3 6.54561 3.37928 5.62994 4.05442 4.95481C4.72955 4.27968 5.64522 3.90039 6.6 3.90039H16.5C17.4548 3.90039 18.3705 4.27968 19.0456 4.95481C19.7207 5.62994 20.1 6.54561 20.1 7.50039V10.2004" stroke="#D3D3FD" stroke-width="2" stroke-linecap="round" stroke-linejoin="round"/>
<path d="M8.3999 3V4.8" stroke="#D3D3FD" stroke-width="2" stroke-linecap="round" stroke-linejoin="round"/>
<path d="M14.7 3V4.8" stroke="#D3D3FD" stroke-width="2" stroke-linecap="round" stroke-linejoin="round"/>
<path d="M3 8.40039H20.1" stroke="#D3D3FD" stroke-width="2" stroke-linecap="round" stroke-linejoin="round"/>
<path d="M17.85 15.2773L16.5 16.6273" stroke="#D3D3FD" stroke-width="2" stroke-linecap="round" stroke-linejoin="round"/>
<path d="M16.5 21C18.9853 21 21 18.9853 21 16.5C21 14.0147 18.9853 12 16.5 12C14.0147 12 12 14.0147 12 16.5C12 18.9853 14.0147 21 16.5 21Z" stroke="#D3D3FD" stroke-width="2" stroke-linecap="round" stroke-linejoin="round"/>
</svg>
