<svg width="150" height="37" viewBox="0 0 150 37" fill="none" xmlns="http://www.w3.org/2000/svg">
<rect width="150" height="37" rx="4" fill="#313B4E"/>
<path d="M106.383 0.534657L56.0812 29.5347C52.5347 31.5793 53.9854 37 58.0791 37H146C148.209 37 150 35.2091 150 33V4C150 1.79086 148.209 0 146 0H108.381C107.679 0 106.99 0.184382 106.383 0.534657Z" fill="#46546B"/>
<path d="M49.2336 19.392C49.7541 19.5029 50.1723 19.7632 50.488 20.1728C50.8037 20.5739 50.9616 21.0347 50.9616 21.5552C50.9616 22.3061 50.6971 22.9035 50.168 23.3472C49.6475 23.7824 48.9179 24 47.9792 24H43.7936V15.0144H47.8384C48.7515 15.0144 49.464 15.2235 49.976 15.6416C50.4965 16.0597 50.7568 16.6272 50.7568 17.344C50.7568 17.8731 50.616 18.3125 50.3344 18.6624C50.0613 19.0123 49.6944 19.2555 49.2336 19.392ZM45.9824 18.6496H47.416C47.7744 18.6496 48.0475 18.5728 48.2352 18.4192C48.4315 18.2571 48.5296 18.0224 48.5296 17.7152C48.5296 17.408 48.4315 17.1733 48.2352 17.0112C48.0475 16.8491 47.7744 16.768 47.416 16.768H45.9824V18.6496ZM47.5952 22.2336C47.9621 22.2336 48.2437 22.1525 48.44 21.9904C48.6448 21.8197 48.7472 21.5765 48.7472 21.2608C48.7472 20.9451 48.6405 20.6976 48.4272 20.5184C48.2224 20.3392 47.9365 20.2496 47.5696 20.2496H45.9824V22.2336H47.5952ZM59.2839 16.8576V24H57.0951V23.0272C56.8732 23.3429 56.5703 23.5989 56.1863 23.7952C55.8108 23.9829 55.3927 24.0768 54.9319 24.0768C54.3858 24.0768 53.9036 23.9573 53.4855 23.7184C53.0674 23.4709 52.7431 23.1168 52.5127 22.656C52.2823 22.1952 52.1671 21.6533 52.1671 21.0304V16.8576H54.3431V20.736C54.3431 21.2139 54.4668 21.5851 54.7143 21.8496C54.9618 22.1141 55.2946 22.2464 55.7127 22.2464C56.1394 22.2464 56.4764 22.1141 56.7239 21.8496C56.9714 21.5851 57.0951 21.2139 57.0951 20.736V16.8576H59.2839ZM68.1521 16.8576L63.6721 27.392H61.3169L62.9553 23.7568L60.0497 16.8576H62.4945L64.1457 21.3248L65.7841 16.8576H68.1521ZM79.6945 24H77.5057L73.8449 18.4576V24H71.6561V15.0144H73.8449L77.5057 20.5824V15.0144H79.6945V24ZM84.5323 24.1024C83.8326 24.1024 83.2011 23.9531 82.6379 23.6544C82.0832 23.3557 81.6438 22.9291 81.3195 22.3744C81.0038 21.8197 80.8459 21.1712 80.8459 20.4288C80.8459 19.6949 81.008 19.0507 81.3323 18.496C81.6566 17.9328 82.1003 17.5019 82.6635 17.2032C83.2267 16.9045 83.8582 16.7552 84.5579 16.7552C85.2576 16.7552 85.8891 16.9045 86.4523 17.2032C87.0155 17.5019 87.4592 17.9328 87.7835 18.496C88.1078 19.0507 88.2699 19.6949 88.2699 20.4288C88.2699 21.1627 88.1035 21.8112 87.7707 22.3744C87.4464 22.9291 86.9984 23.3557 86.4267 23.6544C85.8635 23.9531 85.232 24.1024 84.5323 24.1024ZM84.5323 22.208C84.9504 22.208 85.3046 22.0544 85.5947 21.7472C85.8934 21.44 86.0427 21.0005 86.0427 20.4288C86.0427 19.8571 85.8976 19.4176 85.6075 19.1104C85.3259 18.8032 84.976 18.6496 84.5579 18.6496C84.1312 18.6496 83.7771 18.8032 83.4955 19.1104C83.2139 19.4091 83.0731 19.8485 83.0731 20.4288C83.0731 21.0005 83.2096 21.44 83.4827 21.7472C83.7643 22.0544 84.1142 22.208 84.5323 22.208ZM99.6839 16.8576L97.7511 24H95.3319L94.2055 19.3664L93.0407 24H90.6343L88.6887 16.8576H90.8775L91.8887 21.9648L93.0919 16.8576H95.4087L96.6247 21.9392L97.6231 16.8576H99.6839Z" fill="#F2F2F2"/>
</svg>
