<svg width="195" height="37" viewBox="0 0 195 37" fill="none" xmlns="http://www.w3.org/2000/svg">
<rect width="194.191" height="37" rx="4" fill="#C8AC48"/>
<mask id="mask0" mask-type="alpha" maskUnits="userSpaceOnUse" x="0" y="0" width="195" height="37">
<rect width="194.191" height="37" rx="4" fill="#313B4E"/>
</mask>
<g mask="url(#mask0)">
<path d="M138.924 0L55.8394 37H194.191V0H138.924Z" fill="#B89D3B"/>
</g>
<path d="M80.3216 20.3248C80.3216 17.3168 75.88 18.0208 75.88 16.4592C75.88 15.896 76.2768 15.6272 76.8016 15.64C77.3904 15.6528 77.8 15.9984 77.8384 16.5744H80.2064C80.1168 14.8592 78.7984 13.8864 76.84 13.8864C74.9584 13.8864 73.5632 14.8336 73.5632 16.536C73.5376 19.7232 78.0304 18.8272 78.0304 20.4912C78.0304 21.016 77.6208 21.336 76.9808 21.336C76.3664 21.336 75.9312 21.0032 75.8672 20.312H73.5376C73.6016 22.1296 75.112 23.0896 77.0448 23.0896C79.144 23.0896 80.3216 21.8352 80.3216 20.3248ZM88.7214 15.8576H86.5326V19.736C86.5326 20.7088 85.995 21.2464 85.1502 21.2464C84.331 21.2464 83.7806 20.7088 83.7806 19.736V15.8576H81.6046V20.0304C81.6046 21.9376 82.7182 23.0768 84.3694 23.0768C85.3294 23.0768 86.0974 22.6416 86.5326 22.0272V23H88.7214V15.8576ZM92.4824 16.8688V13.528H90.2936V23H92.4824V22.0016C92.8792 22.6288 93.6344 23.1024 94.684 23.1024C96.4376 23.1024 97.8328 21.6688 97.8328 19.416C97.8328 17.1632 96.4504 15.7552 94.684 15.7552C93.66 15.7552 92.8792 16.2288 92.4824 16.8688ZM95.6056 19.416C95.6056 20.5552 94.8632 21.1952 94.0312 21.1952C93.212 21.1952 92.4696 20.568 92.4696 19.4288C92.4696 18.2896 93.212 17.6624 94.0312 17.6624C94.8632 17.6624 95.6056 18.2768 95.6056 19.416ZM108.824 23H111V18.8272C111 16.9072 109.861 15.7808 108.095 15.7808C107.058 15.7808 106.162 16.3568 105.688 17.112C105.202 16.2544 104.332 15.7808 103.256 15.7808C102.322 15.7808 101.592 16.1776 101.17 16.7536V15.8576H98.9811V23H101.17V19.1216C101.17 18.1872 101.708 17.6752 102.54 17.6752C103.372 17.6752 103.909 18.1872 103.909 19.1216V23H106.085V19.1216C106.085 18.1872 106.623 17.6752 107.455 17.6752C108.287 17.6752 108.824 18.1872 108.824 19.1216V23ZM112.531 23H114.72V15.8576H112.531V23ZM113.632 15.1152C114.4 15.1152 114.925 14.5904 114.925 13.9376C114.925 13.272 114.4 12.7472 113.632 12.7472C112.851 12.7472 112.326 13.272 112.326 13.9376C112.326 14.5904 112.851 15.1152 113.632 15.1152ZM116.652 20.5168C116.652 22.3728 117.689 23 119.173 23H120.287V21.144H119.506C119.02 21.144 118.841 20.9648 118.841 20.5424V17.6752H120.274V15.8576H118.841V14.1168H116.652V15.8576H115.781V17.6752H116.652V20.5168Z" fill="#F2F2F2"/>
</svg>
