<svg width="24" height="24" viewBox="0 0 24 24" fill="none" xmlns="http://www.w3.org/2000/svg">
<path fill-rule="evenodd" clip-rule="evenodd" d="M7 3C7.88687 3.00012 8.74858 3.29482 9.44978 3.83783C10.151 4.38084 10.6519 5.14138 10.874 6H19V8H10.874C10.6283 8.94049 10.0486 9.75939 9.24333 10.3038C8.43802 10.8482 7.46209 11.0809 6.49778 10.9584C5.53346 10.836 4.64669 10.3667 4.00303 9.63828C3.35937 8.90985 3.00284 7.97206 3 7C3 5.93913 3.42143 4.92172 4.17157 4.17157C4.92172 3.42143 5.93913 3 7 3ZM7 9C7.53043 9 8.03914 8.78929 8.41421 8.41421C8.78929 8.03914 9 7.53043 9 7C9 6.46957 8.78929 5.96086 8.41421 5.58579C8.03914 5.21071 7.53043 5 7 5C6.46957 5 5.96086 5.21071 5.58579 5.58579C5.21071 5.96086 5 6.46957 5 7C5 7.53043 5.21071 8.03914 5.58579 8.41421C5.96086 8.78929 6.46957 9 7 9Z" fill="#D3D3FD"/>
<path fill-rule="evenodd" clip-rule="evenodd" d="M17 20.0001C16.1131 20 15.2514 19.7053 14.5502 19.1623C13.849 18.6193 13.3481 17.8587 13.126 17.0001H5V15.0001H13.126C13.3717 14.0596 13.9514 13.2407 14.7567 12.6963C15.562 12.1519 16.5379 11.9192 17.5022 12.0417C18.4665 12.1641 19.3533 12.6334 19.997 13.3618C20.6406 14.0902 20.9972 15.028 21 16.0001C21 17.061 20.5786 18.0784 19.8284 18.8285C19.0783 19.5787 18.0609 20.0001 17 20.0001ZM17 18.0001C17.5304 18.0001 18.0391 17.7894 18.4142 17.4143C18.7893 17.0392 19 16.5305 19 16.0001C19 15.4697 18.7893 14.961 18.4142 14.5859C18.0391 14.2108 17.5304 14.0001 17 14.0001C16.4696 14.0001 15.9609 14.2108 15.5858 14.5859C15.2107 14.961 15 15.4697 15 16.0001C15 16.5305 15.2107 17.0392 15.5858 17.4143C15.9609 17.7894 16.4696 18.0001 17 18.0001Z" fill="#D3D3FD"/>
</svg>
