<svg width="50" height="50" viewBox="0 0 50 50" fill="none" xmlns="http://www.w3.org/2000/svg">
<path d="M46.4558 20.6561L41.5377 19.1895C41.1976 18.0034 40.73 16.8576 40.143 15.7722L42.5506 11.2695C42.641 11.0996 42.6741 10.905 42.645 10.7148C42.6159 10.5246 42.5262 10.3488 42.3892 10.2135L38.8804 6.69353C38.745 6.55665 38.569 6.46702 38.3786 6.43796C38.1882 6.4089 37.9935 6.44195 37.8234 6.5322L33.3457 8.92286C32.2484 8.30783 31.0864 7.81595 29.8809 7.4562L28.4128 2.60156C28.3507 2.42265 28.2334 2.26803 28.0778 2.15998C27.9221 2.05192 27.7362 1.99598 27.5467 2.00022H22.5845C22.3938 2.00111 22.2084 2.06275 22.0553 2.17618C21.9021 2.28961 21.7892 2.44891 21.733 2.63089L20.2649 7.47086C19.0493 7.8287 17.8774 8.32061 16.7708 8.93752L12.3665 6.56153C12.1964 6.47128 12.0016 6.43823 11.8112 6.46729C11.6208 6.49636 11.4448 6.58598 11.3095 6.72287L7.74197 10.1988C7.60495 10.3341 7.51524 10.5099 7.48614 10.7001C7.45705 10.8904 7.49013 11.0849 7.58048 11.2548L9.9588 15.6548C9.34228 16.7557 8.8499 17.9215 8.4907 19.1308L3.63128 20.5975C3.44913 20.6537 3.28967 20.7665 3.17613 20.9195C3.06259 21.0725 3.00089 21.2577 3 21.4481V26.4054C3.00089 26.5959 3.06259 26.7811 3.17613 26.9341C3.28967 27.0871 3.44913 27.1999 3.63128 27.2561L8.52006 28.7228C8.88319 29.9119 9.37549 31.0579 9.98816 32.1401L7.58048 36.7454C7.49013 36.9153 7.45705 37.1099 7.48614 37.3001C7.51524 37.4903 7.60495 37.6661 7.74197 37.8014L11.2507 41.3067C11.3861 41.4436 11.5621 41.5332 11.7525 41.5623C11.9429 41.5913 12.1376 41.5583 12.3078 41.468L16.8442 39.048C17.9173 39.6265 19.0493 40.0887 20.2208 40.4267L21.6889 45.3693C21.7452 45.5513 21.8581 45.7106 22.0112 45.824C22.1644 45.9375 22.3498 45.9991 22.5404 46H27.5026C27.6933 45.9991 27.8786 45.9375 28.0318 45.824C28.1849 45.7106 28.2979 45.5513 28.3541 45.3693L29.8222 40.412C30.9837 40.0723 32.1058 39.6101 33.1695 39.0334L37.7353 41.468C37.9054 41.5583 38.1001 41.5913 38.2905 41.5623C38.481 41.5332 38.6569 41.4436 38.7923 41.3067L42.3011 37.8014C42.4381 37.6661 42.5278 37.4903 42.5569 37.3001C42.586 37.1099 42.5529 36.9153 42.4626 36.7454L40.0255 32.1987C40.6089 31.132 41.0764 30.0061 41.4202 28.8401L46.3677 27.3734C46.5499 27.3172 46.7093 27.2044 46.8229 27.0514C46.9364 26.8984 46.9981 26.7132 46.999 26.5228V21.5215C47.0077 21.3391 46.9603 21.1584 46.8632 21.0037C46.7661 20.8491 46.6239 20.7278 46.4558 20.6561V20.6561ZM25.0656 32.0667C23.4686 32.0667 21.9074 31.5936 20.5796 30.7073C19.2517 29.8209 18.2168 28.5611 17.6056 27.0871C16.9945 25.6131 16.8346 23.9912 17.1462 22.4264C17.4577 20.8616 18.2267 19.4243 19.356 18.2961C20.4852 17.168 21.924 16.3997 23.4903 16.0885C25.0566 15.7772 26.6801 15.937 28.1556 16.5475C29.631 17.1581 30.8921 18.192 31.7793 19.5185C32.6666 20.8451 33.1401 22.4047 33.1401 24.0001C33.1401 26.1395 32.2894 28.1913 30.7751 29.7041C29.2609 31.2169 27.2071 32.0667 25.0656 32.0667V32.0667Z" fill="#C8AC48"/>
</svg>
