<svg width="138" height="141" viewBox="0 0 138 141" fill="none" xmlns="http://www.w3.org/2000/svg">
<path d="M18.657 83.3822C24.3649 74.5145 38.8354 55.9584 51.0545 52.6758C63.2736 49.3931 78.3871 30.1044 84.4165 20.8704M18.7995 98.2925C24.157 96.7692 38.5496 88.4685 53.2604 67.4516C77.1119 48.6988 69.4356 67.6412 90.4172 36.6423C94.0348 31.1019 106.408 25.5161 112.142 23.4157M19.0765 115.266C27.2062 111.766 44.4032 103.255 48.1537 97.209C52.8417 89.651 69.8073 76.5272 81.2864 71.4279C92.7656 66.3285 105.17 49.9792 106.332 45.5519C107.494 41.1247 109.589 38.2944 115.644 35.8277M19.7398 58.6529C23.7638 53.6248 34.1677 42.8349 43.5913 39.9001C53.015 36.9654 61.8219 27.1083 65.0474 22.5467M22.0875 34.2557C30.4175 31.7099 47.3764 25.4799 48.5717 20.9262M42.8412 117.448C48.4095 115.98 61.9731 108.949 71.6812 92.568C83.8163 72.0919 95.8412 88.0931 114.427 58.4936M69.0015 118.23C75.2759 110.638 90.4005 94.9126 100.703 92.7495C111.006 90.5863 113.977 83.3889 114.175 80.0606M86.9081 119.55C92.363 114.222 104.924 103.457 111.526 103.027M110.507 122.364L111.835 117.305" stroke="#E7CD71" stroke-width="4"/>
</svg>
