<svg width="168" height="168" viewBox="0 0 168 168" fill="none" xmlns="http://www.w3.org/2000/svg">
<circle cx="84" cy="84" r="77" fill="#F2F2F2"/>
<circle cx="84" cy="84" r="83.5" stroke="#F2F2F2"/>
<path d="M45.2132 74.2C45.2132 72.4667 45.5882 70.925 46.3382 69.575C47.0882 68.2083 48.1299 67.15 49.4632 66.4C50.8132 65.6333 52.3382 65.25 54.0382 65.25C56.1215 65.25 57.9049 65.8 59.3882 66.9C60.8715 68 61.8632 69.5 62.3632 71.4H57.6632C57.3132 70.6667 56.8132 70.1083 56.1632 69.725C55.5299 69.3417 54.8049 69.15 53.9882 69.15C52.6715 69.15 51.6049 69.6083 50.7882 70.525C49.9715 71.4417 49.5632 72.6667 49.5632 74.2C49.5632 75.7333 49.9715 76.9583 50.7882 77.875C51.6049 78.7917 52.6715 79.25 53.9882 79.25C54.8049 79.25 55.5299 79.0583 56.1632 78.675C56.8132 78.2917 57.3132 77.7333 57.6632 77H62.3632C61.8632 78.9 60.8715 80.4 59.3882 81.5C57.9049 82.5833 56.1215 83.125 54.0382 83.125C52.3382 83.125 50.8132 82.75 49.4632 82C48.1299 81.2333 47.0882 80.175 46.3382 78.825C45.5882 77.475 45.2132 75.9333 45.2132 74.2ZM69.2562 79.7H74.8562V83H64.9812V65.45H69.2562V79.7ZM81.1702 68.875V72.425H86.8952V75.725H81.1702V79.575H87.6452V83H76.8952V65.45H87.6452V68.875H81.1702ZM101.346 79.9H94.7956L93.7456 83H89.2706L95.6206 65.45H100.571L106.921 83H102.396L101.346 79.9ZM100.246 76.6L98.0706 70.175L95.9206 76.6H100.246ZM117.803 83L114.153 76.375H113.128V83H108.853V65.45H116.028C117.412 65.45 118.587 65.6917 119.553 66.175C120.537 66.6583 121.27 67.325 121.753 68.175C122.237 69.0083 122.478 69.9417 122.478 70.975C122.478 72.1417 122.145 73.1833 121.478 74.1C120.828 75.0167 119.862 75.6667 118.578 76.05L122.628 83H117.803ZM113.128 73.35H115.778C116.562 73.35 117.145 73.1583 117.528 72.775C117.928 72.3917 118.128 71.85 118.128 71.15C118.128 70.4833 117.928 69.9583 117.528 69.575C117.145 69.1917 116.562 69 115.778 69H113.128V73.35Z" fill="#313B4E"/>
<path d="M64.1209 104.52H59.2569L58.3609 107H56.8249L60.8569 95.912H62.5369L66.5529 107H65.0169L64.1209 104.52ZM63.7049 103.336L61.6889 97.704L59.6729 103.336H63.7049ZM71.7821 95.848C72.9981 95.848 74.0488 96.0773 74.9341 96.536C75.8301 96.984 76.5128 97.6293 76.9821 98.472C77.4621 99.3147 77.7021 100.307 77.7021 101.448C77.7021 102.589 77.4621 103.581 76.9821 104.424C76.5128 105.256 75.8301 105.896 74.9341 106.344C74.0488 106.781 72.9981 107 71.7821 107H68.3101V95.848H71.7821ZM71.7821 105.8C73.2221 105.8 74.3208 105.421 75.0781 104.664C75.8355 103.896 76.2141 102.824 76.2141 101.448C76.2141 100.061 75.8301 98.9787 75.0621 98.2C74.3048 97.4213 73.2115 97.032 71.7821 97.032H69.7661V105.8H71.7821ZM88.8386 95.848L84.6306 107H82.9506L78.7426 95.848H80.2946L83.7986 105.464L87.3026 95.848H88.8386ZM91.8911 95.848V107H90.4351V95.848H91.8911ZM93.8286 101.416C93.8286 100.328 94.074 99.352 94.5646 98.488C95.0553 97.6133 95.722 96.9307 96.5646 96.44C97.418 95.9493 98.362 95.704 99.3966 95.704C100.613 95.704 101.674 95.9973 102.581 96.584C103.487 97.1707 104.149 98.0027 104.565 99.08H102.821C102.511 98.408 102.063 97.8907 101.477 97.528C100.901 97.1653 100.207 96.984 99.3966 96.984C98.618 96.984 97.9193 97.1653 97.3006 97.528C96.682 97.8907 96.1966 98.408 95.8446 99.08C95.4926 99.7413 95.3166 100.52 95.3166 101.416C95.3166 102.301 95.4926 103.08 95.8446 103.752C96.1966 104.413 96.682 104.925 97.3006 105.288C97.9193 105.651 98.618 105.832 99.3966 105.832C100.207 105.832 100.901 105.656 101.477 105.304C102.063 104.941 102.511 104.424 102.821 103.752H104.565C104.149 104.819 103.487 105.645 102.581 106.232C101.674 106.808 100.613 107.096 99.3966 107.096C98.362 107.096 97.418 106.856 96.5646 106.376C95.722 105.885 95.0553 105.208 94.5646 104.344C94.074 103.48 93.8286 102.504 93.8286 101.416ZM108.188 97.032V100.76H112.252V101.96H108.188V105.8H112.732V107H106.732V95.832H112.732V97.032H108.188Z" fill="#313B4E"/>
</svg>
