<svg width="36" height="36" viewBox="0 0 36 36" fill="none" xmlns="http://www.w3.org/2000/svg">
<path d="M34.2581 18.5806V14.3332C34.2581 12.4647 32.9923 10.8435 31.1795 10.3901L30.312 10.1729C31.3217 9.21077 31.9355 7.85729 31.9355 6.3871V5.22581C31.9355 2.34465 29.5908 0 26.7097 0C23.8285 0 21.4839 2.34465 21.4839 5.22581V6.3871C21.4839 7.85729 22.0976 9.21077 23.1079 10.1729L22.2405 10.3901C20.4271 10.843 19.1613 12.4647 19.1613 14.3332V18.5806H16.8387V14.3332C16.8387 12.4647 15.5729 10.8435 13.7601 10.3901L12.8926 10.1729C13.9024 9.21077 14.5161 7.85729 14.5161 6.3871V5.22581C14.5161 2.34465 12.1715 0 9.29032 0C6.40916 0 4.06452 2.34465 4.06452 5.22581V6.3871C4.06452 7.85729 4.67826 9.21077 5.68858 10.1729L4.8211 10.3901C3.00774 10.843 1.74194 12.4647 1.74194 14.3332V18.5806C0.781548 18.5806 0 19.3622 0 20.3226V21.4839C0 22.4443 0.781548 23.2258 1.74194 23.2258V36H34.2581V23.2258C35.2185 23.2258 36 22.4443 36 21.4839V20.3226C36 19.3622 35.2185 18.5806 34.2581 18.5806ZM30.8973 11.5165C32.1921 11.8405 33.0968 12.9983 33.0968 14.3332V18.5806H31.8583L31.349 15.0143L30.1999 15.1786L30.6854 18.5806H29.6129V18C29.6129 17.0396 28.8314 16.2581 27.871 16.2581H27.2903V13.248C27.9645 13.0076 28.4516 12.3689 28.4516 11.6129V11.315C28.6595 11.2419 28.8592 11.1525 29.0532 11.0555L30.8973 11.5165ZM27.871 17.4194C28.1909 17.4194 28.4516 17.6801 28.4516 18V18.5806H24.9677V18C24.9677 17.6801 25.2285 17.4194 25.5484 17.4194H27.871ZM26.129 11.6129V10.4516C26.129 10.1317 26.3897 9.87097 26.7097 9.87097C27.0296 9.87097 27.2903 10.1317 27.2903 10.4516V11.6129C27.2903 11.9328 27.0296 12.1935 26.7097 12.1935C26.3897 12.1935 26.129 11.9328 26.129 11.6129ZM22.6452 6.3871V5.22581C22.6452 2.98452 24.4684 1.16129 26.7097 1.16129C28.951 1.16129 30.7742 2.98452 30.7742 5.22581V6.3871C30.7742 7.99664 29.8295 9.42503 28.4092 10.0777C28.2374 9.29671 27.5417 8.70968 26.7097 8.70968C25.8776 8.70968 25.182 9.29671 25.0101 10.0777C23.5899 9.42503 22.6452 7.99606 22.6452 6.3871ZM20.3226 14.3332C20.3226 12.9989 21.2272 11.8405 22.5221 11.5165L24.3668 11.0555C24.5607 11.153 24.7599 11.2419 24.9683 11.3156V11.6129C24.9683 12.3689 25.4555 13.0076 26.1296 13.248V16.2581H25.549C24.5886 16.2581 23.807 17.0396 23.807 18V18.5806H22.7346L23.2206 15.1792L22.0715 15.0149L21.5611 18.5806H20.3226V14.3332ZM13.4779 11.5165C14.7728 11.8405 15.6774 12.9983 15.6774 14.3332V18.5806H14.4389L13.9297 15.0143L12.7806 15.1786L13.266 18.5806H12.1935V18C12.1935 17.0396 11.412 16.2581 10.4516 16.2581H9.87097V13.248C10.5451 13.0076 11.0323 12.3689 11.0323 11.6129V11.315C11.2401 11.2419 11.4399 11.1525 11.6338 11.0555L13.4779 11.5165ZM10.4516 17.4194C10.7715 17.4194 11.0323 17.6801 11.0323 18V18.5806H7.54839V18C7.54839 17.6801 7.8091 17.4194 8.12903 17.4194H10.4516ZM8.70968 11.6129V10.4516C8.70968 10.1317 8.97039 9.87097 9.29032 9.87097C9.61026 9.87097 9.87097 10.1317 9.87097 10.4516V11.6129C9.87097 11.9328 9.61026 12.1935 9.29032 12.1935C8.97039 12.1935 8.70968 11.9328 8.70968 11.6129ZM5.22581 6.3871V5.22581C5.22581 2.98452 7.04903 1.16129 9.29032 1.16129C11.5316 1.16129 13.3548 2.98452 13.3548 5.22581V6.3871C13.3548 7.99664 12.4101 9.42503 10.9899 10.0777C10.818 9.29671 10.1224 8.70968 9.29032 8.70968C8.45826 8.70968 7.76264 9.29671 7.59077 10.0777C6.17052 9.42503 5.22581 7.99606 5.22581 6.3871ZM2.90323 14.3332C2.90323 12.9989 3.80787 11.8405 5.10271 11.5165L6.94742 11.0555C7.14135 11.153 7.34052 11.2419 7.54897 11.3156V11.6129C7.54897 12.3689 8.03613 13.0076 8.71026 13.248V16.2581H8.12961C7.16923 16.2581 6.38768 17.0396 6.38768 18V18.5806H5.31523L5.80123 15.1792L4.65097 15.0143L4.14174 18.5806H2.90323V14.3332ZM34.8387 21.4839C34.8387 21.8044 34.578 22.0645 34.2581 22.0645H31.9355V23.2258H33.0968V34.8387H2.90323V23.2258H30.7742V22.0645H1.74194C1.422 22.0645 1.16129 21.8044 1.16129 21.4839V20.3226C1.16129 20.0021 1.422 19.7419 1.74194 19.7419H34.2581C34.578 19.7419 34.8387 20.0021 34.8387 20.3226V21.4839Z" fill="#313B4E"/>
<path d="M5.2258 32.5156H30.7742V25.5479H5.2258V32.5156ZM6.38709 26.7091H29.6129V31.3543H6.38709V26.7091Z" fill="#313B4E"/>
</svg>
