<svg width="195" height="37" viewBox="0 0 195 37" fill="none" xmlns="http://www.w3.org/2000/svg">
<rect width="194.19" height="37" rx="4" fill="#313B4E"/>
<path d="M138.924 0L55.8392 37H194.19V0H138.924Z" fill="#46546B"/>
<path d="M80.2576 21.4528C80.2576 21.9307 80.1339 22.3701 79.8864 22.7712C79.6475 23.1723 79.2891 23.4923 78.8112 23.7312C78.3419 23.9701 77.7701 24.0896 77.096 24.0896C76.0805 24.0896 75.2443 23.8421 74.5872 23.3472C73.9301 22.8523 73.5717 22.1611 73.512 21.2736H75.8416C75.8757 21.6149 75.9952 21.8837 76.2 22.08C76.4133 22.2763 76.6821 22.3744 77.0064 22.3744C77.288 22.3744 77.5099 22.2976 77.672 22.144C77.8341 21.9904 77.9152 21.7856 77.9152 21.5296C77.9152 21.2992 77.8384 21.1072 77.6848 20.9536C77.5397 20.8 77.3563 20.6763 77.1344 20.5824C76.9125 20.48 76.6053 20.3605 76.2128 20.224C75.6411 20.0277 75.1717 19.84 74.8048 19.6608C74.4464 19.4731 74.1349 19.2 73.8704 18.8416C73.6144 18.4747 73.4864 18.0011 73.4864 17.4208C73.4864 16.8832 73.6229 16.4181 73.896 16.0256C74.1691 15.6331 74.5445 15.3344 75.0224 15.1296C75.5088 14.9163 76.0635 14.8096 76.6864 14.8096C77.6933 14.8096 78.4912 15.0485 79.08 15.5264C79.6773 16.0043 80.0144 16.6613 80.0912 17.4976H77.7232C77.6805 17.1989 77.5696 16.9643 77.3904 16.7936C77.2197 16.6144 76.9851 16.5248 76.6864 16.5248C76.4304 16.5248 76.2213 16.5931 76.0592 16.7296C75.9056 16.8661 75.8288 17.0667 75.8288 17.3312C75.8288 17.5445 75.8971 17.728 76.0336 17.8816C76.1787 18.0267 76.3579 18.1461 76.5712 18.24C76.7845 18.3339 77.0917 18.4533 77.4928 18.5984C78.0731 18.7947 78.5467 18.9909 78.9136 19.1872C79.2805 19.3749 79.5963 19.6523 79.8608 20.0192C80.1253 20.3861 80.2576 20.864 80.2576 21.4528ZM88.5717 16.8576V24H86.3701V22.7072C86.1653 23.1253 85.8581 23.4581 85.4485 23.7056C85.0474 23.9531 84.5781 24.0768 84.0405 24.0768C83.2213 24.0768 82.5685 23.8037 82.0821 23.2576C81.6042 22.7115 81.3653 21.9605 81.3653 21.0048V16.8576H83.5413V20.736C83.5413 21.2224 83.665 21.6021 83.9125 21.8752C84.1685 22.1397 84.5098 22.272 84.9365 22.272C85.3802 22.272 85.7301 22.1312 85.9861 21.8496C86.2421 21.568 86.3701 21.1669 86.3701 20.6464V16.8576H88.5717ZM94.5346 16.768C95.1234 16.768 95.6482 16.9173 96.109 17.216C96.5783 17.5061 96.9453 17.9285 97.2098 18.4832C97.4829 19.0293 97.6194 19.6779 97.6194 20.4288C97.6194 21.1712 97.4829 21.8197 97.2098 22.3744C96.9453 22.9291 96.5783 23.3557 96.109 23.6544C95.6482 23.9445 95.1234 24.0896 94.5346 24.0896C93.9885 24.0896 93.5191 23.9659 93.1266 23.7184C92.7341 23.4709 92.4482 23.1339 92.269 22.7072V24H90.0802V14.528H92.269V18.1504C92.4482 17.7237 92.7341 17.3867 93.1266 17.1392C93.5191 16.8917 93.9885 16.768 94.5346 16.768ZM93.8306 18.688C93.3698 18.688 92.9901 18.8459 92.6914 19.1616C92.4013 19.4688 92.2562 19.8912 92.2562 20.4288C92.2562 20.9579 92.4013 21.3803 92.6914 21.696C92.9901 22.0117 93.3698 22.1696 93.8306 22.1696C94.2999 22.1696 94.6754 22.016 94.957 21.7088C95.2471 21.4016 95.3922 20.9749 95.3922 20.4288C95.3922 19.8827 95.2471 19.456 94.957 19.1488C94.6754 18.8416 94.2999 18.688 93.8306 18.688ZM108.01 16.7808C108.889 16.7808 109.58 17.0539 110.083 17.6C110.587 18.1376 110.838 18.8885 110.838 19.8528V24H108.662V20.1088C108.662 19.6565 108.539 19.3067 108.291 19.0592C108.052 18.8032 107.724 18.6752 107.306 18.6752C106.87 18.6752 106.525 18.8117 106.269 19.0848C106.021 19.3493 105.898 19.7248 105.898 20.2112V24H103.709V20.1088C103.709 19.6565 103.589 19.3067 103.35 19.0592C103.111 18.8032 102.783 18.6752 102.365 18.6752C101.93 18.6752 101.584 18.8075 101.328 19.072C101.072 19.3365 100.944 19.7163 100.944 20.2112V24H98.7552V16.8576H100.944V18.0736C101.132 17.6725 101.418 17.3568 101.802 17.1264C102.194 16.896 102.651 16.7808 103.171 16.7808C103.717 16.7808 104.199 16.9088 104.618 17.1648C105.036 17.4123 105.351 17.7707 105.565 18.24C105.812 17.7963 106.149 17.4421 106.576 17.1776C107.011 16.9131 107.489 16.7808 108.01 16.7808ZM112.088 14.848C112.088 14.5152 112.207 14.2421 112.446 14.0288C112.685 13.8069 113.001 13.696 113.394 13.696C113.786 13.696 114.102 13.8069 114.341 14.0288C114.58 14.2421 114.699 14.5152 114.699 14.848C114.699 15.1723 114.58 15.4453 114.341 15.6672C114.102 15.8805 113.786 15.9872 113.394 15.9872C113.001 15.9872 112.685 15.8805 112.446 15.6672C112.207 15.4453 112.088 15.1723 112.088 14.848ZM114.482 16.8576V24H112.293V16.8576H114.482ZM120.037 22.1184V24H119.052C118.216 24 117.563 23.7952 117.093 23.3856C116.633 22.9675 116.402 22.2805 116.402 21.3248V18.7008H115.442V16.8576H116.402V15.104H118.591V16.8576H120.025V18.7008H118.591V21.3632C118.591 21.6448 118.647 21.8411 118.757 21.952C118.877 22.0629 119.073 22.1184 119.346 22.1184H120.037Z" fill="#F2F2F2"/>
</svg>
