<svg width="195" height="37" viewBox="0 0 195 37" fill="none" xmlns="http://www.w3.org/2000/svg">
<rect width="194.191" height="37" rx="4" fill="#C8AC48"/>
<mask id="mask0" mask-type="alpha" maskUnits="userSpaceOnUse" x="0" y="0" width="195" height="37">
<rect width="194.191" height="37" rx="4" fill="#A68C2F"/>
</mask>
<g mask="url(#mask0)">
<path d="M138.924 0L55.8394 37H194.191V0H138.924Z" fill="#B89D3B"/>
</g>
<path d="M52.0448 23.0896C51.3877 23.0896 50.7989 22.9829 50.2784 22.7696C49.7579 22.5563 49.3397 22.2405 49.024 21.8224C48.7168 21.4043 48.5547 20.9008 48.5376 20.312H50.8672C50.9013 20.6448 51.0165 20.9008 51.2128 21.08C51.4091 21.2507 51.6651 21.336 51.9808 21.336C52.3051 21.336 52.5611 21.2635 52.7488 21.1184C52.9365 20.9648 53.0304 20.7557 53.0304 20.4912C53.0304 20.2693 52.9536 20.0859 52.8 19.9408C52.6549 19.7957 52.4715 19.6763 52.2496 19.5824C52.0363 19.4885 51.7291 19.3819 51.328 19.2624C50.7477 19.0832 50.2741 18.904 49.9072 18.7248C49.5403 18.5456 49.2245 18.2811 48.96 17.9312C48.6955 17.5813 48.5632 17.1248 48.5632 16.5616C48.5632 15.7253 48.8661 15.0725 49.472 14.6032C50.0779 14.1253 50.8672 13.8864 51.84 13.8864C52.8299 13.8864 53.6277 14.1253 54.2336 14.6032C54.8395 15.0725 55.1637 15.7296 55.2064 16.5744H52.8384C52.8213 16.2843 52.7147 16.0581 52.5184 15.896C52.3221 15.7253 52.0704 15.64 51.7632 15.64C51.4987 15.64 51.2853 15.7125 51.1232 15.8576C50.9611 15.9941 50.88 16.1947 50.88 16.4592C50.88 16.7493 51.0165 16.9755 51.2896 17.1376C51.5627 17.2997 51.9893 17.4747 52.5696 17.6624C53.1499 17.8587 53.6192 18.0464 53.9776 18.2256C54.3445 18.4048 54.6603 18.6651 54.9248 19.0064C55.1893 19.3477 55.3216 19.7872 55.3216 20.3248C55.3216 20.8368 55.1893 21.3019 54.9248 21.72C54.6688 22.1381 54.2933 22.4709 53.7984 22.7184C53.3035 22.9659 52.7189 23.0896 52.0448 23.0896ZM63.7214 15.8576V23H61.5326V22.0272C61.3107 22.3429 61.0078 22.5989 60.6238 22.7952C60.2483 22.9829 59.8302 23.0768 59.3694 23.0768C58.8233 23.0768 58.3411 22.9573 57.923 22.7184C57.5049 22.4709 57.1806 22.1168 56.9502 21.656C56.7198 21.1952 56.6046 20.6533 56.6046 20.0304V15.8576H58.7806V19.736C58.7806 20.2139 58.9043 20.5851 59.1518 20.8496C59.3993 21.1141 59.7321 21.2464 60.1502 21.2464C60.5769 21.2464 60.9139 21.1141 61.1614 20.8496C61.4089 20.5851 61.5326 20.2139 61.5326 19.736V15.8576H63.7214ZM67.4824 16.8688C67.6872 16.536 67.9816 16.2672 68.3656 16.0624C68.7496 15.8576 69.1891 15.7552 69.684 15.7552C70.2728 15.7552 70.8061 15.9045 71.284 16.2032C71.7619 16.5019 72.1373 16.9285 72.4104 17.4832C72.692 18.0379 72.8328 18.6821 72.8328 19.416C72.8328 20.1499 72.692 20.7984 72.4104 21.3616C72.1373 21.9163 71.7619 22.3472 71.284 22.6544C70.8061 22.9531 70.2728 23.1024 69.684 23.1024C69.1805 23.1024 68.7411 23.0043 68.3656 22.808C67.9901 22.6032 67.6957 22.3344 67.4824 22.0016V23H65.2936V13.528H67.4824V16.8688ZM70.6056 19.416C70.6056 18.8699 70.452 18.4432 70.1448 18.136C69.8461 17.8203 69.4749 17.6624 69.0312 17.6624C68.596 17.6624 68.2248 17.8203 67.9176 18.136C67.6189 18.4517 67.4696 18.8827 67.4696 19.4288C67.4696 19.9749 67.6189 20.4059 67.9176 20.7216C68.2248 21.0373 68.596 21.1952 69.0312 21.1952C69.4664 21.1952 69.8376 21.0373 70.1448 20.7216C70.452 20.3973 70.6056 19.9621 70.6056 19.416ZM76.8867 23.1024C76.2638 23.1024 75.7091 22.9957 75.2227 22.7824C74.7363 22.5691 74.3523 22.2789 74.0707 21.912C73.7891 21.5365 73.6312 21.1184 73.5971 20.6576H75.7603C75.7859 20.9051 75.9011 21.1056 76.1059 21.2592C76.3107 21.4128 76.5624 21.4896 76.8611 21.4896C77.1342 21.4896 77.3432 21.4384 77.4883 21.336C77.6419 21.2251 77.7187 21.0843 77.7187 20.9136C77.7187 20.7088 77.612 20.5595 77.3987 20.4656C77.1854 20.3632 76.8398 20.2523 76.3619 20.1328C75.8499 20.0133 75.4232 19.8896 75.0819 19.7616C74.7406 19.6251 74.4462 19.416 74.1987 19.1344C73.9512 18.8443 73.8275 18.456 73.8275 17.9696C73.8275 17.56 73.9384 17.1888 74.1603 16.856C74.3907 16.5147 74.7235 16.2459 75.1587 16.0496C75.6024 15.8533 76.1272 15.7552 76.7331 15.7552C77.6291 15.7552 78.3331 15.9771 78.8451 16.4208C79.3656 16.8645 79.6643 17.4533 79.7411 18.1872H77.7187C77.6846 17.9397 77.5736 17.7435 77.3859 17.5984C77.2067 17.4533 76.9678 17.3808 76.6691 17.3808C76.4131 17.3808 76.2168 17.432 76.0803 17.5344C75.9438 17.6283 75.8755 17.7605 75.8755 17.9312C75.8755 18.136 75.9822 18.2896 76.1955 18.392C76.4174 18.4944 76.7587 18.5968 77.2195 18.6992C77.7486 18.8357 78.1795 18.9723 78.5123 19.1088C78.8451 19.2368 79.1352 19.4501 79.3827 19.7488C79.6387 20.0389 79.771 20.4315 79.7795 20.9264C79.7795 21.3445 79.66 21.72 79.4211 22.0528C79.1907 22.3771 78.8536 22.6331 78.4099 22.8208C77.9747 23.0085 77.467 23.1024 76.8867 23.1024ZM80.6834 19.4288C80.6834 18.6864 80.8327 18.0379 81.1314 17.4832C81.4386 16.9285 81.861 16.5019 82.3986 16.2032C82.9447 15.9045 83.5677 15.7552 84.2674 15.7552C85.1634 15.7552 85.9101 15.9899 86.5074 16.4592C87.1133 16.9285 87.5101 17.5899 87.6978 18.4432H85.3682C85.1719 17.8971 84.7922 17.624 84.229 17.624C83.8279 17.624 83.5079 17.7819 83.269 18.0976C83.0301 18.4048 82.9106 18.8485 82.9106 19.4288C82.9106 20.0091 83.0301 20.4571 83.269 20.7728C83.5079 21.08 83.8279 21.2336 84.229 21.2336C84.7922 21.2336 85.1719 20.9605 85.3682 20.4144H87.6978C87.5101 21.2507 87.1133 21.9077 86.5074 22.3856C85.9015 22.8635 85.1549 23.1024 84.2674 23.1024C83.5677 23.1024 82.9447 22.9531 82.3986 22.6544C81.861 22.3557 81.4386 21.9291 81.1314 21.3744C80.8327 20.8197 80.6834 20.1712 80.6834 19.4288ZM91.0574 17.048C91.3134 16.6555 91.6334 16.3483 92.0174 16.1264C92.4014 15.896 92.8281 15.7808 93.2974 15.7808V18.0976H92.6958C92.1497 18.0976 91.7401 18.2171 91.467 18.456C91.1939 18.6864 91.0574 19.096 91.0574 19.6848V23H88.8686V15.8576H91.0574V17.048ZM95.4444 15.1152C95.0604 15.1152 94.7447 15.0043 94.4972 14.7824C94.2583 14.552 94.1388 14.2704 94.1388 13.9376C94.1388 13.5963 94.2583 13.3147 94.4972 13.0928C94.7447 12.8624 95.0604 12.7472 95.4444 12.7472C95.8199 12.7472 96.1271 12.8624 96.366 13.0928C96.6135 13.3147 96.7372 13.5963 96.7372 13.9376C96.7372 14.2704 96.6135 14.552 96.366 14.7824C96.1271 15.0043 95.8199 15.1152 95.4444 15.1152ZM96.5324 15.8576V23H94.3436V15.8576H96.5324ZM100.307 16.8688C100.512 16.536 100.807 16.2672 101.191 16.0624C101.575 15.8576 102.014 15.7552 102.509 15.7552C103.098 15.7552 103.631 15.9045 104.109 16.2032C104.587 16.5019 104.962 16.9285 105.235 17.4832C105.517 18.0379 105.658 18.6821 105.658 19.416C105.658 20.1499 105.517 20.7984 105.235 21.3616C104.962 21.9163 104.587 22.3472 104.109 22.6544C103.631 22.9531 103.098 23.1024 102.509 23.1024C102.006 23.1024 101.566 23.0043 101.191 22.808C100.815 22.6032 100.521 22.3344 100.307 22.0016V23H98.1186V13.528H100.307V16.8688ZM103.431 19.416C103.431 18.8699 103.277 18.4432 102.97 18.136C102.671 17.8203 102.3 17.6624 101.856 17.6624C101.421 17.6624 101.05 17.8203 100.743 18.136C100.444 18.4517 100.295 18.8827 100.295 19.4288C100.295 19.9749 100.444 20.4059 100.743 20.7216C101.05 21.0373 101.421 21.1952 101.856 21.1952C102.291 21.1952 102.663 21.0373 102.97 20.7216C103.277 20.3973 103.431 19.9621 103.431 19.416ZM113.539 19.3136C113.539 19.5184 113.526 19.7317 113.501 19.9536H108.547C108.581 20.3973 108.722 20.7387 108.969 20.9776C109.225 21.208 109.537 21.3232 109.904 21.3232C110.45 21.3232 110.83 21.0928 111.043 20.632H113.373C113.253 21.1013 113.035 21.5237 112.72 21.8992C112.413 22.2747 112.024 22.5691 111.555 22.7824C111.086 22.9957 110.561 23.1024 109.981 23.1024C109.281 23.1024 108.658 22.9531 108.112 22.6544C107.566 22.3557 107.139 21.9291 106.832 21.3744C106.525 20.8197 106.371 20.1712 106.371 19.4288C106.371 18.6864 106.52 18.0379 106.819 17.4832C107.126 16.9285 107.553 16.5019 108.099 16.2032C108.645 15.9045 109.272 15.7552 109.981 15.7552C110.672 15.7552 111.286 15.9003 111.824 16.1904C112.361 16.4805 112.779 16.8944 113.078 17.432C113.385 17.9696 113.539 18.5968 113.539 19.3136ZM111.299 18.7376C111.299 18.3621 111.171 18.0635 110.915 17.8416C110.659 17.6197 110.339 17.5088 109.955 17.5088C109.588 17.5088 109.277 17.6155 109.021 17.8288C108.773 18.0421 108.619 18.3451 108.56 18.7376H111.299ZM125.445 23H123.256L119.595 17.4576V23H117.406V14.0144H119.595L123.256 19.5824V14.0144H125.445V23ZM130.282 23.1024C129.583 23.1024 128.951 22.9531 128.388 22.6544C127.833 22.3557 127.394 21.9291 127.07 21.3744C126.754 20.8197 126.596 20.1712 126.596 19.4288C126.596 18.6949 126.758 18.0507 127.082 17.496C127.407 16.9328 127.85 16.5019 128.414 16.2032C128.977 15.9045 129.608 15.7552 130.308 15.7552C131.008 15.7552 131.639 15.9045 132.202 16.2032C132.766 16.5019 133.209 16.9328 133.534 17.496C133.858 18.0507 134.02 18.6949 134.02 19.4288C134.02 20.1627 133.854 20.8112 133.521 21.3744C133.196 21.9291 132.748 22.3557 132.177 22.6544C131.614 22.9531 130.982 23.1024 130.282 23.1024ZM130.282 21.208C130.7 21.208 131.055 21.0544 131.345 20.7472C131.643 20.44 131.793 20.0005 131.793 19.4288C131.793 18.8571 131.648 18.4176 131.358 18.1104C131.076 17.8032 130.726 17.6496 130.308 17.6496C129.881 17.6496 129.527 17.8032 129.246 18.1104C128.964 18.4091 128.823 18.8485 128.823 19.4288C128.823 20.0005 128.96 20.44 129.233 20.7472C129.514 21.0544 129.864 21.208 130.282 21.208ZM145.434 15.8576L143.501 23H141.082L139.956 18.3664L138.791 23H136.384L134.439 15.8576H136.628L137.639 20.9648L138.842 15.8576H141.159L142.375 20.9392L143.373 15.8576H145.434Z" fill="#F2F2F2"/>
</svg>
