<svg width="76" height="76" viewBox="0 0 76 76" fill="none" xmlns="http://www.w3.org/2000/svg">
<g clip-path="url(#clip0)">
<path d="M28.9452 39.3184H22.5517C19.8656 39.3184 17.2078 38.4241 15.0678 36.8003L6.69576 30.4476C2.8015 27.4927 1.28031 22.4109 2.9106 17.8022C4.46875 13.3975 8.65498 10.4007 13.3273 10.345C17.8928 10.2908 20.4868 10.4351 20.5948 10.4414L20.309 15.4664C20.284 15.4651 17.7603 15.3263 13.3872 15.3779C10.8162 15.4085 8.51278 17.0574 7.65555 19.4809C6.75854 22.0165 7.59543 24.8125 9.73813 26.4383L18.11 32.791C19.3799 33.7547 20.9573 34.2853 22.5514 34.2853H28.9449V39.3184H28.9452Z" fill="#FFD064"/>
<path d="M15.0678 34.1487L6.69581 27.796C4.21379 25.9126 2.69779 23.1649 2.34525 20.2267C1.88094 24.1079 3.4762 28.0047 6.69581 30.4477L15.0678 36.8003C17.2077 38.4241 19.8656 39.3184 22.5518 39.3184H28.9453V36.6667H22.5518C19.8656 36.6667 17.2077 35.7724 15.0678 34.1487V34.1487Z" fill="#ECBE6B"/>
<path d="M47.0781 39.3184H53.4716C56.1578 39.3184 58.8155 38.4241 60.9556 36.8003L69.3276 30.4476C73.2218 27.4927 74.743 22.4109 73.1127 17.8022C71.5546 13.3975 67.3683 10.4007 62.696 10.345C58.1305 10.2908 55.5365 10.4351 55.4285 10.4414L55.7144 15.4664C55.7393 15.4651 58.263 15.3263 62.6362 15.3779C65.2071 15.4085 67.5106 17.0574 68.3678 19.4809C69.2648 22.0165 68.4279 24.8125 66.2852 26.4383L57.9133 32.791C56.6434 33.7547 55.066 34.2853 53.4719 34.2853H47.0784V39.3184H47.0781Z" fill="#FFD064"/>
<path d="M73.1126 17.8022C72.3834 15.7404 71.078 13.9872 69.4165 12.6995C70.1333 13.6234 70.7128 14.6666 71.1154 15.8051C72.7457 20.4138 71.2245 25.4956 67.3302 28.4505L58.9582 34.8032C56.8183 36.427 54.1604 37.3213 51.4743 37.3213H47.0779V39.3184H53.4714C56.1575 39.3184 58.8153 38.4241 60.9553 36.8003L69.3273 30.4476C73.2217 27.4927 74.7429 22.4109 73.1126 17.8022V17.8022Z" fill="#ECBE6B"/>
<path d="M46.1629 57.753L43.1856 55.4965C41.906 54.5267 41.1543 53.0137 41.1543 51.4082V41.3919H34.411V51.4082C34.411 53.0137 33.6593 54.5267 32.3798 55.4965L29.4024 57.753C28.4744 58.4563 28.9718 59.9361 30.1361 59.9361H45.429C46.5935 59.9359 47.0909 58.4563 46.1629 57.753Z" fill="#FFD064"/>
<path d="M46.1629 57.753L43.1855 55.4965C41.906 54.5267 41.1543 53.0137 41.1543 51.4082V41.3919H37.6592V51.4082C37.6592 53.0137 38.4109 54.5267 39.6904 55.4965L42.6678 57.753C43.5958 58.4563 43.0984 59.9361 41.934 59.9361H45.4292C46.5935 59.9359 47.0909 58.4563 46.1629 57.753Z" fill="#ECBE6B"/>
<path d="M56.9237 3.02337H19.0999C18.3752 3.02337 17.7878 3.61073 17.7878 4.33541V17.8796C17.7878 23.6786 19.4025 29.363 22.4512 34.296L25.9439 39.9476C31.418 48.8054 44.279 48.8659 49.8362 40.06L53.4168 34.3861C56.5649 29.3976 58.2357 23.6195 58.2357 17.7208V4.33541C58.2357 3.61088 57.6483 3.02337 56.9237 3.02337V3.02337Z" fill="#FFE07D"/>
<path d="M56.9237 3.02337H50.861V10.3461C50.861 16.2448 49.1902 22.0231 46.0422 27.0116L42.4615 32.6855C38.4972 38.9674 30.8165 40.7357 24.7515 38.0184L25.9439 39.9478C31.4179 48.8055 44.279 48.8661 49.8362 40.0602L53.4168 34.3863C56.5649 29.3977 58.2357 23.6197 58.2357 17.7209V4.33541C58.2357 3.61088 57.6483 3.02337 56.9237 3.02337V3.02337Z" fill="#FFD064"/>
<path d="M38 68.2441C30.82 68.2441 23.8528 66.1005 17.8515 62.0449C12.0158 58.1012 7.36513 52.5547 4.40232 46.005C4.14181 45.4295 4.39742 44.7519 4.97291 44.4916C5.54855 44.231 6.22602 44.4868 6.48623 45.0621C12.2281 57.755 24.5981 65.9566 38 65.9566C51.4018 65.9566 63.7715 57.755 69.5135 45.0621C69.7737 44.487 70.4514 44.2312 71.0269 44.4916C71.6024 44.7519 71.858 45.4295 71.5975 46.005C68.6346 52.5547 63.9839 58.1013 58.1483 62.0449C52.1469 66.1003 45.1799 68.2441 38 68.2441Z" fill="#0DC183"/>
<path d="M74.6001 43.3213C73.351 46.2776 71.2214 48.2021 69.8435 47.6199C68.4655 47.0377 68.361 44.1692 69.61 41.2129C70.5148 39.0711 73.4968 35.6662 75.0713 33.9525C75.4113 33.5823 76.0274 33.8426 75.999 34.3445C75.8679 36.668 75.505 41.1796 74.6001 43.3213V43.3213Z" fill="#AAD880"/>
<path d="M75.0714 33.9527C74.6347 34.4279 74.0895 35.0337 73.5106 35.7063C73.3035 37.9855 72.9345 40.7021 72.2918 42.2234C71.4119 44.306 70.0951 45.8751 68.9119 46.418C69.0888 47.0065 69.3998 47.4324 69.8436 47.62C71.2216 48.2022 73.3512 46.2777 74.6003 43.3214C75.5052 41.1796 75.8679 36.6682 75.9992 34.3447C76.0275 33.8427 75.4115 33.5824 75.0714 33.9527V33.9527Z" fill="#80CB8E"/>
<path d="M66.2334 49.8939C66.3272 52.9238 65.2584 55.4155 63.8462 55.4593C62.434 55.5031 61.2129 53.0822 61.1189 50.0523C61.051 47.8572 62.2674 43.7588 62.9429 41.6671C63.0889 41.2152 63.7202 41.1956 63.8937 41.6377C64.6975 43.6836 66.1654 47.6988 66.2334 49.8939Z" fill="#AAD880"/>
<path d="M57.6926 55.8806C58.8865 58.6669 58.8014 61.3769 57.5026 61.9334C56.2038 62.4899 54.1831 60.6822 52.9892 57.8958C52.1243 55.8772 51.7602 51.6174 51.6251 49.4235C51.596 48.9496 52.1765 48.7009 52.4995 49.0489C53.9949 50.66 56.8277 53.862 57.6926 55.8806V55.8806Z" fill="#AAD880"/>
<path d="M57.6926 55.8805C56.8277 53.8619 53.9949 50.66 52.4995 49.0489C52.1765 48.7008 51.596 48.9496 51.6251 49.4235C51.6637 50.0507 51.7211 50.8469 51.8035 51.7109C53.1996 53.3286 54.7593 55.3111 55.3624 56.7186C56.1987 58.6704 56.4065 60.5835 56.0102 61.7463C56.5499 62.0393 57.0669 62.1198 57.5026 61.9332C58.8014 61.3769 58.8865 58.6669 57.6926 55.8805V55.8805Z" fill="#80CB8E"/>
<path d="M65.3067 62.3707C62.4444 61.3727 60.5011 59.4821 60.9663 58.1478C61.4315 56.8136 64.129 56.5409 66.9913 57.539C69.065 58.2621 72.4555 60.8663 74.1664 62.2464C74.536 62.5445 74.328 63.1409 73.8532 63.1446C71.6549 63.162 67.3804 63.0937 65.3067 62.3707Z" fill="#AAD880"/>
<path d="M56.2157 68.622C53.3533 67.624 51.41 65.7334 51.8752 64.3991C52.3404 63.0649 55.0379 62.7922 57.9003 63.7903C59.9739 64.5134 63.3644 67.1176 65.0753 68.4977C65.4449 68.7958 65.2369 69.3922 64.7621 69.3959C62.564 69.4133 58.2895 69.345 56.2157 68.622V68.622Z" fill="#AAD880"/>
<path d="M74.1663 62.2464C73.471 61.6856 72.4984 60.9227 71.4496 60.1659C69.1391 60.1627 65.4487 60.0454 63.5681 59.3898C62.5776 59.0444 61.6974 58.5921 60.9886 58.0929C60.9812 58.1113 60.9725 58.1289 60.966 58.1478C60.5008 59.4819 62.4442 61.3726 65.3065 62.3707C67.3802 63.0937 71.6549 63.162 73.8529 63.1448C74.3279 63.1411 74.5359 62.5447 74.1663 62.2464V62.2464Z" fill="#80CB8E"/>
<path d="M65.0753 68.4979C64.38 67.9371 63.4075 67.1741 62.3586 66.4174C60.048 66.4141 56.3577 66.2968 54.4772 65.6412C53.4866 65.2958 52.6064 64.8435 51.8978 64.3443C51.8903 64.3627 51.8817 64.3805 51.8752 64.3992C51.41 65.7334 53.3533 67.624 56.2157 68.6221C58.2893 69.3451 62.564 69.4134 64.7621 69.3961C65.2368 69.3923 65.4448 68.7959 65.0753 68.4979Z" fill="#80CB8E"/>
<path d="M1.4008 43.3213C2.6499 46.2776 4.77953 48.2021 6.15748 47.6199C7.53542 47.0377 7.63992 44.1692 6.39097 41.2129C5.48609 39.0711 2.50413 35.6662 0.929657 33.9525C0.589586 33.5823 -0.0264294 33.8426 0.00192218 34.3445C0.132992 36.668 0.495922 41.1796 1.4008 43.3213V43.3213Z" fill="#AAD880"/>
<path d="M6.38999 41.2129C5.48512 39.0711 2.50316 35.6662 0.92868 33.9525C0.58861 33.5823 -0.0274059 33.8426 0.000945619 34.3445C0.0374612 34.9919 0.0920863 35.809 0.171352 36.6974C1.68334 38.4524 3.43148 40.6694 4.08773 42.2225C4.95267 44.2698 5.16805 46.2743 4.76134 47.5072C5.26454 47.7423 5.74429 47.794 6.1565 47.6199C7.53459 47.0377 7.63909 44.1691 6.38999 41.2129V41.2129Z" fill="#80CB8E"/>
<path d="M9.76672 49.8939C9.67291 52.9238 10.7417 55.4155 12.1539 55.4593C13.5661 55.5031 14.7872 53.0822 14.8811 50.0523C14.9491 47.8572 13.7327 43.7588 13.0571 41.6671C12.9112 41.2152 12.2799 41.1956 12.1064 41.6377C11.3026 43.6836 9.8347 47.6988 9.76672 49.8939V49.8939Z" fill="#AAD880"/>
<path d="M66.2336 49.8939C66.1656 47.6988 64.6977 43.6836 63.894 41.6377C63.7203 41.1958 63.089 41.2154 62.9431 41.6671C62.7442 42.283 62.4986 43.0732 62.2524 43.937C62.9608 45.9519 63.6878 48.3644 63.7352 49.8939C63.7998 51.979 63.3138 53.8091 62.544 54.7621C62.9348 55.2182 63.38 55.4737 63.8462 55.4593C65.2586 55.4157 66.3275 52.9238 66.2336 49.8939V49.8939Z" fill="#80CB8E"/>
<path d="M13.0571 41.6671C12.9112 41.2152 12.2799 41.1958 12.1062 41.6377C11.8625 42.2582 11.5577 43.0602 11.2493 43.9371C11.839 46.0077 12.4306 48.5037 12.3826 50.0525C12.3197 52.0821 11.7507 53.8369 10.9578 54.7622C11.3064 55.194 11.7135 55.4458 12.1539 55.4595C13.5661 55.5032 14.7872 53.0824 14.8811 50.0525C14.9491 47.8574 13.7327 43.7589 13.0571 41.6671Z" fill="#80CB8E"/>
<path d="M18.3075 55.8806C17.1136 58.6669 17.1986 61.3769 18.4975 61.9334C19.7963 62.4899 21.817 60.6822 23.0108 57.8958C23.8758 55.8772 24.2399 51.6174 24.375 49.4235C24.4041 48.9496 23.8235 48.7009 23.5005 49.0489C22.0052 50.66 19.1724 53.862 18.3075 55.8806V55.8806Z" fill="#AAD880"/>
<path d="M23.5005 49.0489C23.034 49.5515 22.4373 50.2091 21.8106 50.9373C21.601 53.0438 21.2431 55.4901 20.6486 56.8775C19.8502 58.7408 18.6823 60.1652 17.6074 60.7388C17.7685 61.3239 18.0654 61.7482 18.4973 61.9333C19.7961 62.4898 21.8168 60.6821 23.0107 57.8956C23.8756 55.877 24.2398 51.6173 24.3748 49.4234C24.4041 48.9496 23.8235 48.7008 23.5005 49.0489V49.0489Z" fill="#80CB8E"/>
<path d="M10.6933 62.3707C13.5556 61.3727 15.4989 59.4821 15.0337 58.1478C14.5685 56.8136 11.871 56.5409 9.00866 57.539C6.93499 58.2621 3.54453 60.8663 1.83364 62.2464C1.46418 62.5445 1.67199 63.1409 2.14684 63.1446C4.34505 63.162 8.61961 63.0937 10.6933 62.3707V62.3707Z" fill="#AAD880"/>
<path d="M19.7846 68.622C22.6469 67.624 24.5903 65.7334 24.1251 64.3991C23.6599 63.0649 20.9623 62.7922 18.1 63.7903C16.0263 64.5134 12.6358 67.1176 10.9249 68.4977C10.5555 68.7958 10.7633 69.3922 11.2381 69.3959C13.4362 69.4133 17.7108 69.345 19.7846 68.622Z" fill="#AAD880"/>
<path d="M15.034 58.1478C14.8436 57.6017 14.2788 57.2338 13.482 57.0577C13.0426 58.2207 11.3878 59.5136 9.18947 60.28C7.81197 60.7603 5.46369 60.9515 3.39774 61.0209C2.80191 61.4739 2.26456 61.899 1.83395 62.2465C1.46434 62.5446 1.6723 63.141 2.14715 63.1447C4.34521 63.1619 8.61977 63.0936 10.6936 62.3706C13.5559 61.3728 15.4992 59.4822 15.034 58.1478Z" fill="#80CB8E"/>
<path d="M24.1251 64.3993C23.9346 63.8532 23.3698 63.4852 22.573 63.3091C22.1336 64.4722 20.4788 65.765 18.2805 66.5314C16.903 67.0118 14.5547 67.203 12.4887 67.2723C11.8929 67.7253 11.3556 68.1504 10.9249 68.4979C10.5555 68.796 10.7633 69.3924 11.2381 69.3961C13.4362 69.4133 17.7108 69.3451 19.7846 68.6222C22.6469 67.6241 24.5903 65.7334 24.1251 64.3993V64.3993Z" fill="#80CB8E"/>
<path d="M37.6592 30.7325C42.386 30.7325 46.2178 26.9006 46.2178 22.1738C46.2178 17.4471 42.386 13.6152 37.6592 13.6152C32.9324 13.6152 29.1006 17.4471 29.1006 22.1738C29.1006 26.9006 32.9324 30.7325 37.6592 30.7325Z" fill="#ECBE6B"/>
<path d="M40.8458 14.2307C41.2413 15.2158 41.4612 16.2905 41.4612 17.4172C41.4612 22.144 37.6294 25.9758 32.9026 25.9758C31.7759 25.9758 30.7012 25.7559 29.7161 25.3604C30.9802 28.5086 34.059 30.7326 37.6593 30.7326C42.3861 30.7326 46.2179 26.9008 46.2179 22.174C46.218 18.5736 43.994 15.4949 40.8458 14.2307V14.2307Z" fill="#EAB14D"/>
<path d="M38.2839 18.3675L39.1801 20.183C39.2616 20.348 39.4189 20.4624 39.601 20.4888L41.6046 20.7799C42.0632 20.8466 42.2462 21.41 41.9144 21.7335L40.4646 23.1467C40.3328 23.2751 40.2727 23.4602 40.3039 23.6415L40.6462 25.6371C40.7246 26.0937 40.2452 26.4419 39.8351 26.2264L38.043 25.2842C37.8802 25.1986 37.6856 25.1986 37.5228 25.2842L35.7307 26.2264C35.3205 26.4419 34.8412 26.0937 34.9196 25.6371L35.2619 23.6415C35.2931 23.4601 35.233 23.2751 35.1011 23.1467L33.6514 21.7335C33.3196 21.41 33.5026 20.8466 33.9611 20.7799L35.9648 20.4888C36.1469 20.4624 36.3042 20.348 36.3857 20.183L37.2818 18.3675C37.4864 17.952 38.079 17.952 38.2839 18.3675V18.3675Z" fill="#FFE07D"/>
<path d="M41.9143 21.7337C42.2461 21.4102 42.0631 20.8467 41.6045 20.7801L40.8741 20.674L38.927 22.5719C38.7318 22.762 38.6429 23.036 38.6889 23.3046L39.1262 25.8538L39.835 26.2264C40.2451 26.4419 40.7244 26.0937 40.6461 25.6371L40.3038 23.6415C40.2726 23.4601 40.3327 23.2752 40.4645 23.1468L41.9143 21.7337Z" fill="#FFD064"/>
<path d="M49.1161 72.9766H26.9073C26.2056 72.9766 25.637 72.4078 25.637 71.7063V61.2064C25.637 60.5047 26.2058 59.9361 26.9073 59.9361H49.1161C49.8177 59.9361 50.3864 60.5049 50.3864 61.2064V71.7063C50.3865 72.4078 49.8177 72.9766 49.1161 72.9766Z" fill="#407093"/>
<path d="M49.1195 59.936H46.7135V68.0367C46.7135 68.7364 46.1463 69.3036 45.4465 69.3036H25.637V71.7096C25.637 72.4094 26.2041 72.9765 26.9039 72.9765H49.1195C49.8192 72.9765 50.3864 72.4094 50.3864 71.7096V61.2029C50.3865 60.5032 49.8192 59.936 49.1195 59.936V59.936Z" fill="#365E7D"/>
</g>
<defs>
<clipPath id="clip0">
<rect width="76" height="76" fill="white"/>
</clipPath>
</defs>
</svg>
