<svg width="24" height="24" viewBox="0 0 24 24" fill="none" xmlns="http://www.w3.org/2000/svg">
<path d="M12 11.0805C9.49171 11.0805 8.98343 7.24644 8.98343 7.24644C8.68508 5.25139 9.59116 3 11.9669 3C14.3536 3 15.2597 5.25139 14.9613 7.24644C14.9613 7.24644 14.5083 11.0805 12 11.0805ZM12 13.9449L15.0055 11.9164C17.6464 11.9164 20 14.5133 20 16.9653V19.7406C20 19.7406 15.9669 21 12 21C7.96685 21 4 19.7406 4 19.7406V16.9653C4 14.4576 6.14365 11.9721 8.93923 11.9721L12 13.9449Z" fill="#D3D3FD"/>
</svg>
