<svg width="50" height="50" viewBox="0 0 50 50" fill="none" xmlns="http://www.w3.org/2000/svg">
<path d="M27.1 4.105V8.347C35.395 9.376 41.8 16.432 41.8 25C41.8 31.741 37.768 37.6 31.888 40.288L27.1 35.5V46H37.6L35.038 43.438C41.611 39.847 46 32.896 46 25C46 14.122 37.705 5.155 27.1 4.105ZM22.9 4C18.805 4.42 14.92 6.016 11.728 8.641L14.71 11.623C17.0937 9.78546 19.9176 8.6052 22.9 8.2V4ZM8.62 11.728C6.016 14.92 4.42 18.805 4 22.9H8.2C8.599 19.918 9.775 17.083 11.623 14.71L8.62 11.728ZM12.4 16.6V20.8H18.7V22.9H16.6C14.29 22.9 12.4 24.79 12.4 27.1V33.4H22.9V29.2H16.6V27.1H18.7C21.031 27.1 22.9 25.231 22.9 22.9V20.8C22.9 19.6861 22.4575 18.6178 21.6698 17.8302C20.8822 17.0425 19.8139 16.6 18.7 16.6H12.4ZM25 16.6V27.1H31.3V33.4H35.5V27.1H37.6V22.9H35.5V16.6H31.3V22.9H29.2V16.6H25ZM4 27.1C4.42 31.195 6.037 35.08 8.662 38.272L11.644 35.29C9.80022 32.9078 8.61279 30.084 8.2 27.1H4ZM14.731 38.377L11.728 41.359C14.9187 43.9641 18.8026 45.5775 22.9 46V41.8C19.9215 41.404 17.1021 40.2226 14.731 38.377Z" fill="#C8AC48"/>
</svg>
