<svg id="Layer_1" enable-background="new 0 0 464.058 464.058" height="512" viewBox="0 0 464.058 464.058" width="512" xmlns="http://www.w3.org/2000/svg"><path d="m464.039 232.058c0 132.03-109.58 236.27-240 231.86-124.122-4.191-224-106.183-224-231.86 0-130.46 107.93-236.33 240-231.86 124.663 4.214 224 106.662 224 231.86z" fill="#fff0a6"/><path d="m461.673 240.424-221.263 221.263c-1.463 1.463-3.436 2.319-5.505 2.348-21.694.298-43.593-2.496-64.742-8.343-5.922-1.637-7.899-9.038-3.554-13.383l275.691-275.692c4.339-4.339 11.742-2.38 13.379 3.534 5.641 20.385 8.599 42.03 8.339 64.754-.024 2.073-.878 4.052-2.345 5.519z" fill="#fff8d6"/><path d="m249.112 13.984-235.134 235.134c-4.909 4.909-13.302 1.661-13.655-5.272-6.962-136.849 106.25-250.791 243.531-243.516 6.926.367 10.163 8.75 5.258 13.654z" fill="#fff8d6"/><path d="m374.408 60.259-314.149 314.149c-3.423 3.423-9.063 3.034-12.02-.799-13.982-18.117-25.352-38.362-33.519-60.174-1.1-2.938-.378-6.25 1.84-8.468l288.389-288.39c2.227-2.227 5.552-2.932 8.502-1.828 21.799 8.164 42.041 19.515 60.156 33.487 3.834 2.958 4.225 8.599.801 12.023z" fill="#fff8d6"/><path d="m429.6 122.147-307.46 307.46c-2.595 2.595-6.632 3.105-9.775 1.21-10.794-6.51-21.019-13.878-30.578-22.01-3.566-3.033-3.797-8.46-.487-11.771l315.728-315.737c3.31-3.31 8.737-3.079 11.771.487 8.129 9.556 15.501 19.786 22.012 30.587 1.894 3.143 1.383 7.179-1.211 9.774z" fill="#fff8d6"/><g fill="#ffe773"><path d="m51.369 136.988-20.785-12.001c-1.878-1.084-2.567-3.477-1.516-5.374 1.329-2.398 2.699-4.769 4.112-7.112 1.119-1.855 3.532-2.451 5.408-1.369l20.781 11.995c9.186 5.301 1.145 19.159-8 13.861z"/><path d="m435.01 344.503c-1.329 2.398-2.699 4.769-4.112 7.112-1.119 1.855-3.532 2.451-5.408 1.369l-20.781-11.995c-9.176-5.295-1.164-19.148 8-13.86l20.785 12.001c1.878 1.083 2.567 3.476 1.516 5.373z"/><path d="m59.369 340.988-20.781 11.995c-1.876 1.083-4.289.486-5.408-1.369-1.413-2.343-2.784-4.714-4.112-7.112-1.051-1.897-.362-4.289 1.516-5.374l20.785-12.001c9.179-5.296 17.163 8.573 8 13.861z"/><path d="m435.01 119.613c1.051 1.897.362 4.289-1.516 5.374l-20.785 12.001c-9.152 5.302-17.181-8.562-8-13.86l20.781-11.995c1.876-1.083 4.289-.486 5.408 1.369 1.413 2.342 2.783 4.713 4.112 7.111z"/><path d="m236.115.095c2.178.039 3.924 1.824 3.924 4.002v23.961c0 10.588-16 10.585-16 0v-23.961c0-2.178 1.746-3.962 3.924-4.002 2.741-.05 5.409-.05 8.152 0z"/><path d="m240.039 436.058v23.963c0 2.175-1.738 3.96-3.913 3.999-2.722.049-5.397.05-8.172 0-2.175-.039-3.915-1.824-3.915-4v-23.963c0-10.587 16-10.585 16 .001z"/><circle cx="232.039" cy="232.058" r="160"/></g><path d="m273.357 102.063c-107.693-.869-185.444 102.654-154.66 205.818 4.022 13.479-14.277 21.719-21.818 9.846-15.917-25.059-25.055-54.848-24.836-86.787.721-105.533 102.821-182.164 204.729-152.544 13.381 3.889 10.519 23.779-3.415 23.667z" fill="#ffd947"/><path d="m282.085 198.21c-13.839-.288-28.301 9.088-29.039 27.527-.178 4.415 3.258 8.137 7.673 8.314 4.412.174 8.137-3.258 8.313-7.673.368-9.164 7.104-12.29 12.732-12.171 5.662.113 12.274 3.562 12.274 12.909 0 50.8-33.427 80.883-81.854 80.296v-97.985h9.184c4.418 0 8-3.582 8-8s-3.582-8-8-8h-9.184v-18.562c0-20.532-18.622-33.001-36.494-29.122-4.318.937-7.059 5.197-6.122 9.514.937 4.318 5.198 7.059 9.514 6.122 4.268-.924 8.998.175 12.345 2.874 2.17 1.75 4.756 5.011 4.756 10.612v18.562h-19.146c-4.418 0-8 3.582-8 8s3.582 8 8 8h19.146v105.63c0 4.182 3.22 7.658 7.39 7.977 61.403 4.695 106.465-33.086 106.465-95.918 0-18.609-14.062-28.628-27.953-28.906z" fill="#fff8d6"/></svg>