<svg width="26" height="26" viewBox="0 0 26 26" fill="none" xmlns="http://www.w3.org/2000/svg">
<g clip-path="url(#clip0)">
<path d="M25.4949 20.6742L22.6125 18.7524L20.0502 17.0445C19.5557 16.7155 18.8911 16.8234 18.5261 17.292L16.9405 19.3303C16.5999 19.7726 15.9873 19.8997 15.4989 19.6293C14.423 19.0308 13.1508 18.4674 10.3438 15.6567C7.53672 12.846 6.96965 11.5774 6.3712 10.5016C6.10079 10.0132 6.2279 9.40052 6.6702 9.05999L8.70848 7.47446C9.17704 7.10945 9.28494 6.44488 8.95594 5.95033L7.30049 3.4669L5.32629 0.505574C4.99027 0.00152447 4.31763 -0.149802 3.79815 0.161738L1.52134 1.52764C0.906035 1.89016 0.453732 2.47556 0.258125 3.16247C-0.364497 5.43252 -0.490027 10.4402 7.53535 18.4655C15.5607 26.4909 20.5679 26.365 22.8379 25.7423C23.5249 25.5468 24.1103 25.0944 24.4728 24.4791L25.8387 22.2023C26.1503 21.6828 25.9989 21.0102 25.4949 20.6742Z" fill="#F2F2F2"/>
<path d="M14.7928 4.03441C18.9996 4.03908 22.4088 7.44819 22.4134 11.655C22.4134 11.9026 22.6141 12.1033 22.8617 12.1033C23.1093 12.1033 23.31 11.9026 23.31 11.655C23.3048 6.95328 19.4946 3.14306 14.7929 3.13788C14.5453 3.13788 14.3446 3.33856 14.3446 3.58617C14.3446 3.83368 14.5452 4.03441 14.7928 4.03441Z" fill="#F2F2F2"/>
<path d="M14.7929 6.72398C17.5149 6.72718 19.7207 8.93299 19.7239 11.6549C19.7239 11.9025 19.9245 12.1032 20.1721 12.1032C20.4197 12.1032 20.6204 11.9025 20.6204 11.6549C20.6167 8.43803 18.0099 5.8311 14.7929 5.82739C14.5453 5.82739 14.3446 6.02808 14.3446 6.27568C14.3446 6.52329 14.5453 6.72398 14.7929 6.72398Z" fill="#F2F2F2"/>
<path d="M14.7928 9.41362C16.0301 9.4151 17.0327 10.4177 17.0342 11.655C17.0342 11.9025 17.2349 12.1033 17.4825 12.1033C17.7301 12.1033 17.9308 11.9026 17.9308 11.655C17.9288 9.9228 16.5251 8.51907 14.7929 8.51709C14.5453 8.51709 14.3446 8.71777 14.3446 8.96538C14.3446 9.21294 14.5452 9.41362 14.7928 9.41362Z" fill="#F2F2F2"/>
</g>
<defs>
<clipPath id="clip0">
<rect width="26" height="26" fill="white"/>
</clipPath>
</defs>
</svg>
