<svg width="98" height="98" viewBox="0 0 98 98" fill="none" xmlns="http://www.w3.org/2000/svg">
<circle cx="49" cy="49" r="42" fill="#46546B"/>
<circle cx="49" cy="49" r="47.5" stroke="#293852" stroke-width="3"/>
<path d="M55 34H43C38.0365 34 34 38.0365 34 43V62.5C34 62.8978 34.158 63.2794 34.4393 63.5607C34.7206 63.842 35.1022 64 35.5 64H55C59.9635 64 64 59.9635 64 55V43C64 38.0365 59.9635 34 55 34ZM61 55C61 58.309 58.309 61 55 61H37V43C37 39.691 39.691 37 43 37H55C58.309 37 61 39.691 61 43V55Z" fill="#F2F2F2"/>
<path d="M41.5 44.5H56.5V47.5H41.5V44.5ZM41.5 50.5H52V53.5H41.5V50.5Z" fill="#F2F2F2"/>
</svg>
