<svg width="164" height="37" viewBox="0 0 164 37" fill="none" xmlns="http://www.w3.org/2000/svg">
<rect width="164" height="37" rx="4" fill="#C8AC48"/>
<mask id="mask0" mask-type="alpha" maskUnits="userSpaceOnUse" x="0" y="0" width="164" height="37">
<rect width="164" height="37" rx="4" fill="#A68C2F"/>
</mask>
<g mask="url(#mask0)">
<path d="M117.326 0L47.1581 37H164V0H117.326Z" fill="#B89D3B"/>
</g>
<path d="M58.2576 12.9504V14.6912H55.8V22H53.5984V14.6912H51.1664V12.9504H58.2576ZM61.369 16.2016C61.6421 15.7664 61.9919 15.4208 62.4186 15.1648C62.8538 14.9088 63.3231 14.7808 63.8266 14.7808V17.1232H63.1994C62.6191 17.1232 62.1669 17.2469 61.8426 17.4944C61.5269 17.7419 61.369 18.16 61.369 18.7488V22H59.1802V14.8576H61.369V16.2016ZM66.3939 14.8576L68.1091 19.2352L69.7091 14.8576H72.1283L67.6739 25.4048H65.2675L66.9443 21.7312L63.9491 14.8576H66.3939ZM81.0241 20.3488H77.6321L77.0689 22H74.7649L78.0801 13.0144H80.6017L83.9169 22H81.5873L81.0241 20.3488ZM80.4609 18.6848L79.3345 15.3568L78.1953 18.6848H80.4609ZM87.4813 14.768C88.0274 14.768 88.4968 14.8917 88.8893 15.1392C89.2818 15.3867 89.572 15.7237 89.7597 16.1504V14.8576H91.9357V21.9616C91.9357 22.6272 91.8077 23.2245 91.5517 23.7536C91.2957 24.2912 90.9032 24.7179 90.3741 25.0336C89.845 25.3493 89.188 25.5072 88.4029 25.5072C87.3277 25.5072 86.4658 25.2512 85.8173 24.7392C85.1773 24.2357 84.7933 23.5488 84.6653 22.6784H86.8285C86.8968 22.9685 87.0504 23.1947 87.2893 23.3568C87.5368 23.5189 87.8568 23.6 88.2493 23.6C88.7016 23.6 89.0642 23.4677 89.3373 23.2032C89.6189 22.9472 89.7597 22.5333 89.7597 21.9616V20.7072C89.572 21.1339 89.2818 21.4709 88.8893 21.7184C88.4968 21.9659 88.0274 22.0896 87.4813 22.0896C86.8925 22.0896 86.3634 21.9445 85.8941 21.6544C85.4333 21.3557 85.0664 20.9291 84.7933 20.3744C84.5288 19.8197 84.3965 19.1712 84.3965 18.4288C84.3965 17.6779 84.5288 17.0293 84.7933 16.4832C85.0664 15.9285 85.4333 15.5061 85.8941 15.216C86.3634 14.9173 86.8925 14.768 87.4813 14.768ZM88.1853 16.688C87.716 16.688 87.3362 16.8416 87.0461 17.1488C86.7645 17.456 86.6237 17.8827 86.6237 18.4288C86.6237 18.9749 86.7645 19.4016 87.0461 19.7088C87.3362 20.016 87.716 20.1696 88.1853 20.1696C88.6461 20.1696 89.0216 20.0117 89.3117 19.696C89.6104 19.3803 89.7597 18.9579 89.7597 18.4288C89.7597 17.8912 89.6104 17.4688 89.3117 17.1616C89.0216 16.8459 88.6461 16.688 88.1853 16.688ZM96.1563 14.768C96.7024 14.768 97.1718 14.8917 97.5643 15.1392C97.9568 15.3867 98.247 15.7237 98.4347 16.1504V14.8576H100.611V22H98.4347V20.7072C98.247 21.1339 97.9568 21.4709 97.5643 21.7184C97.1718 21.9659 96.7024 22.0896 96.1563 22.0896C95.5675 22.0896 95.0384 21.9445 94.5691 21.6544C94.1083 21.3557 93.7414 20.9291 93.4683 20.3744C93.2038 19.8197 93.0715 19.1712 93.0715 18.4288C93.0715 17.6779 93.2038 17.0293 93.4683 16.4832C93.7414 15.9285 94.1083 15.5061 94.5691 15.216C95.0384 14.9173 95.5675 14.768 96.1563 14.768ZM96.8603 16.688C96.391 16.688 96.0112 16.8416 95.7211 17.1488C95.4395 17.456 95.2987 17.8827 95.2987 18.4288C95.2987 18.9749 95.4395 19.4016 95.7211 19.7088C96.0112 20.016 96.391 20.1696 96.8603 20.1696C97.3211 20.1696 97.6966 20.0117 97.9867 19.696C98.2854 19.3803 98.4347 18.9579 98.4347 18.4288C98.4347 17.8912 98.2854 17.4688 97.9867 17.1616C97.6966 16.8459 97.3211 16.688 96.8603 16.688ZM101.913 12.848C101.913 12.5152 102.032 12.2421 102.271 12.0288C102.51 11.8069 102.826 11.696 103.219 11.696C103.611 11.696 103.927 11.8069 104.166 12.0288C104.405 12.2421 104.524 12.5152 104.524 12.848C104.524 13.1723 104.405 13.4453 104.166 13.6672C103.927 13.8805 103.611 13.9872 103.219 13.9872C102.826 13.9872 102.51 13.8805 102.271 13.6672C102.032 13.4453 101.913 13.1723 101.913 12.848ZM104.307 14.8576V22H102.118V14.8576H104.307ZM110.349 14.7808C111.168 14.7808 111.817 15.0539 112.295 15.6C112.781 16.1461 113.024 16.8971 113.024 17.8528V22H110.835V18.1088C110.835 17.6309 110.707 17.2597 110.451 16.9952C110.204 16.7221 109.871 16.5856 109.453 16.5856C109.009 16.5856 108.655 16.7264 108.391 17.008C108.135 17.2896 108.007 17.6907 108.007 18.2112V22H105.818V14.8576H108.007V16.1632C108.211 15.7365 108.514 15.3995 108.915 15.152C109.325 14.9045 109.803 14.7808 110.349 14.7808Z" fill="#F2F2F2"/>
</svg>
