<svg width="38" height="38" viewBox="0 0 38 38" fill="none" xmlns="http://www.w3.org/2000/svg">
<rect opacity="0.25" x="0.75" y="0.75" width="36.3647" height="36.3646" rx="18.1823" stroke="white" stroke-width="1.5"/>
<path fill-rule="evenodd" clip-rule="evenodd" d="M18.7501 16.4336L18.7774 16.8955L18.3215 16.839C16.6616 16.6221 15.2116 15.8868 13.9804 14.6519L13.3785 14.0391L13.2235 14.4916C12.8952 15.5003 13.1049 16.5656 13.7889 17.2821C14.1537 17.678 14.0716 17.7346 13.4424 17.4989C13.2235 17.4235 13.032 17.3669 13.0137 17.3952C12.9499 17.4612 13.1688 18.3191 13.342 18.6584C13.5792 19.1298 14.0625 19.5917 14.5915 19.8651L15.0383 20.0819L14.5094 20.0914C13.9987 20.0914 13.9804 20.1008 14.0351 20.2988C14.2175 20.9115 14.938 21.562 15.7406 21.8448L16.306 22.0428L15.8135 22.3445C15.0839 22.7781 14.2267 23.0232 13.3694 23.0421C12.959 23.0515 12.6216 23.0892 12.6216 23.1175C12.6216 23.2118 13.7342 23.7397 14.3817 23.9471C16.3242 24.5599 18.6315 24.2959 20.3643 23.2495C21.5955 22.5047 22.8266 21.0247 23.4012 19.5917C23.7112 18.8281 24.0213 17.4329 24.0213 16.7636C24.0213 16.3299 24.0487 16.2733 24.5594 15.7548C24.8603 15.4532 25.1431 15.1232 25.1978 15.0289C25.289 14.8498 25.2798 14.8498 24.8147 15.0101C24.0396 15.2929 23.9301 15.2552 24.3132 14.831C24.5959 14.5293 24.9333 13.9825 24.9333 13.8223C24.9333 13.794 24.7965 13.8411 24.6415 13.926C24.4773 14.0202 24.1125 14.1616 23.8389 14.2465L23.3465 14.4067L22.8996 14.0956C22.6534 13.926 22.3068 13.7374 22.1244 13.6809C21.6593 13.5489 20.9479 13.5677 20.5284 13.7186C19.3885 14.1428 18.668 15.2363 18.7501 16.4336Z" fill="white"/>
</svg>
