<svg width="195" height="37" viewBox="0 0 195 37" fill="none" xmlns="http://www.w3.org/2000/svg">
<rect width="194.191" height="37" rx="4" fill="#C8AC48"/>
<mask id="mask0" mask-type="alpha" maskUnits="userSpaceOnUse" x="0" y="0" width="195" height="37">
<rect width="194.191" height="37" rx="4" fill="#A68C2F"/>
</mask>
<g mask="url(#mask0)">
<path d="M138.925 0L55.8398 37H194.191V0H138.925Z" fill="#B89D3B"/>
</g>
<path d="M70.88 13.9504V19.1728C70.88 19.7701 71.0123 20.2267 71.2768 20.5424C71.5499 20.8581 71.9424 21.016 72.4544 21.016C72.9664 21.016 73.3547 20.8581 73.6192 20.5424C73.8923 20.2267 74.0288 19.7701 74.0288 19.1728V13.9504H76.2176V19.1728C76.2176 20.0261 76.0512 20.7472 75.7184 21.336C75.3856 21.9163 74.9291 22.3557 74.3488 22.6544C73.7771 22.9445 73.1285 23.0896 72.4032 23.0896C71.6779 23.0896 71.0379 22.9445 70.4832 22.6544C69.9285 22.3643 69.4933 21.9248 69.1776 21.336C68.8619 20.7472 68.704 20.0261 68.704 19.1728V13.9504H70.88ZM82.1346 15.768C82.7234 15.768 83.2482 15.9173 83.709 16.216C84.1783 16.5061 84.5453 16.9285 84.8098 17.4832C85.0829 18.0293 85.2194 18.6779 85.2194 19.4288C85.2194 20.1712 85.0829 20.8197 84.8098 21.3744C84.5453 21.9291 84.1783 22.3557 83.709 22.6544C83.2482 22.9445 82.7234 23.0896 82.1346 23.0896C81.5885 23.0896 81.1191 22.9659 80.7266 22.7184C80.3341 22.4709 80.0482 22.1339 79.869 21.7072V26.4048H77.6802V15.8576H79.869V17.1504C80.0482 16.7237 80.3341 16.3867 80.7266 16.1392C81.1191 15.8917 81.5885 15.768 82.1346 15.768ZM81.4306 17.688C80.9698 17.688 80.5901 17.8459 80.2914 18.1616C80.0013 18.4688 79.8562 18.8912 79.8562 19.4288C79.8562 19.9579 80.0013 20.3803 80.2914 20.696C80.5901 21.0117 80.9698 21.1696 81.4306 21.1696C81.8999 21.1696 82.2754 21.016 82.557 20.7088C82.8471 20.4016 82.9922 19.9749 82.9922 19.4288C82.9922 18.8827 82.8471 18.456 82.557 18.1488C82.2754 17.8416 81.8999 17.688 81.4306 17.688ZM89.0688 15.768C89.6149 15.768 90.0843 15.8917 90.4768 16.1392C90.8693 16.3867 91.1552 16.7237 91.3344 17.1504V13.528H93.5232V23H91.3344V21.7072C91.1552 22.1339 90.8693 22.4709 90.4768 22.7184C90.0843 22.9659 89.6149 23.0896 89.0688 23.0896C88.48 23.0896 87.9509 22.9445 87.4816 22.6544C87.0208 22.3557 86.6539 21.9291 86.3808 21.3744C86.1163 20.8197 85.984 20.1712 85.984 19.4288C85.984 18.6779 86.1163 18.0293 86.3808 17.4832C86.6539 16.9285 87.0208 16.5061 87.4816 16.216C87.9509 15.9173 88.48 15.768 89.0688 15.768ZM89.7728 17.688C89.3035 17.688 88.9237 17.8416 88.6336 18.1488C88.352 18.456 88.2112 18.8827 88.2112 19.4288C88.2112 19.9749 88.352 20.4016 88.6336 20.7088C88.9237 21.016 89.3035 21.1696 89.7728 21.1696C90.2336 21.1696 90.6091 21.0117 90.8992 20.696C91.1979 20.3803 91.3472 19.9579 91.3472 19.4288C91.3472 18.8912 91.1979 18.4688 90.8992 18.1616C90.6091 17.8459 90.2336 17.688 89.7728 17.688ZM97.7438 15.768C98.2899 15.768 98.7593 15.8917 99.1518 16.1392C99.5443 16.3867 99.8345 16.7237 100.022 17.1504V15.8576H102.198V23H100.022V21.7072C99.8345 22.1339 99.5443 22.4709 99.1518 22.7184C98.7593 22.9659 98.2899 23.0896 97.7438 23.0896C97.155 23.0896 96.6259 22.9445 96.1566 22.6544C95.6958 22.3557 95.3289 21.9291 95.0558 21.3744C94.7913 20.8197 94.659 20.1712 94.659 19.4288C94.659 18.6779 94.7913 18.0293 95.0558 17.4832C95.3289 16.9285 95.6958 16.5061 96.1566 16.216C96.6259 15.9173 97.155 15.768 97.7438 15.768ZM98.4478 17.688C97.9785 17.688 97.5987 17.8416 97.3086 18.1488C97.027 18.456 96.8862 18.8827 96.8862 19.4288C96.8862 19.9749 97.027 20.4016 97.3086 20.7088C97.5987 21.016 97.9785 21.1696 98.4478 21.1696C98.9086 21.1696 99.2841 21.0117 99.5742 20.696C99.8729 20.3803 100.022 19.9579 100.022 19.4288C100.022 18.8912 99.8729 18.4688 99.5742 18.1616C99.2841 17.8459 98.9086 17.688 98.4478 17.688ZM107.75 21.1184V23H106.764C105.928 23 105.275 22.7952 104.806 22.3856C104.345 21.9675 104.115 21.2805 104.115 20.3248V17.7008H103.155V15.8576H104.115V14.104H106.304V15.8576H107.737V17.7008H106.304V20.3632C106.304 20.6448 106.359 20.8411 106.47 20.952C106.589 21.0629 106.786 21.1184 107.059 21.1184H107.75ZM115.764 19.2368C115.764 19.416 115.743 19.6123 115.7 19.8256H110.747C110.772 20.3632 110.909 20.7515 111.156 20.9904C111.404 21.2208 111.719 21.336 112.103 21.336C112.428 21.336 112.696 21.2549 112.91 21.0928C113.123 20.9307 113.264 20.7216 113.332 20.4656H115.649C115.555 20.9691 115.35 21.4213 115.035 21.8224C114.719 22.2149 114.318 22.5264 113.831 22.7568C113.345 22.9787 112.803 23.0896 112.206 23.0896C111.506 23.0896 110.883 22.9445 110.337 22.6544C109.799 22.3557 109.377 21.9291 109.07 21.3744C108.763 20.8197 108.609 20.1712 108.609 19.4288C108.609 18.6779 108.758 18.0293 109.057 17.4832C109.364 16.9285 109.791 16.5061 110.337 16.216C110.883 15.9173 111.506 15.768 112.206 15.768C112.914 15.768 113.537 15.9131 114.075 16.2032C114.612 16.4933 115.026 16.9029 115.316 17.432C115.615 17.9525 115.764 18.5541 115.764 19.2368ZM113.55 18.904C113.558 18.4347 113.43 18.0848 113.166 17.8544C112.91 17.6155 112.59 17.496 112.206 17.496C111.805 17.496 111.472 17.6155 111.207 17.8544C110.943 18.0933 110.794 18.4432 110.759 18.904H113.55Z" fill="#F2F2F2"/>
</svg>
