<svg width="150" height="37" viewBox="0 0 150 37" fill="none" xmlns="http://www.w3.org/2000/svg">
<rect width="150" height="37" rx="4" fill="#C8AC48"/>
<mask id="mask0" mask-type="alpha" maskUnits="userSpaceOnUse" x="0" y="0" width="150" height="37">
<rect width="150" height="37" rx="4" fill="#A68C2F"/>
</mask>
<g mask="url(#mask0)">
<path d="M107.31 0L43.1324 37H150V0H107.31Z" fill="#B89D3B"/>
</g>
<path d="M52.88 13.9504V19.1728C52.88 19.7701 53.0123 20.2267 53.2768 20.5424C53.5499 20.8581 53.9424 21.016 54.4544 21.016C54.9664 21.016 55.3547 20.8581 55.6192 20.5424C55.8923 20.2267 56.0288 19.7701 56.0288 19.1728V13.9504H58.2176V19.1728C58.2176 20.0261 58.0512 20.7472 57.7184 21.336C57.3856 21.9163 56.9291 22.3557 56.3488 22.6544C55.7771 22.9445 55.1285 23.0896 54.4032 23.0896C53.6779 23.0896 53.0379 22.9445 52.4832 22.6544C51.9285 22.3643 51.4933 21.9248 51.1776 21.336C50.8619 20.7472 50.704 20.0261 50.704 19.1728V13.9504H52.88ZM64.1346 15.768C64.7234 15.768 65.2482 15.9173 65.709 16.216C66.1783 16.5061 66.5453 16.9285 66.8098 17.4832C67.0829 18.0293 67.2194 18.6779 67.2194 19.4288C67.2194 20.1712 67.0829 20.8197 66.8098 21.3744C66.5453 21.9291 66.1783 22.3557 65.709 22.6544C65.2482 22.9445 64.7234 23.0896 64.1346 23.0896C63.5885 23.0896 63.1191 22.9659 62.7266 22.7184C62.3341 22.4709 62.0482 22.1339 61.869 21.7072V26.4048H59.6802V15.8576H61.869V17.1504C62.0482 16.7237 62.3341 16.3867 62.7266 16.1392C63.1191 15.8917 63.5885 15.768 64.1346 15.768ZM63.4306 17.688C62.9698 17.688 62.5901 17.8459 62.2914 18.1616C62.0013 18.4688 61.8562 18.8912 61.8562 19.4288C61.8562 19.9579 62.0013 20.3803 62.2914 20.696C62.5901 21.0117 62.9698 21.1696 63.4306 21.1696C63.8999 21.1696 64.2754 21.016 64.557 20.7088C64.8471 20.4016 64.9922 19.9749 64.9922 19.4288C64.9922 18.8827 64.8471 18.456 64.557 18.1488C64.2754 17.8416 63.8999 17.688 63.4306 17.688ZM71.0688 15.768C71.6149 15.768 72.0843 15.8917 72.4768 16.1392C72.8693 16.3867 73.1552 16.7237 73.3344 17.1504V13.528H75.5232V23H73.3344V21.7072C73.1552 22.1339 72.8693 22.4709 72.4768 22.7184C72.0843 22.9659 71.6149 23.0896 71.0688 23.0896C70.48 23.0896 69.9509 22.9445 69.4816 22.6544C69.0208 22.3557 68.6539 21.9291 68.3808 21.3744C68.1163 20.8197 67.984 20.1712 67.984 19.4288C67.984 18.6779 68.1163 18.0293 68.3808 17.4832C68.6539 16.9285 69.0208 16.5061 69.4816 16.216C69.9509 15.9173 70.48 15.768 71.0688 15.768ZM71.7728 17.688C71.3035 17.688 70.9237 17.8416 70.6336 18.1488C70.352 18.456 70.2112 18.8827 70.2112 19.4288C70.2112 19.9749 70.352 20.4016 70.6336 20.7088C70.9237 21.016 71.3035 21.1696 71.7728 21.1696C72.2336 21.1696 72.6091 21.0117 72.8992 20.696C73.1979 20.3803 73.3472 19.9579 73.3472 19.4288C73.3472 18.8912 73.1979 18.4688 72.8992 18.1616C72.6091 17.8459 72.2336 17.688 71.7728 17.688ZM79.7438 15.768C80.2899 15.768 80.7593 15.8917 81.1518 16.1392C81.5443 16.3867 81.8345 16.7237 82.0222 17.1504V15.8576H84.1982V23H82.0222V21.7072C81.8345 22.1339 81.5443 22.4709 81.1518 22.7184C80.7593 22.9659 80.2899 23.0896 79.7438 23.0896C79.155 23.0896 78.6259 22.9445 78.1566 22.6544C77.6958 22.3557 77.3289 21.9291 77.0558 21.3744C76.7913 20.8197 76.659 20.1712 76.659 19.4288C76.659 18.6779 76.7913 18.0293 77.0558 17.4832C77.3289 16.9285 77.6958 16.5061 78.1566 16.216C78.6259 15.9173 79.155 15.768 79.7438 15.768ZM80.4478 17.688C79.9785 17.688 79.5987 17.8416 79.3086 18.1488C79.027 18.456 78.8862 18.8827 78.8862 19.4288C78.8862 19.9749 79.027 20.4016 79.3086 20.7088C79.5987 21.016 79.9785 21.1696 80.4478 21.1696C80.9086 21.1696 81.2841 21.0117 81.5742 20.696C81.8729 20.3803 82.0222 19.9579 82.0222 19.4288C82.0222 18.8912 81.8729 18.4688 81.5742 18.1616C81.2841 17.8459 80.9086 17.688 80.4478 17.688ZM89.75 21.1184V23H88.7644C87.9281 23 87.2753 22.7952 86.806 22.3856C86.3452 21.9675 86.1148 21.2805 86.1148 20.3248V17.7008H85.1548V15.8576H86.1148V14.104H88.3036V15.8576H89.7372V17.7008H88.3036V20.3632C88.3036 20.6448 88.3591 20.8411 88.47 20.952C88.5895 21.0629 88.7857 21.1184 89.0588 21.1184H89.75ZM97.7642 19.2368C97.7642 19.416 97.7429 19.6123 97.7002 19.8256H92.7466C92.7722 20.3632 92.9087 20.7515 93.1562 20.9904C93.4037 21.2208 93.7194 21.336 94.1034 21.336C94.4277 21.336 94.6965 21.2549 94.9098 21.0928C95.1231 20.9307 95.2639 20.7216 95.3322 20.4656H97.649C97.5551 20.9691 97.3503 21.4213 97.0346 21.8224C96.7189 22.2149 96.3178 22.5264 95.8314 22.7568C95.345 22.9787 94.8031 23.0896 94.2058 23.0896C93.5061 23.0896 92.8831 22.9445 92.337 22.6544C91.7994 22.3557 91.377 21.9291 91.0698 21.3744C90.7626 20.8197 90.609 20.1712 90.609 19.4288C90.609 18.6779 90.7583 18.0293 91.057 17.4832C91.3642 16.9285 91.7909 16.5061 92.337 16.216C92.8831 15.9173 93.5061 15.768 94.2058 15.768C94.9141 15.768 95.537 15.9131 96.0746 16.2032C96.6122 16.4933 97.0261 16.9029 97.3162 17.432C97.6149 17.9525 97.7642 18.5541 97.7642 19.2368ZM95.5498 18.904C95.5583 18.4347 95.4303 18.0848 95.1658 17.8544C94.9098 17.6155 94.5898 17.496 94.2058 17.496C93.8047 17.496 93.4719 17.6155 93.2074 17.8544C92.9429 18.0933 92.7935 18.4432 92.7594 18.904H95.5498Z" fill="#F2F2F2"/>
</svg>
