<svg width="39" height="39" viewBox="0 0 39 39" fill="none" xmlns="http://www.w3.org/2000/svg">
<rect width="39" height="39" rx="19.5" fill="#C8AC48"/>
<path d="M12.4136 12.8332L14.628 19.6428L16.8424 12.8332H19.1848L16.036 21.8828H13.2072L10.0712 12.8332H12.4136Z" fill="#F2F2F2"/>
<path d="M27.3142 23.9235C27.3142 24.4014 27.1905 24.8408 26.943 25.2419C26.7041 25.643 26.3457 25.963 25.8678 26.2019C25.3985 26.4408 24.8268 26.5603 24.1526 26.5603C23.1372 26.5603 22.3009 26.3128 21.6438 25.8179C20.9868 25.323 20.6284 24.6318 20.5686 23.7443H22.8982C22.9324 24.0856 23.0518 24.3544 23.2566 24.5507C23.47 24.747 23.7388 24.8451 24.063 24.8451C24.3446 24.8451 24.5665 24.7683 24.7286 24.6147C24.8908 24.4611 24.9718 24.2563 24.9718 24.0003C24.9718 23.7699 24.895 23.5779 24.7414 23.4243C24.5964 23.2707 24.4129 23.147 24.191 23.0531C23.9692 22.9507 23.662 22.8312 23.2694 22.6947C22.6977 22.4984 22.2284 22.3107 21.8614 22.1315C21.503 21.9438 21.1916 21.6707 20.927 21.3123C20.671 20.9454 20.543 20.4718 20.543 19.8915C20.543 19.3539 20.6796 18.8888 20.9526 18.4963C21.2257 18.1038 21.6012 17.8051 22.079 17.6003C22.5654 17.387 23.1201 17.2803 23.743 17.2803C24.75 17.2803 25.5478 17.5192 26.1366 17.9971C26.734 18.475 27.071 19.132 27.1478 19.9683H24.7798C24.7372 19.6696 24.6262 19.435 24.447 19.2643C24.2764 19.0851 24.0417 18.9955 23.743 18.9955C23.487 18.9955 23.278 19.0638 23.1158 19.2003C22.9622 19.3368 22.8854 19.5374 22.8854 19.8019C22.8854 20.0152 22.9537 20.1987 23.0902 20.3523C23.2353 20.4974 23.4145 20.6168 23.6278 20.7107C23.8412 20.8046 24.1484 20.924 24.5494 21.0691C25.1297 21.2654 25.6033 21.4616 25.9702 21.6579C26.3372 21.8456 26.6529 22.123 26.9174 22.4899C27.182 22.8568 27.3142 23.3347 27.3142 23.9235Z" fill="#F2F2F2"/>
</svg>
