<svg width="41" height="234" viewBox="0 0 41 234" fill="none" xmlns="http://www.w3.org/2000/svg">
<path d="M12.42 161.46L7 165.16V167.62H7.1L13.9 162.9L20.94 167.82H21V165.28L15.46 161.46L21 157.66V155.12H20.94L13.9 160.06L7.1 155.32H7V157.78L12.42 161.46ZM21 142.134V139.754L7 146.034L7 148.474L21 154.754V152.374L18.06 151.054L18.06 143.474L21 142.134ZM16.02 144.294L16.02 150.214L9.36 147.254L16.02 144.294ZM21 135.912V133.652H9.02V129.072H7C7 133.092 7 136.492 7 140.512H9.02L9.02 135.912H21ZM21 123.783V121.523H9.02V116.943H7C7 120.963 7 124.363 7 128.383H9.02L9.02 123.783H21ZM6.74 108.884C6.74 113.104 9.82 116.084 14.08 116.084C17.76 116.084 21.3 113.784 21.3 108.924C21.3 104.064 17.84 101.764 14.06 101.764C10.28 101.764 6.76 104.104 6.74 108.884ZM14.1 113.864C11.04 113.864 8.78 112.124 8.78 108.884C8.84 105.464 11.52 103.984 14.1 103.984C16.78 103.984 19.24 105.444 19.24 108.924C19.24 112.384 16.58 113.824 14.1 113.864ZM20.6 87.2711L15.94 91.4511C15.54 88.6911 13.58 87.6511 11.58 87.6511C9.22 87.6511 7 89.3511 7 92.5911C7 94.7711 6.98 96.9311 6.98 99.1111H21V96.8711H16.16V93.9111L21 89.6511V87.0311L20.6 87.2711ZM9.04 92.5911C9.04 90.7511 10.36 89.9311 11.62 89.9311C12.94 89.9311 14.12 90.7511 14.12 92.6111V96.8711H9.04V92.5911ZM7 82.977V84.697H21V82.437H11.12L21 74.497V72.797H7V75.037H16.96L7 82.977ZM18.8 58.9273V67.0273H15.04L15.04 59.3073H12.96L12.96 67.0273H9.18L9.18 58.9873H7L7 69.2673C11.66 69.2673 16.34 69.2673 21 69.2673V58.9273H18.8ZM7 54.8247L7 57.4847H7.1L15.26 52.0847H21V49.8447H15.26L7.1 44.2847H7L7 46.9847L13.18 50.9647L7 54.8247Z" fill="#313B4E"/>
<path d="M30.0784 164.85H39V166.014H30.0784V164.85ZM39 155.535L35.9024 158.287H39V159.452H29.528V158.287H35.096L31.9856 155.586V153.961L35.48 157.263L39 153.948V155.535ZM31.8576 149.447C31.8576 148.593 32.1179 147.902 32.6384 147.373C33.1504 146.844 33.8928 146.58 34.8656 146.58H39V147.732H35.032C34.3323 147.732 33.7989 147.907 33.432 148.256C33.0565 148.606 32.8688 149.084 32.8688 149.69C32.8688 150.304 33.0608 150.795 33.4448 151.162C33.8288 151.52 34.3877 151.7 35.1216 151.7H39V152.864H31.9856L31.9856 151.7H32.984C32.6256 151.469 32.3483 151.158 32.152 150.765C31.9557 150.364 31.8576 149.925 31.8576 149.447ZM39.1152 141.618C39.1152 142.275 38.9659 142.872 38.6672 143.41C38.3685 143.939 37.9461 144.357 37.4 144.664C36.8453 144.963 36.2053 145.112 35.48 145.112C34.7632 145.112 34.1317 144.959 33.5856 144.651C33.0309 144.336 32.6085 143.909 32.3184 143.371C32.0197 142.834 31.8704 142.232 31.8704 141.567C31.8704 140.901 32.0197 140.299 32.3184 139.762C32.6085 139.224 33.0267 138.802 33.5728 138.495C34.1189 138.179 34.7547 138.021 35.48 138.021C36.2053 138.021 36.8453 138.183 37.4 138.507C37.9461 138.823 38.3685 139.254 38.6672 139.8C38.9659 140.346 39.1152 140.952 39.1152 141.618ZM38.0912 141.618C38.0912 141.2 37.9931 140.807 37.7968 140.44C37.6005 140.073 37.3061 139.779 36.9136 139.557C36.5211 139.327 36.0432 139.211 35.48 139.211C34.9168 139.211 34.4389 139.322 34.0464 139.544C33.6539 139.766 33.3637 140.056 33.176 140.414C32.9797 140.773 32.8816 141.161 32.8816 141.579C32.8816 142.006 32.9797 142.399 33.176 142.757C33.3637 143.107 33.6539 143.388 34.0464 143.602C34.4389 143.815 34.9168 143.922 35.48 143.922C36.0517 143.922 36.5339 143.819 36.9264 143.615C37.3189 143.401 37.6133 143.12 37.8096 142.77C37.9973 142.42 38.0912 142.036 38.0912 141.618ZM31.9856 127.145L39 129.334V130.537L33.432 132.227L39 133.917V135.12L31.9856 137.321V136.131L37.8736 134.518L31.9856 132.777V131.587L37.8864 129.885L31.9856 128.297V127.145ZM31.9856 113.233L39 115.422V116.625L33.432 118.314L39 120.004V121.207L31.9856 123.409V122.218L37.8736 120.606L31.9856 118.865V117.674L37.8864 115.972L31.9856 114.385V113.233ZM31.8576 108.595C31.8576 108.066 31.9728 107.588 32.2032 107.162C32.4251 106.735 32.7621 106.402 33.2144 106.163C33.6667 105.916 34.2171 105.792 34.8656 105.792H39V106.944H35.032C34.3323 106.944 33.7989 107.119 33.432 107.469C33.0565 107.819 32.8688 108.297 32.8688 108.902C32.8688 109.517 33.0608 110.008 33.4448 110.374C33.8288 110.733 34.3877 110.912 35.1216 110.912H39V112.077H29.528V110.912H32.984C32.6256 110.682 32.3483 110.366 32.152 109.965C31.9557 109.555 31.8576 109.099 31.8576 108.595ZM35.4672 104.325C34.7504 104.325 34.1232 104.18 33.5856 103.889C33.0395 103.599 32.6171 103.202 32.3184 102.699C32.0197 102.187 31.8704 101.62 31.8704 100.997C31.8704 100.382 32.0027 99.8489 32.2672 99.3966C32.5317 98.9443 32.8645 98.6073 33.2656 98.3854H31.9856V97.2078H39V98.3854H37.6944C38.104 98.6158 38.4453 98.9614 38.7184 99.4222C38.9829 99.8745 39.1152 100.404 39.1152 101.009C39.1152 101.632 38.9616 102.196 38.6544 102.699C38.3472 103.202 37.9163 103.599 37.3616 103.889C36.8069 104.18 36.1755 104.325 35.4672 104.325ZM35.48 98.3854C34.9509 98.3854 34.4901 98.4921 34.0976 98.7054C33.7051 98.9187 33.4064 99.2089 33.2016 99.5758C32.9883 99.9342 32.8816 100.331 32.8816 100.766C32.8816 101.201 32.984 101.598 33.1888 101.957C33.3936 102.315 33.6923 102.601 34.0848 102.814C34.4773 103.028 34.9381 103.134 35.4672 103.134C36.0048 103.134 36.4741 103.028 36.8752 102.814C37.2677 102.601 37.5707 102.315 37.784 101.957C37.9888 101.598 38.0912 101.201 38.0912 100.766C38.0912 100.331 37.9888 99.9342 37.784 99.5758C37.5707 99.2089 37.2677 98.9187 36.8752 98.7054C36.4741 98.4921 36.0091 98.3854 35.48 98.3854ZM32.9456 93.8186H37.08C37.4213 93.8186 37.6645 93.7461 37.8096 93.601C37.9461 93.4559 38.0144 93.2042 38.0144 92.8458V91.9882H39V93.0378C39 93.6863 38.8507 94.1727 38.552 94.497C38.2533 94.8213 37.7627 94.9834 37.08 94.9834H32.9456V95.8922H31.9856V94.9834H30.2192V93.8186H31.9856V91.9882H32.9456V93.8186ZM31.8576 78.7292C31.8576 78.1831 31.9728 77.6967 32.2032 77.27C32.4251 76.8433 32.7621 76.5063 33.2144 76.2588C33.6667 76.0113 34.2171 75.8876 34.8656 75.8876H39V77.0396H35.032C34.3323 77.0396 33.7989 77.2145 33.432 77.5644C33.0565 77.9057 32.8688 78.3708 32.8688 78.9596C32.8688 79.5655 33.0651 80.0476 33.4576 80.406C33.8416 80.7644 34.4005 80.9436 35.1344 80.9436H39V82.0956H35.032C34.3323 82.0956 33.7989 82.2705 33.432 82.6204C33.0565 82.9617 32.8688 83.4268 32.8688 84.0156C32.8688 84.6215 33.0651 85.1036 33.4576 85.462C33.8416 85.8204 34.4005 85.9996 35.1344 85.9996H39V87.1644H31.9856L31.9856 85.9996H32.9968C32.6299 85.7692 32.3483 85.462 32.152 85.078C31.9557 84.6855 31.8576 84.2545 31.8576 83.7852C31.8576 83.1964 31.9899 82.6759 32.2544 82.2236C32.5189 81.7713 32.9072 81.4343 33.4192 81.2124C32.9243 81.0161 32.5403 80.6919 32.2672 80.2396C31.9941 79.7873 31.8576 79.2839 31.8576 78.7292ZM35.4672 74.4121C34.7504 74.4121 34.1232 74.267 33.5856 73.9769C33.0395 73.6868 32.6171 73.29 32.3184 72.7865C32.0197 72.2745 31.8704 71.707 31.8704 71.0841C31.8704 70.4697 32.0027 69.9364 32.2672 69.4841C32.5317 69.0318 32.8645 68.6948 33.2656 68.4729H31.9856V67.2953H39V68.4729H37.6944C38.104 68.7033 38.4453 69.0489 38.7184 69.5097C38.9829 69.962 39.1152 70.491 39.1152 71.0969C39.1152 71.7198 38.9616 72.283 38.6544 72.7865C38.3472 73.29 37.9163 73.6868 37.3616 73.9769C36.8069 74.267 36.1755 74.4121 35.4672 74.4121ZM35.48 68.4729C34.9509 68.4729 34.4901 68.5796 34.0976 68.7929C33.7051 69.0062 33.4064 69.2964 33.2016 69.6633C32.9883 70.0217 32.8816 70.4185 32.8816 70.8537C32.8816 71.2889 32.984 71.6857 33.1888 72.0441C33.3936 72.4025 33.6923 72.6884 34.0848 72.9017C34.4773 73.115 34.9381 73.2217 35.4672 73.2217C36.0048 73.2217 36.4741 73.115 36.8752 72.9017C37.2677 72.6884 37.5707 72.4025 37.784 72.0441C37.9888 71.6857 38.0912 71.2889 38.0912 70.8537C38.0912 70.4185 37.9888 70.0217 37.784 69.6633C37.5707 69.2964 37.2677 69.0062 36.8752 68.7929C36.4741 68.5796 36.0091 68.4729 35.48 68.4729ZM32.9456 63.9061H37.08C37.4213 63.9061 37.6645 63.8336 37.8096 63.6885C37.9461 63.5434 38.0144 63.2917 38.0144 62.9333V62.0757H39V63.1253C39 63.7738 38.8507 64.2602 38.552 64.5845C38.2533 64.9088 37.7627 65.0709 37.08 65.0709H32.9456V65.9797H31.9856V65.0709H30.2192V63.9061H31.9856V62.0757H32.9456V63.9061ZM32.9456 59.2436H37.08C37.4213 59.2436 37.6645 59.1711 37.8096 59.026C37.9461 58.8809 38.0144 58.6292 38.0144 58.2708V57.4132H39V58.4628C39 59.1113 38.8507 59.5977 38.552 59.922C38.2533 60.2463 37.7627 60.4084 37.08 60.4084H32.9456V61.3172H31.9856V60.4084H30.2192V59.2436H31.9856V57.4132H32.9456V59.2436ZM35.224 49.6019C35.4459 49.6019 35.6805 49.6147 35.928 49.6403V55.2467C36.6192 55.204 37.1611 54.9694 37.5536 54.5427C37.9376 54.1075 38.1296 53.5827 38.1296 52.9683C38.1296 52.4648 38.0144 52.0467 37.784 51.7139C37.5451 51.3726 37.2293 51.1336 36.8368 50.9971V49.7427C37.5109 49.9304 38.0613 50.3059 38.488 50.8691C38.9061 51.4323 39.1152 52.132 39.1152 52.9683C39.1152 53.6339 38.9659 54.2312 38.6672 54.7603C38.3685 55.2808 37.9461 55.6904 37.4 55.9891C36.8453 56.2878 36.2053 56.4371 35.48 56.4371C34.7547 56.4371 34.1189 56.292 33.5728 56.0019C33.0267 55.7118 32.6085 55.3064 32.3184 54.7859C32.0197 54.2568 31.8704 53.651 31.8704 52.9683C31.8704 52.3027 32.0155 51.7139 32.3056 51.2019C32.5957 50.6899 32.9968 50.2974 33.5088 50.0243C34.0123 49.7427 34.584 49.6019 35.224 49.6019ZM34.9808 50.8051C34.5371 50.8051 34.1573 50.9032 33.8416 51.0995C33.5173 51.2958 33.2741 51.5646 33.112 51.9059C32.9413 52.2387 32.856 52.6099 32.856 53.0195C32.856 53.6083 33.0437 54.1118 33.4192 54.5299C33.7947 54.9395 34.3152 55.1742 34.9808 55.2339V50.8051ZM33.1248 46.8996C32.7237 46.6948 32.4123 46.4047 32.1904 46.0292C31.9685 45.6452 31.8576 45.1801 31.8576 44.634H33.0608V44.9412C33.0608 46.2468 33.7691 46.8996 35.1856 46.8996H39V48.0644H31.9856V46.8996H33.1248ZM39.1152 40.8062C39.1152 41.3438 39.0256 41.8259 38.8464 42.2526C38.6587 42.6793 38.4027 43.0163 38.0784 43.2638C37.7456 43.5113 37.3659 43.6478 36.9392 43.6734V42.4702C37.2891 42.4361 37.5749 42.2739 37.7968 41.9838C38.0187 41.6851 38.1296 41.2969 38.1296 40.819C38.1296 40.3753 38.0315 40.0254 37.8352 39.7694C37.6389 39.5134 37.3915 39.3854 37.0928 39.3854C36.7856 39.3854 36.5595 39.5219 36.4144 39.795C36.2608 40.0681 36.1115 40.4905 35.9664 41.0622C35.8299 41.5827 35.6933 42.0094 35.5568 42.3422C35.4117 42.6665 35.2027 42.9481 34.9296 43.187C34.648 43.4174 34.2811 43.5326 33.8288 43.5326C33.4704 43.5326 33.1419 43.4259 32.8432 43.2126C32.5445 42.9993 32.3099 42.6963 32.1392 42.3038C31.96 41.9113 31.8704 41.4633 31.8704 40.9598C31.8704 40.1833 32.0667 39.5561 32.4592 39.0782C32.8517 38.6003 33.3893 38.3443 34.072 38.3102V39.475C33.7051 39.5006 33.4107 39.6499 33.1888 39.923C32.9669 40.1875 32.856 40.5459 32.856 40.9982C32.856 41.4163 32.9456 41.7491 33.1248 41.9966C33.304 42.2441 33.5387 42.3678 33.8288 42.3678C34.0592 42.3678 34.2512 42.2953 34.4048 42.1502C34.5499 41.9966 34.6693 41.8089 34.7632 41.587C34.8485 41.3566 34.9467 41.0409 35.0576 40.6398C35.1941 40.1363 35.3307 39.7267 35.4672 39.411C35.5952 39.0953 35.7915 38.8265 36.056 38.6046C36.3205 38.3742 36.6661 38.2547 37.0928 38.2462C37.4768 38.2462 37.8224 38.3529 38.1296 38.5662C38.4368 38.7795 38.68 39.0825 38.8592 39.475C39.0299 39.859 39.1152 40.3027 39.1152 40.8062Z" fill="#C8AC48"/>
<path d="M39.0768 36.2307C39.0768 36.4526 39 36.6403 38.8464 36.7939C38.6928 36.9475 38.5051 37.0243 38.2832 37.0243C38.0613 37.0243 37.8736 36.9475 37.72 36.7939C37.5664 36.6403 37.4896 36.4526 37.4896 36.2307C37.4896 36.0174 37.5664 35.8382 37.72 35.6931C37.8736 35.5395 38.0613 35.4627 38.2832 35.4627C38.5051 35.4627 38.6928 35.5395 38.8464 35.6931C39 35.8382 39.0768 36.0174 39.0768 36.2307Z" fill="#E5E5E5"/>
<path d="M24.3571 210.945L21.4414 212.42L30.338 231.892C30.9259 233.179 32.4661 233.718 33.7284 233.08C34.9906 232.441 35.468 230.88 34.7793 229.645L24.3571 210.945Z" fill="#C8AC48"/>
<path d="M34.8267 229.733C35.4444 230.954 34.9603 232.456 33.7286 233.08C33.3642 233.264 32.9771 233.35 32.5961 233.348C33.1316 232.615 33.2433 231.616 32.8087 230.757C32.7934 230.727 32.7767 230.697 32.7606 230.667L22.3381 211.967L24.3571 210.945L34.7796 229.645C34.7957 229.675 34.8119 229.704 34.8267 229.733V229.733Z" fill="#C8AC48"/>
<path d="M17.6678 206.356L22.0409 213.39L24.7837 212.002L21.7054 204.313L17.6678 206.356Z" fill="#C8AC48"/>
<path d="M17.6681 206.356L19.0813 208.629L19.7322 208.3C20.2114 208.057 20.7964 208.249 21.0388 208.728L23.1216 212.843L24.7839 212.002L21.7057 204.313L17.6681 206.356Z" fill="#C8AC48"/>
<path d="M25.5488 213.613L22.8863 214.961C22.1166 215.35 21.1768 215.042 20.7872 214.272C20.3977 213.503 20.7059 212.563 21.4756 212.173L24.138 210.826C24.9077 210.436 25.8475 210.744 26.2371 211.514C26.6266 212.284 26.3184 213.224 25.5488 213.613Z" fill="#FCC16D"/>
<path d="M26.2367 211.514C26.4316 211.899 26.4516 212.327 26.3275 212.706C26.2028 213.086 25.9335 213.418 25.5483 213.613L23.5302 214.635C23.9154 214.44 24.1847 214.107 24.3084 213.727C24.4335 213.348 24.4134 212.921 24.2186 212.536C23.8287 211.765 22.8888 211.458 22.1195 211.847L24.1376 210.826C24.9079 210.436 25.8469 210.744 26.2367 211.514Z" fill="#FCC16D"/>
<path d="M4.74268 199.216L10.6544 196.224L15.3516 205.505L9.43991 208.497L4.74268 199.216Z" fill="#C8AC48"/>
<path d="M28.3071 198.953L22.3954 201.945L17.6982 192.664L23.6099 189.672L28.3071 198.953Z" fill="#C8AC48"/>
<path d="M10.5631 210.253L10.3578 210.357C9.57909 210.751 8.62837 210.439 8.23417 209.66L3.09274 199.502C2.69863 198.723 3.01041 197.772 3.78914 197.378L3.99445 197.274C4.77315 196.88 5.72388 197.192 6.11807 197.97L11.2595 208.129C11.6536 208.908 11.3418 209.859 10.5631 210.253V210.253Z" fill="#FCC16D"/>
<path d="M29.0526 200.895L29.258 200.791C30.0367 200.397 30.3484 199.446 29.9544 198.667L24.8129 188.508C24.4188 187.73 23.4681 187.418 22.6893 187.812L22.484 187.916C21.7053 188.31 21.3935 189.261 21.7876 190.04L26.929 200.198C27.3232 200.977 28.2739 201.289 29.0526 200.895Z" fill="#FCC16D"/>
<path d="M9.65234 193.756L16.2911 190.396L23.3854 204.413L16.7466 207.773L9.65234 193.756Z" fill="#FCC16D"/>
<path d="M20.0298 206.118L12.9356 192.101L16.2957 190.4L23.3899 204.418L20.0298 206.118Z" fill="#E7AD5B"/>
<path d="M9.45 193.662L8.54759 194.723C8.23823 195.087 8.17717 195.6 8.3928 196.026L14.1731 207.447C14.3887 207.873 14.8387 208.128 15.3149 208.094L16.704 207.995C17.2672 207.955 17.6077 207.354 17.3527 206.85L10.7567 193.818C10.5018 193.314 9.81588 193.232 9.45 193.662Z" fill="#C8AC48"/>
<path d="M16.3431 190.173L17.7322 190.074C18.2083 190.04 18.6585 190.295 18.874 190.721L24.6543 202.142C24.8699 202.568 24.8088 203.082 24.4995 203.445L23.5971 204.506C23.2312 204.936 22.5453 204.855 22.2903 204.351L15.6943 191.318C15.4393 190.814 15.7799 190.213 16.3431 190.173V190.173Z" fill="#C8AC48"/>
<path d="M34.9915 184.695V203.887H32.2983C31.7423 203.887 31.2915 203.436 31.2915 202.88L31.2915 185.702C31.2915 185.146 31.7423 184.695 32.2983 184.695H34.9915Z" fill="#AB974E"/>
<path d="M32.2983 184.695H34.9913V186.801H32.2983C31.7425 186.801 31.2915 187.252 31.2915 187.808V185.701C31.2915 185.146 31.7425 184.695 32.2983 184.695Z" fill="#C8AC48"/>
<path d="M40.2778 180.465L40.2778 208.116C40.2778 208.85 39.5186 209.337 38.8518 209.031L36.7174 208.054C34.8686 207.207 33.6831 205.36 33.6831 203.327V185.254C33.6831 183.22 34.8686 181.374 36.7174 180.527L38.8518 179.549C39.5186 179.244 40.2778 179.731 40.2778 180.465Z" fill="#C8AC48"/>
<path d="M40.2778 180.464V183.156C40.2778 182.423 39.5187 181.936 38.8523 182.241L36.717 183.219C34.8685 184.065 33.6826 185.913 33.6826 187.945V185.254C33.6826 183.221 34.8686 181.373 36.717 180.526L38.8523 179.549C39.5188 179.244 40.2778 179.731 40.2778 180.464V180.464Z" fill="#AB9750"/>
<path d="M29.6243 181.931C29.6243 182.11 29.5557 182.289 29.4186 182.425C29.1454 182.697 28.7039 182.695 28.4324 182.422L27.6822 181.668C27.4107 181.394 27.4121 180.953 27.6851 180.681C27.9583 180.41 28.3998 180.411 28.6714 180.684L29.4215 181.439C29.5568 181.575 29.6243 181.753 29.6243 181.931Z" fill="#FCC16D"/>
<path d="M28.0645 184.132C28.0645 184.188 28.0576 184.245 28.0433 184.302C27.9496 184.676 27.5708 184.903 27.1973 184.809L26.1538 184.547C25.7802 184.454 25.5534 184.074 25.6471 183.701C25.7408 183.328 26.1195 183.101 26.4931 183.195L27.5366 183.456C27.8532 183.536 28.0645 183.82 28.0645 184.132Z" fill="#FCC16D"/>
<path d="M31.8344 180.384C31.8344 180.698 31.621 180.983 31.3025 181.061C30.9284 181.152 30.5509 180.923 30.4595 180.549L30.2038 179.504C30.1121 179.13 30.3413 178.752 30.7154 178.661C31.0896 178.569 31.4671 178.798 31.5585 179.173L31.8142 180.218C31.8278 180.274 31.8344 180.329 31.8344 180.384Z" fill="#FCC16D"/>
</svg>
