<svg width="50" height="50" viewBox="0 0 50 50" fill="none" xmlns="http://www.w3.org/2000/svg">
<path d="M10.1953 38.6H10.1698L10.1442 38.6007C9.40913 38.6194 8.32141 38.7693 7.37779 39.4724C6.32174 40.2591 5.77778 41.4836 5.77778 42.95C5.77778 44.4164 6.32174 45.6409 7.37778 46.4276C8.32141 47.1307 9.40912 47.2806 10.1442 47.2993L10.1698 47.3H10.1953H44V48H10.1667C9.10493 48 7.76352 47.6409 6.73258 46.8373C5.77548 46.0912 5 44.9051 5 42.95V10.05C5 8.09492 5.77548 6.90882 6.73258 6.16272C7.76352 5.35905 9.10493 5 10.1667 5H41.2222C41.9694 5 42.6796 5.2923 43.1981 5.80237C43.7155 6.31134 44 6.99461 44 7.7V38.6H10.1953ZM14.9444 10.4H12.9444V12.4V17.1V19.1H14.9444H36.4444H38.4444V17.1V12.4V10.4H36.4444H14.9444Z" stroke="#C8AC48" stroke-width="4"/>
</svg>
