<svg width="40" height="40" viewBox="0 0 40 40" fill="none" xmlns="http://www.w3.org/2000/svg">
<path d="M27.2666 23.3334C27.4 22.2334 27.5 21.1334 27.5 20C27.5 18.8667 27.4 17.7667 27.2666 16.6667H32.9C33.1666 17.7334 33.3333 18.85 33.3333 20C33.3333 21.15 33.1666 22.2667 32.9 23.3334H27.2666ZM24.3166 32.6C25.3166 30.75 26.0833 28.75 26.6166 26.6667H31.5333C29.9186 29.4472 27.3568 31.5534 24.3166 32.6V32.6ZM23.9 23.3334H16.1C15.9333 22.2334 15.8333 21.1334 15.8333 20C15.8333 18.8667 15.9333 17.75 16.1 16.6667H23.9C24.05 17.75 24.1666 18.8667 24.1666 20C24.1666 21.1334 24.05 22.2334 23.9 23.3334ZM20 33.2667C18.6166 31.2667 17.5 29.05 16.8166 26.6667H23.1833C22.5 29.05 21.3833 31.2667 20 33.2667ZM13.3333 13.3334H8.46665C10.0647 10.5454 12.6246 8.43585 15.6666 7.40004C14.6666 9.25004 13.9166 11.25 13.3333 13.3334ZM8.46665 26.6667H13.3333C13.9166 28.75 14.6666 30.75 15.6666 32.6C12.631 31.5528 10.0747 29.4462 8.46665 26.6667V26.6667ZM7.09998 23.3334C6.83331 22.2667 6.66665 21.15 6.66665 20C6.66665 18.85 6.83331 17.7334 7.09998 16.6667H12.7333C12.6 17.7667 12.5 18.8667 12.5 20C12.5 21.1334 12.6 22.2334 12.7333 23.3334H7.09998ZM20 6.71671C21.3833 8.71671 22.5 10.95 23.1833 13.3334H16.8166C17.5 10.95 18.6166 8.71671 20 6.71671V6.71671ZM31.5333 13.3334H26.6166C26.095 11.2691 25.3226 9.27653 24.3166 7.40004C27.3833 8.45004 29.9333 10.5667 31.5333 13.3334ZM20 3.33337C10.7833 3.33337 3.33331 10.8334 3.33331 20C3.33331 24.4203 5.08926 28.6595 8.21487 31.7852C9.76251 33.3328 11.5998 34.5605 13.6219 35.398C15.644 36.2356 17.8113 36.6667 20 36.6667C24.4203 36.6667 28.6595 34.9108 31.7851 31.7852C34.9107 28.6595 36.6666 24.4203 36.6666 20C36.6666 17.8113 36.2356 15.6441 35.398 13.622C34.5604 11.5999 33.3327 9.76257 31.7851 8.21493C30.2375 6.66728 28.4001 5.43963 26.378 4.60205C24.3559 3.76447 22.1887 3.33337 20 3.33337V3.33337Z" fill="white"/>
</svg>
