<svg width="234" height="41" viewBox="0 0 234 41" fill="none" xmlns="http://www.w3.org/2000/svg">
<path d="M72.54 12.42L68.84 7H66.38V7.1L71.1 13.9L66.18 20.94V21H68.72L72.54 15.46L76.34 21H78.88V20.94L73.94 13.9L78.68 7.1V7H76.22L72.54 12.42ZM91.8664 21H94.2464L87.9664 7H85.5264L79.2464 21H81.6264L82.9464 18.06H90.5264L91.8664 21ZM89.7064 16.02H83.7864L86.7464 9.36L89.7064 16.02ZM98.0884 21H100.348V9.02H104.928V7C100.908 7 97.5084 7 93.4884 7V9.02H98.0884V21ZM110.217 21H112.477V9.02H117.057V7C113.037 7 109.637 7 105.617 7V9.02H110.217V21ZM125.116 6.74C120.896 6.74 117.916 9.82 117.916 14.08C117.916 17.76 120.216 21.3 125.076 21.3C129.936 21.3 132.236 17.84 132.236 14.06C132.236 10.28 129.896 6.76 125.116 6.74ZM120.136 14.1C120.136 11.04 121.876 8.78 125.116 8.78C128.536 8.84 130.016 11.52 130.016 14.1C130.016 16.78 128.556 19.24 125.076 19.24C121.616 19.24 120.176 16.58 120.136 14.1ZM146.729 20.6L142.549 15.94C145.309 15.54 146.349 13.58 146.349 11.58C146.349 9.22 144.649 7 141.409 7C139.229 7 137.069 6.98 134.889 6.98V21H137.129V16.16H140.089L144.349 21H146.969L146.729 20.6ZM141.409 9.04C143.249 9.04 144.069 10.36 144.069 11.62C144.069 12.94 143.249 14.12 141.389 14.12H137.129V9.04H141.409ZM151.023 7H149.303V21H151.563V11.12L159.503 21H161.203V7H158.963V16.96L151.023 7ZM175.073 18.8H166.973V15.04H174.693V12.96H166.973V9.18H175.013V7H164.733C164.733 11.66 164.733 16.34 164.733 21H175.073V18.8ZM179.175 7H176.515V7.1L181.915 15.26V21H184.155V15.26L189.715 7.1V7H187.015L183.035 13.18L179.175 7Z" fill="white"/>
<path d="M69.0992 29.976V39H67.9344V29.976H69.0992ZM77.9872 39L75.2992 35.8384V39H74.1344V29.528H75.2992V35.032L77.9488 31.9728H79.3696L76.2208 35.4672L79.4464 39H77.9872ZM84.1711 31.8576C84.9903 31.8576 85.6516 32.1221 86.1551 32.6512C86.6586 33.1717 86.9103 33.9269 86.9103 34.9168V39H85.7455V35.0192C85.7455 34.3195 85.5663 33.7819 85.2079 33.4064C84.8495 33.0309 84.3631 32.8432 83.7487 32.8432C83.1087 32.8432 82.5967 33.0523 82.2127 33.4704C81.8287 33.88 81.6367 34.4816 81.6367 35.2752V39H80.4719V31.9728H81.6367V33.6368C81.8159 33.0651 82.1316 32.6256 82.5839 32.3184C83.0447 32.0112 83.5738 31.8576 84.1711 31.8576ZM91.8841 31.8832C92.5582 31.8832 93.1598 32.0283 93.6889 32.3184C94.2265 32.6085 94.6446 33.0267 94.9433 33.5728C95.2505 34.1189 95.4041 34.7589 95.4041 35.4928C95.4041 36.2267 95.2505 36.8667 94.9433 37.4128C94.6446 37.9504 94.2265 38.3643 93.6889 38.6544C93.1598 38.9445 92.5582 39.0896 91.8841 39.0896C91.21 39.0896 90.6041 38.9445 90.0665 38.6544C89.5374 38.3643 89.1193 37.9504 88.8121 37.4128C88.5049 36.8667 88.3513 36.2267 88.3513 35.4928C88.3513 34.7589 88.5049 34.1189 88.8121 33.5728C89.1193 33.0267 89.5374 32.6085 90.0665 32.3184C90.6041 32.0283 91.21 31.8832 91.8841 31.8832ZM91.8841 32.9072C91.466 32.9072 91.0777 33.0011 90.7193 33.1888C90.3694 33.3765 90.0836 33.6667 89.8617 34.0592C89.6484 34.4432 89.5417 34.9211 89.5417 35.4928C89.5417 36.056 89.6484 36.5339 89.8617 36.9264C90.0836 37.3104 90.3694 37.5963 90.7193 37.784C91.0777 37.9717 91.466 38.0656 91.8841 38.0656C92.3022 38.0656 92.6862 37.9717 93.0361 37.784C93.3945 37.5963 93.6804 37.3104 93.8937 36.9264C94.1156 36.5339 94.2265 36.056 94.2265 35.4928C94.2265 34.9211 94.1156 34.4432 93.8937 34.0592C93.6804 33.6667 93.3945 33.3765 93.0361 33.1888C92.6862 33.0011 92.3022 32.9072 91.8841 32.9072ZM106.573 31.9728L104.551 39H103.296L101.364 33.2784L99.4179 39H98.1507L96.1539 31.9728H97.3315L98.8291 37.8864L100.775 31.9728H101.991L103.949 37.8736L105.46 31.9728H106.573ZM120.473 31.9728L118.451 39H117.196L115.264 33.2784L113.318 39H112.051L110.054 31.9728H111.232L112.729 37.8864L114.675 31.9728H115.891L117.849 37.8736L119.36 31.9728H120.473ZM125.259 31.8576C126.078 31.8576 126.739 32.1221 127.243 32.6512C127.746 33.1717 127.998 33.9269 127.998 34.9168V39H126.833V35.0192C126.833 34.3195 126.654 33.7819 126.295 33.4064C125.937 33.0309 125.451 32.8432 124.836 32.8432C124.196 32.8432 123.684 33.0523 123.3 33.4704C122.916 33.88 122.724 34.4816 122.724 35.2752V39H121.559V29.528H122.724V33.6368C122.903 33.0651 123.219 32.6256 123.671 32.3184C124.132 32.0112 124.661 31.8576 125.259 31.8576ZM132.664 31.8832C133.347 31.8832 133.923 32.0539 134.392 32.3952C134.87 32.7365 135.203 33.1931 135.391 33.7648V31.9728H136.556V39H135.391V37.208C135.203 37.7797 134.87 38.2363 134.392 38.5776C133.923 38.9189 133.347 39.0896 132.664 39.0896C132.041 39.0896 131.487 38.9445 131 38.6544C130.514 38.3643 130.13 37.9504 129.848 37.4128C129.575 36.8667 129.439 36.2267 129.439 35.4928C129.439 34.7589 129.575 34.1189 129.848 33.5728C130.13 33.0267 130.514 32.6085 131 32.3184C131.487 32.0283 132.041 31.8832 132.664 31.8832ZM132.997 32.92C132.28 32.92 131.704 33.1504 131.269 33.6112C130.843 34.0635 130.629 34.6907 130.629 35.4928C130.629 36.2949 130.843 36.9264 131.269 37.3872C131.704 37.8395 132.28 38.0656 132.997 38.0656C133.458 38.0656 133.868 37.9589 134.226 37.7456C134.593 37.5323 134.879 37.2336 135.084 36.8496C135.288 36.4571 135.391 36.0048 135.391 35.4928C135.391 34.9808 135.288 34.5285 135.084 34.136C134.879 33.7435 134.593 33.4448 134.226 33.24C133.868 33.0267 133.458 32.92 132.997 32.92ZM141.763 37.976V39H140.893C140.176 39 139.638 38.8293 139.28 38.488C138.93 38.1467 138.755 37.5749 138.755 36.7728V32.984H137.705V31.9728H138.755V30.2192H139.933V31.9728H141.75V32.984H139.933V36.7984C139.933 37.2507 140.014 37.5621 140.176 37.7328C140.346 37.8949 140.637 37.976 141.046 37.976H141.763ZM154.987 31.8576C155.806 31.8576 156.463 32.1221 156.958 32.6512C157.462 33.1717 157.713 33.9269 157.713 34.9168V39H156.549V35.0192C156.549 34.328 156.378 33.7989 156.037 33.432C155.704 33.0651 155.243 32.8816 154.654 32.8816C154.04 32.8816 153.545 33.0864 153.169 33.496C152.802 33.8971 152.619 34.4901 152.619 35.2752V39H151.454V35.0192C151.454 34.328 151.283 33.7989 150.942 33.432C150.601 33.0651 150.14 32.8816 149.56 32.8816C148.937 32.8816 148.438 33.0864 148.062 33.496C147.695 33.8971 147.512 34.4901 147.512 35.2752V39H146.347V31.9728H147.512V33.5728C147.682 33.0181 147.985 32.5957 148.421 32.3056C148.864 32.0069 149.372 31.8576 149.944 31.8576C150.541 31.8576 151.057 32.0112 151.493 32.3184C151.936 32.6171 152.252 33.0608 152.44 33.6496C152.636 33.0779 152.965 32.6384 153.425 32.3312C153.886 32.0155 154.407 31.8576 154.987 31.8576ZM162.402 31.8832C163.085 31.8832 163.661 32.0539 164.13 32.3952C164.608 32.7365 164.941 33.1931 165.128 33.7648V31.9728H166.293V39H165.128V37.208C164.941 37.7797 164.608 38.2363 164.13 38.5776C163.661 38.9189 163.085 39.0896 162.402 39.0896C161.779 39.0896 161.224 38.9445 160.738 38.6544C160.252 38.3643 159.868 37.9504 159.586 37.4128C159.313 36.8667 159.176 36.2267 159.176 35.4928C159.176 34.7589 159.313 34.1189 159.586 33.5728C159.868 33.0267 160.252 32.6085 160.738 32.3184C161.224 32.0283 161.779 31.8832 162.402 31.8832ZM162.735 32.92C162.018 32.92 161.442 33.1504 161.007 33.6112C160.58 34.0635 160.367 34.6907 160.367 35.4928C160.367 36.2949 160.58 36.9264 161.007 37.3872C161.442 37.8395 162.018 38.0656 162.735 38.0656C163.196 38.0656 163.605 37.9589 163.964 37.7456C164.33 37.5323 164.616 37.2336 164.821 36.8496C165.026 36.4571 165.128 36.0048 165.128 35.4928C165.128 34.9808 165.026 34.5285 164.821 34.136C164.616 33.7435 164.33 33.4448 163.964 33.24C163.605 33.0267 163.196 32.92 162.735 32.92ZM171.501 37.976V39H170.63C169.913 39 169.376 38.8293 169.017 38.488C168.667 38.1467 168.493 37.5749 168.493 36.7728V32.984H167.443V31.9728H168.493V30.2192H169.67V31.9728H171.488V32.984H169.67V36.7984C169.67 37.2507 169.751 37.5621 169.913 37.7328C170.084 37.8949 170.374 37.976 170.784 37.976H171.501ZM176.276 37.976V39H175.405C174.688 39 174.151 38.8293 173.792 38.488C173.442 38.1467 173.268 37.5749 173.268 36.7728V32.984H172.218V31.9728H173.268V30.2192H174.445V31.9728H176.263V32.984H174.445V36.7984C174.445 37.2507 174.526 37.5621 174.688 37.7328C174.859 37.8949 175.149 37.976 175.559 37.976H176.276ZM184.161 35.096C184.161 35.3435 184.144 35.5568 184.11 35.736H178.491C178.516 36.5381 178.742 37.1397 179.169 37.5408C179.604 37.9419 180.133 38.1424 180.756 38.1424C181.319 38.1424 181.789 38.0016 182.164 37.72C182.548 37.4299 182.783 37.0459 182.868 36.568H184.11C184.024 37.0544 183.832 37.4896 183.534 37.8736C183.244 38.2576 182.864 38.5563 182.395 38.7696C181.925 38.9829 181.396 39.0896 180.807 39.0896C180.133 39.0896 179.536 38.9445 179.015 38.6544C178.495 38.3643 178.085 37.9504 177.787 37.4128C177.496 36.8667 177.351 36.2267 177.351 35.4928C177.351 34.7589 177.496 34.1189 177.787 33.5728C178.085 33.0267 178.495 32.6085 179.015 32.3184C179.536 32.0283 180.133 31.8832 180.807 31.8832C181.49 31.8832 182.083 32.0283 182.587 32.3184C183.099 32.6085 183.487 32.9968 183.751 33.4832C184.024 33.9696 184.161 34.5072 184.161 35.096ZM182.983 35.1728C183.009 34.6523 182.924 34.2171 182.727 33.8672C182.531 33.5173 182.262 33.2571 181.921 33.0864C181.58 32.9157 181.208 32.8304 180.807 32.8304C180.167 32.8304 179.63 33.0309 179.195 33.432C178.759 33.8245 178.525 34.4048 178.491 35.1728H182.983ZM186.849 33.3936C187.08 32.9072 187.417 32.5317 187.86 32.2672C188.304 31.9941 188.833 31.8576 189.448 31.8576V33.1248H189.089C188.432 33.1248 187.895 33.2955 187.476 33.6368C187.058 33.9696 186.849 34.5243 186.849 35.3008V39H185.684V31.9728H186.849V33.3936ZM192.799 31.8832C193.592 31.8832 194.228 32.0923 194.706 32.5104C195.192 32.92 195.487 33.4747 195.589 34.1744H194.475C194.424 33.7563 194.249 33.4149 193.951 33.1504C193.66 32.8773 193.268 32.7408 192.773 32.7408C192.355 32.7408 192.026 32.8432 191.787 33.048C191.557 33.2443 191.442 33.5131 191.442 33.8544C191.442 34.1104 191.519 34.3195 191.672 34.4816C191.834 34.6352 192.031 34.7547 192.261 34.84C192.5 34.9168 192.824 35.0021 193.234 35.096C193.754 35.2155 194.172 35.3392 194.488 35.4672C194.812 35.5867 195.085 35.7829 195.307 36.056C195.538 36.3291 195.653 36.696 195.653 37.1568C195.653 37.7285 195.435 38.1936 195 38.552C194.573 38.9104 194.002 39.0896 193.285 39.0896C192.449 39.0896 191.766 38.8891 191.237 38.488C190.708 38.0869 190.396 37.528 190.303 36.8112H191.429C191.472 37.2379 191.655 37.5835 191.979 37.848C192.312 38.1125 192.747 38.2448 193.285 38.2448C193.686 38.2448 193.997 38.1424 194.219 37.9376C194.45 37.7328 194.565 37.464 194.565 37.1312C194.565 36.8581 194.484 36.6405 194.322 36.4784C194.16 36.3163 193.959 36.1925 193.72 36.1072C193.481 36.0219 193.153 35.9323 192.735 35.8384C192.214 35.7189 191.796 35.5995 191.48 35.48C191.173 35.3605 190.908 35.1728 190.687 34.9168C190.473 34.6523 190.367 34.2981 190.367 33.8544C190.367 33.2656 190.584 32.792 191.019 32.4336C191.455 32.0667 192.048 31.8832 192.799 31.8832Z" fill="#C8AC48"/>
<path d="M198.067 37.6304V39H196.659V37.6304H198.067Z" fill="#E5E5E5"/>
<path d="M23.0556 24.3573L21.58 21.4415L2.10789 30.3382C0.821155 30.9261 0.281752 32.4663 0.920592 33.7285C1.55943 34.9908 3.11996 35.4682 4.35568 34.7795L23.0556 24.3573Z" fill="#C8AC48"/>
<path d="M4.26703 34.8269C3.04661 35.4446 1.54416 34.9606 0.920771 33.7288C0.736356 33.3644 0.650422 32.9773 0.652796 32.5964C1.38515 33.1319 2.38442 33.2436 3.24324 32.8089C3.27341 32.7937 3.30395 32.777 3.33363 32.7609L22.0339 22.3384L23.0558 24.3574L4.35557 34.7798C4.32589 34.7959 4.29628 34.8121 4.26703 34.8269Z" fill="#C8AC48"/>
<path d="M27.6441 17.668L20.6101 22.0411L21.9983 24.7838L29.6875 21.7056L27.6441 17.668Z" fill="#C8AC48"/>
<path d="M27.6439 17.668L25.371 19.0811L25.7005 19.7321C25.943 20.2113 25.7512 20.7963 25.272 21.0387L21.1568 23.1214L21.9981 24.7838L29.6873 21.7055L27.6439 17.668Z" fill="#C8AC48"/>
<path d="M20.3873 25.5488L19.0398 22.8863C18.6503 22.1166 18.9585 21.1768 19.7282 20.7872C20.4979 20.3977 21.4377 20.7059 21.8273 21.4756L23.1747 24.138C23.5643 24.9077 23.2561 25.8475 22.4864 26.2371C21.7167 26.6266 20.7769 26.3184 20.3873 25.5488Z" fill="#FCC16D"/>
<path d="M22.4858 26.2368C22.1006 26.4318 21.6731 26.4517 21.2944 26.3276C20.9143 26.203 20.5817 25.9337 20.3867 25.5485L19.3654 23.5304C19.5603 23.9156 19.8929 24.1849 20.2726 24.3086C20.6517 24.4337 21.0793 24.4136 21.4644 24.2188C22.2347 23.8289 22.5422 22.889 22.1528 22.1197L23.1741 24.1378C23.5639 24.9081 23.2561 25.847 22.4858 26.2368Z" fill="#FCC16D"/>
<path d="M34.7842 4.74237L37.7761 10.6541L28.4949 15.3513L25.503 9.43961L34.7842 4.74237Z" fill="#C8AC48"/>
<path d="M35.0464 28.3069L32.0544 22.3952L41.3356 17.698L44.3276 23.6097L35.0464 28.3069Z" fill="#C8AC48"/>
<path d="M23.7474 10.5631L23.6434 10.3578C23.2493 9.5791 23.5611 8.62837 24.3398 8.23417L34.4987 3.09274C35.2774 2.69864 36.2281 3.01041 36.6223 3.78914L36.7262 3.99445C37.1203 4.77315 36.8086 5.72388 36.0298 6.11807L25.871 11.2595C25.0923 11.6536 24.1415 11.3418 23.7474 10.5631Z" fill="#FCC16D"/>
<path d="M33.1052 29.0527L33.2091 29.258C33.6032 30.0367 34.5539 30.3485 35.3327 29.9544L45.4916 24.813C46.2703 24.4189 46.582 23.4681 46.188 22.6894L46.0841 22.484C45.69 21.7053 44.7392 21.3936 43.9604 21.7876L33.8016 26.9291C33.0228 27.3232 32.711 28.274 33.1052 29.0527Z" fill="#FCC16D"/>
<path d="M40.2446 9.65228L43.6045 16.2911L29.5872 23.3853L26.2273 16.7465L40.2446 9.65228Z" fill="#FCC16D"/>
<path d="M27.8813 20.0299L41.8987 12.9357L43.5993 16.2958L29.5819 23.3901L27.8813 20.0299Z" fill="#E7AD5B"/>
<path d="M40.3377 9.45L39.277 8.54759C38.9134 8.23823 38.3997 8.17717 37.9738 8.3928L26.5527 14.1731C26.1267 14.3887 25.8717 14.8387 25.9057 15.3149L26.0047 16.704C26.0449 17.2672 26.6458 17.6077 27.1496 17.3527L40.1824 10.7567C40.6863 10.5018 40.7677 9.81588 40.3377 9.45Z" fill="#C8AC48"/>
<path d="M43.8265 16.3433L43.9255 17.7324C43.9595 18.2086 43.7045 18.6587 43.2785 18.8742L31.8574 24.6545C31.4314 24.8701 30.9178 24.8091 30.5542 24.4997L29.4935 23.5973C29.0635 23.2314 29.1449 22.5455 29.6487 22.2905L42.6816 15.6946C43.1854 15.4396 43.7863 15.7801 43.8265 16.3433Z" fill="#C8AC48"/>
<path d="M49.3054 34.9914H30.1135V32.2982C30.1135 31.7421 30.5643 31.2914 31.1203 31.2914H48.2987C48.8547 31.2914 49.3054 31.7421 49.3054 32.2982V34.9914Z" fill="#AB974E"/>
<path d="M49.305 32.2983V34.9914H47.1989V32.2983C47.1989 31.7426 46.7479 31.2916 46.1921 31.2916H48.2983C48.854 31.2916 49.305 31.7426 49.305 32.2983Z" fill="#C8AC48"/>
<path d="M53.5351 40.2778H25.8837C25.1502 40.2778 24.663 39.5186 24.9683 38.8518L25.9459 36.7174C26.7926 34.8686 28.6395 33.6831 30.673 33.6831H48.7457C50.7793 33.6831 52.6262 34.8686 53.4729 36.7174L54.4504 38.8518C54.7558 39.5186 54.2685 40.2778 53.5351 40.2778Z" fill="#C8AC48"/>
<path d="M53.5354 40.2778H50.8434C51.5763 40.2778 52.0635 39.5187 51.7585 38.8523L50.781 36.717C49.9343 34.8685 48.0869 33.6826 46.0542 33.6826H48.7453C50.7789 33.6826 52.6263 34.8686 53.473 36.717L54.4506 38.8523C54.7557 39.5188 54.2684 40.2778 53.5354 40.2778Z" fill="#AB9750"/>
<path d="M52.0689 29.6243C51.8897 29.6243 51.7107 29.5557 51.5743 29.4186C51.3029 29.1454 51.3042 28.7039 51.5773 28.4324L52.3319 27.6822C52.6051 27.4107 53.0466 27.4121 53.3182 27.6851C53.5896 27.9583 53.5883 28.3998 53.3152 28.6714L52.5606 29.4215C52.4245 29.5568 52.2466 29.6243 52.0689 29.6243Z" fill="#FCC16D"/>
<path d="M49.868 28.0647C49.8118 28.0647 49.7547 28.0578 49.6977 28.0435C49.3242 27.9498 49.0974 27.571 49.191 27.1975L49.4528 26.154C49.5465 25.7804 49.9255 25.5536 50.2988 25.6473C50.6723 25.741 50.8991 26.1197 50.8055 26.4932L50.5437 27.5368C50.4644 27.8534 50.1802 28.0647 49.868 28.0647Z" fill="#FCC16D"/>
<path d="M53.6159 31.8341C53.302 31.8341 53.017 31.6207 52.9391 31.3023C52.8476 30.9281 53.0766 30.5507 53.4508 30.4592L54.4961 30.2035C54.8705 30.1119 55.2476 30.341 55.3392 30.7152C55.4307 31.0894 55.2016 31.4668 54.8275 31.5583L53.7821 31.814C53.7264 31.8275 53.6707 31.8341 53.6159 31.8341Z" fill="#FCC16D"/>
</svg>
