<svg width="38" height="38" viewBox="0 0 38 38" fill="none" xmlns="http://www.w3.org/2000/svg">
<rect opacity="0.25" x="0.75" y="0.75" width="36.3647" height="36.3646" rx="18.1823" stroke="white" stroke-width="1.5"/>
<path d="M26.6542 14.8867C26.5574 14.5248 26.3683 14.1947 26.1058 13.9294C25.8432 13.664 25.5163 13.4726 25.1575 13.3743C23.8274 13.006 18.5059 13 18.5059 13C18.5059 13 13.1852 12.994 11.8542 13.346C11.4957 13.4489 11.1695 13.643 10.9068 13.9096C10.6441 14.1763 10.4538 14.5065 10.3542 14.8687C10.0034 16.2098 10 18.9914 10 18.9914C10 18.9914 9.9966 21.7868 10.3449 23.1142C10.5402 23.8481 11.1136 24.4279 11.8423 24.6257C13.1861 24.994 18.4931 25 18.4931 25C18.4931 25 23.8146 25.006 25.1448 24.6549C25.5037 24.5567 25.8309 24.3657 26.0941 24.1009C26.3574 23.8361 26.5475 23.5066 26.6457 23.145C26.9973 21.8047 26.9999 19.024 26.9999 19.024C26.9999 19.024 27.0169 16.2278 26.6542 14.8867V14.8867ZM16.8037 21.5684L16.8079 16.4299L21.2308 19.0034L16.8037 21.5684V21.5684Z" fill="white"/>
</svg>
