<svg width="195" height="37" viewBox="0 0 195 37" fill="none" xmlns="http://www.w3.org/2000/svg">
<rect width="194.191" height="37" rx="4" fill="#C8AC48"/>
<mask id="mask0" mask-type="alpha" maskUnits="userSpaceOnUse" x="0" y="0" width="195" height="37">
<rect width="194.191" height="37" rx="4" fill="#A68C2F"/>
</mask>
<g mask="url(#mask0)">
<path d="M138.924 0L55.8394 37H194.191V0H138.924Z" fill="#B89D3B"/>
</g>
<path d="M46.3872 21.4128H43.0336L42.496 23H40.2048L43.456 14.0144H45.9904L49.2416 23H46.9248L46.3872 21.4128ZM45.824 19.7232L44.7104 16.4336L43.6096 19.7232H45.824ZM49.7959 19.416C49.7959 18.6821 49.9324 18.0379 50.2055 17.4832C50.4871 16.9285 50.8668 16.5019 51.3447 16.2032C51.8226 15.9045 52.3559 15.7552 52.9447 15.7552C53.414 15.7552 53.8407 15.8533 54.2247 16.0496C54.6172 16.2459 54.9244 16.5104 55.1463 16.8432V13.528H57.3351V23H55.1463V21.976C54.9415 22.3173 54.6471 22.5904 54.2631 22.7952C53.8876 23 53.4482 23.1024 52.9447 23.1024C52.3559 23.1024 51.8226 22.9531 51.3447 22.6544C50.8668 22.3472 50.4871 21.9163 50.2055 21.3616C49.9324 20.7984 49.7959 20.1499 49.7959 19.416ZM55.1463 19.4288C55.1463 18.8827 54.9927 18.4517 54.6855 18.136C54.3868 17.8203 54.0199 17.6624 53.5847 17.6624C53.1495 17.6624 52.7783 17.8203 52.4711 18.136C52.1724 18.4432 52.0231 18.8699 52.0231 19.416C52.0231 19.9621 52.1724 20.3973 52.4711 20.7216C52.7783 21.0373 53.1495 21.1952 53.5847 21.1952C54.0199 21.1952 54.3868 21.0373 54.6855 20.7216C54.9927 20.4059 55.1463 19.9749 55.1463 19.4288ZM58.4834 19.416C58.4834 18.6821 58.6199 18.0379 58.893 17.4832C59.1746 16.9285 59.5543 16.5019 60.0322 16.2032C60.5101 15.9045 61.0434 15.7552 61.6322 15.7552C62.1015 15.7552 62.5282 15.8533 62.9122 16.0496C63.3047 16.2459 63.6119 16.5104 63.8338 16.8432V13.528H66.0226V23H63.8338V21.976C63.629 22.3173 63.3346 22.5904 62.9506 22.7952C62.5751 23 62.1357 23.1024 61.6322 23.1024C61.0434 23.1024 60.5101 22.9531 60.0322 22.6544C59.5543 22.3472 59.1746 21.9163 58.893 21.3616C58.6199 20.7984 58.4834 20.1499 58.4834 19.416ZM63.8338 19.4288C63.8338 18.8827 63.6802 18.4517 63.373 18.136C63.0743 17.8203 62.7074 17.6624 62.2722 17.6624C61.837 17.6624 61.4658 17.8203 61.1586 18.136C60.8599 18.4432 60.7106 18.8699 60.7106 19.416C60.7106 19.9621 60.8599 20.3973 61.1586 20.7216C61.4658 21.0373 61.837 21.1952 62.2722 21.1952C62.7074 21.1952 63.0743 21.0373 63.373 20.7216C63.6802 20.4059 63.8338 19.9749 63.8338 19.4288ZM73.5698 23.0896C72.9127 23.0896 72.3239 22.9829 71.8034 22.7696C71.2829 22.5563 70.8647 22.2405 70.549 21.8224C70.2418 21.4043 70.0797 20.9008 70.0626 20.312H72.3922C72.4263 20.6448 72.5415 20.9008 72.7378 21.08C72.9341 21.2507 73.1901 21.336 73.5058 21.336C73.8301 21.336 74.0861 21.2635 74.2738 21.1184C74.4615 20.9648 74.5554 20.7557 74.5554 20.4912C74.5554 20.2693 74.4786 20.0859 74.325 19.9408C74.1799 19.7957 73.9965 19.6763 73.7746 19.5824C73.5613 19.4885 73.2541 19.3819 72.853 19.2624C72.2727 19.0832 71.7991 18.904 71.4322 18.7248C71.0653 18.5456 70.7495 18.2811 70.485 17.9312C70.2205 17.5813 70.0882 17.1248 70.0882 16.5616C70.0882 15.7253 70.3911 15.0725 70.997 14.6032C71.6029 14.1253 72.3922 13.8864 73.365 13.8864C74.3549 13.8864 75.1527 14.1253 75.7586 14.6032C76.3645 15.0725 76.6887 15.7296 76.7314 16.5744H74.3634C74.3463 16.2843 74.2397 16.0581 74.0434 15.896C73.8471 15.7253 73.5954 15.64 73.2882 15.64C73.0237 15.64 72.8103 15.7125 72.6482 15.8576C72.4861 15.9941 72.405 16.1947 72.405 16.4592C72.405 16.7493 72.5415 16.9755 72.8146 17.1376C73.0877 17.2997 73.5143 17.4747 74.0946 17.6624C74.6749 17.8587 75.1442 18.0464 75.5026 18.2256C75.8695 18.4048 76.1853 18.6651 76.4498 19.0064C76.7143 19.3477 76.8466 19.7872 76.8466 20.3248C76.8466 20.8368 76.7143 21.3019 76.4498 21.72C76.1938 22.1381 75.8183 22.4709 75.3234 22.7184C74.8285 22.9659 74.2439 23.0896 73.5698 23.0896ZM85.2464 15.8576V23H83.0576V22.0272C82.8357 22.3429 82.5328 22.5989 82.1488 22.7952C81.7733 22.9829 81.3552 23.0768 80.8944 23.0768C80.3483 23.0768 79.8661 22.9573 79.448 22.7184C79.0299 22.4709 78.7056 22.1168 78.4752 21.656C78.2448 21.1952 78.1296 20.6533 78.1296 20.0304V15.8576H80.3056V19.736C80.3056 20.2139 80.4293 20.5851 80.6768 20.8496C80.9243 21.1141 81.2571 21.2464 81.6752 21.2464C82.1019 21.2464 82.4389 21.1141 82.6864 20.8496C82.9339 20.5851 83.0576 20.2139 83.0576 19.736V15.8576H85.2464ZM89.0074 16.8688C89.2207 16.536 89.5151 16.2672 89.8906 16.0624C90.2661 15.8576 90.7055 15.7552 91.209 15.7552C91.7978 15.7552 92.3311 15.9045 92.809 16.2032C93.2869 16.5019 93.6623 16.9285 93.9354 17.4832C94.217 18.0379 94.3578 18.6821 94.3578 19.416C94.3578 20.1499 94.217 20.7984 93.9354 21.3616C93.6623 21.9163 93.2869 22.3472 92.809 22.6544C92.3311 22.9531 91.7978 23.1024 91.209 23.1024C90.7141 23.1024 90.2746 23 89.8906 22.7952C89.5151 22.5904 89.2207 22.3259 89.0074 22.0016V26.4048H86.8186V15.8576H89.0074V16.8688ZM92.1306 19.416C92.1306 18.8699 91.977 18.4432 91.6698 18.136C91.3711 17.8203 90.9999 17.6624 90.5562 17.6624C90.121 17.6624 89.7498 17.8203 89.4426 18.136C89.1439 18.4517 88.9946 18.8827 88.9946 19.4288C88.9946 19.9749 89.1439 20.4059 89.4426 20.7216C89.7498 21.0373 90.121 21.1952 90.5562 21.1952C90.9914 21.1952 91.3626 21.0373 91.6698 20.7216C91.977 20.3973 92.1306 19.9621 92.1306 19.416ZM102.239 19.3136C102.239 19.5184 102.226 19.7317 102.201 19.9536H97.2469C97.281 20.3973 97.4218 20.7387 97.6693 20.9776C97.9253 21.208 98.2368 21.3232 98.6037 21.3232C99.1498 21.3232 99.5296 21.0928 99.7429 20.632H102.073C101.953 21.1013 101.735 21.5237 101.42 21.8992C101.113 22.2747 100.724 22.5691 100.255 22.7824C99.7856 22.9957 99.2608 23.1024 98.6805 23.1024C97.9808 23.1024 97.3578 22.9531 96.8117 22.6544C96.2656 22.3557 95.8389 21.9291 95.5317 21.3744C95.2245 20.8197 95.0709 20.1712 95.0709 19.4288C95.0709 18.6864 95.2202 18.0379 95.5189 17.4832C95.8261 16.9285 96.2528 16.5019 96.7989 16.2032C97.345 15.9045 97.9722 15.7552 98.6805 15.7552C99.3717 15.7552 99.9861 15.9003 100.524 16.1904C101.061 16.4805 101.479 16.8944 101.778 17.432C102.085 17.9696 102.239 18.5968 102.239 19.3136ZM99.9989 18.7376C99.9989 18.3621 99.8709 18.0635 99.6149 17.8416C99.3589 17.6197 99.0389 17.5088 98.6549 17.5088C98.288 17.5088 97.9765 17.6155 97.7205 17.8288C97.473 18.0421 97.3194 18.3451 97.2597 18.7376H99.9989ZM105.582 17.048C105.838 16.6555 106.158 16.3483 106.542 16.1264C106.926 15.896 107.353 15.7808 107.822 15.7808V18.0976H107.221C106.675 18.0976 106.265 18.2171 105.992 18.456C105.719 18.6864 105.582 19.096 105.582 19.6848V23H103.394V15.8576H105.582V17.048ZM117.175 21.4128H113.821L113.283 23H110.992L114.243 14.0144H116.778L120.029 23H117.712L117.175 21.4128ZM116.611 19.7232L115.498 16.4336L114.397 19.7232H116.611ZM120.583 19.416C120.583 18.6821 120.72 18.0379 120.993 17.4832C121.275 16.9285 121.654 16.5019 122.132 16.2032C122.61 15.9045 123.143 15.7552 123.732 15.7552C124.202 15.7552 124.628 15.8533 125.012 16.0496C125.405 16.2459 125.712 16.5104 125.934 16.8432V13.528H128.123V23H125.934V21.976C125.729 22.3173 125.435 22.5904 125.051 22.7952C124.675 23 124.236 23.1024 123.732 23.1024C123.143 23.1024 122.61 22.9531 122.132 22.6544C121.654 22.3472 121.275 21.9163 120.993 21.3616C120.72 20.7984 120.583 20.1499 120.583 19.416ZM125.934 19.4288C125.934 18.8827 125.78 18.4517 125.473 18.136C125.174 17.8203 124.807 17.6624 124.372 17.6624C123.937 17.6624 123.566 17.8203 123.259 18.136C122.96 18.4432 122.811 18.8699 122.811 19.416C122.811 19.9621 122.96 20.3973 123.259 20.7216C123.566 21.0373 123.937 21.1952 124.372 21.1952C124.807 21.1952 125.174 21.0373 125.473 20.7216C125.78 20.4059 125.934 19.9749 125.934 19.4288ZM138.82 15.7808C139.707 15.7808 140.411 16.0496 140.932 16.5872C141.461 17.1248 141.725 17.8715 141.725 18.8272V23H139.549V19.1216C139.549 18.6608 139.426 18.3067 139.178 18.0592C138.939 17.8032 138.606 17.6752 138.18 17.6752C137.753 17.6752 137.416 17.8032 137.168 18.0592C136.93 18.3067 136.81 18.6608 136.81 19.1216V23H134.634V19.1216C134.634 18.6608 134.51 18.3067 134.263 18.0592C134.024 17.8032 133.691 17.6752 133.264 17.6752C132.838 17.6752 132.501 17.8032 132.253 18.0592C132.014 18.3067 131.895 18.6608 131.895 19.1216V23H129.706V15.8576H131.895V16.7536C132.117 16.4549 132.407 16.2203 132.765 16.0496C133.124 15.8704 133.529 15.7808 133.981 15.7808C134.519 15.7808 134.997 15.896 135.415 16.1264C135.842 16.3568 136.174 16.6853 136.413 17.112C136.661 16.7195 136.998 16.3995 137.424 16.152C137.851 15.9045 138.316 15.7808 138.82 15.7808ZM144.357 15.1152C143.973 15.1152 143.657 15.0043 143.41 14.7824C143.171 14.552 143.051 14.2704 143.051 13.9376C143.051 13.5963 143.171 13.3147 143.41 13.0928C143.657 12.8624 143.973 12.7472 144.357 12.7472C144.732 12.7472 145.04 12.8624 145.279 13.0928C145.526 13.3147 145.65 13.5963 145.65 13.9376C145.65 14.2704 145.526 14.552 145.279 14.7824C145.04 15.0043 144.732 15.1152 144.357 15.1152ZM145.445 15.8576V23H143.256V15.8576H145.445ZM151.383 15.7808C152.219 15.7808 152.885 16.0539 153.38 16.6C153.883 17.1376 154.135 17.88 154.135 18.8272V23H151.959V19.1216C151.959 18.6437 151.835 18.2725 151.588 18.008C151.34 17.7435 151.008 17.6112 150.59 17.6112C150.171 17.6112 149.839 17.7435 149.591 18.008C149.344 18.2725 149.22 18.6437 149.22 19.1216V23H147.031V15.8576H149.22V16.8048C149.442 16.4891 149.74 16.2416 150.116 16.0624C150.491 15.8747 150.914 15.7808 151.383 15.7808Z" fill="#F2F2F2"/>
</svg>
