<svg width="195" height="37" viewBox="0 0 195 37" fill="none" xmlns="http://www.w3.org/2000/svg">
<rect width="194.191" height="37" rx="4" fill="#C8AC48"/>
<mask id="mask0" mask-type="alpha" maskUnits="userSpaceOnUse" x="0" y="0" width="195" height="37">
<rect width="194.191" height="37" rx="4" fill="#A68C2F"/>
</mask>
<g mask="url(#mask0)">
<path d="M138.924 0L55.8394 37H194.191V0H138.924Z" fill="#B89D3B"/>
</g>
<path d="M39.3872 21.4128H36.0336L35.496 23H33.2048L36.456 14.0144H38.9904L42.2416 23H39.9248L39.3872 21.4128ZM38.824 19.7232L37.7104 16.4336L36.6096 19.7232H38.824ZM42.7959 19.416C42.7959 18.6821 42.9324 18.0379 43.2055 17.4832C43.4871 16.9285 43.8668 16.5019 44.3447 16.2032C44.8226 15.9045 45.3559 15.7552 45.9447 15.7552C46.414 15.7552 46.8407 15.8533 47.2247 16.0496C47.6172 16.2459 47.9244 16.5104 48.1463 16.8432V13.528H50.3351V23H48.1463V21.976C47.9415 22.3173 47.6471 22.5904 47.2631 22.7952C46.8876 23 46.4482 23.1024 45.9447 23.1024C45.3559 23.1024 44.8226 22.9531 44.3447 22.6544C43.8668 22.3472 43.4871 21.9163 43.2055 21.3616C42.9324 20.7984 42.7959 20.1499 42.7959 19.416ZM48.1463 19.4288C48.1463 18.8827 47.9927 18.4517 47.6855 18.136C47.3868 17.8203 47.0199 17.6624 46.5847 17.6624C46.1495 17.6624 45.7783 17.8203 45.4711 18.136C45.1724 18.4432 45.0231 18.8699 45.0231 19.416C45.0231 19.9621 45.1724 20.3973 45.4711 20.7216C45.7783 21.0373 46.1495 21.1952 46.5847 21.1952C47.0199 21.1952 47.3868 21.0373 47.6855 20.7216C47.9927 20.4059 48.1463 19.9749 48.1463 19.4288ZM51.4834 19.416C51.4834 18.6821 51.6199 18.0379 51.893 17.4832C52.1746 16.9285 52.5543 16.5019 53.0322 16.2032C53.5101 15.9045 54.0434 15.7552 54.6322 15.7552C55.1015 15.7552 55.5282 15.8533 55.9122 16.0496C56.3047 16.2459 56.6119 16.5104 56.8338 16.8432V13.528H59.0226V23H56.8338V21.976C56.629 22.3173 56.3346 22.5904 55.9506 22.7952C55.5751 23 55.1357 23.1024 54.6322 23.1024C54.0434 23.1024 53.5101 22.9531 53.0322 22.6544C52.5543 22.3472 52.1746 21.9163 51.893 21.3616C51.6199 20.7984 51.4834 20.1499 51.4834 19.416ZM56.8338 19.4288C56.8338 18.8827 56.6802 18.4517 56.373 18.136C56.0743 17.8203 55.7074 17.6624 55.2722 17.6624C54.837 17.6624 54.4658 17.8203 54.1586 18.136C53.8599 18.4432 53.7106 18.8699 53.7106 19.416C53.7106 19.9621 53.8599 20.3973 54.1586 20.7216C54.4658 21.0373 54.837 21.1952 55.2722 21.1952C55.7074 21.1952 56.0743 21.0373 56.373 20.7216C56.6802 20.4059 56.8338 19.9749 56.8338 19.4288ZM62.9474 18.4944C62.9474 17.6069 63.1394 16.8176 63.5234 16.1264C63.9074 15.4267 64.4407 14.8848 65.1234 14.5008C65.8146 14.1083 66.5954 13.912 67.4658 13.912C68.5325 13.912 69.4455 14.1936 70.205 14.7568C70.9645 15.32 71.4722 16.088 71.7282 17.0608H69.3218C69.1426 16.6853 68.8866 16.3995 68.5538 16.2032C68.2295 16.0069 67.8583 15.9088 67.4402 15.9088C66.7661 15.9088 66.2199 16.1435 65.8018 16.6128C65.3837 17.0821 65.1746 17.7093 65.1746 18.4944C65.1746 19.2795 65.3837 19.9067 65.8018 20.376C66.2199 20.8453 66.7661 21.08 67.4402 21.08C67.8583 21.08 68.2295 20.9819 68.5538 20.7856C68.8866 20.5893 69.1426 20.3035 69.3218 19.928H71.7282C71.4722 20.9008 70.9645 21.6688 70.205 22.232C69.4455 22.7867 68.5325 23.064 67.4658 23.064C66.5954 23.064 65.8146 22.872 65.1234 22.488C64.4407 22.0955 63.9074 21.5536 63.5234 20.8624C63.1394 20.1712 62.9474 19.3819 62.9474 18.4944ZM72.6334 19.416C72.6334 18.6821 72.7699 18.0379 73.043 17.4832C73.3246 16.9285 73.7043 16.5019 74.1822 16.2032C74.6601 15.9045 75.1934 15.7552 75.7822 15.7552C76.2857 15.7552 76.7251 15.8576 77.1006 16.0624C77.4846 16.2672 77.779 16.536 77.9838 16.8688V15.8576H80.1726V23H77.9838V21.9888C77.7705 22.3216 77.4718 22.5904 77.0878 22.7952C76.7123 23 76.2729 23.1024 75.7694 23.1024C75.1891 23.1024 74.6601 22.9531 74.1822 22.6544C73.7043 22.3472 73.3246 21.9163 73.043 21.3616C72.7699 20.7984 72.6334 20.1499 72.6334 19.416ZM77.9838 19.4288C77.9838 18.8827 77.8302 18.4517 77.523 18.136C77.2243 17.8203 76.8574 17.6624 76.4222 17.6624C75.987 17.6624 75.6158 17.8203 75.3086 18.136C75.0099 18.4432 74.8606 18.8699 74.8606 19.416C74.8606 19.9621 75.0099 20.3973 75.3086 20.7216C75.6158 21.0373 75.987 21.1952 76.4222 21.1952C76.8574 21.1952 77.2243 21.0373 77.523 20.7216C77.8302 20.4059 77.9838 19.9749 77.9838 19.4288ZM84.6617 23.1024C84.0388 23.1024 83.4841 22.9957 82.9977 22.7824C82.5113 22.5691 82.1273 22.2789 81.8457 21.912C81.5641 21.5365 81.4062 21.1184 81.3721 20.6576H83.5353C83.5609 20.9051 83.6761 21.1056 83.8809 21.2592C84.0857 21.4128 84.3374 21.4896 84.6361 21.4896C84.9092 21.4896 85.1182 21.4384 85.2633 21.336C85.4169 21.2251 85.4937 21.0843 85.4937 20.9136C85.4937 20.7088 85.387 20.5595 85.1737 20.4656C84.9604 20.3632 84.6148 20.2523 84.1369 20.1328C83.6249 20.0133 83.1982 19.8896 82.8569 19.7616C82.5156 19.6251 82.2212 19.416 81.9737 19.1344C81.7262 18.8443 81.6025 18.456 81.6025 17.9696C81.6025 17.56 81.7134 17.1888 81.9353 16.856C82.1657 16.5147 82.4985 16.2459 82.9337 16.0496C83.3774 15.8533 83.9022 15.7552 84.5081 15.7552C85.4041 15.7552 86.1081 15.9771 86.6201 16.4208C87.1406 16.8645 87.4393 17.4533 87.5161 18.1872H85.4937C85.4596 17.9397 85.3486 17.7435 85.1609 17.5984C84.9817 17.4533 84.7428 17.3808 84.4441 17.3808C84.1881 17.3808 83.9918 17.432 83.8553 17.5344C83.7188 17.6283 83.6505 17.7605 83.6505 17.9312C83.6505 18.136 83.7572 18.2896 83.9705 18.392C84.1924 18.4944 84.5337 18.5968 84.9945 18.6992C85.5236 18.8357 85.9545 18.9723 86.2873 19.1088C86.6201 19.2368 86.9102 19.4501 87.1577 19.7488C87.4137 20.0389 87.546 20.4315 87.5545 20.9264C87.5545 21.3445 87.435 21.72 87.1961 22.0528C86.9657 22.3771 86.6286 22.6331 86.1849 22.8208C85.7497 23.0085 85.242 23.1024 84.6617 23.1024ZM95.6264 19.3136C95.6264 19.5184 95.6136 19.7317 95.588 19.9536H90.6344C90.6685 20.3973 90.8093 20.7387 91.0568 20.9776C91.3128 21.208 91.6243 21.3232 91.9912 21.3232C92.5373 21.3232 92.9171 21.0928 93.1304 20.632H95.46C95.3405 21.1013 95.1229 21.5237 94.8072 21.8992C94.5 22.2747 94.1117 22.5691 93.6424 22.7824C93.1731 22.9957 92.6483 23.1024 92.068 23.1024C91.3683 23.1024 90.7453 22.9531 90.1992 22.6544C89.6531 22.3557 89.2264 21.9291 88.9192 21.3744C88.612 20.8197 88.4584 20.1712 88.4584 19.4288C88.4584 18.6864 88.6077 18.0379 88.9064 17.4832C89.2136 16.9285 89.6403 16.5019 90.1864 16.2032C90.7325 15.9045 91.3597 15.7552 92.068 15.7552C92.7592 15.7552 93.3736 15.9003 93.9112 16.1904C94.4488 16.4805 94.8669 16.8944 95.1656 17.432C95.4728 17.9696 95.6264 18.5968 95.6264 19.3136ZM93.3864 18.7376C93.3864 18.3621 93.2584 18.0635 93.0024 17.8416C92.7464 17.6197 92.4264 17.5088 92.0424 17.5088C91.6755 17.5088 91.364 17.6155 91.108 17.8288C90.8605 18.0421 90.7069 18.3451 90.6472 18.7376H93.3864ZM99.1224 18.4944C99.1224 17.6069 99.3144 16.8176 99.6984 16.1264C100.082 15.4267 100.616 14.8848 101.298 14.5008C101.99 14.1083 102.77 13.912 103.641 13.912C104.707 13.912 105.621 14.1936 106.38 14.7568C107.139 15.32 107.647 16.088 107.903 17.0608H105.497C105.318 16.6853 105.062 16.3995 104.729 16.2032C104.405 16.0069 104.033 15.9088 103.615 15.9088C102.941 15.9088 102.395 16.1435 101.977 16.6128C101.559 17.0821 101.35 17.7093 101.35 18.4944C101.35 19.2795 101.559 19.9067 101.977 20.376C102.395 20.8453 102.941 21.08 103.615 21.08C104.033 21.08 104.405 20.9819 104.729 20.7856C105.062 20.5893 105.318 20.3035 105.497 19.928H107.903C107.647 20.9008 107.139 21.6688 106.38 22.232C105.621 22.7867 104.707 23.064 103.641 23.064C102.77 23.064 101.99 22.872 101.298 22.488C100.616 22.0955 100.082 21.5536 99.6984 20.8624C99.3144 20.1712 99.1224 19.3819 99.1224 18.4944ZM108.808 19.416C108.808 18.6821 108.945 18.0379 109.218 17.4832C109.5 16.9285 109.879 16.5019 110.357 16.2032C110.835 15.9045 111.368 15.7552 111.957 15.7552C112.461 15.7552 112.9 15.8576 113.276 16.0624C113.66 16.2672 113.954 16.536 114.159 16.8688V15.8576H116.348V23H114.159V21.9888C113.945 22.3216 113.647 22.5904 113.263 22.7952C112.887 23 112.448 23.1024 111.944 23.1024C111.364 23.1024 110.835 22.9531 110.357 22.6544C109.879 22.3472 109.5 21.9163 109.218 21.3616C108.945 20.7984 108.808 20.1499 108.808 19.416ZM114.159 19.4288C114.159 18.8827 114.005 18.4517 113.698 18.136C113.399 17.8203 113.032 17.6624 112.597 17.6624C112.162 17.6624 111.791 17.8203 111.484 18.136C111.185 18.4432 111.036 18.8699 111.036 19.416C111.036 19.9621 111.185 20.3973 111.484 20.7216C111.791 21.0373 112.162 21.1952 112.597 21.1952C113.032 21.1952 113.399 21.0373 113.698 20.7216C114.005 20.4059 114.159 19.9749 114.159 19.4288ZM121.912 21.144V23H120.798C120.005 23 119.386 22.808 118.942 22.424C118.499 22.0315 118.277 21.3957 118.277 20.5168V17.6752H117.406V15.8576H118.277V14.1168H120.465V15.8576H121.899V17.6752H120.465V20.5424C120.465 20.7557 120.517 20.9093 120.619 21.0032C120.721 21.0971 120.892 21.144 121.131 21.144H121.912ZM129.864 19.3136C129.864 19.5184 129.851 19.7317 129.826 19.9536H124.872C124.906 20.3973 125.047 20.7387 125.294 20.9776C125.55 21.208 125.862 21.3232 126.229 21.3232C126.775 21.3232 127.155 21.0928 127.368 20.632H129.698C129.578 21.1013 129.36 21.5237 129.045 21.8992C128.738 22.2747 128.349 22.5691 127.88 22.7824C127.411 22.9957 126.886 23.1024 126.306 23.1024C125.606 23.1024 124.983 22.9531 124.437 22.6544C123.891 22.3557 123.464 21.9291 123.157 21.3744C122.85 20.8197 122.696 20.1712 122.696 19.4288C122.696 18.6864 122.845 18.0379 123.144 17.4832C123.451 16.9285 123.878 16.5019 124.424 16.2032C124.97 15.9045 125.597 15.7552 126.306 15.7552C126.997 15.7552 127.611 15.9003 128.149 16.1904C128.686 16.4805 129.104 16.8944 129.403 17.432C129.71 17.9696 129.864 18.5968 129.864 19.3136ZM127.624 18.7376C127.624 18.3621 127.496 18.0635 127.24 17.8416C126.984 17.6197 126.664 17.5088 126.28 17.5088C125.913 17.5088 125.602 17.6155 125.346 17.8288C125.098 18.0421 124.944 18.3451 124.885 18.7376H127.624ZM133.732 15.7552C134.236 15.7552 134.675 15.8576 135.051 16.0624C135.435 16.2672 135.729 16.536 135.934 16.8688V15.8576H138.123V22.9872C138.123 23.6443 137.99 24.2373 137.726 24.7664C137.47 25.304 137.073 25.7307 136.535 26.0464C136.006 26.3621 135.345 26.52 134.551 26.52C133.493 26.52 132.636 26.2683 131.979 25.7648C131.322 25.2699 130.946 24.5957 130.852 23.7424H133.015C133.084 24.0155 133.246 24.2288 133.502 24.3824C133.758 24.5445 134.074 24.6256 134.449 24.6256C134.901 24.6256 135.26 24.4933 135.524 24.2288C135.797 23.9728 135.934 23.5589 135.934 22.9872V21.976C135.72 22.3088 135.426 22.5819 135.051 22.7952C134.675 23 134.236 23.1024 133.732 23.1024C133.143 23.1024 132.61 22.9531 132.132 22.6544C131.654 22.3472 131.275 21.9163 130.993 21.3616C130.72 20.7984 130.583 20.1499 130.583 19.416C130.583 18.6821 130.72 18.0379 130.993 17.4832C131.275 16.9285 131.654 16.5019 132.132 16.2032C132.61 15.9045 133.143 15.7552 133.732 15.7552ZM135.934 19.4288C135.934 18.8827 135.78 18.4517 135.473 18.136C135.174 17.8203 134.807 17.6624 134.372 17.6624C133.937 17.6624 133.566 17.8203 133.259 18.136C132.96 18.4432 132.811 18.8699 132.811 19.416C132.811 19.9621 132.96 20.3973 133.259 20.7216C133.566 21.0373 133.937 21.1952 134.372 21.1952C134.807 21.1952 135.174 21.0373 135.473 20.7216C135.78 20.4059 135.934 19.9749 135.934 19.4288ZM142.957 23.1024C142.258 23.1024 141.626 22.9531 141.063 22.6544C140.508 22.3557 140.069 21.9291 139.744 21.3744C139.429 20.8197 139.271 20.1712 139.271 19.4288C139.271 18.6949 139.433 18.0507 139.757 17.496C140.082 16.9328 140.525 16.5019 141.088 16.2032C141.652 15.9045 142.283 15.7552 142.983 15.7552C143.683 15.7552 144.314 15.9045 144.877 16.2032C145.44 16.5019 145.884 16.9328 146.208 17.496C146.533 18.0507 146.695 18.6949 146.695 19.4288C146.695 20.1627 146.528 20.8112 146.196 21.3744C145.871 21.9291 145.423 22.3557 144.852 22.6544C144.288 22.9531 143.657 23.1024 142.957 23.1024ZM142.957 21.208C143.375 21.208 143.73 21.0544 144.02 20.7472C144.318 20.44 144.468 20.0005 144.468 19.4288C144.468 18.8571 144.323 18.4176 144.032 18.1104C143.751 17.8032 143.401 17.6496 142.983 17.6496C142.556 17.6496 142.202 17.8032 141.92 18.1104C141.639 18.4091 141.498 18.8485 141.498 19.4288C141.498 20.0005 141.635 20.44 141.908 20.7472C142.189 21.0544 142.539 21.208 142.957 21.208ZM150.045 17.048C150.301 16.6555 150.621 16.3483 151.005 16.1264C151.389 15.896 151.816 15.7808 152.285 15.7808V18.0976H151.683C151.137 18.0976 150.728 18.2171 150.455 18.456C150.181 18.6864 150.045 19.096 150.045 19.6848V23H147.856V15.8576H150.045V17.048ZM160.627 15.8576L156.147 26.392H153.792L155.43 22.7568L152.525 15.8576H154.969L156.621 20.3248L158.259 15.8576H160.627Z" fill="#F2F2F2"/>
</svg>
