<svg width="195" height="37" viewBox="0 0 195 37" fill="none" xmlns="http://www.w3.org/2000/svg">
<rect width="194.191" height="37" rx="4" fill="#C8AC48"/>
<mask id="mask0" mask-type="alpha" maskUnits="userSpaceOnUse" x="0" y="0" width="195" height="37">
<rect width="194.191" height="37" rx="4" fill="#A68C2F"/>
</mask>
<g mask="url(#mask0)">
<path d="M138.924 0L55.8394 37H194.191V0H138.924Z" fill="#B89D3B"/>
</g>
<path d="M54.3872 21.4128H51.0336L50.496 23H48.2048L51.456 14.0144H53.9904L57.2416 23H54.9248L54.3872 21.4128ZM53.824 19.7232L52.7104 16.4336L51.6096 19.7232H53.824ZM57.7959 19.416C57.7959 18.6821 57.9324 18.0379 58.2055 17.4832C58.4871 16.9285 58.8668 16.5019 59.3447 16.2032C59.8226 15.9045 60.3559 15.7552 60.9447 15.7552C61.414 15.7552 61.8407 15.8533 62.2247 16.0496C62.6172 16.2459 62.9244 16.5104 63.1463 16.8432V13.528H65.3351V23H63.1463V21.976C62.9415 22.3173 62.6471 22.5904 62.2631 22.7952C61.8876 23 61.4482 23.1024 60.9447 23.1024C60.3559 23.1024 59.8226 22.9531 59.3447 22.6544C58.8668 22.3472 58.4871 21.9163 58.2055 21.3616C57.9324 20.7984 57.7959 20.1499 57.7959 19.416ZM63.1463 19.4288C63.1463 18.8827 62.9927 18.4517 62.6855 18.136C62.3868 17.8203 62.0199 17.6624 61.5847 17.6624C61.1495 17.6624 60.7783 17.8203 60.4711 18.136C60.1724 18.4432 60.0231 18.8699 60.0231 19.416C60.0231 19.9621 60.1724 20.3973 60.4711 20.7216C60.7783 21.0373 61.1495 21.1952 61.5847 21.1952C62.0199 21.1952 62.3868 21.0373 62.6855 20.7216C62.9927 20.4059 63.1463 19.9749 63.1463 19.4288ZM66.4834 19.416C66.4834 18.6821 66.6199 18.0379 66.893 17.4832C67.1746 16.9285 67.5543 16.5019 68.0322 16.2032C68.5101 15.9045 69.0434 15.7552 69.6322 15.7552C70.1015 15.7552 70.5282 15.8533 70.9122 16.0496C71.3047 16.2459 71.6119 16.5104 71.8338 16.8432V13.528H74.0226V23H71.8338V21.976C71.629 22.3173 71.3346 22.5904 70.9506 22.7952C70.5751 23 70.1357 23.1024 69.6322 23.1024C69.0434 23.1024 68.5101 22.9531 68.0322 22.6544C67.5543 22.3472 67.1746 21.9163 66.893 21.3616C66.6199 20.7984 66.4834 20.1499 66.4834 19.416ZM71.8338 19.4288C71.8338 18.8827 71.6802 18.4517 71.373 18.136C71.0743 17.8203 70.7074 17.6624 70.2722 17.6624C69.837 17.6624 69.4658 17.8203 69.1586 18.136C68.8599 18.4432 68.7106 18.8699 68.7106 19.416C68.7106 19.9621 68.8599 20.3973 69.1586 20.7216C69.4658 21.0373 69.837 21.1952 70.2722 21.1952C70.7074 21.1952 71.0743 21.0373 71.373 20.7216C71.6802 20.4059 71.8338 19.9749 71.8338 19.4288ZM77.9474 18.4944C77.9474 17.6069 78.1394 16.8176 78.5234 16.1264C78.9074 15.4267 79.4407 14.8848 80.1234 14.5008C80.8146 14.1083 81.5954 13.912 82.4658 13.912C83.5325 13.912 84.4455 14.1936 85.205 14.7568C85.9645 15.32 86.4722 16.088 86.7282 17.0608H84.3218C84.1426 16.6853 83.8866 16.3995 83.5538 16.2032C83.2295 16.0069 82.8583 15.9088 82.4402 15.9088C81.7661 15.9088 81.2199 16.1435 80.8018 16.6128C80.3837 17.0821 80.1746 17.7093 80.1746 18.4944C80.1746 19.2795 80.3837 19.9067 80.8018 20.376C81.2199 20.8453 81.7661 21.08 82.4402 21.08C82.8583 21.08 83.2295 20.9819 83.5538 20.7856C83.8866 20.5893 84.1426 20.3035 84.3218 19.928H86.7282C86.4722 20.9008 85.9645 21.6688 85.205 22.232C84.4455 22.7867 83.5325 23.064 82.4658 23.064C81.5954 23.064 80.8146 22.872 80.1234 22.488C79.4407 22.0955 78.9074 21.5536 78.5234 20.8624C78.1394 20.1712 77.9474 19.3819 77.9474 18.4944ZM87.6334 19.416C87.6334 18.6821 87.7699 18.0379 88.043 17.4832C88.3246 16.9285 88.7043 16.5019 89.1822 16.2032C89.6601 15.9045 90.1934 15.7552 90.7822 15.7552C91.2857 15.7552 91.7251 15.8576 92.1006 16.0624C92.4846 16.2672 92.779 16.536 92.9838 16.8688V15.8576H95.1726V23H92.9838V21.9888C92.7705 22.3216 92.4718 22.5904 92.0878 22.7952C91.7123 23 91.2729 23.1024 90.7694 23.1024C90.1891 23.1024 89.6601 22.9531 89.1822 22.6544C88.7043 22.3472 88.3246 21.9163 88.043 21.3616C87.7699 20.7984 87.6334 20.1499 87.6334 19.416ZM92.9838 19.4288C92.9838 18.8827 92.8302 18.4517 92.523 18.136C92.2243 17.8203 91.8574 17.6624 91.4222 17.6624C90.987 17.6624 90.6158 17.8203 90.3086 18.136C90.0099 18.4432 89.8606 18.8699 89.8606 19.416C89.8606 19.9621 90.0099 20.3973 90.3086 20.7216C90.6158 21.0373 90.987 21.1952 91.4222 21.1952C91.8574 21.1952 92.2243 21.0373 92.523 20.7216C92.8302 20.4059 92.9838 19.9749 92.9838 19.4288ZM99.6617 23.1024C99.0388 23.1024 98.4841 22.9957 97.9977 22.7824C97.5113 22.5691 97.1273 22.2789 96.8457 21.912C96.5641 21.5365 96.4062 21.1184 96.3721 20.6576H98.5353C98.5609 20.9051 98.6761 21.1056 98.8809 21.2592C99.0857 21.4128 99.3374 21.4896 99.6361 21.4896C99.9092 21.4896 100.118 21.4384 100.263 21.336C100.417 21.2251 100.494 21.0843 100.494 20.9136C100.494 20.7088 100.387 20.5595 100.174 20.4656C99.9604 20.3632 99.6148 20.2523 99.1369 20.1328C98.6249 20.0133 98.1982 19.8896 97.8569 19.7616C97.5156 19.6251 97.2212 19.416 96.9737 19.1344C96.7262 18.8443 96.6025 18.456 96.6025 17.9696C96.6025 17.56 96.7134 17.1888 96.9353 16.856C97.1657 16.5147 97.4985 16.2459 97.9337 16.0496C98.3774 15.8533 98.9022 15.7552 99.5081 15.7552C100.404 15.7552 101.108 15.9771 101.62 16.4208C102.141 16.8645 102.439 17.4533 102.516 18.1872H100.494C100.46 17.9397 100.349 17.7435 100.161 17.5984C99.9817 17.4533 99.7428 17.3808 99.4441 17.3808C99.1881 17.3808 98.9918 17.432 98.8553 17.5344C98.7188 17.6283 98.6505 17.7605 98.6505 17.9312C98.6505 18.136 98.7572 18.2896 98.9705 18.392C99.1924 18.4944 99.5337 18.5968 99.9945 18.6992C100.524 18.8357 100.955 18.9723 101.287 19.1088C101.62 19.2368 101.91 19.4501 102.158 19.7488C102.414 20.0389 102.546 20.4315 102.555 20.9264C102.555 21.3445 102.435 21.72 102.196 22.0528C101.966 22.3771 101.629 22.6331 101.185 22.8208C100.75 23.0085 100.242 23.1024 99.6617 23.1024ZM110.626 19.3136C110.626 19.5184 110.614 19.7317 110.588 19.9536H105.634C105.669 20.3973 105.809 20.7387 106.057 20.9776C106.313 21.208 106.624 21.3232 106.991 21.3232C107.537 21.3232 107.917 21.0928 108.13 20.632H110.46C110.341 21.1013 110.123 21.5237 109.807 21.8992C109.5 22.2747 109.112 22.5691 108.642 22.7824C108.173 22.9957 107.648 23.1024 107.068 23.1024C106.368 23.1024 105.745 22.9531 105.199 22.6544C104.653 22.3557 104.226 21.9291 103.919 21.3744C103.612 20.8197 103.458 20.1712 103.458 19.4288C103.458 18.6864 103.608 18.0379 103.906 17.4832C104.214 16.9285 104.64 16.5019 105.186 16.2032C105.733 15.9045 106.36 15.7552 107.068 15.7552C107.759 15.7552 108.374 15.9003 108.911 16.1904C109.449 16.4805 109.867 16.8944 110.166 17.432C110.473 17.9696 110.626 18.5968 110.626 19.3136ZM108.386 18.7376C108.386 18.3621 108.258 18.0635 108.002 17.8416C107.746 17.6197 107.426 17.5088 107.042 17.5088C106.675 17.5088 106.364 17.6155 106.108 17.8288C105.861 18.0421 105.707 18.3451 105.647 18.7376H108.386ZM120.958 14.0144V15.768H118.577V23H116.388V15.768H114.007V14.0144H120.958ZM129.352 15.8576L124.872 26.392H122.517L124.155 22.7568L121.25 15.8576H123.694L125.346 20.3248L126.984 15.8576H129.352ZM132.332 16.8688C132.546 16.536 132.84 16.2672 133.216 16.0624C133.591 15.8576 134.031 15.7552 134.534 15.7552C135.123 15.7552 135.656 15.9045 136.134 16.2032C136.612 16.5019 136.987 16.9285 137.26 17.4832C137.542 18.0379 137.683 18.6821 137.683 19.416C137.683 20.1499 137.542 20.7984 137.26 21.3616C136.987 21.9163 136.612 22.3472 136.134 22.6544C135.656 22.9531 135.123 23.1024 134.534 23.1024C134.039 23.1024 133.6 23 133.216 22.7952C132.84 22.5904 132.546 22.3259 132.332 22.0016V26.4048H130.144V15.8576H132.332V16.8688ZM135.456 19.416C135.456 18.8699 135.302 18.4432 134.995 18.136C134.696 17.8203 134.325 17.6624 133.881 17.6624C133.446 17.6624 133.075 17.8203 132.768 18.136C132.469 18.4517 132.32 18.8827 132.32 19.4288C132.32 19.9749 132.469 20.4059 132.768 20.7216C133.075 21.0373 133.446 21.1952 133.881 21.1952C134.316 21.1952 134.688 21.0373 134.995 20.7216C135.302 20.3973 135.456 19.9621 135.456 19.416ZM145.564 19.3136C145.564 19.5184 145.551 19.7317 145.525 19.9536H140.572C140.606 20.3973 140.747 20.7387 140.994 20.9776C141.25 21.208 141.562 21.3232 141.929 21.3232C142.475 21.3232 142.855 21.0928 143.068 20.632H145.397C145.278 21.1013 145.06 21.5237 144.745 21.8992C144.437 22.2747 144.049 22.5691 143.58 22.7824C143.111 22.9957 142.586 23.1024 142.005 23.1024C141.306 23.1024 140.683 22.9531 140.137 22.6544C139.591 22.3557 139.164 21.9291 138.857 21.3744C138.549 20.8197 138.396 20.1712 138.396 19.4288C138.396 18.6864 138.545 18.0379 138.844 17.4832C139.151 16.9285 139.578 16.5019 140.124 16.2032C140.67 15.9045 141.297 15.7552 142.005 15.7552C142.697 15.7552 143.311 15.9003 143.849 16.1904C144.386 16.4805 144.804 16.8944 145.103 17.432C145.41 17.9696 145.564 18.5968 145.564 19.3136ZM143.324 18.7376C143.324 18.3621 143.196 18.0635 142.94 17.8416C142.684 17.6197 142.364 17.5088 141.98 17.5088C141.613 17.5088 141.301 17.6155 141.045 17.8288C140.798 18.0421 140.644 18.3451 140.585 18.7376H143.324Z" fill="#F2F2F2"/>
</svg>
