<svg width="195" height="37" viewBox="0 0 195 37" fill="none" xmlns="http://www.w3.org/2000/svg">
<rect width="194.191" height="37" rx="4" fill="#C8AC48"/>
<mask id="mask0" mask-type="alpha" maskUnits="userSpaceOnUse" x="0" y="0" width="195" height="37">
<rect width="194.191" height="37" rx="4" fill="#A68C2F"/>
</mask>
<g mask="url(#mask0)">
<path d="M138.924 0L55.8394 37H194.191V0H138.924Z" fill="#B89D3B"/>
</g>
<path d="M51.3872 21.4128H48.0336L47.496 23H45.2048L48.456 14.0144H50.9904L54.2416 23H51.9248L51.3872 21.4128ZM50.824 19.7232L49.7104 16.4336L48.6096 19.7232H50.824ZM54.7959 19.416C54.7959 18.6821 54.9324 18.0379 55.2055 17.4832C55.4871 16.9285 55.8668 16.5019 56.3447 16.2032C56.8226 15.9045 57.3559 15.7552 57.9447 15.7552C58.414 15.7552 58.8407 15.8533 59.2247 16.0496C59.6172 16.2459 59.9244 16.5104 60.1463 16.8432V13.528H62.3351V23H60.1463V21.976C59.9415 22.3173 59.6471 22.5904 59.2631 22.7952C58.8876 23 58.4482 23.1024 57.9447 23.1024C57.3559 23.1024 56.8226 22.9531 56.3447 22.6544C55.8668 22.3472 55.4871 21.9163 55.2055 21.3616C54.9324 20.7984 54.7959 20.1499 54.7959 19.416ZM60.1463 19.4288C60.1463 18.8827 59.9927 18.4517 59.6855 18.136C59.3868 17.8203 59.0199 17.6624 58.5847 17.6624C58.1495 17.6624 57.7783 17.8203 57.4711 18.136C57.1724 18.4432 57.0231 18.8699 57.0231 19.416C57.0231 19.9621 57.1724 20.3973 57.4711 20.7216C57.7783 21.0373 58.1495 21.1952 58.5847 21.1952C59.0199 21.1952 59.3868 21.0373 59.6855 20.7216C59.9927 20.4059 60.1463 19.9749 60.1463 19.4288ZM63.4834 19.416C63.4834 18.6821 63.6199 18.0379 63.893 17.4832C64.1746 16.9285 64.5543 16.5019 65.0322 16.2032C65.5101 15.9045 66.0434 15.7552 66.6322 15.7552C67.1015 15.7552 67.5282 15.8533 67.9122 16.0496C68.3047 16.2459 68.6119 16.5104 68.8338 16.8432V13.528H71.0226V23H68.8338V21.976C68.629 22.3173 68.3346 22.5904 67.9506 22.7952C67.5751 23 67.1357 23.1024 66.6322 23.1024C66.0434 23.1024 65.5101 22.9531 65.0322 22.6544C64.5543 22.3472 64.1746 21.9163 63.893 21.3616C63.6199 20.7984 63.4834 20.1499 63.4834 19.416ZM68.8338 19.4288C68.8338 18.8827 68.6802 18.4517 68.373 18.136C68.0743 17.8203 67.7074 17.6624 67.2722 17.6624C66.837 17.6624 66.4658 17.8203 66.1586 18.136C65.8599 18.4432 65.7106 18.8699 65.7106 19.416C65.7106 19.9621 65.8599 20.3973 66.1586 20.7216C66.4658 21.0373 66.837 21.1952 67.2722 21.1952C67.7074 21.1952 68.0743 21.0373 68.373 20.7216C68.6802 20.4059 68.8338 19.9749 68.8338 19.4288ZM74.9474 18.4944C74.9474 17.6069 75.1394 16.8176 75.5234 16.1264C75.9074 15.4267 76.4407 14.8848 77.1234 14.5008C77.8146 14.1083 78.5954 13.912 79.4658 13.912C80.5325 13.912 81.4455 14.1936 82.205 14.7568C82.9645 15.32 83.4722 16.088 83.7282 17.0608H81.3218C81.1426 16.6853 80.8866 16.3995 80.5538 16.2032C80.2295 16.0069 79.8583 15.9088 79.4402 15.9088C78.7661 15.9088 78.2199 16.1435 77.8018 16.6128C77.3837 17.0821 77.1746 17.7093 77.1746 18.4944C77.1746 19.2795 77.3837 19.9067 77.8018 20.376C78.2199 20.8453 78.7661 21.08 79.4402 21.08C79.8583 21.08 80.2295 20.9819 80.5538 20.7856C80.8866 20.5893 81.1426 20.3035 81.3218 19.928H83.7282C83.4722 20.9008 82.9645 21.6688 82.205 22.232C81.4455 22.7867 80.5325 23.064 79.4658 23.064C78.5954 23.064 77.8146 22.872 77.1234 22.488C76.4407 22.0955 75.9074 21.5536 75.5234 20.8624C75.1394 20.1712 74.9474 19.3819 74.9474 18.4944ZM87.2574 13.528V23H85.0686V13.528H87.2574ZM89.9444 15.1152C89.5604 15.1152 89.2447 15.0043 88.9972 14.7824C88.7583 14.552 88.6388 14.2704 88.6388 13.9376C88.6388 13.5963 88.7583 13.3147 88.9972 13.0928C89.2447 12.8624 89.5604 12.7472 89.9444 12.7472C90.3199 12.7472 90.6271 12.8624 90.866 13.0928C91.1135 13.3147 91.2372 13.5963 91.2372 13.9376C91.2372 14.2704 91.1135 14.552 90.866 14.7824C90.6271 15.0043 90.3199 15.1152 89.9444 15.1152ZM91.0324 15.8576V23H88.8436V15.8576H91.0324ZM99.3514 19.3136C99.3514 19.5184 99.3386 19.7317 99.313 19.9536H94.3594C94.3935 20.3973 94.5343 20.7387 94.7818 20.9776C95.0378 21.208 95.3493 21.3232 95.7162 21.3232C96.2623 21.3232 96.6421 21.0928 96.8554 20.632H99.185C99.0655 21.1013 98.8479 21.5237 98.5322 21.8992C98.225 22.2747 97.8367 22.5691 97.3674 22.7824C96.8981 22.9957 96.3733 23.1024 95.793 23.1024C95.0933 23.1024 94.4703 22.9531 93.9242 22.6544C93.3781 22.3557 92.9514 21.9291 92.6442 21.3744C92.337 20.8197 92.1834 20.1712 92.1834 19.4288C92.1834 18.6864 92.3327 18.0379 92.6314 17.4832C92.9386 16.9285 93.3653 16.5019 93.9114 16.2032C94.4575 15.9045 95.0847 15.7552 95.793 15.7552C96.4842 15.7552 97.0986 15.9003 97.6362 16.1904C98.1738 16.4805 98.5919 16.8944 98.8906 17.432C99.1978 17.9696 99.3514 18.5968 99.3514 19.3136ZM97.1114 18.7376C97.1114 18.3621 96.9834 18.0635 96.7274 17.8416C96.4714 17.6197 96.1514 17.5088 95.7674 17.5088C95.4005 17.5088 95.089 17.6155 94.833 17.8288C94.5855 18.0421 94.4319 18.3451 94.3722 18.7376H97.1114ZM104.858 15.7808C105.694 15.7808 106.36 16.0539 106.855 16.6C107.358 17.1376 107.61 17.88 107.61 18.8272V23H105.434V19.1216C105.434 18.6437 105.31 18.2725 105.063 18.008C104.815 17.7435 104.483 17.6112 104.065 17.6112C103.646 17.6112 103.314 17.7435 103.066 18.008C102.819 18.2725 102.695 18.6437 102.695 19.1216V23H100.506V15.8576H102.695V16.8048C102.917 16.4891 103.215 16.2416 103.591 16.0624C103.966 15.8747 104.389 15.7808 104.858 15.7808ZM113.112 21.144V23H111.998C111.205 23 110.586 22.808 110.142 22.424C109.699 22.0315 109.477 21.3957 109.477 20.5168V17.6752H108.606V15.8576H109.477V14.1168H111.666V15.8576H113.099V17.6752H111.666V20.5424C111.666 20.7557 111.717 20.9093 111.819 21.0032C111.922 21.0971 112.092 21.144 112.331 21.144H113.112ZM123.508 14.0144V15.768H121.127V23H118.938V15.768H116.557V14.0144H123.508ZM131.902 15.8576L127.422 26.392H125.067L126.705 22.7568L123.8 15.8576H126.245L127.896 20.3248L129.534 15.8576H131.902ZM134.882 16.8688C135.096 16.536 135.39 16.2672 135.766 16.0624C136.141 15.8576 136.581 15.7552 137.084 15.7552C137.673 15.7552 138.206 15.9045 138.684 16.2032C139.162 16.5019 139.537 16.9285 139.81 17.4832C140.092 18.0379 140.233 18.6821 140.233 19.416C140.233 20.1499 140.092 20.7984 139.81 21.3616C139.537 21.9163 139.162 22.3472 138.684 22.6544C138.206 22.9531 137.673 23.1024 137.084 23.1024C136.589 23.1024 136.15 23 135.766 22.7952C135.39 22.5904 135.096 22.3259 134.882 22.0016V26.4048H132.694V15.8576H134.882V16.8688ZM138.006 19.416C138.006 18.8699 137.852 18.4432 137.545 18.136C137.246 17.8203 136.875 17.6624 136.431 17.6624C135.996 17.6624 135.625 17.8203 135.318 18.136C135.019 18.4517 134.87 18.8827 134.87 19.4288C134.87 19.9749 135.019 20.4059 135.318 20.7216C135.625 21.0373 135.996 21.1952 136.431 21.1952C136.866 21.1952 137.238 21.0373 137.545 20.7216C137.852 20.3973 138.006 19.9621 138.006 19.416ZM148.114 19.3136C148.114 19.5184 148.101 19.7317 148.076 19.9536H143.122C143.156 20.3973 143.297 20.7387 143.544 20.9776C143.8 21.208 144.112 21.3232 144.479 21.3232C145.025 21.3232 145.405 21.0928 145.618 20.632H147.948C147.828 21.1013 147.61 21.5237 147.295 21.8992C146.988 22.2747 146.599 22.5691 146.13 22.7824C145.661 22.9957 145.136 23.1024 144.556 23.1024C143.856 23.1024 143.233 22.9531 142.687 22.6544C142.141 22.3557 141.714 21.9291 141.407 21.3744C141.1 20.8197 140.946 20.1712 140.946 19.4288C140.946 18.6864 141.095 18.0379 141.394 17.4832C141.701 16.9285 142.128 16.5019 142.674 16.2032C143.22 15.9045 143.847 15.7552 144.556 15.7552C145.247 15.7552 145.861 15.9003 146.399 16.1904C146.936 16.4805 147.354 16.8944 147.653 17.432C147.96 17.9696 148.114 18.5968 148.114 19.3136ZM145.874 18.7376C145.874 18.3621 145.746 18.0635 145.49 17.8416C145.234 17.6197 144.914 17.5088 144.53 17.5088C144.163 17.5088 143.852 17.6155 143.596 17.8288C143.348 18.0421 143.194 18.3451 143.135 18.7376H145.874Z" fill="#F2F2F2"/>
</svg>
