<svg width="120" height="120" viewBox="0 0 120 120" fill="none" xmlns="http://www.w3.org/2000/svg">
<g clip-path="url(#clip0)">
<path d="M49.9767 68.7982L46.7779 62.4778L4.5692 81.7626C1.77999 83.037 0.610749 86.3756 1.99553 89.1118C3.38032 91.848 6.76301 92.8829 9.44163 91.39L49.9767 68.7982Z" fill="#C8AC48"/>
<path d="M9.24952 91.4927C6.60407 92.8316 3.34729 91.7824 1.99598 89.1123C1.59624 88.3225 1.40996 87.4833 1.41511 86.6576C3.0026 87.8183 5.16868 88.0605 7.03029 87.1183C7.0957 87.0852 7.1619 87.049 7.22623 87.0141L47.7621 64.4217L49.9771 68.7982L9.44145 91.3905C9.37712 91.4254 9.31292 91.4606 9.24952 91.4927V91.4927Z" fill="#C8AC48"/>
<path d="M59.9229 54.2982L44.6757 63.7776L47.6848 69.7229L64.3524 63.0503L59.9229 54.2982Z" fill="#C8AC48"/>
<path d="M59.9227 54.298L54.9959 57.3612L55.71 58.7723C56.2357 59.811 55.8199 61.0791 54.7813 61.6045L45.8608 66.1192L47.6845 69.7227L64.3521 63.05L59.9227 54.298Z" fill="#C8AC48"/>
<path d="M44.1924 71.381L41.2716 65.6097C40.4272 63.9413 41.0952 61.9041 42.7637 61.0597C44.4321 60.2153 46.4693 60.8834 47.3137 62.5518L50.2346 68.3231C51.079 69.9915 50.411 72.0285 48.7425 72.8731C47.0741 73.7175 45.0368 73.0494 44.1924 71.381Z" fill="#FCC16D"/>
<path d="M48.7412 72.8725C47.9062 73.2951 46.9795 73.3383 46.1586 73.0693C45.3347 72.7992 44.6137 72.2154 44.1911 71.3804L41.9771 67.0059C42.3997 67.8408 43.1208 68.4246 43.9437 68.6926C44.7656 68.9638 45.6923 68.9204 46.5272 68.498C48.1969 67.653 48.8633 65.6156 48.0193 63.9479L50.2333 68.3224C51.0782 69.9923 50.411 72.0275 48.7412 72.8725V72.8725Z" fill="#FCC16D"/>
<path d="M75.4001 26.28L81.8856 39.0946L61.7672 49.2766L55.2817 36.462L75.4001 26.28Z" fill="#C8AC48"/>
<path d="M75.9688 77.3596L69.4833 64.545L89.6017 54.363L96.0872 67.1776L75.9688 77.3596Z" fill="#C8AC48"/>
<path d="M51.4765 38.8972L51.2512 38.4522C50.397 36.7642 51.0728 34.7033 52.7608 33.8489L74.7817 22.704C76.4697 21.8497 78.5305 22.5255 79.385 24.2136L79.6102 24.6586C80.4645 26.3466 79.7887 28.4074 78.1007 29.2619L56.0798 40.4068C54.3918 41.261 52.3309 40.5852 51.4765 38.8972V38.8972Z" fill="#FCC16D"/>
<path d="M71.7607 78.9764L71.9859 79.4214C72.8402 81.1094 74.901 81.7852 76.5892 80.931L98.6101 69.7861C100.298 68.9318 100.974 66.871 100.12 65.1828L99.8944 64.7378C99.0401 63.0498 96.9793 62.374 95.2911 63.2282L73.2702 74.3731C71.582 75.2275 70.9062 77.2883 71.7607 78.9764Z" fill="#FCC16D"/>
<path d="M87.2366 36.9229L94.5197 51.3135L64.1349 66.6914L56.8518 52.3007L87.2366 36.9229Z" fill="#FCC16D"/>
<path d="M60.4373 59.418L90.8221 44.0401L94.5083 51.3237L64.1235 66.7016L60.4373 59.418Z" fill="#E7AD5B"/>
<path d="M87.4385 36.4844L85.1394 34.5283C84.3513 33.8577 83.2376 33.7253 82.3144 34.1927L57.5573 46.7224C56.6339 47.1897 56.0812 48.1653 56.1548 49.1974L56.3696 52.2085C56.4566 53.4294 57.7593 54.1675 58.8513 53.6148L87.1019 39.3169C88.1942 38.7643 88.3708 37.2775 87.4385 36.4844Z" fill="#C8AC48"/>
<path d="M95.0007 51.4268L95.2155 54.4378C95.2892 55.47 94.7364 56.4457 93.813 56.9129L69.0559 69.4425C68.1325 69.9099 67.0191 69.7776 66.231 69.107L63.9319 67.1509C62.9996 66.3578 63.1762 64.871 64.2682 64.3183L92.519 50.0204C93.6111 49.4677 94.9137 50.2059 95.0007 51.4268V51.4268Z" fill="#C8AC48"/>
<path d="M106.877 91.8493H65.2756V86.0112C65.2756 84.8059 66.2527 83.8289 67.458 83.8289H104.695C105.9 83.8289 106.877 84.8059 106.877 86.0112V91.8493Z" fill="#AB974E"/>
<path d="M106.877 86.0117V91.8493H102.311V86.0117C102.311 84.807 101.334 83.8293 100.129 83.8293H104.694C105.899 83.8293 106.877 84.807 106.877 86.0117Z" fill="#C8AC48"/>
<path d="M116.046 103.308H56.1072C54.5173 103.308 53.4612 101.663 54.1231 100.217L56.2421 95.5908C58.0775 91.5832 62.0809 89.0134 66.4889 89.0134H105.664C110.072 89.0134 114.076 91.5832 115.911 95.5908L118.03 100.217C118.692 101.663 117.636 103.308 116.046 103.308Z" fill="#C8AC48"/>
<path d="M116.047 103.309H110.211C111.8 103.309 112.856 101.663 112.195 100.218L110.076 95.5899C108.24 91.583 104.236 89.0125 99.8298 89.0125H105.663C110.071 89.0125 114.076 91.5832 115.911 95.5899L118.03 100.218C118.692 101.663 117.635 103.309 116.047 103.309V103.309Z" fill="#AB9750"/>
<path d="M112.867 80.2154C112.479 80.2154 112.091 80.0666 111.795 79.7695C111.207 79.1773 111.21 78.2203 111.802 77.6317L113.438 76.0056C114.03 75.4172 114.987 75.4201 115.575 76.0119C116.164 76.6041 116.161 77.5612 115.569 78.1498L113.933 79.7759C113.638 80.069 113.253 80.2154 112.867 80.2154V80.2154Z" fill="#FCC16D"/>
<path d="M108.097 76.8344C107.975 76.8344 107.851 76.8195 107.728 76.7885C106.918 76.5854 106.427 75.7644 106.629 74.9547L107.197 72.6927C107.4 71.8829 108.222 71.3914 109.031 71.5943C109.84 71.7975 110.332 72.6185 110.129 73.4281L109.562 75.6901C109.39 76.3764 108.774 76.8344 108.097 76.8344Z" fill="#FCC16D"/>
<path d="M116.221 85.0055C115.541 85.0055 114.923 84.543 114.754 83.8527C114.556 83.0416 115.052 82.2234 115.863 82.0252L118.129 81.471C118.941 81.2724 119.758 81.7691 119.957 82.5801C120.155 83.3912 119.659 84.2094 118.848 84.4076L116.582 84.9618C116.461 84.9912 116.34 85.0055 116.221 85.0055Z" fill="#FCC16D"/>
</g>
<defs>
<clipPath id="clip0">
<rect width="120" height="120" fill="white"/>
</clipPath>
</defs>
</svg>
